%TF.GenerationSoftware,KiCad,Pcbnew,8.0.3*%
%TF.CreationDate,2024-06-29T10:36:16+02:00*%
%TF.ProjectId,adapter 8913-8910 Angle L,61646170-7465-4722-9038-3931332d3839,1.0a*%
%TF.SameCoordinates,Original*%
%TF.FileFunction,Drillmap*%
%TF.FilePolarity,Positive*%
%FSLAX45Y45*%
G04 Gerber Fmt 4.5, Leading zero omitted, Abs format (unit mm)*
G04 Created by KiCad (PCBNEW 8.0.3) date 2024-06-29 10:36:16*
%MOMM*%
%LPD*%
G01*
G04 APERTURE LIST*
%ADD10C,0.100000*%
%ADD11C,0.200000*%
G04 APERTURE END LIST*
D10*
X10860884Y-2303955D02*
X10860884Y-6404641D01*
X8660884Y-7153955D02*
X8660884Y-2303955D01*
X10380000Y-11860000D02*
X12557500Y-11067797D01*
X10380000Y-11860000D02*
X8660884Y-7153955D01*
X8660884Y-2303955D02*
X10860884Y-2303955D01*
X12557500Y-11067797D02*
X10860884Y-6404641D01*
D11*
D10*
X9060000Y-6325000D02*
X9100000Y-6365000D01*
X9100000Y-6325000D02*
X9060000Y-6365000D01*
X9230000Y-6085000D02*
X9270000Y-6125000D01*
X9270000Y-6085000D02*
X9230000Y-6125000D01*
X9497500Y-4952500D02*
X9537500Y-4992500D01*
X9537500Y-4952500D02*
X9497500Y-4992500D01*
X9703226Y-6333777D02*
X9743226Y-6373777D01*
X9743226Y-6333777D02*
X9703226Y-6373777D01*
X9728000Y-6837364D02*
X9768000Y-6877364D01*
X9768000Y-6837364D02*
X9728000Y-6877364D01*
X9762969Y-6253585D02*
X9802969Y-6293585D01*
X9802969Y-6253585D02*
X9762969Y-6293585D01*
X9783000Y-7085000D02*
X9823000Y-7125000D01*
X9823000Y-7085000D02*
X9783000Y-7125000D01*
X9813000Y-6167000D02*
X9853000Y-6207000D01*
X9853000Y-6167000D02*
X9813000Y-6207000D01*
X9822000Y-7214000D02*
X9862000Y-7254000D01*
X9862000Y-7214000D02*
X9822000Y-7254000D01*
X9841000Y-6069000D02*
X9881000Y-6109000D01*
X9881000Y-6069000D02*
X9841000Y-6109000D01*
X9906000Y-7430000D02*
X9946000Y-7470000D01*
X9946000Y-7430000D02*
X9906000Y-7470000D01*
X9925000Y-5994000D02*
X9965000Y-6034000D01*
X9965000Y-5994000D02*
X9925000Y-6034000D01*
X10014000Y-7724000D02*
X10054000Y-7764000D01*
X10054000Y-7724000D02*
X10014000Y-7764000D01*
X10034000Y-6072000D02*
X10074000Y-6112000D01*
X10074000Y-6072000D02*
X10034000Y-6112000D01*
X10088000Y-7918000D02*
X10128000Y-7958000D01*
X10128000Y-7918000D02*
X10088000Y-7958000D01*
X10130000Y-5997000D02*
X10170000Y-6037000D01*
X10170000Y-5997000D02*
X10130000Y-6037000D01*
X10208000Y-5931000D02*
X10248000Y-5971000D01*
X10248000Y-5931000D02*
X10208000Y-5971000D01*
X10216000Y-8270000D02*
X10256000Y-8310000D01*
X10256000Y-8270000D02*
X10216000Y-8310000D01*
X10284000Y-5857000D02*
X10324000Y-5897000D01*
X10324000Y-5857000D02*
X10284000Y-5897000D01*
X10302000Y-8507000D02*
X10342000Y-8547000D01*
X10342000Y-8507000D02*
X10302000Y-8547000D01*
X10355000Y-5781000D02*
X10395000Y-5821000D01*
X10395000Y-5781000D02*
X10355000Y-5821000D01*
X10388000Y-8746000D02*
X10428000Y-8786000D01*
X10428000Y-8746000D02*
X10388000Y-8786000D01*
X10478000Y-8991000D02*
X10518000Y-9031000D01*
X10518000Y-8991000D02*
X10478000Y-9031000D01*
X9064884Y-2559955D02*
G75*
G02*
X8984884Y-2559955I-40000J0D01*
G01*
X8984884Y-2559955D02*
G75*
G02*
X9064884Y-2559955I40000J0D01*
G01*
X9064884Y-2813955D02*
G75*
G02*
X8984884Y-2813955I-40000J0D01*
G01*
X8984884Y-2813955D02*
G75*
G02*
X9064884Y-2813955I40000J0D01*
G01*
X9064884Y-3067955D02*
G75*
G02*
X8984884Y-3067955I-40000J0D01*
G01*
X8984884Y-3067955D02*
G75*
G02*
X9064884Y-3067955I40000J0D01*
G01*
X9064884Y-3321955D02*
G75*
G02*
X8984884Y-3321955I-40000J0D01*
G01*
X8984884Y-3321955D02*
G75*
G02*
X9064884Y-3321955I40000J0D01*
G01*
X9064884Y-3575955D02*
G75*
G02*
X8984884Y-3575955I-40000J0D01*
G01*
X8984884Y-3575955D02*
G75*
G02*
X9064884Y-3575955I40000J0D01*
G01*
X9064884Y-3829955D02*
G75*
G02*
X8984884Y-3829955I-40000J0D01*
G01*
X8984884Y-3829955D02*
G75*
G02*
X9064884Y-3829955I40000J0D01*
G01*
X9064884Y-4083955D02*
G75*
G02*
X8984884Y-4083955I-40000J0D01*
G01*
X8984884Y-4083955D02*
G75*
G02*
X9064884Y-4083955I40000J0D01*
G01*
X9064884Y-4337955D02*
G75*
G02*
X8984884Y-4337955I-40000J0D01*
G01*
X8984884Y-4337955D02*
G75*
G02*
X9064884Y-4337955I40000J0D01*
G01*
X9064884Y-4591955D02*
G75*
G02*
X8984884Y-4591955I-40000J0D01*
G01*
X8984884Y-4591955D02*
G75*
G02*
X9064884Y-4591955I40000J0D01*
G01*
X9064884Y-4845955D02*
G75*
G02*
X8984884Y-4845955I-40000J0D01*
G01*
X8984884Y-4845955D02*
G75*
G02*
X9064884Y-4845955I40000J0D01*
G01*
X9064884Y-5099955D02*
G75*
G02*
X8984884Y-5099955I-40000J0D01*
G01*
X8984884Y-5099955D02*
G75*
G02*
X9064884Y-5099955I40000J0D01*
G01*
X9064884Y-5353955D02*
G75*
G02*
X8984884Y-5353955I-40000J0D01*
G01*
X8984884Y-5353955D02*
G75*
G02*
X9064884Y-5353955I40000J0D01*
G01*
X9072909Y-6901239D02*
G75*
G02*
X8992909Y-6901239I-40000J0D01*
G01*
X8992909Y-6901239D02*
G75*
G02*
X9072909Y-6901239I40000J0D01*
G01*
X9159782Y-7139921D02*
G75*
G02*
X9079782Y-7139921I-40000J0D01*
G01*
X9079782Y-7139921D02*
G75*
G02*
X9159782Y-7139921I40000J0D01*
G01*
X9246655Y-7378602D02*
G75*
G02*
X9166655Y-7378602I-40000J0D01*
G01*
X9166655Y-7378602D02*
G75*
G02*
X9246655Y-7378602I40000J0D01*
G01*
X9333528Y-7617284D02*
G75*
G02*
X9253528Y-7617284I-40000J0D01*
G01*
X9253528Y-7617284D02*
G75*
G02*
X9333528Y-7617284I40000J0D01*
G01*
X9420401Y-7855966D02*
G75*
G02*
X9340401Y-7855966I-40000J0D01*
G01*
X9340401Y-7855966D02*
G75*
G02*
X9420401Y-7855966I40000J0D01*
G01*
X9507274Y-8094648D02*
G75*
G02*
X9427274Y-8094648I-40000J0D01*
G01*
X9427274Y-8094648D02*
G75*
G02*
X9507274Y-8094648I40000J0D01*
G01*
X9594147Y-8333330D02*
G75*
G02*
X9514147Y-8333330I-40000J0D01*
G01*
X9514147Y-8333330D02*
G75*
G02*
X9594147Y-8333330I40000J0D01*
G01*
X9681020Y-8572012D02*
G75*
G02*
X9601020Y-8572012I-40000J0D01*
G01*
X9601020Y-8572012D02*
G75*
G02*
X9681020Y-8572012I40000J0D01*
G01*
X9767893Y-8810694D02*
G75*
G02*
X9687893Y-8810694I-40000J0D01*
G01*
X9687893Y-8810694D02*
G75*
G02*
X9767893Y-8810694I40000J0D01*
G01*
X9854767Y-9049376D02*
G75*
G02*
X9774767Y-9049376I-40000J0D01*
G01*
X9774767Y-9049376D02*
G75*
G02*
X9854767Y-9049376I40000J0D01*
G01*
X9941640Y-9288058D02*
G75*
G02*
X9861640Y-9288058I-40000J0D01*
G01*
X9861640Y-9288058D02*
G75*
G02*
X9941640Y-9288058I40000J0D01*
G01*
X10028513Y-9526740D02*
G75*
G02*
X9948513Y-9526740I-40000J0D01*
G01*
X9948513Y-9526740D02*
G75*
G02*
X10028513Y-9526740I40000J0D01*
G01*
X10115386Y-9765422D02*
G75*
G02*
X10035386Y-9765422I-40000J0D01*
G01*
X10035386Y-9765422D02*
G75*
G02*
X10115386Y-9765422I40000J0D01*
G01*
X10202259Y-10004104D02*
G75*
G02*
X10122259Y-10004104I-40000J0D01*
G01*
X10122259Y-10004104D02*
G75*
G02*
X10202259Y-10004104I40000J0D01*
G01*
X10289132Y-10242786D02*
G75*
G02*
X10209132Y-10242786I-40000J0D01*
G01*
X10209132Y-10242786D02*
G75*
G02*
X10289132Y-10242786I40000J0D01*
G01*
X10376005Y-10481468D02*
G75*
G02*
X10296005Y-10481468I-40000J0D01*
G01*
X10296005Y-10481468D02*
G75*
G02*
X10376005Y-10481468I40000J0D01*
G01*
X10462878Y-10720150D02*
G75*
G02*
X10382878Y-10720150I-40000J0D01*
G01*
X10382878Y-10720150D02*
G75*
G02*
X10462878Y-10720150I40000J0D01*
G01*
X10505000Y-6380000D02*
G75*
G02*
X10425000Y-6380000I-40000J0D01*
G01*
X10425000Y-6380000D02*
G75*
G02*
X10505000Y-6380000I40000J0D01*
G01*
X10549751Y-10958831D02*
G75*
G02*
X10469751Y-10958831I-40000J0D01*
G01*
X10469751Y-10958831D02*
G75*
G02*
X10549751Y-10958831I40000J0D01*
G01*
X10588884Y-2559955D02*
G75*
G02*
X10508884Y-2559955I-40000J0D01*
G01*
X10508884Y-2559955D02*
G75*
G02*
X10588884Y-2559955I40000J0D01*
G01*
X10588884Y-2813955D02*
G75*
G02*
X10508884Y-2813955I-40000J0D01*
G01*
X10508884Y-2813955D02*
G75*
G02*
X10588884Y-2813955I40000J0D01*
G01*
X10588884Y-3067955D02*
G75*
G02*
X10508884Y-3067955I-40000J0D01*
G01*
X10508884Y-3067955D02*
G75*
G02*
X10588884Y-3067955I40000J0D01*
G01*
X10588884Y-3321955D02*
G75*
G02*
X10508884Y-3321955I-40000J0D01*
G01*
X10508884Y-3321955D02*
G75*
G02*
X10588884Y-3321955I40000J0D01*
G01*
X10588884Y-3575955D02*
G75*
G02*
X10508884Y-3575955I-40000J0D01*
G01*
X10508884Y-3575955D02*
G75*
G02*
X10588884Y-3575955I40000J0D01*
G01*
X10588884Y-3829955D02*
G75*
G02*
X10508884Y-3829955I-40000J0D01*
G01*
X10508884Y-3829955D02*
G75*
G02*
X10588884Y-3829955I40000J0D01*
G01*
X10588884Y-4083955D02*
G75*
G02*
X10508884Y-4083955I-40000J0D01*
G01*
X10508884Y-4083955D02*
G75*
G02*
X10588884Y-4083955I40000J0D01*
G01*
X10588884Y-4337955D02*
G75*
G02*
X10508884Y-4337955I-40000J0D01*
G01*
X10508884Y-4337955D02*
G75*
G02*
X10588884Y-4337955I40000J0D01*
G01*
X10588884Y-4591955D02*
G75*
G02*
X10508884Y-4591955I-40000J0D01*
G01*
X10508884Y-4591955D02*
G75*
G02*
X10588884Y-4591955I40000J0D01*
G01*
X10588884Y-4845955D02*
G75*
G02*
X10508884Y-4845955I-40000J0D01*
G01*
X10508884Y-4845955D02*
G75*
G02*
X10588884Y-4845955I40000J0D01*
G01*
X10588884Y-5099955D02*
G75*
G02*
X10508884Y-5099955I-40000J0D01*
G01*
X10508884Y-5099955D02*
G75*
G02*
X10588884Y-5099955I40000J0D01*
G01*
X10588884Y-5353955D02*
G75*
G02*
X10508884Y-5353955I-40000J0D01*
G01*
X10508884Y-5353955D02*
G75*
G02*
X10588884Y-5353955I40000J0D01*
G01*
X10591873Y-6618682D02*
G75*
G02*
X10511873Y-6618682I-40000J0D01*
G01*
X10511873Y-6618682D02*
G75*
G02*
X10591873Y-6618682I40000J0D01*
G01*
X10636625Y-11197513D02*
G75*
G02*
X10556625Y-11197513I-40000J0D01*
G01*
X10556625Y-11197513D02*
G75*
G02*
X10636625Y-11197513I40000J0D01*
G01*
X10678746Y-6857364D02*
G75*
G02*
X10598746Y-6857364I-40000J0D01*
G01*
X10598746Y-6857364D02*
G75*
G02*
X10678746Y-6857364I40000J0D01*
G01*
X10723498Y-11436195D02*
G75*
G02*
X10643498Y-11436195I-40000J0D01*
G01*
X10643498Y-11436195D02*
G75*
G02*
X10723498Y-11436195I40000J0D01*
G01*
X10765619Y-7096046D02*
G75*
G02*
X10685619Y-7096046I-40000J0D01*
G01*
X10685619Y-7096046D02*
G75*
G02*
X10765619Y-7096046I40000J0D01*
G01*
X10852493Y-7334728D02*
G75*
G02*
X10772493Y-7334728I-40000J0D01*
G01*
X10772493Y-7334728D02*
G75*
G02*
X10852493Y-7334728I40000J0D01*
G01*
X10939366Y-7573410D02*
G75*
G02*
X10859366Y-7573410I-40000J0D01*
G01*
X10859366Y-7573410D02*
G75*
G02*
X10939366Y-7573410I40000J0D01*
G01*
X11026239Y-7812091D02*
G75*
G02*
X10946239Y-7812091I-40000J0D01*
G01*
X10946239Y-7812091D02*
G75*
G02*
X11026239Y-7812091I40000J0D01*
G01*
X11113112Y-8050773D02*
G75*
G02*
X11033112Y-8050773I-40000J0D01*
G01*
X11033112Y-8050773D02*
G75*
G02*
X11113112Y-8050773I40000J0D01*
G01*
X11199985Y-8289455D02*
G75*
G02*
X11119985Y-8289455I-40000J0D01*
G01*
X11119985Y-8289455D02*
G75*
G02*
X11199985Y-8289455I40000J0D01*
G01*
X11286858Y-8528137D02*
G75*
G02*
X11206858Y-8528137I-40000J0D01*
G01*
X11206858Y-8528137D02*
G75*
G02*
X11286858Y-8528137I40000J0D01*
G01*
X11373731Y-8766819D02*
G75*
G02*
X11293731Y-8766819I-40000J0D01*
G01*
X11293731Y-8766819D02*
G75*
G02*
X11373731Y-8766819I40000J0D01*
G01*
X11460604Y-9005501D02*
G75*
G02*
X11380604Y-9005501I-40000J0D01*
G01*
X11380604Y-9005501D02*
G75*
G02*
X11460604Y-9005501I40000J0D01*
G01*
X11547477Y-9244183D02*
G75*
G02*
X11467477Y-9244183I-40000J0D01*
G01*
X11467477Y-9244183D02*
G75*
G02*
X11547477Y-9244183I40000J0D01*
G01*
X11634350Y-9482865D02*
G75*
G02*
X11554350Y-9482865I-40000J0D01*
G01*
X11554350Y-9482865D02*
G75*
G02*
X11634350Y-9482865I40000J0D01*
G01*
X11721224Y-9721547D02*
G75*
G02*
X11641224Y-9721547I-40000J0D01*
G01*
X11641224Y-9721547D02*
G75*
G02*
X11721224Y-9721547I40000J0D01*
G01*
X11808097Y-9960229D02*
G75*
G02*
X11728097Y-9960229I-40000J0D01*
G01*
X11728097Y-9960229D02*
G75*
G02*
X11808097Y-9960229I40000J0D01*
G01*
X11894970Y-10198911D02*
G75*
G02*
X11814970Y-10198911I-40000J0D01*
G01*
X11814970Y-10198911D02*
G75*
G02*
X11894970Y-10198911I40000J0D01*
G01*
X11981843Y-10437593D02*
G75*
G02*
X11901843Y-10437593I-40000J0D01*
G01*
X11901843Y-10437593D02*
G75*
G02*
X11981843Y-10437593I40000J0D01*
G01*
X12068716Y-10676275D02*
G75*
G02*
X11988716Y-10676275I-40000J0D01*
G01*
X11988716Y-10676275D02*
G75*
G02*
X12068716Y-10676275I40000J0D01*
G01*
X12155589Y-10914957D02*
G75*
G02*
X12075589Y-10914957I-40000J0D01*
G01*
X12075589Y-10914957D02*
G75*
G02*
X12155589Y-10914957I40000J0D01*
G01*
X9460000Y-3566000D02*
X9460000Y-3666000D01*
X9410000Y-3616000D02*
X9510000Y-3616000D01*
X9460000Y-3820000D02*
X9460000Y-3920000D01*
X9410000Y-3870000D02*
X9510000Y-3870000D01*
D11*
X8916661Y-12176484D02*
X8916661Y-11976484D01*
X8916661Y-11976484D02*
X8964280Y-11976484D01*
X8964280Y-11976484D02*
X8992851Y-11986008D01*
X8992851Y-11986008D02*
X9011899Y-12005055D01*
X9011899Y-12005055D02*
X9021423Y-12024103D01*
X9021423Y-12024103D02*
X9030947Y-12062198D01*
X9030947Y-12062198D02*
X9030947Y-12090769D01*
X9030947Y-12090769D02*
X9021423Y-12128865D01*
X9021423Y-12128865D02*
X9011899Y-12147912D01*
X9011899Y-12147912D02*
X8992851Y-12166960D01*
X8992851Y-12166960D02*
X8964280Y-12176484D01*
X8964280Y-12176484D02*
X8916661Y-12176484D01*
X9116661Y-12176484D02*
X9116661Y-12043150D01*
X9116661Y-12081246D02*
X9126185Y-12062198D01*
X9126185Y-12062198D02*
X9135708Y-12052674D01*
X9135708Y-12052674D02*
X9154756Y-12043150D01*
X9154756Y-12043150D02*
X9173804Y-12043150D01*
X9240470Y-12176484D02*
X9240470Y-12043150D01*
X9240470Y-11976484D02*
X9230947Y-11986008D01*
X9230947Y-11986008D02*
X9240470Y-11995531D01*
X9240470Y-11995531D02*
X9249994Y-11986008D01*
X9249994Y-11986008D02*
X9240470Y-11976484D01*
X9240470Y-11976484D02*
X9240470Y-11995531D01*
X9364280Y-12176484D02*
X9345232Y-12166960D01*
X9345232Y-12166960D02*
X9335708Y-12147912D01*
X9335708Y-12147912D02*
X9335708Y-11976484D01*
X9469042Y-12176484D02*
X9449994Y-12166960D01*
X9449994Y-12166960D02*
X9440470Y-12147912D01*
X9440470Y-12147912D02*
X9440470Y-11976484D01*
X9697613Y-12176484D02*
X9697613Y-11976484D01*
X9697613Y-11976484D02*
X9764280Y-12119341D01*
X9764280Y-12119341D02*
X9830947Y-11976484D01*
X9830947Y-11976484D02*
X9830947Y-12176484D01*
X10011899Y-12176484D02*
X10011899Y-12071722D01*
X10011899Y-12071722D02*
X10002375Y-12052674D01*
X10002375Y-12052674D02*
X9983328Y-12043150D01*
X9983328Y-12043150D02*
X9945232Y-12043150D01*
X9945232Y-12043150D02*
X9926185Y-12052674D01*
X10011899Y-12166960D02*
X9992851Y-12176484D01*
X9992851Y-12176484D02*
X9945232Y-12176484D01*
X9945232Y-12176484D02*
X9926185Y-12166960D01*
X9926185Y-12166960D02*
X9916661Y-12147912D01*
X9916661Y-12147912D02*
X9916661Y-12128865D01*
X9916661Y-12128865D02*
X9926185Y-12109817D01*
X9926185Y-12109817D02*
X9945232Y-12100293D01*
X9945232Y-12100293D02*
X9992851Y-12100293D01*
X9992851Y-12100293D02*
X10011899Y-12090769D01*
X10107137Y-12043150D02*
X10107137Y-12243150D01*
X10107137Y-12052674D02*
X10126185Y-12043150D01*
X10126185Y-12043150D02*
X10164280Y-12043150D01*
X10164280Y-12043150D02*
X10183328Y-12052674D01*
X10183328Y-12052674D02*
X10192851Y-12062198D01*
X10192851Y-12062198D02*
X10202375Y-12081246D01*
X10202375Y-12081246D02*
X10202375Y-12138388D01*
X10202375Y-12138388D02*
X10192851Y-12157436D01*
X10192851Y-12157436D02*
X10183328Y-12166960D01*
X10183328Y-12166960D02*
X10164280Y-12176484D01*
X10164280Y-12176484D02*
X10126185Y-12176484D01*
X10126185Y-12176484D02*
X10107137Y-12166960D01*
X10288089Y-12157436D02*
X10297613Y-12166960D01*
X10297613Y-12166960D02*
X10288089Y-12176484D01*
X10288089Y-12176484D02*
X10278566Y-12166960D01*
X10278566Y-12166960D02*
X10288089Y-12157436D01*
X10288089Y-12157436D02*
X10288089Y-12176484D01*
X10288089Y-12052674D02*
X10297613Y-12062198D01*
X10297613Y-12062198D02*
X10288089Y-12071722D01*
X10288089Y-12071722D02*
X10278566Y-12062198D01*
X10278566Y-12062198D02*
X10288089Y-12052674D01*
X10288089Y-12052674D02*
X10288089Y-12071722D01*
D10*
X8615884Y-12485000D02*
X8655884Y-12525000D01*
X8655884Y-12485000D02*
X8615884Y-12525000D01*
D11*
X8954756Y-12396484D02*
X8973804Y-12396484D01*
X8973804Y-12396484D02*
X8992851Y-12406008D01*
X8992851Y-12406008D02*
X9002375Y-12415531D01*
X9002375Y-12415531D02*
X9011899Y-12434579D01*
X9011899Y-12434579D02*
X9021423Y-12472674D01*
X9021423Y-12472674D02*
X9021423Y-12520293D01*
X9021423Y-12520293D02*
X9011899Y-12558388D01*
X9011899Y-12558388D02*
X9002375Y-12577436D01*
X9002375Y-12577436D02*
X8992851Y-12586960D01*
X8992851Y-12586960D02*
X8973804Y-12596484D01*
X8973804Y-12596484D02*
X8954756Y-12596484D01*
X8954756Y-12596484D02*
X8935708Y-12586960D01*
X8935708Y-12586960D02*
X8926185Y-12577436D01*
X8926185Y-12577436D02*
X8916661Y-12558388D01*
X8916661Y-12558388D02*
X8907137Y-12520293D01*
X8907137Y-12520293D02*
X8907137Y-12472674D01*
X8907137Y-12472674D02*
X8916661Y-12434579D01*
X8916661Y-12434579D02*
X8926185Y-12415531D01*
X8926185Y-12415531D02*
X8935708Y-12406008D01*
X8935708Y-12406008D02*
X8954756Y-12396484D01*
X9107137Y-12577436D02*
X9116661Y-12586960D01*
X9116661Y-12586960D02*
X9107137Y-12596484D01*
X9107137Y-12596484D02*
X9097613Y-12586960D01*
X9097613Y-12586960D02*
X9107137Y-12577436D01*
X9107137Y-12577436D02*
X9107137Y-12596484D01*
X9288089Y-12463150D02*
X9288089Y-12596484D01*
X9240470Y-12386960D02*
X9192851Y-12529817D01*
X9192851Y-12529817D02*
X9316661Y-12529817D01*
X9430947Y-12396484D02*
X9449994Y-12396484D01*
X9449994Y-12396484D02*
X9469042Y-12406008D01*
X9469042Y-12406008D02*
X9478566Y-12415531D01*
X9478566Y-12415531D02*
X9488089Y-12434579D01*
X9488089Y-12434579D02*
X9497613Y-12472674D01*
X9497613Y-12472674D02*
X9497613Y-12520293D01*
X9497613Y-12520293D02*
X9488089Y-12558388D01*
X9488089Y-12558388D02*
X9478566Y-12577436D01*
X9478566Y-12577436D02*
X9469042Y-12586960D01*
X9469042Y-12586960D02*
X9449994Y-12596484D01*
X9449994Y-12596484D02*
X9430947Y-12596484D01*
X9430947Y-12596484D02*
X9411899Y-12586960D01*
X9411899Y-12586960D02*
X9402375Y-12577436D01*
X9402375Y-12577436D02*
X9392851Y-12558388D01*
X9392851Y-12558388D02*
X9383328Y-12520293D01*
X9383328Y-12520293D02*
X9383328Y-12472674D01*
X9383328Y-12472674D02*
X9392851Y-12434579D01*
X9392851Y-12434579D02*
X9402375Y-12415531D01*
X9402375Y-12415531D02*
X9411899Y-12406008D01*
X9411899Y-12406008D02*
X9430947Y-12396484D01*
X9621423Y-12396484D02*
X9640470Y-12396484D01*
X9640470Y-12396484D02*
X9659518Y-12406008D01*
X9659518Y-12406008D02*
X9669042Y-12415531D01*
X9669042Y-12415531D02*
X9678566Y-12434579D01*
X9678566Y-12434579D02*
X9688089Y-12472674D01*
X9688089Y-12472674D02*
X9688089Y-12520293D01*
X9688089Y-12520293D02*
X9678566Y-12558388D01*
X9678566Y-12558388D02*
X9669042Y-12577436D01*
X9669042Y-12577436D02*
X9659518Y-12586960D01*
X9659518Y-12586960D02*
X9640470Y-12596484D01*
X9640470Y-12596484D02*
X9621423Y-12596484D01*
X9621423Y-12596484D02*
X9602375Y-12586960D01*
X9602375Y-12586960D02*
X9592851Y-12577436D01*
X9592851Y-12577436D02*
X9583328Y-12558388D01*
X9583328Y-12558388D02*
X9573804Y-12520293D01*
X9573804Y-12520293D02*
X9573804Y-12472674D01*
X9573804Y-12472674D02*
X9583328Y-12434579D01*
X9583328Y-12434579D02*
X9592851Y-12415531D01*
X9592851Y-12415531D02*
X9602375Y-12406008D01*
X9602375Y-12406008D02*
X9621423Y-12396484D01*
X9773804Y-12596484D02*
X9773804Y-12463150D01*
X9773804Y-12482198D02*
X9783328Y-12472674D01*
X9783328Y-12472674D02*
X9802375Y-12463150D01*
X9802375Y-12463150D02*
X9830947Y-12463150D01*
X9830947Y-12463150D02*
X9849994Y-12472674D01*
X9849994Y-12472674D02*
X9859518Y-12491722D01*
X9859518Y-12491722D02*
X9859518Y-12596484D01*
X9859518Y-12491722D02*
X9869042Y-12472674D01*
X9869042Y-12472674D02*
X9888089Y-12463150D01*
X9888089Y-12463150D02*
X9916661Y-12463150D01*
X9916661Y-12463150D02*
X9935709Y-12472674D01*
X9935709Y-12472674D02*
X9945232Y-12491722D01*
X9945232Y-12491722D02*
X9945232Y-12596484D01*
X10040470Y-12596484D02*
X10040470Y-12463150D01*
X10040470Y-12482198D02*
X10049994Y-12472674D01*
X10049994Y-12472674D02*
X10069042Y-12463150D01*
X10069042Y-12463150D02*
X10097613Y-12463150D01*
X10097613Y-12463150D02*
X10116661Y-12472674D01*
X10116661Y-12472674D02*
X10126185Y-12491722D01*
X10126185Y-12491722D02*
X10126185Y-12596484D01*
X10126185Y-12491722D02*
X10135709Y-12472674D01*
X10135709Y-12472674D02*
X10154756Y-12463150D01*
X10154756Y-12463150D02*
X10183328Y-12463150D01*
X10183328Y-12463150D02*
X10202375Y-12472674D01*
X10202375Y-12472674D02*
X10211899Y-12491722D01*
X10211899Y-12491722D02*
X10211899Y-12596484D01*
X10602375Y-12386960D02*
X10430947Y-12644103D01*
X10859518Y-12396484D02*
X10878566Y-12396484D01*
X10878566Y-12396484D02*
X10897613Y-12406008D01*
X10897613Y-12406008D02*
X10907137Y-12415531D01*
X10907137Y-12415531D02*
X10916661Y-12434579D01*
X10916661Y-12434579D02*
X10926185Y-12472674D01*
X10926185Y-12472674D02*
X10926185Y-12520293D01*
X10926185Y-12520293D02*
X10916661Y-12558388D01*
X10916661Y-12558388D02*
X10907137Y-12577436D01*
X10907137Y-12577436D02*
X10897613Y-12586960D01*
X10897613Y-12586960D02*
X10878566Y-12596484D01*
X10878566Y-12596484D02*
X10859518Y-12596484D01*
X10859518Y-12596484D02*
X10840471Y-12586960D01*
X10840471Y-12586960D02*
X10830947Y-12577436D01*
X10830947Y-12577436D02*
X10821423Y-12558388D01*
X10821423Y-12558388D02*
X10811899Y-12520293D01*
X10811899Y-12520293D02*
X10811899Y-12472674D01*
X10811899Y-12472674D02*
X10821423Y-12434579D01*
X10821423Y-12434579D02*
X10830947Y-12415531D01*
X10830947Y-12415531D02*
X10840471Y-12406008D01*
X10840471Y-12406008D02*
X10859518Y-12396484D01*
X11011899Y-12577436D02*
X11021423Y-12586960D01*
X11021423Y-12586960D02*
X11011899Y-12596484D01*
X11011899Y-12596484D02*
X11002375Y-12586960D01*
X11002375Y-12586960D02*
X11011899Y-12577436D01*
X11011899Y-12577436D02*
X11011899Y-12596484D01*
X11145232Y-12396484D02*
X11164280Y-12396484D01*
X11164280Y-12396484D02*
X11183328Y-12406008D01*
X11183328Y-12406008D02*
X11192851Y-12415531D01*
X11192851Y-12415531D02*
X11202375Y-12434579D01*
X11202375Y-12434579D02*
X11211899Y-12472674D01*
X11211899Y-12472674D02*
X11211899Y-12520293D01*
X11211899Y-12520293D02*
X11202375Y-12558388D01*
X11202375Y-12558388D02*
X11192851Y-12577436D01*
X11192851Y-12577436D02*
X11183328Y-12586960D01*
X11183328Y-12586960D02*
X11164280Y-12596484D01*
X11164280Y-12596484D02*
X11145232Y-12596484D01*
X11145232Y-12596484D02*
X11126185Y-12586960D01*
X11126185Y-12586960D02*
X11116661Y-12577436D01*
X11116661Y-12577436D02*
X11107137Y-12558388D01*
X11107137Y-12558388D02*
X11097613Y-12520293D01*
X11097613Y-12520293D02*
X11097613Y-12472674D01*
X11097613Y-12472674D02*
X11107137Y-12434579D01*
X11107137Y-12434579D02*
X11116661Y-12415531D01*
X11116661Y-12415531D02*
X11126185Y-12406008D01*
X11126185Y-12406008D02*
X11145232Y-12396484D01*
X11402375Y-12596484D02*
X11288090Y-12596484D01*
X11345232Y-12596484D02*
X11345232Y-12396484D01*
X11345232Y-12396484D02*
X11326185Y-12425055D01*
X11326185Y-12425055D02*
X11307137Y-12444103D01*
X11307137Y-12444103D02*
X11288090Y-12453627D01*
X11583328Y-12396484D02*
X11488090Y-12396484D01*
X11488090Y-12396484D02*
X11478566Y-12491722D01*
X11478566Y-12491722D02*
X11488090Y-12482198D01*
X11488090Y-12482198D02*
X11507137Y-12472674D01*
X11507137Y-12472674D02*
X11554756Y-12472674D01*
X11554756Y-12472674D02*
X11573804Y-12482198D01*
X11573804Y-12482198D02*
X11583328Y-12491722D01*
X11583328Y-12491722D02*
X11592851Y-12510769D01*
X11592851Y-12510769D02*
X11592851Y-12558388D01*
X11592851Y-12558388D02*
X11583328Y-12577436D01*
X11583328Y-12577436D02*
X11573804Y-12586960D01*
X11573804Y-12586960D02*
X11554756Y-12596484D01*
X11554756Y-12596484D02*
X11507137Y-12596484D01*
X11507137Y-12596484D02*
X11488090Y-12586960D01*
X11488090Y-12586960D02*
X11478566Y-12577436D01*
X11659518Y-12396484D02*
X11792851Y-12396484D01*
X11792851Y-12396484D02*
X11707137Y-12596484D01*
X11859518Y-12396484D02*
X11859518Y-12434579D01*
X11935709Y-12396484D02*
X11935709Y-12434579D01*
X12230947Y-12672674D02*
X12221423Y-12663150D01*
X12221423Y-12663150D02*
X12202375Y-12634579D01*
X12202375Y-12634579D02*
X12192852Y-12615531D01*
X12192852Y-12615531D02*
X12183328Y-12586960D01*
X12183328Y-12586960D02*
X12173804Y-12539341D01*
X12173804Y-12539341D02*
X12173804Y-12501246D01*
X12173804Y-12501246D02*
X12183328Y-12453627D01*
X12183328Y-12453627D02*
X12192852Y-12425055D01*
X12192852Y-12425055D02*
X12202375Y-12406008D01*
X12202375Y-12406008D02*
X12221423Y-12377436D01*
X12221423Y-12377436D02*
X12230947Y-12367912D01*
X12297613Y-12415531D02*
X12307137Y-12406008D01*
X12307137Y-12406008D02*
X12326185Y-12396484D01*
X12326185Y-12396484D02*
X12373804Y-12396484D01*
X12373804Y-12396484D02*
X12392852Y-12406008D01*
X12392852Y-12406008D02*
X12402375Y-12415531D01*
X12402375Y-12415531D02*
X12411899Y-12434579D01*
X12411899Y-12434579D02*
X12411899Y-12453627D01*
X12411899Y-12453627D02*
X12402375Y-12482198D01*
X12402375Y-12482198D02*
X12288090Y-12596484D01*
X12288090Y-12596484D02*
X12411899Y-12596484D01*
X12478566Y-12396484D02*
X12602375Y-12396484D01*
X12602375Y-12396484D02*
X12535709Y-12472674D01*
X12535709Y-12472674D02*
X12564280Y-12472674D01*
X12564280Y-12472674D02*
X12583328Y-12482198D01*
X12583328Y-12482198D02*
X12592852Y-12491722D01*
X12592852Y-12491722D02*
X12602375Y-12510769D01*
X12602375Y-12510769D02*
X12602375Y-12558388D01*
X12602375Y-12558388D02*
X12592852Y-12577436D01*
X12592852Y-12577436D02*
X12583328Y-12586960D01*
X12583328Y-12586960D02*
X12564280Y-12596484D01*
X12564280Y-12596484D02*
X12507137Y-12596484D01*
X12507137Y-12596484D02*
X12488090Y-12586960D01*
X12488090Y-12586960D02*
X12478566Y-12577436D01*
X12840471Y-12596484D02*
X12840471Y-12396484D01*
X12926185Y-12596484D02*
X12926185Y-12491722D01*
X12926185Y-12491722D02*
X12916661Y-12472674D01*
X12916661Y-12472674D02*
X12897614Y-12463150D01*
X12897614Y-12463150D02*
X12869042Y-12463150D01*
X12869042Y-12463150D02*
X12849994Y-12472674D01*
X12849994Y-12472674D02*
X12840471Y-12482198D01*
X13049994Y-12596484D02*
X13030947Y-12586960D01*
X13030947Y-12586960D02*
X13021423Y-12577436D01*
X13021423Y-12577436D02*
X13011899Y-12558388D01*
X13011899Y-12558388D02*
X13011899Y-12501246D01*
X13011899Y-12501246D02*
X13021423Y-12482198D01*
X13021423Y-12482198D02*
X13030947Y-12472674D01*
X13030947Y-12472674D02*
X13049994Y-12463150D01*
X13049994Y-12463150D02*
X13078566Y-12463150D01*
X13078566Y-12463150D02*
X13097614Y-12472674D01*
X13097614Y-12472674D02*
X13107137Y-12482198D01*
X13107137Y-12482198D02*
X13116661Y-12501246D01*
X13116661Y-12501246D02*
X13116661Y-12558388D01*
X13116661Y-12558388D02*
X13107137Y-12577436D01*
X13107137Y-12577436D02*
X13097614Y-12586960D01*
X13097614Y-12586960D02*
X13078566Y-12596484D01*
X13078566Y-12596484D02*
X13049994Y-12596484D01*
X13230947Y-12596484D02*
X13211899Y-12586960D01*
X13211899Y-12586960D02*
X13202375Y-12567912D01*
X13202375Y-12567912D02*
X13202375Y-12396484D01*
X13383328Y-12586960D02*
X13364280Y-12596484D01*
X13364280Y-12596484D02*
X13326185Y-12596484D01*
X13326185Y-12596484D02*
X13307137Y-12586960D01*
X13307137Y-12586960D02*
X13297614Y-12567912D01*
X13297614Y-12567912D02*
X13297614Y-12491722D01*
X13297614Y-12491722D02*
X13307137Y-12472674D01*
X13307137Y-12472674D02*
X13326185Y-12463150D01*
X13326185Y-12463150D02*
X13364280Y-12463150D01*
X13364280Y-12463150D02*
X13383328Y-12472674D01*
X13383328Y-12472674D02*
X13392852Y-12491722D01*
X13392852Y-12491722D02*
X13392852Y-12510769D01*
X13392852Y-12510769D02*
X13297614Y-12529817D01*
X13469042Y-12586960D02*
X13488090Y-12596484D01*
X13488090Y-12596484D02*
X13526185Y-12596484D01*
X13526185Y-12596484D02*
X13545233Y-12586960D01*
X13545233Y-12586960D02*
X13554756Y-12567912D01*
X13554756Y-12567912D02*
X13554756Y-12558388D01*
X13554756Y-12558388D02*
X13545233Y-12539341D01*
X13545233Y-12539341D02*
X13526185Y-12529817D01*
X13526185Y-12529817D02*
X13497614Y-12529817D01*
X13497614Y-12529817D02*
X13478566Y-12520293D01*
X13478566Y-12520293D02*
X13469042Y-12501246D01*
X13469042Y-12501246D02*
X13469042Y-12491722D01*
X13469042Y-12491722D02*
X13478566Y-12472674D01*
X13478566Y-12472674D02*
X13497614Y-12463150D01*
X13497614Y-12463150D02*
X13526185Y-12463150D01*
X13526185Y-12463150D02*
X13545233Y-12472674D01*
X13621423Y-12672674D02*
X13630947Y-12663150D01*
X13630947Y-12663150D02*
X13649995Y-12634579D01*
X13649995Y-12634579D02*
X13659518Y-12615531D01*
X13659518Y-12615531D02*
X13669042Y-12586960D01*
X13669042Y-12586960D02*
X13678566Y-12539341D01*
X13678566Y-12539341D02*
X13678566Y-12501246D01*
X13678566Y-12501246D02*
X13669042Y-12453627D01*
X13669042Y-12453627D02*
X13659518Y-12425055D01*
X13659518Y-12425055D02*
X13649995Y-12406008D01*
X13649995Y-12406008D02*
X13630947Y-12377436D01*
X13630947Y-12377436D02*
X13621423Y-12367912D01*
D10*
X8655884Y-12769000D02*
G75*
G02*
X8575884Y-12769000I-40000J0D01*
G01*
X8575884Y-12769000D02*
G75*
G02*
X8655884Y-12769000I40000J0D01*
G01*
D11*
X8954756Y-12660484D02*
X8973804Y-12660484D01*
X8973804Y-12660484D02*
X8992851Y-12670008D01*
X8992851Y-12670008D02*
X9002375Y-12679531D01*
X9002375Y-12679531D02*
X9011899Y-12698579D01*
X9011899Y-12698579D02*
X9021423Y-12736674D01*
X9021423Y-12736674D02*
X9021423Y-12784293D01*
X9021423Y-12784293D02*
X9011899Y-12822388D01*
X9011899Y-12822388D02*
X9002375Y-12841436D01*
X9002375Y-12841436D02*
X8992851Y-12850960D01*
X8992851Y-12850960D02*
X8973804Y-12860484D01*
X8973804Y-12860484D02*
X8954756Y-12860484D01*
X8954756Y-12860484D02*
X8935708Y-12850960D01*
X8935708Y-12850960D02*
X8926185Y-12841436D01*
X8926185Y-12841436D02*
X8916661Y-12822388D01*
X8916661Y-12822388D02*
X8907137Y-12784293D01*
X8907137Y-12784293D02*
X8907137Y-12736674D01*
X8907137Y-12736674D02*
X8916661Y-12698579D01*
X8916661Y-12698579D02*
X8926185Y-12679531D01*
X8926185Y-12679531D02*
X8935708Y-12670008D01*
X8935708Y-12670008D02*
X8954756Y-12660484D01*
X9107137Y-12841436D02*
X9116661Y-12850960D01*
X9116661Y-12850960D02*
X9107137Y-12860484D01*
X9107137Y-12860484D02*
X9097613Y-12850960D01*
X9097613Y-12850960D02*
X9107137Y-12841436D01*
X9107137Y-12841436D02*
X9107137Y-12860484D01*
X9230947Y-12746198D02*
X9211899Y-12736674D01*
X9211899Y-12736674D02*
X9202375Y-12727150D01*
X9202375Y-12727150D02*
X9192851Y-12708103D01*
X9192851Y-12708103D02*
X9192851Y-12698579D01*
X9192851Y-12698579D02*
X9202375Y-12679531D01*
X9202375Y-12679531D02*
X9211899Y-12670008D01*
X9211899Y-12670008D02*
X9230947Y-12660484D01*
X9230947Y-12660484D02*
X9269042Y-12660484D01*
X9269042Y-12660484D02*
X9288089Y-12670008D01*
X9288089Y-12670008D02*
X9297613Y-12679531D01*
X9297613Y-12679531D02*
X9307137Y-12698579D01*
X9307137Y-12698579D02*
X9307137Y-12708103D01*
X9307137Y-12708103D02*
X9297613Y-12727150D01*
X9297613Y-12727150D02*
X9288089Y-12736674D01*
X9288089Y-12736674D02*
X9269042Y-12746198D01*
X9269042Y-12746198D02*
X9230947Y-12746198D01*
X9230947Y-12746198D02*
X9211899Y-12755722D01*
X9211899Y-12755722D02*
X9202375Y-12765246D01*
X9202375Y-12765246D02*
X9192851Y-12784293D01*
X9192851Y-12784293D02*
X9192851Y-12822388D01*
X9192851Y-12822388D02*
X9202375Y-12841436D01*
X9202375Y-12841436D02*
X9211899Y-12850960D01*
X9211899Y-12850960D02*
X9230947Y-12860484D01*
X9230947Y-12860484D02*
X9269042Y-12860484D01*
X9269042Y-12860484D02*
X9288089Y-12850960D01*
X9288089Y-12850960D02*
X9297613Y-12841436D01*
X9297613Y-12841436D02*
X9307137Y-12822388D01*
X9307137Y-12822388D02*
X9307137Y-12784293D01*
X9307137Y-12784293D02*
X9297613Y-12765246D01*
X9297613Y-12765246D02*
X9288089Y-12755722D01*
X9288089Y-12755722D02*
X9269042Y-12746198D01*
X9430947Y-12660484D02*
X9449994Y-12660484D01*
X9449994Y-12660484D02*
X9469042Y-12670008D01*
X9469042Y-12670008D02*
X9478566Y-12679531D01*
X9478566Y-12679531D02*
X9488089Y-12698579D01*
X9488089Y-12698579D02*
X9497613Y-12736674D01*
X9497613Y-12736674D02*
X9497613Y-12784293D01*
X9497613Y-12784293D02*
X9488089Y-12822388D01*
X9488089Y-12822388D02*
X9478566Y-12841436D01*
X9478566Y-12841436D02*
X9469042Y-12850960D01*
X9469042Y-12850960D02*
X9449994Y-12860484D01*
X9449994Y-12860484D02*
X9430947Y-12860484D01*
X9430947Y-12860484D02*
X9411899Y-12850960D01*
X9411899Y-12850960D02*
X9402375Y-12841436D01*
X9402375Y-12841436D02*
X9392851Y-12822388D01*
X9392851Y-12822388D02*
X9383328Y-12784293D01*
X9383328Y-12784293D02*
X9383328Y-12736674D01*
X9383328Y-12736674D02*
X9392851Y-12698579D01*
X9392851Y-12698579D02*
X9402375Y-12679531D01*
X9402375Y-12679531D02*
X9411899Y-12670008D01*
X9411899Y-12670008D02*
X9430947Y-12660484D01*
X9621423Y-12660484D02*
X9640470Y-12660484D01*
X9640470Y-12660484D02*
X9659518Y-12670008D01*
X9659518Y-12670008D02*
X9669042Y-12679531D01*
X9669042Y-12679531D02*
X9678566Y-12698579D01*
X9678566Y-12698579D02*
X9688089Y-12736674D01*
X9688089Y-12736674D02*
X9688089Y-12784293D01*
X9688089Y-12784293D02*
X9678566Y-12822388D01*
X9678566Y-12822388D02*
X9669042Y-12841436D01*
X9669042Y-12841436D02*
X9659518Y-12850960D01*
X9659518Y-12850960D02*
X9640470Y-12860484D01*
X9640470Y-12860484D02*
X9621423Y-12860484D01*
X9621423Y-12860484D02*
X9602375Y-12850960D01*
X9602375Y-12850960D02*
X9592851Y-12841436D01*
X9592851Y-12841436D02*
X9583328Y-12822388D01*
X9583328Y-12822388D02*
X9573804Y-12784293D01*
X9573804Y-12784293D02*
X9573804Y-12736674D01*
X9573804Y-12736674D02*
X9583328Y-12698579D01*
X9583328Y-12698579D02*
X9592851Y-12679531D01*
X9592851Y-12679531D02*
X9602375Y-12670008D01*
X9602375Y-12670008D02*
X9621423Y-12660484D01*
X9773804Y-12860484D02*
X9773804Y-12727150D01*
X9773804Y-12746198D02*
X9783328Y-12736674D01*
X9783328Y-12736674D02*
X9802375Y-12727150D01*
X9802375Y-12727150D02*
X9830947Y-12727150D01*
X9830947Y-12727150D02*
X9849994Y-12736674D01*
X9849994Y-12736674D02*
X9859518Y-12755722D01*
X9859518Y-12755722D02*
X9859518Y-12860484D01*
X9859518Y-12755722D02*
X9869042Y-12736674D01*
X9869042Y-12736674D02*
X9888089Y-12727150D01*
X9888089Y-12727150D02*
X9916661Y-12727150D01*
X9916661Y-12727150D02*
X9935709Y-12736674D01*
X9935709Y-12736674D02*
X9945232Y-12755722D01*
X9945232Y-12755722D02*
X9945232Y-12860484D01*
X10040470Y-12860484D02*
X10040470Y-12727150D01*
X10040470Y-12746198D02*
X10049994Y-12736674D01*
X10049994Y-12736674D02*
X10069042Y-12727150D01*
X10069042Y-12727150D02*
X10097613Y-12727150D01*
X10097613Y-12727150D02*
X10116661Y-12736674D01*
X10116661Y-12736674D02*
X10126185Y-12755722D01*
X10126185Y-12755722D02*
X10126185Y-12860484D01*
X10126185Y-12755722D02*
X10135709Y-12736674D01*
X10135709Y-12736674D02*
X10154756Y-12727150D01*
X10154756Y-12727150D02*
X10183328Y-12727150D01*
X10183328Y-12727150D02*
X10202375Y-12736674D01*
X10202375Y-12736674D02*
X10211899Y-12755722D01*
X10211899Y-12755722D02*
X10211899Y-12860484D01*
X10602375Y-12650960D02*
X10430947Y-12908103D01*
X10859518Y-12660484D02*
X10878566Y-12660484D01*
X10878566Y-12660484D02*
X10897613Y-12670008D01*
X10897613Y-12670008D02*
X10907137Y-12679531D01*
X10907137Y-12679531D02*
X10916661Y-12698579D01*
X10916661Y-12698579D02*
X10926185Y-12736674D01*
X10926185Y-12736674D02*
X10926185Y-12784293D01*
X10926185Y-12784293D02*
X10916661Y-12822388D01*
X10916661Y-12822388D02*
X10907137Y-12841436D01*
X10907137Y-12841436D02*
X10897613Y-12850960D01*
X10897613Y-12850960D02*
X10878566Y-12860484D01*
X10878566Y-12860484D02*
X10859518Y-12860484D01*
X10859518Y-12860484D02*
X10840471Y-12850960D01*
X10840471Y-12850960D02*
X10830947Y-12841436D01*
X10830947Y-12841436D02*
X10821423Y-12822388D01*
X10821423Y-12822388D02*
X10811899Y-12784293D01*
X10811899Y-12784293D02*
X10811899Y-12736674D01*
X10811899Y-12736674D02*
X10821423Y-12698579D01*
X10821423Y-12698579D02*
X10830947Y-12679531D01*
X10830947Y-12679531D02*
X10840471Y-12670008D01*
X10840471Y-12670008D02*
X10859518Y-12660484D01*
X11011899Y-12841436D02*
X11021423Y-12850960D01*
X11021423Y-12850960D02*
X11011899Y-12860484D01*
X11011899Y-12860484D02*
X11002375Y-12850960D01*
X11002375Y-12850960D02*
X11011899Y-12841436D01*
X11011899Y-12841436D02*
X11011899Y-12860484D01*
X11145232Y-12660484D02*
X11164280Y-12660484D01*
X11164280Y-12660484D02*
X11183328Y-12670008D01*
X11183328Y-12670008D02*
X11192851Y-12679531D01*
X11192851Y-12679531D02*
X11202375Y-12698579D01*
X11202375Y-12698579D02*
X11211899Y-12736674D01*
X11211899Y-12736674D02*
X11211899Y-12784293D01*
X11211899Y-12784293D02*
X11202375Y-12822388D01*
X11202375Y-12822388D02*
X11192851Y-12841436D01*
X11192851Y-12841436D02*
X11183328Y-12850960D01*
X11183328Y-12850960D02*
X11164280Y-12860484D01*
X11164280Y-12860484D02*
X11145232Y-12860484D01*
X11145232Y-12860484D02*
X11126185Y-12850960D01*
X11126185Y-12850960D02*
X11116661Y-12841436D01*
X11116661Y-12841436D02*
X11107137Y-12822388D01*
X11107137Y-12822388D02*
X11097613Y-12784293D01*
X11097613Y-12784293D02*
X11097613Y-12736674D01*
X11097613Y-12736674D02*
X11107137Y-12698579D01*
X11107137Y-12698579D02*
X11116661Y-12679531D01*
X11116661Y-12679531D02*
X11126185Y-12670008D01*
X11126185Y-12670008D02*
X11145232Y-12660484D01*
X11278566Y-12660484D02*
X11402375Y-12660484D01*
X11402375Y-12660484D02*
X11335709Y-12736674D01*
X11335709Y-12736674D02*
X11364280Y-12736674D01*
X11364280Y-12736674D02*
X11383328Y-12746198D01*
X11383328Y-12746198D02*
X11392851Y-12755722D01*
X11392851Y-12755722D02*
X11402375Y-12774769D01*
X11402375Y-12774769D02*
X11402375Y-12822388D01*
X11402375Y-12822388D02*
X11392851Y-12841436D01*
X11392851Y-12841436D02*
X11383328Y-12850960D01*
X11383328Y-12850960D02*
X11364280Y-12860484D01*
X11364280Y-12860484D02*
X11307137Y-12860484D01*
X11307137Y-12860484D02*
X11288090Y-12850960D01*
X11288090Y-12850960D02*
X11278566Y-12841436D01*
X11592851Y-12860484D02*
X11478566Y-12860484D01*
X11535709Y-12860484D02*
X11535709Y-12660484D01*
X11535709Y-12660484D02*
X11516661Y-12689055D01*
X11516661Y-12689055D02*
X11497613Y-12708103D01*
X11497613Y-12708103D02*
X11478566Y-12717627D01*
X11773804Y-12660484D02*
X11678566Y-12660484D01*
X11678566Y-12660484D02*
X11669042Y-12755722D01*
X11669042Y-12755722D02*
X11678566Y-12746198D01*
X11678566Y-12746198D02*
X11697613Y-12736674D01*
X11697613Y-12736674D02*
X11745232Y-12736674D01*
X11745232Y-12736674D02*
X11764280Y-12746198D01*
X11764280Y-12746198D02*
X11773804Y-12755722D01*
X11773804Y-12755722D02*
X11783328Y-12774769D01*
X11783328Y-12774769D02*
X11783328Y-12822388D01*
X11783328Y-12822388D02*
X11773804Y-12841436D01*
X11773804Y-12841436D02*
X11764280Y-12850960D01*
X11764280Y-12850960D02*
X11745232Y-12860484D01*
X11745232Y-12860484D02*
X11697613Y-12860484D01*
X11697613Y-12860484D02*
X11678566Y-12850960D01*
X11678566Y-12850960D02*
X11669042Y-12841436D01*
X11859518Y-12660484D02*
X11859518Y-12698579D01*
X11935709Y-12660484D02*
X11935709Y-12698579D01*
X12230947Y-12936674D02*
X12221423Y-12927150D01*
X12221423Y-12927150D02*
X12202375Y-12898579D01*
X12202375Y-12898579D02*
X12192852Y-12879531D01*
X12192852Y-12879531D02*
X12183328Y-12850960D01*
X12183328Y-12850960D02*
X12173804Y-12803341D01*
X12173804Y-12803341D02*
X12173804Y-12765246D01*
X12173804Y-12765246D02*
X12183328Y-12717627D01*
X12183328Y-12717627D02*
X12192852Y-12689055D01*
X12192852Y-12689055D02*
X12202375Y-12670008D01*
X12202375Y-12670008D02*
X12221423Y-12641436D01*
X12221423Y-12641436D02*
X12230947Y-12631912D01*
X12392852Y-12660484D02*
X12354756Y-12660484D01*
X12354756Y-12660484D02*
X12335709Y-12670008D01*
X12335709Y-12670008D02*
X12326185Y-12679531D01*
X12326185Y-12679531D02*
X12307137Y-12708103D01*
X12307137Y-12708103D02*
X12297613Y-12746198D01*
X12297613Y-12746198D02*
X12297613Y-12822388D01*
X12297613Y-12822388D02*
X12307137Y-12841436D01*
X12307137Y-12841436D02*
X12316661Y-12850960D01*
X12316661Y-12850960D02*
X12335709Y-12860484D01*
X12335709Y-12860484D02*
X12373804Y-12860484D01*
X12373804Y-12860484D02*
X12392852Y-12850960D01*
X12392852Y-12850960D02*
X12402375Y-12841436D01*
X12402375Y-12841436D02*
X12411899Y-12822388D01*
X12411899Y-12822388D02*
X12411899Y-12774769D01*
X12411899Y-12774769D02*
X12402375Y-12755722D01*
X12402375Y-12755722D02*
X12392852Y-12746198D01*
X12392852Y-12746198D02*
X12373804Y-12736674D01*
X12373804Y-12736674D02*
X12335709Y-12736674D01*
X12335709Y-12736674D02*
X12316661Y-12746198D01*
X12316661Y-12746198D02*
X12307137Y-12755722D01*
X12307137Y-12755722D02*
X12297613Y-12774769D01*
X12583328Y-12727150D02*
X12583328Y-12860484D01*
X12535709Y-12650960D02*
X12488090Y-12793817D01*
X12488090Y-12793817D02*
X12611899Y-12793817D01*
X12840471Y-12860484D02*
X12840471Y-12660484D01*
X12926185Y-12860484D02*
X12926185Y-12755722D01*
X12926185Y-12755722D02*
X12916661Y-12736674D01*
X12916661Y-12736674D02*
X12897614Y-12727150D01*
X12897614Y-12727150D02*
X12869042Y-12727150D01*
X12869042Y-12727150D02*
X12849994Y-12736674D01*
X12849994Y-12736674D02*
X12840471Y-12746198D01*
X13049994Y-12860484D02*
X13030947Y-12850960D01*
X13030947Y-12850960D02*
X13021423Y-12841436D01*
X13021423Y-12841436D02*
X13011899Y-12822388D01*
X13011899Y-12822388D02*
X13011899Y-12765246D01*
X13011899Y-12765246D02*
X13021423Y-12746198D01*
X13021423Y-12746198D02*
X13030947Y-12736674D01*
X13030947Y-12736674D02*
X13049994Y-12727150D01*
X13049994Y-12727150D02*
X13078566Y-12727150D01*
X13078566Y-12727150D02*
X13097614Y-12736674D01*
X13097614Y-12736674D02*
X13107137Y-12746198D01*
X13107137Y-12746198D02*
X13116661Y-12765246D01*
X13116661Y-12765246D02*
X13116661Y-12822388D01*
X13116661Y-12822388D02*
X13107137Y-12841436D01*
X13107137Y-12841436D02*
X13097614Y-12850960D01*
X13097614Y-12850960D02*
X13078566Y-12860484D01*
X13078566Y-12860484D02*
X13049994Y-12860484D01*
X13230947Y-12860484D02*
X13211899Y-12850960D01*
X13211899Y-12850960D02*
X13202375Y-12831912D01*
X13202375Y-12831912D02*
X13202375Y-12660484D01*
X13383328Y-12850960D02*
X13364280Y-12860484D01*
X13364280Y-12860484D02*
X13326185Y-12860484D01*
X13326185Y-12860484D02*
X13307137Y-12850960D01*
X13307137Y-12850960D02*
X13297614Y-12831912D01*
X13297614Y-12831912D02*
X13297614Y-12755722D01*
X13297614Y-12755722D02*
X13307137Y-12736674D01*
X13307137Y-12736674D02*
X13326185Y-12727150D01*
X13326185Y-12727150D02*
X13364280Y-12727150D01*
X13364280Y-12727150D02*
X13383328Y-12736674D01*
X13383328Y-12736674D02*
X13392852Y-12755722D01*
X13392852Y-12755722D02*
X13392852Y-12774769D01*
X13392852Y-12774769D02*
X13297614Y-12793817D01*
X13469042Y-12850960D02*
X13488090Y-12860484D01*
X13488090Y-12860484D02*
X13526185Y-12860484D01*
X13526185Y-12860484D02*
X13545233Y-12850960D01*
X13545233Y-12850960D02*
X13554756Y-12831912D01*
X13554756Y-12831912D02*
X13554756Y-12822388D01*
X13554756Y-12822388D02*
X13545233Y-12803341D01*
X13545233Y-12803341D02*
X13526185Y-12793817D01*
X13526185Y-12793817D02*
X13497614Y-12793817D01*
X13497614Y-12793817D02*
X13478566Y-12784293D01*
X13478566Y-12784293D02*
X13469042Y-12765246D01*
X13469042Y-12765246D02*
X13469042Y-12755722D01*
X13469042Y-12755722D02*
X13478566Y-12736674D01*
X13478566Y-12736674D02*
X13497614Y-12727150D01*
X13497614Y-12727150D02*
X13526185Y-12727150D01*
X13526185Y-12727150D02*
X13545233Y-12736674D01*
X13621423Y-12936674D02*
X13630947Y-12927150D01*
X13630947Y-12927150D02*
X13649995Y-12898579D01*
X13649995Y-12898579D02*
X13659518Y-12879531D01*
X13659518Y-12879531D02*
X13669042Y-12850960D01*
X13669042Y-12850960D02*
X13678566Y-12803341D01*
X13678566Y-12803341D02*
X13678566Y-12765246D01*
X13678566Y-12765246D02*
X13669042Y-12717627D01*
X13669042Y-12717627D02*
X13659518Y-12689055D01*
X13659518Y-12689055D02*
X13649995Y-12670008D01*
X13649995Y-12670008D02*
X13630947Y-12641436D01*
X13630947Y-12641436D02*
X13621423Y-12631912D01*
D10*
X8605884Y-12983000D02*
X8605884Y-13083000D01*
X8555884Y-13033000D02*
X8655884Y-13033000D01*
D11*
X9021423Y-13124484D02*
X8907137Y-13124484D01*
X8964280Y-13124484D02*
X8964280Y-12924484D01*
X8964280Y-12924484D02*
X8945232Y-12953055D01*
X8945232Y-12953055D02*
X8926185Y-12972103D01*
X8926185Y-12972103D02*
X8907137Y-12981627D01*
X9107137Y-13105436D02*
X9116661Y-13114960D01*
X9116661Y-13114960D02*
X9107137Y-13124484D01*
X9107137Y-13124484D02*
X9097613Y-13114960D01*
X9097613Y-13114960D02*
X9107137Y-13105436D01*
X9107137Y-13105436D02*
X9107137Y-13124484D01*
X9240470Y-12924484D02*
X9259518Y-12924484D01*
X9259518Y-12924484D02*
X9278566Y-12934008D01*
X9278566Y-12934008D02*
X9288089Y-12943531D01*
X9288089Y-12943531D02*
X9297613Y-12962579D01*
X9297613Y-12962579D02*
X9307137Y-13000674D01*
X9307137Y-13000674D02*
X9307137Y-13048293D01*
X9307137Y-13048293D02*
X9297613Y-13086388D01*
X9297613Y-13086388D02*
X9288089Y-13105436D01*
X9288089Y-13105436D02*
X9278566Y-13114960D01*
X9278566Y-13114960D02*
X9259518Y-13124484D01*
X9259518Y-13124484D02*
X9240470Y-13124484D01*
X9240470Y-13124484D02*
X9221423Y-13114960D01*
X9221423Y-13114960D02*
X9211899Y-13105436D01*
X9211899Y-13105436D02*
X9202375Y-13086388D01*
X9202375Y-13086388D02*
X9192851Y-13048293D01*
X9192851Y-13048293D02*
X9192851Y-13000674D01*
X9192851Y-13000674D02*
X9202375Y-12962579D01*
X9202375Y-12962579D02*
X9211899Y-12943531D01*
X9211899Y-12943531D02*
X9221423Y-12934008D01*
X9221423Y-12934008D02*
X9240470Y-12924484D01*
X9430947Y-12924484D02*
X9449994Y-12924484D01*
X9449994Y-12924484D02*
X9469042Y-12934008D01*
X9469042Y-12934008D02*
X9478566Y-12943531D01*
X9478566Y-12943531D02*
X9488089Y-12962579D01*
X9488089Y-12962579D02*
X9497613Y-13000674D01*
X9497613Y-13000674D02*
X9497613Y-13048293D01*
X9497613Y-13048293D02*
X9488089Y-13086388D01*
X9488089Y-13086388D02*
X9478566Y-13105436D01*
X9478566Y-13105436D02*
X9469042Y-13114960D01*
X9469042Y-13114960D02*
X9449994Y-13124484D01*
X9449994Y-13124484D02*
X9430947Y-13124484D01*
X9430947Y-13124484D02*
X9411899Y-13114960D01*
X9411899Y-13114960D02*
X9402375Y-13105436D01*
X9402375Y-13105436D02*
X9392851Y-13086388D01*
X9392851Y-13086388D02*
X9383328Y-13048293D01*
X9383328Y-13048293D02*
X9383328Y-13000674D01*
X9383328Y-13000674D02*
X9392851Y-12962579D01*
X9392851Y-12962579D02*
X9402375Y-12943531D01*
X9402375Y-12943531D02*
X9411899Y-12934008D01*
X9411899Y-12934008D02*
X9430947Y-12924484D01*
X9621423Y-12924484D02*
X9640470Y-12924484D01*
X9640470Y-12924484D02*
X9659518Y-12934008D01*
X9659518Y-12934008D02*
X9669042Y-12943531D01*
X9669042Y-12943531D02*
X9678566Y-12962579D01*
X9678566Y-12962579D02*
X9688089Y-13000674D01*
X9688089Y-13000674D02*
X9688089Y-13048293D01*
X9688089Y-13048293D02*
X9678566Y-13086388D01*
X9678566Y-13086388D02*
X9669042Y-13105436D01*
X9669042Y-13105436D02*
X9659518Y-13114960D01*
X9659518Y-13114960D02*
X9640470Y-13124484D01*
X9640470Y-13124484D02*
X9621423Y-13124484D01*
X9621423Y-13124484D02*
X9602375Y-13114960D01*
X9602375Y-13114960D02*
X9592851Y-13105436D01*
X9592851Y-13105436D02*
X9583328Y-13086388D01*
X9583328Y-13086388D02*
X9573804Y-13048293D01*
X9573804Y-13048293D02*
X9573804Y-13000674D01*
X9573804Y-13000674D02*
X9583328Y-12962579D01*
X9583328Y-12962579D02*
X9592851Y-12943531D01*
X9592851Y-12943531D02*
X9602375Y-12934008D01*
X9602375Y-12934008D02*
X9621423Y-12924484D01*
X9773804Y-13124484D02*
X9773804Y-12991150D01*
X9773804Y-13010198D02*
X9783328Y-13000674D01*
X9783328Y-13000674D02*
X9802375Y-12991150D01*
X9802375Y-12991150D02*
X9830947Y-12991150D01*
X9830947Y-12991150D02*
X9849994Y-13000674D01*
X9849994Y-13000674D02*
X9859518Y-13019722D01*
X9859518Y-13019722D02*
X9859518Y-13124484D01*
X9859518Y-13019722D02*
X9869042Y-13000674D01*
X9869042Y-13000674D02*
X9888089Y-12991150D01*
X9888089Y-12991150D02*
X9916661Y-12991150D01*
X9916661Y-12991150D02*
X9935709Y-13000674D01*
X9935709Y-13000674D02*
X9945232Y-13019722D01*
X9945232Y-13019722D02*
X9945232Y-13124484D01*
X10040470Y-13124484D02*
X10040470Y-12991150D01*
X10040470Y-13010198D02*
X10049994Y-13000674D01*
X10049994Y-13000674D02*
X10069042Y-12991150D01*
X10069042Y-12991150D02*
X10097613Y-12991150D01*
X10097613Y-12991150D02*
X10116661Y-13000674D01*
X10116661Y-13000674D02*
X10126185Y-13019722D01*
X10126185Y-13019722D02*
X10126185Y-13124484D01*
X10126185Y-13019722D02*
X10135709Y-13000674D01*
X10135709Y-13000674D02*
X10154756Y-12991150D01*
X10154756Y-12991150D02*
X10183328Y-12991150D01*
X10183328Y-12991150D02*
X10202375Y-13000674D01*
X10202375Y-13000674D02*
X10211899Y-13019722D01*
X10211899Y-13019722D02*
X10211899Y-13124484D01*
X10602375Y-12914960D02*
X10430947Y-13172103D01*
X10859518Y-12924484D02*
X10878566Y-12924484D01*
X10878566Y-12924484D02*
X10897613Y-12934008D01*
X10897613Y-12934008D02*
X10907137Y-12943531D01*
X10907137Y-12943531D02*
X10916661Y-12962579D01*
X10916661Y-12962579D02*
X10926185Y-13000674D01*
X10926185Y-13000674D02*
X10926185Y-13048293D01*
X10926185Y-13048293D02*
X10916661Y-13086388D01*
X10916661Y-13086388D02*
X10907137Y-13105436D01*
X10907137Y-13105436D02*
X10897613Y-13114960D01*
X10897613Y-13114960D02*
X10878566Y-13124484D01*
X10878566Y-13124484D02*
X10859518Y-13124484D01*
X10859518Y-13124484D02*
X10840471Y-13114960D01*
X10840471Y-13114960D02*
X10830947Y-13105436D01*
X10830947Y-13105436D02*
X10821423Y-13086388D01*
X10821423Y-13086388D02*
X10811899Y-13048293D01*
X10811899Y-13048293D02*
X10811899Y-13000674D01*
X10811899Y-13000674D02*
X10821423Y-12962579D01*
X10821423Y-12962579D02*
X10830947Y-12943531D01*
X10830947Y-12943531D02*
X10840471Y-12934008D01*
X10840471Y-12934008D02*
X10859518Y-12924484D01*
X11011899Y-13105436D02*
X11021423Y-13114960D01*
X11021423Y-13114960D02*
X11011899Y-13124484D01*
X11011899Y-13124484D02*
X11002375Y-13114960D01*
X11002375Y-13114960D02*
X11011899Y-13105436D01*
X11011899Y-13105436D02*
X11011899Y-13124484D01*
X11145232Y-12924484D02*
X11164280Y-12924484D01*
X11164280Y-12924484D02*
X11183328Y-12934008D01*
X11183328Y-12934008D02*
X11192851Y-12943531D01*
X11192851Y-12943531D02*
X11202375Y-12962579D01*
X11202375Y-12962579D02*
X11211899Y-13000674D01*
X11211899Y-13000674D02*
X11211899Y-13048293D01*
X11211899Y-13048293D02*
X11202375Y-13086388D01*
X11202375Y-13086388D02*
X11192851Y-13105436D01*
X11192851Y-13105436D02*
X11183328Y-13114960D01*
X11183328Y-13114960D02*
X11164280Y-13124484D01*
X11164280Y-13124484D02*
X11145232Y-13124484D01*
X11145232Y-13124484D02*
X11126185Y-13114960D01*
X11126185Y-13114960D02*
X11116661Y-13105436D01*
X11116661Y-13105436D02*
X11107137Y-13086388D01*
X11107137Y-13086388D02*
X11097613Y-13048293D01*
X11097613Y-13048293D02*
X11097613Y-13000674D01*
X11097613Y-13000674D02*
X11107137Y-12962579D01*
X11107137Y-12962579D02*
X11116661Y-12943531D01*
X11116661Y-12943531D02*
X11126185Y-12934008D01*
X11126185Y-12934008D02*
X11145232Y-12924484D01*
X11278566Y-12924484D02*
X11402375Y-12924484D01*
X11402375Y-12924484D02*
X11335709Y-13000674D01*
X11335709Y-13000674D02*
X11364280Y-13000674D01*
X11364280Y-13000674D02*
X11383328Y-13010198D01*
X11383328Y-13010198D02*
X11392851Y-13019722D01*
X11392851Y-13019722D02*
X11402375Y-13038769D01*
X11402375Y-13038769D02*
X11402375Y-13086388D01*
X11402375Y-13086388D02*
X11392851Y-13105436D01*
X11392851Y-13105436D02*
X11383328Y-13114960D01*
X11383328Y-13114960D02*
X11364280Y-13124484D01*
X11364280Y-13124484D02*
X11307137Y-13124484D01*
X11307137Y-13124484D02*
X11288090Y-13114960D01*
X11288090Y-13114960D02*
X11278566Y-13105436D01*
X11497613Y-13124484D02*
X11535709Y-13124484D01*
X11535709Y-13124484D02*
X11554756Y-13114960D01*
X11554756Y-13114960D02*
X11564280Y-13105436D01*
X11564280Y-13105436D02*
X11583328Y-13076865D01*
X11583328Y-13076865D02*
X11592851Y-13038769D01*
X11592851Y-13038769D02*
X11592851Y-12962579D01*
X11592851Y-12962579D02*
X11583328Y-12943531D01*
X11583328Y-12943531D02*
X11573804Y-12934008D01*
X11573804Y-12934008D02*
X11554756Y-12924484D01*
X11554756Y-12924484D02*
X11516661Y-12924484D01*
X11516661Y-12924484D02*
X11497613Y-12934008D01*
X11497613Y-12934008D02*
X11488090Y-12943531D01*
X11488090Y-12943531D02*
X11478566Y-12962579D01*
X11478566Y-12962579D02*
X11478566Y-13010198D01*
X11478566Y-13010198D02*
X11488090Y-13029246D01*
X11488090Y-13029246D02*
X11497613Y-13038769D01*
X11497613Y-13038769D02*
X11516661Y-13048293D01*
X11516661Y-13048293D02*
X11554756Y-13048293D01*
X11554756Y-13048293D02*
X11573804Y-13038769D01*
X11573804Y-13038769D02*
X11583328Y-13029246D01*
X11583328Y-13029246D02*
X11592851Y-13010198D01*
X11764280Y-12991150D02*
X11764280Y-13124484D01*
X11716661Y-12914960D02*
X11669042Y-13057817D01*
X11669042Y-13057817D02*
X11792851Y-13057817D01*
X11859518Y-12924484D02*
X11859518Y-12962579D01*
X11935709Y-12924484D02*
X11935709Y-12962579D01*
X12230947Y-13200674D02*
X12221423Y-13191150D01*
X12221423Y-13191150D02*
X12202375Y-13162579D01*
X12202375Y-13162579D02*
X12192852Y-13143531D01*
X12192852Y-13143531D02*
X12183328Y-13114960D01*
X12183328Y-13114960D02*
X12173804Y-13067341D01*
X12173804Y-13067341D02*
X12173804Y-13029246D01*
X12173804Y-13029246D02*
X12183328Y-12981627D01*
X12183328Y-12981627D02*
X12192852Y-12953055D01*
X12192852Y-12953055D02*
X12202375Y-12934008D01*
X12202375Y-12934008D02*
X12221423Y-12905436D01*
X12221423Y-12905436D02*
X12230947Y-12895912D01*
X12297613Y-12943531D02*
X12307137Y-12934008D01*
X12307137Y-12934008D02*
X12326185Y-12924484D01*
X12326185Y-12924484D02*
X12373804Y-12924484D01*
X12373804Y-12924484D02*
X12392852Y-12934008D01*
X12392852Y-12934008D02*
X12402375Y-12943531D01*
X12402375Y-12943531D02*
X12411899Y-12962579D01*
X12411899Y-12962579D02*
X12411899Y-12981627D01*
X12411899Y-12981627D02*
X12402375Y-13010198D01*
X12402375Y-13010198D02*
X12288090Y-13124484D01*
X12288090Y-13124484D02*
X12411899Y-13124484D01*
X12649994Y-13124484D02*
X12649994Y-12924484D01*
X12735709Y-13124484D02*
X12735709Y-13019722D01*
X12735709Y-13019722D02*
X12726185Y-13000674D01*
X12726185Y-13000674D02*
X12707137Y-12991150D01*
X12707137Y-12991150D02*
X12678566Y-12991150D01*
X12678566Y-12991150D02*
X12659518Y-13000674D01*
X12659518Y-13000674D02*
X12649994Y-13010198D01*
X12859518Y-13124484D02*
X12840471Y-13114960D01*
X12840471Y-13114960D02*
X12830947Y-13105436D01*
X12830947Y-13105436D02*
X12821423Y-13086388D01*
X12821423Y-13086388D02*
X12821423Y-13029246D01*
X12821423Y-13029246D02*
X12830947Y-13010198D01*
X12830947Y-13010198D02*
X12840471Y-13000674D01*
X12840471Y-13000674D02*
X12859518Y-12991150D01*
X12859518Y-12991150D02*
X12888090Y-12991150D01*
X12888090Y-12991150D02*
X12907137Y-13000674D01*
X12907137Y-13000674D02*
X12916661Y-13010198D01*
X12916661Y-13010198D02*
X12926185Y-13029246D01*
X12926185Y-13029246D02*
X12926185Y-13086388D01*
X12926185Y-13086388D02*
X12916661Y-13105436D01*
X12916661Y-13105436D02*
X12907137Y-13114960D01*
X12907137Y-13114960D02*
X12888090Y-13124484D01*
X12888090Y-13124484D02*
X12859518Y-13124484D01*
X13040471Y-13124484D02*
X13021423Y-13114960D01*
X13021423Y-13114960D02*
X13011899Y-13095912D01*
X13011899Y-13095912D02*
X13011899Y-12924484D01*
X13192852Y-13114960D02*
X13173804Y-13124484D01*
X13173804Y-13124484D02*
X13135709Y-13124484D01*
X13135709Y-13124484D02*
X13116661Y-13114960D01*
X13116661Y-13114960D02*
X13107137Y-13095912D01*
X13107137Y-13095912D02*
X13107137Y-13019722D01*
X13107137Y-13019722D02*
X13116661Y-13000674D01*
X13116661Y-13000674D02*
X13135709Y-12991150D01*
X13135709Y-12991150D02*
X13173804Y-12991150D01*
X13173804Y-12991150D02*
X13192852Y-13000674D01*
X13192852Y-13000674D02*
X13202375Y-13019722D01*
X13202375Y-13019722D02*
X13202375Y-13038769D01*
X13202375Y-13038769D02*
X13107137Y-13057817D01*
X13278566Y-13114960D02*
X13297614Y-13124484D01*
X13297614Y-13124484D02*
X13335709Y-13124484D01*
X13335709Y-13124484D02*
X13354756Y-13114960D01*
X13354756Y-13114960D02*
X13364280Y-13095912D01*
X13364280Y-13095912D02*
X13364280Y-13086388D01*
X13364280Y-13086388D02*
X13354756Y-13067341D01*
X13354756Y-13067341D02*
X13335709Y-13057817D01*
X13335709Y-13057817D02*
X13307137Y-13057817D01*
X13307137Y-13057817D02*
X13288090Y-13048293D01*
X13288090Y-13048293D02*
X13278566Y-13029246D01*
X13278566Y-13029246D02*
X13278566Y-13019722D01*
X13278566Y-13019722D02*
X13288090Y-13000674D01*
X13288090Y-13000674D02*
X13307137Y-12991150D01*
X13307137Y-12991150D02*
X13335709Y-12991150D01*
X13335709Y-12991150D02*
X13354756Y-13000674D01*
X13430947Y-13200674D02*
X13440471Y-13191150D01*
X13440471Y-13191150D02*
X13459518Y-13162579D01*
X13459518Y-13162579D02*
X13469042Y-13143531D01*
X13469042Y-13143531D02*
X13478566Y-13114960D01*
X13478566Y-13114960D02*
X13488090Y-13067341D01*
X13488090Y-13067341D02*
X13488090Y-13029246D01*
X13488090Y-13029246D02*
X13478566Y-12981627D01*
X13478566Y-12981627D02*
X13469042Y-12953055D01*
X13469042Y-12953055D02*
X13459518Y-12934008D01*
X13459518Y-12934008D02*
X13440471Y-12905436D01*
X13440471Y-12905436D02*
X13430947Y-12895912D01*
M02*
