%TF.GenerationSoftware,KiCad,Pcbnew,8.0.3*%
%TF.CreationDate,2024-06-29T10:36:14+02:00*%
%TF.ProjectId,adapter 8913-8910 Angle L,61646170-7465-4722-9038-3931332d3839,1.0a*%
%TF.SameCoordinates,Original*%
%TF.FileFunction,Legend,Bot*%
%TF.FilePolarity,Positive*%
%FSLAX46Y46*%
G04 Gerber Fmt 4.6, Leading zero omitted, Abs format (unit mm)*
G04 Created by KiCad (PCBNEW 8.0.3) date 2024-06-29 10:36:14*
%MOMM*%
%LPD*%
G01*
G04 APERTURE LIST*
%ADD10C,0.200000*%
%ADD11C,0.150000*%
%ADD12C,0.120000*%
G04 APERTURE END LIST*
D10*
X93075000Y-26150000D02*
X92075000Y-25650000D01*
X93075000Y-25150000D01*
X93075000Y-26150000D01*
G36*
X93075000Y-26150000D02*
G01*
X92075000Y-25650000D01*
X93075000Y-25150000D01*
X93075000Y-26150000D01*
G37*
X103590000Y-53745000D02*
X102590000Y-54245000D01*
X102590000Y-53245000D01*
X103590000Y-53745000D01*
G36*
X103590000Y-53745000D02*
G01*
X102590000Y-54245000D01*
X102590000Y-53245000D01*
X103590000Y-53745000D01*
G37*
D11*
X108425601Y-92146933D02*
X108962569Y-91951493D01*
X108694085Y-92049213D02*
X108352065Y-91109520D01*
X108352065Y-91109520D02*
X108490420Y-91211188D01*
X108490420Y-91211188D02*
X108612487Y-91268110D01*
X108612487Y-91268110D02*
X108718269Y-91280284D01*
X107501867Y-91418967D02*
X107412372Y-91451540D01*
X107412372Y-91451540D02*
X107339164Y-91528861D01*
X107339164Y-91528861D02*
X107310704Y-91589895D01*
X107310704Y-91589895D02*
X107298530Y-91695676D01*
X107298530Y-91695676D02*
X107318929Y-91890952D01*
X107318929Y-91890952D02*
X107400363Y-92114688D01*
X107400363Y-92114688D02*
X107510257Y-92277390D01*
X107510257Y-92277390D02*
X107587577Y-92350598D01*
X107587577Y-92350598D02*
X107648611Y-92379059D01*
X107648611Y-92379059D02*
X107754392Y-92391233D01*
X107754392Y-92391233D02*
X107843887Y-92358659D01*
X107843887Y-92358659D02*
X107917095Y-92281339D01*
X107917095Y-92281339D02*
X107945555Y-92220305D01*
X107945555Y-92220305D02*
X107957729Y-92114524D01*
X107957729Y-92114524D02*
X107937330Y-91919248D01*
X107937330Y-91919248D02*
X107855897Y-91695512D01*
X107855897Y-91695512D02*
X107746003Y-91532809D01*
X107746003Y-91532809D02*
X107668682Y-91459601D01*
X107668682Y-91459601D02*
X107607648Y-91431141D01*
X107607648Y-91431141D02*
X107501867Y-91418967D01*
X106606921Y-91744700D02*
X106517427Y-91777274D01*
X106517427Y-91777274D02*
X106444219Y-91854594D01*
X106444219Y-91854594D02*
X106415758Y-91915628D01*
X106415758Y-91915628D02*
X106403585Y-92021409D01*
X106403585Y-92021409D02*
X106423984Y-92216685D01*
X106423984Y-92216685D02*
X106505417Y-92440421D01*
X106505417Y-92440421D02*
X106615311Y-92603124D01*
X106615311Y-92603124D02*
X106692632Y-92676332D01*
X106692632Y-92676332D02*
X106753666Y-92704792D01*
X106753666Y-92704792D02*
X106859447Y-92716966D01*
X106859447Y-92716966D02*
X106948942Y-92684393D01*
X106948942Y-92684393D02*
X107022149Y-92607072D01*
X107022149Y-92607072D02*
X107050610Y-92546038D01*
X107050610Y-92546038D02*
X107062784Y-92440257D01*
X107062784Y-92440257D02*
X107042385Y-92244981D01*
X107042385Y-92244981D02*
X106960951Y-92021245D01*
X106960951Y-92021245D02*
X106851057Y-91858543D01*
X106851057Y-91858543D02*
X106773737Y-91785335D01*
X106773737Y-91785335D02*
X106712703Y-91756874D01*
X106712703Y-91756874D02*
X106606921Y-91744700D01*
X106004972Y-92318518D02*
X106232985Y-92944980D01*
X106037545Y-92408012D02*
X105976511Y-92379552D01*
X105976511Y-92379552D02*
X105870730Y-92367378D01*
X105870730Y-92367378D02*
X105736488Y-92416238D01*
X105736488Y-92416238D02*
X105663280Y-92493559D01*
X105663280Y-92493559D02*
X105651106Y-92599340D01*
X105651106Y-92599340D02*
X105830260Y-93091560D01*
X105289015Y-92579105D02*
X104931037Y-92709398D01*
X105382787Y-93254426D02*
X105089627Y-92448976D01*
X105089627Y-92448976D02*
X105012306Y-92375768D01*
X105012306Y-92375768D02*
X104906525Y-92363594D01*
X104906525Y-92363594D02*
X104817031Y-92396167D01*
X98764411Y-26069819D02*
X99335839Y-26069819D01*
X99050125Y-26069819D02*
X99050125Y-25069819D01*
X99050125Y-25069819D02*
X99145363Y-25212676D01*
X99145363Y-25212676D02*
X99240601Y-25307914D01*
X99240601Y-25307914D02*
X99335839Y-25355533D01*
X98431077Y-25069819D02*
X97812030Y-25069819D01*
X97812030Y-25069819D02*
X98145363Y-25450771D01*
X98145363Y-25450771D02*
X98002506Y-25450771D01*
X98002506Y-25450771D02*
X97907268Y-25498390D01*
X97907268Y-25498390D02*
X97859649Y-25546009D01*
X97859649Y-25546009D02*
X97812030Y-25641247D01*
X97812030Y-25641247D02*
X97812030Y-25879342D01*
X97812030Y-25879342D02*
X97859649Y-25974580D01*
X97859649Y-25974580D02*
X97907268Y-26022200D01*
X97907268Y-26022200D02*
X98002506Y-26069819D01*
X98002506Y-26069819D02*
X98288220Y-26069819D01*
X98288220Y-26069819D02*
X98383458Y-26022200D01*
X98383458Y-26022200D02*
X98431077Y-25974580D01*
X97097744Y-26450771D02*
X97145363Y-26403152D01*
X97145363Y-26403152D02*
X97240601Y-26260295D01*
X97240601Y-26260295D02*
X97288220Y-26165057D01*
X97288220Y-26165057D02*
X97335839Y-26022200D01*
X97335839Y-26022200D02*
X97383458Y-25784104D01*
X97383458Y-25784104D02*
X97383458Y-25593628D01*
X97383458Y-25593628D02*
X97335839Y-25355533D01*
X97335839Y-25355533D02*
X97288220Y-25212676D01*
X97288220Y-25212676D02*
X97240601Y-25117438D01*
X97240601Y-25117438D02*
X97145363Y-24974580D01*
X97145363Y-24974580D02*
X97097744Y-24926961D01*
X96716791Y-25688866D02*
X95954887Y-25688866D01*
X96335839Y-26069819D02*
X96335839Y-25307914D01*
X95002506Y-25069819D02*
X95478696Y-25069819D01*
X95478696Y-25069819D02*
X95526315Y-25546009D01*
X95526315Y-25546009D02*
X95478696Y-25498390D01*
X95478696Y-25498390D02*
X95383458Y-25450771D01*
X95383458Y-25450771D02*
X95145363Y-25450771D01*
X95145363Y-25450771D02*
X95050125Y-25498390D01*
X95050125Y-25498390D02*
X95002506Y-25546009D01*
X95002506Y-25546009D02*
X94954887Y-25641247D01*
X94954887Y-25641247D02*
X94954887Y-25879342D01*
X94954887Y-25879342D02*
X95002506Y-25974580D01*
X95002506Y-25974580D02*
X95050125Y-26022200D01*
X95050125Y-26022200D02*
X95145363Y-26069819D01*
X95145363Y-26069819D02*
X95383458Y-26069819D01*
X95383458Y-26069819D02*
X95478696Y-26022200D01*
X95478696Y-26022200D02*
X95526315Y-25974580D01*
X94669172Y-25069819D02*
X94335839Y-26069819D01*
X94335839Y-26069819D02*
X94002506Y-25069819D01*
X93764410Y-26450771D02*
X93716791Y-26403152D01*
X93716791Y-26403152D02*
X93621553Y-26260295D01*
X93621553Y-26260295D02*
X93573934Y-26165057D01*
X93573934Y-26165057D02*
X93526315Y-26022200D01*
X93526315Y-26022200D02*
X93478696Y-25784104D01*
X93478696Y-25784104D02*
X93478696Y-25593628D01*
X93478696Y-25593628D02*
X93526315Y-25355533D01*
X93526315Y-25355533D02*
X93573934Y-25212676D01*
X93573934Y-25212676D02*
X93621553Y-25117438D01*
X93621553Y-25117438D02*
X93716791Y-24974580D01*
X93716791Y-24974580D02*
X93764410Y-24926961D01*
X98461904Y-32104875D02*
X98461904Y-32914398D01*
X98461904Y-32914398D02*
X98414285Y-33009636D01*
X98414285Y-33009636D02*
X98366666Y-33057256D01*
X98366666Y-33057256D02*
X98271428Y-33104875D01*
X98271428Y-33104875D02*
X98080952Y-33104875D01*
X98080952Y-33104875D02*
X97985714Y-33057256D01*
X97985714Y-33057256D02*
X97938095Y-33009636D01*
X97938095Y-33009636D02*
X97890476Y-32914398D01*
X97890476Y-32914398D02*
X97890476Y-32104875D01*
X97461904Y-32200113D02*
X97414285Y-32152494D01*
X97414285Y-32152494D02*
X97319047Y-32104875D01*
X97319047Y-32104875D02*
X97080952Y-32104875D01*
X97080952Y-32104875D02*
X96985714Y-32152494D01*
X96985714Y-32152494D02*
X96938095Y-32200113D01*
X96938095Y-32200113D02*
X96890476Y-32295351D01*
X96890476Y-32295351D02*
X96890476Y-32390589D01*
X96890476Y-32390589D02*
X96938095Y-32533446D01*
X96938095Y-32533446D02*
X97509523Y-33104875D01*
X97509523Y-33104875D02*
X96890476Y-33104875D01*
X99223809Y-34143390D02*
X99319047Y-34095771D01*
X99319047Y-34095771D02*
X99366666Y-34048152D01*
X99366666Y-34048152D02*
X99414285Y-33952914D01*
X99414285Y-33952914D02*
X99414285Y-33905295D01*
X99414285Y-33905295D02*
X99366666Y-33810057D01*
X99366666Y-33810057D02*
X99319047Y-33762438D01*
X99319047Y-33762438D02*
X99223809Y-33714819D01*
X99223809Y-33714819D02*
X99033333Y-33714819D01*
X99033333Y-33714819D02*
X98938095Y-33762438D01*
X98938095Y-33762438D02*
X98890476Y-33810057D01*
X98890476Y-33810057D02*
X98842857Y-33905295D01*
X98842857Y-33905295D02*
X98842857Y-33952914D01*
X98842857Y-33952914D02*
X98890476Y-34048152D01*
X98890476Y-34048152D02*
X98938095Y-34095771D01*
X98938095Y-34095771D02*
X99033333Y-34143390D01*
X99033333Y-34143390D02*
X99223809Y-34143390D01*
X99223809Y-34143390D02*
X99319047Y-34191009D01*
X99319047Y-34191009D02*
X99366666Y-34238628D01*
X99366666Y-34238628D02*
X99414285Y-34333866D01*
X99414285Y-34333866D02*
X99414285Y-34524342D01*
X99414285Y-34524342D02*
X99366666Y-34619580D01*
X99366666Y-34619580D02*
X99319047Y-34667200D01*
X99319047Y-34667200D02*
X99223809Y-34714819D01*
X99223809Y-34714819D02*
X99033333Y-34714819D01*
X99033333Y-34714819D02*
X98938095Y-34667200D01*
X98938095Y-34667200D02*
X98890476Y-34619580D01*
X98890476Y-34619580D02*
X98842857Y-34524342D01*
X98842857Y-34524342D02*
X98842857Y-34333866D01*
X98842857Y-34333866D02*
X98890476Y-34238628D01*
X98890476Y-34238628D02*
X98938095Y-34191009D01*
X98938095Y-34191009D02*
X99033333Y-34143390D01*
X98366666Y-34714819D02*
X98176190Y-34714819D01*
X98176190Y-34714819D02*
X98080952Y-34667200D01*
X98080952Y-34667200D02*
X98033333Y-34619580D01*
X98033333Y-34619580D02*
X97938095Y-34476723D01*
X97938095Y-34476723D02*
X97890476Y-34286247D01*
X97890476Y-34286247D02*
X97890476Y-33905295D01*
X97890476Y-33905295D02*
X97938095Y-33810057D01*
X97938095Y-33810057D02*
X97985714Y-33762438D01*
X97985714Y-33762438D02*
X98080952Y-33714819D01*
X98080952Y-33714819D02*
X98271428Y-33714819D01*
X98271428Y-33714819D02*
X98366666Y-33762438D01*
X98366666Y-33762438D02*
X98414285Y-33810057D01*
X98414285Y-33810057D02*
X98461904Y-33905295D01*
X98461904Y-33905295D02*
X98461904Y-34143390D01*
X98461904Y-34143390D02*
X98414285Y-34238628D01*
X98414285Y-34238628D02*
X98366666Y-34286247D01*
X98366666Y-34286247D02*
X98271428Y-34333866D01*
X98271428Y-34333866D02*
X98080952Y-34333866D01*
X98080952Y-34333866D02*
X97985714Y-34286247D01*
X97985714Y-34286247D02*
X97938095Y-34238628D01*
X97938095Y-34238628D02*
X97890476Y-34143390D01*
X96938095Y-34714819D02*
X97509523Y-34714819D01*
X97223809Y-34714819D02*
X97223809Y-33714819D01*
X97223809Y-33714819D02*
X97319047Y-33857676D01*
X97319047Y-33857676D02*
X97414285Y-33952914D01*
X97414285Y-33952914D02*
X97509523Y-34000533D01*
X96604761Y-33714819D02*
X95985714Y-33714819D01*
X95985714Y-33714819D02*
X96319047Y-34095771D01*
X96319047Y-34095771D02*
X96176190Y-34095771D01*
X96176190Y-34095771D02*
X96080952Y-34143390D01*
X96080952Y-34143390D02*
X96033333Y-34191009D01*
X96033333Y-34191009D02*
X95985714Y-34286247D01*
X95985714Y-34286247D02*
X95985714Y-34524342D01*
X95985714Y-34524342D02*
X96033333Y-34619580D01*
X96033333Y-34619580D02*
X96080952Y-34667200D01*
X96080952Y-34667200D02*
X96176190Y-34714819D01*
X96176190Y-34714819D02*
X96461904Y-34714819D01*
X96461904Y-34714819D02*
X96557142Y-34667200D01*
X96557142Y-34667200D02*
X96604761Y-34619580D01*
X100929411Y-53174819D02*
X101500839Y-53174819D01*
X101215125Y-53174819D02*
X101215125Y-52174819D01*
X101215125Y-52174819D02*
X101310363Y-52317676D01*
X101310363Y-52317676D02*
X101405601Y-52412914D01*
X101405601Y-52412914D02*
X101500839Y-52460533D01*
X100215125Y-53555771D02*
X100262744Y-53508152D01*
X100262744Y-53508152D02*
X100357982Y-53365295D01*
X100357982Y-53365295D02*
X100405601Y-53270057D01*
X100405601Y-53270057D02*
X100453220Y-53127200D01*
X100453220Y-53127200D02*
X100500839Y-52889104D01*
X100500839Y-52889104D02*
X100500839Y-52698628D01*
X100500839Y-52698628D02*
X100453220Y-52460533D01*
X100453220Y-52460533D02*
X100405601Y-52317676D01*
X100405601Y-52317676D02*
X100357982Y-52222438D01*
X100357982Y-52222438D02*
X100262744Y-52079580D01*
X100262744Y-52079580D02*
X100215125Y-52031961D01*
X99310363Y-52222438D02*
X99405601Y-52174819D01*
X99405601Y-52174819D02*
X99548458Y-52174819D01*
X99548458Y-52174819D02*
X99691315Y-52222438D01*
X99691315Y-52222438D02*
X99786553Y-52317676D01*
X99786553Y-52317676D02*
X99834172Y-52412914D01*
X99834172Y-52412914D02*
X99881791Y-52603390D01*
X99881791Y-52603390D02*
X99881791Y-52746247D01*
X99881791Y-52746247D02*
X99834172Y-52936723D01*
X99834172Y-52936723D02*
X99786553Y-53031961D01*
X99786553Y-53031961D02*
X99691315Y-53127200D01*
X99691315Y-53127200D02*
X99548458Y-53174819D01*
X99548458Y-53174819D02*
X99453220Y-53174819D01*
X99453220Y-53174819D02*
X99310363Y-53127200D01*
X99310363Y-53127200D02*
X99262744Y-53079580D01*
X99262744Y-53079580D02*
X99262744Y-52746247D01*
X99262744Y-52746247D02*
X99453220Y-52746247D01*
X98834172Y-53174819D02*
X98834172Y-52174819D01*
X98834172Y-52174819D02*
X98262744Y-53174819D01*
X98262744Y-53174819D02*
X98262744Y-52174819D01*
X97786553Y-53174819D02*
X97786553Y-52174819D01*
X97786553Y-52174819D02*
X97548458Y-52174819D01*
X97548458Y-52174819D02*
X97405601Y-52222438D01*
X97405601Y-52222438D02*
X97310363Y-52317676D01*
X97310363Y-52317676D02*
X97262744Y-52412914D01*
X97262744Y-52412914D02*
X97215125Y-52603390D01*
X97215125Y-52603390D02*
X97215125Y-52746247D01*
X97215125Y-52746247D02*
X97262744Y-52936723D01*
X97262744Y-52936723D02*
X97310363Y-53031961D01*
X97310363Y-53031961D02*
X97405601Y-53127200D01*
X97405601Y-53127200D02*
X97548458Y-53174819D01*
X97548458Y-53174819D02*
X97786553Y-53174819D01*
X96881791Y-53555771D02*
X96834172Y-53508152D01*
X96834172Y-53508152D02*
X96738934Y-53365295D01*
X96738934Y-53365295D02*
X96691315Y-53270057D01*
X96691315Y-53270057D02*
X96643696Y-53127200D01*
X96643696Y-53127200D02*
X96596077Y-52889104D01*
X96596077Y-52889104D02*
X96596077Y-52698628D01*
X96596077Y-52698628D02*
X96643696Y-52460533D01*
X96643696Y-52460533D02*
X96691315Y-52317676D01*
X96691315Y-52317676D02*
X96738934Y-52222438D01*
X96738934Y-52222438D02*
X96834172Y-52079580D01*
X96834172Y-52079580D02*
X96881791Y-52031961D01*
X107635004Y-93752208D02*
X107696038Y-93780668D01*
X107696038Y-93780668D02*
X107846567Y-93776556D01*
X107846567Y-93776556D02*
X107936061Y-93743982D01*
X107936061Y-93743982D02*
X108054017Y-93650375D01*
X108054017Y-93650375D02*
X108110938Y-93528307D01*
X108110938Y-93528307D02*
X108123112Y-93422526D01*
X108123112Y-93422526D02*
X108102712Y-93227250D01*
X108102712Y-93227250D02*
X108053852Y-93093008D01*
X108053852Y-93093008D02*
X107943958Y-92930306D01*
X107943958Y-92930306D02*
X107866638Y-92857098D01*
X107866638Y-92857098D02*
X107744570Y-92800177D01*
X107744570Y-92800177D02*
X107594041Y-92804290D01*
X107594041Y-92804290D02*
X107504547Y-92836863D01*
X107504547Y-92836863D02*
X107386592Y-92930470D01*
X107386592Y-92930470D02*
X107358131Y-92991504D01*
X106772632Y-94167436D02*
X107309600Y-93971996D01*
X107041116Y-94069716D02*
X106699096Y-93130023D01*
X106699096Y-93130023D02*
X106837450Y-93231692D01*
X106837450Y-93231692D02*
X106959518Y-93288613D01*
X106959518Y-93288613D02*
X107065300Y-93300787D01*
D12*
%TO.C,C1*%
X107433120Y-94448679D02*
X107924112Y-94269973D01*
X107935888Y-95830027D02*
X108426880Y-95651321D01*
%TD*%
M02*
