%TF.GenerationSoftware,KiCad,Pcbnew,8.0.3*%
%TF.CreationDate,2024-06-29T10:36:13+02:00*%
%TF.ProjectId,adapter 8913-8910 Angle L,61646170-7465-4722-9038-3931332d3839,1.0a*%
%TF.SameCoordinates,Original*%
%TF.FileFunction,Copper,L1,Top*%
%TF.FilePolarity,Positive*%
%FSLAX46Y46*%
G04 Gerber Fmt 4.6, Leading zero omitted, Abs format (unit mm)*
G04 Created by KiCad (PCBNEW 8.0.3) date 2024-06-29 10:36:13*
%MOMM*%
%LPD*%
G01*
G04 APERTURE LIST*
G04 Aperture macros list*
%AMHorizOval*
0 Thick line with rounded ends*
0 $1 width*
0 $2 $3 position (X,Y) of the first rounded end (center of the circle)*
0 $4 $5 position (X,Y) of the second rounded end (center of the circle)*
0 Add line between two ends*
20,1,$1,$2,$3,$4,$5,0*
0 Add two circle primitives to create the rounded ends*
1,1,$1,$2,$3*
1,1,$1,$4,$5*%
%AMRotRect*
0 Rectangle, with rotation*
0 The origin of the aperture is its center*
0 $1 length*
0 $2 width*
0 $3 Rotation angle, in degrees counterclockwise*
0 Add horizontal line*
21,1,$1,$2,0,0,$3*%
G04 Aperture macros list end*
%TA.AperFunction,ComponentPad*%
%ADD10RotRect,1.600000X1.600000X20.000000*%
%TD*%
%TA.AperFunction,ComponentPad*%
%ADD11HorizOval,1.600000X0.000000X0.000000X0.000000X0.000000X0*%
%TD*%
%TA.AperFunction,ComponentPad*%
%ADD12R,1.700000X1.700000*%
%TD*%
%TA.AperFunction,ComponentPad*%
%ADD13O,1.700000X1.700000*%
%TD*%
%TA.AperFunction,ComponentPad*%
%ADD14R,2.400000X1.600000*%
%TD*%
%TA.AperFunction,ComponentPad*%
%ADD15O,2.400000X1.600000*%
%TD*%
%TA.AperFunction,ViaPad*%
%ADD16C,0.800000*%
%TD*%
%TA.AperFunction,Conductor*%
%ADD17C,0.300000*%
%TD*%
G04 APERTURE END LIST*
D10*
%TO.P,U1,1,Vss*%
%TO.N,GND*%
X90329085Y-69012387D03*
D11*
%TO.P,U1,2,N/C*%
%TO.N,unconnected-(U1-N{slash}C-Pad2)*%
X91197817Y-71399207D03*
%TO.P,U1,3,ch_B*%
%TO.N,Net-(Audio_OUT_J1-Pin_1)*%
X92066548Y-73786025D03*
%TO.P,U1,4,ch_A*%
X92935278Y-76172845D03*
%TO.P,U1,5,N/C*%
%TO.N,unconnected-(U1-N{slash}C-Pad5)*%
X93804010Y-78559664D03*
%TO.P,U1,6,IOB7*%
%TO.N,unconnected-(U1-IOB7-Pad6)*%
X94672741Y-80946483D03*
%TO.P,U1,7,IOB6*%
%TO.N,unconnected-(U1-IOB6-Pad7)*%
X95541472Y-83333302D03*
%TO.P,U1,8,IOB5*%
%TO.N,unconnected-(U1-IOB5-Pad8)*%
X96410203Y-85720123D03*
%TO.P,U1,9,IOB4*%
%TO.N,unconnected-(U1-IOB4-Pad9)*%
X97278934Y-88106941D03*
%TO.P,U1,10,IOB3*%
%TO.N,unconnected-(U1-IOB3-Pad10)*%
X98147665Y-90493761D03*
%TO.P,U1,11,IOB2*%
%TO.N,unconnected-(U1-IOB2-Pad11)*%
X99016397Y-92880581D03*
%TO.P,U1,12,IOB1*%
%TO.N,unconnected-(U1-IOB1-Pad12)*%
X99885128Y-95267399D03*
%TO.P,U1,13,IOB0*%
%TO.N,unconnected-(U1-IOB0-Pad13)*%
X100753859Y-97654218D03*
%TO.P,U1,14,IOA7*%
%TO.N,unconnected-(U1-IOA7-Pad14)*%
X101622590Y-100041038D03*
%TO.P,U1,15,IOA6*%
%TO.N,unconnected-(U1-IOA6-Pad15)*%
X102491321Y-102427856D03*
%TO.P,U1,16,IOA5*%
%TO.N,unconnected-(U1-IOA5-Pad16)*%
X103360052Y-104814676D03*
%TO.P,U1,17,IOA4*%
%TO.N,unconnected-(U1-IOA4-Pad17)*%
X104228784Y-107201495D03*
%TO.P,U1,18,IOA3*%
%TO.N,unconnected-(U1-IOA3-Pad18)*%
X105097514Y-109588314D03*
%TO.P,U1,19,IOA2*%
%TO.N,unconnected-(U1-IOA2-Pad19)*%
X105966246Y-111975133D03*
%TO.P,U1,20,IOA1*%
%TO.N,unconnected-(U1-IOA1-Pad20)*%
X106834977Y-114361953D03*
%TO.P,U1,21,IOA0*%
%TO.N,unconnected-(U1-IOA0-Pad21)*%
X121155893Y-109149566D03*
%TO.P,U1,22,CLOCK*%
%TO.N,Net-(U1-CLOCK)*%
X120287161Y-106762746D03*
%TO.P,U1,23,~{RESET}*%
%TO.N,Net-(U1-~{RESET})*%
X119418430Y-104375927D03*
%TO.P,U1,24,~{A9}*%
%TO.N,Net-(U1-~{A9})*%
X118549700Y-101989108D03*
%TO.P,U1,25,A8*%
%TO.N,Net-(U1-A8)*%
X117680968Y-99602289D03*
%TO.P,U1,26,TEST2*%
%TO.N,unconnected-(U1-TEST2-Pad26)*%
X116812236Y-97215469D03*
%TO.P,U1,27,BDIR*%
%TO.N,Net-(U1-BDIR)*%
X115943505Y-94828651D03*
%TO.P,U1,28,BC2*%
%TO.N,+5V*%
X115074775Y-92441831D03*
%TO.P,U1,29,BC1*%
%TO.N,Net-(U1-BC1)*%
X114206044Y-90055011D03*
%TO.P,U1,30,D7*%
%TO.N,Net-(U1-D7)*%
X113337312Y-87668192D03*
%TO.P,U1,31,D6*%
%TO.N,Net-(U1-D6)*%
X112468581Y-85281373D03*
%TO.P,U1,32,D5*%
%TO.N,Net-(U1-D5)*%
X111599849Y-82894554D03*
%TO.P,U1,33,D4*%
%TO.N,Net-(U1-D4)*%
X110731118Y-80507735D03*
%TO.P,U1,34,D3*%
%TO.N,Net-(U1-D3)*%
X109862388Y-78120915D03*
%TO.P,U1,35,D2*%
%TO.N,Net-(U1-D2)*%
X108993656Y-75734098D03*
%TO.P,U1,36,D1*%
%TO.N,Net-(U1-D1)*%
X108124925Y-73347277D03*
%TO.P,U1,37,D0*%
%TO.N,Net-(U1-D0)*%
X107256193Y-70960458D03*
%TO.P,U1,38,ch_C*%
%TO.N,Net-(Audio_OUT_J1-Pin_1)*%
X106387463Y-68573639D03*
%TO.P,U1,39,TEST1*%
%TO.N,unconnected-(U1-TEST1-Pad39)*%
X105518732Y-66186820D03*
%TO.P,U1,40,Vcc*%
%TO.N,+5V*%
X104650000Y-63800000D03*
%TD*%
D12*
%TO.P,Audio_OUT_J1,1,Pin_1*%
%TO.N,Net-(Audio_OUT_J1-Pin_1)*%
X94600000Y-36160000D03*
D13*
%TO.P,Audio_OUT_J1,2,Pin_2*%
%TO.N,GND*%
X94600000Y-38700000D03*
%TD*%
D14*
%TO.P,U2,1,Vss*%
%TO.N,GND*%
X105488840Y-53539551D03*
D15*
%TO.P,U2,2,BDIR*%
%TO.N,Net-(U1-BDIR)*%
X105488840Y-50999551D03*
%TO.P,U2,3,BC1*%
%TO.N,Net-(U1-BC1)*%
X105488840Y-48459551D03*
%TO.P,U2,4,D7*%
%TO.N,Net-(U1-D7)*%
X105488840Y-45919551D03*
%TO.P,U2,5,D6*%
%TO.N,Net-(U1-D6)*%
X105488840Y-43379551D03*
%TO.P,U2,6,D5*%
%TO.N,Net-(U1-D5)*%
X105488840Y-40839551D03*
%TO.P,U2,7,D4*%
%TO.N,Net-(U1-D4)*%
X105488840Y-38299551D03*
%TO.P,U2,8,D3*%
%TO.N,Net-(U1-D3)*%
X105488840Y-35759551D03*
%TO.P,U2,9,D2*%
%TO.N,Net-(U1-D2)*%
X105488840Y-33219551D03*
%TO.P,U2,10,D1*%
%TO.N,Net-(U1-D1)*%
X105488840Y-30679551D03*
%TO.P,U2,11,D0*%
%TO.N,Net-(U1-D0)*%
X105488840Y-28139551D03*
%TO.P,U2,12,TEST_2*%
%TO.N,unconnected-(U2-TEST_2-Pad12)*%
X105488840Y-25599551D03*
%TO.P,U2,13,Vcc*%
%TO.N,+5V*%
X90248840Y-25599551D03*
%TO.P,U2,14,TEST_I*%
%TO.N,unconnected-(U2-TEST_I-Pad14)*%
X90248840Y-28139551D03*
%TO.P,U2,15,ch_B*%
%TO.N,Net-(Audio_OUT_J1-Pin_1)*%
X90248840Y-30679551D03*
%TO.P,U2,16,N/C*%
%TO.N,unconnected-(U2-N{slash}C-Pad16)*%
X90248840Y-33219551D03*
%TO.P,U2,17,ch_A*%
%TO.N,Net-(Audio_OUT_J1-Pin_1)*%
X90248840Y-35759551D03*
%TO.P,U2,18,ch_C*%
X90248840Y-38299551D03*
%TO.P,U2,19,Vss*%
%TO.N,GND*%
X90248840Y-40839551D03*
%TO.P,U2,20,CLOCK*%
%TO.N,Net-(U1-CLOCK)*%
X90248840Y-43379551D03*
%TO.P,U2,21,~{RESET}*%
%TO.N,Net-(U1-~{RESET})*%
X90248840Y-45919551D03*
%TO.P,U2,22,~{A9}*%
%TO.N,Net-(U1-~{A9})*%
X90248840Y-48459551D03*
%TO.P,U2,23,A8*%
%TO.N,Net-(U1-A8)*%
X90248840Y-50999551D03*
%TO.P,U2,24,~{CE}*%
%TO.N,GND*%
X90248840Y-53539551D03*
%TD*%
D16*
%TO.N,Net-(U1-D3)*%
X98610000Y-60890000D03*
X100340000Y-77440000D03*
%TO.N,Net-(U1-D5)*%
X100540000Y-60920000D03*
X102360000Y-82900000D03*
%TO.N,Net-(U1-BC1)*%
X104980000Y-90110000D03*
X103040000Y-58770000D03*
%TO.N,Net-(U1-D7)*%
X102280000Y-59510000D03*
X104080000Y-87660000D03*
%TO.N,Net-(U1-D6)*%
X103220000Y-85270000D03*
X101500000Y-60170000D03*
%TO.N,Net-(U1-BDIR)*%
X103750000Y-58010000D03*
%TO.N,Net-(U1-D0)*%
X98030000Y-71050000D03*
X97232260Y-63537773D03*
%TO.N,Net-(U1-D4)*%
X101080000Y-79380000D03*
X99450000Y-60140000D03*
%TO.N,Net-(U1-D1)*%
X97829687Y-62735847D03*
X98420000Y-72340000D03*
%TO.N,Net-(U1-D2)*%
X99260000Y-74500000D03*
X98330000Y-61870000D03*
%TO.N,Net-(Audio_OUT_J1-Pin_1)*%
X90800000Y-63450000D03*
X92500000Y-61050000D03*
X97480000Y-68573639D03*
X95175000Y-49725000D03*
%TD*%
D17*
%TO.N,Net-(U1-D3)*%
X103800000Y-74950000D02*
X100140000Y-71290000D01*
X103800000Y-76890000D02*
X103800000Y-74950000D01*
X100340000Y-77440000D02*
X101070000Y-78170000D01*
X101070000Y-78170000D02*
X102520000Y-78170000D01*
X99290000Y-61570000D02*
X98610000Y-60890000D01*
X99290000Y-61889999D02*
X99290000Y-61570000D01*
X100140000Y-71290000D02*
X100140000Y-62739999D01*
X100140000Y-62739999D02*
X99290000Y-61889999D01*
X102520000Y-78170000D02*
X103800000Y-76890000D01*
%TO.N,Net-(U1-D5)*%
X107090000Y-80708426D02*
X104810000Y-78428426D01*
X101309340Y-61689340D02*
X100540000Y-60920000D01*
X104810000Y-78428426D02*
X104810000Y-74458424D01*
X106140000Y-82900000D02*
X107090000Y-81950000D01*
X104810000Y-74458424D02*
X101140000Y-70788424D01*
X107090000Y-81950000D02*
X107090000Y-80708426D01*
X101140000Y-70788424D02*
X101140000Y-61858679D01*
X101140000Y-61858679D02*
X101309340Y-61689340D01*
X102360000Y-82900000D02*
X106140000Y-82900000D01*
%TO.N,Net-(U1-BC1)*%
X104980000Y-90110000D02*
X108700000Y-90110000D01*
X108700000Y-90110000D02*
X110230000Y-88580000D01*
X103480000Y-59210000D02*
X103040000Y-58770000D01*
X102640000Y-70167106D02*
X102640000Y-62480000D01*
X103480000Y-61640000D02*
X103480000Y-59210000D01*
X108590000Y-80087106D02*
X106310000Y-77807106D01*
X110230000Y-85087107D02*
X108590000Y-83447107D01*
X106310000Y-77807106D02*
X106310000Y-73837106D01*
X108590000Y-83447107D02*
X108590000Y-80087106D01*
X110230000Y-88580000D02*
X110230000Y-85087107D01*
X102640000Y-62480000D02*
X103480000Y-61640000D01*
X106310000Y-73837106D02*
X102640000Y-70167106D01*
%TO.N,Net-(U1-D7)*%
X105810000Y-74044212D02*
X102140000Y-70374212D01*
X108090000Y-80294213D02*
X105810000Y-78014213D01*
X108090000Y-83880000D02*
X108090000Y-80294213D01*
X102140000Y-70374212D02*
X102140000Y-62272893D01*
X102140000Y-62272893D02*
X102690000Y-61722893D01*
X105810000Y-78014213D02*
X105810000Y-74044212D01*
X109730000Y-86610000D02*
X109730000Y-85520000D01*
X104080000Y-87660000D02*
X108680000Y-87660000D01*
X108680000Y-87660000D02*
X109730000Y-86610000D01*
X102690000Y-61722893D02*
X102690000Y-59920000D01*
X102690000Y-59920000D02*
X102280000Y-59510000D01*
X109730000Y-85520000D02*
X108090000Y-83880000D01*
%TO.N,Net-(U1-A8)*%
X117483257Y-99800000D02*
X108050000Y-99800000D01*
X108050000Y-99800000D02*
X99950000Y-91700000D01*
X97675000Y-79225000D02*
X95125000Y-76675000D01*
X94500000Y-62775000D02*
X94500000Y-53125000D01*
X93750000Y-63525000D02*
X94500000Y-62775000D01*
X94500000Y-53125000D02*
X92374551Y-50999551D01*
X99950000Y-91700000D02*
X99950000Y-87100000D01*
X97675000Y-84825000D02*
X97675000Y-79225000D01*
X92374551Y-50999551D02*
X90248840Y-50999551D01*
X93750000Y-71925000D02*
X93750000Y-63525000D01*
X95125000Y-76675000D02*
X95125000Y-73300000D01*
X99950000Y-87100000D02*
X97675000Y-84825000D01*
X95125000Y-73300000D02*
X93750000Y-71925000D01*
%TO.N,Net-(U1-~{A9})*%
X108817834Y-71806192D02*
X108817834Y-70227989D01*
X110376276Y-74511372D02*
X109720437Y-72708795D01*
X106685763Y-59510763D02*
X98950000Y-51775000D01*
X112451724Y-80215749D02*
X112424433Y-80140739D01*
X110400281Y-74577349D02*
X110376276Y-74511372D01*
X109720437Y-72708795D02*
X108817834Y-71806192D01*
X98950000Y-51775000D02*
X98950000Y-49550000D01*
X108817834Y-70227989D02*
X106968674Y-65145563D01*
X97900000Y-48500000D02*
X90289289Y-48500000D01*
X118549700Y-101989108D02*
X119770447Y-100768361D01*
X106968674Y-65145563D02*
X106685763Y-64862652D01*
X119770447Y-100331286D02*
X112451724Y-80215749D01*
X106685763Y-64862652D02*
X106685763Y-59510763D01*
X98950000Y-49550000D02*
X97900000Y-48500000D01*
X112424433Y-80140739D02*
X110400281Y-74577349D01*
X119770447Y-100768361D02*
X119770447Y-100331286D01*
%TO.N,Net-(U1-D6)*%
X101860000Y-60530000D02*
X101500000Y-60170000D01*
X103220000Y-85270000D02*
X106590000Y-85270000D01*
X106590000Y-85270000D02*
X107590000Y-84270000D01*
X107590000Y-80501320D02*
X105310000Y-78221320D01*
X105310000Y-78221320D02*
X105310000Y-74251318D01*
X105310000Y-74251318D02*
X101640000Y-70581318D01*
X101640000Y-62065786D02*
X101860000Y-61845786D01*
X101860000Y-61845786D02*
X101860000Y-60530000D01*
X101640000Y-70581318D02*
X101640000Y-62065786D01*
X107590000Y-84270000D02*
X107590000Y-80501320D01*
%TO.N,Net-(U1-BDIR)*%
X110920000Y-85070000D02*
X110920000Y-89010000D01*
X109090000Y-83240000D02*
X110920000Y-85070000D01*
X103140000Y-69960000D02*
X106810000Y-73630000D01*
X104450000Y-61400000D02*
X103140000Y-62710000D01*
X106810000Y-73630000D02*
X106810000Y-77600000D01*
X110920000Y-89010000D02*
X113200000Y-91290000D01*
X106810000Y-77600000D02*
X109090000Y-79880000D01*
X109090000Y-79880000D02*
X109090000Y-83240000D01*
X113200000Y-93680000D02*
X114348651Y-94828651D01*
X114348651Y-94828651D02*
X115943505Y-94828651D01*
X113200000Y-91290000D02*
X113200000Y-93680000D01*
X104450000Y-58710000D02*
X104450000Y-61400000D01*
X103750000Y-58010000D02*
X104450000Y-58710000D01*
X103140000Y-62710000D02*
X103140000Y-69960000D01*
%TO.N,Net-(U1-~{RESET})*%
X109831650Y-71552076D02*
X109819182Y-71517808D01*
X107400631Y-64870413D02*
X107185763Y-64655545D01*
X120682138Y-101374689D02*
X112992402Y-80239420D01*
X112992402Y-80239419D02*
X110775332Y-74145794D01*
X99575000Y-47375000D02*
X98119551Y-45919551D01*
X110775332Y-74145794D02*
X110775332Y-74145793D01*
X109819182Y-71517808D02*
X109578273Y-70855672D01*
X109356606Y-70246420D02*
X109368207Y-70278306D01*
X110082399Y-72241264D02*
X110082399Y-72241263D01*
X98119551Y-45919551D02*
X90248840Y-45919551D01*
X119418430Y-104375927D02*
X120675000Y-103119357D01*
X107185763Y-64655545D02*
X107185763Y-59303657D01*
X112992402Y-80239420D02*
X112992402Y-80239419D01*
X120675000Y-101381827D02*
X120682138Y-101374689D01*
X110082399Y-72241263D02*
X109876948Y-71676579D01*
X110775332Y-74145793D02*
X110082399Y-72241264D01*
X109368207Y-70278306D02*
X109556363Y-70795452D01*
X99575000Y-51692894D02*
X99575000Y-47375000D01*
X109556363Y-70795452D02*
X109591416Y-70891794D01*
X109876948Y-71676579D02*
X109831650Y-71552076D01*
X120675000Y-103119357D02*
X120675000Y-101381827D01*
X107400631Y-64870413D02*
X109356606Y-70246420D01*
X107185763Y-59303657D02*
X99575000Y-51692894D01*
%TO.N,Net-(U1-D0)*%
X98640000Y-70440000D02*
X98640000Y-64945513D01*
X98640000Y-64945513D02*
X97232260Y-63537773D01*
X98030000Y-71050000D02*
X98640000Y-70440000D01*
%TO.N,Net-(U1-D4)*%
X100640000Y-70995531D02*
X100640000Y-62532893D01*
X104300000Y-79330000D02*
X104300000Y-74655531D01*
X101080000Y-79380000D02*
X102250000Y-80550000D01*
X104300000Y-74655531D02*
X100640000Y-70995531D01*
X102250000Y-80550000D02*
X103080000Y-80550000D01*
X100640000Y-62532893D02*
X99790000Y-61682893D01*
X99790000Y-61682893D02*
X99790000Y-60480000D01*
X99790000Y-60480000D02*
X99450000Y-60140000D01*
X103080000Y-80550000D02*
X104300000Y-79330000D01*
%TO.N,Net-(U1-CLOCK)*%
X109692699Y-69707789D02*
X109660420Y-69619068D01*
X110218236Y-71152228D02*
X109712249Y-69761521D01*
X100075000Y-45375000D02*
X98079551Y-43379551D01*
X109635085Y-69549435D02*
X107685763Y-64191716D01*
X110230704Y-71186496D02*
X110218236Y-71152228D01*
X98079551Y-43379551D02*
X90248840Y-43379551D01*
X109660420Y-69619068D02*
X109635085Y-69549435D01*
X107685763Y-64191716D02*
X107700000Y-64177479D01*
X113185680Y-79308260D02*
X113185680Y-79308259D01*
X122327344Y-106762746D02*
X122948548Y-106141542D01*
X122948548Y-106141542D02*
X113185680Y-79308260D01*
X120287161Y-106762746D02*
X122327344Y-106762746D01*
X109712249Y-69761521D02*
X109692699Y-69707789D01*
X107700000Y-59110788D02*
X100075000Y-51485788D01*
X113185680Y-79308259D02*
X110230704Y-71186496D01*
X100075000Y-51485788D02*
X100075000Y-45375000D01*
X107700000Y-64177479D02*
X107700000Y-59110788D01*
%TO.N,Net-(U1-D1)*%
X99140000Y-64046160D02*
X97829687Y-62735847D01*
X99140000Y-71620000D02*
X99140000Y-64046160D01*
X98420000Y-72340000D02*
X99140000Y-71620000D01*
%TO.N,Net-(U1-D2)*%
X100500000Y-75740000D02*
X101550000Y-75740000D01*
X99640000Y-71497107D02*
X99640000Y-63180000D01*
X101550000Y-75740000D02*
X102010000Y-75280000D01*
X99260000Y-74500000D02*
X100500000Y-75740000D01*
X99640000Y-71497107D02*
X102010000Y-73867106D01*
X99640000Y-63180000D02*
X98330000Y-61870000D01*
X102010000Y-75280000D02*
X102010000Y-73867106D01*
%TO.N,Net-(Audio_OUT_J1-Pin_1)*%
X95100000Y-32100000D02*
X93679551Y-30679551D01*
X90248840Y-35759551D02*
X91965449Y-35759551D01*
X87325000Y-31850000D02*
X88495449Y-30679551D01*
X93679551Y-30679551D02*
X90248840Y-30679551D01*
X91965449Y-35759551D02*
X92600000Y-35125000D01*
X93700000Y-32900000D02*
X94600000Y-33800000D01*
X91397845Y-76172845D02*
X92935278Y-76172845D01*
X97480000Y-68573639D02*
X97480000Y-65780000D01*
X88100000Y-57650000D02*
X91500000Y-61050000D01*
X93000000Y-63675000D02*
X87325000Y-58000000D01*
X92066548Y-73786025D02*
X93000000Y-72852573D01*
X95225000Y-63525000D02*
X97480000Y-65780000D01*
X88000000Y-64900000D02*
X88000000Y-72775000D01*
X90800000Y-63450000D02*
X89450000Y-63450000D01*
X88000000Y-72775000D02*
X91397845Y-76172845D01*
X92600000Y-35125000D02*
X92600000Y-33400000D01*
X95225000Y-63525000D02*
X95175000Y-49725000D01*
X95100000Y-33300000D02*
X95100000Y-32100000D01*
X88840449Y-35759551D02*
X88100000Y-36500000D01*
X91400449Y-38299551D02*
X93540000Y-36160000D01*
X94600000Y-33800000D02*
X95100000Y-33300000D01*
X91500000Y-61050000D02*
X92500000Y-61050000D01*
X93000000Y-72852573D02*
X93000000Y-63675000D01*
X94600000Y-33800000D02*
X94600000Y-36160000D01*
X88100000Y-36500000D02*
X88100000Y-57650000D01*
X93540000Y-36160000D02*
X94600000Y-36160000D01*
X87325000Y-58000000D02*
X87325000Y-31850000D01*
X92600000Y-33400000D02*
X93100000Y-32900000D01*
X90248840Y-35759551D02*
X88840449Y-35759551D01*
X93100000Y-32900000D02*
X93700000Y-32900000D01*
X88495449Y-30679551D02*
X90248840Y-30679551D01*
X90248840Y-38299551D02*
X91400449Y-38299551D01*
X89450000Y-63450000D02*
X88000000Y-64900000D01*
%TD*%
M02*
