%TF.GenerationSoftware,KiCad,Pcbnew,8.0.3*%
%TF.CreationDate,2024-06-29T10:36:16+02:00*%
%TF.ProjectId,adapter 8913-8910 Angle L,61646170-7465-4722-9038-3931332d3839,1.0a*%
%TF.SameCoordinates,Original*%
%TF.FileFunction,Drillmap*%
%TF.FilePolarity,Positive*%
%FSLAX45Y45*%
G04 Gerber Fmt 4.5, Leading zero omitted, Abs format (unit mm)*
G04 Created by KiCad (PCBNEW 8.0.3) date 2024-06-29 10:36:16*
%MOMM*%
%LPD*%
G01*
G04 APERTURE LIST*
%ADD10C,0.100000*%
%ADD11C,0.200000*%
G04 APERTURE END LIST*
D10*
X10860884Y-2303955D02*
X10860884Y-6404641D01*
X8660884Y-7153955D02*
X8660884Y-2303955D01*
X10380000Y-11860000D02*
X12557500Y-11067797D01*
X10380000Y-11860000D02*
X8660884Y-7153955D01*
X8660884Y-2303955D02*
X10860884Y-2303955D01*
X12557500Y-11067797D02*
X10860884Y-6404641D01*
D11*
X8916661Y-12176484D02*
X8916661Y-11976484D01*
X8916661Y-11976484D02*
X8964280Y-11976484D01*
X8964280Y-11976484D02*
X8992851Y-11986008D01*
X8992851Y-11986008D02*
X9011899Y-12005055D01*
X9011899Y-12005055D02*
X9021423Y-12024103D01*
X9021423Y-12024103D02*
X9030947Y-12062198D01*
X9030947Y-12062198D02*
X9030947Y-12090769D01*
X9030947Y-12090769D02*
X9021423Y-12128865D01*
X9021423Y-12128865D02*
X9011899Y-12147912D01*
X9011899Y-12147912D02*
X8992851Y-12166960D01*
X8992851Y-12166960D02*
X8964280Y-12176484D01*
X8964280Y-12176484D02*
X8916661Y-12176484D01*
X9116661Y-12176484D02*
X9116661Y-12043150D01*
X9116661Y-12081246D02*
X9126185Y-12062198D01*
X9126185Y-12062198D02*
X9135708Y-12052674D01*
X9135708Y-12052674D02*
X9154756Y-12043150D01*
X9154756Y-12043150D02*
X9173804Y-12043150D01*
X9240470Y-12176484D02*
X9240470Y-12043150D01*
X9240470Y-11976484D02*
X9230947Y-11986008D01*
X9230947Y-11986008D02*
X9240470Y-11995531D01*
X9240470Y-11995531D02*
X9249994Y-11986008D01*
X9249994Y-11986008D02*
X9240470Y-11976484D01*
X9240470Y-11976484D02*
X9240470Y-11995531D01*
X9364280Y-12176484D02*
X9345232Y-12166960D01*
X9345232Y-12166960D02*
X9335708Y-12147912D01*
X9335708Y-12147912D02*
X9335708Y-11976484D01*
X9469042Y-12176484D02*
X9449994Y-12166960D01*
X9449994Y-12166960D02*
X9440470Y-12147912D01*
X9440470Y-12147912D02*
X9440470Y-11976484D01*
X9697613Y-12176484D02*
X9697613Y-11976484D01*
X9697613Y-11976484D02*
X9764280Y-12119341D01*
X9764280Y-12119341D02*
X9830947Y-11976484D01*
X9830947Y-11976484D02*
X9830947Y-12176484D01*
X10011899Y-12176484D02*
X10011899Y-12071722D01*
X10011899Y-12071722D02*
X10002375Y-12052674D01*
X10002375Y-12052674D02*
X9983328Y-12043150D01*
X9983328Y-12043150D02*
X9945232Y-12043150D01*
X9945232Y-12043150D02*
X9926185Y-12052674D01*
X10011899Y-12166960D02*
X9992851Y-12176484D01*
X9992851Y-12176484D02*
X9945232Y-12176484D01*
X9945232Y-12176484D02*
X9926185Y-12166960D01*
X9926185Y-12166960D02*
X9916661Y-12147912D01*
X9916661Y-12147912D02*
X9916661Y-12128865D01*
X9916661Y-12128865D02*
X9926185Y-12109817D01*
X9926185Y-12109817D02*
X9945232Y-12100293D01*
X9945232Y-12100293D02*
X9992851Y-12100293D01*
X9992851Y-12100293D02*
X10011899Y-12090769D01*
X10107137Y-12043150D02*
X10107137Y-12243150D01*
X10107137Y-12052674D02*
X10126185Y-12043150D01*
X10126185Y-12043150D02*
X10164280Y-12043150D01*
X10164280Y-12043150D02*
X10183328Y-12052674D01*
X10183328Y-12052674D02*
X10192851Y-12062198D01*
X10192851Y-12062198D02*
X10202375Y-12081246D01*
X10202375Y-12081246D02*
X10202375Y-12138388D01*
X10202375Y-12138388D02*
X10192851Y-12157436D01*
X10192851Y-12157436D02*
X10183328Y-12166960D01*
X10183328Y-12166960D02*
X10164280Y-12176484D01*
X10164280Y-12176484D02*
X10126185Y-12176484D01*
X10126185Y-12176484D02*
X10107137Y-12166960D01*
X10288089Y-12157436D02*
X10297613Y-12166960D01*
X10297613Y-12166960D02*
X10288089Y-12176484D01*
X10288089Y-12176484D02*
X10278566Y-12166960D01*
X10278566Y-12166960D02*
X10288089Y-12157436D01*
X10288089Y-12157436D02*
X10288089Y-12176484D01*
X10288089Y-12052674D02*
X10297613Y-12062198D01*
X10297613Y-12062198D02*
X10288089Y-12071722D01*
X10288089Y-12071722D02*
X10278566Y-12062198D01*
X10278566Y-12062198D02*
X10288089Y-12052674D01*
X10288089Y-12052674D02*
X10288089Y-12071722D01*
M02*
