M48
; DRILL file {KiCad 8.0.3} date 2024-06-29T10:36:16+0200
; FORMAT={-:-/ absolute / metric / decimal}
; #@! TF.CreationDate,2024-06-29T10:36:16+02:00
; #@! TF.GenerationSoftware,Kicad,Pcbnew,8.0.3
; #@! TF.FileFunction,Plated,1,2,PTH
FMAT,2
METRIC
; #@! TA.AperFunction,Plated,PTH,ViaDrill
T1C0.400
; #@! TA.AperFunction,Plated,PTH,ComponentDrill
T2C0.800
; #@! TA.AperFunction,Plated,PTH,ComponentDrill
T3C1.000
%
G90
G05
T1
X90.8Y-63.45
X92.5Y-61.05
X95.175Y-49.725
X97.232Y-63.538
X97.48Y-68.574
X97.83Y-62.736
X98.03Y-71.05
X98.33Y-61.87
X98.42Y-72.34
X98.61Y-60.89
X99.26Y-74.5
X99.45Y-60.14
X100.34Y-77.44
X100.54Y-60.92
X101.08Y-79.38
X101.5Y-60.17
X102.28Y-59.51
X102.36Y-82.9
X103.04Y-58.77
X103.22Y-85.27
X103.75Y-58.01
X104.08Y-87.66
X104.98Y-90.11
T2
X90.249Y-25.6
X90.249Y-28.14
X90.249Y-30.68
X90.249Y-33.22
X90.249Y-35.76
X90.249Y-38.3
X90.249Y-40.84
X90.249Y-43.38
X90.249Y-45.92
X90.249Y-48.46
X90.249Y-51.0
X90.249Y-53.54
X90.329Y-69.012
X91.198Y-71.399
X92.067Y-73.786
X92.935Y-76.173
X93.804Y-78.56
X94.673Y-80.946
X95.541Y-83.333
X96.41Y-85.72
X97.279Y-88.107
X98.148Y-90.494
X99.016Y-92.881
X99.885Y-95.267
X100.754Y-97.654
X101.623Y-100.041
X102.491Y-102.428
X103.36Y-104.815
X104.229Y-107.201
X104.65Y-63.8
X105.098Y-109.588
X105.489Y-25.6
X105.489Y-28.14
X105.489Y-30.68
X105.489Y-33.22
X105.489Y-35.76
X105.489Y-38.3
X105.489Y-40.84
X105.489Y-43.38
X105.489Y-45.92
X105.489Y-48.46
X105.489Y-51.0
X105.489Y-53.54
X105.519Y-66.187
X105.966Y-111.975
X106.387Y-68.574
X106.835Y-114.362
X107.256Y-70.96
X108.125Y-73.347
X108.994Y-75.734
X109.862Y-78.121
X110.731Y-80.508
X111.6Y-82.895
X112.469Y-85.281
X113.337Y-87.668
X114.206Y-90.055
X115.075Y-92.442
X115.944Y-94.829
X116.812Y-97.215
X117.681Y-99.602
X118.55Y-101.989
X119.418Y-104.376
X120.287Y-106.763
X121.156Y-109.15
T3
X94.6Y-36.16
X94.6Y-38.7
M30
