<?xml version="1.0" encoding="UTF-8"?><svg id="Calque_1" xmlns="http://www.w3.org/2000/svg" viewBox="0 0 169.91 24.05"><defs><style>.cls-1{fill:#1a171b;}</style></defs><path class="cls-1" d="M0,.04C.75,.25,1.46,.42,2.13,.54c.67,.13,1.33,.19,1.99,.19s1.31-.06,1.95-.18c.64-.12,1.31-.29,1.99-.53,.07,1.2,.19,2.29,.37,3.29,.18,1,.4,1.9,.67,2.72,.27,.82,.58,1.56,.93,2.21,.35,.66,.73,1.24,1.12,1.76,.44-.59,.81-1.2,1.11-1.85,.29-.64,.56-1.37,.79-2.16,.23-.8,.45-1.69,.65-2.67,.2-.98,.44-2.1,.72-3.34,.47,.09,.91,.18,1.32,.26,.41,.08,.8,.15,1.16,.19,.36,.05,.71,.08,1.05,.11,.34,.02,.67,.04,1,.04s.66-.01,1-.04c.34-.02,.69-.06,1.05-.11,.36-.05,.76-.11,1.18-.18s.87-.15,1.34-.25c-.26,.23-.5,.52-.72,.86-.22,.34-.42,.72-.6,1.14-.18,.42-.33,.87-.47,1.35-.14,.48-.26,1-.37,1.55-.11,.55-.19,1.12-.26,1.71-.07,.59-.12,1.19-.16,1.81-.04,.62-.05,1.25-.05,1.88s.01,1.27,.04,1.92c.02,.65,.06,1.28,.11,1.92,.05,.63,.11,1.25,.19,1.86,.08,.61,.17,1.2,.26,1.78,.09,.57,.19,1.12,.3,1.65,.11,.53,.22,1.02,.35,1.48,.13,.46,.27,.88,.42,1.28,.15,.4,.3,.75,.46,1.05,.15,.3,.31,.55,.47,.74-1.57-.44-3.19-.67-4.87-.69-1.68-.01-3.38,.22-5.12,.69,.35-.44,.67-.9,.95-1.37,.28-.47,.53-.96,.74-1.48,.21-.52,.39-1.05,.53-1.6,.14-.55,.26-1.12,.35-1.72,.09-.6,.17-1.22,.23-1.88,.06-.66,.09-1.35,.11-2.07,.01-.73,.02-1.49,.02-2.3s-.01-1.66-.04-2.55c-.52,.54-.98,1.13-1.39,1.78-.41,.65-.77,1.35-1.07,2.13-.3,.77-.54,1.62-.72,2.55-.18,.93-.3,1.95-.37,3.08-.33,0-.59,0-.79-.02-.2-.01-.39-.02-.56-.04-.18-.01-.36-.01-.56,0-.2,.01-.45,.05-.76,.12-.07-.4-.13-.8-.18-1.2-.05-.4-.09-.79-.14-1.18-.05-.39-.09-.77-.14-1.16-.05-.39-.11-.78-.19-1.18-.08-.4-.18-.8-.3-1.2-.12-.4-.28-.8-.47-1.2-.2-.4-.43-.81-.7-1.23-.27-.42-.59-.84-.97-1.27,0,.7,0,1.42,.02,2.14,.01,.73,.04,1.45,.07,2.16,.04,.72,.08,1.42,.14,2.13,.06,.7,.15,1.39,.26,2.06,.12,.67,.25,1.31,.4,1.93,.15,.62,.33,1.21,.54,1.76,.21,.55,.46,1.07,.74,1.55,.28,.48,.59,.9,.91,1.25-.77-.26-1.59-.46-2.46-.6-.87-.14-1.74-.21-2.62-.21s-1.75,.06-2.62,.19c-.87,.13-1.69,.33-2.46,.62,.33-.4,.62-.98,.88-1.76,.26-.77,.47-1.66,.65-2.67,.18-1.01,.31-2.1,.4-3.29,.09-1.18,.15-2.4,.16-3.64,.01-1.24-.02-2.48-.11-3.71-.08-1.23-.21-2.4-.39-3.52-.18-1.11-.4-2.13-.67-3.06C.66,1.45,.35,.67,0,.04Z"/><path class="cls-1" d="M20.34,4.22c.42,.11,1.76,.83,2.16,.86,.4,.04,.78,.06,1.16,.07,.38,0,.74,0,1.08-.04,.34-.04,.69-.07,1.03-.11,.34-.04,.67-.07,.99-.09,.32-.03,.63-.04,.95-.05,.32,0,.63,0,.95,.04,.32,.04,.63,.1,.95,.18,.72,.23,1.36,.52,1.91,.88,.55,.36,1.02,.76,1.38,1.21,.37,.45,.65,.93,.84,1.45,.19,.52,.29,1.04,.29,1.56s-.09,1.02-.26,1.52c-.18,.49-.44,.94-.8,1.34-.36,.4-.82,.76-1.37,1.05-.55,.3-1.2,.51-1.94,.63,.39,.56,.73,1.09,1.03,1.57,.3,.48,.58,.94,.83,1.36,.25,.42,.49,.81,.71,1.17,.22,.36,.44,.7,.65,1.02,.21,.32,.43,.62,.65,.9,.22,.28,.46,.54,.71,.79,.25,.25,.79,.38,1.16,.35,3.19-.27,7.34,1.33,7.71,1.53-.76-.16-8.24-.22-9.06-.75-.52-.33-1.2-.37-1.75-.39-.55-.02-1.1,.02-1.65,.11-.54,.09-1.12,.25-1.74,.47,.19-.25,.33-.52,.42-.82,.09-.3,.12-.62,.11-.95-.02-.33-.08-.69-.18-1.05-.11-.37-.24-.74-.4-1.11-.16-.37-.34-.74-.54-1.11-.2-.37-.42-.73-.65-1.07-.23-.34-.45-.67-.67-.98-.22-.31-.44-.58-.65-.83,0,.35-.01,.7-.04,1.05-.03,.35-.05,.71-.07,1.07-.02,.36-.04,.72-.05,1.07-.02,.35-.02,.7-.01,1.05,0,.35,.03,.69,.07,1.02,.04,.33,.09,.65,.17,.96,.08,.32,.19,.62,.33,.9,.14,.28,.31,.54,.5,.79-.3-.09-.58-.17-.84-.24-.26-.07-.51-.13-.75-.17-.24-.04-.47-.08-.69-.11-.22-.03-.43-.04-.65-.03-.21,0-.43,.03-.65,.05-.22,.03-.45,.06-.7,.11-.25,.04-.51,.1-.79,.16-.28,.06-.58,.14-.9,.22,.12-.07,.24-.19,.34-.36,.11-.17,.2-.38,.29-.63,.09-.25,.17-.55,.25-.88,.08-.33,.14-.69,.2-1.07,.05-.38,.1-.79,.15-1.23,.04-.44,.08-.89,.11-1.36,.03-.47,.04-.95,.05-1.45,0-.5,0-1,0-1.5,0-.5-.02-1.01-.04-1.52-.02-.51-.04-1.01-.07-1.5-.03-.49-.07-.97-.12-1.44-.05-.47-.11-.91-.16-1.34-.05-.43-.12-.83-.2-1.21-.08-.38-.16-.73-.24-1.04-.08-.32-.17-.6-.26-.84-.1-.25-1.13-1.1-1.23-1.26Zm5.73,3.97c-.07,.32-.11,.59-.13,.83-.02,.24-.02,.48-.01,.73,0,.25,.04,.52,.08,.82,.04,.3,.1,.67,.17,1.11,.69,.23,1.28,.33,1.78,.29,.5-.04,.91-.15,1.24-.33,.33-.18,.56-.43,.71-.74,.15-.31,.21-.63,.2-.96-.02-.33-.11-.65-.29-.95-.18-.3-.44-.54-.78-.74-.34-.19-.76-.31-1.25-.34-.49-.04-1.06,.06-1.71,.29Z"/><path class="cls-1" d="M47.7,.04c.61,.16,1.26,.29,1.95,.37,.69,.08,1.4,.12,2.13,.12s1.46-.04,2.2-.12c.74-.08,1.48-.21,2.23-.37-.47,.28-.86,.61-1.16,.98-.3,.37-.55,.81-.74,1.3-.19,.49-.32,1.04-.4,1.65-.08,.61-.13,1.28-.14,2.02-.01,.74,0,1.54,.04,2.41,.04,.87,.08,1.81,.14,2.83,.06,1.02,.12,2.11,.19,3.27,.07,1.16,.13,2.41,.18,3.74-.07,.35-.13,.69-.18,1-.05,.32-.11,.63-.19,.93-.08,.3-.19,.6-.32,.88-.13,.28-.29,.54-.47,.79-.19,.25-.43,.48-.72,.7-.29,.22-.64,.43-1.05,.62-.41,.19-.88,.35-1.42,.49-.54,.14-1.17,.26-1.9,.35-.82,0-1.55-.02-2.18-.07-.63-.05-1.19-.11-1.67-.18-.48-.07-.9-.15-1.25-.25-.35-.09-.66-.21-.91-.33-.26-.13-.47-.26-.63-.4-.16-.14-.31-.29-.44-.44-.13-.15-.23-.31-.32-.47-.08-.16-.17-.33-.26-.49-.16-.37-.28-.71-.33-1-.06-.29-.07-.56-.04-.81,.04-.25,.09-.48,.18-.7,.08-.22,.16-.45,.25-.69,.08-.23,.16-.49,.23-.76,.07-.27,.1-.57,.09-.91-.01-.34-.08-.73-.19-1.16-.12-.43-.3-.93-.56-1.49,.75,.42,1.42,.74,2,.97,.59,.22,1.16,.35,1.72,.37,.56,.02,1.14-.05,1.72-.21,.59-.16,1.24-.42,1.97-.77-.47,.52-.88,1-1.23,1.44-.35,.45-.64,.86-.86,1.25-.22,.39-.4,.74-.53,1.05-.13,.32-.21,.6-.25,.86-.04,.26-.03,.49,.02,.69,.05,.2,.12,.37,.23,.51,.11,.14,.24,.26,.4,.35,.16,.09,.34,.16,.53,.21,.19,.05,.39,.07,.6,.07s.43-.02,.65-.07c.22-.05,.44-.11,.65-.18,.21-.07,.42-.16,.62-.28,.2-.12,.37-.25,.53-.4,.15-.15,.29-.32,.4-.49,.12-.18,.2-.37,.25-.58,.05-.21,.06-.43,.04-.67,.02-.96,.04-1.92,.05-2.87,.01-.95,.02-1.87,.04-2.76,.01-.89,.02-1.76,.02-2.6s-.02-1.65-.05-2.43c-.04-.77-.09-1.51-.18-2.21-.08-.7-.19-1.36-.33-1.97-.14-.61-.32-1.18-.53-1.71-.21-.53-.47-.99-.77-1.39Z"/><path class="cls-1" d="M51.98,4.86c.35,.07,.76,.14,1.23,.2,.47,.06,.96,.11,1.49,.16,.53,.04,1.08,.08,1.65,.11,.57,.03,1.14,.04,1.71,.04s1.13,0,1.69-.01c.55,0,1.08-.04,1.57-.08,.49-.04,.94-.1,1.34-.17,.4-.07,.75-.15,1.03-.24-.05,.4-.01,.82,.12,1.25,.13,.43,.32,.86,.57,1.28,.25,.42,.54,.83,.9,1.23,.35,.4,.73,.76,1.13,1.09-.74-.37-1.53-.68-2.36-.94-.83-.25-1.67-.45-2.49-.59-.83-.14-1.62-.22-2.37-.24-.76-.02-1.44,.02-2.06,.11-.11,.39-.19,.72-.26,.99-.07,.27-.11,.53-.13,.76-.02,.24,0,.47,.05,.7,.05,.23,.14,.48,.26,.76,.4,.04,.79,.04,1.16,.01,.37-.03,.72-.08,1.05-.16,.33-.08,.64-.19,.92-.33,.28-.14,.53-.3,.74-.47-.25,.42-.43,.81-.57,1.17-.13,.36-.2,.73-.2,1.09s.06,.76,.17,1.19c.11,.42,.29,.91,.54,1.48-.32-.21-.66-.39-1.02-.54-.36-.15-.72-.26-1.07-.33-.35-.07-.69-.1-1.02-.09-.33,0-.62,.08-.88,.2-.02,.28-.02,.62-.01,1.03,0,.4,.03,.81,.07,1.23,.04,.41,.08,.81,.13,1.19,.05,.38,.12,.7,.21,.96,.32,0,.67-.01,1.05-.04,.39-.03,.79-.07,1.2-.13,.41-.06,.84-.14,1.29-.24,.45-.1,.89-.2,1.33-.32,.44-.11,.88-.24,1.32-.37,.44-.13,.86-.27,1.25-.41,.4-.14,.77-.29,1.12-.45,.35-.16,.67-.32,.95-.47-.62,.69-1.11,1.35-1.49,1.99-.38,.64-.65,1.24-.82,1.79-.17,.55-.22,1.05-.17,1.5,.05,.45,.2,.81,.45,1.09-.72-.19-1.38-.36-1.98-.5-.6-.14-1.15-.25-1.66-.34-.51-.09-.99-.15-1.44-.2-.45-.04-.89-.06-1.32-.05-.43,0-.87,.04-1.32,.09-.45,.05-.93,.13-1.44,.22-.51,.1-1.06,.21-1.66,.34-.6,.13-1.26,.28-1.98,.44,.11-.12,.21-.3,.32-.53,.11-.23,.2-.5,.28-.8,.08-.31,.15-.65,.22-1.02,.07-.37,.13-.77,.18-1.2,.05-.43,.1-.88,.13-1.34,.04-.47,.07-.94,.09-1.42,.03-.48,.04-.98,.05-1.49,0-.51,0-1.02,0-1.53,0-.51-.02-1.02-.04-1.52-.02-.5-.04-.99-.07-1.48-.03-.48-.07-.94-.12-1.38-.05-.44-.11-.86-.16-1.25-.05-.4-.11-.76-.17-1.09-.06-.33-.13-.63-.21-.9-.08-.26-.16-.48-.25-.66-.09-.18-.18-.3-.26-.37Z"/><path class="cls-1" d="M81.44,.04c.09,.33,.17,.64,.23,.93,.06,.29,.11,.58,.16,.86,.05,.28,.11,.56,.18,.84,.07,.28,.15,.57,.23,.88,.08,.3,.18,.62,.3,.95,.12,.33,.26,.68,.44,1.05,.18,.38,.38,.77,.62,1.2,.23,.42,.5,.88,.81,1.37-.56-.54-1.16-.98-1.79-1.32-.63-.34-1.27-.63-1.92-.86-.64-.23-1.28-.42-1.9-.54-.62-.13-1.2-.24-1.74-.33,0,.56,.06,1.19,.18,1.88,.12,.69,.28,1.43,.47,2.21,.2,.79,.44,1.61,.74,2.46,.29,.86,.62,1.72,.97,2.6,.35,.88,.73,1.76,1.14,2.64,.41,.88,.84,1.74,1.28,2.58,.44,.84,.9,1.65,1.37,2.43,.47,.77,.95,1.5,1.44,2.18-.56-.14-1.07-.25-1.53-.33-.46-.08-.88-.15-1.27-.21-.39-.06-.75-.1-1.09-.12-.34-.02-.67-.03-.98-.02-.32,.01-.63,.03-.95,.05-.32,.02-.65,.06-1,.12-.35,.06-.73,.13-1.12,.21-.4,.08-.84,.17-1.34,.26,.3-.35,.54-.76,.72-1.23,.18-.47,.3-.96,.39-1.48,.08-.52,.1-1.04,.05-1.56-.05-.53-.14-1.04-.28-1.53-.14,.16-.25,.32-.33,.46-.08,.14-.16,.27-.25,.39-.08,.12-.15,.23-.21,.33-.06,.11-.13,.21-.21,.3-.08,.09-.16,.19-.25,.28-.08,.09-.19,.18-.32,.26-.13,.08-.27,.17-.42,.26-.15,.09-.35,.19-.58,.28-.21-.09-.43-.22-.65-.37-.22-.15-.44-.35-.65-.58-.21-.23-.42-.5-.63-.79-.21-.29-.41-.62-.6-.97-.12,.4-.21,.76-.28,1.09-.07,.33-.12,.63-.16,.9-.04,.27-.04,.52-.02,.74,.02,.22,.06,.43,.11,.63,.05,.2,.1,.4,.16,.6,.06,.2,.13,.4,.23,.6,.09,.2,.19,.42,.28,.65,.09,.23,.18,.48,.25,.74-.56-.09-1.08-.18-1.56-.26-.48-.08-.93-.15-1.35-.19-.42-.05-.82-.09-1.2-.12-.38-.04-.75-.05-1.12-.05s-.76,.01-1.14,.04c-.39,.02-.8,.06-1.25,.12-.45,.06-.93,.12-1.44,.19-.52,.07-1.09,.16-1.72,.28,.66-.75,1.28-1.49,1.86-2.21,.59-.73,1.12-1.45,1.62-2.18,.49-.73,.94-1.45,1.35-2.18,.41-.73,.79-1.46,1.14-2.21,.35-.75,.67-1.51,.97-2.29,.29-.77,.56-1.56,.81-2.37s.47-1.65,.67-2.51c.2-.87,.38-1.77,.54-2.71-.33,.05-.64,.09-.93,.12-.29,.04-.57,.08-.83,.12-.26,.05-.5,.1-.74,.16-.23,.06-.48,.14-.74,.23-.26,.09-.53,.2-.81,.32-.28,.12-.59,.26-.93,.44-.34,.18-.72,.37-1.12,.6-.41,.22-.86,.49-1.35,.79,.56-.82,1.01-1.59,1.34-2.3,.33-.71,.58-1.39,.76-2.04,.18-.64,.29-1.27,.35-1.88,.06-.61,.08-1.23,.05-1.86,.66,.19,1.31,.34,1.95,.46,.64,.12,1.28,.21,1.92,.26,.63,.06,1.28,.09,1.93,.11,.66,.01,1.32,0,1.99-.02,.67-.02,1.35-.06,2.04-.12,.69-.06,1.39-.12,2.11-.19,.71-.07,1.45-.15,2.21-.25,.76-.09,1.55-.18,2.37-.25Zm-7.77,5.91c-.07,.42-.16,.88-.26,1.37-.11,.49-.23,1.01-.37,1.55-.14,.54-.29,1.08-.44,1.62-.15,.54-.3,1.06-.44,1.56-.14,.5-.27,.98-.39,1.42-.12,.45-.21,.83-.28,1.16-.07,.33-.11,.59-.12,.79-.01,.2,.02,.31,.09,.33,.02,.02,.07,.08,.14,.18,.07,.09,.16,.2,.26,.32,.11,.12,.22,.24,.33,.37,.12,.13,.23,.26,.35,.4,.12,.14,.24,.28,.37,.4,.13,.13,.25,.24,.37,.33,.12,.09,.23,.17,.33,.23,.11,.06,.19,.09,.26,.09,.3-.26,.56-.49,.76-.69,.2-.2,.38-.4,.54-.62,.16-.21,.3-.44,.42-.69,.12-.25,.23-.54,.35-.9,.05,.21,.06,.29,.05,.25-.01-.05-.05-.2-.12-.46-.07-.26-.17-.6-.3-1.02-.13-.42-.26-.9-.4-1.42-.14-.53-.29-1.09-.44-1.69-.15-.6-.3-1.19-.44-1.78-.14-.59-.26-1.15-.37-1.69-.11-.54-.19-1.02-.26-1.44Z"/><path class="cls-1" d="M82.51,4.86c.53,.16,1.02,.27,1.46,.33,.45,.06,.87,.09,1.28,.08,.4,0,.8-.05,1.2-.12,.4-.07,.81-.17,1.25-.29-.04,.35-.05,.69-.04,1,0,.32,.04,.63,.08,.95,.04,.32,.11,.63,.2,.94,.09,.31,.2,.63,.34,.98,.14,.34,.31,.7,.5,1.08,.19,.38,.42,.79,.69,1.23,.26,.44,.56,.91,.88,1.41,.33,.5,.7,1.05,1.12,1.65,0-1.16-.02-2.24-.05-3.23-.04-.99-.12-1.89-.25-2.69-.13-.8-.33-1.48-.58-2.04-.25-.56-.6-.98-1.04-1.27,.44,.12,.91,.2,1.4,.24,.49,.04,1.01,.05,1.54,.04,.54,0,1.09-.04,1.67-.09,.58-.05,1.17-.11,1.77-.18-.14,.19-.28,.42-.41,.69-.13,.26-.25,.56-.36,.88-.11,.33-.2,.67-.28,1.04s-.15,.76-.21,1.17c-.06,.41-.11,.84-.16,1.28-.04,.44-.08,.89-.11,1.36-.03,.47-.04,.93-.05,1.4,0,.47,0,.94,.01,1.41,.02,.47,.04,.95,.07,1.42,.03,.47,.06,.94,.11,1.38,.04,.45,.09,.88,.14,1.31,.05,.42,.12,.83,.2,1.23,.08,.4,.16,.76,.25,1.11,.09,.34,.18,.66,.28,.95,.1,.29,.2,.55,.3,.78,.11,.23,.22,.42,.34,.58-.18-.07-.37-.13-.58-.18-.21-.05-.44-.1-.7-.13-.25-.04-.51-.06-.78-.07-.26,0-.53,0-.8,0-.27,0-.54,.03-.8,.05-.26,.03-.52,.06-.76,.09-.25,.04-.47,.08-.69,.12-.21,.04-.4,.08-.58,.12-.05-.6-.11-1.14-.16-1.63-.05-.49-.11-.96-.17-1.4-.06-.44-.13-.85-.21-1.24-.08-.39-.17-.77-.28-1.15-.11-.38-.23-.76-.38-1.13-.15-.38-.33-.77-.54-1.19-.21-.41-.45-.86-.71-1.33-.26-.47-.57-.98-.92-1.53,.04,.88,.07,1.68,.09,2.4,.03,.72,.05,1.38,.08,1.96,.03,.59,.06,1.12,.11,1.58,.04,.47,.09,.89,.15,1.28,.05,.39,.11,.73,.17,1.04,.06,.31,.14,.59,.24,.86,.1,.26,.21,.51,.33,.75,.12,.24,.26,.48,.42,.73-.4-.19-.84-.34-1.31-.44-.47-.1-.96-.14-1.48-.14s-1.05,.05-1.61,.14c-.55,.1-1.11,.24-1.67,.44,.11-.11,.21-.25,.32-.45,.11-.19,.2-.43,.29-.7,.09-.27,.17-.58,.25-.92,.08-.34,.15-.71,.21-1.11,.06-.4,.11-.82,.16-1.27,.04-.45,.08-.91,.12-1.37,.04-.47,.06-.94,.08-1.44,.02-.49,.03-.99,.03-1.49s0-1-.01-1.5c0-.5-.03-.99-.05-1.48-.03-.48-.06-.95-.11-1.41-.04-.46-.1-.89-.16-1.31-.06-.41-.13-.8-.21-1.17-.08-.37-.16-.7-.25-1-.09-.3-.19-.57-.3-.8-.11-.24-.23-.43-.36-.57Z"/><path class="cls-1" d="M100.22,12.02c0-.2-.04-.39-.11-.57-.08-.18-.18-.34-.31-.48-.13-.14-.28-.25-.46-.33-.18-.08-.36-.12-.56-.12-.21,0-.4,.04-.58,.12-.18,.08-.33,.19-.47,.33-.13,.14-.24,.3-.32,.48-.08,.18-.11,.37-.11,.57,0,.21-.04,.4-.11,.58-.08,.18-.18,.33-.32,.47-.13,.13-.29,.24-.47,.32-.18,.08-.37,.11-.58,.11-.2,0-.39-.04-.57-.11-.18-.08-.34-.18-.47-.32-.13-.13-.23-.29-.31-.47-.08-.18-.11-.37-.11-.58,0-.41,.08-.8,.23-1.17,.15-.37,.36-.69,.63-.96,.27-.27,.58-.49,.94-.65,.36-.16,.74-.25,1.13-.25,.41,.01,.79,.1,1.14,.26,.35,.16,.66,.38,.92,.65,.26,.27,.47,.59,.62,.95,.15,.36,.23,.75,.23,1.16Zm0,.04c-.2,0-.39,.04-.56,.11-.18,.07-.33,.17-.47,.3-.13,.13-.24,.28-.33,.47-.08,.18-.12,.37-.12,.57,0,.21,.04,.41,.11,.59,.08,.18,.18,.34,.31,.47,.13,.13,.28,.24,.46,.33,.18,.08,.36,.12,.56,.12,.21,0,.4,.04,.58,.12,.18,.08,.33,.19,.47,.33,.13,.14,.24,.3,.32,.48,.08,.18,.11,.37,.11,.57-.01,.21-.06,.41-.14,.6-.08,.19-.19,.35-.33,.48-.13,.13-.29,.24-.47,.32-.18,.08-.37,.11-.58,.11-.4,0-.78-.08-1.13-.25-.36-.17-.67-.39-.93-.67-.26-.28-.47-.59-.62-.96-.15-.36-.21-.76-.2-1.18,0-.41,.08-.79,.24-1.15,.16-.36,.37-.67,.63-.93,.26-.26,.58-.47,.94-.62,.36-.15,.74-.22,1.14-.22Zm0-.04c.21,0,.4-.04,.58-.11,.18-.08,.33-.18,.47-.32,.13-.13,.24-.29,.32-.47,.08-.18,.11-.37,.11-.58s-.04-.41-.11-.59c-.08-.18-.18-.34-.32-.47-.13-.13-.29-.24-.47-.33-.18-.08-.37-.12-.58-.12-.2,0-.39-.04-.56-.11-.18-.08-.33-.18-.46-.32-.13-.13-.23-.3-.31-.48-.08-.19-.11-.39-.11-.6s.04-.41,.11-.59c.08-.18,.18-.34,.31-.47,.13-.13,.28-.24,.46-.33,.18-.08,.36-.12,.56-.12,.4,0,.78,.08,1.13,.25,.36,.16,.67,.38,.94,.65,.27,.27,.48,.59,.64,.96,.16,.37,.24,.76,.24,1.17s-.08,.81-.24,1.18c-.16,.36-.37,.68-.64,.95-.27,.27-.58,.48-.94,.63-.36,.15-.74,.23-1.13,.23Zm.04,0c0,.42,.08,.81,.23,1.18,.15,.36,.36,.68,.62,.95,.26,.27,.57,.48,.92,.63,.35,.15,.73,.23,1.14,.23s.78-.08,1.13-.24c.36-.16,.67-.37,.94-.64,.27-.27,.48-.59,.64-.95,.16-.36,.24-.75,.24-1.16-.01-.21-.06-.41-.14-.59-.08-.18-.19-.34-.33-.47-.13-.13-.29-.24-.46-.33-.17-.08-.35-.12-.55-.12-.21,0-.41,.04-.59,.12-.18,.08-.34,.19-.47,.33-.13,.14-.23,.3-.31,.48-.08,.18-.11,.37-.11,.57,0,.21-.04,.41-.11,.59-.08,.18-.18,.34-.32,.47s-.29,.24-.47,.33c-.18,.08-.37,.12-.57,.12s-.39-.04-.56-.12c-.18-.08-.33-.19-.46-.33-.13-.13-.23-.29-.31-.47-.08-.18-.11-.38-.11-.59Z"/><path class="cls-1" d="M119.71,.19c1.43,.5,.17,1,.25,1.6,.08,.6,.19,1.2,.33,1.81,.14,.61,.32,1.23,.54,1.86,.22,.63,.52,1.28,.9,1.93-.84-.56-1.71-1.01-2.58-1.34-.88-.33-1.75-.57-2.6-.72-.86-.15-1.68-.23-2.48-.23s-1.52,.06-2.18,.18c-.14,.35-.25,.69-.32,1.02-.07,.33-.12,.65-.14,.97-.02,.32-.04,.63-.04,.93s.01,.62,.04,.95c.12,0,.33,.02,.65,.07,.32,.05,.7,.06,1.14,.05,.44-.01,.93-.08,1.44-.19,.52-.12,1.03-.33,1.55-.63-.14,.45-.25,.88-.32,1.32-.07,.43-.09,.88-.07,1.34,.02,.46,.11,.91,.25,1.37,.14,.46,.34,.93,.6,1.42-.59-.35-1.11-.62-1.58-.79-.47-.18-.91-.29-1.34-.33-.42-.05-.82-.05-1.2,0-.37,.05-.77,.13-1.2,.25-.05,.98,0,1.99,.12,3.01,.13,1.02,.32,2.01,.56,2.97,.25,.96,.54,1.87,.9,2.72,.35,.86,.73,1.61,1.12,2.27-.89-.21-1.73-.37-2.53-.49-.8-.12-1.58-.18-2.34-.19-.76-.01-1.52,.04-2.29,.16-.76,.12-1.54,.29-2.34,.53,.14-.19,.28-.43,.4-.74,.13-.3,.25-.65,.35-1.04,.11-.39,.19-.81,.26-1.28,.07-.47,.14-.96,.21-1.48,.07-.52,.12-1.05,.16-1.62,.04-.56,.06-1.15,.09-1.76,.02-.61,.04-1.22,.05-1.85,.01-.62,.01-1.25,0-1.88-.01-.63-.04-1.27-.07-1.9-.04-.63-.07-1.26-.11-1.88-.04-.62-.08-1.22-.14-1.81-.06-.59-.12-1.15-.18-1.7-.06-.55-.13-1.08-.21-1.58-.08-.5-.16-.97-.25-1.39-.08-.42-.18-.81-.28-1.16-.11-.35-.21-.66-.3-.91,.75,.21,1.54,.37,2.37,.47,.83,.11,1.67,.17,2.51,.19,.84,.02,1.68,.02,2.5-.02,.82-.04,1.6-.08,2.36-.14,.75-.06,1.44-.12,2.07-.19,.63-.07,1.19-.13,1.67-.19,.48-.06,.74-.11,1.03-.09,.33,.02,.41,.06,.62,.14Z"/><path class="cls-1" d="M119.11,.07c.56,.14,1.11,.23,1.63,.28,.53,.05,1.04,.08,1.55,.09,.5,.01,.98,0,1.44-.05,.46-.05,.91-.09,1.37-.14,.46-.05,.9-.09,1.32-.12,.42-.04,.84-.06,1.27-.07,.42-.01,.84,0,1.27,.05,.42,.05,.84,.13,1.27,.25,.96,.3,1.81,.7,2.55,1.17,.74,.48,1.35,1.02,1.85,1.61,.49,.6,.87,1.24,1.12,1.93,.26,.69,.39,1.38,.39,2.07s-.12,1.36-.35,2.02c-.23,.65-.59,1.25-1.07,1.79-.48,.54-1.09,1.01-1.83,1.4-.74,.4-1.6,.68-2.58,.84,.52,.75,.97,1.44,1.37,2.09,.4,.64,.77,1.25,1.11,1.81,.34,.56,.66,1.08,.95,1.56,.29,.48,.58,.93,.86,1.35,.28,.42,.57,.82,.86,1.19,.29,.37,.61,.72,.95,1.05,.34,.33,.71,.64,1.11,.93,.4,.29,.84,.57,1.34,.82-1.01-.21-1.92-.39-2.72-.53-.81-.14-1.58-.22-2.32-.25-.74-.02-1.47,.02-2.2,.14-.73,.12-1.5,.33-2.32,.63,.26-.33,.44-.69,.56-1.09,.12-.4,.16-.82,.14-1.26-.02-.44-.11-.91-.25-1.4-.14-.49-.32-.98-.53-1.47-.21-.49-.45-.98-.72-1.47-.27-.49-.56-.96-.86-1.42-.3-.46-.6-.89-.9-1.3-.29-.41-.58-.78-.86-1.1,0,.47-.02,.94-.05,1.4-.04,.47-.06,.94-.09,1.42-.02,.48-.05,.95-.07,1.42-.02,.47-.03,.94-.02,1.4,.01,.47,.04,.92,.09,1.35,.05,.43,.12,.86,.23,1.28,.11,.42,.25,.82,.44,1.19,.19,.37,.41,.72,.67,1.05-.4-.12-.77-.22-1.12-.32-.35-.09-.69-.17-1-.23-.32-.06-.62-.11-.91-.14-.29-.04-.58-.05-.86-.04-.28,.01-.57,.04-.86,.07-.29,.04-.6,.08-.93,.14-.33,.06-.68,.13-1.05,.21-.37,.08-.77,.18-1.2,.3,.16-.09,.32-.25,.46-.47,.14-.22,.27-.5,.39-.84,.12-.34,.23-.73,.33-1.17,.11-.44,.19-.92,.26-1.42,.07-.5,.13-1.05,.19-1.63,.06-.58,.11-1.19,.14-1.81,.04-.62,.06-1.26,.07-1.93,.01-.67,.01-1.33,0-2-.01-.67-.03-1.34-.05-2.02-.02-.68-.05-1.34-.09-2-.04-.65-.09-1.29-.16-1.91-.07-.62-.14-1.22-.21-1.79-.07-.57-.16-1.11-.26-1.61-.11-.5-.21-.96-.32-1.39-.11-.42-.22-.79-.35-1.12-.13-.33-.26-.6-.4-.81Zm6.4,4.42c-.09,.42-.15,.79-.18,1.1-.02,.32-.03,.64-.02,.96,.01,.33,.05,.69,.11,1.09,.06,.4,.13,.89,.23,1.47,.91,.3,1.71,.43,2.37,.39,.67-.05,1.22-.19,1.65-.44,.43-.25,.75-.57,.95-.98,.2-.41,.29-.84,.26-1.28-.02-.44-.15-.86-.39-1.26-.23-.4-.58-.72-1.04-.98-.46-.26-1.01-.41-1.67-.46-.66-.05-1.42,.08-2.29,.39Z"/><path class="cls-1" d="M135.38,4.87c.35,.07,.76,.14,1.23,.2,.47,.06,.96,.11,1.49,.16,.53,.04,1.08,.08,1.65,.11,.57,.03,1.14,.04,1.71,.04s1.13,0,1.69-.01c.55,0,1.08-.04,1.57-.08,.49-.04,.94-.1,1.34-.17,.4-.07,.75-.15,1.03-.24-.05,.4-.01,.82,.12,1.25,.13,.43,.32,.86,.57,1.28,.25,.42,.54,.83,.9,1.23,.35,.4,1.81,1.37,2.21,1.7-.74-.37-2.6-1.29-3.44-1.54-.83-.25-1.67-.45-2.49-.59-.83-.14-1.62-.22-2.37-.24-.76-.02-1.44,.02-2.06,.11-.11,.39-.19,.72-.26,.99-.07,.27-.11,.53-.13,.76-.02,.24,0,.47,.05,.7,.05,.23,.14,.48,.26,.76,.4,.04,.79,.04,1.16,.01,.37-.03,.72-.08,1.05-.16,.33-.08,.64-.19,.92-.33,.28-.14,.53-.3,.74-.47-.25,.42-.44,.81-.57,1.17-.13,.36-.2,.73-.2,1.09s.06,.76,.17,1.19c.11,.42,.29,.91,.54,1.48-.32-.21-.66-.39-1.02-.54-.36-.15-.72-.26-1.07-.33-.35-.07-.69-.1-1.02-.09-.33,0-.62,.08-.88,.2-.02,.28-.02,.62-.01,1.03,0,.4,.03,.81,.07,1.23,.04,.41,.08,.81,.13,1.19,.05,.38,.12,.7,.21,.96,.32,0,.67-.01,1.05-.04,.39-.03,.79-.07,1.2-.13,.41-.06,.84-.14,1.29-.24,.45-.1,.89-.2,1.33-.32,.44-.11,.88-.24,1.32-.37,.44-.13,.86-.27,1.25-.41,.4-.14,.77-.29,1.12-.45,.35-.16,1-.63,1.29-.79-.62,.69-1.45,1.66-1.83,2.31-.38,.64-.65,1.24-.82,1.79-.17,.55-.22,1.05-.17,1.5,.05,.45,.79,1.14,1.04,1.42-.72-.19-1.97-.68-2.57-.82-.6-.14-1.15-.25-1.66-.34-.51-.09-.99-.15-1.44-.2-.45-.04-.89-.06-1.32-.05-.43,0-.87,.04-1.32,.09-.45,.05-.93,.13-1.44,.22-.51,.1-1.06,.21-1.66,.34-.6,.13-1.26,.28-1.98,.44,.11-.12,.21-.3,.32-.53,.11-.23,.2-.5,.28-.8,.08-.31,.15-.65,.22-1.02,.07-.37,.13-.77,.18-1.2,.05-.43,.1-.88,.13-1.34,.04-.47,.07-.94,.09-1.42,.03-.48,.04-.98,.05-1.49,0-.51,0-1.02,0-1.53,0-.51-.02-1.02-.04-1.52-.02-.5-.04-.99-.07-1.48-.03-.48-.07-.94-.12-1.38-.05-.44-.11-.86-.16-1.25-.05-.4-.11-.76-.17-1.09-.06-.33-.13-.63-.21-.9-.08-.26-.16-.48-.25-.66-.09-.18-.18-.3-.26-.37Z"/><path class="cls-1" d="M159.85,.2c.61,.05,1.22,.14,1.83,.26,.61,.13,1.21,.31,1.81,.54,.6,.23,1.17,.52,1.72,.84,.55,.33,1.07,.72,1.55,1.18,.48,.46,.92,.98,1.32,1.56,.4,.59,.73,1.24,1,1.97,.27,.73,.48,1.52,.63,2.39,.15,.87,.22,1.82,.19,2.85,.02,1.22-.02,2.32-.14,3.3-.12,.98-.3,1.86-.54,2.64s-.56,1.45-.93,2.04c-.37,.59-.8,1.09-1.27,1.51-.47,.42-.98,.77-1.55,1.05-.56,.28-1.17,.52-1.81,.72-.64,.2-1.32,.36-2.04,.47-.72,.12-1.45,.21-2.2,.28-.94,.09-1.77,.15-2.5,.18-.73,.02-1.38,.04-1.95,.04s-1.09-.02-1.55-.05c-.46-.04-.88-.07-1.27-.11-.39-.04-.76-.07-1.11-.11-.35-.04-.71-.05-1.07-.05s-.75,.02-1.16,.07c-.41,.05-.86,.12-1.35,.21,.16-.09,.33-.26,.51-.49,.18-.23,.34-.52,.49-.86,.15-.34,.29-.73,.42-1.18,.13-.44,.25-.93,.37-1.46,.12-.53,.22-1.09,.32-1.69,.09-.6,.18-1.22,.25-1.86,.07-.64,.13-1.3,.18-1.97,.05-.67,.08-1.34,.11-2.02,.02-.68,.03-1.36,.02-2.04-.01-.68-.04-1.35-.07-2-.04-.66-.09-1.3-.16-1.93-.07-.63-.16-1.23-.28-1.79-.12-.56-.25-1.09-.39-1.58-.14-.49-.3-.94-.47-1.34-.18-.4-.37-.75-.6-1.05-.22-.3-.46-.54-.72-.7,.77,.12,1.43,.2,1.97,.25,.54,.05,1,.07,1.39,.07s.73-.01,1.04-.04c.3-.02,.61-.05,.91-.09,.3-.04,.64-.07,1.02-.11,.37-.04,.83-.06,1.37-.09,.54-.02,1.19-.02,1.95,0,.76,.02,1.68,.08,2.76,.18Zm-3.45,19.55c.68,.12,1.32,.15,1.92,.11,.6-.05,1.15-.16,1.65-.33,.5-.18,.95-.4,1.35-.69,.4-.28,.76-.61,1.09-.98,.33-.37,.61-.78,.84-1.21,.23-.43,.43-.9,.58-1.39,.15-.49,.26-1,.32-1.51,.06-.52,.08-1.03,.07-1.55-.01-.52-.07-1.02-.18-1.53-.11-.5-.25-.99-.42-1.46-.18-.47-.39-.91-.65-1.34-.26-.42-.55-.8-.88-1.14-.33-.34-.69-.64-1.09-.9-.4-.26-.84-.45-1.32-.58-.48-.13-1-.19-1.55-.19s-1.13,.08-1.74,.25c-.21,.21-.39,.5-.54,.86-.15,.36-.28,.79-.39,1.28-.11,.49-.18,1.05-.23,1.67-.05,.62-.07,1.27-.07,1.95s.02,1.39,.07,2.13c.05,.74,.12,1.48,.23,2.23,.11,.75,.23,1.49,.39,2.21,.15,.73,.33,1.43,.54,2.11Z"/></svg>