%TF.GenerationSoftware,KiCad,Pcbnew,8.0.3*%
%TF.CreationDate,2024-06-20T16:00:29+02:00*%
%TF.ProjectId,adapter 8913-8910 long board reverse on air,61646170-7465-4722-9038-3931332d3839,rev?*%
%TF.SameCoordinates,Original*%
%TF.FileFunction,Legend,Bot*%
%TF.FilePolarity,Positive*%
%FSLAX46Y46*%
G04 Gerber Fmt 4.6, Leading zero omitted, Abs format (unit mm)*
G04 Created by KiCad (PCBNEW 8.0.3) date 2024-06-20 16:00:29*
%MOMM*%
%LPD*%
G01*
G04 APERTURE LIST*
%ADD10C,0.200000*%
%ADD11C,0.150000*%
%ADD12C,0.120000*%
G04 APERTURE END LIST*
D10*
X167900000Y-61500000D02*
X166900000Y-61000000D01*
X167900000Y-60500000D01*
X167900000Y-61500000D01*
G36*
X167900000Y-61500000D02*
G01*
X166900000Y-61000000D01*
X167900000Y-60500000D01*
X167900000Y-61500000D01*
G37*
X178600000Y-88900000D02*
X177600000Y-89400000D01*
X177600000Y-88400000D01*
X178600000Y-88900000D01*
G36*
X178600000Y-88900000D02*
G01*
X177600000Y-89400000D01*
X177600000Y-88400000D01*
X178600000Y-88900000D01*
G37*
D11*
X173471904Y-67259875D02*
X173471904Y-68069398D01*
X173471904Y-68069398D02*
X173424285Y-68164636D01*
X173424285Y-68164636D02*
X173376666Y-68212256D01*
X173376666Y-68212256D02*
X173281428Y-68259875D01*
X173281428Y-68259875D02*
X173090952Y-68259875D01*
X173090952Y-68259875D02*
X172995714Y-68212256D01*
X172995714Y-68212256D02*
X172948095Y-68164636D01*
X172948095Y-68164636D02*
X172900476Y-68069398D01*
X172900476Y-68069398D02*
X172900476Y-67259875D01*
X172471904Y-67355113D02*
X172424285Y-67307494D01*
X172424285Y-67307494D02*
X172329047Y-67259875D01*
X172329047Y-67259875D02*
X172090952Y-67259875D01*
X172090952Y-67259875D02*
X171995714Y-67307494D01*
X171995714Y-67307494D02*
X171948095Y-67355113D01*
X171948095Y-67355113D02*
X171900476Y-67450351D01*
X171900476Y-67450351D02*
X171900476Y-67545589D01*
X171900476Y-67545589D02*
X171948095Y-67688446D01*
X171948095Y-67688446D02*
X172519523Y-68259875D01*
X172519523Y-68259875D02*
X171900476Y-68259875D01*
X174233809Y-69298390D02*
X174329047Y-69250771D01*
X174329047Y-69250771D02*
X174376666Y-69203152D01*
X174376666Y-69203152D02*
X174424285Y-69107914D01*
X174424285Y-69107914D02*
X174424285Y-69060295D01*
X174424285Y-69060295D02*
X174376666Y-68965057D01*
X174376666Y-68965057D02*
X174329047Y-68917438D01*
X174329047Y-68917438D02*
X174233809Y-68869819D01*
X174233809Y-68869819D02*
X174043333Y-68869819D01*
X174043333Y-68869819D02*
X173948095Y-68917438D01*
X173948095Y-68917438D02*
X173900476Y-68965057D01*
X173900476Y-68965057D02*
X173852857Y-69060295D01*
X173852857Y-69060295D02*
X173852857Y-69107914D01*
X173852857Y-69107914D02*
X173900476Y-69203152D01*
X173900476Y-69203152D02*
X173948095Y-69250771D01*
X173948095Y-69250771D02*
X174043333Y-69298390D01*
X174043333Y-69298390D02*
X174233809Y-69298390D01*
X174233809Y-69298390D02*
X174329047Y-69346009D01*
X174329047Y-69346009D02*
X174376666Y-69393628D01*
X174376666Y-69393628D02*
X174424285Y-69488866D01*
X174424285Y-69488866D02*
X174424285Y-69679342D01*
X174424285Y-69679342D02*
X174376666Y-69774580D01*
X174376666Y-69774580D02*
X174329047Y-69822200D01*
X174329047Y-69822200D02*
X174233809Y-69869819D01*
X174233809Y-69869819D02*
X174043333Y-69869819D01*
X174043333Y-69869819D02*
X173948095Y-69822200D01*
X173948095Y-69822200D02*
X173900476Y-69774580D01*
X173900476Y-69774580D02*
X173852857Y-69679342D01*
X173852857Y-69679342D02*
X173852857Y-69488866D01*
X173852857Y-69488866D02*
X173900476Y-69393628D01*
X173900476Y-69393628D02*
X173948095Y-69346009D01*
X173948095Y-69346009D02*
X174043333Y-69298390D01*
X173376666Y-69869819D02*
X173186190Y-69869819D01*
X173186190Y-69869819D02*
X173090952Y-69822200D01*
X173090952Y-69822200D02*
X173043333Y-69774580D01*
X173043333Y-69774580D02*
X172948095Y-69631723D01*
X172948095Y-69631723D02*
X172900476Y-69441247D01*
X172900476Y-69441247D02*
X172900476Y-69060295D01*
X172900476Y-69060295D02*
X172948095Y-68965057D01*
X172948095Y-68965057D02*
X172995714Y-68917438D01*
X172995714Y-68917438D02*
X173090952Y-68869819D01*
X173090952Y-68869819D02*
X173281428Y-68869819D01*
X173281428Y-68869819D02*
X173376666Y-68917438D01*
X173376666Y-68917438D02*
X173424285Y-68965057D01*
X173424285Y-68965057D02*
X173471904Y-69060295D01*
X173471904Y-69060295D02*
X173471904Y-69298390D01*
X173471904Y-69298390D02*
X173424285Y-69393628D01*
X173424285Y-69393628D02*
X173376666Y-69441247D01*
X173376666Y-69441247D02*
X173281428Y-69488866D01*
X173281428Y-69488866D02*
X173090952Y-69488866D01*
X173090952Y-69488866D02*
X172995714Y-69441247D01*
X172995714Y-69441247D02*
X172948095Y-69393628D01*
X172948095Y-69393628D02*
X172900476Y-69298390D01*
X171948095Y-69869819D02*
X172519523Y-69869819D01*
X172233809Y-69869819D02*
X172233809Y-68869819D01*
X172233809Y-68869819D02*
X172329047Y-69012676D01*
X172329047Y-69012676D02*
X172424285Y-69107914D01*
X172424285Y-69107914D02*
X172519523Y-69155533D01*
X171614761Y-68869819D02*
X170995714Y-68869819D01*
X170995714Y-68869819D02*
X171329047Y-69250771D01*
X171329047Y-69250771D02*
X171186190Y-69250771D01*
X171186190Y-69250771D02*
X171090952Y-69298390D01*
X171090952Y-69298390D02*
X171043333Y-69346009D01*
X171043333Y-69346009D02*
X170995714Y-69441247D01*
X170995714Y-69441247D02*
X170995714Y-69679342D01*
X170995714Y-69679342D02*
X171043333Y-69774580D01*
X171043333Y-69774580D02*
X171090952Y-69822200D01*
X171090952Y-69822200D02*
X171186190Y-69869819D01*
X171186190Y-69869819D02*
X171471904Y-69869819D01*
X171471904Y-69869819D02*
X171567142Y-69822200D01*
X171567142Y-69822200D02*
X171614761Y-69774580D01*
X175939411Y-88329819D02*
X176510839Y-88329819D01*
X176225125Y-88329819D02*
X176225125Y-87329819D01*
X176225125Y-87329819D02*
X176320363Y-87472676D01*
X176320363Y-87472676D02*
X176415601Y-87567914D01*
X176415601Y-87567914D02*
X176510839Y-87615533D01*
X175225125Y-88710771D02*
X175272744Y-88663152D01*
X175272744Y-88663152D02*
X175367982Y-88520295D01*
X175367982Y-88520295D02*
X175415601Y-88425057D01*
X175415601Y-88425057D02*
X175463220Y-88282200D01*
X175463220Y-88282200D02*
X175510839Y-88044104D01*
X175510839Y-88044104D02*
X175510839Y-87853628D01*
X175510839Y-87853628D02*
X175463220Y-87615533D01*
X175463220Y-87615533D02*
X175415601Y-87472676D01*
X175415601Y-87472676D02*
X175367982Y-87377438D01*
X175367982Y-87377438D02*
X175272744Y-87234580D01*
X175272744Y-87234580D02*
X175225125Y-87186961D01*
X174320363Y-87377438D02*
X174415601Y-87329819D01*
X174415601Y-87329819D02*
X174558458Y-87329819D01*
X174558458Y-87329819D02*
X174701315Y-87377438D01*
X174701315Y-87377438D02*
X174796553Y-87472676D01*
X174796553Y-87472676D02*
X174844172Y-87567914D01*
X174844172Y-87567914D02*
X174891791Y-87758390D01*
X174891791Y-87758390D02*
X174891791Y-87901247D01*
X174891791Y-87901247D02*
X174844172Y-88091723D01*
X174844172Y-88091723D02*
X174796553Y-88186961D01*
X174796553Y-88186961D02*
X174701315Y-88282200D01*
X174701315Y-88282200D02*
X174558458Y-88329819D01*
X174558458Y-88329819D02*
X174463220Y-88329819D01*
X174463220Y-88329819D02*
X174320363Y-88282200D01*
X174320363Y-88282200D02*
X174272744Y-88234580D01*
X174272744Y-88234580D02*
X174272744Y-87901247D01*
X174272744Y-87901247D02*
X174463220Y-87901247D01*
X173844172Y-88329819D02*
X173844172Y-87329819D01*
X173844172Y-87329819D02*
X173272744Y-88329819D01*
X173272744Y-88329819D02*
X173272744Y-87329819D01*
X172796553Y-88329819D02*
X172796553Y-87329819D01*
X172796553Y-87329819D02*
X172558458Y-87329819D01*
X172558458Y-87329819D02*
X172415601Y-87377438D01*
X172415601Y-87377438D02*
X172320363Y-87472676D01*
X172320363Y-87472676D02*
X172272744Y-87567914D01*
X172272744Y-87567914D02*
X172225125Y-87758390D01*
X172225125Y-87758390D02*
X172225125Y-87901247D01*
X172225125Y-87901247D02*
X172272744Y-88091723D01*
X172272744Y-88091723D02*
X172320363Y-88186961D01*
X172320363Y-88186961D02*
X172415601Y-88282200D01*
X172415601Y-88282200D02*
X172558458Y-88329819D01*
X172558458Y-88329819D02*
X172796553Y-88329819D01*
X171891791Y-88710771D02*
X171844172Y-88663152D01*
X171844172Y-88663152D02*
X171748934Y-88520295D01*
X171748934Y-88520295D02*
X171701315Y-88425057D01*
X171701315Y-88425057D02*
X171653696Y-88282200D01*
X171653696Y-88282200D02*
X171606077Y-88044104D01*
X171606077Y-88044104D02*
X171606077Y-87853628D01*
X171606077Y-87853628D02*
X171653696Y-87615533D01*
X171653696Y-87615533D02*
X171701315Y-87472676D01*
X171701315Y-87472676D02*
X171748934Y-87377438D01*
X171748934Y-87377438D02*
X171844172Y-87234580D01*
X171844172Y-87234580D02*
X171891791Y-87186961D01*
X174215615Y-143580839D02*
X174215615Y-143104649D01*
X173929900Y-143676077D02*
X174929900Y-143342744D01*
X174929900Y-143342744D02*
X173929900Y-143009411D01*
X174453710Y-141914172D02*
X174453710Y-141152268D01*
X174167996Y-141152268D02*
X174167996Y-141914172D01*
X173977520Y-139485601D02*
X173929900Y-139580839D01*
X173929900Y-139580839D02*
X173929900Y-139771315D01*
X173929900Y-139771315D02*
X173977520Y-139866553D01*
X173977520Y-139866553D02*
X174025139Y-139914172D01*
X174025139Y-139914172D02*
X174120377Y-139961791D01*
X174120377Y-139961791D02*
X174406091Y-139961791D01*
X174406091Y-139961791D02*
X174501329Y-139914172D01*
X174501329Y-139914172D02*
X174548948Y-139866553D01*
X174548948Y-139866553D02*
X174596567Y-139771315D01*
X174596567Y-139771315D02*
X174596567Y-139580839D01*
X174596567Y-139580839D02*
X174548948Y-139485601D01*
X173929900Y-139057029D02*
X174929900Y-139057029D01*
X173929900Y-138628458D02*
X174453710Y-138628458D01*
X174453710Y-138628458D02*
X174548948Y-138676077D01*
X174548948Y-138676077D02*
X174596567Y-138771315D01*
X174596567Y-138771315D02*
X174596567Y-138914172D01*
X174596567Y-138914172D02*
X174548948Y-139009410D01*
X174548948Y-139009410D02*
X174501329Y-139057029D01*
X173929900Y-137723696D02*
X174453710Y-137723696D01*
X174453710Y-137723696D02*
X174548948Y-137771315D01*
X174548948Y-137771315D02*
X174596567Y-137866553D01*
X174596567Y-137866553D02*
X174596567Y-138057029D01*
X174596567Y-138057029D02*
X174548948Y-138152267D01*
X173977520Y-137723696D02*
X173929900Y-137818934D01*
X173929900Y-137818934D02*
X173929900Y-138057029D01*
X173929900Y-138057029D02*
X173977520Y-138152267D01*
X173977520Y-138152267D02*
X174072758Y-138199886D01*
X174072758Y-138199886D02*
X174167996Y-138199886D01*
X174167996Y-138199886D02*
X174263234Y-138152267D01*
X174263234Y-138152267D02*
X174310853Y-138057029D01*
X174310853Y-138057029D02*
X174310853Y-137818934D01*
X174310853Y-137818934D02*
X174358472Y-137723696D01*
X174596567Y-137247505D02*
X173929900Y-137247505D01*
X174501329Y-137247505D02*
X174548948Y-137199886D01*
X174548948Y-137199886D02*
X174596567Y-137104648D01*
X174596567Y-137104648D02*
X174596567Y-136961791D01*
X174596567Y-136961791D02*
X174548948Y-136866553D01*
X174548948Y-136866553D02*
X174453710Y-136818934D01*
X174453710Y-136818934D02*
X173929900Y-136818934D01*
X174596567Y-136342743D02*
X173929900Y-136342743D01*
X174501329Y-136342743D02*
X174548948Y-136295124D01*
X174548948Y-136295124D02*
X174596567Y-136199886D01*
X174596567Y-136199886D02*
X174596567Y-136057029D01*
X174596567Y-136057029D02*
X174548948Y-135961791D01*
X174548948Y-135961791D02*
X174453710Y-135914172D01*
X174453710Y-135914172D02*
X173929900Y-135914172D01*
X173977520Y-135057029D02*
X173929900Y-135152267D01*
X173929900Y-135152267D02*
X173929900Y-135342743D01*
X173929900Y-135342743D02*
X173977520Y-135437981D01*
X173977520Y-135437981D02*
X174072758Y-135485600D01*
X174072758Y-135485600D02*
X174453710Y-135485600D01*
X174453710Y-135485600D02*
X174548948Y-135437981D01*
X174548948Y-135437981D02*
X174596567Y-135342743D01*
X174596567Y-135342743D02*
X174596567Y-135152267D01*
X174596567Y-135152267D02*
X174548948Y-135057029D01*
X174548948Y-135057029D02*
X174453710Y-135009410D01*
X174453710Y-135009410D02*
X174358472Y-135009410D01*
X174358472Y-135009410D02*
X174263234Y-135485600D01*
X173929900Y-134437981D02*
X173977520Y-134533219D01*
X173977520Y-134533219D02*
X174072758Y-134580838D01*
X174072758Y-134580838D02*
X174929900Y-134580838D01*
X174215615Y-133342742D02*
X174215615Y-132866552D01*
X173929900Y-133437980D02*
X174929900Y-133104647D01*
X174929900Y-133104647D02*
X173929900Y-132771314D01*
X172843766Y-143199887D02*
X172796147Y-143057030D01*
X172796147Y-143057030D02*
X172748528Y-143009411D01*
X172748528Y-143009411D02*
X172653290Y-142961792D01*
X172653290Y-142961792D02*
X172510433Y-142961792D01*
X172510433Y-142961792D02*
X172415195Y-143009411D01*
X172415195Y-143009411D02*
X172367576Y-143057030D01*
X172367576Y-143057030D02*
X172319956Y-143152268D01*
X172319956Y-143152268D02*
X172319956Y-143533220D01*
X172319956Y-143533220D02*
X173319956Y-143533220D01*
X173319956Y-143533220D02*
X173319956Y-143199887D01*
X173319956Y-143199887D02*
X173272337Y-143104649D01*
X173272337Y-143104649D02*
X173224718Y-143057030D01*
X173224718Y-143057030D02*
X173129480Y-143009411D01*
X173129480Y-143009411D02*
X173034242Y-143009411D01*
X173034242Y-143009411D02*
X172939004Y-143057030D01*
X172939004Y-143057030D02*
X172891385Y-143104649D01*
X172891385Y-143104649D02*
X172843766Y-143199887D01*
X172843766Y-143199887D02*
X172843766Y-143533220D01*
X172843766Y-141771315D02*
X172843766Y-141009411D01*
X172558052Y-141009411D02*
X172558052Y-141771315D01*
X172367576Y-139342744D02*
X172319956Y-139437982D01*
X172319956Y-139437982D02*
X172319956Y-139628458D01*
X172319956Y-139628458D02*
X172367576Y-139723696D01*
X172367576Y-139723696D02*
X172415195Y-139771315D01*
X172415195Y-139771315D02*
X172510433Y-139818934D01*
X172510433Y-139818934D02*
X172796147Y-139818934D01*
X172796147Y-139818934D02*
X172891385Y-139771315D01*
X172891385Y-139771315D02*
X172939004Y-139723696D01*
X172939004Y-139723696D02*
X172986623Y-139628458D01*
X172986623Y-139628458D02*
X172986623Y-139437982D01*
X172986623Y-139437982D02*
X172939004Y-139342744D01*
X172319956Y-138914172D02*
X173319956Y-138914172D01*
X172319956Y-138485601D02*
X172843766Y-138485601D01*
X172843766Y-138485601D02*
X172939004Y-138533220D01*
X172939004Y-138533220D02*
X172986623Y-138628458D01*
X172986623Y-138628458D02*
X172986623Y-138771315D01*
X172986623Y-138771315D02*
X172939004Y-138866553D01*
X172939004Y-138866553D02*
X172891385Y-138914172D01*
X172319956Y-137580839D02*
X172843766Y-137580839D01*
X172843766Y-137580839D02*
X172939004Y-137628458D01*
X172939004Y-137628458D02*
X172986623Y-137723696D01*
X172986623Y-137723696D02*
X172986623Y-137914172D01*
X172986623Y-137914172D02*
X172939004Y-138009410D01*
X172367576Y-137580839D02*
X172319956Y-137676077D01*
X172319956Y-137676077D02*
X172319956Y-137914172D01*
X172319956Y-137914172D02*
X172367576Y-138009410D01*
X172367576Y-138009410D02*
X172462814Y-138057029D01*
X172462814Y-138057029D02*
X172558052Y-138057029D01*
X172558052Y-138057029D02*
X172653290Y-138009410D01*
X172653290Y-138009410D02*
X172700909Y-137914172D01*
X172700909Y-137914172D02*
X172700909Y-137676077D01*
X172700909Y-137676077D02*
X172748528Y-137580839D01*
X172986623Y-137104648D02*
X172319956Y-137104648D01*
X172891385Y-137104648D02*
X172939004Y-137057029D01*
X172939004Y-137057029D02*
X172986623Y-136961791D01*
X172986623Y-136961791D02*
X172986623Y-136818934D01*
X172986623Y-136818934D02*
X172939004Y-136723696D01*
X172939004Y-136723696D02*
X172843766Y-136676077D01*
X172843766Y-136676077D02*
X172319956Y-136676077D01*
X172986623Y-136199886D02*
X172319956Y-136199886D01*
X172891385Y-136199886D02*
X172939004Y-136152267D01*
X172939004Y-136152267D02*
X172986623Y-136057029D01*
X172986623Y-136057029D02*
X172986623Y-135914172D01*
X172986623Y-135914172D02*
X172939004Y-135818934D01*
X172939004Y-135818934D02*
X172843766Y-135771315D01*
X172843766Y-135771315D02*
X172319956Y-135771315D01*
X172367576Y-134914172D02*
X172319956Y-135009410D01*
X172319956Y-135009410D02*
X172319956Y-135199886D01*
X172319956Y-135199886D02*
X172367576Y-135295124D01*
X172367576Y-135295124D02*
X172462814Y-135342743D01*
X172462814Y-135342743D02*
X172843766Y-135342743D01*
X172843766Y-135342743D02*
X172939004Y-135295124D01*
X172939004Y-135295124D02*
X172986623Y-135199886D01*
X172986623Y-135199886D02*
X172986623Y-135009410D01*
X172986623Y-135009410D02*
X172939004Y-134914172D01*
X172939004Y-134914172D02*
X172843766Y-134866553D01*
X172843766Y-134866553D02*
X172748528Y-134866553D01*
X172748528Y-134866553D02*
X172653290Y-135342743D01*
X172319956Y-134295124D02*
X172367576Y-134390362D01*
X172367576Y-134390362D02*
X172462814Y-134437981D01*
X172462814Y-134437981D02*
X173319956Y-134437981D01*
X172843766Y-132818933D02*
X172796147Y-132676076D01*
X172796147Y-132676076D02*
X172748528Y-132628457D01*
X172748528Y-132628457D02*
X172653290Y-132580838D01*
X172653290Y-132580838D02*
X172510433Y-132580838D01*
X172510433Y-132580838D02*
X172415195Y-132628457D01*
X172415195Y-132628457D02*
X172367576Y-132676076D01*
X172367576Y-132676076D02*
X172319956Y-132771314D01*
X172319956Y-132771314D02*
X172319956Y-133152266D01*
X172319956Y-133152266D02*
X173319956Y-133152266D01*
X173319956Y-133152266D02*
X173319956Y-132818933D01*
X173319956Y-132818933D02*
X173272337Y-132723695D01*
X173272337Y-132723695D02*
X173224718Y-132676076D01*
X173224718Y-132676076D02*
X173129480Y-132628457D01*
X173129480Y-132628457D02*
X173034242Y-132628457D01*
X173034242Y-132628457D02*
X172939004Y-132676076D01*
X172939004Y-132676076D02*
X172891385Y-132723695D01*
X172891385Y-132723695D02*
X172843766Y-132818933D01*
X172843766Y-132818933D02*
X172843766Y-133152266D01*
X170805251Y-142961792D02*
X170757632Y-143009411D01*
X170757632Y-143009411D02*
X170710012Y-143152268D01*
X170710012Y-143152268D02*
X170710012Y-143247506D01*
X170710012Y-143247506D02*
X170757632Y-143390363D01*
X170757632Y-143390363D02*
X170852870Y-143485601D01*
X170852870Y-143485601D02*
X170948108Y-143533220D01*
X170948108Y-143533220D02*
X171138584Y-143580839D01*
X171138584Y-143580839D02*
X171281441Y-143580839D01*
X171281441Y-143580839D02*
X171471917Y-143533220D01*
X171471917Y-143533220D02*
X171567155Y-143485601D01*
X171567155Y-143485601D02*
X171662393Y-143390363D01*
X171662393Y-143390363D02*
X171710012Y-143247506D01*
X171710012Y-143247506D02*
X171710012Y-143152268D01*
X171710012Y-143152268D02*
X171662393Y-143009411D01*
X171662393Y-143009411D02*
X171614774Y-142961792D01*
X171233822Y-141771315D02*
X171233822Y-141009411D01*
X170948108Y-141009411D02*
X170948108Y-141771315D01*
X170757632Y-139342744D02*
X170710012Y-139437982D01*
X170710012Y-139437982D02*
X170710012Y-139628458D01*
X170710012Y-139628458D02*
X170757632Y-139723696D01*
X170757632Y-139723696D02*
X170805251Y-139771315D01*
X170805251Y-139771315D02*
X170900489Y-139818934D01*
X170900489Y-139818934D02*
X171186203Y-139818934D01*
X171186203Y-139818934D02*
X171281441Y-139771315D01*
X171281441Y-139771315D02*
X171329060Y-139723696D01*
X171329060Y-139723696D02*
X171376679Y-139628458D01*
X171376679Y-139628458D02*
X171376679Y-139437982D01*
X171376679Y-139437982D02*
X171329060Y-139342744D01*
X170710012Y-138914172D02*
X171710012Y-138914172D01*
X170710012Y-138485601D02*
X171233822Y-138485601D01*
X171233822Y-138485601D02*
X171329060Y-138533220D01*
X171329060Y-138533220D02*
X171376679Y-138628458D01*
X171376679Y-138628458D02*
X171376679Y-138771315D01*
X171376679Y-138771315D02*
X171329060Y-138866553D01*
X171329060Y-138866553D02*
X171281441Y-138914172D01*
X170710012Y-137580839D02*
X171233822Y-137580839D01*
X171233822Y-137580839D02*
X171329060Y-137628458D01*
X171329060Y-137628458D02*
X171376679Y-137723696D01*
X171376679Y-137723696D02*
X171376679Y-137914172D01*
X171376679Y-137914172D02*
X171329060Y-138009410D01*
X170757632Y-137580839D02*
X170710012Y-137676077D01*
X170710012Y-137676077D02*
X170710012Y-137914172D01*
X170710012Y-137914172D02*
X170757632Y-138009410D01*
X170757632Y-138009410D02*
X170852870Y-138057029D01*
X170852870Y-138057029D02*
X170948108Y-138057029D01*
X170948108Y-138057029D02*
X171043346Y-138009410D01*
X171043346Y-138009410D02*
X171090965Y-137914172D01*
X171090965Y-137914172D02*
X171090965Y-137676077D01*
X171090965Y-137676077D02*
X171138584Y-137580839D01*
X171376679Y-137104648D02*
X170710012Y-137104648D01*
X171281441Y-137104648D02*
X171329060Y-137057029D01*
X171329060Y-137057029D02*
X171376679Y-136961791D01*
X171376679Y-136961791D02*
X171376679Y-136818934D01*
X171376679Y-136818934D02*
X171329060Y-136723696D01*
X171329060Y-136723696D02*
X171233822Y-136676077D01*
X171233822Y-136676077D02*
X170710012Y-136676077D01*
X171376679Y-136199886D02*
X170710012Y-136199886D01*
X171281441Y-136199886D02*
X171329060Y-136152267D01*
X171329060Y-136152267D02*
X171376679Y-136057029D01*
X171376679Y-136057029D02*
X171376679Y-135914172D01*
X171376679Y-135914172D02*
X171329060Y-135818934D01*
X171329060Y-135818934D02*
X171233822Y-135771315D01*
X171233822Y-135771315D02*
X170710012Y-135771315D01*
X170757632Y-134914172D02*
X170710012Y-135009410D01*
X170710012Y-135009410D02*
X170710012Y-135199886D01*
X170710012Y-135199886D02*
X170757632Y-135295124D01*
X170757632Y-135295124D02*
X170852870Y-135342743D01*
X170852870Y-135342743D02*
X171233822Y-135342743D01*
X171233822Y-135342743D02*
X171329060Y-135295124D01*
X171329060Y-135295124D02*
X171376679Y-135199886D01*
X171376679Y-135199886D02*
X171376679Y-135009410D01*
X171376679Y-135009410D02*
X171329060Y-134914172D01*
X171329060Y-134914172D02*
X171233822Y-134866553D01*
X171233822Y-134866553D02*
X171138584Y-134866553D01*
X171138584Y-134866553D02*
X171043346Y-135342743D01*
X170710012Y-134295124D02*
X170757632Y-134390362D01*
X170757632Y-134390362D02*
X170852870Y-134437981D01*
X170852870Y-134437981D02*
X171710012Y-134437981D01*
X170805251Y-132580838D02*
X170757632Y-132628457D01*
X170757632Y-132628457D02*
X170710012Y-132771314D01*
X170710012Y-132771314D02*
X170710012Y-132866552D01*
X170710012Y-132866552D02*
X170757632Y-133009409D01*
X170757632Y-133009409D02*
X170852870Y-133104647D01*
X170852870Y-133104647D02*
X170948108Y-133152266D01*
X170948108Y-133152266D02*
X171138584Y-133199885D01*
X171138584Y-133199885D02*
X171281441Y-133199885D01*
X171281441Y-133199885D02*
X171471917Y-133152266D01*
X171471917Y-133152266D02*
X171567155Y-133104647D01*
X171567155Y-133104647D02*
X171662393Y-133009409D01*
X171662393Y-133009409D02*
X171710012Y-132866552D01*
X171710012Y-132866552D02*
X171710012Y-132771314D01*
X171710012Y-132771314D02*
X171662393Y-132628457D01*
X171662393Y-132628457D02*
X171614774Y-132580838D01*
X169060588Y-60530180D02*
X168489160Y-60530180D01*
X168774874Y-60530180D02*
X168774874Y-61530180D01*
X168774874Y-61530180D02*
X168679636Y-61387323D01*
X168679636Y-61387323D02*
X168584398Y-61292085D01*
X168584398Y-61292085D02*
X168489160Y-61244466D01*
X169393922Y-61530180D02*
X170012969Y-61530180D01*
X170012969Y-61530180D02*
X169679636Y-61149228D01*
X169679636Y-61149228D02*
X169822493Y-61149228D01*
X169822493Y-61149228D02*
X169917731Y-61101609D01*
X169917731Y-61101609D02*
X169965350Y-61053990D01*
X169965350Y-61053990D02*
X170012969Y-60958752D01*
X170012969Y-60958752D02*
X170012969Y-60720657D01*
X170012969Y-60720657D02*
X169965350Y-60625419D01*
X169965350Y-60625419D02*
X169917731Y-60577800D01*
X169917731Y-60577800D02*
X169822493Y-60530180D01*
X169822493Y-60530180D02*
X169536779Y-60530180D01*
X169536779Y-60530180D02*
X169441541Y-60577800D01*
X169441541Y-60577800D02*
X169393922Y-60625419D01*
X170727255Y-60149228D02*
X170679636Y-60196847D01*
X170679636Y-60196847D02*
X170584398Y-60339704D01*
X170584398Y-60339704D02*
X170536779Y-60434942D01*
X170536779Y-60434942D02*
X170489160Y-60577800D01*
X170489160Y-60577800D02*
X170441541Y-60815895D01*
X170441541Y-60815895D02*
X170441541Y-61006371D01*
X170441541Y-61006371D02*
X170489160Y-61244466D01*
X170489160Y-61244466D02*
X170536779Y-61387323D01*
X170536779Y-61387323D02*
X170584398Y-61482561D01*
X170584398Y-61482561D02*
X170679636Y-61625419D01*
X170679636Y-61625419D02*
X170727255Y-61673038D01*
X171108208Y-60911133D02*
X171870113Y-60911133D01*
X171489160Y-60530180D02*
X171489160Y-61292085D01*
X172822493Y-61530180D02*
X172346303Y-61530180D01*
X172346303Y-61530180D02*
X172298684Y-61053990D01*
X172298684Y-61053990D02*
X172346303Y-61101609D01*
X172346303Y-61101609D02*
X172441541Y-61149228D01*
X172441541Y-61149228D02*
X172679636Y-61149228D01*
X172679636Y-61149228D02*
X172774874Y-61101609D01*
X172774874Y-61101609D02*
X172822493Y-61053990D01*
X172822493Y-61053990D02*
X172870112Y-60958752D01*
X172870112Y-60958752D02*
X172870112Y-60720657D01*
X172870112Y-60720657D02*
X172822493Y-60625419D01*
X172822493Y-60625419D02*
X172774874Y-60577800D01*
X172774874Y-60577800D02*
X172679636Y-60530180D01*
X172679636Y-60530180D02*
X172441541Y-60530180D01*
X172441541Y-60530180D02*
X172346303Y-60577800D01*
X172346303Y-60577800D02*
X172298684Y-60625419D01*
X173155827Y-61530180D02*
X173489160Y-60530180D01*
X173489160Y-60530180D02*
X173822493Y-61530180D01*
X174060589Y-60149228D02*
X174108208Y-60196847D01*
X174108208Y-60196847D02*
X174203446Y-60339704D01*
X174203446Y-60339704D02*
X174251065Y-60434942D01*
X174251065Y-60434942D02*
X174298684Y-60577800D01*
X174298684Y-60577800D02*
X174346303Y-60815895D01*
X174346303Y-60815895D02*
X174346303Y-61006371D01*
X174346303Y-61006371D02*
X174298684Y-61244466D01*
X174298684Y-61244466D02*
X174251065Y-61387323D01*
X174251065Y-61387323D02*
X174203446Y-61482561D01*
X174203446Y-61482561D02*
X174108208Y-61625419D01*
X174108208Y-61625419D02*
X174060589Y-61673038D01*
X173704762Y-128254819D02*
X174276190Y-128254819D01*
X173990476Y-128254819D02*
X173990476Y-127254819D01*
X173990476Y-127254819D02*
X174085714Y-127397676D01*
X174085714Y-127397676D02*
X174180952Y-127492914D01*
X174180952Y-127492914D02*
X174276190Y-127540533D01*
X173085714Y-127254819D02*
X172990476Y-127254819D01*
X172990476Y-127254819D02*
X172895238Y-127302438D01*
X172895238Y-127302438D02*
X172847619Y-127350057D01*
X172847619Y-127350057D02*
X172800000Y-127445295D01*
X172800000Y-127445295D02*
X172752381Y-127635771D01*
X172752381Y-127635771D02*
X172752381Y-127873866D01*
X172752381Y-127873866D02*
X172800000Y-128064342D01*
X172800000Y-128064342D02*
X172847619Y-128159580D01*
X172847619Y-128159580D02*
X172895238Y-128207200D01*
X172895238Y-128207200D02*
X172990476Y-128254819D01*
X172990476Y-128254819D02*
X173085714Y-128254819D01*
X173085714Y-128254819D02*
X173180952Y-128207200D01*
X173180952Y-128207200D02*
X173228571Y-128159580D01*
X173228571Y-128159580D02*
X173276190Y-128064342D01*
X173276190Y-128064342D02*
X173323809Y-127873866D01*
X173323809Y-127873866D02*
X173323809Y-127635771D01*
X173323809Y-127635771D02*
X173276190Y-127445295D01*
X173276190Y-127445295D02*
X173228571Y-127350057D01*
X173228571Y-127350057D02*
X173180952Y-127302438D01*
X173180952Y-127302438D02*
X173085714Y-127254819D01*
X172133333Y-127254819D02*
X172038095Y-127254819D01*
X172038095Y-127254819D02*
X171942857Y-127302438D01*
X171942857Y-127302438D02*
X171895238Y-127350057D01*
X171895238Y-127350057D02*
X171847619Y-127445295D01*
X171847619Y-127445295D02*
X171800000Y-127635771D01*
X171800000Y-127635771D02*
X171800000Y-127873866D01*
X171800000Y-127873866D02*
X171847619Y-128064342D01*
X171847619Y-128064342D02*
X171895238Y-128159580D01*
X171895238Y-128159580D02*
X171942857Y-128207200D01*
X171942857Y-128207200D02*
X172038095Y-128254819D01*
X172038095Y-128254819D02*
X172133333Y-128254819D01*
X172133333Y-128254819D02*
X172228571Y-128207200D01*
X172228571Y-128207200D02*
X172276190Y-128159580D01*
X172276190Y-128159580D02*
X172323809Y-128064342D01*
X172323809Y-128064342D02*
X172371428Y-127873866D01*
X172371428Y-127873866D02*
X172371428Y-127635771D01*
X172371428Y-127635771D02*
X172323809Y-127445295D01*
X172323809Y-127445295D02*
X172276190Y-127350057D01*
X172276190Y-127350057D02*
X172228571Y-127302438D01*
X172228571Y-127302438D02*
X172133333Y-127254819D01*
X171371428Y-127588152D02*
X171371428Y-128254819D01*
X171371428Y-127683390D02*
X171323809Y-127635771D01*
X171323809Y-127635771D02*
X171228571Y-127588152D01*
X171228571Y-127588152D02*
X171085714Y-127588152D01*
X171085714Y-127588152D02*
X170990476Y-127635771D01*
X170990476Y-127635771D02*
X170942857Y-127731009D01*
X170942857Y-127731009D02*
X170942857Y-128254819D01*
X170609523Y-127588152D02*
X170228571Y-127588152D01*
X170466666Y-128254819D02*
X170466666Y-127397676D01*
X170466666Y-127397676D02*
X170419047Y-127302438D01*
X170419047Y-127302438D02*
X170323809Y-127254819D01*
X170323809Y-127254819D02*
X170228571Y-127254819D01*
X172404166Y-124779580D02*
X172451785Y-124827200D01*
X172451785Y-124827200D02*
X172594642Y-124874819D01*
X172594642Y-124874819D02*
X172689880Y-124874819D01*
X172689880Y-124874819D02*
X172832737Y-124827200D01*
X172832737Y-124827200D02*
X172927975Y-124731961D01*
X172927975Y-124731961D02*
X172975594Y-124636723D01*
X172975594Y-124636723D02*
X173023213Y-124446247D01*
X173023213Y-124446247D02*
X173023213Y-124303390D01*
X173023213Y-124303390D02*
X172975594Y-124112914D01*
X172975594Y-124112914D02*
X172927975Y-124017676D01*
X172927975Y-124017676D02*
X172832737Y-123922438D01*
X172832737Y-123922438D02*
X172689880Y-123874819D01*
X172689880Y-123874819D02*
X172594642Y-123874819D01*
X172594642Y-123874819D02*
X172451785Y-123922438D01*
X172451785Y-123922438D02*
X172404166Y-123970057D01*
X171451785Y-124874819D02*
X172023213Y-124874819D01*
X171737499Y-124874819D02*
X171737499Y-123874819D01*
X171737499Y-123874819D02*
X171832737Y-124017676D01*
X171832737Y-124017676D02*
X171927975Y-124112914D01*
X171927975Y-124112914D02*
X172023213Y-124160533D01*
D12*
%TO.C,C1*%
X171976248Y-125365000D02*
X172498752Y-125365000D01*
X171976248Y-126835000D02*
X172498752Y-126835000D01*
%TO.C,*%
X166835000Y-59430000D02*
X166835000Y-90030000D01*
X166835000Y-90030000D02*
X171895000Y-90030000D01*
X173895000Y-90030000D02*
X178955000Y-90030000D01*
X178955000Y-59430000D02*
X166835000Y-59430000D01*
X178955000Y-90030000D02*
X178955000Y-59430000D01*
X171895000Y-90030000D02*
G75*
G02*
X173895000Y-90030000I1000000J0D01*
G01*
%TD*%
M02*
