M48
; DRILL file {KiCad 8.0.3} date 2024-06-20T16:00:31+0200
; FORMAT={-:-/ absolute / metric / decimal}
; #@! TF.CreationDate,2024-06-20T16:00:31+02:00
; #@! TF.GenerationSoftware,Kicad,Pcbnew,8.0.3
; #@! TF.FileFunction,Plated,1,2,PTH
FMAT,2
METRIC
; #@! TA.AperFunction,Plated,PTH,ViaDrill
T1C0.400
; #@! TA.AperFunction,Plated,PTH,ComponentDrill
T2C0.800
; #@! TA.AperFunction,Plated,PTH,ComponentDrill
T3C1.000
%
G90
G05
T1
X162.39Y-59.6
X166.39Y-91.35
X167.38Y-92.38
X167.55Y-105.6
X167.55Y-108.3
X167.55Y-111.1
X167.55Y-113.1
X167.55Y-114.8
X167.55Y-122.5
X167.6Y-99.1
X167.6Y-117.0
X167.6Y-120.0
X168.0Y-63.66
X168.8Y-99.8
X169.15Y-62.19
X169.22Y-82.48
X169.8Y-99.1
X170.24Y-79.1
X170.8Y-100.0
X170.88Y-76.33
X171.12Y-63.65
X171.2Y-101.7
X171.2Y-104.45
X171.747Y-99.034
X172.75Y-99.1
X173.7Y-101.7
X173.7Y-104.5
X173.9Y-99.2
X175.0Y-99.0
X178.1Y-86.8
X181.51Y-127.61
X181.55Y-95.69
X181.58Y-130.13
T2
X164.3Y-95.6
X164.3Y-98.14
X164.3Y-100.68
X164.3Y-103.22
X164.3Y-105.76
X164.3Y-108.3
X164.3Y-110.84
X164.3Y-113.38
X164.3Y-115.92
X164.3Y-118.46
X164.3Y-121.0
X164.3Y-123.54
X164.3Y-126.08
X164.3Y-128.62
X164.3Y-131.16
X164.3Y-133.7
X164.3Y-136.24
X164.3Y-138.78
X164.3Y-141.32
X164.3Y-143.86
X165.16Y-60.86
X165.16Y-63.4
X165.16Y-65.94
X165.16Y-68.48
X165.16Y-71.02
X165.16Y-73.56
X165.16Y-76.1
X165.16Y-78.64
X165.16Y-81.18
X165.16Y-83.72
X165.16Y-86.26
X165.16Y-88.8
X179.54Y-95.6
X179.54Y-98.14
X179.54Y-100.68
X179.54Y-103.22
X179.54Y-105.76
X179.54Y-108.3
X179.54Y-110.84
X179.54Y-113.38
X179.54Y-115.92
X179.54Y-118.46
X179.54Y-121.0
X179.54Y-123.54
X179.54Y-126.08
X179.54Y-128.62
X179.54Y-131.16
X179.54Y-133.7
X179.54Y-136.24
X179.54Y-138.78
X179.54Y-141.32
X179.54Y-143.86
X180.4Y-60.86
X180.4Y-63.4
X180.4Y-65.94
X180.4Y-68.48
X180.4Y-71.02
X180.4Y-73.56
X180.4Y-76.1
X180.4Y-78.64
X180.4Y-81.18
X180.4Y-83.72
X180.4Y-86.26
X180.4Y-88.8
T3
X169.2Y-66.46
X169.2Y-69.0
X169.2Y-71.54
X169.2Y-74.08
M30
