%TF.GenerationSoftware,KiCad,Pcbnew,8.0.3*%
%TF.CreationDate,2024-06-20T16:00:32+02:00*%
%TF.ProjectId,adapter 8913-8910 long board reverse on air,61646170-7465-4722-9038-3931332d3839,rev?*%
%TF.SameCoordinates,Original*%
%TF.FileFunction,Drillmap*%
%TF.FilePolarity,Positive*%
%FSLAX45Y45*%
G04 Gerber Fmt 4.5, Leading zero omitted, Abs format (unit mm)*
G04 Created by KiCad (PCBNEW 8.0.3) date 2024-06-20 16:00:32*
%MOMM*%
%LPD*%
G01*
G04 APERTURE LIST*
%ADD10C,0.100000*%
%ADD11C,0.200000*%
G04 APERTURE END LIST*
D10*
X16140000Y-5850000D02*
X18340000Y-5850000D01*
X18340000Y-14700000D01*
X16140000Y-14700000D01*
X16140000Y-5850000D01*
D11*
D10*
X16219000Y-5940000D02*
X16259000Y-5980000D01*
X16259000Y-5940000D02*
X16219000Y-5980000D01*
X16619000Y-9115000D02*
X16659000Y-9155000D01*
X16659000Y-9115000D02*
X16619000Y-9155000D01*
X16718000Y-9218000D02*
X16758000Y-9258000D01*
X16758000Y-9218000D02*
X16718000Y-9258000D01*
X16734999Y-10540000D02*
X16774999Y-10580000D01*
X16774999Y-10540000D02*
X16734999Y-10580000D01*
X16734999Y-10810000D02*
X16774999Y-10850000D01*
X16774999Y-10810000D02*
X16734999Y-10850000D01*
X16734999Y-11090000D02*
X16774999Y-11130000D01*
X16774999Y-11090000D02*
X16734999Y-11130000D01*
X16734999Y-11290000D02*
X16774999Y-11330000D01*
X16774999Y-11290000D02*
X16734999Y-11330000D01*
X16734999Y-11460000D02*
X16774999Y-11500000D01*
X16774999Y-11460000D02*
X16734999Y-11500000D01*
X16734999Y-12230000D02*
X16774999Y-12270000D01*
X16774999Y-12230000D02*
X16734999Y-12270000D01*
X16740000Y-9890000D02*
X16780000Y-9930000D01*
X16780000Y-9890000D02*
X16740000Y-9930000D01*
X16740000Y-11680000D02*
X16780000Y-11720000D01*
X16780000Y-11680000D02*
X16740000Y-11720000D01*
X16740000Y-11980000D02*
X16780000Y-12020000D01*
X16780000Y-11980000D02*
X16740000Y-12020000D01*
X16780000Y-6346000D02*
X16820000Y-6386000D01*
X16820000Y-6346000D02*
X16780000Y-6386000D01*
X16860000Y-9960000D02*
X16900000Y-10000000D01*
X16900000Y-9960000D02*
X16860000Y-10000000D01*
X16895000Y-6199000D02*
X16935000Y-6239000D01*
X16935000Y-6199000D02*
X16895000Y-6239000D01*
X16902000Y-8228000D02*
X16942000Y-8268000D01*
X16942000Y-8228000D02*
X16902000Y-8268000D01*
X16960000Y-9890000D02*
X17000000Y-9930000D01*
X17000000Y-9890000D02*
X16960000Y-9930000D01*
X17004000Y-7890000D02*
X17044000Y-7930000D01*
X17044000Y-7890000D02*
X17004000Y-7930000D01*
X17060000Y-9980000D02*
X17100000Y-10020000D01*
X17100000Y-9980000D02*
X17060000Y-10020000D01*
X17068000Y-7613000D02*
X17108000Y-7653000D01*
X17108000Y-7613000D02*
X17068000Y-7653000D01*
X17092000Y-6345000D02*
X17132000Y-6385000D01*
X17132000Y-6345000D02*
X17092000Y-6385000D01*
X17100000Y-10150000D02*
X17140000Y-10190000D01*
X17140000Y-10150000D02*
X17100000Y-10190000D01*
X17100000Y-10425000D02*
X17140000Y-10465000D01*
X17140000Y-10425000D02*
X17100000Y-10465000D01*
X17154698Y-9883364D02*
X17194698Y-9923364D01*
X17194698Y-9883364D02*
X17154698Y-9923364D01*
X17255001Y-9890000D02*
X17295001Y-9930000D01*
X17295001Y-9890000D02*
X17255001Y-9930000D01*
X17350000Y-10150000D02*
X17390000Y-10190000D01*
X17390000Y-10150000D02*
X17350000Y-10190000D01*
X17350000Y-10430000D02*
X17390000Y-10470000D01*
X17390000Y-10430000D02*
X17350000Y-10470000D01*
X17370000Y-9900000D02*
X17410000Y-9940000D01*
X17410000Y-9900000D02*
X17370000Y-9940000D01*
X17480000Y-9880000D02*
X17520000Y-9920000D01*
X17520000Y-9880000D02*
X17480000Y-9920000D01*
X17790000Y-8660000D02*
X17830000Y-8700000D01*
X17830000Y-8660000D02*
X17790000Y-8700000D01*
X18131000Y-12741000D02*
X18171000Y-12781000D01*
X18171000Y-12741000D02*
X18131000Y-12781000D01*
X18135000Y-9549000D02*
X18175000Y-9589000D01*
X18175000Y-9549000D02*
X18135000Y-9589000D01*
X18138000Y-12993000D02*
X18178000Y-13033000D01*
X18178000Y-12993000D02*
X18138000Y-13033000D01*
X16470000Y-9560000D02*
G75*
G02*
X16390000Y-9560000I-40000J0D01*
G01*
X16390000Y-9560000D02*
G75*
G02*
X16470000Y-9560000I40000J0D01*
G01*
X16470000Y-9814000D02*
G75*
G02*
X16390000Y-9814000I-40000J0D01*
G01*
X16390000Y-9814000D02*
G75*
G02*
X16470000Y-9814000I40000J0D01*
G01*
X16470000Y-10068000D02*
G75*
G02*
X16390000Y-10068000I-40000J0D01*
G01*
X16390000Y-10068000D02*
G75*
G02*
X16470000Y-10068000I40000J0D01*
G01*
X16470000Y-10322000D02*
G75*
G02*
X16390000Y-10322000I-40000J0D01*
G01*
X16390000Y-10322000D02*
G75*
G02*
X16470000Y-10322000I40000J0D01*
G01*
X16470000Y-10576000D02*
G75*
G02*
X16390000Y-10576000I-40000J0D01*
G01*
X16390000Y-10576000D02*
G75*
G02*
X16470000Y-10576000I40000J0D01*
G01*
X16470000Y-10830000D02*
G75*
G02*
X16390000Y-10830000I-40000J0D01*
G01*
X16390000Y-10830000D02*
G75*
G02*
X16470000Y-10830000I40000J0D01*
G01*
X16470000Y-11084000D02*
G75*
G02*
X16390000Y-11084000I-40000J0D01*
G01*
X16390000Y-11084000D02*
G75*
G02*
X16470000Y-11084000I40000J0D01*
G01*
X16470000Y-11338000D02*
G75*
G02*
X16390000Y-11338000I-40000J0D01*
G01*
X16390000Y-11338000D02*
G75*
G02*
X16470000Y-11338000I40000J0D01*
G01*
X16470000Y-11592000D02*
G75*
G02*
X16390000Y-11592000I-40000J0D01*
G01*
X16390000Y-11592000D02*
G75*
G02*
X16470000Y-11592000I40000J0D01*
G01*
X16470000Y-11846000D02*
G75*
G02*
X16390000Y-11846000I-40000J0D01*
G01*
X16390000Y-11846000D02*
G75*
G02*
X16470000Y-11846000I40000J0D01*
G01*
X16470000Y-12100000D02*
G75*
G02*
X16390000Y-12100000I-40000J0D01*
G01*
X16390000Y-12100000D02*
G75*
G02*
X16470000Y-12100000I40000J0D01*
G01*
X16470000Y-12354000D02*
G75*
G02*
X16390000Y-12354000I-40000J0D01*
G01*
X16390000Y-12354000D02*
G75*
G02*
X16470000Y-12354000I40000J0D01*
G01*
X16470000Y-12608000D02*
G75*
G02*
X16390000Y-12608000I-40000J0D01*
G01*
X16390000Y-12608000D02*
G75*
G02*
X16470000Y-12608000I40000J0D01*
G01*
X16470000Y-12862000D02*
G75*
G02*
X16390000Y-12862000I-40000J0D01*
G01*
X16390000Y-12862000D02*
G75*
G02*
X16470000Y-12862000I40000J0D01*
G01*
X16470000Y-13116000D02*
G75*
G02*
X16390000Y-13116000I-40000J0D01*
G01*
X16390000Y-13116000D02*
G75*
G02*
X16470000Y-13116000I40000J0D01*
G01*
X16470000Y-13370000D02*
G75*
G02*
X16390000Y-13370000I-40000J0D01*
G01*
X16390000Y-13370000D02*
G75*
G02*
X16470000Y-13370000I40000J0D01*
G01*
X16470000Y-13624000D02*
G75*
G02*
X16390000Y-13624000I-40000J0D01*
G01*
X16390000Y-13624000D02*
G75*
G02*
X16470000Y-13624000I40000J0D01*
G01*
X16470000Y-13878000D02*
G75*
G02*
X16390000Y-13878000I-40000J0D01*
G01*
X16390000Y-13878000D02*
G75*
G02*
X16470000Y-13878000I40000J0D01*
G01*
X16470000Y-14132000D02*
G75*
G02*
X16390000Y-14132000I-40000J0D01*
G01*
X16390000Y-14132000D02*
G75*
G02*
X16470000Y-14132000I40000J0D01*
G01*
X16470000Y-14386000D02*
G75*
G02*
X16390000Y-14386000I-40000J0D01*
G01*
X16390000Y-14386000D02*
G75*
G02*
X16470000Y-14386000I40000J0D01*
G01*
X16556000Y-6086000D02*
G75*
G02*
X16476000Y-6086000I-40000J0D01*
G01*
X16476000Y-6086000D02*
G75*
G02*
X16556000Y-6086000I40000J0D01*
G01*
X16556000Y-6340000D02*
G75*
G02*
X16476000Y-6340000I-40000J0D01*
G01*
X16476000Y-6340000D02*
G75*
G02*
X16556000Y-6340000I40000J0D01*
G01*
X16556000Y-6594000D02*
G75*
G02*
X16476000Y-6594000I-40000J0D01*
G01*
X16476000Y-6594000D02*
G75*
G02*
X16556000Y-6594000I40000J0D01*
G01*
X16556000Y-6848000D02*
G75*
G02*
X16476000Y-6848000I-40000J0D01*
G01*
X16476000Y-6848000D02*
G75*
G02*
X16556000Y-6848000I40000J0D01*
G01*
X16556000Y-7102000D02*
G75*
G02*
X16476000Y-7102000I-40000J0D01*
G01*
X16476000Y-7102000D02*
G75*
G02*
X16556000Y-7102000I40000J0D01*
G01*
X16556000Y-7356000D02*
G75*
G02*
X16476000Y-7356000I-40000J0D01*
G01*
X16476000Y-7356000D02*
G75*
G02*
X16556000Y-7356000I40000J0D01*
G01*
X16556000Y-7610000D02*
G75*
G02*
X16476000Y-7610000I-40000J0D01*
G01*
X16476000Y-7610000D02*
G75*
G02*
X16556000Y-7610000I40000J0D01*
G01*
X16556000Y-7864000D02*
G75*
G02*
X16476000Y-7864000I-40000J0D01*
G01*
X16476000Y-7864000D02*
G75*
G02*
X16556000Y-7864000I40000J0D01*
G01*
X16556000Y-8118000D02*
G75*
G02*
X16476000Y-8118000I-40000J0D01*
G01*
X16476000Y-8118000D02*
G75*
G02*
X16556000Y-8118000I40000J0D01*
G01*
X16556000Y-8372000D02*
G75*
G02*
X16476000Y-8372000I-40000J0D01*
G01*
X16476000Y-8372000D02*
G75*
G02*
X16556000Y-8372000I40000J0D01*
G01*
X16556000Y-8626000D02*
G75*
G02*
X16476000Y-8626000I-40000J0D01*
G01*
X16476000Y-8626000D02*
G75*
G02*
X16556000Y-8626000I40000J0D01*
G01*
X16556000Y-8880000D02*
G75*
G02*
X16476000Y-8880000I-40000J0D01*
G01*
X16476000Y-8880000D02*
G75*
G02*
X16556000Y-8880000I40000J0D01*
G01*
X17994000Y-9560000D02*
G75*
G02*
X17914000Y-9560000I-40000J0D01*
G01*
X17914000Y-9560000D02*
G75*
G02*
X17994000Y-9560000I40000J0D01*
G01*
X17994000Y-9814000D02*
G75*
G02*
X17914000Y-9814000I-40000J0D01*
G01*
X17914000Y-9814000D02*
G75*
G02*
X17994000Y-9814000I40000J0D01*
G01*
X17994000Y-10068000D02*
G75*
G02*
X17914000Y-10068000I-40000J0D01*
G01*
X17914000Y-10068000D02*
G75*
G02*
X17994000Y-10068000I40000J0D01*
G01*
X17994000Y-10322000D02*
G75*
G02*
X17914000Y-10322000I-40000J0D01*
G01*
X17914000Y-10322000D02*
G75*
G02*
X17994000Y-10322000I40000J0D01*
G01*
X17994000Y-10576000D02*
G75*
G02*
X17914000Y-10576000I-40000J0D01*
G01*
X17914000Y-10576000D02*
G75*
G02*
X17994000Y-10576000I40000J0D01*
G01*
X17994000Y-10830000D02*
G75*
G02*
X17914000Y-10830000I-40000J0D01*
G01*
X17914000Y-10830000D02*
G75*
G02*
X17994000Y-10830000I40000J0D01*
G01*
X17994000Y-11084000D02*
G75*
G02*
X17914000Y-11084000I-40000J0D01*
G01*
X17914000Y-11084000D02*
G75*
G02*
X17994000Y-11084000I40000J0D01*
G01*
X17994000Y-11338000D02*
G75*
G02*
X17914000Y-11338000I-40000J0D01*
G01*
X17914000Y-11338000D02*
G75*
G02*
X17994000Y-11338000I40000J0D01*
G01*
X17994000Y-11592000D02*
G75*
G02*
X17914000Y-11592000I-40000J0D01*
G01*
X17914000Y-11592000D02*
G75*
G02*
X17994000Y-11592000I40000J0D01*
G01*
X17994000Y-11846000D02*
G75*
G02*
X17914000Y-11846000I-40000J0D01*
G01*
X17914000Y-11846000D02*
G75*
G02*
X17994000Y-11846000I40000J0D01*
G01*
X17994000Y-12100000D02*
G75*
G02*
X17914000Y-12100000I-40000J0D01*
G01*
X17914000Y-12100000D02*
G75*
G02*
X17994000Y-12100000I40000J0D01*
G01*
X17994000Y-12354000D02*
G75*
G02*
X17914000Y-12354000I-40000J0D01*
G01*
X17914000Y-12354000D02*
G75*
G02*
X17994000Y-12354000I40000J0D01*
G01*
X17994000Y-12608000D02*
G75*
G02*
X17914000Y-12608000I-40000J0D01*
G01*
X17914000Y-12608000D02*
G75*
G02*
X17994000Y-12608000I40000J0D01*
G01*
X17994000Y-12862000D02*
G75*
G02*
X17914000Y-12862000I-40000J0D01*
G01*
X17914000Y-12862000D02*
G75*
G02*
X17994000Y-12862000I40000J0D01*
G01*
X17994000Y-13116000D02*
G75*
G02*
X17914000Y-13116000I-40000J0D01*
G01*
X17914000Y-13116000D02*
G75*
G02*
X17994000Y-13116000I40000J0D01*
G01*
X17994000Y-13370000D02*
G75*
G02*
X17914000Y-13370000I-40000J0D01*
G01*
X17914000Y-13370000D02*
G75*
G02*
X17994000Y-13370000I40000J0D01*
G01*
X17994000Y-13624000D02*
G75*
G02*
X17914000Y-13624000I-40000J0D01*
G01*
X17914000Y-13624000D02*
G75*
G02*
X17994000Y-13624000I40000J0D01*
G01*
X17994000Y-13878000D02*
G75*
G02*
X17914000Y-13878000I-40000J0D01*
G01*
X17914000Y-13878000D02*
G75*
G02*
X17994000Y-13878000I40000J0D01*
G01*
X17994000Y-14132000D02*
G75*
G02*
X17914000Y-14132000I-40000J0D01*
G01*
X17914000Y-14132000D02*
G75*
G02*
X17994000Y-14132000I40000J0D01*
G01*
X17994000Y-14386000D02*
G75*
G02*
X17914000Y-14386000I-40000J0D01*
G01*
X17914000Y-14386000D02*
G75*
G02*
X17994000Y-14386000I40000J0D01*
G01*
X18080000Y-6086000D02*
G75*
G02*
X18000000Y-6086000I-40000J0D01*
G01*
X18000000Y-6086000D02*
G75*
G02*
X18080000Y-6086000I40000J0D01*
G01*
X18080000Y-6340000D02*
G75*
G02*
X18000000Y-6340000I-40000J0D01*
G01*
X18000000Y-6340000D02*
G75*
G02*
X18080000Y-6340000I40000J0D01*
G01*
X18080000Y-6594000D02*
G75*
G02*
X18000000Y-6594000I-40000J0D01*
G01*
X18000000Y-6594000D02*
G75*
G02*
X18080000Y-6594000I40000J0D01*
G01*
X18080000Y-6848000D02*
G75*
G02*
X18000000Y-6848000I-40000J0D01*
G01*
X18000000Y-6848000D02*
G75*
G02*
X18080000Y-6848000I40000J0D01*
G01*
X18080000Y-7102000D02*
G75*
G02*
X18000000Y-7102000I-40000J0D01*
G01*
X18000000Y-7102000D02*
G75*
G02*
X18080000Y-7102000I40000J0D01*
G01*
X18080000Y-7356000D02*
G75*
G02*
X18000000Y-7356000I-40000J0D01*
G01*
X18000000Y-7356000D02*
G75*
G02*
X18080000Y-7356000I40000J0D01*
G01*
X18080000Y-7610000D02*
G75*
G02*
X18000000Y-7610000I-40000J0D01*
G01*
X18000000Y-7610000D02*
G75*
G02*
X18080000Y-7610000I40000J0D01*
G01*
X18080000Y-7864000D02*
G75*
G02*
X18000000Y-7864000I-40000J0D01*
G01*
X18000000Y-7864000D02*
G75*
G02*
X18080000Y-7864000I40000J0D01*
G01*
X18080000Y-8118000D02*
G75*
G02*
X18000000Y-8118000I-40000J0D01*
G01*
X18000000Y-8118000D02*
G75*
G02*
X18080000Y-8118000I40000J0D01*
G01*
X18080000Y-8372000D02*
G75*
G02*
X18000000Y-8372000I-40000J0D01*
G01*
X18000000Y-8372000D02*
G75*
G02*
X18080000Y-8372000I40000J0D01*
G01*
X18080000Y-8626000D02*
G75*
G02*
X18000000Y-8626000I-40000J0D01*
G01*
X18000000Y-8626000D02*
G75*
G02*
X18080000Y-8626000I40000J0D01*
G01*
X18080000Y-8880000D02*
G75*
G02*
X18000000Y-8880000I-40000J0D01*
G01*
X18000000Y-8880000D02*
G75*
G02*
X18080000Y-8880000I40000J0D01*
G01*
X16920000Y-6596000D02*
X16920000Y-6696000D01*
X16870000Y-6646000D02*
X16970000Y-6646000D01*
X16920000Y-6850000D02*
X16920000Y-6950000D01*
X16870000Y-6900000D02*
X16970000Y-6900000D01*
X16920000Y-7104000D02*
X16920000Y-7204000D01*
X16870000Y-7154000D02*
X16970000Y-7154000D01*
X16920000Y-7358000D02*
X16920000Y-7458000D01*
X16870000Y-7408000D02*
X16970000Y-7408000D01*
D11*
X16395777Y-15016484D02*
X16395777Y-14816484D01*
X16395777Y-14816484D02*
X16443396Y-14816484D01*
X16443396Y-14816484D02*
X16471967Y-14826008D01*
X16471967Y-14826008D02*
X16491015Y-14845055D01*
X16491015Y-14845055D02*
X16500539Y-14864103D01*
X16500539Y-14864103D02*
X16510062Y-14902198D01*
X16510062Y-14902198D02*
X16510062Y-14930769D01*
X16510062Y-14930769D02*
X16500539Y-14968865D01*
X16500539Y-14968865D02*
X16491015Y-14987912D01*
X16491015Y-14987912D02*
X16471967Y-15006960D01*
X16471967Y-15006960D02*
X16443396Y-15016484D01*
X16443396Y-15016484D02*
X16395777Y-15016484D01*
X16595777Y-15016484D02*
X16595777Y-14883150D01*
X16595777Y-14921246D02*
X16605301Y-14902198D01*
X16605301Y-14902198D02*
X16614824Y-14892674D01*
X16614824Y-14892674D02*
X16633872Y-14883150D01*
X16633872Y-14883150D02*
X16652920Y-14883150D01*
X16719586Y-15016484D02*
X16719586Y-14883150D01*
X16719586Y-14816484D02*
X16710062Y-14826008D01*
X16710062Y-14826008D02*
X16719586Y-14835531D01*
X16719586Y-14835531D02*
X16729110Y-14826008D01*
X16729110Y-14826008D02*
X16719586Y-14816484D01*
X16719586Y-14816484D02*
X16719586Y-14835531D01*
X16843396Y-15016484D02*
X16824348Y-15006960D01*
X16824348Y-15006960D02*
X16814824Y-14987912D01*
X16814824Y-14987912D02*
X16814824Y-14816484D01*
X16948158Y-15016484D02*
X16929110Y-15006960D01*
X16929110Y-15006960D02*
X16919586Y-14987912D01*
X16919586Y-14987912D02*
X16919586Y-14816484D01*
X17176729Y-15016484D02*
X17176729Y-14816484D01*
X17176729Y-14816484D02*
X17243396Y-14959341D01*
X17243396Y-14959341D02*
X17310063Y-14816484D01*
X17310063Y-14816484D02*
X17310063Y-15016484D01*
X17491015Y-15016484D02*
X17491015Y-14911722D01*
X17491015Y-14911722D02*
X17481491Y-14892674D01*
X17481491Y-14892674D02*
X17462444Y-14883150D01*
X17462444Y-14883150D02*
X17424348Y-14883150D01*
X17424348Y-14883150D02*
X17405301Y-14892674D01*
X17491015Y-15006960D02*
X17471967Y-15016484D01*
X17471967Y-15016484D02*
X17424348Y-15016484D01*
X17424348Y-15016484D02*
X17405301Y-15006960D01*
X17405301Y-15006960D02*
X17395777Y-14987912D01*
X17395777Y-14987912D02*
X17395777Y-14968865D01*
X17395777Y-14968865D02*
X17405301Y-14949817D01*
X17405301Y-14949817D02*
X17424348Y-14940293D01*
X17424348Y-14940293D02*
X17471967Y-14940293D01*
X17471967Y-14940293D02*
X17491015Y-14930769D01*
X17586253Y-14883150D02*
X17586253Y-15083150D01*
X17586253Y-14892674D02*
X17605301Y-14883150D01*
X17605301Y-14883150D02*
X17643396Y-14883150D01*
X17643396Y-14883150D02*
X17662444Y-14892674D01*
X17662444Y-14892674D02*
X17671967Y-14902198D01*
X17671967Y-14902198D02*
X17681491Y-14921246D01*
X17681491Y-14921246D02*
X17681491Y-14978388D01*
X17681491Y-14978388D02*
X17671967Y-14997436D01*
X17671967Y-14997436D02*
X17662444Y-15006960D01*
X17662444Y-15006960D02*
X17643396Y-15016484D01*
X17643396Y-15016484D02*
X17605301Y-15016484D01*
X17605301Y-15016484D02*
X17586253Y-15006960D01*
X17767205Y-14997436D02*
X17776729Y-15006960D01*
X17776729Y-15006960D02*
X17767205Y-15016484D01*
X17767205Y-15016484D02*
X17757682Y-15006960D01*
X17757682Y-15006960D02*
X17767205Y-14997436D01*
X17767205Y-14997436D02*
X17767205Y-15016484D01*
X17767205Y-14892674D02*
X17776729Y-14902198D01*
X17776729Y-14902198D02*
X17767205Y-14911722D01*
X17767205Y-14911722D02*
X17757682Y-14902198D01*
X17757682Y-14902198D02*
X17767205Y-14892674D01*
X17767205Y-14892674D02*
X17767205Y-14911722D01*
D10*
X16095000Y-15325000D02*
X16135000Y-15365000D01*
X16135000Y-15325000D02*
X16095000Y-15365000D01*
D11*
X16433872Y-15236484D02*
X16452920Y-15236484D01*
X16452920Y-15236484D02*
X16471967Y-15246008D01*
X16471967Y-15246008D02*
X16481491Y-15255531D01*
X16481491Y-15255531D02*
X16491015Y-15274579D01*
X16491015Y-15274579D02*
X16500539Y-15312674D01*
X16500539Y-15312674D02*
X16500539Y-15360293D01*
X16500539Y-15360293D02*
X16491015Y-15398388D01*
X16491015Y-15398388D02*
X16481491Y-15417436D01*
X16481491Y-15417436D02*
X16471967Y-15426960D01*
X16471967Y-15426960D02*
X16452920Y-15436484D01*
X16452920Y-15436484D02*
X16433872Y-15436484D01*
X16433872Y-15436484D02*
X16414824Y-15426960D01*
X16414824Y-15426960D02*
X16405301Y-15417436D01*
X16405301Y-15417436D02*
X16395777Y-15398388D01*
X16395777Y-15398388D02*
X16386253Y-15360293D01*
X16386253Y-15360293D02*
X16386253Y-15312674D01*
X16386253Y-15312674D02*
X16395777Y-15274579D01*
X16395777Y-15274579D02*
X16405301Y-15255531D01*
X16405301Y-15255531D02*
X16414824Y-15246008D01*
X16414824Y-15246008D02*
X16433872Y-15236484D01*
X16586253Y-15417436D02*
X16595777Y-15426960D01*
X16595777Y-15426960D02*
X16586253Y-15436484D01*
X16586253Y-15436484D02*
X16576729Y-15426960D01*
X16576729Y-15426960D02*
X16586253Y-15417436D01*
X16586253Y-15417436D02*
X16586253Y-15436484D01*
X16767205Y-15303150D02*
X16767205Y-15436484D01*
X16719586Y-15226960D02*
X16671967Y-15369817D01*
X16671967Y-15369817D02*
X16795777Y-15369817D01*
X16910063Y-15236484D02*
X16929110Y-15236484D01*
X16929110Y-15236484D02*
X16948158Y-15246008D01*
X16948158Y-15246008D02*
X16957682Y-15255531D01*
X16957682Y-15255531D02*
X16967205Y-15274579D01*
X16967205Y-15274579D02*
X16976729Y-15312674D01*
X16976729Y-15312674D02*
X16976729Y-15360293D01*
X16976729Y-15360293D02*
X16967205Y-15398388D01*
X16967205Y-15398388D02*
X16957682Y-15417436D01*
X16957682Y-15417436D02*
X16948158Y-15426960D01*
X16948158Y-15426960D02*
X16929110Y-15436484D01*
X16929110Y-15436484D02*
X16910063Y-15436484D01*
X16910063Y-15436484D02*
X16891015Y-15426960D01*
X16891015Y-15426960D02*
X16881491Y-15417436D01*
X16881491Y-15417436D02*
X16871967Y-15398388D01*
X16871967Y-15398388D02*
X16862444Y-15360293D01*
X16862444Y-15360293D02*
X16862444Y-15312674D01*
X16862444Y-15312674D02*
X16871967Y-15274579D01*
X16871967Y-15274579D02*
X16881491Y-15255531D01*
X16881491Y-15255531D02*
X16891015Y-15246008D01*
X16891015Y-15246008D02*
X16910063Y-15236484D01*
X17100539Y-15236484D02*
X17119586Y-15236484D01*
X17119586Y-15236484D02*
X17138634Y-15246008D01*
X17138634Y-15246008D02*
X17148158Y-15255531D01*
X17148158Y-15255531D02*
X17157682Y-15274579D01*
X17157682Y-15274579D02*
X17167205Y-15312674D01*
X17167205Y-15312674D02*
X17167205Y-15360293D01*
X17167205Y-15360293D02*
X17157682Y-15398388D01*
X17157682Y-15398388D02*
X17148158Y-15417436D01*
X17148158Y-15417436D02*
X17138634Y-15426960D01*
X17138634Y-15426960D02*
X17119586Y-15436484D01*
X17119586Y-15436484D02*
X17100539Y-15436484D01*
X17100539Y-15436484D02*
X17081491Y-15426960D01*
X17081491Y-15426960D02*
X17071967Y-15417436D01*
X17071967Y-15417436D02*
X17062444Y-15398388D01*
X17062444Y-15398388D02*
X17052920Y-15360293D01*
X17052920Y-15360293D02*
X17052920Y-15312674D01*
X17052920Y-15312674D02*
X17062444Y-15274579D01*
X17062444Y-15274579D02*
X17071967Y-15255531D01*
X17071967Y-15255531D02*
X17081491Y-15246008D01*
X17081491Y-15246008D02*
X17100539Y-15236484D01*
X17252920Y-15436484D02*
X17252920Y-15303150D01*
X17252920Y-15322198D02*
X17262444Y-15312674D01*
X17262444Y-15312674D02*
X17281491Y-15303150D01*
X17281491Y-15303150D02*
X17310063Y-15303150D01*
X17310063Y-15303150D02*
X17329110Y-15312674D01*
X17329110Y-15312674D02*
X17338634Y-15331722D01*
X17338634Y-15331722D02*
X17338634Y-15436484D01*
X17338634Y-15331722D02*
X17348158Y-15312674D01*
X17348158Y-15312674D02*
X17367205Y-15303150D01*
X17367205Y-15303150D02*
X17395777Y-15303150D01*
X17395777Y-15303150D02*
X17414825Y-15312674D01*
X17414825Y-15312674D02*
X17424348Y-15331722D01*
X17424348Y-15331722D02*
X17424348Y-15436484D01*
X17519586Y-15436484D02*
X17519586Y-15303150D01*
X17519586Y-15322198D02*
X17529110Y-15312674D01*
X17529110Y-15312674D02*
X17548158Y-15303150D01*
X17548158Y-15303150D02*
X17576729Y-15303150D01*
X17576729Y-15303150D02*
X17595777Y-15312674D01*
X17595777Y-15312674D02*
X17605301Y-15331722D01*
X17605301Y-15331722D02*
X17605301Y-15436484D01*
X17605301Y-15331722D02*
X17614825Y-15312674D01*
X17614825Y-15312674D02*
X17633872Y-15303150D01*
X17633872Y-15303150D02*
X17662444Y-15303150D01*
X17662444Y-15303150D02*
X17681491Y-15312674D01*
X17681491Y-15312674D02*
X17691015Y-15331722D01*
X17691015Y-15331722D02*
X17691015Y-15436484D01*
X18081491Y-15226960D02*
X17910063Y-15484103D01*
X18338634Y-15236484D02*
X18357682Y-15236484D01*
X18357682Y-15236484D02*
X18376729Y-15246008D01*
X18376729Y-15246008D02*
X18386253Y-15255531D01*
X18386253Y-15255531D02*
X18395777Y-15274579D01*
X18395777Y-15274579D02*
X18405301Y-15312674D01*
X18405301Y-15312674D02*
X18405301Y-15360293D01*
X18405301Y-15360293D02*
X18395777Y-15398388D01*
X18395777Y-15398388D02*
X18386253Y-15417436D01*
X18386253Y-15417436D02*
X18376729Y-15426960D01*
X18376729Y-15426960D02*
X18357682Y-15436484D01*
X18357682Y-15436484D02*
X18338634Y-15436484D01*
X18338634Y-15436484D02*
X18319587Y-15426960D01*
X18319587Y-15426960D02*
X18310063Y-15417436D01*
X18310063Y-15417436D02*
X18300539Y-15398388D01*
X18300539Y-15398388D02*
X18291015Y-15360293D01*
X18291015Y-15360293D02*
X18291015Y-15312674D01*
X18291015Y-15312674D02*
X18300539Y-15274579D01*
X18300539Y-15274579D02*
X18310063Y-15255531D01*
X18310063Y-15255531D02*
X18319587Y-15246008D01*
X18319587Y-15246008D02*
X18338634Y-15236484D01*
X18491015Y-15417436D02*
X18500539Y-15426960D01*
X18500539Y-15426960D02*
X18491015Y-15436484D01*
X18491015Y-15436484D02*
X18481491Y-15426960D01*
X18481491Y-15426960D02*
X18491015Y-15417436D01*
X18491015Y-15417436D02*
X18491015Y-15436484D01*
X18624348Y-15236484D02*
X18643396Y-15236484D01*
X18643396Y-15236484D02*
X18662444Y-15246008D01*
X18662444Y-15246008D02*
X18671968Y-15255531D01*
X18671968Y-15255531D02*
X18681491Y-15274579D01*
X18681491Y-15274579D02*
X18691015Y-15312674D01*
X18691015Y-15312674D02*
X18691015Y-15360293D01*
X18691015Y-15360293D02*
X18681491Y-15398388D01*
X18681491Y-15398388D02*
X18671968Y-15417436D01*
X18671968Y-15417436D02*
X18662444Y-15426960D01*
X18662444Y-15426960D02*
X18643396Y-15436484D01*
X18643396Y-15436484D02*
X18624348Y-15436484D01*
X18624348Y-15436484D02*
X18605301Y-15426960D01*
X18605301Y-15426960D02*
X18595777Y-15417436D01*
X18595777Y-15417436D02*
X18586253Y-15398388D01*
X18586253Y-15398388D02*
X18576729Y-15360293D01*
X18576729Y-15360293D02*
X18576729Y-15312674D01*
X18576729Y-15312674D02*
X18586253Y-15274579D01*
X18586253Y-15274579D02*
X18595777Y-15255531D01*
X18595777Y-15255531D02*
X18605301Y-15246008D01*
X18605301Y-15246008D02*
X18624348Y-15236484D01*
X18881491Y-15436484D02*
X18767206Y-15436484D01*
X18824348Y-15436484D02*
X18824348Y-15236484D01*
X18824348Y-15236484D02*
X18805301Y-15265055D01*
X18805301Y-15265055D02*
X18786253Y-15284103D01*
X18786253Y-15284103D02*
X18767206Y-15293627D01*
X19062444Y-15236484D02*
X18967206Y-15236484D01*
X18967206Y-15236484D02*
X18957682Y-15331722D01*
X18957682Y-15331722D02*
X18967206Y-15322198D01*
X18967206Y-15322198D02*
X18986253Y-15312674D01*
X18986253Y-15312674D02*
X19033872Y-15312674D01*
X19033872Y-15312674D02*
X19052920Y-15322198D01*
X19052920Y-15322198D02*
X19062444Y-15331722D01*
X19062444Y-15331722D02*
X19071968Y-15350769D01*
X19071968Y-15350769D02*
X19071968Y-15398388D01*
X19071968Y-15398388D02*
X19062444Y-15417436D01*
X19062444Y-15417436D02*
X19052920Y-15426960D01*
X19052920Y-15426960D02*
X19033872Y-15436484D01*
X19033872Y-15436484D02*
X18986253Y-15436484D01*
X18986253Y-15436484D02*
X18967206Y-15426960D01*
X18967206Y-15426960D02*
X18957682Y-15417436D01*
X19138634Y-15236484D02*
X19271968Y-15236484D01*
X19271968Y-15236484D02*
X19186253Y-15436484D01*
X19338634Y-15236484D02*
X19338634Y-15274579D01*
X19414825Y-15236484D02*
X19414825Y-15274579D01*
X19710063Y-15512674D02*
X19700539Y-15503150D01*
X19700539Y-15503150D02*
X19681491Y-15474579D01*
X19681491Y-15474579D02*
X19671968Y-15455531D01*
X19671968Y-15455531D02*
X19662444Y-15426960D01*
X19662444Y-15426960D02*
X19652920Y-15379341D01*
X19652920Y-15379341D02*
X19652920Y-15341246D01*
X19652920Y-15341246D02*
X19662444Y-15293627D01*
X19662444Y-15293627D02*
X19671968Y-15265055D01*
X19671968Y-15265055D02*
X19681491Y-15246008D01*
X19681491Y-15246008D02*
X19700539Y-15217436D01*
X19700539Y-15217436D02*
X19710063Y-15207912D01*
X19767206Y-15236484D02*
X19891015Y-15236484D01*
X19891015Y-15236484D02*
X19824349Y-15312674D01*
X19824349Y-15312674D02*
X19852920Y-15312674D01*
X19852920Y-15312674D02*
X19871968Y-15322198D01*
X19871968Y-15322198D02*
X19881491Y-15331722D01*
X19881491Y-15331722D02*
X19891015Y-15350769D01*
X19891015Y-15350769D02*
X19891015Y-15398388D01*
X19891015Y-15398388D02*
X19881491Y-15417436D01*
X19881491Y-15417436D02*
X19871968Y-15426960D01*
X19871968Y-15426960D02*
X19852920Y-15436484D01*
X19852920Y-15436484D02*
X19795777Y-15436484D01*
X19795777Y-15436484D02*
X19776730Y-15426960D01*
X19776730Y-15426960D02*
X19767206Y-15417436D01*
X19957682Y-15236484D02*
X20081491Y-15236484D01*
X20081491Y-15236484D02*
X20014825Y-15312674D01*
X20014825Y-15312674D02*
X20043396Y-15312674D01*
X20043396Y-15312674D02*
X20062444Y-15322198D01*
X20062444Y-15322198D02*
X20071968Y-15331722D01*
X20071968Y-15331722D02*
X20081491Y-15350769D01*
X20081491Y-15350769D02*
X20081491Y-15398388D01*
X20081491Y-15398388D02*
X20071968Y-15417436D01*
X20071968Y-15417436D02*
X20062444Y-15426960D01*
X20062444Y-15426960D02*
X20043396Y-15436484D01*
X20043396Y-15436484D02*
X19986253Y-15436484D01*
X19986253Y-15436484D02*
X19967206Y-15426960D01*
X19967206Y-15426960D02*
X19957682Y-15417436D01*
X20319587Y-15436484D02*
X20319587Y-15236484D01*
X20405301Y-15436484D02*
X20405301Y-15331722D01*
X20405301Y-15331722D02*
X20395777Y-15312674D01*
X20395777Y-15312674D02*
X20376730Y-15303150D01*
X20376730Y-15303150D02*
X20348158Y-15303150D01*
X20348158Y-15303150D02*
X20329111Y-15312674D01*
X20329111Y-15312674D02*
X20319587Y-15322198D01*
X20529111Y-15436484D02*
X20510063Y-15426960D01*
X20510063Y-15426960D02*
X20500539Y-15417436D01*
X20500539Y-15417436D02*
X20491015Y-15398388D01*
X20491015Y-15398388D02*
X20491015Y-15341246D01*
X20491015Y-15341246D02*
X20500539Y-15322198D01*
X20500539Y-15322198D02*
X20510063Y-15312674D01*
X20510063Y-15312674D02*
X20529111Y-15303150D01*
X20529111Y-15303150D02*
X20557682Y-15303150D01*
X20557682Y-15303150D02*
X20576730Y-15312674D01*
X20576730Y-15312674D02*
X20586253Y-15322198D01*
X20586253Y-15322198D02*
X20595777Y-15341246D01*
X20595777Y-15341246D02*
X20595777Y-15398388D01*
X20595777Y-15398388D02*
X20586253Y-15417436D01*
X20586253Y-15417436D02*
X20576730Y-15426960D01*
X20576730Y-15426960D02*
X20557682Y-15436484D01*
X20557682Y-15436484D02*
X20529111Y-15436484D01*
X20710063Y-15436484D02*
X20691015Y-15426960D01*
X20691015Y-15426960D02*
X20681492Y-15407912D01*
X20681492Y-15407912D02*
X20681492Y-15236484D01*
X20862444Y-15426960D02*
X20843396Y-15436484D01*
X20843396Y-15436484D02*
X20805301Y-15436484D01*
X20805301Y-15436484D02*
X20786253Y-15426960D01*
X20786253Y-15426960D02*
X20776730Y-15407912D01*
X20776730Y-15407912D02*
X20776730Y-15331722D01*
X20776730Y-15331722D02*
X20786253Y-15312674D01*
X20786253Y-15312674D02*
X20805301Y-15303150D01*
X20805301Y-15303150D02*
X20843396Y-15303150D01*
X20843396Y-15303150D02*
X20862444Y-15312674D01*
X20862444Y-15312674D02*
X20871968Y-15331722D01*
X20871968Y-15331722D02*
X20871968Y-15350769D01*
X20871968Y-15350769D02*
X20776730Y-15369817D01*
X20948158Y-15426960D02*
X20967206Y-15436484D01*
X20967206Y-15436484D02*
X21005301Y-15436484D01*
X21005301Y-15436484D02*
X21024349Y-15426960D01*
X21024349Y-15426960D02*
X21033873Y-15407912D01*
X21033873Y-15407912D02*
X21033873Y-15398388D01*
X21033873Y-15398388D02*
X21024349Y-15379341D01*
X21024349Y-15379341D02*
X21005301Y-15369817D01*
X21005301Y-15369817D02*
X20976730Y-15369817D01*
X20976730Y-15369817D02*
X20957682Y-15360293D01*
X20957682Y-15360293D02*
X20948158Y-15341246D01*
X20948158Y-15341246D02*
X20948158Y-15331722D01*
X20948158Y-15331722D02*
X20957682Y-15312674D01*
X20957682Y-15312674D02*
X20976730Y-15303150D01*
X20976730Y-15303150D02*
X21005301Y-15303150D01*
X21005301Y-15303150D02*
X21024349Y-15312674D01*
X21100539Y-15512674D02*
X21110063Y-15503150D01*
X21110063Y-15503150D02*
X21129111Y-15474579D01*
X21129111Y-15474579D02*
X21138634Y-15455531D01*
X21138634Y-15455531D02*
X21148158Y-15426960D01*
X21148158Y-15426960D02*
X21157682Y-15379341D01*
X21157682Y-15379341D02*
X21157682Y-15341246D01*
X21157682Y-15341246D02*
X21148158Y-15293627D01*
X21148158Y-15293627D02*
X21138634Y-15265055D01*
X21138634Y-15265055D02*
X21129111Y-15246008D01*
X21129111Y-15246008D02*
X21110063Y-15217436D01*
X21110063Y-15217436D02*
X21100539Y-15207912D01*
D10*
X16135000Y-15609000D02*
G75*
G02*
X16055000Y-15609000I-40000J0D01*
G01*
X16055000Y-15609000D02*
G75*
G02*
X16135000Y-15609000I40000J0D01*
G01*
D11*
X16433872Y-15500484D02*
X16452920Y-15500484D01*
X16452920Y-15500484D02*
X16471967Y-15510008D01*
X16471967Y-15510008D02*
X16481491Y-15519531D01*
X16481491Y-15519531D02*
X16491015Y-15538579D01*
X16491015Y-15538579D02*
X16500539Y-15576674D01*
X16500539Y-15576674D02*
X16500539Y-15624293D01*
X16500539Y-15624293D02*
X16491015Y-15662388D01*
X16491015Y-15662388D02*
X16481491Y-15681436D01*
X16481491Y-15681436D02*
X16471967Y-15690960D01*
X16471967Y-15690960D02*
X16452920Y-15700484D01*
X16452920Y-15700484D02*
X16433872Y-15700484D01*
X16433872Y-15700484D02*
X16414824Y-15690960D01*
X16414824Y-15690960D02*
X16405301Y-15681436D01*
X16405301Y-15681436D02*
X16395777Y-15662388D01*
X16395777Y-15662388D02*
X16386253Y-15624293D01*
X16386253Y-15624293D02*
X16386253Y-15576674D01*
X16386253Y-15576674D02*
X16395777Y-15538579D01*
X16395777Y-15538579D02*
X16405301Y-15519531D01*
X16405301Y-15519531D02*
X16414824Y-15510008D01*
X16414824Y-15510008D02*
X16433872Y-15500484D01*
X16586253Y-15681436D02*
X16595777Y-15690960D01*
X16595777Y-15690960D02*
X16586253Y-15700484D01*
X16586253Y-15700484D02*
X16576729Y-15690960D01*
X16576729Y-15690960D02*
X16586253Y-15681436D01*
X16586253Y-15681436D02*
X16586253Y-15700484D01*
X16710062Y-15586198D02*
X16691015Y-15576674D01*
X16691015Y-15576674D02*
X16681491Y-15567150D01*
X16681491Y-15567150D02*
X16671967Y-15548103D01*
X16671967Y-15548103D02*
X16671967Y-15538579D01*
X16671967Y-15538579D02*
X16681491Y-15519531D01*
X16681491Y-15519531D02*
X16691015Y-15510008D01*
X16691015Y-15510008D02*
X16710062Y-15500484D01*
X16710062Y-15500484D02*
X16748158Y-15500484D01*
X16748158Y-15500484D02*
X16767205Y-15510008D01*
X16767205Y-15510008D02*
X16776729Y-15519531D01*
X16776729Y-15519531D02*
X16786253Y-15538579D01*
X16786253Y-15538579D02*
X16786253Y-15548103D01*
X16786253Y-15548103D02*
X16776729Y-15567150D01*
X16776729Y-15567150D02*
X16767205Y-15576674D01*
X16767205Y-15576674D02*
X16748158Y-15586198D01*
X16748158Y-15586198D02*
X16710062Y-15586198D01*
X16710062Y-15586198D02*
X16691015Y-15595722D01*
X16691015Y-15595722D02*
X16681491Y-15605246D01*
X16681491Y-15605246D02*
X16671967Y-15624293D01*
X16671967Y-15624293D02*
X16671967Y-15662388D01*
X16671967Y-15662388D02*
X16681491Y-15681436D01*
X16681491Y-15681436D02*
X16691015Y-15690960D01*
X16691015Y-15690960D02*
X16710062Y-15700484D01*
X16710062Y-15700484D02*
X16748158Y-15700484D01*
X16748158Y-15700484D02*
X16767205Y-15690960D01*
X16767205Y-15690960D02*
X16776729Y-15681436D01*
X16776729Y-15681436D02*
X16786253Y-15662388D01*
X16786253Y-15662388D02*
X16786253Y-15624293D01*
X16786253Y-15624293D02*
X16776729Y-15605246D01*
X16776729Y-15605246D02*
X16767205Y-15595722D01*
X16767205Y-15595722D02*
X16748158Y-15586198D01*
X16910063Y-15500484D02*
X16929110Y-15500484D01*
X16929110Y-15500484D02*
X16948158Y-15510008D01*
X16948158Y-15510008D02*
X16957682Y-15519531D01*
X16957682Y-15519531D02*
X16967205Y-15538579D01*
X16967205Y-15538579D02*
X16976729Y-15576674D01*
X16976729Y-15576674D02*
X16976729Y-15624293D01*
X16976729Y-15624293D02*
X16967205Y-15662388D01*
X16967205Y-15662388D02*
X16957682Y-15681436D01*
X16957682Y-15681436D02*
X16948158Y-15690960D01*
X16948158Y-15690960D02*
X16929110Y-15700484D01*
X16929110Y-15700484D02*
X16910063Y-15700484D01*
X16910063Y-15700484D02*
X16891015Y-15690960D01*
X16891015Y-15690960D02*
X16881491Y-15681436D01*
X16881491Y-15681436D02*
X16871967Y-15662388D01*
X16871967Y-15662388D02*
X16862444Y-15624293D01*
X16862444Y-15624293D02*
X16862444Y-15576674D01*
X16862444Y-15576674D02*
X16871967Y-15538579D01*
X16871967Y-15538579D02*
X16881491Y-15519531D01*
X16881491Y-15519531D02*
X16891015Y-15510008D01*
X16891015Y-15510008D02*
X16910063Y-15500484D01*
X17100539Y-15500484D02*
X17119586Y-15500484D01*
X17119586Y-15500484D02*
X17138634Y-15510008D01*
X17138634Y-15510008D02*
X17148158Y-15519531D01*
X17148158Y-15519531D02*
X17157682Y-15538579D01*
X17157682Y-15538579D02*
X17167205Y-15576674D01*
X17167205Y-15576674D02*
X17167205Y-15624293D01*
X17167205Y-15624293D02*
X17157682Y-15662388D01*
X17157682Y-15662388D02*
X17148158Y-15681436D01*
X17148158Y-15681436D02*
X17138634Y-15690960D01*
X17138634Y-15690960D02*
X17119586Y-15700484D01*
X17119586Y-15700484D02*
X17100539Y-15700484D01*
X17100539Y-15700484D02*
X17081491Y-15690960D01*
X17081491Y-15690960D02*
X17071967Y-15681436D01*
X17071967Y-15681436D02*
X17062444Y-15662388D01*
X17062444Y-15662388D02*
X17052920Y-15624293D01*
X17052920Y-15624293D02*
X17052920Y-15576674D01*
X17052920Y-15576674D02*
X17062444Y-15538579D01*
X17062444Y-15538579D02*
X17071967Y-15519531D01*
X17071967Y-15519531D02*
X17081491Y-15510008D01*
X17081491Y-15510008D02*
X17100539Y-15500484D01*
X17252920Y-15700484D02*
X17252920Y-15567150D01*
X17252920Y-15586198D02*
X17262444Y-15576674D01*
X17262444Y-15576674D02*
X17281491Y-15567150D01*
X17281491Y-15567150D02*
X17310063Y-15567150D01*
X17310063Y-15567150D02*
X17329110Y-15576674D01*
X17329110Y-15576674D02*
X17338634Y-15595722D01*
X17338634Y-15595722D02*
X17338634Y-15700484D01*
X17338634Y-15595722D02*
X17348158Y-15576674D01*
X17348158Y-15576674D02*
X17367205Y-15567150D01*
X17367205Y-15567150D02*
X17395777Y-15567150D01*
X17395777Y-15567150D02*
X17414825Y-15576674D01*
X17414825Y-15576674D02*
X17424348Y-15595722D01*
X17424348Y-15595722D02*
X17424348Y-15700484D01*
X17519586Y-15700484D02*
X17519586Y-15567150D01*
X17519586Y-15586198D02*
X17529110Y-15576674D01*
X17529110Y-15576674D02*
X17548158Y-15567150D01*
X17548158Y-15567150D02*
X17576729Y-15567150D01*
X17576729Y-15567150D02*
X17595777Y-15576674D01*
X17595777Y-15576674D02*
X17605301Y-15595722D01*
X17605301Y-15595722D02*
X17605301Y-15700484D01*
X17605301Y-15595722D02*
X17614825Y-15576674D01*
X17614825Y-15576674D02*
X17633872Y-15567150D01*
X17633872Y-15567150D02*
X17662444Y-15567150D01*
X17662444Y-15567150D02*
X17681491Y-15576674D01*
X17681491Y-15576674D02*
X17691015Y-15595722D01*
X17691015Y-15595722D02*
X17691015Y-15700484D01*
X18081491Y-15490960D02*
X17910063Y-15748103D01*
X18338634Y-15500484D02*
X18357682Y-15500484D01*
X18357682Y-15500484D02*
X18376729Y-15510008D01*
X18376729Y-15510008D02*
X18386253Y-15519531D01*
X18386253Y-15519531D02*
X18395777Y-15538579D01*
X18395777Y-15538579D02*
X18405301Y-15576674D01*
X18405301Y-15576674D02*
X18405301Y-15624293D01*
X18405301Y-15624293D02*
X18395777Y-15662388D01*
X18395777Y-15662388D02*
X18386253Y-15681436D01*
X18386253Y-15681436D02*
X18376729Y-15690960D01*
X18376729Y-15690960D02*
X18357682Y-15700484D01*
X18357682Y-15700484D02*
X18338634Y-15700484D01*
X18338634Y-15700484D02*
X18319587Y-15690960D01*
X18319587Y-15690960D02*
X18310063Y-15681436D01*
X18310063Y-15681436D02*
X18300539Y-15662388D01*
X18300539Y-15662388D02*
X18291015Y-15624293D01*
X18291015Y-15624293D02*
X18291015Y-15576674D01*
X18291015Y-15576674D02*
X18300539Y-15538579D01*
X18300539Y-15538579D02*
X18310063Y-15519531D01*
X18310063Y-15519531D02*
X18319587Y-15510008D01*
X18319587Y-15510008D02*
X18338634Y-15500484D01*
X18491015Y-15681436D02*
X18500539Y-15690960D01*
X18500539Y-15690960D02*
X18491015Y-15700484D01*
X18491015Y-15700484D02*
X18481491Y-15690960D01*
X18481491Y-15690960D02*
X18491015Y-15681436D01*
X18491015Y-15681436D02*
X18491015Y-15700484D01*
X18624348Y-15500484D02*
X18643396Y-15500484D01*
X18643396Y-15500484D02*
X18662444Y-15510008D01*
X18662444Y-15510008D02*
X18671968Y-15519531D01*
X18671968Y-15519531D02*
X18681491Y-15538579D01*
X18681491Y-15538579D02*
X18691015Y-15576674D01*
X18691015Y-15576674D02*
X18691015Y-15624293D01*
X18691015Y-15624293D02*
X18681491Y-15662388D01*
X18681491Y-15662388D02*
X18671968Y-15681436D01*
X18671968Y-15681436D02*
X18662444Y-15690960D01*
X18662444Y-15690960D02*
X18643396Y-15700484D01*
X18643396Y-15700484D02*
X18624348Y-15700484D01*
X18624348Y-15700484D02*
X18605301Y-15690960D01*
X18605301Y-15690960D02*
X18595777Y-15681436D01*
X18595777Y-15681436D02*
X18586253Y-15662388D01*
X18586253Y-15662388D02*
X18576729Y-15624293D01*
X18576729Y-15624293D02*
X18576729Y-15576674D01*
X18576729Y-15576674D02*
X18586253Y-15538579D01*
X18586253Y-15538579D02*
X18595777Y-15519531D01*
X18595777Y-15519531D02*
X18605301Y-15510008D01*
X18605301Y-15510008D02*
X18624348Y-15500484D01*
X18757682Y-15500484D02*
X18881491Y-15500484D01*
X18881491Y-15500484D02*
X18814825Y-15576674D01*
X18814825Y-15576674D02*
X18843396Y-15576674D01*
X18843396Y-15576674D02*
X18862444Y-15586198D01*
X18862444Y-15586198D02*
X18871968Y-15595722D01*
X18871968Y-15595722D02*
X18881491Y-15614769D01*
X18881491Y-15614769D02*
X18881491Y-15662388D01*
X18881491Y-15662388D02*
X18871968Y-15681436D01*
X18871968Y-15681436D02*
X18862444Y-15690960D01*
X18862444Y-15690960D02*
X18843396Y-15700484D01*
X18843396Y-15700484D02*
X18786253Y-15700484D01*
X18786253Y-15700484D02*
X18767206Y-15690960D01*
X18767206Y-15690960D02*
X18757682Y-15681436D01*
X19071968Y-15700484D02*
X18957682Y-15700484D01*
X19014825Y-15700484D02*
X19014825Y-15500484D01*
X19014825Y-15500484D02*
X18995777Y-15529055D01*
X18995777Y-15529055D02*
X18976729Y-15548103D01*
X18976729Y-15548103D02*
X18957682Y-15557627D01*
X19252920Y-15500484D02*
X19157682Y-15500484D01*
X19157682Y-15500484D02*
X19148158Y-15595722D01*
X19148158Y-15595722D02*
X19157682Y-15586198D01*
X19157682Y-15586198D02*
X19176729Y-15576674D01*
X19176729Y-15576674D02*
X19224349Y-15576674D01*
X19224349Y-15576674D02*
X19243396Y-15586198D01*
X19243396Y-15586198D02*
X19252920Y-15595722D01*
X19252920Y-15595722D02*
X19262444Y-15614769D01*
X19262444Y-15614769D02*
X19262444Y-15662388D01*
X19262444Y-15662388D02*
X19252920Y-15681436D01*
X19252920Y-15681436D02*
X19243396Y-15690960D01*
X19243396Y-15690960D02*
X19224349Y-15700484D01*
X19224349Y-15700484D02*
X19176729Y-15700484D01*
X19176729Y-15700484D02*
X19157682Y-15690960D01*
X19157682Y-15690960D02*
X19148158Y-15681436D01*
X19338634Y-15500484D02*
X19338634Y-15538579D01*
X19414825Y-15500484D02*
X19414825Y-15538579D01*
X19710063Y-15776674D02*
X19700539Y-15767150D01*
X19700539Y-15767150D02*
X19681491Y-15738579D01*
X19681491Y-15738579D02*
X19671968Y-15719531D01*
X19671968Y-15719531D02*
X19662444Y-15690960D01*
X19662444Y-15690960D02*
X19652920Y-15643341D01*
X19652920Y-15643341D02*
X19652920Y-15605246D01*
X19652920Y-15605246D02*
X19662444Y-15557627D01*
X19662444Y-15557627D02*
X19671968Y-15529055D01*
X19671968Y-15529055D02*
X19681491Y-15510008D01*
X19681491Y-15510008D02*
X19700539Y-15481436D01*
X19700539Y-15481436D02*
X19710063Y-15471912D01*
X19871968Y-15500484D02*
X19833872Y-15500484D01*
X19833872Y-15500484D02*
X19814825Y-15510008D01*
X19814825Y-15510008D02*
X19805301Y-15519531D01*
X19805301Y-15519531D02*
X19786253Y-15548103D01*
X19786253Y-15548103D02*
X19776730Y-15586198D01*
X19776730Y-15586198D02*
X19776730Y-15662388D01*
X19776730Y-15662388D02*
X19786253Y-15681436D01*
X19786253Y-15681436D02*
X19795777Y-15690960D01*
X19795777Y-15690960D02*
X19814825Y-15700484D01*
X19814825Y-15700484D02*
X19852920Y-15700484D01*
X19852920Y-15700484D02*
X19871968Y-15690960D01*
X19871968Y-15690960D02*
X19881491Y-15681436D01*
X19881491Y-15681436D02*
X19891015Y-15662388D01*
X19891015Y-15662388D02*
X19891015Y-15614769D01*
X19891015Y-15614769D02*
X19881491Y-15595722D01*
X19881491Y-15595722D02*
X19871968Y-15586198D01*
X19871968Y-15586198D02*
X19852920Y-15576674D01*
X19852920Y-15576674D02*
X19814825Y-15576674D01*
X19814825Y-15576674D02*
X19795777Y-15586198D01*
X19795777Y-15586198D02*
X19786253Y-15595722D01*
X19786253Y-15595722D02*
X19776730Y-15614769D01*
X20062444Y-15567150D02*
X20062444Y-15700484D01*
X20014825Y-15490960D02*
X19967206Y-15633817D01*
X19967206Y-15633817D02*
X20091015Y-15633817D01*
X20319587Y-15700484D02*
X20319587Y-15500484D01*
X20405301Y-15700484D02*
X20405301Y-15595722D01*
X20405301Y-15595722D02*
X20395777Y-15576674D01*
X20395777Y-15576674D02*
X20376730Y-15567150D01*
X20376730Y-15567150D02*
X20348158Y-15567150D01*
X20348158Y-15567150D02*
X20329111Y-15576674D01*
X20329111Y-15576674D02*
X20319587Y-15586198D01*
X20529111Y-15700484D02*
X20510063Y-15690960D01*
X20510063Y-15690960D02*
X20500539Y-15681436D01*
X20500539Y-15681436D02*
X20491015Y-15662388D01*
X20491015Y-15662388D02*
X20491015Y-15605246D01*
X20491015Y-15605246D02*
X20500539Y-15586198D01*
X20500539Y-15586198D02*
X20510063Y-15576674D01*
X20510063Y-15576674D02*
X20529111Y-15567150D01*
X20529111Y-15567150D02*
X20557682Y-15567150D01*
X20557682Y-15567150D02*
X20576730Y-15576674D01*
X20576730Y-15576674D02*
X20586253Y-15586198D01*
X20586253Y-15586198D02*
X20595777Y-15605246D01*
X20595777Y-15605246D02*
X20595777Y-15662388D01*
X20595777Y-15662388D02*
X20586253Y-15681436D01*
X20586253Y-15681436D02*
X20576730Y-15690960D01*
X20576730Y-15690960D02*
X20557682Y-15700484D01*
X20557682Y-15700484D02*
X20529111Y-15700484D01*
X20710063Y-15700484D02*
X20691015Y-15690960D01*
X20691015Y-15690960D02*
X20681492Y-15671912D01*
X20681492Y-15671912D02*
X20681492Y-15500484D01*
X20862444Y-15690960D02*
X20843396Y-15700484D01*
X20843396Y-15700484D02*
X20805301Y-15700484D01*
X20805301Y-15700484D02*
X20786253Y-15690960D01*
X20786253Y-15690960D02*
X20776730Y-15671912D01*
X20776730Y-15671912D02*
X20776730Y-15595722D01*
X20776730Y-15595722D02*
X20786253Y-15576674D01*
X20786253Y-15576674D02*
X20805301Y-15567150D01*
X20805301Y-15567150D02*
X20843396Y-15567150D01*
X20843396Y-15567150D02*
X20862444Y-15576674D01*
X20862444Y-15576674D02*
X20871968Y-15595722D01*
X20871968Y-15595722D02*
X20871968Y-15614769D01*
X20871968Y-15614769D02*
X20776730Y-15633817D01*
X20948158Y-15690960D02*
X20967206Y-15700484D01*
X20967206Y-15700484D02*
X21005301Y-15700484D01*
X21005301Y-15700484D02*
X21024349Y-15690960D01*
X21024349Y-15690960D02*
X21033873Y-15671912D01*
X21033873Y-15671912D02*
X21033873Y-15662388D01*
X21033873Y-15662388D02*
X21024349Y-15643341D01*
X21024349Y-15643341D02*
X21005301Y-15633817D01*
X21005301Y-15633817D02*
X20976730Y-15633817D01*
X20976730Y-15633817D02*
X20957682Y-15624293D01*
X20957682Y-15624293D02*
X20948158Y-15605246D01*
X20948158Y-15605246D02*
X20948158Y-15595722D01*
X20948158Y-15595722D02*
X20957682Y-15576674D01*
X20957682Y-15576674D02*
X20976730Y-15567150D01*
X20976730Y-15567150D02*
X21005301Y-15567150D01*
X21005301Y-15567150D02*
X21024349Y-15576674D01*
X21100539Y-15776674D02*
X21110063Y-15767150D01*
X21110063Y-15767150D02*
X21129111Y-15738579D01*
X21129111Y-15738579D02*
X21138634Y-15719531D01*
X21138634Y-15719531D02*
X21148158Y-15690960D01*
X21148158Y-15690960D02*
X21157682Y-15643341D01*
X21157682Y-15643341D02*
X21157682Y-15605246D01*
X21157682Y-15605246D02*
X21148158Y-15557627D01*
X21148158Y-15557627D02*
X21138634Y-15529055D01*
X21138634Y-15529055D02*
X21129111Y-15510008D01*
X21129111Y-15510008D02*
X21110063Y-15481436D01*
X21110063Y-15481436D02*
X21100539Y-15471912D01*
D10*
X16085000Y-15823000D02*
X16085000Y-15923000D01*
X16035000Y-15873000D02*
X16135000Y-15873000D01*
D11*
X16500539Y-15964484D02*
X16386253Y-15964484D01*
X16443396Y-15964484D02*
X16443396Y-15764484D01*
X16443396Y-15764484D02*
X16424348Y-15793055D01*
X16424348Y-15793055D02*
X16405301Y-15812103D01*
X16405301Y-15812103D02*
X16386253Y-15821627D01*
X16586253Y-15945436D02*
X16595777Y-15954960D01*
X16595777Y-15954960D02*
X16586253Y-15964484D01*
X16586253Y-15964484D02*
X16576729Y-15954960D01*
X16576729Y-15954960D02*
X16586253Y-15945436D01*
X16586253Y-15945436D02*
X16586253Y-15964484D01*
X16719586Y-15764484D02*
X16738634Y-15764484D01*
X16738634Y-15764484D02*
X16757682Y-15774008D01*
X16757682Y-15774008D02*
X16767205Y-15783531D01*
X16767205Y-15783531D02*
X16776729Y-15802579D01*
X16776729Y-15802579D02*
X16786253Y-15840674D01*
X16786253Y-15840674D02*
X16786253Y-15888293D01*
X16786253Y-15888293D02*
X16776729Y-15926388D01*
X16776729Y-15926388D02*
X16767205Y-15945436D01*
X16767205Y-15945436D02*
X16757682Y-15954960D01*
X16757682Y-15954960D02*
X16738634Y-15964484D01*
X16738634Y-15964484D02*
X16719586Y-15964484D01*
X16719586Y-15964484D02*
X16700539Y-15954960D01*
X16700539Y-15954960D02*
X16691015Y-15945436D01*
X16691015Y-15945436D02*
X16681491Y-15926388D01*
X16681491Y-15926388D02*
X16671967Y-15888293D01*
X16671967Y-15888293D02*
X16671967Y-15840674D01*
X16671967Y-15840674D02*
X16681491Y-15802579D01*
X16681491Y-15802579D02*
X16691015Y-15783531D01*
X16691015Y-15783531D02*
X16700539Y-15774008D01*
X16700539Y-15774008D02*
X16719586Y-15764484D01*
X16910063Y-15764484D02*
X16929110Y-15764484D01*
X16929110Y-15764484D02*
X16948158Y-15774008D01*
X16948158Y-15774008D02*
X16957682Y-15783531D01*
X16957682Y-15783531D02*
X16967205Y-15802579D01*
X16967205Y-15802579D02*
X16976729Y-15840674D01*
X16976729Y-15840674D02*
X16976729Y-15888293D01*
X16976729Y-15888293D02*
X16967205Y-15926388D01*
X16967205Y-15926388D02*
X16957682Y-15945436D01*
X16957682Y-15945436D02*
X16948158Y-15954960D01*
X16948158Y-15954960D02*
X16929110Y-15964484D01*
X16929110Y-15964484D02*
X16910063Y-15964484D01*
X16910063Y-15964484D02*
X16891015Y-15954960D01*
X16891015Y-15954960D02*
X16881491Y-15945436D01*
X16881491Y-15945436D02*
X16871967Y-15926388D01*
X16871967Y-15926388D02*
X16862444Y-15888293D01*
X16862444Y-15888293D02*
X16862444Y-15840674D01*
X16862444Y-15840674D02*
X16871967Y-15802579D01*
X16871967Y-15802579D02*
X16881491Y-15783531D01*
X16881491Y-15783531D02*
X16891015Y-15774008D01*
X16891015Y-15774008D02*
X16910063Y-15764484D01*
X17100539Y-15764484D02*
X17119586Y-15764484D01*
X17119586Y-15764484D02*
X17138634Y-15774008D01*
X17138634Y-15774008D02*
X17148158Y-15783531D01*
X17148158Y-15783531D02*
X17157682Y-15802579D01*
X17157682Y-15802579D02*
X17167205Y-15840674D01*
X17167205Y-15840674D02*
X17167205Y-15888293D01*
X17167205Y-15888293D02*
X17157682Y-15926388D01*
X17157682Y-15926388D02*
X17148158Y-15945436D01*
X17148158Y-15945436D02*
X17138634Y-15954960D01*
X17138634Y-15954960D02*
X17119586Y-15964484D01*
X17119586Y-15964484D02*
X17100539Y-15964484D01*
X17100539Y-15964484D02*
X17081491Y-15954960D01*
X17081491Y-15954960D02*
X17071967Y-15945436D01*
X17071967Y-15945436D02*
X17062444Y-15926388D01*
X17062444Y-15926388D02*
X17052920Y-15888293D01*
X17052920Y-15888293D02*
X17052920Y-15840674D01*
X17052920Y-15840674D02*
X17062444Y-15802579D01*
X17062444Y-15802579D02*
X17071967Y-15783531D01*
X17071967Y-15783531D02*
X17081491Y-15774008D01*
X17081491Y-15774008D02*
X17100539Y-15764484D01*
X17252920Y-15964484D02*
X17252920Y-15831150D01*
X17252920Y-15850198D02*
X17262444Y-15840674D01*
X17262444Y-15840674D02*
X17281491Y-15831150D01*
X17281491Y-15831150D02*
X17310063Y-15831150D01*
X17310063Y-15831150D02*
X17329110Y-15840674D01*
X17329110Y-15840674D02*
X17338634Y-15859722D01*
X17338634Y-15859722D02*
X17338634Y-15964484D01*
X17338634Y-15859722D02*
X17348158Y-15840674D01*
X17348158Y-15840674D02*
X17367205Y-15831150D01*
X17367205Y-15831150D02*
X17395777Y-15831150D01*
X17395777Y-15831150D02*
X17414825Y-15840674D01*
X17414825Y-15840674D02*
X17424348Y-15859722D01*
X17424348Y-15859722D02*
X17424348Y-15964484D01*
X17519586Y-15964484D02*
X17519586Y-15831150D01*
X17519586Y-15850198D02*
X17529110Y-15840674D01*
X17529110Y-15840674D02*
X17548158Y-15831150D01*
X17548158Y-15831150D02*
X17576729Y-15831150D01*
X17576729Y-15831150D02*
X17595777Y-15840674D01*
X17595777Y-15840674D02*
X17605301Y-15859722D01*
X17605301Y-15859722D02*
X17605301Y-15964484D01*
X17605301Y-15859722D02*
X17614825Y-15840674D01*
X17614825Y-15840674D02*
X17633872Y-15831150D01*
X17633872Y-15831150D02*
X17662444Y-15831150D01*
X17662444Y-15831150D02*
X17681491Y-15840674D01*
X17681491Y-15840674D02*
X17691015Y-15859722D01*
X17691015Y-15859722D02*
X17691015Y-15964484D01*
X18081491Y-15754960D02*
X17910063Y-16012103D01*
X18338634Y-15764484D02*
X18357682Y-15764484D01*
X18357682Y-15764484D02*
X18376729Y-15774008D01*
X18376729Y-15774008D02*
X18386253Y-15783531D01*
X18386253Y-15783531D02*
X18395777Y-15802579D01*
X18395777Y-15802579D02*
X18405301Y-15840674D01*
X18405301Y-15840674D02*
X18405301Y-15888293D01*
X18405301Y-15888293D02*
X18395777Y-15926388D01*
X18395777Y-15926388D02*
X18386253Y-15945436D01*
X18386253Y-15945436D02*
X18376729Y-15954960D01*
X18376729Y-15954960D02*
X18357682Y-15964484D01*
X18357682Y-15964484D02*
X18338634Y-15964484D01*
X18338634Y-15964484D02*
X18319587Y-15954960D01*
X18319587Y-15954960D02*
X18310063Y-15945436D01*
X18310063Y-15945436D02*
X18300539Y-15926388D01*
X18300539Y-15926388D02*
X18291015Y-15888293D01*
X18291015Y-15888293D02*
X18291015Y-15840674D01*
X18291015Y-15840674D02*
X18300539Y-15802579D01*
X18300539Y-15802579D02*
X18310063Y-15783531D01*
X18310063Y-15783531D02*
X18319587Y-15774008D01*
X18319587Y-15774008D02*
X18338634Y-15764484D01*
X18491015Y-15945436D02*
X18500539Y-15954960D01*
X18500539Y-15954960D02*
X18491015Y-15964484D01*
X18491015Y-15964484D02*
X18481491Y-15954960D01*
X18481491Y-15954960D02*
X18491015Y-15945436D01*
X18491015Y-15945436D02*
X18491015Y-15964484D01*
X18624348Y-15764484D02*
X18643396Y-15764484D01*
X18643396Y-15764484D02*
X18662444Y-15774008D01*
X18662444Y-15774008D02*
X18671968Y-15783531D01*
X18671968Y-15783531D02*
X18681491Y-15802579D01*
X18681491Y-15802579D02*
X18691015Y-15840674D01*
X18691015Y-15840674D02*
X18691015Y-15888293D01*
X18691015Y-15888293D02*
X18681491Y-15926388D01*
X18681491Y-15926388D02*
X18671968Y-15945436D01*
X18671968Y-15945436D02*
X18662444Y-15954960D01*
X18662444Y-15954960D02*
X18643396Y-15964484D01*
X18643396Y-15964484D02*
X18624348Y-15964484D01*
X18624348Y-15964484D02*
X18605301Y-15954960D01*
X18605301Y-15954960D02*
X18595777Y-15945436D01*
X18595777Y-15945436D02*
X18586253Y-15926388D01*
X18586253Y-15926388D02*
X18576729Y-15888293D01*
X18576729Y-15888293D02*
X18576729Y-15840674D01*
X18576729Y-15840674D02*
X18586253Y-15802579D01*
X18586253Y-15802579D02*
X18595777Y-15783531D01*
X18595777Y-15783531D02*
X18605301Y-15774008D01*
X18605301Y-15774008D02*
X18624348Y-15764484D01*
X18757682Y-15764484D02*
X18881491Y-15764484D01*
X18881491Y-15764484D02*
X18814825Y-15840674D01*
X18814825Y-15840674D02*
X18843396Y-15840674D01*
X18843396Y-15840674D02*
X18862444Y-15850198D01*
X18862444Y-15850198D02*
X18871968Y-15859722D01*
X18871968Y-15859722D02*
X18881491Y-15878769D01*
X18881491Y-15878769D02*
X18881491Y-15926388D01*
X18881491Y-15926388D02*
X18871968Y-15945436D01*
X18871968Y-15945436D02*
X18862444Y-15954960D01*
X18862444Y-15954960D02*
X18843396Y-15964484D01*
X18843396Y-15964484D02*
X18786253Y-15964484D01*
X18786253Y-15964484D02*
X18767206Y-15954960D01*
X18767206Y-15954960D02*
X18757682Y-15945436D01*
X18976729Y-15964484D02*
X19014825Y-15964484D01*
X19014825Y-15964484D02*
X19033872Y-15954960D01*
X19033872Y-15954960D02*
X19043396Y-15945436D01*
X19043396Y-15945436D02*
X19062444Y-15916865D01*
X19062444Y-15916865D02*
X19071968Y-15878769D01*
X19071968Y-15878769D02*
X19071968Y-15802579D01*
X19071968Y-15802579D02*
X19062444Y-15783531D01*
X19062444Y-15783531D02*
X19052920Y-15774008D01*
X19052920Y-15774008D02*
X19033872Y-15764484D01*
X19033872Y-15764484D02*
X18995777Y-15764484D01*
X18995777Y-15764484D02*
X18976729Y-15774008D01*
X18976729Y-15774008D02*
X18967206Y-15783531D01*
X18967206Y-15783531D02*
X18957682Y-15802579D01*
X18957682Y-15802579D02*
X18957682Y-15850198D01*
X18957682Y-15850198D02*
X18967206Y-15869246D01*
X18967206Y-15869246D02*
X18976729Y-15878769D01*
X18976729Y-15878769D02*
X18995777Y-15888293D01*
X18995777Y-15888293D02*
X19033872Y-15888293D01*
X19033872Y-15888293D02*
X19052920Y-15878769D01*
X19052920Y-15878769D02*
X19062444Y-15869246D01*
X19062444Y-15869246D02*
X19071968Y-15850198D01*
X19243396Y-15831150D02*
X19243396Y-15964484D01*
X19195777Y-15754960D02*
X19148158Y-15897817D01*
X19148158Y-15897817D02*
X19271968Y-15897817D01*
X19338634Y-15764484D02*
X19338634Y-15802579D01*
X19414825Y-15764484D02*
X19414825Y-15802579D01*
X19710063Y-16040674D02*
X19700539Y-16031150D01*
X19700539Y-16031150D02*
X19681491Y-16002579D01*
X19681491Y-16002579D02*
X19671968Y-15983531D01*
X19671968Y-15983531D02*
X19662444Y-15954960D01*
X19662444Y-15954960D02*
X19652920Y-15907341D01*
X19652920Y-15907341D02*
X19652920Y-15869246D01*
X19652920Y-15869246D02*
X19662444Y-15821627D01*
X19662444Y-15821627D02*
X19671968Y-15793055D01*
X19671968Y-15793055D02*
X19681491Y-15774008D01*
X19681491Y-15774008D02*
X19700539Y-15745436D01*
X19700539Y-15745436D02*
X19710063Y-15735912D01*
X19871968Y-15831150D02*
X19871968Y-15964484D01*
X19824349Y-15754960D02*
X19776730Y-15897817D01*
X19776730Y-15897817D02*
X19900539Y-15897817D01*
X20129111Y-15964484D02*
X20129111Y-15764484D01*
X20214825Y-15964484D02*
X20214825Y-15859722D01*
X20214825Y-15859722D02*
X20205301Y-15840674D01*
X20205301Y-15840674D02*
X20186253Y-15831150D01*
X20186253Y-15831150D02*
X20157682Y-15831150D01*
X20157682Y-15831150D02*
X20138634Y-15840674D01*
X20138634Y-15840674D02*
X20129111Y-15850198D01*
X20338634Y-15964484D02*
X20319587Y-15954960D01*
X20319587Y-15954960D02*
X20310063Y-15945436D01*
X20310063Y-15945436D02*
X20300539Y-15926388D01*
X20300539Y-15926388D02*
X20300539Y-15869246D01*
X20300539Y-15869246D02*
X20310063Y-15850198D01*
X20310063Y-15850198D02*
X20319587Y-15840674D01*
X20319587Y-15840674D02*
X20338634Y-15831150D01*
X20338634Y-15831150D02*
X20367206Y-15831150D01*
X20367206Y-15831150D02*
X20386253Y-15840674D01*
X20386253Y-15840674D02*
X20395777Y-15850198D01*
X20395777Y-15850198D02*
X20405301Y-15869246D01*
X20405301Y-15869246D02*
X20405301Y-15926388D01*
X20405301Y-15926388D02*
X20395777Y-15945436D01*
X20395777Y-15945436D02*
X20386253Y-15954960D01*
X20386253Y-15954960D02*
X20367206Y-15964484D01*
X20367206Y-15964484D02*
X20338634Y-15964484D01*
X20519587Y-15964484D02*
X20500539Y-15954960D01*
X20500539Y-15954960D02*
X20491015Y-15935912D01*
X20491015Y-15935912D02*
X20491015Y-15764484D01*
X20671968Y-15954960D02*
X20652920Y-15964484D01*
X20652920Y-15964484D02*
X20614825Y-15964484D01*
X20614825Y-15964484D02*
X20595777Y-15954960D01*
X20595777Y-15954960D02*
X20586253Y-15935912D01*
X20586253Y-15935912D02*
X20586253Y-15859722D01*
X20586253Y-15859722D02*
X20595777Y-15840674D01*
X20595777Y-15840674D02*
X20614825Y-15831150D01*
X20614825Y-15831150D02*
X20652920Y-15831150D01*
X20652920Y-15831150D02*
X20671968Y-15840674D01*
X20671968Y-15840674D02*
X20681492Y-15859722D01*
X20681492Y-15859722D02*
X20681492Y-15878769D01*
X20681492Y-15878769D02*
X20586253Y-15897817D01*
X20757682Y-15954960D02*
X20776730Y-15964484D01*
X20776730Y-15964484D02*
X20814825Y-15964484D01*
X20814825Y-15964484D02*
X20833873Y-15954960D01*
X20833873Y-15954960D02*
X20843396Y-15935912D01*
X20843396Y-15935912D02*
X20843396Y-15926388D01*
X20843396Y-15926388D02*
X20833873Y-15907341D01*
X20833873Y-15907341D02*
X20814825Y-15897817D01*
X20814825Y-15897817D02*
X20786253Y-15897817D01*
X20786253Y-15897817D02*
X20767206Y-15888293D01*
X20767206Y-15888293D02*
X20757682Y-15869246D01*
X20757682Y-15869246D02*
X20757682Y-15859722D01*
X20757682Y-15859722D02*
X20767206Y-15840674D01*
X20767206Y-15840674D02*
X20786253Y-15831150D01*
X20786253Y-15831150D02*
X20814825Y-15831150D01*
X20814825Y-15831150D02*
X20833873Y-15840674D01*
X20910063Y-16040674D02*
X20919587Y-16031150D01*
X20919587Y-16031150D02*
X20938634Y-16002579D01*
X20938634Y-16002579D02*
X20948158Y-15983531D01*
X20948158Y-15983531D02*
X20957682Y-15954960D01*
X20957682Y-15954960D02*
X20967206Y-15907341D01*
X20967206Y-15907341D02*
X20967206Y-15869246D01*
X20967206Y-15869246D02*
X20957682Y-15821627D01*
X20957682Y-15821627D02*
X20948158Y-15793055D01*
X20948158Y-15793055D02*
X20938634Y-15774008D01*
X20938634Y-15774008D02*
X20919587Y-15745436D01*
X20919587Y-15745436D02*
X20910063Y-15735912D01*
M02*
