%TF.GenerationSoftware,KiCad,Pcbnew,8.0.3*%
%TF.CreationDate,2024-06-20T16:00:29+02:00*%
%TF.ProjectId,adapter 8913-8910 long board reverse on air,61646170-7465-4722-9038-3931332d3839,rev?*%
%TF.SameCoordinates,Original*%
%TF.FileFunction,Copper,L2,Bot*%
%TF.FilePolarity,Positive*%
%FSLAX46Y46*%
G04 Gerber Fmt 4.6, Leading zero omitted, Abs format (unit mm)*
G04 Created by KiCad (PCBNEW 8.0.3) date 2024-06-20 16:00:29*
%MOMM*%
%LPD*%
G01*
G04 APERTURE LIST*
G04 Aperture macros list*
%AMRoundRect*
0 Rectangle with rounded corners*
0 $1 Rounding radius*
0 $2 $3 $4 $5 $6 $7 $8 $9 X,Y pos of 4 corners*
0 Add a 4 corners polygon primitive as box body*
4,1,4,$2,$3,$4,$5,$6,$7,$8,$9,$2,$3,0*
0 Add four circle primitives for the rounded corners*
1,1,$1+$1,$2,$3*
1,1,$1+$1,$4,$5*
1,1,$1+$1,$6,$7*
1,1,$1+$1,$8,$9*
0 Add four rect primitives between the rounded corners*
20,1,$1+$1,$2,$3,$4,$5,0*
20,1,$1+$1,$4,$5,$6,$7,0*
20,1,$1+$1,$6,$7,$8,$9,0*
20,1,$1+$1,$8,$9,$2,$3,0*%
G04 Aperture macros list end*
%TA.AperFunction,ComponentPad*%
%ADD10R,1.600000X1.600000*%
%TD*%
%TA.AperFunction,ComponentPad*%
%ADD11O,1.600000X1.600000*%
%TD*%
%TA.AperFunction,ComponentPad*%
%ADD12R,2.400000X1.600000*%
%TD*%
%TA.AperFunction,ComponentPad*%
%ADD13O,2.400000X1.600000*%
%TD*%
%TA.AperFunction,ComponentPad*%
%ADD14R,1.700000X1.700000*%
%TD*%
%TA.AperFunction,ComponentPad*%
%ADD15O,1.700000X1.700000*%
%TD*%
%TA.AperFunction,SMDPad,CuDef*%
%ADD16RoundRect,0.250000X0.337500X0.475000X-0.337500X0.475000X-0.337500X-0.475000X0.337500X-0.475000X0*%
%TD*%
%TA.AperFunction,ViaPad*%
%ADD17C,0.800000*%
%TD*%
%TA.AperFunction,Conductor*%
%ADD18C,0.300000*%
%TD*%
%TA.AperFunction,Conductor*%
%ADD19C,0.508000*%
%TD*%
%TA.AperFunction,Conductor*%
%ADD20C,0.762000*%
%TD*%
G04 APERTURE END LIST*
D10*
%TO.P,U1,1,Vss*%
%TO.N,GND*%
X164300000Y-95600000D03*
D11*
%TO.P,U1,2,N/C*%
%TO.N,unconnected-(U1-N{slash}C-Pad2)*%
X164300000Y-98140000D03*
%TO.P,U1,3,ch_B*%
%TO.N,Net-(Audio_OUT_J1-Pin_2)*%
X164300000Y-100680000D03*
%TO.P,U1,4,ch_A*%
%TO.N,Net-(Audio_OUT_J1-Pin_1)*%
X164300000Y-103220000D03*
%TO.P,U1,5,N/C*%
%TO.N,unconnected-(U1-N{slash}C-Pad5)*%
X164300000Y-105760000D03*
%TO.P,U1,6,IOB7*%
%TO.N,unconnected-(U1-IOB7-Pad6)*%
X164300000Y-108300000D03*
%TO.P,U1,7,IOB6*%
%TO.N,unconnected-(U1-IOB6-Pad7)*%
X164300000Y-110840000D03*
%TO.P,U1,8,IOB5*%
%TO.N,unconnected-(U1-IOB5-Pad8)*%
X164300000Y-113380000D03*
%TO.P,U1,9,IOB4*%
%TO.N,unconnected-(U1-IOB4-Pad9)*%
X164300000Y-115920000D03*
%TO.P,U1,10,IOB3*%
%TO.N,unconnected-(U1-IOB3-Pad10)*%
X164300000Y-118460000D03*
%TO.P,U1,11,IOB2*%
%TO.N,unconnected-(U1-IOB2-Pad11)*%
X164300000Y-121000000D03*
%TO.P,U1,12,IOB1*%
%TO.N,unconnected-(U1-IOB1-Pad12)*%
X164300000Y-123540000D03*
%TO.P,U1,13,IOB0*%
%TO.N,unconnected-(U1-IOB0-Pad13)*%
X164300000Y-126080000D03*
%TO.P,U1,14,IOA7*%
%TO.N,unconnected-(U1-IOA7-Pad14)*%
X164300000Y-128620000D03*
%TO.P,U1,15,IOA6*%
%TO.N,unconnected-(U1-IOA6-Pad15)*%
X164300000Y-131160000D03*
%TO.P,U1,16,IOA5*%
%TO.N,unconnected-(U1-IOA5-Pad16)*%
X164300000Y-133700000D03*
%TO.P,U1,17,IOA4*%
%TO.N,unconnected-(U1-IOA4-Pad17)*%
X164300000Y-136240000D03*
%TO.P,U1,18,IOA3*%
%TO.N,unconnected-(U1-IOA3-Pad18)*%
X164300000Y-138780000D03*
%TO.P,U1,19,IOA2*%
%TO.N,unconnected-(U1-IOA2-Pad19)*%
X164300000Y-141320000D03*
%TO.P,U1,20,IOA1*%
%TO.N,unconnected-(U1-IOA1-Pad20)*%
X164300000Y-143860000D03*
%TO.P,U1,21,IOA0*%
%TO.N,unconnected-(U1-IOA0-Pad21)*%
X179540000Y-143860000D03*
%TO.P,U1,22,CLOCK*%
%TO.N,Net-(U1-CLOCK)*%
X179540000Y-141320000D03*
%TO.P,U1,23,~{RESET}*%
%TO.N,Net-(U1-~{RESET})*%
X179540000Y-138780000D03*
%TO.P,U1,24,~{A9}*%
%TO.N,Net-(U1-~{A9})*%
X179540000Y-136240000D03*
%TO.P,U1,25,A8*%
%TO.N,Net-(U1-A8)*%
X179540000Y-133700000D03*
%TO.P,U1,26,TEST2*%
%TO.N,unconnected-(U1-TEST2-Pad26)*%
X179540000Y-131160000D03*
%TO.P,U1,27,BDIR*%
%TO.N,Net-(U1-BDIR)*%
X179540000Y-128620000D03*
%TO.P,U1,28,BC2*%
%TO.N,+5V*%
X179540000Y-126080000D03*
%TO.P,U1,29,BC1*%
%TO.N,Net-(U1-BC1)*%
X179540000Y-123540000D03*
%TO.P,U1,30,D7*%
%TO.N,Net-(U1-D7)*%
X179540000Y-121000000D03*
%TO.P,U1,31,D6*%
%TO.N,Net-(U1-D6)*%
X179540000Y-118460000D03*
%TO.P,U1,32,D5*%
%TO.N,Net-(U1-D5)*%
X179540000Y-115920000D03*
%TO.P,U1,33,D4*%
%TO.N,Net-(U1-D4)*%
X179540000Y-113380000D03*
%TO.P,U1,34,D3*%
%TO.N,Net-(U1-D3)*%
X179540000Y-110840000D03*
%TO.P,U1,35,D2*%
%TO.N,Net-(U1-D2)*%
X179540000Y-108300000D03*
%TO.P,U1,36,D1*%
%TO.N,Net-(U1-D1)*%
X179540000Y-105760000D03*
%TO.P,U1,37,D0*%
%TO.N,Net-(U1-D0)*%
X179540000Y-103220000D03*
%TO.P,U1,38,ch_C*%
%TO.N,Net-(Audio_OUT_J1-Pin_3)*%
X179540000Y-100680000D03*
%TO.P,U1,39,TEST1*%
%TO.N,unconnected-(U1-TEST1-Pad39)*%
X179540000Y-98140000D03*
%TO.P,U1,40,Vcc*%
%TO.N,+5V*%
X179540000Y-95600000D03*
%TD*%
D12*
%TO.P,U2,1,Vss*%
%TO.N,GND*%
X180400000Y-88800000D03*
D13*
%TO.P,U2,2,BDIR*%
%TO.N,Net-(U1-BDIR)*%
X180400000Y-86260000D03*
%TO.P,U2,3,BC1*%
%TO.N,Net-(U1-BC1)*%
X180400000Y-83720000D03*
%TO.P,U2,4,D7*%
%TO.N,Net-(U1-D7)*%
X180400000Y-81180000D03*
%TO.P,U2,5,D6*%
%TO.N,Net-(U1-D6)*%
X180400000Y-78640000D03*
%TO.P,U2,6,D5*%
%TO.N,Net-(U1-D5)*%
X180400000Y-76100000D03*
%TO.P,U2,7,D4*%
%TO.N,Net-(U1-D4)*%
X180400000Y-73560000D03*
%TO.P,U2,8,D3*%
%TO.N,Net-(U1-D3)*%
X180400000Y-71020000D03*
%TO.P,U2,9,D2*%
%TO.N,Net-(U1-D2)*%
X180400000Y-68480000D03*
%TO.P,U2,10,D1*%
%TO.N,Net-(U1-D1)*%
X180400000Y-65940000D03*
%TO.P,U2,11,D0*%
%TO.N,Net-(U1-D0)*%
X180400000Y-63400000D03*
%TO.P,U2,12,TEST_2*%
%TO.N,unconnected-(U2-TEST_2-Pad12)*%
X180400000Y-60860000D03*
%TO.P,U2,13,Vcc*%
%TO.N,+5V*%
X165160000Y-60860000D03*
%TO.P,U2,14,TEST_I*%
%TO.N,unconnected-(U2-TEST_I-Pad14)*%
X165160000Y-63400000D03*
%TO.P,U2,15,ch_B*%
%TO.N,Net-(Audio_OUT_J1-Pin_2)*%
X165160000Y-65940000D03*
%TO.P,U2,16,N/C*%
%TO.N,unconnected-(U2-N{slash}C-Pad16)*%
X165160000Y-68480000D03*
%TO.P,U2,17,ch_A*%
%TO.N,Net-(Audio_OUT_J1-Pin_1)*%
X165160000Y-71020000D03*
%TO.P,U2,18,ch_C*%
%TO.N,Net-(Audio_OUT_J1-Pin_3)*%
X165160000Y-73560000D03*
%TO.P,U2,19,Vss*%
%TO.N,GND*%
X165160000Y-76100000D03*
%TO.P,U2,20,CLOCK*%
%TO.N,Net-(U1-CLOCK)*%
X165160000Y-78640000D03*
%TO.P,U2,21,~{RESET}*%
%TO.N,Net-(U1-~{RESET})*%
X165160000Y-81180000D03*
%TO.P,U2,22,~{A9}*%
%TO.N,Net-(U1-~{A9})*%
X165160000Y-83720000D03*
%TO.P,U2,23,A8*%
%TO.N,Net-(U1-A8)*%
X165160000Y-86260000D03*
%TO.P,U2,24,~{CE}*%
%TO.N,GND*%
X165160000Y-88800000D03*
%TD*%
D14*
%TO.P,Audio_OUT_J1,1,Pin_1*%
%TO.N,Net-(Audio_OUT_J1-Pin_1)*%
X169200000Y-66460000D03*
D15*
%TO.P,Audio_OUT_J1,2,Pin_2*%
%TO.N,Net-(Audio_OUT_J1-Pin_2)*%
X169200000Y-69000000D03*
%TO.P,Audio_OUT_J1,3,Pin_3*%
%TO.N,Net-(Audio_OUT_J1-Pin_3)*%
X169200000Y-71540000D03*
%TO.P,Audio_OUT_J1,4,Pin_4*%
%TO.N,GND*%
X169200000Y-74080000D03*
%TD*%
D16*
%TO.P,C1,1*%
%TO.N,+5V*%
X173275000Y-126100000D03*
%TO.P,C1,2*%
%TO.N,GND*%
X171200000Y-126100000D03*
%TD*%
D17*
%TO.N,Net-(U1-D3)*%
X169800000Y-99100000D03*
X167549995Y-111100000D03*
%TO.N,Net-(U1-D5)*%
X171746975Y-99033638D03*
X167549995Y-114800000D03*
%TO.N,Net-(U1-BC1)*%
X175000000Y-99000000D03*
X167549995Y-122500000D03*
%TO.N,Net-(U1-D7)*%
X173900000Y-99200000D03*
X167600000Y-120000000D03*
%TO.N,Net-(U1-~{A9})*%
X166390000Y-91350000D03*
%TO.N,Net-(U1-D6)*%
X167600000Y-117000000D03*
X172750005Y-99100000D03*
%TO.N,Net-(U1-~{RESET})*%
X167380000Y-92380000D03*
%TO.N,Net-(U1-D4)*%
X170800000Y-100000000D03*
X167549995Y-113100000D03*
%TO.N,Net-(U1-CLOCK)*%
X181510000Y-127610000D03*
X181580000Y-130130000D03*
%TO.N,Net-(U1-D1)*%
X167549995Y-105600000D03*
X167600000Y-99100000D03*
%TO.N,Net-(U1-D2)*%
X167549995Y-108300000D03*
X168800000Y-99800000D03*
%TO.N,GND*%
X171200000Y-101700000D03*
X168000000Y-63660000D03*
X173700000Y-104500000D03*
X170880000Y-76330000D03*
X171120000Y-63650000D03*
X178100000Y-86800000D03*
X173700000Y-101700000D03*
X171200000Y-104450000D03*
X169150000Y-62190000D03*
X162390000Y-59600000D03*
%TO.N,Net-(Audio_OUT_J1-Pin_3)*%
X181550000Y-95690000D03*
X169220000Y-82480000D03*
X170240000Y-79100000D03*
%TD*%
D18*
%TO.N,Net-(U1-D3)*%
X175980000Y-71020000D02*
X180400000Y-71020000D01*
X167760000Y-110840000D02*
X179540000Y-110840000D01*
X174000000Y-73000000D02*
X175980000Y-71020000D01*
X169800000Y-96614212D02*
X169800000Y-94264470D01*
X174000000Y-90064470D02*
X174000000Y-73000000D01*
X169800000Y-94264470D02*
X174000000Y-90064470D01*
X169800000Y-99100000D02*
X170590000Y-98310000D01*
X170592893Y-97407105D02*
X169800000Y-96614212D01*
X167500000Y-111100000D02*
X167760000Y-110840000D01*
X169800000Y-98900000D02*
X169800000Y-99100000D01*
X170590000Y-97930000D02*
X170592893Y-97927107D01*
X170590000Y-98310000D02*
X170590000Y-97930000D01*
X170592893Y-97927107D02*
X170592893Y-97407105D01*
%TO.N,Net-(U1-D5)*%
X175000000Y-90478682D02*
X175000000Y-77000000D01*
X170800000Y-96200000D02*
X170800000Y-94678682D01*
X172200000Y-97600000D02*
X170800000Y-96200000D01*
X175900000Y-76100000D02*
X180400000Y-76100000D01*
X171746975Y-99033638D02*
X171743476Y-99033638D01*
X172200000Y-98577114D02*
X172200000Y-97600000D01*
X171743476Y-99033638D02*
X172200000Y-98577114D01*
X175000000Y-77000000D02*
X175900000Y-76100000D01*
X169120000Y-115920000D02*
X179540000Y-115920000D01*
X170800000Y-94678682D02*
X175000000Y-90478682D01*
X168000000Y-114800000D02*
X169120000Y-115920000D01*
%TO.N,Net-(U1-BC1)*%
X176800000Y-90800000D02*
X176800000Y-84200000D01*
X177280000Y-83720000D02*
X180400000Y-83720000D01*
X174892281Y-98975965D02*
X175000000Y-99000000D01*
X175000000Y-98000000D02*
X172300000Y-95300000D01*
X172300000Y-95300000D02*
X176800000Y-90800000D01*
X167800000Y-122500000D02*
X168840000Y-123540000D01*
X168840000Y-123540000D02*
X179540000Y-123540000D01*
X176800000Y-84200000D02*
X177280000Y-83720000D01*
X175000000Y-99000000D02*
X175000000Y-98000000D01*
%TO.N,Net-(U1-D7)*%
X177320000Y-81180000D02*
X180400000Y-81180000D01*
X173900000Y-98360000D02*
X174150000Y-98110000D01*
X167600000Y-120000000D02*
X168600000Y-121000000D01*
X174150000Y-97857106D02*
X171800000Y-95507106D01*
X173900000Y-99100000D02*
X173900000Y-99200000D01*
X171800000Y-95092894D02*
X176200000Y-90692894D01*
X173900000Y-99200000D02*
X173900000Y-98360000D01*
X171800000Y-95507106D02*
X171800000Y-95092894D01*
X176200000Y-90692894D02*
X176200000Y-82300000D01*
X176200000Y-82300000D02*
X177320000Y-81180000D01*
X168600000Y-121000000D02*
X179540000Y-121000000D01*
X174150000Y-98110000D02*
X174150000Y-97857106D01*
%TO.N,Net-(U1-~{A9})*%
X163000000Y-90000000D02*
X163000000Y-84100000D01*
X163380000Y-83720000D02*
X165160000Y-83720000D01*
X166390000Y-91350000D02*
X164350000Y-91350000D01*
X163000000Y-84100000D02*
X163380000Y-83720000D01*
X164350000Y-91350000D02*
X163000000Y-90000000D01*
%TO.N,Net-(U1-D6)*%
X169009995Y-118460000D02*
X169009995Y-118409995D01*
X175600000Y-90585788D02*
X175600000Y-79800000D01*
X175600000Y-79800000D02*
X176760000Y-78640000D01*
X173080000Y-97520000D02*
X171300000Y-95740000D01*
X169009995Y-118409995D02*
X167600000Y-117000000D01*
X173080000Y-98770005D02*
X173080000Y-97520000D01*
X176760000Y-78640000D02*
X180400000Y-78640000D01*
X172750005Y-99100000D02*
X173080000Y-98770005D01*
X171300000Y-95740000D02*
X171300000Y-94885788D01*
X169009995Y-118460000D02*
X179540000Y-118460000D01*
X171300000Y-94885788D02*
X175600000Y-90585788D01*
%TO.N,Net-(U1-~{RESET})*%
X162490000Y-90590000D02*
X162490000Y-81810000D01*
X163120000Y-81180000D02*
X165160000Y-81180000D01*
X162490000Y-81810000D02*
X163120000Y-81180000D01*
X164280000Y-92380000D02*
X162490000Y-90590000D01*
X167380000Y-92380000D02*
X164280000Y-92380000D01*
%TO.N,Net-(U1-D0)*%
X179540000Y-103220000D02*
X169588629Y-103220000D01*
X169588629Y-103220000D02*
X166850000Y-100481371D01*
X168300000Y-93400000D02*
X172500000Y-89200000D01*
X176100000Y-63400000D02*
X180400000Y-63400000D01*
X172500000Y-67000000D02*
X176100000Y-63400000D01*
X172500000Y-89200000D02*
X172500000Y-67000000D01*
X166850000Y-100481371D02*
X166850000Y-98725007D01*
X166850000Y-98725007D02*
X168300000Y-97275007D01*
X168300000Y-97275007D02*
X168300000Y-93400000D01*
%TO.N,Net-(U1-D4)*%
X168080000Y-113380000D02*
X179540000Y-113380000D01*
X174500000Y-75000000D02*
X175940000Y-73560000D01*
X170800000Y-100000000D02*
X170800000Y-98919952D01*
X171370000Y-98349952D02*
X171370000Y-97477106D01*
X174500000Y-90271576D02*
X174500000Y-75000000D01*
X175940000Y-73560000D02*
X180400000Y-73560000D01*
X170300000Y-94471576D02*
X174500000Y-90271576D01*
X170800000Y-98919952D02*
X171370000Y-98349952D01*
X171370000Y-97477106D02*
X170300000Y-96407106D01*
X167800000Y-113100000D02*
X168080000Y-113380000D01*
X170300000Y-96407106D02*
X170300000Y-94471576D01*
%TO.N,Net-(U1-CLOCK)*%
X181580000Y-130130000D02*
X181950000Y-129760000D01*
X181950000Y-128050000D02*
X181510000Y-127610000D01*
X181950000Y-129760000D02*
X181950000Y-128050000D01*
D19*
%TO.N,+5V*%
X179540000Y-95600000D02*
X182400000Y-92740000D01*
D20*
X173100000Y-126100000D02*
X179520000Y-126100000D01*
D19*
X182400000Y-59400000D02*
X166620000Y-59400000D01*
X182400000Y-92740000D02*
X182400000Y-59400000D01*
X166620000Y-59400000D02*
X165160000Y-60860000D01*
D20*
X179520000Y-126100000D02*
X179540000Y-126080000D01*
D18*
%TO.N,Net-(U1-D1)*%
X167600000Y-99082113D02*
X167600000Y-99125011D01*
X168800000Y-93850258D02*
X173000000Y-89650258D01*
X179540000Y-105760000D02*
X167660000Y-105760000D01*
X173000000Y-68700000D02*
X175760000Y-65940000D01*
X175760000Y-65940000D02*
X180400000Y-65940000D01*
X168800000Y-97900000D02*
X168800000Y-93850258D01*
X167660000Y-105760000D02*
X167500000Y-105600000D01*
X173000000Y-89650258D02*
X173000000Y-68700000D01*
X167600000Y-99100000D02*
X168800000Y-97900000D01*
%TO.N,Net-(U1-D2)*%
X169050000Y-99550000D02*
X169050000Y-98610000D01*
X169300000Y-94057364D02*
X173500000Y-89857364D01*
X169660000Y-98000000D02*
X169660000Y-97440000D01*
X169660000Y-97440000D02*
X169300000Y-97080000D01*
X169300000Y-97080000D02*
X169300000Y-94057364D01*
X173500000Y-89857364D02*
X173500000Y-70800000D01*
X173500000Y-70800000D02*
X175820000Y-68480000D01*
X168800000Y-99800000D02*
X169050000Y-99550000D01*
X175820000Y-68480000D02*
X180400000Y-68480000D01*
X169050000Y-98610000D02*
X169660000Y-98000000D01*
X167500000Y-108300000D02*
X179540000Y-108300000D01*
D20*
%TO.N,GND*%
X169269000Y-76330000D02*
X169265000Y-76326000D01*
X170880000Y-76330000D02*
X169269000Y-76330000D01*
X170880000Y-76330000D02*
X170876000Y-76326000D01*
X170876000Y-76326000D02*
X165386000Y-76326000D01*
X165386000Y-76326000D02*
X165160000Y-76100000D01*
D18*
%TO.N,Net-(Audio_OUT_J1-Pin_3)*%
X181550000Y-95690000D02*
X181550000Y-95650000D01*
X169220000Y-82480000D02*
X169220000Y-80070000D01*
X179540000Y-100680000D02*
X181500000Y-100680000D01*
X170240000Y-79050000D02*
X170200000Y-79090000D01*
X181590000Y-95690000D02*
X181550000Y-95690000D01*
X182680000Y-96780000D02*
X181590000Y-95690000D01*
X182680000Y-99500000D02*
X182680000Y-96780000D01*
X181500000Y-100680000D02*
X182680000Y-99500000D01*
X169220000Y-80070000D02*
X170190000Y-79100000D01*
X170190000Y-79100000D02*
X170240000Y-79100000D01*
X181550000Y-95650000D02*
X181540000Y-95640000D01*
X170240000Y-79100000D02*
X170240000Y-79050000D01*
%TD*%
%TA.AperFunction,Conductor*%
%TO.N,GND*%
G36*
X166228983Y-58545185D02*
G01*
X166274738Y-58597989D01*
X166284682Y-58667147D01*
X166255657Y-58730703D01*
X166230835Y-58752602D01*
X166139033Y-58813941D01*
X166086487Y-58866487D01*
X166033941Y-58919034D01*
X166033939Y-58919036D01*
X165429795Y-59523181D01*
X165368472Y-59556666D01*
X165342114Y-59559500D01*
X164657648Y-59559500D01*
X164633329Y-59563351D01*
X164455465Y-59591522D01*
X164260776Y-59654781D01*
X164078386Y-59747715D01*
X163912786Y-59868028D01*
X163768028Y-60012786D01*
X163647715Y-60178386D01*
X163554781Y-60360776D01*
X163491522Y-60555465D01*
X163459500Y-60757648D01*
X163459500Y-60962351D01*
X163491522Y-61164534D01*
X163554781Y-61359223D01*
X163647715Y-61541613D01*
X163768028Y-61707213D01*
X163912786Y-61851971D01*
X164067749Y-61964556D01*
X164078390Y-61972287D01*
X164169840Y-62018883D01*
X164171080Y-62019515D01*
X164221876Y-62067490D01*
X164238671Y-62135311D01*
X164216134Y-62201446D01*
X164171080Y-62240485D01*
X164078386Y-62287715D01*
X163912786Y-62408028D01*
X163768028Y-62552786D01*
X163647715Y-62718386D01*
X163554781Y-62900776D01*
X163491522Y-63095465D01*
X163459500Y-63297648D01*
X163459500Y-63502351D01*
X163491522Y-63704534D01*
X163554781Y-63899223D01*
X163647715Y-64081613D01*
X163768028Y-64247213D01*
X163912786Y-64391971D01*
X164067749Y-64504556D01*
X164078390Y-64512287D01*
X164169840Y-64558883D01*
X164171080Y-64559515D01*
X164221876Y-64607490D01*
X164238671Y-64675311D01*
X164216134Y-64741446D01*
X164171080Y-64780485D01*
X164078386Y-64827715D01*
X163912786Y-64948028D01*
X163768028Y-65092786D01*
X163647715Y-65258386D01*
X163554781Y-65440776D01*
X163491522Y-65635465D01*
X163459500Y-65837648D01*
X163459500Y-66042351D01*
X163491522Y-66244534D01*
X163554781Y-66439223D01*
X163618691Y-66564653D01*
X163629225Y-66585326D01*
X163647715Y-66621613D01*
X163768028Y-66787213D01*
X163912786Y-66931971D01*
X164067749Y-67044556D01*
X164078390Y-67052287D01*
X164169840Y-67098883D01*
X164171080Y-67099515D01*
X164221876Y-67147490D01*
X164238671Y-67215311D01*
X164216134Y-67281446D01*
X164171080Y-67320485D01*
X164078386Y-67367715D01*
X163912786Y-67488028D01*
X163768028Y-67632786D01*
X163647715Y-67798386D01*
X163554781Y-67980776D01*
X163491522Y-68175465D01*
X163459500Y-68377648D01*
X163459500Y-68582351D01*
X163491522Y-68784534D01*
X163554781Y-68979223D01*
X163647715Y-69161613D01*
X163768028Y-69327213D01*
X163912786Y-69471971D01*
X164015194Y-69546373D01*
X164078390Y-69592287D01*
X164169840Y-69638883D01*
X164171080Y-69639515D01*
X164221876Y-69687490D01*
X164238671Y-69755311D01*
X164216134Y-69821446D01*
X164171080Y-69860485D01*
X164078386Y-69907715D01*
X163912786Y-70028028D01*
X163768028Y-70172786D01*
X163647715Y-70338386D01*
X163554781Y-70520776D01*
X163491522Y-70715465D01*
X163459500Y-70917648D01*
X163459500Y-71122351D01*
X163491522Y-71324534D01*
X163554781Y-71519223D01*
X163647715Y-71701613D01*
X163768028Y-71867213D01*
X163912786Y-72011971D01*
X164067749Y-72124556D01*
X164078390Y-72132287D01*
X164169840Y-72178883D01*
X164171080Y-72179515D01*
X164221876Y-72227490D01*
X164238671Y-72295311D01*
X164216134Y-72361446D01*
X164171080Y-72400485D01*
X164078386Y-72447715D01*
X163912786Y-72568028D01*
X163768028Y-72712786D01*
X163647715Y-72878386D01*
X163554781Y-73060776D01*
X163491522Y-73255465D01*
X163459500Y-73457648D01*
X163459500Y-73662351D01*
X163491522Y-73864534D01*
X163554781Y-74059223D01*
X163647715Y-74241613D01*
X163768028Y-74407213D01*
X163912786Y-74551971D01*
X164067749Y-74664556D01*
X164078390Y-74672287D01*
X164150424Y-74708990D01*
X164171629Y-74719795D01*
X164222425Y-74767770D01*
X164239220Y-74835591D01*
X164216682Y-74901726D01*
X164171629Y-74940765D01*
X164078650Y-74988140D01*
X163913105Y-75108417D01*
X163913104Y-75108417D01*
X163768417Y-75253104D01*
X163768417Y-75253105D01*
X163648140Y-75418650D01*
X163555244Y-75600970D01*
X163492009Y-75795586D01*
X163483391Y-75850000D01*
X164844314Y-75850000D01*
X164839920Y-75854394D01*
X164787259Y-75945606D01*
X164760000Y-76047339D01*
X164760000Y-76152661D01*
X164787259Y-76254394D01*
X164839920Y-76345606D01*
X164844314Y-76350000D01*
X163483391Y-76350000D01*
X163492009Y-76404413D01*
X163555244Y-76599029D01*
X163648140Y-76781349D01*
X163768417Y-76946894D01*
X163768417Y-76946895D01*
X163913104Y-77091582D01*
X164078652Y-77211861D01*
X164171628Y-77259234D01*
X164222425Y-77307208D01*
X164239220Y-77375029D01*
X164216683Y-77441164D01*
X164171630Y-77480203D01*
X164078388Y-77527713D01*
X163912786Y-77648028D01*
X163768028Y-77792786D01*
X163647715Y-77958386D01*
X163554781Y-78140776D01*
X163491522Y-78335465D01*
X163459500Y-78537648D01*
X163459500Y-78742351D01*
X163491522Y-78944534D01*
X163554781Y-79139223D01*
X163647715Y-79321613D01*
X163768028Y-79487213D01*
X163912786Y-79631971D01*
X164067749Y-79744556D01*
X164078390Y-79752287D01*
X164169840Y-79798883D01*
X164171080Y-79799515D01*
X164221876Y-79847490D01*
X164238671Y-79915311D01*
X164216134Y-79981446D01*
X164171080Y-80020485D01*
X164078386Y-80067715D01*
X163912786Y-80188028D01*
X163768034Y-80332780D01*
X163768030Y-80332786D01*
X163662246Y-80478386D01*
X163606918Y-80521051D01*
X163561929Y-80529500D01*
X163055929Y-80529500D01*
X162930261Y-80554497D01*
X162930251Y-80554500D01*
X162881220Y-80574810D01*
X162811881Y-80603530D01*
X162811863Y-80603540D01*
X162705332Y-80674721D01*
X162705325Y-80674727D01*
X161984726Y-81395326D01*
X161984723Y-81395331D01*
X161922720Y-81488126D01*
X161913535Y-81501873D01*
X161913534Y-81501873D01*
X161864499Y-81620255D01*
X161864497Y-81620261D01*
X161839500Y-81745928D01*
X161839500Y-90654071D01*
X161844621Y-90679815D01*
X161862415Y-90769266D01*
X161864499Y-90779744D01*
X161864500Y-90779748D01*
X161864501Y-90779749D01*
X161913532Y-90898123D01*
X161984726Y-91004673D01*
X163865324Y-92885271D01*
X163865331Y-92885277D01*
X163971871Y-92956464D01*
X163971870Y-92956464D01*
X163980600Y-92960080D01*
X164090256Y-93005501D01*
X164090260Y-93005501D01*
X164090261Y-93005502D01*
X164215928Y-93030500D01*
X164215931Y-93030500D01*
X166703025Y-93030500D01*
X166770064Y-93050185D01*
X166775910Y-93054182D01*
X166927265Y-93164148D01*
X166927270Y-93164151D01*
X167100192Y-93241142D01*
X167100197Y-93241144D01*
X167285354Y-93280500D01*
X167285355Y-93280500D01*
X167474644Y-93280500D01*
X167474646Y-93280500D01*
X167499720Y-93275170D01*
X167569385Y-93280485D01*
X167625119Y-93322622D01*
X167649225Y-93388201D01*
X167649500Y-93396460D01*
X167649500Y-96954198D01*
X167629815Y-97021237D01*
X167613181Y-97041879D01*
X166344727Y-98310332D01*
X166344724Y-98310335D01*
X166279377Y-98408136D01*
X166273536Y-98416877D01*
X166273534Y-98416881D01*
X166224499Y-98535262D01*
X166224497Y-98535268D01*
X166199500Y-98660935D01*
X166199500Y-100545441D01*
X166213522Y-100615930D01*
X166213522Y-100615932D01*
X166222515Y-100661144D01*
X166224499Y-100671115D01*
X166273535Y-100789498D01*
X166321407Y-100861144D01*
X166344726Y-100896044D01*
X169173956Y-103725274D01*
X169173959Y-103725276D01*
X169276865Y-103794035D01*
X169280500Y-103796464D01*
X169280501Y-103796464D01*
X169280502Y-103796465D01*
X169398885Y-103845501D01*
X169398889Y-103845501D01*
X169398890Y-103845502D01*
X169524557Y-103870500D01*
X169524560Y-103870500D01*
X178343317Y-103870500D01*
X178410356Y-103890185D01*
X178444892Y-103923377D01*
X178539954Y-104059141D01*
X178700858Y-104220045D01*
X178700861Y-104220047D01*
X178887266Y-104350568D01*
X178945275Y-104377618D01*
X178997714Y-104423791D01*
X179016866Y-104490984D01*
X178996650Y-104557865D01*
X178945275Y-104602382D01*
X178887267Y-104629431D01*
X178887265Y-104629432D01*
X178700858Y-104759954D01*
X178539954Y-104920858D01*
X178444892Y-105056623D01*
X178390315Y-105100248D01*
X178343317Y-105109500D01*
X168375297Y-105109500D01*
X168308258Y-105089815D01*
X168283147Y-105068472D01*
X168282528Y-105067785D01*
X168282528Y-105067784D01*
X168155866Y-104927112D01*
X168155865Y-104927111D01*
X168002729Y-104815851D01*
X168002724Y-104815848D01*
X167829802Y-104738857D01*
X167829797Y-104738855D01*
X167683996Y-104707865D01*
X167644641Y-104699500D01*
X167455349Y-104699500D01*
X167422892Y-104706398D01*
X167270192Y-104738855D01*
X167270187Y-104738857D01*
X167097265Y-104815848D01*
X167097260Y-104815851D01*
X166944124Y-104927111D01*
X166817461Y-105067785D01*
X166722816Y-105231715D01*
X166722813Y-105231722D01*
X166664322Y-105411740D01*
X166664321Y-105411744D01*
X166644535Y-105600000D01*
X166664321Y-105788256D01*
X166664322Y-105788259D01*
X166722813Y-105968277D01*
X166722816Y-105968284D01*
X166817462Y-106132216D01*
X166884345Y-106206497D01*
X166944124Y-106272888D01*
X167097260Y-106384148D01*
X167097265Y-106384151D01*
X167270187Y-106461142D01*
X167270192Y-106461144D01*
X167455349Y-106500500D01*
X167455350Y-106500500D01*
X167644639Y-106500500D01*
X167644641Y-106500500D01*
X167829798Y-106461144D01*
X167874820Y-106441098D01*
X167919466Y-106421221D01*
X167969902Y-106410500D01*
X178343317Y-106410500D01*
X178410356Y-106430185D01*
X178444892Y-106463377D01*
X178539954Y-106599141D01*
X178700858Y-106760045D01*
X178700861Y-106760047D01*
X178887266Y-106890568D01*
X178945275Y-106917618D01*
X178997714Y-106963791D01*
X179016866Y-107030984D01*
X178996650Y-107097865D01*
X178945275Y-107142382D01*
X178887267Y-107169431D01*
X178887265Y-107169432D01*
X178700858Y-107299954D01*
X178539954Y-107460858D01*
X178444892Y-107596623D01*
X178390315Y-107640248D01*
X178343317Y-107649500D01*
X168226970Y-107649500D01*
X168159931Y-107629815D01*
X168154085Y-107625818D01*
X168002729Y-107515851D01*
X168002724Y-107515848D01*
X167829802Y-107438857D01*
X167829797Y-107438855D01*
X167683996Y-107407865D01*
X167644641Y-107399500D01*
X167455349Y-107399500D01*
X167422892Y-107406398D01*
X167270192Y-107438855D01*
X167270187Y-107438857D01*
X167097265Y-107515848D01*
X167097260Y-107515851D01*
X166944124Y-107627111D01*
X166817461Y-107767785D01*
X166722816Y-107931715D01*
X166722813Y-107931722D01*
X166676808Y-108073313D01*
X166664321Y-108111744D01*
X166644535Y-108300000D01*
X166664321Y-108488256D01*
X166664322Y-108488259D01*
X166722813Y-108668277D01*
X166722816Y-108668284D01*
X166817462Y-108832216D01*
X166925977Y-108952734D01*
X166944124Y-108972888D01*
X167097260Y-109084148D01*
X167097265Y-109084151D01*
X167270187Y-109161142D01*
X167270192Y-109161144D01*
X167455349Y-109200500D01*
X167455350Y-109200500D01*
X167644639Y-109200500D01*
X167644641Y-109200500D01*
X167829798Y-109161144D01*
X168002725Y-109084151D01*
X168154085Y-108974182D01*
X168219891Y-108950702D01*
X168226970Y-108950500D01*
X178343317Y-108950500D01*
X178410356Y-108970185D01*
X178444892Y-109003377D01*
X178539954Y-109139141D01*
X178700858Y-109300045D01*
X178700861Y-109300047D01*
X178887266Y-109430568D01*
X178945275Y-109457618D01*
X178997714Y-109503791D01*
X179016866Y-109570984D01*
X178996650Y-109637865D01*
X178945275Y-109682382D01*
X178887267Y-109709431D01*
X178887265Y-109709432D01*
X178700858Y-109839954D01*
X178539954Y-110000858D01*
X178444892Y-110136623D01*
X178390315Y-110180248D01*
X178343317Y-110189500D01*
X167695931Y-110189500D01*
X167657630Y-110197118D01*
X167633442Y-110199500D01*
X167455349Y-110199500D01*
X167422892Y-110206398D01*
X167270192Y-110238855D01*
X167270187Y-110238857D01*
X167097265Y-110315848D01*
X167097260Y-110315851D01*
X166944124Y-110427111D01*
X166817461Y-110567785D01*
X166722816Y-110731715D01*
X166722813Y-110731722D01*
X166664322Y-110911740D01*
X166664321Y-110911744D01*
X166644535Y-111100000D01*
X166664321Y-111288256D01*
X166664322Y-111288259D01*
X166722813Y-111468277D01*
X166722816Y-111468284D01*
X166817462Y-111632216D01*
X166859712Y-111679139D01*
X166944124Y-111772888D01*
X167097260Y-111884148D01*
X167097265Y-111884151D01*
X167270187Y-111961142D01*
X167270192Y-111961144D01*
X167352834Y-111978710D01*
X167414316Y-112011902D01*
X167448092Y-112073065D01*
X167443440Y-112142780D01*
X167401835Y-112198912D01*
X167352834Y-112221290D01*
X167270192Y-112238855D01*
X167270187Y-112238857D01*
X167097265Y-112315848D01*
X167097260Y-112315851D01*
X166944124Y-112427111D01*
X166817461Y-112567785D01*
X166722816Y-112731715D01*
X166722813Y-112731722D01*
X166664322Y-112911740D01*
X166664321Y-112911744D01*
X166644535Y-113100000D01*
X166664321Y-113288256D01*
X166664322Y-113288259D01*
X166722813Y-113468277D01*
X166722816Y-113468284D01*
X166817462Y-113632216D01*
X166944124Y-113772888D01*
X167017898Y-113826488D01*
X167049822Y-113849682D01*
X167092487Y-113905012D01*
X167098466Y-113974626D01*
X167065860Y-114036421D01*
X167049822Y-114050318D01*
X166944122Y-114127113D01*
X166817461Y-114267785D01*
X166722816Y-114431715D01*
X166722813Y-114431722D01*
X166665947Y-114606739D01*
X166664321Y-114611744D01*
X166644535Y-114800000D01*
X166664321Y-114988256D01*
X166664322Y-114988259D01*
X166722813Y-115168277D01*
X166722816Y-115168284D01*
X166817462Y-115332216D01*
X166944124Y-115472888D01*
X167097260Y-115584148D01*
X167097265Y-115584151D01*
X167270187Y-115661142D01*
X167270192Y-115661144D01*
X167455349Y-115700500D01*
X167455350Y-115700500D01*
X167644639Y-115700500D01*
X167644641Y-115700500D01*
X167829798Y-115661144D01*
X167829808Y-115661139D01*
X167835977Y-115659136D01*
X167836419Y-115660498D01*
X167898260Y-115652200D01*
X167961540Y-115681822D01*
X167967141Y-115687086D01*
X168614724Y-116334669D01*
X168705331Y-116425276D01*
X168705332Y-116425277D01*
X168811866Y-116496461D01*
X168811872Y-116496464D01*
X168811873Y-116496465D01*
X168930256Y-116545501D01*
X168930260Y-116545501D01*
X168930261Y-116545502D01*
X169055928Y-116570500D01*
X169055931Y-116570500D01*
X178343317Y-116570500D01*
X178410356Y-116590185D01*
X178444892Y-116623377D01*
X178539954Y-116759141D01*
X178700858Y-116920045D01*
X178700861Y-116920047D01*
X178887266Y-117050568D01*
X178945275Y-117077618D01*
X178997714Y-117123791D01*
X179016866Y-117190984D01*
X178996650Y-117257865D01*
X178945275Y-117302382D01*
X178887267Y-117329431D01*
X178887265Y-117329432D01*
X178700858Y-117459954D01*
X178539954Y-117620858D01*
X178444892Y-117756623D01*
X178390315Y-117800248D01*
X178343317Y-117809500D01*
X169380808Y-117809500D01*
X169313769Y-117789815D01*
X169293127Y-117773181D01*
X168534808Y-117014862D01*
X168501323Y-116953539D01*
X168499168Y-116940141D01*
X168485674Y-116811745D01*
X168485672Y-116811740D01*
X168427179Y-116631716D01*
X168332533Y-116467784D01*
X168205871Y-116327112D01*
X168205870Y-116327111D01*
X168052734Y-116215851D01*
X168052729Y-116215848D01*
X167879807Y-116138857D01*
X167879802Y-116138855D01*
X167734001Y-116107865D01*
X167694646Y-116099500D01*
X167505354Y-116099500D01*
X167472897Y-116106398D01*
X167320197Y-116138855D01*
X167320192Y-116138857D01*
X167147270Y-116215848D01*
X167147265Y-116215851D01*
X166994129Y-116327111D01*
X166867466Y-116467785D01*
X166772821Y-116631715D01*
X166772818Y-116631722D01*
X166714327Y-116811740D01*
X166714326Y-116811744D01*
X166694540Y-117000000D01*
X166714326Y-117188256D01*
X166714327Y-117188259D01*
X166772818Y-117368277D01*
X166772821Y-117368284D01*
X166867467Y-117532216D01*
X166947281Y-117620858D01*
X166994129Y-117672888D01*
X167147265Y-117784148D01*
X167147270Y-117784151D01*
X167320192Y-117861142D01*
X167320197Y-117861144D01*
X167505354Y-117900500D01*
X167529192Y-117900500D01*
X167596231Y-117920185D01*
X167616873Y-117936819D01*
X168405728Y-118725674D01*
X168430547Y-118762817D01*
X168430660Y-118762757D01*
X168431272Y-118763902D01*
X168432607Y-118765900D01*
X168433527Y-118768121D01*
X168433533Y-118768133D01*
X168504718Y-118874668D01*
X168504721Y-118874672D01*
X168595322Y-118965273D01*
X168595326Y-118965276D01*
X168701861Y-119036461D01*
X168701867Y-119036464D01*
X168701868Y-119036465D01*
X168820251Y-119085501D01*
X168820255Y-119085501D01*
X168820256Y-119085502D01*
X168945923Y-119110500D01*
X168945926Y-119110500D01*
X178343317Y-119110500D01*
X178410356Y-119130185D01*
X178444892Y-119163377D01*
X178539954Y-119299141D01*
X178700858Y-119460045D01*
X178700861Y-119460047D01*
X178887266Y-119590568D01*
X178945275Y-119617618D01*
X178997714Y-119663791D01*
X179016866Y-119730984D01*
X178996650Y-119797865D01*
X178945275Y-119842382D01*
X178887267Y-119869431D01*
X178887265Y-119869432D01*
X178700858Y-119999954D01*
X178539954Y-120160858D01*
X178444892Y-120296623D01*
X178390315Y-120340248D01*
X178343317Y-120349500D01*
X168920808Y-120349500D01*
X168853769Y-120329815D01*
X168833127Y-120313181D01*
X168534808Y-120014862D01*
X168501323Y-119953539D01*
X168499168Y-119940141D01*
X168491736Y-119869429D01*
X168485674Y-119811744D01*
X168427179Y-119631716D01*
X168332533Y-119467784D01*
X168205871Y-119327112D01*
X168205870Y-119327111D01*
X168052734Y-119215851D01*
X168052729Y-119215848D01*
X167879807Y-119138857D01*
X167879802Y-119138855D01*
X167734001Y-119107865D01*
X167694646Y-119099500D01*
X167505354Y-119099500D01*
X167472897Y-119106398D01*
X167320197Y-119138855D01*
X167320192Y-119138857D01*
X167147270Y-119215848D01*
X167147265Y-119215851D01*
X166994129Y-119327111D01*
X166867466Y-119467785D01*
X166772821Y-119631715D01*
X166772818Y-119631722D01*
X166714327Y-119811740D01*
X166714326Y-119811744D01*
X166694540Y-120000000D01*
X166714326Y-120188256D01*
X166714327Y-120188259D01*
X166772818Y-120368277D01*
X166772821Y-120368284D01*
X166867467Y-120532216D01*
X166994129Y-120672888D01*
X167147265Y-120784148D01*
X167147270Y-120784151D01*
X167320192Y-120861142D01*
X167320197Y-120861144D01*
X167505354Y-120900500D01*
X167529192Y-120900500D01*
X167596231Y-120920185D01*
X167616873Y-120936819D01*
X168185325Y-121505272D01*
X168185332Y-121505278D01*
X168291863Y-121576459D01*
X168291867Y-121576461D01*
X168291874Y-121576466D01*
X168347484Y-121599500D01*
X168410256Y-121625501D01*
X168410260Y-121625501D01*
X168410261Y-121625502D01*
X168535928Y-121650500D01*
X168535931Y-121650500D01*
X178343317Y-121650500D01*
X178410356Y-121670185D01*
X178444892Y-121703377D01*
X178539954Y-121839141D01*
X178700858Y-122000045D01*
X178700861Y-122000047D01*
X178887266Y-122130568D01*
X178945275Y-122157618D01*
X178997714Y-122203791D01*
X179016866Y-122270984D01*
X178996650Y-122337865D01*
X178945275Y-122382382D01*
X178887267Y-122409431D01*
X178887265Y-122409432D01*
X178700858Y-122539954D01*
X178539954Y-122700858D01*
X178444892Y-122836623D01*
X178390315Y-122880248D01*
X178343317Y-122889500D01*
X169160808Y-122889500D01*
X169093769Y-122869815D01*
X169073127Y-122853181D01*
X168410504Y-122190558D01*
X168380253Y-122141193D01*
X168377174Y-122131716D01*
X168282528Y-121967784D01*
X168155866Y-121827112D01*
X168155865Y-121827111D01*
X168002729Y-121715851D01*
X168002724Y-121715848D01*
X167829802Y-121638857D01*
X167829797Y-121638855D01*
X167683996Y-121607865D01*
X167644641Y-121599500D01*
X167455349Y-121599500D01*
X167422892Y-121606398D01*
X167270192Y-121638855D01*
X167270187Y-121638857D01*
X167097265Y-121715848D01*
X167097260Y-121715851D01*
X166944124Y-121827111D01*
X166817461Y-121967785D01*
X166722816Y-122131715D01*
X166722813Y-122131722D01*
X166664322Y-122311740D01*
X166664321Y-122311744D01*
X166644535Y-122500000D01*
X166664321Y-122688256D01*
X166664322Y-122688259D01*
X166722813Y-122868277D01*
X166722816Y-122868284D01*
X166817462Y-123032216D01*
X166944124Y-123172888D01*
X167097260Y-123284148D01*
X167097265Y-123284151D01*
X167270187Y-123361142D01*
X167270192Y-123361144D01*
X167455349Y-123400500D01*
X167455350Y-123400500D01*
X167644637Y-123400500D01*
X167644641Y-123400500D01*
X167690876Y-123390672D01*
X167760538Y-123395987D01*
X167804335Y-123424281D01*
X168425325Y-124045272D01*
X168425328Y-124045275D01*
X168528228Y-124114030D01*
X168530085Y-124115270D01*
X168531873Y-124116465D01*
X168650256Y-124165501D01*
X168650260Y-124165501D01*
X168650261Y-124165502D01*
X168775928Y-124190500D01*
X168775931Y-124190500D01*
X178343317Y-124190500D01*
X178410356Y-124210185D01*
X178444892Y-124243377D01*
X178539954Y-124379141D01*
X178700858Y-124540045D01*
X178700861Y-124540047D01*
X178887266Y-124670568D01*
X178945275Y-124697618D01*
X178997714Y-124743791D01*
X179016866Y-124810984D01*
X178996650Y-124877865D01*
X178945275Y-124922382D01*
X178887267Y-124949431D01*
X178887265Y-124949432D01*
X178700862Y-125079951D01*
X178649748Y-125131066D01*
X178598631Y-125182182D01*
X178537311Y-125215666D01*
X178510952Y-125218500D01*
X174312757Y-125218500D01*
X174245718Y-125198815D01*
X174207219Y-125159597D01*
X174205214Y-125156347D01*
X174205211Y-125156343D01*
X174081157Y-125032289D01*
X174081156Y-125032288D01*
X173988388Y-124975069D01*
X173931836Y-124940187D01*
X173931831Y-124940185D01*
X173878105Y-124922382D01*
X173765297Y-124885001D01*
X173765295Y-124885000D01*
X173662510Y-124874500D01*
X172887498Y-124874500D01*
X172887480Y-124874501D01*
X172784703Y-124885000D01*
X172784700Y-124885001D01*
X172618168Y-124940185D01*
X172618163Y-124940187D01*
X172468842Y-125032289D01*
X172344788Y-125156343D01*
X172344783Y-125156349D01*
X172342741Y-125159661D01*
X172340747Y-125161453D01*
X172340307Y-125162011D01*
X172340211Y-125161935D01*
X172290791Y-125206383D01*
X172221828Y-125217602D01*
X172157747Y-125189755D01*
X172131668Y-125159656D01*
X172129819Y-125156659D01*
X172129816Y-125156655D01*
X172005845Y-125032684D01*
X171856624Y-124940643D01*
X171856619Y-124940641D01*
X171690197Y-124885494D01*
X171690190Y-124885493D01*
X171587486Y-124875000D01*
X171450000Y-124875000D01*
X171450000Y-127324999D01*
X171587472Y-127324999D01*
X171587486Y-127324998D01*
X171690197Y-127314505D01*
X171856619Y-127259358D01*
X171856624Y-127259356D01*
X172005845Y-127167315D01*
X172129818Y-127043342D01*
X172131665Y-127040348D01*
X172133469Y-127038724D01*
X172134298Y-127037677D01*
X172134476Y-127037818D01*
X172183610Y-126993621D01*
X172252573Y-126982396D01*
X172316656Y-127010236D01*
X172342743Y-127040341D01*
X172344788Y-127043656D01*
X172468844Y-127167712D01*
X172618166Y-127259814D01*
X172784703Y-127314999D01*
X172887491Y-127325500D01*
X173662508Y-127325499D01*
X173662516Y-127325498D01*
X173662519Y-127325498D01*
X173718802Y-127319748D01*
X173765297Y-127314999D01*
X173931834Y-127259814D01*
X174081156Y-127167712D01*
X174205212Y-127043656D01*
X174206143Y-127042145D01*
X174207219Y-127040403D01*
X174209176Y-127038642D01*
X174209693Y-127037989D01*
X174209804Y-127038077D01*
X174259166Y-126993678D01*
X174312757Y-126981500D01*
X178550952Y-126981500D01*
X178617991Y-127001185D01*
X178638628Y-127017814D01*
X178700861Y-127080047D01*
X178887266Y-127210568D01*
X178945275Y-127237618D01*
X178997714Y-127283791D01*
X179016866Y-127350984D01*
X178996650Y-127417865D01*
X178945275Y-127462382D01*
X178887267Y-127489431D01*
X178887265Y-127489432D01*
X178700858Y-127619954D01*
X178539954Y-127780858D01*
X178409432Y-127967265D01*
X178409431Y-127967267D01*
X178313261Y-128173502D01*
X178313258Y-128173511D01*
X178254366Y-128393302D01*
X178254364Y-128393313D01*
X178234532Y-128619998D01*
X178234532Y-128620001D01*
X178254364Y-128846686D01*
X178254366Y-128846697D01*
X178313258Y-129066488D01*
X178313261Y-129066497D01*
X178409431Y-129272732D01*
X178409432Y-129272734D01*
X178539954Y-129459141D01*
X178700858Y-129620045D01*
X178700861Y-129620047D01*
X178887266Y-129750568D01*
X178911186Y-129761722D01*
X178945275Y-129777618D01*
X178997714Y-129823791D01*
X179016866Y-129890984D01*
X178996650Y-129957865D01*
X178945275Y-130002382D01*
X178887267Y-130029431D01*
X178887265Y-130029432D01*
X178700858Y-130159954D01*
X178539954Y-130320858D01*
X178409432Y-130507265D01*
X178409431Y-130507267D01*
X178313261Y-130713502D01*
X178313258Y-130713511D01*
X178254366Y-130933302D01*
X178254364Y-130933313D01*
X178234532Y-131159998D01*
X178234532Y-131160001D01*
X178254364Y-131386686D01*
X178254366Y-131386697D01*
X178313258Y-131606488D01*
X178313261Y-131606497D01*
X178409431Y-131812732D01*
X178409432Y-131812734D01*
X178539954Y-131999141D01*
X178700858Y-132160045D01*
X178700861Y-132160047D01*
X178887266Y-132290568D01*
X178945275Y-132317618D01*
X178997714Y-132363791D01*
X179016866Y-132430984D01*
X178996650Y-132497865D01*
X178945275Y-132542382D01*
X178887267Y-132569431D01*
X178887265Y-132569432D01*
X178700858Y-132699954D01*
X178539954Y-132860858D01*
X178409432Y-133047265D01*
X178409431Y-133047267D01*
X178313261Y-133253502D01*
X178313258Y-133253511D01*
X178254366Y-133473302D01*
X178254364Y-133473313D01*
X178234532Y-133699998D01*
X178234532Y-133700001D01*
X178254364Y-133926686D01*
X178254366Y-133926697D01*
X178313258Y-134146488D01*
X178313261Y-134146497D01*
X178409431Y-134352732D01*
X178409432Y-134352734D01*
X178539954Y-134539141D01*
X178700858Y-134700045D01*
X178700861Y-134700047D01*
X178887266Y-134830568D01*
X178945275Y-134857618D01*
X178997714Y-134903791D01*
X179016866Y-134970984D01*
X178996650Y-135037865D01*
X178945275Y-135082382D01*
X178887267Y-135109431D01*
X178887265Y-135109432D01*
X178700858Y-135239954D01*
X178539954Y-135400858D01*
X178409432Y-135587265D01*
X178409431Y-135587267D01*
X178313261Y-135793502D01*
X178313258Y-135793511D01*
X178254366Y-136013302D01*
X178254364Y-136013313D01*
X178234532Y-136239998D01*
X178234532Y-136240001D01*
X178254364Y-136466686D01*
X178254366Y-136466697D01*
X178313258Y-136686488D01*
X178313261Y-136686497D01*
X178409431Y-136892732D01*
X178409432Y-136892734D01*
X178539954Y-137079141D01*
X178700858Y-137240045D01*
X178700861Y-137240047D01*
X178887266Y-137370568D01*
X178945275Y-137397618D01*
X178997714Y-137443791D01*
X179016866Y-137510984D01*
X178996650Y-137577865D01*
X178945275Y-137622382D01*
X178887267Y-137649431D01*
X178887265Y-137649432D01*
X178700858Y-137779954D01*
X178539954Y-137940858D01*
X178409432Y-138127265D01*
X178409431Y-138127267D01*
X178313261Y-138333502D01*
X178313258Y-138333511D01*
X178254366Y-138553302D01*
X178254364Y-138553313D01*
X178234532Y-138779998D01*
X178234532Y-138780001D01*
X178254364Y-139006686D01*
X178254366Y-139006697D01*
X178313258Y-139226488D01*
X178313261Y-139226497D01*
X178409431Y-139432732D01*
X178409432Y-139432734D01*
X178539954Y-139619141D01*
X178700858Y-139780045D01*
X178700861Y-139780047D01*
X178887266Y-139910568D01*
X178945275Y-139937618D01*
X178997714Y-139983791D01*
X179016866Y-140050984D01*
X178996650Y-140117865D01*
X178945275Y-140162382D01*
X178887267Y-140189431D01*
X178887265Y-140189432D01*
X178700858Y-140319954D01*
X178539954Y-140480858D01*
X178409432Y-140667265D01*
X178409431Y-140667267D01*
X178313261Y-140873502D01*
X178313258Y-140873511D01*
X178254366Y-141093302D01*
X178254364Y-141093313D01*
X178234532Y-141319998D01*
X178234532Y-141320001D01*
X178254364Y-141546686D01*
X178254366Y-141546697D01*
X178313258Y-141766488D01*
X178313261Y-141766497D01*
X178409431Y-141972732D01*
X178409432Y-141972734D01*
X178539954Y-142159141D01*
X178700858Y-142320045D01*
X178700861Y-142320047D01*
X178887266Y-142450568D01*
X178945275Y-142477618D01*
X178997714Y-142523791D01*
X179016866Y-142590984D01*
X178996650Y-142657865D01*
X178945275Y-142702382D01*
X178887267Y-142729431D01*
X178887265Y-142729432D01*
X178700858Y-142859954D01*
X178539954Y-143020858D01*
X178409432Y-143207265D01*
X178409431Y-143207267D01*
X178313261Y-143413502D01*
X178313258Y-143413511D01*
X178254366Y-143633302D01*
X178254364Y-143633313D01*
X178234532Y-143859998D01*
X178234532Y-143860001D01*
X178254364Y-144086686D01*
X178254366Y-144086697D01*
X178313258Y-144306488D01*
X178313261Y-144306497D01*
X178409431Y-144512732D01*
X178409432Y-144512734D01*
X178539954Y-144699141D01*
X178700858Y-144860045D01*
X178700861Y-144860047D01*
X178887266Y-144990568D01*
X179093504Y-145086739D01*
X179313308Y-145145635D01*
X179475230Y-145159801D01*
X179539998Y-145165468D01*
X179540000Y-145165468D01*
X179540002Y-145165468D01*
X179596673Y-145160509D01*
X179766692Y-145145635D01*
X179986496Y-145086739D01*
X180192734Y-144990568D01*
X180379139Y-144860047D01*
X180540047Y-144699139D01*
X180670568Y-144512734D01*
X180766739Y-144306496D01*
X180825635Y-144086692D01*
X180845468Y-143860000D01*
X180825635Y-143633308D01*
X180766739Y-143413504D01*
X180670568Y-143207266D01*
X180540047Y-143020861D01*
X180540045Y-143020858D01*
X180379141Y-142859954D01*
X180192734Y-142729432D01*
X180192728Y-142729429D01*
X180134725Y-142702382D01*
X180082285Y-142656210D01*
X180063133Y-142589017D01*
X180083348Y-142522135D01*
X180134725Y-142477618D01*
X180192734Y-142450568D01*
X180379139Y-142320047D01*
X180540047Y-142159139D01*
X180670568Y-141972734D01*
X180766739Y-141766496D01*
X180825635Y-141546692D01*
X180845468Y-141320000D01*
X180825635Y-141093308D01*
X180766739Y-140873504D01*
X180670568Y-140667266D01*
X180540047Y-140480861D01*
X180540045Y-140480858D01*
X180379141Y-140319954D01*
X180192734Y-140189432D01*
X180192728Y-140189429D01*
X180134725Y-140162382D01*
X180082285Y-140116210D01*
X180063133Y-140049017D01*
X180083348Y-139982135D01*
X180134725Y-139937618D01*
X180192734Y-139910568D01*
X180379139Y-139780047D01*
X180540047Y-139619139D01*
X180670568Y-139432734D01*
X180766739Y-139226496D01*
X180825635Y-139006692D01*
X180845468Y-138780000D01*
X180825635Y-138553308D01*
X180766739Y-138333504D01*
X180670568Y-138127266D01*
X180540047Y-137940861D01*
X180540045Y-137940858D01*
X180379141Y-137779954D01*
X180192734Y-137649432D01*
X180192728Y-137649429D01*
X180134725Y-137622382D01*
X180082285Y-137576210D01*
X180063133Y-137509017D01*
X180083348Y-137442135D01*
X180134725Y-137397618D01*
X180192734Y-137370568D01*
X180379139Y-137240047D01*
X180540047Y-137079139D01*
X180670568Y-136892734D01*
X180766739Y-136686496D01*
X180825635Y-136466692D01*
X180845468Y-136240000D01*
X180825635Y-136013308D01*
X180766739Y-135793504D01*
X180670568Y-135587266D01*
X180540047Y-135400861D01*
X180540045Y-135400858D01*
X180379141Y-135239954D01*
X180192734Y-135109432D01*
X180192728Y-135109429D01*
X180134725Y-135082382D01*
X180082285Y-135036210D01*
X180063133Y-134969017D01*
X180083348Y-134902135D01*
X180134725Y-134857618D01*
X180192734Y-134830568D01*
X180379139Y-134700047D01*
X180540047Y-134539139D01*
X180670568Y-134352734D01*
X180766739Y-134146496D01*
X180825635Y-133926692D01*
X180845468Y-133700000D01*
X180825635Y-133473308D01*
X180766739Y-133253504D01*
X180670568Y-133047266D01*
X180540047Y-132860861D01*
X180540045Y-132860858D01*
X180379141Y-132699954D01*
X180192734Y-132569432D01*
X180192728Y-132569429D01*
X180134725Y-132542382D01*
X180082285Y-132496210D01*
X180063133Y-132429017D01*
X180083348Y-132362135D01*
X180134725Y-132317618D01*
X180192734Y-132290568D01*
X180379139Y-132160047D01*
X180540047Y-131999139D01*
X180670568Y-131812734D01*
X180766739Y-131606496D01*
X180825635Y-131386692D01*
X180845468Y-131160000D01*
X180827084Y-130949878D01*
X180840850Y-130881382D01*
X180889465Y-130831199D01*
X180957494Y-130815265D01*
X181023338Y-130838640D01*
X181023497Y-130838756D01*
X181127265Y-130914148D01*
X181127270Y-130914151D01*
X181300192Y-130991142D01*
X181300197Y-130991144D01*
X181485354Y-131030500D01*
X181485355Y-131030500D01*
X181674644Y-131030500D01*
X181674646Y-131030500D01*
X181859803Y-130991144D01*
X182032730Y-130914151D01*
X182185871Y-130802888D01*
X182312533Y-130662216D01*
X182407179Y-130498284D01*
X182465674Y-130318256D01*
X182482321Y-130159859D01*
X182502539Y-130103934D01*
X182526465Y-130068127D01*
X182575501Y-129949744D01*
X182594440Y-129854532D01*
X182600500Y-129824069D01*
X182600500Y-127985931D01*
X182600500Y-127985928D01*
X182575502Y-127860261D01*
X182575501Y-127860260D01*
X182575501Y-127860256D01*
X182526465Y-127741873D01*
X182511516Y-127719500D01*
X182455277Y-127635331D01*
X182455275Y-127635328D01*
X182444808Y-127624861D01*
X182411323Y-127563538D01*
X182409168Y-127550140D01*
X182402787Y-127489429D01*
X182395674Y-127421744D01*
X182337179Y-127241716D01*
X182242533Y-127077784D01*
X182115871Y-126937112D01*
X182091136Y-126919141D01*
X181962734Y-126825851D01*
X181962729Y-126825848D01*
X181789807Y-126748857D01*
X181789802Y-126748855D01*
X181644001Y-126717865D01*
X181604646Y-126709500D01*
X181415354Y-126709500D01*
X181382897Y-126716398D01*
X181230197Y-126748855D01*
X181230192Y-126748857D01*
X181057270Y-126825848D01*
X181057265Y-126825851D01*
X180904129Y-126937111D01*
X180777466Y-127077785D01*
X180682821Y-127241715D01*
X180682818Y-127241722D01*
X180626124Y-127416210D01*
X180624326Y-127421744D01*
X180624326Y-127421745D01*
X180609330Y-127564422D01*
X180582745Y-127629037D01*
X180525447Y-127669021D01*
X180455628Y-127671681D01*
X180398328Y-127639141D01*
X180379141Y-127619954D01*
X180192734Y-127489432D01*
X180192728Y-127489429D01*
X180134725Y-127462382D01*
X180082285Y-127416210D01*
X180063133Y-127349017D01*
X180083348Y-127282135D01*
X180134725Y-127237618D01*
X180192734Y-127210568D01*
X180379139Y-127080047D01*
X180540047Y-126919139D01*
X180670568Y-126732734D01*
X180766739Y-126526496D01*
X180825635Y-126306692D01*
X180845468Y-126080000D01*
X180825635Y-125853308D01*
X180766739Y-125633504D01*
X180670568Y-125427266D01*
X180540047Y-125240861D01*
X180540045Y-125240858D01*
X180379141Y-125079954D01*
X180192734Y-124949432D01*
X180192728Y-124949429D01*
X180134725Y-124922382D01*
X180082285Y-124876210D01*
X180063133Y-124809017D01*
X180083348Y-124742135D01*
X180134725Y-124697618D01*
X180192734Y-124670568D01*
X180379139Y-124540047D01*
X180540047Y-124379139D01*
X180670568Y-124192734D01*
X180766739Y-123986496D01*
X180825635Y-123766692D01*
X180845468Y-123540000D01*
X180825635Y-123313308D01*
X180766739Y-123093504D01*
X180670568Y-122887266D01*
X180540047Y-122700861D01*
X180540045Y-122700858D01*
X180379141Y-122539954D01*
X180192734Y-122409432D01*
X180192728Y-122409429D01*
X180134725Y-122382382D01*
X180082285Y-122336210D01*
X180063133Y-122269017D01*
X180083348Y-122202135D01*
X180134725Y-122157618D01*
X180192734Y-122130568D01*
X180379139Y-122000047D01*
X180540047Y-121839139D01*
X180670568Y-121652734D01*
X180766739Y-121446496D01*
X180825635Y-121226692D01*
X180845468Y-121000000D01*
X180825635Y-120773308D01*
X180766739Y-120553504D01*
X180670568Y-120347266D01*
X180540047Y-120160861D01*
X180540045Y-120160858D01*
X180379141Y-119999954D01*
X180192734Y-119869432D01*
X180192728Y-119869429D01*
X180134725Y-119842382D01*
X180082285Y-119796210D01*
X180063133Y-119729017D01*
X180083348Y-119662135D01*
X180134725Y-119617618D01*
X180192734Y-119590568D01*
X180379139Y-119460047D01*
X180540047Y-119299139D01*
X180670568Y-119112734D01*
X180766739Y-118906496D01*
X180825635Y-118686692D01*
X180845468Y-118460000D01*
X180825635Y-118233308D01*
X180766739Y-118013504D01*
X180670568Y-117807266D01*
X180540047Y-117620861D01*
X180540045Y-117620858D01*
X180379141Y-117459954D01*
X180192734Y-117329432D01*
X180192728Y-117329429D01*
X180134725Y-117302382D01*
X180082285Y-117256210D01*
X180063133Y-117189017D01*
X180083348Y-117122135D01*
X180134725Y-117077618D01*
X180192734Y-117050568D01*
X180379139Y-116920047D01*
X180540047Y-116759139D01*
X180670568Y-116572734D01*
X180766739Y-116366496D01*
X180825635Y-116146692D01*
X180845468Y-115920000D01*
X180825635Y-115693308D01*
X180766739Y-115473504D01*
X180670568Y-115267266D01*
X180540047Y-115080861D01*
X180540045Y-115080858D01*
X180379141Y-114919954D01*
X180192734Y-114789432D01*
X180192728Y-114789429D01*
X180134725Y-114762382D01*
X180082285Y-114716210D01*
X180063133Y-114649017D01*
X180083348Y-114582135D01*
X180134725Y-114537618D01*
X180192734Y-114510568D01*
X180379139Y-114380047D01*
X180540047Y-114219139D01*
X180670568Y-114032734D01*
X180766739Y-113826496D01*
X180825635Y-113606692D01*
X180845468Y-113380000D01*
X180825635Y-113153308D01*
X180766739Y-112933504D01*
X180670568Y-112727266D01*
X180540047Y-112540861D01*
X180540045Y-112540858D01*
X180379141Y-112379954D01*
X180192734Y-112249432D01*
X180192728Y-112249429D01*
X180134725Y-112222382D01*
X180082285Y-112176210D01*
X180063133Y-112109017D01*
X180083348Y-112042135D01*
X180134725Y-111997618D01*
X180192734Y-111970568D01*
X180379139Y-111840047D01*
X180540047Y-111679139D01*
X180670568Y-111492734D01*
X180766739Y-111286496D01*
X180825635Y-111066692D01*
X180845468Y-110840000D01*
X180825635Y-110613308D01*
X180766739Y-110393504D01*
X180670568Y-110187266D01*
X180540047Y-110000861D01*
X180540045Y-110000858D01*
X180379141Y-109839954D01*
X180192734Y-109709432D01*
X180192728Y-109709429D01*
X180134725Y-109682382D01*
X180082285Y-109636210D01*
X180063133Y-109569017D01*
X180083348Y-109502135D01*
X180134725Y-109457618D01*
X180192734Y-109430568D01*
X180379139Y-109300047D01*
X180540047Y-109139139D01*
X180670568Y-108952734D01*
X180766739Y-108746496D01*
X180825635Y-108526692D01*
X180845468Y-108300000D01*
X180825635Y-108073308D01*
X180766739Y-107853504D01*
X180670568Y-107647266D01*
X180540047Y-107460861D01*
X180540045Y-107460858D01*
X180379141Y-107299954D01*
X180192734Y-107169432D01*
X180192728Y-107169429D01*
X180134725Y-107142382D01*
X180082285Y-107096210D01*
X180063133Y-107029017D01*
X180083348Y-106962135D01*
X180134725Y-106917618D01*
X180192734Y-106890568D01*
X180379139Y-106760047D01*
X180540047Y-106599139D01*
X180670568Y-106412734D01*
X180766739Y-106206496D01*
X180825635Y-105986692D01*
X180845468Y-105760000D01*
X180825635Y-105533308D01*
X180766739Y-105313504D01*
X180670568Y-105107266D01*
X180540047Y-104920861D01*
X180540045Y-104920858D01*
X180379141Y-104759954D01*
X180192734Y-104629432D01*
X180192728Y-104629429D01*
X180134725Y-104602382D01*
X180082285Y-104556210D01*
X180063133Y-104489017D01*
X180083348Y-104422135D01*
X180134725Y-104377618D01*
X180192734Y-104350568D01*
X180379139Y-104220047D01*
X180540047Y-104059139D01*
X180670568Y-103872734D01*
X180766739Y-103666496D01*
X180825635Y-103446692D01*
X180845468Y-103220000D01*
X180825635Y-102993308D01*
X180766739Y-102773504D01*
X180670568Y-102567266D01*
X180540047Y-102380861D01*
X180540045Y-102380858D01*
X180379141Y-102219954D01*
X180192734Y-102089432D01*
X180192728Y-102089429D01*
X180134725Y-102062382D01*
X180082285Y-102016210D01*
X180063133Y-101949017D01*
X180083348Y-101882135D01*
X180134725Y-101837618D01*
X180192734Y-101810568D01*
X180379139Y-101680047D01*
X180540047Y-101519139D01*
X180635108Y-101383377D01*
X180689685Y-101339752D01*
X180736683Y-101330500D01*
X181564071Y-101330500D01*
X181648615Y-101313682D01*
X181689744Y-101305501D01*
X181808127Y-101256465D01*
X181810836Y-101254654D01*
X181811772Y-101254030D01*
X181846991Y-101230497D01*
X181914669Y-101185277D01*
X182515798Y-100584148D01*
X183162819Y-99937128D01*
X183224142Y-99903643D01*
X183293834Y-99908627D01*
X183349767Y-99950499D01*
X183374184Y-100015963D01*
X183374500Y-100024809D01*
X183374500Y-146850500D01*
X183354815Y-146917539D01*
X183302011Y-146963294D01*
X183250500Y-146974500D01*
X161549500Y-146974500D01*
X161482461Y-146954815D01*
X161436706Y-146902011D01*
X161425500Y-146850500D01*
X161425500Y-98139998D01*
X162994532Y-98139998D01*
X162994532Y-98140001D01*
X163014364Y-98366686D01*
X163014366Y-98366697D01*
X163073258Y-98586488D01*
X163073261Y-98586497D01*
X163169431Y-98792732D01*
X163169432Y-98792734D01*
X163299954Y-98979141D01*
X163460858Y-99140045D01*
X163460861Y-99140047D01*
X163647266Y-99270568D01*
X163705275Y-99297618D01*
X163757714Y-99343791D01*
X163776866Y-99410984D01*
X163756650Y-99477865D01*
X163705275Y-99522382D01*
X163647267Y-99549431D01*
X163647265Y-99549432D01*
X163460858Y-99679954D01*
X163299954Y-99840858D01*
X163169432Y-100027265D01*
X163169431Y-100027267D01*
X163073261Y-100233502D01*
X163073258Y-100233511D01*
X163014366Y-100453302D01*
X163014364Y-100453313D01*
X162994532Y-100679998D01*
X162994532Y-100680001D01*
X163014364Y-100906686D01*
X163014366Y-100906697D01*
X163073258Y-101126488D01*
X163073261Y-101126497D01*
X163169431Y-101332732D01*
X163169432Y-101332734D01*
X163299954Y-101519141D01*
X163460858Y-101680045D01*
X163460861Y-101680047D01*
X163647266Y-101810568D01*
X163705275Y-101837618D01*
X163757714Y-101883791D01*
X163776866Y-101950984D01*
X163756650Y-102017865D01*
X163705275Y-102062382D01*
X163647267Y-102089431D01*
X163647265Y-102089432D01*
X163460858Y-102219954D01*
X163299954Y-102380858D01*
X163169432Y-102567265D01*
X163169431Y-102567267D01*
X163073261Y-102773502D01*
X163073258Y-102773511D01*
X163014366Y-102993302D01*
X163014364Y-102993313D01*
X162994532Y-103219998D01*
X162994532Y-103220001D01*
X163014364Y-103446686D01*
X163014366Y-103446697D01*
X163073258Y-103666488D01*
X163073261Y-103666497D01*
X163169431Y-103872732D01*
X163169432Y-103872734D01*
X163299954Y-104059141D01*
X163460858Y-104220045D01*
X163460861Y-104220047D01*
X163647266Y-104350568D01*
X163705275Y-104377618D01*
X163757714Y-104423791D01*
X163776866Y-104490984D01*
X163756650Y-104557865D01*
X163705275Y-104602382D01*
X163647267Y-104629431D01*
X163647265Y-104629432D01*
X163460858Y-104759954D01*
X163299954Y-104920858D01*
X163169432Y-105107265D01*
X163169431Y-105107267D01*
X163073261Y-105313502D01*
X163073258Y-105313511D01*
X163014366Y-105533302D01*
X163014364Y-105533313D01*
X162994532Y-105759998D01*
X162994532Y-105760001D01*
X163014364Y-105986686D01*
X163014366Y-105986697D01*
X163073258Y-106206488D01*
X163073261Y-106206497D01*
X163169431Y-106412732D01*
X163169432Y-106412734D01*
X163299954Y-106599141D01*
X163460858Y-106760045D01*
X163460861Y-106760047D01*
X163647266Y-106890568D01*
X163705275Y-106917618D01*
X163757714Y-106963791D01*
X163776866Y-107030984D01*
X163756650Y-107097865D01*
X163705275Y-107142382D01*
X163647267Y-107169431D01*
X163647265Y-107169432D01*
X163460858Y-107299954D01*
X163299954Y-107460858D01*
X163169432Y-107647265D01*
X163169431Y-107647267D01*
X163073261Y-107853502D01*
X163073258Y-107853511D01*
X163014366Y-108073302D01*
X163014364Y-108073313D01*
X162994532Y-108299998D01*
X162994532Y-108300001D01*
X163014364Y-108526686D01*
X163014366Y-108526697D01*
X163073258Y-108746488D01*
X163073261Y-108746497D01*
X163169431Y-108952732D01*
X163169432Y-108952734D01*
X163299954Y-109139141D01*
X163460858Y-109300045D01*
X163460861Y-109300047D01*
X163647266Y-109430568D01*
X163705275Y-109457618D01*
X163757714Y-109503791D01*
X163776866Y-109570984D01*
X163756650Y-109637865D01*
X163705275Y-109682382D01*
X163647267Y-109709431D01*
X163647265Y-109709432D01*
X163460858Y-109839954D01*
X163299954Y-110000858D01*
X163169432Y-110187265D01*
X163169431Y-110187267D01*
X163073261Y-110393502D01*
X163073258Y-110393511D01*
X163014366Y-110613302D01*
X163014364Y-110613313D01*
X162994532Y-110839998D01*
X162994532Y-110840001D01*
X163014364Y-111066686D01*
X163014366Y-111066697D01*
X163073258Y-111286488D01*
X163073261Y-111286497D01*
X163169431Y-111492732D01*
X163169432Y-111492734D01*
X163299954Y-111679141D01*
X163460858Y-111840045D01*
X163460861Y-111840047D01*
X163647266Y-111970568D01*
X163705275Y-111997618D01*
X163757714Y-112043791D01*
X163776866Y-112110984D01*
X163756650Y-112177865D01*
X163705275Y-112222382D01*
X163647267Y-112249431D01*
X163647265Y-112249432D01*
X163460858Y-112379954D01*
X163299954Y-112540858D01*
X163169432Y-112727265D01*
X163169431Y-112727267D01*
X163073261Y-112933502D01*
X163073258Y-112933511D01*
X163014366Y-113153302D01*
X163014364Y-113153313D01*
X162994532Y-113379998D01*
X162994532Y-113380001D01*
X163014364Y-113606686D01*
X163014366Y-113606697D01*
X163073258Y-113826488D01*
X163073261Y-113826497D01*
X163169431Y-114032732D01*
X163169432Y-114032734D01*
X163299954Y-114219141D01*
X163460858Y-114380045D01*
X163460861Y-114380047D01*
X163647266Y-114510568D01*
X163705275Y-114537618D01*
X163757714Y-114583791D01*
X163776866Y-114650984D01*
X163756650Y-114717865D01*
X163705275Y-114762382D01*
X163647267Y-114789431D01*
X163647265Y-114789432D01*
X163460858Y-114919954D01*
X163299954Y-115080858D01*
X163169432Y-115267265D01*
X163169431Y-115267267D01*
X163073261Y-115473502D01*
X163073258Y-115473511D01*
X163014366Y-115693302D01*
X163014364Y-115693313D01*
X162994532Y-115919998D01*
X162994532Y-115920001D01*
X163014364Y-116146686D01*
X163014366Y-116146697D01*
X163073258Y-116366488D01*
X163073261Y-116366497D01*
X163169431Y-116572732D01*
X163169432Y-116572734D01*
X163299954Y-116759141D01*
X163460858Y-116920045D01*
X163460861Y-116920047D01*
X163647266Y-117050568D01*
X163705275Y-117077618D01*
X163757714Y-117123791D01*
X163776866Y-117190984D01*
X163756650Y-117257865D01*
X163705275Y-117302382D01*
X163647267Y-117329431D01*
X163647265Y-117329432D01*
X163460858Y-117459954D01*
X163299954Y-117620858D01*
X163169432Y-117807265D01*
X163169431Y-117807267D01*
X163073261Y-118013502D01*
X163073258Y-118013511D01*
X163014366Y-118233302D01*
X163014364Y-118233313D01*
X162994532Y-118459998D01*
X162994532Y-118460001D01*
X163014364Y-118686686D01*
X163014366Y-118686697D01*
X163073258Y-118906488D01*
X163073261Y-118906497D01*
X163169431Y-119112732D01*
X163169432Y-119112734D01*
X163299954Y-119299141D01*
X163460858Y-119460045D01*
X163460861Y-119460047D01*
X163647266Y-119590568D01*
X163705275Y-119617618D01*
X163757714Y-119663791D01*
X163776866Y-119730984D01*
X163756650Y-119797865D01*
X163705275Y-119842382D01*
X163647267Y-119869431D01*
X163647265Y-119869432D01*
X163460858Y-119999954D01*
X163299954Y-120160858D01*
X163169432Y-120347265D01*
X163169431Y-120347267D01*
X163073261Y-120553502D01*
X163073258Y-120553511D01*
X163014366Y-120773302D01*
X163014364Y-120773313D01*
X162994532Y-120999998D01*
X162994532Y-121000001D01*
X163014364Y-121226686D01*
X163014366Y-121226697D01*
X163073258Y-121446488D01*
X163073261Y-121446497D01*
X163169431Y-121652732D01*
X163169432Y-121652734D01*
X163299954Y-121839141D01*
X163460858Y-122000045D01*
X163460861Y-122000047D01*
X163647266Y-122130568D01*
X163705275Y-122157618D01*
X163757714Y-122203791D01*
X163776866Y-122270984D01*
X163756650Y-122337865D01*
X163705275Y-122382382D01*
X163647267Y-122409431D01*
X163647265Y-122409432D01*
X163460858Y-122539954D01*
X163299954Y-122700858D01*
X163169432Y-122887265D01*
X163169431Y-122887267D01*
X163073261Y-123093502D01*
X163073258Y-123093511D01*
X163014366Y-123313302D01*
X163014364Y-123313313D01*
X162994532Y-123539998D01*
X162994532Y-123540001D01*
X163014364Y-123766686D01*
X163014366Y-123766697D01*
X163073258Y-123986488D01*
X163073261Y-123986497D01*
X163169431Y-124192732D01*
X163169432Y-124192734D01*
X163299954Y-124379141D01*
X163460858Y-124540045D01*
X163460861Y-124540047D01*
X163647266Y-124670568D01*
X163705275Y-124697618D01*
X163757714Y-124743791D01*
X163776866Y-124810984D01*
X163756650Y-124877865D01*
X163705275Y-124922382D01*
X163647267Y-124949431D01*
X163647265Y-124949432D01*
X163460858Y-125079954D01*
X163299954Y-125240858D01*
X163169432Y-125427265D01*
X163169431Y-125427267D01*
X163073261Y-125633502D01*
X163073258Y-125633511D01*
X163014366Y-125853302D01*
X163014364Y-125853313D01*
X162994532Y-126079998D01*
X162994532Y-126080001D01*
X163014364Y-126306686D01*
X163014366Y-126306697D01*
X163073258Y-126526488D01*
X163073261Y-126526497D01*
X163169431Y-126732732D01*
X163169432Y-126732734D01*
X163299954Y-126919141D01*
X163460858Y-127080045D01*
X163460861Y-127080047D01*
X163647266Y-127210568D01*
X163705275Y-127237618D01*
X163757714Y-127283791D01*
X163776866Y-127350984D01*
X163756650Y-127417865D01*
X163705275Y-127462382D01*
X163647267Y-127489431D01*
X163647265Y-127489432D01*
X163460858Y-127619954D01*
X163299954Y-127780858D01*
X163169432Y-127967265D01*
X163169431Y-127967267D01*
X163073261Y-128173502D01*
X163073258Y-128173511D01*
X163014366Y-128393302D01*
X163014364Y-128393313D01*
X162994532Y-128619998D01*
X162994532Y-128620001D01*
X163014364Y-128846686D01*
X163014366Y-128846697D01*
X163073258Y-129066488D01*
X163073261Y-129066497D01*
X163169431Y-129272732D01*
X163169432Y-129272734D01*
X163299954Y-129459141D01*
X163460858Y-129620045D01*
X163460861Y-129620047D01*
X163647266Y-129750568D01*
X163671186Y-129761722D01*
X163705275Y-129777618D01*
X163757714Y-129823791D01*
X163776866Y-129890984D01*
X163756650Y-129957865D01*
X163705275Y-130002382D01*
X163647267Y-130029431D01*
X163647265Y-130029432D01*
X163460858Y-130159954D01*
X163299954Y-130320858D01*
X163169432Y-130507265D01*
X163169431Y-130507267D01*
X163073261Y-130713502D01*
X163073258Y-130713511D01*
X163014366Y-130933302D01*
X163014364Y-130933313D01*
X162994532Y-131159998D01*
X162994532Y-131160001D01*
X163014364Y-131386686D01*
X163014366Y-131386697D01*
X163073258Y-131606488D01*
X163073261Y-131606497D01*
X163169431Y-131812732D01*
X163169432Y-131812734D01*
X163299954Y-131999141D01*
X163460858Y-132160045D01*
X163460861Y-132160047D01*
X163647266Y-132290568D01*
X163705275Y-132317618D01*
X163757714Y-132363791D01*
X163776866Y-132430984D01*
X163756650Y-132497865D01*
X163705275Y-132542382D01*
X163647267Y-132569431D01*
X163647265Y-132569432D01*
X163460858Y-132699954D01*
X163299954Y-132860858D01*
X163169432Y-133047265D01*
X163169431Y-133047267D01*
X163073261Y-133253502D01*
X163073258Y-133253511D01*
X163014366Y-133473302D01*
X163014364Y-133473313D01*
X162994532Y-133699998D01*
X162994532Y-133700001D01*
X163014364Y-133926686D01*
X163014366Y-133926697D01*
X163073258Y-134146488D01*
X163073261Y-134146497D01*
X163169431Y-134352732D01*
X163169432Y-134352734D01*
X163299954Y-134539141D01*
X163460858Y-134700045D01*
X163460861Y-134700047D01*
X163647266Y-134830568D01*
X163705275Y-134857618D01*
X163757714Y-134903791D01*
X163776866Y-134970984D01*
X163756650Y-135037865D01*
X163705275Y-135082382D01*
X163647267Y-135109431D01*
X163647265Y-135109432D01*
X163460858Y-135239954D01*
X163299954Y-135400858D01*
X163169432Y-135587265D01*
X163169431Y-135587267D01*
X163073261Y-135793502D01*
X163073258Y-135793511D01*
X163014366Y-136013302D01*
X163014364Y-136013313D01*
X162994532Y-136239998D01*
X162994532Y-136240001D01*
X163014364Y-136466686D01*
X163014366Y-136466697D01*
X163073258Y-136686488D01*
X163073261Y-136686497D01*
X163169431Y-136892732D01*
X163169432Y-136892734D01*
X163299954Y-137079141D01*
X163460858Y-137240045D01*
X163460861Y-137240047D01*
X163647266Y-137370568D01*
X163705275Y-137397618D01*
X163757714Y-137443791D01*
X163776866Y-137510984D01*
X163756650Y-137577865D01*
X163705275Y-137622382D01*
X163647267Y-137649431D01*
X163647265Y-137649432D01*
X163460858Y-137779954D01*
X163299954Y-137940858D01*
X163169432Y-138127265D01*
X163169431Y-138127267D01*
X163073261Y-138333502D01*
X163073258Y-138333511D01*
X163014366Y-138553302D01*
X163014364Y-138553313D01*
X162994532Y-138779998D01*
X162994532Y-138780001D01*
X163014364Y-139006686D01*
X163014366Y-139006697D01*
X163073258Y-139226488D01*
X163073261Y-139226497D01*
X163169431Y-139432732D01*
X163169432Y-139432734D01*
X163299954Y-139619141D01*
X163460858Y-139780045D01*
X163460861Y-139780047D01*
X163647266Y-139910568D01*
X163705275Y-139937618D01*
X163757714Y-139983791D01*
X163776866Y-140050984D01*
X163756650Y-140117865D01*
X163705275Y-140162382D01*
X163647267Y-140189431D01*
X163647265Y-140189432D01*
X163460858Y-140319954D01*
X163299954Y-140480858D01*
X163169432Y-140667265D01*
X163169431Y-140667267D01*
X163073261Y-140873502D01*
X163073258Y-140873511D01*
X163014366Y-141093302D01*
X163014364Y-141093313D01*
X162994532Y-141319998D01*
X162994532Y-141320001D01*
X163014364Y-141546686D01*
X163014366Y-141546697D01*
X163073258Y-141766488D01*
X163073261Y-141766497D01*
X163169431Y-141972732D01*
X163169432Y-141972734D01*
X163299954Y-142159141D01*
X163460858Y-142320045D01*
X163460861Y-142320047D01*
X163647266Y-142450568D01*
X163705275Y-142477618D01*
X163757714Y-142523791D01*
X163776866Y-142590984D01*
X163756650Y-142657865D01*
X163705275Y-142702382D01*
X163647267Y-142729431D01*
X163647265Y-142729432D01*
X163460858Y-142859954D01*
X163299954Y-143020858D01*
X163169432Y-143207265D01*
X163169431Y-143207267D01*
X163073261Y-143413502D01*
X163073258Y-143413511D01*
X163014366Y-143633302D01*
X163014364Y-143633313D01*
X162994532Y-143859998D01*
X162994532Y-143860001D01*
X163014364Y-144086686D01*
X163014366Y-144086697D01*
X163073258Y-144306488D01*
X163073261Y-144306497D01*
X163169431Y-144512732D01*
X163169432Y-144512734D01*
X163299954Y-144699141D01*
X163460858Y-144860045D01*
X163460861Y-144860047D01*
X163647266Y-144990568D01*
X163853504Y-145086739D01*
X164073308Y-145145635D01*
X164235230Y-145159801D01*
X164299998Y-145165468D01*
X164300000Y-145165468D01*
X164300002Y-145165468D01*
X164356673Y-145160509D01*
X164526692Y-145145635D01*
X164746496Y-145086739D01*
X164952734Y-144990568D01*
X165139139Y-144860047D01*
X165300047Y-144699139D01*
X165430568Y-144512734D01*
X165526739Y-144306496D01*
X165585635Y-144086692D01*
X165605468Y-143860000D01*
X165585635Y-143633308D01*
X165526739Y-143413504D01*
X165430568Y-143207266D01*
X165300047Y-143020861D01*
X165300045Y-143020858D01*
X165139141Y-142859954D01*
X164952734Y-142729432D01*
X164952728Y-142729429D01*
X164894725Y-142702382D01*
X164842285Y-142656210D01*
X164823133Y-142589017D01*
X164843348Y-142522135D01*
X164894725Y-142477618D01*
X164952734Y-142450568D01*
X165139139Y-142320047D01*
X165300047Y-142159139D01*
X165430568Y-141972734D01*
X165526739Y-141766496D01*
X165585635Y-141546692D01*
X165605468Y-141320000D01*
X165585635Y-141093308D01*
X165526739Y-140873504D01*
X165430568Y-140667266D01*
X165300047Y-140480861D01*
X165300045Y-140480858D01*
X165139141Y-140319954D01*
X164952734Y-140189432D01*
X164952728Y-140189429D01*
X164894725Y-140162382D01*
X164842285Y-140116210D01*
X164823133Y-140049017D01*
X164843348Y-139982135D01*
X164894725Y-139937618D01*
X164952734Y-139910568D01*
X165139139Y-139780047D01*
X165300047Y-139619139D01*
X165430568Y-139432734D01*
X165526739Y-139226496D01*
X165585635Y-139006692D01*
X165605468Y-138780000D01*
X165585635Y-138553308D01*
X165526739Y-138333504D01*
X165430568Y-138127266D01*
X165300047Y-137940861D01*
X165300045Y-137940858D01*
X165139141Y-137779954D01*
X164952734Y-137649432D01*
X164952728Y-137649429D01*
X164894725Y-137622382D01*
X164842285Y-137576210D01*
X164823133Y-137509017D01*
X164843348Y-137442135D01*
X164894725Y-137397618D01*
X164952734Y-137370568D01*
X165139139Y-137240047D01*
X165300047Y-137079139D01*
X165430568Y-136892734D01*
X165526739Y-136686496D01*
X165585635Y-136466692D01*
X165605468Y-136240000D01*
X165585635Y-136013308D01*
X165526739Y-135793504D01*
X165430568Y-135587266D01*
X165300047Y-135400861D01*
X165300045Y-135400858D01*
X165139141Y-135239954D01*
X164952734Y-135109432D01*
X164952728Y-135109429D01*
X164894725Y-135082382D01*
X164842285Y-135036210D01*
X164823133Y-134969017D01*
X164843348Y-134902135D01*
X164894725Y-134857618D01*
X164952734Y-134830568D01*
X165139139Y-134700047D01*
X165300047Y-134539139D01*
X165430568Y-134352734D01*
X165526739Y-134146496D01*
X165585635Y-133926692D01*
X165605468Y-133700000D01*
X165585635Y-133473308D01*
X165526739Y-133253504D01*
X165430568Y-133047266D01*
X165300047Y-132860861D01*
X165300045Y-132860858D01*
X165139141Y-132699954D01*
X164952734Y-132569432D01*
X164952728Y-132569429D01*
X164894725Y-132542382D01*
X164842285Y-132496210D01*
X164823133Y-132429017D01*
X164843348Y-132362135D01*
X164894725Y-132317618D01*
X164952734Y-132290568D01*
X165139139Y-132160047D01*
X165300047Y-131999139D01*
X165430568Y-131812734D01*
X165526739Y-131606496D01*
X165585635Y-131386692D01*
X165605468Y-131160000D01*
X165585635Y-130933308D01*
X165526739Y-130713504D01*
X165430568Y-130507266D01*
X165300047Y-130320861D01*
X165300045Y-130320858D01*
X165139141Y-130159954D01*
X164952734Y-130029432D01*
X164952728Y-130029429D01*
X164894725Y-130002382D01*
X164842285Y-129956210D01*
X164823133Y-129889017D01*
X164843348Y-129822135D01*
X164894725Y-129777618D01*
X164952734Y-129750568D01*
X165139139Y-129620047D01*
X165300047Y-129459139D01*
X165430568Y-129272734D01*
X165526739Y-129066496D01*
X165585635Y-128846692D01*
X165605468Y-128620000D01*
X165602189Y-128582526D01*
X165587712Y-128417050D01*
X165585635Y-128393308D01*
X165526739Y-128173504D01*
X165430568Y-127967266D01*
X165300047Y-127780861D01*
X165300045Y-127780858D01*
X165139141Y-127619954D01*
X164952734Y-127489432D01*
X164952728Y-127489429D01*
X164894725Y-127462382D01*
X164842285Y-127416210D01*
X164823133Y-127349017D01*
X164843348Y-127282135D01*
X164894725Y-127237618D01*
X164952734Y-127210568D01*
X165139139Y-127080047D01*
X165300047Y-126919139D01*
X165430568Y-126732734D01*
X165480812Y-126624986D01*
X170112501Y-126624986D01*
X170122994Y-126727697D01*
X170178141Y-126894119D01*
X170178143Y-126894124D01*
X170270184Y-127043345D01*
X170394154Y-127167315D01*
X170543375Y-127259356D01*
X170543380Y-127259358D01*
X170709802Y-127314505D01*
X170709809Y-127314506D01*
X170812519Y-127324999D01*
X170949999Y-127324999D01*
X170950000Y-127324998D01*
X170950000Y-126350000D01*
X170112501Y-126350000D01*
X170112501Y-126624986D01*
X165480812Y-126624986D01*
X165526739Y-126526496D01*
X165585635Y-126306692D01*
X165605468Y-126080000D01*
X165585635Y-125853308D01*
X165526739Y-125633504D01*
X165499464Y-125575013D01*
X170112500Y-125575013D01*
X170112500Y-125850000D01*
X170950000Y-125850000D01*
X170950000Y-124875000D01*
X170812527Y-124875000D01*
X170812512Y-124875001D01*
X170709802Y-124885494D01*
X170543380Y-124940641D01*
X170543375Y-124940643D01*
X170394154Y-125032684D01*
X170270184Y-125156654D01*
X170178143Y-125305875D01*
X170178141Y-125305880D01*
X170122994Y-125472302D01*
X170122993Y-125472309D01*
X170112500Y-125575013D01*
X165499464Y-125575013D01*
X165430568Y-125427266D01*
X165300047Y-125240861D01*
X165300045Y-125240858D01*
X165139141Y-125079954D01*
X164952734Y-124949432D01*
X164952728Y-124949429D01*
X164894725Y-124922382D01*
X164842285Y-124876210D01*
X164823133Y-124809017D01*
X164843348Y-124742135D01*
X164894725Y-124697618D01*
X164952734Y-124670568D01*
X165139139Y-124540047D01*
X165300047Y-124379139D01*
X165430568Y-124192734D01*
X165526739Y-123986496D01*
X165585635Y-123766692D01*
X165605468Y-123540000D01*
X165585635Y-123313308D01*
X165526739Y-123093504D01*
X165430568Y-122887266D01*
X165300047Y-122700861D01*
X165300045Y-122700858D01*
X165139141Y-122539954D01*
X164952734Y-122409432D01*
X164952728Y-122409429D01*
X164894725Y-122382382D01*
X164842285Y-122336210D01*
X164823133Y-122269017D01*
X164843348Y-122202135D01*
X164894725Y-122157618D01*
X164952734Y-122130568D01*
X165139139Y-122000047D01*
X165300047Y-121839139D01*
X165430568Y-121652734D01*
X165526739Y-121446496D01*
X165585635Y-121226692D01*
X165605468Y-121000000D01*
X165585635Y-120773308D01*
X165526739Y-120553504D01*
X165430568Y-120347266D01*
X165300047Y-120160861D01*
X165300045Y-120160858D01*
X165139141Y-119999954D01*
X164952734Y-119869432D01*
X164952728Y-119869429D01*
X164894725Y-119842382D01*
X164842285Y-119796210D01*
X164823133Y-119729017D01*
X164843348Y-119662135D01*
X164894725Y-119617618D01*
X164952734Y-119590568D01*
X165139139Y-119460047D01*
X165300047Y-119299139D01*
X165430568Y-119112734D01*
X165526739Y-118906496D01*
X165585635Y-118686692D01*
X165605468Y-118460000D01*
X165585635Y-118233308D01*
X165526739Y-118013504D01*
X165430568Y-117807266D01*
X165300047Y-117620861D01*
X165300045Y-117620858D01*
X165139141Y-117459954D01*
X164952734Y-117329432D01*
X164952728Y-117329429D01*
X164894725Y-117302382D01*
X164842285Y-117256210D01*
X164823133Y-117189017D01*
X164843348Y-117122135D01*
X164894725Y-117077618D01*
X164952734Y-117050568D01*
X165139139Y-116920047D01*
X165300047Y-116759139D01*
X165430568Y-116572734D01*
X165526739Y-116366496D01*
X165585635Y-116146692D01*
X165605468Y-115920000D01*
X165585635Y-115693308D01*
X165526739Y-115473504D01*
X165430568Y-115267266D01*
X165300047Y-115080861D01*
X165300045Y-115080858D01*
X165139141Y-114919954D01*
X164952734Y-114789432D01*
X164952728Y-114789429D01*
X164894725Y-114762382D01*
X164842285Y-114716210D01*
X164823133Y-114649017D01*
X164843348Y-114582135D01*
X164894725Y-114537618D01*
X164952734Y-114510568D01*
X165139139Y-114380047D01*
X165300047Y-114219139D01*
X165430568Y-114032734D01*
X165526739Y-113826496D01*
X165585635Y-113606692D01*
X165605468Y-113380000D01*
X165585635Y-113153308D01*
X165526739Y-112933504D01*
X165430568Y-112727266D01*
X165300047Y-112540861D01*
X165300045Y-112540858D01*
X165139141Y-112379954D01*
X164952734Y-112249432D01*
X164952728Y-112249429D01*
X164894725Y-112222382D01*
X164842285Y-112176210D01*
X164823133Y-112109017D01*
X164843348Y-112042135D01*
X164894725Y-111997618D01*
X164952734Y-111970568D01*
X165139139Y-111840047D01*
X165300047Y-111679139D01*
X165430568Y-111492734D01*
X165526739Y-111286496D01*
X165585635Y-111066692D01*
X165605468Y-110840000D01*
X165585635Y-110613308D01*
X165526739Y-110393504D01*
X165430568Y-110187266D01*
X165300047Y-110000861D01*
X165300045Y-110000858D01*
X165139141Y-109839954D01*
X164952734Y-109709432D01*
X164952728Y-109709429D01*
X164894725Y-109682382D01*
X164842285Y-109636210D01*
X164823133Y-109569017D01*
X164843348Y-109502135D01*
X164894725Y-109457618D01*
X164952734Y-109430568D01*
X165139139Y-109300047D01*
X165300047Y-109139139D01*
X165430568Y-108952734D01*
X165526739Y-108746496D01*
X165585635Y-108526692D01*
X165605468Y-108300000D01*
X165585635Y-108073308D01*
X165526739Y-107853504D01*
X165430568Y-107647266D01*
X165300047Y-107460861D01*
X165300045Y-107460858D01*
X165139141Y-107299954D01*
X164952734Y-107169432D01*
X164952728Y-107169429D01*
X164894725Y-107142382D01*
X164842285Y-107096210D01*
X164823133Y-107029017D01*
X164843348Y-106962135D01*
X164894725Y-106917618D01*
X164952734Y-106890568D01*
X165139139Y-106760047D01*
X165300047Y-106599139D01*
X165430568Y-106412734D01*
X165526739Y-106206496D01*
X165585635Y-105986692D01*
X165605468Y-105760000D01*
X165585635Y-105533308D01*
X165526739Y-105313504D01*
X165430568Y-105107266D01*
X165300047Y-104920861D01*
X165300045Y-104920858D01*
X165139141Y-104759954D01*
X164952734Y-104629432D01*
X164952728Y-104629429D01*
X164894725Y-104602382D01*
X164842285Y-104556210D01*
X164823133Y-104489017D01*
X164843348Y-104422135D01*
X164894725Y-104377618D01*
X164952734Y-104350568D01*
X165139139Y-104220047D01*
X165300047Y-104059139D01*
X165430568Y-103872734D01*
X165526739Y-103666496D01*
X165585635Y-103446692D01*
X165605468Y-103220000D01*
X165585635Y-102993308D01*
X165526739Y-102773504D01*
X165430568Y-102567266D01*
X165300047Y-102380861D01*
X165300045Y-102380858D01*
X165139141Y-102219954D01*
X164952734Y-102089432D01*
X164952728Y-102089429D01*
X164894725Y-102062382D01*
X164842285Y-102016210D01*
X164823133Y-101949017D01*
X164843348Y-101882135D01*
X164894725Y-101837618D01*
X164952734Y-101810568D01*
X165139139Y-101680047D01*
X165300047Y-101519139D01*
X165430568Y-101332734D01*
X165526739Y-101126496D01*
X165585635Y-100906692D01*
X165602634Y-100712384D01*
X165605468Y-100680001D01*
X165605468Y-100679998D01*
X165597082Y-100584148D01*
X165585635Y-100453308D01*
X165526739Y-100233504D01*
X165430568Y-100027266D01*
X165300047Y-99840861D01*
X165300045Y-99840858D01*
X165139141Y-99679954D01*
X164952734Y-99549432D01*
X164952728Y-99549429D01*
X164894725Y-99522382D01*
X164842285Y-99476210D01*
X164823133Y-99409017D01*
X164843348Y-99342135D01*
X164894725Y-99297618D01*
X164952734Y-99270568D01*
X165139139Y-99140047D01*
X165300047Y-98979139D01*
X165430568Y-98792734D01*
X165526739Y-98586496D01*
X165585635Y-98366692D01*
X165605468Y-98140000D01*
X165585635Y-97913308D01*
X165526739Y-97693504D01*
X165430568Y-97487266D01*
X165300047Y-97300861D01*
X165300045Y-97300858D01*
X165139143Y-97139956D01*
X165113912Y-97122289D01*
X165070287Y-97067712D01*
X165063095Y-96998213D01*
X165094617Y-96935859D01*
X165154847Y-96900445D01*
X165171781Y-96897424D01*
X165207380Y-96893596D01*
X165342086Y-96843354D01*
X165342093Y-96843350D01*
X165457187Y-96757190D01*
X165457190Y-96757187D01*
X165543350Y-96642093D01*
X165543354Y-96642086D01*
X165593596Y-96507379D01*
X165593598Y-96507372D01*
X165599999Y-96447844D01*
X165600000Y-96447827D01*
X165600000Y-95850000D01*
X164615686Y-95850000D01*
X164620080Y-95845606D01*
X164672741Y-95754394D01*
X164700000Y-95652661D01*
X164700000Y-95547339D01*
X164672741Y-95445606D01*
X164620080Y-95354394D01*
X164615686Y-95350000D01*
X165600000Y-95350000D01*
X165600000Y-94752172D01*
X165599999Y-94752155D01*
X165593598Y-94692627D01*
X165593596Y-94692620D01*
X165543354Y-94557913D01*
X165543350Y-94557906D01*
X165457190Y-94442812D01*
X165457187Y-94442809D01*
X165342093Y-94356649D01*
X165342086Y-94356645D01*
X165207379Y-94306403D01*
X165207372Y-94306401D01*
X165147844Y-94300000D01*
X164550000Y-94300000D01*
X164550000Y-95284314D01*
X164545606Y-95279920D01*
X164454394Y-95227259D01*
X164352661Y-95200000D01*
X164247339Y-95200000D01*
X164145606Y-95227259D01*
X164054394Y-95279920D01*
X164050000Y-95284314D01*
X164050000Y-94300000D01*
X163452155Y-94300000D01*
X163392627Y-94306401D01*
X163392620Y-94306403D01*
X163257913Y-94356645D01*
X163257906Y-94356649D01*
X163142812Y-94442809D01*
X163142809Y-94442812D01*
X163056649Y-94557906D01*
X163056645Y-94557913D01*
X163006403Y-94692620D01*
X163006401Y-94692627D01*
X163000000Y-94752155D01*
X163000000Y-95350000D01*
X163984314Y-95350000D01*
X163979920Y-95354394D01*
X163927259Y-95445606D01*
X163900000Y-95547339D01*
X163900000Y-95652661D01*
X163927259Y-95754394D01*
X163979920Y-95845606D01*
X163984314Y-95850000D01*
X163000000Y-95850000D01*
X163000000Y-96447844D01*
X163006401Y-96507372D01*
X163006403Y-96507379D01*
X163056645Y-96642086D01*
X163056649Y-96642093D01*
X163142809Y-96757187D01*
X163142812Y-96757190D01*
X163257906Y-96843350D01*
X163257913Y-96843354D01*
X163392620Y-96893596D01*
X163392627Y-96893598D01*
X163428218Y-96897425D01*
X163492769Y-96924163D01*
X163532618Y-96981555D01*
X163535111Y-97051380D01*
X163499459Y-97111469D01*
X163486088Y-97122287D01*
X163460861Y-97139951D01*
X163299954Y-97300858D01*
X163169432Y-97487265D01*
X163169431Y-97487267D01*
X163073261Y-97693502D01*
X163073258Y-97693511D01*
X163014366Y-97913302D01*
X163014364Y-97913313D01*
X162994532Y-98139998D01*
X161425500Y-98139998D01*
X161425500Y-58649500D01*
X161445185Y-58582461D01*
X161497989Y-58536706D01*
X161549500Y-58525500D01*
X166161944Y-58525500D01*
X166228983Y-58545185D01*
G37*
%TD.AperFunction*%
%TA.AperFunction,Conductor*%
G36*
X178868968Y-84390185D02*
G01*
X178902245Y-84421613D01*
X178974315Y-84520808D01*
X179008034Y-84567219D01*
X179152786Y-84711971D01*
X179307749Y-84824556D01*
X179318390Y-84832287D01*
X179409840Y-84878883D01*
X179411080Y-84879515D01*
X179461876Y-84927490D01*
X179478671Y-84995311D01*
X179456134Y-85061446D01*
X179411080Y-85100485D01*
X179318386Y-85147715D01*
X179152786Y-85268028D01*
X179008028Y-85412786D01*
X178887715Y-85578386D01*
X178794781Y-85760776D01*
X178731522Y-85955465D01*
X178699500Y-86157648D01*
X178699500Y-86362351D01*
X178731522Y-86564534D01*
X178794781Y-86759223D01*
X178887715Y-86941613D01*
X179008028Y-87107213D01*
X179152780Y-87251965D01*
X179189674Y-87278770D01*
X179232340Y-87334100D01*
X179238319Y-87403714D01*
X179205714Y-87465509D01*
X179144875Y-87499866D01*
X179130046Y-87502378D01*
X179092626Y-87506401D01*
X179092620Y-87506403D01*
X178957913Y-87556645D01*
X178957906Y-87556649D01*
X178842812Y-87642809D01*
X178842809Y-87642812D01*
X178756649Y-87757906D01*
X178756645Y-87757913D01*
X178706403Y-87892620D01*
X178706401Y-87892627D01*
X178700000Y-87952155D01*
X178700000Y-88550000D01*
X180084314Y-88550000D01*
X180079920Y-88554394D01*
X180027259Y-88645606D01*
X180000000Y-88747339D01*
X180000000Y-88852661D01*
X180027259Y-88954394D01*
X180079920Y-89045606D01*
X180084314Y-89050000D01*
X178700000Y-89050000D01*
X178700000Y-89647844D01*
X178706401Y-89707372D01*
X178706403Y-89707379D01*
X178756645Y-89842086D01*
X178756649Y-89842093D01*
X178842809Y-89957187D01*
X178842812Y-89957190D01*
X178957906Y-90043350D01*
X178957913Y-90043354D01*
X179092620Y-90093596D01*
X179092627Y-90093598D01*
X179152155Y-90099999D01*
X179152172Y-90100000D01*
X180150000Y-90100000D01*
X180150000Y-89115686D01*
X180154394Y-89120080D01*
X180245606Y-89172741D01*
X180347339Y-89200000D01*
X180452661Y-89200000D01*
X180554394Y-89172741D01*
X180645606Y-89120080D01*
X180650000Y-89115686D01*
X180650000Y-90100000D01*
X181521500Y-90100000D01*
X181588539Y-90119685D01*
X181634294Y-90172489D01*
X181645500Y-90224000D01*
X181645500Y-92376112D01*
X181625815Y-92443151D01*
X181609181Y-92463793D01*
X179800146Y-94272827D01*
X179738823Y-94306312D01*
X179701658Y-94308674D01*
X179540002Y-94294532D01*
X179539998Y-94294532D01*
X179313313Y-94314364D01*
X179313302Y-94314366D01*
X179093511Y-94373258D01*
X179093502Y-94373261D01*
X178887267Y-94469431D01*
X178887265Y-94469432D01*
X178700858Y-94599954D01*
X178539954Y-94760858D01*
X178409432Y-94947265D01*
X178409431Y-94947267D01*
X178313261Y-95153502D01*
X178313258Y-95153511D01*
X178254366Y-95373302D01*
X178254364Y-95373313D01*
X178234532Y-95599998D01*
X178234532Y-95600001D01*
X178254364Y-95826686D01*
X178254366Y-95826697D01*
X178313258Y-96046488D01*
X178313261Y-96046497D01*
X178409431Y-96252732D01*
X178409432Y-96252734D01*
X178539954Y-96439141D01*
X178700858Y-96600045D01*
X178700861Y-96600047D01*
X178887266Y-96730568D01*
X178944357Y-96757190D01*
X178945275Y-96757618D01*
X178997714Y-96803791D01*
X179016866Y-96870984D01*
X178996650Y-96937865D01*
X178945275Y-96982382D01*
X178887267Y-97009431D01*
X178887265Y-97009432D01*
X178700858Y-97139954D01*
X178539954Y-97300858D01*
X178409432Y-97487265D01*
X178409431Y-97487267D01*
X178313261Y-97693502D01*
X178313258Y-97693511D01*
X178254366Y-97913302D01*
X178254364Y-97913313D01*
X178234532Y-98139998D01*
X178234532Y-98140001D01*
X178254364Y-98366686D01*
X178254366Y-98366697D01*
X178313258Y-98586488D01*
X178313261Y-98586497D01*
X178409431Y-98792732D01*
X178409432Y-98792734D01*
X178539954Y-98979141D01*
X178700858Y-99140045D01*
X178700861Y-99140047D01*
X178887266Y-99270568D01*
X178945275Y-99297618D01*
X178997714Y-99343791D01*
X179016866Y-99410984D01*
X178996650Y-99477865D01*
X178945275Y-99522382D01*
X178887267Y-99549431D01*
X178887265Y-99549432D01*
X178700858Y-99679954D01*
X178539954Y-99840858D01*
X178409432Y-100027265D01*
X178409431Y-100027267D01*
X178313261Y-100233502D01*
X178313258Y-100233511D01*
X178254366Y-100453302D01*
X178254364Y-100453313D01*
X178234532Y-100679998D01*
X178234532Y-100680001D01*
X178254364Y-100906686D01*
X178254366Y-100906697D01*
X178313258Y-101126488D01*
X178313261Y-101126497D01*
X178409431Y-101332732D01*
X178409432Y-101332734D01*
X178539954Y-101519141D01*
X178700858Y-101680045D01*
X178700861Y-101680047D01*
X178887266Y-101810568D01*
X178945275Y-101837618D01*
X178997714Y-101883791D01*
X179016866Y-101950984D01*
X178996650Y-102017865D01*
X178945275Y-102062382D01*
X178887267Y-102089431D01*
X178887265Y-102089432D01*
X178700858Y-102219954D01*
X178539954Y-102380858D01*
X178444892Y-102516623D01*
X178390315Y-102560248D01*
X178343317Y-102569500D01*
X169909437Y-102569500D01*
X169842398Y-102549815D01*
X169821756Y-102533181D01*
X167536819Y-100248244D01*
X167503334Y-100186921D01*
X167500500Y-100160563D01*
X167500500Y-100124500D01*
X167520185Y-100057461D01*
X167572989Y-100011706D01*
X167624500Y-100000500D01*
X167694644Y-100000500D01*
X167694646Y-100000500D01*
X167794647Y-99979244D01*
X167864312Y-99984560D01*
X167920045Y-100026697D01*
X167938357Y-100062216D01*
X167972818Y-100168277D01*
X167972821Y-100168284D01*
X168067467Y-100332216D01*
X168099937Y-100368277D01*
X168194129Y-100472888D01*
X168347265Y-100584148D01*
X168347270Y-100584151D01*
X168520192Y-100661142D01*
X168520197Y-100661144D01*
X168705354Y-100700500D01*
X168705355Y-100700500D01*
X168894644Y-100700500D01*
X168894646Y-100700500D01*
X169079803Y-100661144D01*
X169252730Y-100584151D01*
X169405871Y-100472888D01*
X169532533Y-100332216D01*
X169627179Y-100168284D01*
X169645617Y-100111539D01*
X169653856Y-100086182D01*
X169693294Y-100028506D01*
X169757652Y-100001308D01*
X169771787Y-100000500D01*
X169782942Y-100000500D01*
X169849981Y-100020185D01*
X169895736Y-100072989D01*
X169906263Y-100111539D01*
X169914325Y-100188254D01*
X169972818Y-100368277D01*
X169972821Y-100368284D01*
X170067467Y-100532216D01*
X170183553Y-100661142D01*
X170194129Y-100672888D01*
X170347265Y-100784148D01*
X170347270Y-100784151D01*
X170520192Y-100861142D01*
X170520197Y-100861144D01*
X170705354Y-100900500D01*
X170705355Y-100900500D01*
X170894644Y-100900500D01*
X170894646Y-100900500D01*
X171079803Y-100861144D01*
X171252730Y-100784151D01*
X171405871Y-100672888D01*
X171532533Y-100532216D01*
X171627179Y-100368284D01*
X171685674Y-100188256D01*
X171700712Y-100045176D01*
X171727297Y-99980562D01*
X171784594Y-99940577D01*
X171824033Y-99934138D01*
X171841619Y-99934138D01*
X171841621Y-99934138D01*
X172026778Y-99894782D01*
X172138167Y-99845187D01*
X172207414Y-99835902D01*
X172261485Y-99858148D01*
X172297275Y-99884151D01*
X172297276Y-99884151D01*
X172297277Y-99884152D01*
X172470197Y-99961142D01*
X172470202Y-99961144D01*
X172655359Y-100000500D01*
X172655360Y-100000500D01*
X172844649Y-100000500D01*
X172844651Y-100000500D01*
X173029808Y-99961144D01*
X173202735Y-99884151D01*
X173202736Y-99884149D01*
X173203612Y-99883760D01*
X173272861Y-99874475D01*
X173326930Y-99896719D01*
X173436909Y-99976623D01*
X173447270Y-99984151D01*
X173620192Y-100061142D01*
X173620197Y-100061144D01*
X173805354Y-100100500D01*
X173805355Y-100100500D01*
X173994644Y-100100500D01*
X173994646Y-100100500D01*
X174179803Y-100061144D01*
X174352730Y-99984151D01*
X174505871Y-99872888D01*
X174514468Y-99863339D01*
X174573951Y-99826690D01*
X174643809Y-99828018D01*
X174657048Y-99833028D01*
X174720197Y-99861144D01*
X174905354Y-99900500D01*
X174905355Y-99900500D01*
X175094644Y-99900500D01*
X175094646Y-99900500D01*
X175279803Y-99861144D01*
X175452730Y-99784151D01*
X175605871Y-99672888D01*
X175732533Y-99532216D01*
X175827179Y-99368284D01*
X175885674Y-99188256D01*
X175905460Y-99000000D01*
X175885674Y-98811744D01*
X175827179Y-98631716D01*
X175732533Y-98467784D01*
X175682350Y-98412050D01*
X175652120Y-98349058D01*
X175650500Y-98329078D01*
X175650500Y-97935928D01*
X175625502Y-97810261D01*
X175625501Y-97810260D01*
X175625501Y-97810256D01*
X175595308Y-97737364D01*
X175576466Y-97691874D01*
X175505277Y-97585331D01*
X175505272Y-97585325D01*
X173307627Y-95387680D01*
X173274142Y-95326357D01*
X173279126Y-95256665D01*
X173307625Y-95212320D01*
X177305277Y-91214669D01*
X177376465Y-91108127D01*
X177425501Y-90989744D01*
X177427098Y-90981716D01*
X177427098Y-90981715D01*
X177450500Y-90864071D01*
X177450500Y-84520808D01*
X177470185Y-84453769D01*
X177486819Y-84433127D01*
X177513127Y-84406819D01*
X177574450Y-84373334D01*
X177600808Y-84370500D01*
X178801929Y-84370500D01*
X178868968Y-84390185D01*
G37*
%TD.AperFunction*%
%TA.AperFunction,Conductor*%
G36*
X178764574Y-60174185D02*
G01*
X178810329Y-60226989D01*
X178820273Y-60296147D01*
X178808020Y-60334794D01*
X178794782Y-60360773D01*
X178731522Y-60555465D01*
X178699500Y-60757648D01*
X178699500Y-60962351D01*
X178731522Y-61164534D01*
X178794781Y-61359223D01*
X178887715Y-61541613D01*
X179008028Y-61707213D01*
X179152786Y-61851971D01*
X179307749Y-61964556D01*
X179318390Y-61972287D01*
X179409840Y-62018883D01*
X179411080Y-62019515D01*
X179461876Y-62067490D01*
X179478671Y-62135311D01*
X179456134Y-62201446D01*
X179411080Y-62240485D01*
X179318386Y-62287715D01*
X179152786Y-62408028D01*
X179008034Y-62552780D01*
X179008030Y-62552786D01*
X178902246Y-62698386D01*
X178846918Y-62741051D01*
X178801929Y-62749500D01*
X176035929Y-62749500D01*
X175910261Y-62774497D01*
X175910255Y-62774499D01*
X175791874Y-62823534D01*
X175685326Y-62894726D01*
X171994726Y-66585326D01*
X171923534Y-66691874D01*
X171874499Y-66810255D01*
X171874497Y-66810261D01*
X171849500Y-66935928D01*
X171849500Y-88879191D01*
X171829815Y-88946230D01*
X171813181Y-88966872D01*
X168480186Y-92299866D01*
X168418863Y-92333351D01*
X168349171Y-92328367D01*
X168293238Y-92286495D01*
X168269184Y-92225149D01*
X168265674Y-92191744D01*
X168207179Y-92011716D01*
X168112533Y-91847784D01*
X167985871Y-91707112D01*
X167985870Y-91707111D01*
X167832734Y-91595851D01*
X167832729Y-91595848D01*
X167659807Y-91518857D01*
X167659802Y-91518855D01*
X167514001Y-91487865D01*
X167474646Y-91479500D01*
X167419460Y-91479500D01*
X167352421Y-91459815D01*
X167306666Y-91407011D01*
X167295460Y-91355500D01*
X167295460Y-91350002D01*
X167295460Y-91350000D01*
X167275674Y-91161744D01*
X167217179Y-90981716D01*
X167122533Y-90817784D01*
X166995871Y-90677112D01*
X166964155Y-90654069D01*
X166842734Y-90565851D01*
X166842729Y-90565848D01*
X166669807Y-90488857D01*
X166669802Y-90488855D01*
X166524001Y-90457865D01*
X166484646Y-90449500D01*
X166295354Y-90449500D01*
X166262897Y-90456398D01*
X166110197Y-90488855D01*
X166110192Y-90488857D01*
X165937270Y-90565848D01*
X165937265Y-90565851D01*
X165785910Y-90675818D01*
X165720104Y-90699298D01*
X165713025Y-90699500D01*
X164670808Y-90699500D01*
X164603769Y-90679815D01*
X164583127Y-90663181D01*
X164127726Y-90207780D01*
X164094241Y-90146457D01*
X164099225Y-90076765D01*
X164141097Y-90020832D01*
X164206561Y-89996415D01*
X164255959Y-90004422D01*
X164256340Y-90003251D01*
X164455582Y-90067990D01*
X164657683Y-90100000D01*
X164910000Y-90100000D01*
X164910000Y-89115686D01*
X164914394Y-89120080D01*
X165005606Y-89172741D01*
X165107339Y-89200000D01*
X165212661Y-89200000D01*
X165314394Y-89172741D01*
X165405606Y-89120080D01*
X165410000Y-89115686D01*
X165410000Y-90100000D01*
X165662317Y-90100000D01*
X165864417Y-90067990D01*
X166059031Y-90004755D01*
X166241349Y-89911859D01*
X166406894Y-89791582D01*
X166406895Y-89791582D01*
X166551582Y-89646895D01*
X166551582Y-89646894D01*
X166671859Y-89481349D01*
X166764755Y-89299029D01*
X166827990Y-89104413D01*
X166836609Y-89050000D01*
X165475686Y-89050000D01*
X165480080Y-89045606D01*
X165532741Y-88954394D01*
X165560000Y-88852661D01*
X165560000Y-88747339D01*
X165532741Y-88645606D01*
X165480080Y-88554394D01*
X165475686Y-88550000D01*
X166836609Y-88550000D01*
X166827990Y-88495586D01*
X166764755Y-88300970D01*
X166671859Y-88118650D01*
X166551582Y-87953105D01*
X166551582Y-87953104D01*
X166406895Y-87808417D01*
X166241349Y-87688140D01*
X166148370Y-87640765D01*
X166097574Y-87592790D01*
X166080779Y-87524969D01*
X166103316Y-87458835D01*
X166148370Y-87419795D01*
X166241610Y-87372287D01*
X166262770Y-87356913D01*
X166407213Y-87251971D01*
X166407215Y-87251968D01*
X166407219Y-87251966D01*
X166551966Y-87107219D01*
X166551968Y-87107215D01*
X166551971Y-87107213D01*
X166604732Y-87034590D01*
X166672287Y-86941610D01*
X166765220Y-86759219D01*
X166828477Y-86564534D01*
X166860500Y-86362352D01*
X166860500Y-86157648D01*
X166828477Y-85955466D01*
X166765220Y-85760781D01*
X166765218Y-85760778D01*
X166765218Y-85760776D01*
X166731503Y-85694607D01*
X166672287Y-85578390D01*
X166664556Y-85567749D01*
X166551971Y-85412786D01*
X166407213Y-85268028D01*
X166241614Y-85147715D01*
X166235006Y-85144348D01*
X166148917Y-85100483D01*
X166098123Y-85052511D01*
X166081328Y-84984690D01*
X166103865Y-84918555D01*
X166148917Y-84879516D01*
X166241610Y-84832287D01*
X166262770Y-84816913D01*
X166407213Y-84711971D01*
X166407215Y-84711968D01*
X166407219Y-84711966D01*
X166551966Y-84567219D01*
X166551968Y-84567215D01*
X166551971Y-84567213D01*
X166604732Y-84494590D01*
X166672287Y-84401610D01*
X166765220Y-84219219D01*
X166828477Y-84024534D01*
X166860500Y-83822352D01*
X166860500Y-83617648D01*
X166828477Y-83415466D01*
X166765220Y-83220781D01*
X166765218Y-83220778D01*
X166765218Y-83220776D01*
X166719097Y-83130260D01*
X166672287Y-83038390D01*
X166615287Y-82959935D01*
X166551971Y-82872786D01*
X166407213Y-82728028D01*
X166241614Y-82607715D01*
X166235006Y-82604348D01*
X166148917Y-82560483D01*
X166098123Y-82512511D01*
X166090072Y-82480000D01*
X168314540Y-82480000D01*
X168334326Y-82668256D01*
X168334327Y-82668259D01*
X168392818Y-82848277D01*
X168392821Y-82848284D01*
X168487467Y-83012216D01*
X168593755Y-83130260D01*
X168614129Y-83152888D01*
X168767265Y-83264148D01*
X168767270Y-83264151D01*
X168940192Y-83341142D01*
X168940197Y-83341144D01*
X169125354Y-83380500D01*
X169125355Y-83380500D01*
X169314644Y-83380500D01*
X169314646Y-83380500D01*
X169499803Y-83341144D01*
X169672730Y-83264151D01*
X169825871Y-83152888D01*
X169952533Y-83012216D01*
X170047179Y-82848284D01*
X170105674Y-82668256D01*
X170125460Y-82480000D01*
X170105674Y-82291744D01*
X170047179Y-82111716D01*
X169952533Y-81947784D01*
X169902350Y-81892050D01*
X169872120Y-81829058D01*
X169870500Y-81809078D01*
X169870500Y-80390807D01*
X169890185Y-80323768D01*
X169906819Y-80303126D01*
X170173126Y-80036819D01*
X170234449Y-80003334D01*
X170260807Y-80000500D01*
X170334644Y-80000500D01*
X170334646Y-80000500D01*
X170519803Y-79961144D01*
X170692730Y-79884151D01*
X170845871Y-79772888D01*
X170972533Y-79632216D01*
X171067179Y-79468284D01*
X171125674Y-79288256D01*
X171145460Y-79100000D01*
X171125674Y-78911744D01*
X171067179Y-78731716D01*
X170972533Y-78567784D01*
X170845871Y-78427112D01*
X170845870Y-78427111D01*
X170692734Y-78315851D01*
X170692729Y-78315848D01*
X170519807Y-78238857D01*
X170519802Y-78238855D01*
X170374001Y-78207865D01*
X170334646Y-78199500D01*
X170145354Y-78199500D01*
X170112897Y-78206398D01*
X169960197Y-78238855D01*
X169960192Y-78238857D01*
X169787270Y-78315848D01*
X169787265Y-78315851D01*
X169634129Y-78427111D01*
X169507466Y-78567785D01*
X169412821Y-78731715D01*
X169412818Y-78731722D01*
X169354327Y-78911739D01*
X169354327Y-78911740D01*
X169354326Y-78911744D01*
X169350880Y-78944534D01*
X169346703Y-78984272D01*
X169320118Y-79048886D01*
X169311063Y-79058990D01*
X168714727Y-79655325D01*
X168714724Y-79655328D01*
X168651133Y-79750501D01*
X168643534Y-79761873D01*
X168594499Y-79880255D01*
X168594497Y-79880261D01*
X168569500Y-80005928D01*
X168569500Y-81809078D01*
X168549815Y-81876117D01*
X168537650Y-81892050D01*
X168487466Y-81947785D01*
X168392821Y-82111715D01*
X168392818Y-82111722D01*
X168334327Y-82291740D01*
X168334326Y-82291744D01*
X168314540Y-82480000D01*
X166090072Y-82480000D01*
X166081328Y-82444690D01*
X166103865Y-82378555D01*
X166148917Y-82339516D01*
X166241610Y-82292287D01*
X166262770Y-82276913D01*
X166407213Y-82171971D01*
X166407215Y-82171968D01*
X166407219Y-82171966D01*
X166551966Y-82027219D01*
X166551968Y-82027215D01*
X166551971Y-82027213D01*
X166650171Y-81892050D01*
X166672287Y-81861610D01*
X166765220Y-81679219D01*
X166828477Y-81484534D01*
X166860500Y-81282352D01*
X166860500Y-81077648D01*
X166828477Y-80875466D01*
X166765220Y-80680781D01*
X166765218Y-80680778D01*
X166765218Y-80680776D01*
X166725860Y-80603533D01*
X166672287Y-80498390D01*
X166657753Y-80478385D01*
X166551971Y-80332786D01*
X166407213Y-80188028D01*
X166241614Y-80067715D01*
X166173731Y-80033127D01*
X166148917Y-80020483D01*
X166098123Y-79972511D01*
X166081328Y-79904690D01*
X166103865Y-79838555D01*
X166148917Y-79799516D01*
X166241610Y-79752287D01*
X166375064Y-79655328D01*
X166407213Y-79631971D01*
X166407215Y-79631968D01*
X166407219Y-79631966D01*
X166551966Y-79487219D01*
X166551968Y-79487215D01*
X166551971Y-79487213D01*
X166604732Y-79414590D01*
X166672287Y-79321610D01*
X166765220Y-79139219D01*
X166828477Y-78944534D01*
X166860500Y-78742352D01*
X166860500Y-78537648D01*
X166828477Y-78335466D01*
X166765220Y-78140781D01*
X166765218Y-78140778D01*
X166765218Y-78140776D01*
X166700876Y-78014499D01*
X166672287Y-77958390D01*
X166657753Y-77938385D01*
X166551971Y-77792786D01*
X166407213Y-77648028D01*
X166241611Y-77527713D01*
X166148369Y-77480203D01*
X166097574Y-77432229D01*
X166080779Y-77364407D01*
X166103317Y-77298273D01*
X166148371Y-77259234D01*
X166241347Y-77211861D01*
X166406894Y-77091582D01*
X166406895Y-77091582D01*
X166551582Y-76946895D01*
X166551582Y-76946894D01*
X166671859Y-76781349D01*
X166764755Y-76599029D01*
X166827990Y-76404413D01*
X166836609Y-76350000D01*
X165475686Y-76350000D01*
X165480080Y-76345606D01*
X165532741Y-76254394D01*
X165560000Y-76152661D01*
X165560000Y-76047339D01*
X165532741Y-75945606D01*
X165480080Y-75854394D01*
X165475686Y-75850000D01*
X166836609Y-75850000D01*
X166827990Y-75795586D01*
X166764755Y-75600970D01*
X166671859Y-75418650D01*
X166551582Y-75253105D01*
X166551582Y-75253104D01*
X166406895Y-75108417D01*
X166241349Y-74988140D01*
X166148370Y-74940765D01*
X166097574Y-74892790D01*
X166080779Y-74824969D01*
X166103316Y-74758835D01*
X166148370Y-74719795D01*
X166148920Y-74719515D01*
X166241610Y-74672287D01*
X166262770Y-74656913D01*
X166407213Y-74551971D01*
X166407215Y-74551968D01*
X166407219Y-74551966D01*
X166551966Y-74407219D01*
X166551968Y-74407215D01*
X166551971Y-74407213D01*
X166649486Y-74272993D01*
X166672287Y-74241610D01*
X166765220Y-74059219D01*
X166828477Y-73864534D01*
X166860500Y-73662352D01*
X166860500Y-73457648D01*
X166828477Y-73255466D01*
X166765220Y-73060781D01*
X166765218Y-73060778D01*
X166765218Y-73060776D01*
X166725861Y-72983534D01*
X166672287Y-72878390D01*
X166625435Y-72813903D01*
X166551971Y-72712786D01*
X166407213Y-72568028D01*
X166241614Y-72447715D01*
X166235006Y-72444348D01*
X166148917Y-72400483D01*
X166098123Y-72352511D01*
X166081328Y-72284690D01*
X166103865Y-72218555D01*
X166148917Y-72179516D01*
X166241610Y-72132287D01*
X166262770Y-72116913D01*
X166407213Y-72011971D01*
X166407215Y-72011968D01*
X166407219Y-72011966D01*
X166551966Y-71867219D01*
X166551968Y-71867215D01*
X166551971Y-71867213D01*
X166639765Y-71746373D01*
X166672287Y-71701610D01*
X166765220Y-71519219D01*
X166828477Y-71324534D01*
X166860500Y-71122352D01*
X166860500Y-70917648D01*
X166828477Y-70715466D01*
X166765220Y-70520781D01*
X166765218Y-70520778D01*
X166765218Y-70520776D01*
X166700876Y-70394499D01*
X166672287Y-70338390D01*
X166656745Y-70316998D01*
X166551971Y-70172786D01*
X166407213Y-70028028D01*
X166241614Y-69907715D01*
X166235006Y-69904348D01*
X166148917Y-69860483D01*
X166098123Y-69812511D01*
X166081328Y-69744690D01*
X166103865Y-69678555D01*
X166148917Y-69639516D01*
X166241610Y-69592287D01*
X166304806Y-69546373D01*
X166407213Y-69471971D01*
X166407215Y-69471968D01*
X166407219Y-69471966D01*
X166551966Y-69327219D01*
X166551968Y-69327215D01*
X166551971Y-69327213D01*
X166618674Y-69235403D01*
X166672287Y-69161610D01*
X166754632Y-68999999D01*
X167844341Y-68999999D01*
X167844341Y-69000000D01*
X167864936Y-69235403D01*
X167864938Y-69235413D01*
X167926094Y-69463655D01*
X167926096Y-69463659D01*
X167926097Y-69463663D01*
X167966990Y-69551357D01*
X168025965Y-69677830D01*
X168025967Y-69677834D01*
X168161501Y-69871395D01*
X168161506Y-69871402D01*
X168328597Y-70038493D01*
X168328603Y-70038498D01*
X168514158Y-70168425D01*
X168557783Y-70223002D01*
X168564977Y-70292500D01*
X168533454Y-70354855D01*
X168514158Y-70371575D01*
X168328597Y-70501505D01*
X168161505Y-70668597D01*
X168025965Y-70862169D01*
X168025964Y-70862171D01*
X167926098Y-71076335D01*
X167926094Y-71076344D01*
X167864938Y-71304586D01*
X167864936Y-71304596D01*
X167844341Y-71539999D01*
X167844341Y-71540000D01*
X167864936Y-71775403D01*
X167864938Y-71775413D01*
X167926094Y-72003655D01*
X167926096Y-72003659D01*
X167926097Y-72003663D01*
X167930551Y-72013214D01*
X168025965Y-72217830D01*
X168025967Y-72217834D01*
X168161501Y-72411395D01*
X168161506Y-72411402D01*
X168328597Y-72578493D01*
X168328603Y-72578498D01*
X168514594Y-72708730D01*
X168558219Y-72763307D01*
X168565413Y-72832805D01*
X168533890Y-72895160D01*
X168514595Y-72911880D01*
X168328922Y-73041890D01*
X168328920Y-73041891D01*
X168161891Y-73208920D01*
X168161886Y-73208926D01*
X168026400Y-73402420D01*
X168026399Y-73402422D01*
X167926570Y-73616507D01*
X167926567Y-73616513D01*
X167869364Y-73829999D01*
X167869364Y-73830000D01*
X168766988Y-73830000D01*
X168734075Y-73887007D01*
X168700000Y-74014174D01*
X168700000Y-74145826D01*
X168734075Y-74272993D01*
X168766988Y-74330000D01*
X167869364Y-74330000D01*
X167926567Y-74543486D01*
X167926570Y-74543492D01*
X168026399Y-74757578D01*
X168161894Y-74951082D01*
X168328917Y-75118105D01*
X168522421Y-75253600D01*
X168736507Y-75353429D01*
X168736516Y-75353433D01*
X168950000Y-75410634D01*
X168950000Y-74513012D01*
X169007007Y-74545925D01*
X169134174Y-74580000D01*
X169265826Y-74580000D01*
X169392993Y-74545925D01*
X169450000Y-74513012D01*
X169450000Y-75410633D01*
X169663483Y-75353433D01*
X169663492Y-75353429D01*
X169877578Y-75253600D01*
X170071082Y-75118105D01*
X170238105Y-74951082D01*
X170373600Y-74757578D01*
X170473429Y-74543492D01*
X170473432Y-74543486D01*
X170530636Y-74330000D01*
X169633012Y-74330000D01*
X169665925Y-74272993D01*
X169700000Y-74145826D01*
X169700000Y-74014174D01*
X169665925Y-73887007D01*
X169633012Y-73830000D01*
X170530636Y-73830000D01*
X170530635Y-73829999D01*
X170473432Y-73616513D01*
X170473429Y-73616507D01*
X170373600Y-73402422D01*
X170373599Y-73402420D01*
X170238113Y-73208926D01*
X170238108Y-73208920D01*
X170071078Y-73041890D01*
X169885405Y-72911879D01*
X169841780Y-72857302D01*
X169834588Y-72787804D01*
X169866110Y-72725449D01*
X169885406Y-72708730D01*
X170071401Y-72578495D01*
X170238495Y-72411401D01*
X170374035Y-72217830D01*
X170473903Y-72003663D01*
X170535063Y-71775408D01*
X170555659Y-71540000D01*
X170535063Y-71304592D01*
X170473903Y-71076337D01*
X170374035Y-70862171D01*
X170271312Y-70715466D01*
X170238494Y-70668597D01*
X170071402Y-70501506D01*
X170071396Y-70501501D01*
X169885842Y-70371575D01*
X169842217Y-70316998D01*
X169835023Y-70247500D01*
X169866546Y-70185145D01*
X169885842Y-70168425D01*
X169908026Y-70152891D01*
X170071401Y-70038495D01*
X170238495Y-69871401D01*
X170374035Y-69677830D01*
X170473903Y-69463663D01*
X170535063Y-69235408D01*
X170555659Y-69000000D01*
X170535063Y-68764592D01*
X170473903Y-68536337D01*
X170374035Y-68322171D01*
X170271311Y-68175466D01*
X170238496Y-68128600D01*
X170238495Y-68128599D01*
X170116567Y-68006671D01*
X170083084Y-67945351D01*
X170088068Y-67875659D01*
X170129939Y-67819725D01*
X170160915Y-67802810D01*
X170292331Y-67753796D01*
X170407546Y-67667546D01*
X170493796Y-67552331D01*
X170544091Y-67417483D01*
X170550500Y-67357873D01*
X170550499Y-65562128D01*
X170544091Y-65502517D01*
X170518807Y-65434728D01*
X170493797Y-65367671D01*
X170493793Y-65367664D01*
X170407547Y-65252455D01*
X170407544Y-65252452D01*
X170292335Y-65166206D01*
X170292328Y-65166202D01*
X170157482Y-65115908D01*
X170157483Y-65115908D01*
X170097883Y-65109501D01*
X170097881Y-65109500D01*
X170097873Y-65109500D01*
X170097864Y-65109500D01*
X168302129Y-65109500D01*
X168302123Y-65109501D01*
X168242516Y-65115908D01*
X168107671Y-65166202D01*
X168107664Y-65166206D01*
X167992455Y-65252452D01*
X167992452Y-65252455D01*
X167906206Y-65367664D01*
X167906202Y-65367671D01*
X167855908Y-65502517D01*
X167849501Y-65562116D01*
X167849501Y-65562123D01*
X167849500Y-65562135D01*
X167849500Y-67357870D01*
X167849501Y-67357876D01*
X167855908Y-67417483D01*
X167906202Y-67552328D01*
X167906206Y-67552335D01*
X167992452Y-67667544D01*
X167992455Y-67667547D01*
X168107664Y-67753793D01*
X168107671Y-67753797D01*
X168239081Y-67802810D01*
X168295015Y-67844681D01*
X168319432Y-67910145D01*
X168304580Y-67978418D01*
X168283430Y-68006673D01*
X168161503Y-68128600D01*
X168025965Y-68322169D01*
X168025964Y-68322171D01*
X167926098Y-68536335D01*
X167926094Y-68536344D01*
X167864938Y-68764586D01*
X167864936Y-68764596D01*
X167844341Y-68999999D01*
X166754632Y-68999999D01*
X166765220Y-68979219D01*
X166828477Y-68784534D01*
X166860500Y-68582352D01*
X166860500Y-68377648D01*
X166828477Y-68175466D01*
X166765220Y-67980781D01*
X166765218Y-67980778D01*
X166765218Y-67980776D01*
X166725861Y-67903535D01*
X166672287Y-67798390D01*
X166639886Y-67753793D01*
X166551971Y-67632786D01*
X166407213Y-67488028D01*
X166241614Y-67367715D01*
X166235006Y-67364348D01*
X166148917Y-67320483D01*
X166098123Y-67272511D01*
X166081328Y-67204690D01*
X166103865Y-67138555D01*
X166148917Y-67099516D01*
X166241610Y-67052287D01*
X166401762Y-66935931D01*
X166407213Y-66931971D01*
X166407215Y-66931968D01*
X166407219Y-66931966D01*
X166551966Y-66787219D01*
X166551968Y-66787215D01*
X166551971Y-66787213D01*
X166604732Y-66714590D01*
X166672287Y-66621610D01*
X166765220Y-66439219D01*
X166828477Y-66244534D01*
X166860500Y-66042352D01*
X166860500Y-65837648D01*
X166828477Y-65635466D01*
X166765220Y-65440781D01*
X166765218Y-65440778D01*
X166765218Y-65440776D01*
X166731503Y-65374607D01*
X166672287Y-65258390D01*
X166657753Y-65238385D01*
X166551971Y-65092786D01*
X166407213Y-64948028D01*
X166241614Y-64827715D01*
X166235006Y-64824348D01*
X166148917Y-64780483D01*
X166098123Y-64732511D01*
X166081328Y-64664690D01*
X166103865Y-64598555D01*
X166148917Y-64559516D01*
X166241610Y-64512287D01*
X166262770Y-64496913D01*
X166407213Y-64391971D01*
X166407215Y-64391968D01*
X166407219Y-64391966D01*
X166551966Y-64247219D01*
X166551968Y-64247215D01*
X166551971Y-64247213D01*
X166604732Y-64174590D01*
X166672287Y-64081610D01*
X166765220Y-63899219D01*
X166828477Y-63704534D01*
X166860500Y-63502352D01*
X166860500Y-63297648D01*
X166828477Y-63095466D01*
X166765220Y-62900781D01*
X166765218Y-62900778D01*
X166765218Y-62900776D01*
X166700876Y-62774499D01*
X166672287Y-62718390D01*
X166657753Y-62698385D01*
X166551971Y-62552786D01*
X166407213Y-62408028D01*
X166241614Y-62287715D01*
X166235006Y-62284348D01*
X166148917Y-62240483D01*
X166098123Y-62192511D01*
X166081328Y-62124690D01*
X166103865Y-62058555D01*
X166148917Y-62019516D01*
X166241610Y-61972287D01*
X166262770Y-61956913D01*
X166407213Y-61851971D01*
X166407215Y-61851968D01*
X166407219Y-61851966D01*
X166551966Y-61707219D01*
X166551968Y-61707215D01*
X166551971Y-61707213D01*
X166604732Y-61634590D01*
X166672287Y-61541610D01*
X166765220Y-61359219D01*
X166828477Y-61164534D01*
X166860500Y-60962352D01*
X166860500Y-60757648D01*
X166828477Y-60555466D01*
X166779141Y-60403628D01*
X166777147Y-60333788D01*
X166809391Y-60277632D01*
X166896206Y-60190818D01*
X166957529Y-60157333D01*
X166983886Y-60154500D01*
X178697535Y-60154500D01*
X178764574Y-60174185D01*
G37*
%TD.AperFunction*%
%TD*%
M02*
