%TF.GenerationSoftware,KiCad,Pcbnew,8.0.3*%
%TF.CreationDate,2024-06-29T10:30:53+02:00*%
%TF.ProjectId,adapter 8913-8910 triangle,61646170-7465-4722-9038-3931332d3839,rev?*%
%TF.SameCoordinates,Original*%
%TF.FileFunction,Legend,Bot*%
%TF.FilePolarity,Positive*%
%FSLAX46Y46*%
G04 Gerber Fmt 4.6, Leading zero omitted, Abs format (unit mm)*
G04 Created by KiCad (PCBNEW 8.0.3) date 2024-06-29 10:30:53*
%MOMM*%
%LPD*%
G01*
G04 APERTURE LIST*
%ADD10C,0.200000*%
%ADD11C,0.400000*%
%ADD12C,0.150000*%
%ADD13C,0.120000*%
G04 APERTURE END LIST*
D10*
X84195000Y-72475000D02*
X134995000Y-72475000D01*
X134995000Y-85475000D01*
X84195000Y-85475000D01*
X84195000Y-72475000D01*
X84195000Y-78015000D02*
G75*
G02*
X84195000Y-80015000I0J-1000000D01*
G01*
X142085000Y-87905000D02*
X141585000Y-86905000D01*
X142585000Y-86905000D01*
X142085000Y-87905000D01*
G36*
X142085000Y-87905000D02*
G01*
X141585000Y-86905000D01*
X142585000Y-86905000D01*
X142085000Y-87905000D01*
G37*
D11*
X80250000Y-87500000D02*
X81550000Y-87500000D01*
X81550000Y-87500000D02*
X81550000Y-95100000D01*
D10*
X84195000Y-93775000D02*
X134995000Y-93775000D01*
X134995000Y-106775000D01*
X84195000Y-106775000D01*
X84195000Y-93775000D01*
X170485000Y-77205000D02*
X169485000Y-77205000D01*
X169985000Y-76205000D01*
X170485000Y-77205000D01*
G36*
X170485000Y-77205000D02*
G01*
X169485000Y-77205000D01*
X169985000Y-76205000D01*
X170485000Y-77205000D01*
G37*
X142265000Y-62335000D02*
X141765000Y-61335000D01*
X142765000Y-61335000D01*
X142265000Y-62335000D01*
G36*
X142265000Y-62335000D02*
G01*
X141765000Y-61335000D01*
X142765000Y-61335000D01*
X142265000Y-62335000D01*
G37*
X81245000Y-85419000D02*
X80245000Y-84919000D01*
X81245000Y-84419000D01*
X81245000Y-85419000D01*
G36*
X81245000Y-85419000D02*
G01*
X80245000Y-84919000D01*
X81245000Y-84419000D01*
X81245000Y-85419000D01*
G37*
X170665000Y-51635000D02*
X169665000Y-51635000D01*
X170165000Y-50635000D01*
X170665000Y-51635000D01*
G36*
X170665000Y-51635000D02*
G01*
X169665000Y-51635000D01*
X170165000Y-50635000D01*
X170665000Y-51635000D01*
G37*
X84195000Y-99315000D02*
G75*
G02*
X84195000Y-101315000I0J-1000000D01*
G01*
D12*
X78634276Y-99948935D02*
X78634276Y-99567982D01*
X78405704Y-100025125D02*
X79205704Y-99758458D01*
X79205704Y-99758458D02*
X78405704Y-99491792D01*
X78710466Y-99225125D02*
X78710466Y-98615602D01*
X78405704Y-98920363D02*
X79015228Y-98920363D01*
X78824752Y-97967983D02*
X78786657Y-97853697D01*
X78786657Y-97853697D02*
X78748561Y-97815602D01*
X78748561Y-97815602D02*
X78672371Y-97777506D01*
X78672371Y-97777506D02*
X78558085Y-97777506D01*
X78558085Y-97777506D02*
X78481895Y-97815602D01*
X78481895Y-97815602D02*
X78443800Y-97853697D01*
X78443800Y-97853697D02*
X78405704Y-97929887D01*
X78405704Y-97929887D02*
X78405704Y-98234649D01*
X78405704Y-98234649D02*
X79205704Y-98234649D01*
X79205704Y-98234649D02*
X79205704Y-97967983D01*
X79205704Y-97967983D02*
X79167609Y-97891792D01*
X79167609Y-97891792D02*
X79129514Y-97853697D01*
X79129514Y-97853697D02*
X79053323Y-97815602D01*
X79053323Y-97815602D02*
X78977133Y-97815602D01*
X78977133Y-97815602D02*
X78900942Y-97853697D01*
X78900942Y-97853697D02*
X78862847Y-97891792D01*
X78862847Y-97891792D02*
X78824752Y-97967983D01*
X78824752Y-97967983D02*
X78824752Y-98234649D01*
X78710466Y-97434649D02*
X78710466Y-96825126D01*
X78405704Y-97129887D02*
X79015228Y-97129887D01*
X78481895Y-95987030D02*
X78443800Y-96025126D01*
X78443800Y-96025126D02*
X78405704Y-96139411D01*
X78405704Y-96139411D02*
X78405704Y-96215602D01*
X78405704Y-96215602D02*
X78443800Y-96329888D01*
X78443800Y-96329888D02*
X78519990Y-96406078D01*
X78519990Y-96406078D02*
X78596180Y-96444173D01*
X78596180Y-96444173D02*
X78748561Y-96482269D01*
X78748561Y-96482269D02*
X78862847Y-96482269D01*
X78862847Y-96482269D02*
X79015228Y-96444173D01*
X79015228Y-96444173D02*
X79091419Y-96406078D01*
X79091419Y-96406078D02*
X79167609Y-96329888D01*
X79167609Y-96329888D02*
X79205704Y-96215602D01*
X79205704Y-96215602D02*
X79205704Y-96139411D01*
X79205704Y-96139411D02*
X79167609Y-96025126D01*
X79167609Y-96025126D02*
X79129514Y-95987030D01*
X78100942Y-94806078D02*
X78139038Y-94844173D01*
X78139038Y-94844173D02*
X78253323Y-94920364D01*
X78253323Y-94920364D02*
X78329514Y-94958459D01*
X78329514Y-94958459D02*
X78443800Y-94996554D01*
X78443800Y-94996554D02*
X78634276Y-95034649D01*
X78634276Y-95034649D02*
X78786657Y-95034649D01*
X78786657Y-95034649D02*
X78977133Y-94996554D01*
X78977133Y-94996554D02*
X79091419Y-94958459D01*
X79091419Y-94958459D02*
X79167609Y-94920364D01*
X79167609Y-94920364D02*
X79281895Y-94844173D01*
X79281895Y-94844173D02*
X79319990Y-94806078D01*
X79205704Y-94501316D02*
X78558085Y-94501316D01*
X78558085Y-94501316D02*
X78481895Y-94463221D01*
X78481895Y-94463221D02*
X78443800Y-94425126D01*
X78443800Y-94425126D02*
X78405704Y-94348935D01*
X78405704Y-94348935D02*
X78405704Y-94196554D01*
X78405704Y-94196554D02*
X78443800Y-94120364D01*
X78443800Y-94120364D02*
X78481895Y-94082269D01*
X78481895Y-94082269D02*
X78558085Y-94044173D01*
X78558085Y-94044173D02*
X79205704Y-94044173D01*
X78862847Y-93548936D02*
X78900942Y-93625126D01*
X78900942Y-93625126D02*
X78939038Y-93663221D01*
X78939038Y-93663221D02*
X79015228Y-93701317D01*
X79015228Y-93701317D02*
X79053323Y-93701317D01*
X79053323Y-93701317D02*
X79129514Y-93663221D01*
X79129514Y-93663221D02*
X79167609Y-93625126D01*
X79167609Y-93625126D02*
X79205704Y-93548936D01*
X79205704Y-93548936D02*
X79205704Y-93396555D01*
X79205704Y-93396555D02*
X79167609Y-93320364D01*
X79167609Y-93320364D02*
X79129514Y-93282269D01*
X79129514Y-93282269D02*
X79053323Y-93244174D01*
X79053323Y-93244174D02*
X79015228Y-93244174D01*
X79015228Y-93244174D02*
X78939038Y-93282269D01*
X78939038Y-93282269D02*
X78900942Y-93320364D01*
X78900942Y-93320364D02*
X78862847Y-93396555D01*
X78862847Y-93396555D02*
X78862847Y-93548936D01*
X78862847Y-93548936D02*
X78824752Y-93625126D01*
X78824752Y-93625126D02*
X78786657Y-93663221D01*
X78786657Y-93663221D02*
X78710466Y-93701317D01*
X78710466Y-93701317D02*
X78558085Y-93701317D01*
X78558085Y-93701317D02*
X78481895Y-93663221D01*
X78481895Y-93663221D02*
X78443800Y-93625126D01*
X78443800Y-93625126D02*
X78405704Y-93548936D01*
X78405704Y-93548936D02*
X78405704Y-93396555D01*
X78405704Y-93396555D02*
X78443800Y-93320364D01*
X78443800Y-93320364D02*
X78481895Y-93282269D01*
X78481895Y-93282269D02*
X78558085Y-93244174D01*
X78558085Y-93244174D02*
X78710466Y-93244174D01*
X78710466Y-93244174D02*
X78786657Y-93282269D01*
X78786657Y-93282269D02*
X78824752Y-93320364D01*
X78824752Y-93320364D02*
X78862847Y-93396555D01*
X78405704Y-92482269D02*
X78405704Y-92939412D01*
X78405704Y-92710840D02*
X79205704Y-92710840D01*
X79205704Y-92710840D02*
X79091419Y-92787031D01*
X79091419Y-92787031D02*
X79015228Y-92863221D01*
X79015228Y-92863221D02*
X78977133Y-92939412D01*
X78100942Y-92215602D02*
X78139038Y-92177507D01*
X78139038Y-92177507D02*
X78253323Y-92101316D01*
X78253323Y-92101316D02*
X78329514Y-92063221D01*
X78329514Y-92063221D02*
X78443800Y-92025126D01*
X78443800Y-92025126D02*
X78634276Y-91987030D01*
X78634276Y-91987030D02*
X78786657Y-91987030D01*
X78786657Y-91987030D02*
X78977133Y-92025126D01*
X78977133Y-92025126D02*
X79091419Y-92063221D01*
X79091419Y-92063221D02*
X79167609Y-92101316D01*
X79167609Y-92101316D02*
X79281895Y-92177507D01*
X79281895Y-92177507D02*
X79319990Y-92215602D01*
X109844160Y-63610615D02*
X110320350Y-63610615D01*
X109748922Y-63324900D02*
X110082255Y-64324900D01*
X110082255Y-64324900D02*
X110415588Y-63324900D01*
X111510827Y-63848710D02*
X112272732Y-63848710D01*
X112272732Y-63562996D02*
X111510827Y-63562996D01*
X113939398Y-63372520D02*
X113844160Y-63324900D01*
X113844160Y-63324900D02*
X113653684Y-63324900D01*
X113653684Y-63324900D02*
X113558446Y-63372520D01*
X113558446Y-63372520D02*
X113510827Y-63420139D01*
X113510827Y-63420139D02*
X113463208Y-63515377D01*
X113463208Y-63515377D02*
X113463208Y-63801091D01*
X113463208Y-63801091D02*
X113510827Y-63896329D01*
X113510827Y-63896329D02*
X113558446Y-63943948D01*
X113558446Y-63943948D02*
X113653684Y-63991567D01*
X113653684Y-63991567D02*
X113844160Y-63991567D01*
X113844160Y-63991567D02*
X113939398Y-63943948D01*
X114367970Y-63324900D02*
X114367970Y-64324900D01*
X114796541Y-63324900D02*
X114796541Y-63848710D01*
X114796541Y-63848710D02*
X114748922Y-63943948D01*
X114748922Y-63943948D02*
X114653684Y-63991567D01*
X114653684Y-63991567D02*
X114510827Y-63991567D01*
X114510827Y-63991567D02*
X114415589Y-63943948D01*
X114415589Y-63943948D02*
X114367970Y-63896329D01*
X115701303Y-63324900D02*
X115701303Y-63848710D01*
X115701303Y-63848710D02*
X115653684Y-63943948D01*
X115653684Y-63943948D02*
X115558446Y-63991567D01*
X115558446Y-63991567D02*
X115367970Y-63991567D01*
X115367970Y-63991567D02*
X115272732Y-63943948D01*
X115701303Y-63372520D02*
X115606065Y-63324900D01*
X115606065Y-63324900D02*
X115367970Y-63324900D01*
X115367970Y-63324900D02*
X115272732Y-63372520D01*
X115272732Y-63372520D02*
X115225113Y-63467758D01*
X115225113Y-63467758D02*
X115225113Y-63562996D01*
X115225113Y-63562996D02*
X115272732Y-63658234D01*
X115272732Y-63658234D02*
X115367970Y-63705853D01*
X115367970Y-63705853D02*
X115606065Y-63705853D01*
X115606065Y-63705853D02*
X115701303Y-63753472D01*
X116177494Y-63991567D02*
X116177494Y-63324900D01*
X116177494Y-63896329D02*
X116225113Y-63943948D01*
X116225113Y-63943948D02*
X116320351Y-63991567D01*
X116320351Y-63991567D02*
X116463208Y-63991567D01*
X116463208Y-63991567D02*
X116558446Y-63943948D01*
X116558446Y-63943948D02*
X116606065Y-63848710D01*
X116606065Y-63848710D02*
X116606065Y-63324900D01*
X117082256Y-63991567D02*
X117082256Y-63324900D01*
X117082256Y-63896329D02*
X117129875Y-63943948D01*
X117129875Y-63943948D02*
X117225113Y-63991567D01*
X117225113Y-63991567D02*
X117367970Y-63991567D01*
X117367970Y-63991567D02*
X117463208Y-63943948D01*
X117463208Y-63943948D02*
X117510827Y-63848710D01*
X117510827Y-63848710D02*
X117510827Y-63324900D01*
X118367970Y-63372520D02*
X118272732Y-63324900D01*
X118272732Y-63324900D02*
X118082256Y-63324900D01*
X118082256Y-63324900D02*
X117987018Y-63372520D01*
X117987018Y-63372520D02*
X117939399Y-63467758D01*
X117939399Y-63467758D02*
X117939399Y-63848710D01*
X117939399Y-63848710D02*
X117987018Y-63943948D01*
X117987018Y-63943948D02*
X118082256Y-63991567D01*
X118082256Y-63991567D02*
X118272732Y-63991567D01*
X118272732Y-63991567D02*
X118367970Y-63943948D01*
X118367970Y-63943948D02*
X118415589Y-63848710D01*
X118415589Y-63848710D02*
X118415589Y-63753472D01*
X118415589Y-63753472D02*
X117939399Y-63658234D01*
X118987018Y-63324900D02*
X118891780Y-63372520D01*
X118891780Y-63372520D02*
X118844161Y-63467758D01*
X118844161Y-63467758D02*
X118844161Y-64324900D01*
X120082257Y-63610615D02*
X120558447Y-63610615D01*
X119987019Y-63324900D02*
X120320352Y-64324900D01*
X120320352Y-64324900D02*
X120653685Y-63324900D01*
X110225112Y-62238766D02*
X110367969Y-62191147D01*
X110367969Y-62191147D02*
X110415588Y-62143528D01*
X110415588Y-62143528D02*
X110463207Y-62048290D01*
X110463207Y-62048290D02*
X110463207Y-61905433D01*
X110463207Y-61905433D02*
X110415588Y-61810195D01*
X110415588Y-61810195D02*
X110367969Y-61762576D01*
X110367969Y-61762576D02*
X110272731Y-61714956D01*
X110272731Y-61714956D02*
X109891779Y-61714956D01*
X109891779Y-61714956D02*
X109891779Y-62714956D01*
X109891779Y-62714956D02*
X110225112Y-62714956D01*
X110225112Y-62714956D02*
X110320350Y-62667337D01*
X110320350Y-62667337D02*
X110367969Y-62619718D01*
X110367969Y-62619718D02*
X110415588Y-62524480D01*
X110415588Y-62524480D02*
X110415588Y-62429242D01*
X110415588Y-62429242D02*
X110367969Y-62334004D01*
X110367969Y-62334004D02*
X110320350Y-62286385D01*
X110320350Y-62286385D02*
X110225112Y-62238766D01*
X110225112Y-62238766D02*
X109891779Y-62238766D01*
X111653684Y-62238766D02*
X112415589Y-62238766D01*
X112415589Y-61953052D02*
X111653684Y-61953052D01*
X114082255Y-61762576D02*
X113987017Y-61714956D01*
X113987017Y-61714956D02*
X113796541Y-61714956D01*
X113796541Y-61714956D02*
X113701303Y-61762576D01*
X113701303Y-61762576D02*
X113653684Y-61810195D01*
X113653684Y-61810195D02*
X113606065Y-61905433D01*
X113606065Y-61905433D02*
X113606065Y-62191147D01*
X113606065Y-62191147D02*
X113653684Y-62286385D01*
X113653684Y-62286385D02*
X113701303Y-62334004D01*
X113701303Y-62334004D02*
X113796541Y-62381623D01*
X113796541Y-62381623D02*
X113987017Y-62381623D01*
X113987017Y-62381623D02*
X114082255Y-62334004D01*
X114510827Y-61714956D02*
X114510827Y-62714956D01*
X114939398Y-61714956D02*
X114939398Y-62238766D01*
X114939398Y-62238766D02*
X114891779Y-62334004D01*
X114891779Y-62334004D02*
X114796541Y-62381623D01*
X114796541Y-62381623D02*
X114653684Y-62381623D01*
X114653684Y-62381623D02*
X114558446Y-62334004D01*
X114558446Y-62334004D02*
X114510827Y-62286385D01*
X115844160Y-61714956D02*
X115844160Y-62238766D01*
X115844160Y-62238766D02*
X115796541Y-62334004D01*
X115796541Y-62334004D02*
X115701303Y-62381623D01*
X115701303Y-62381623D02*
X115510827Y-62381623D01*
X115510827Y-62381623D02*
X115415589Y-62334004D01*
X115844160Y-61762576D02*
X115748922Y-61714956D01*
X115748922Y-61714956D02*
X115510827Y-61714956D01*
X115510827Y-61714956D02*
X115415589Y-61762576D01*
X115415589Y-61762576D02*
X115367970Y-61857814D01*
X115367970Y-61857814D02*
X115367970Y-61953052D01*
X115367970Y-61953052D02*
X115415589Y-62048290D01*
X115415589Y-62048290D02*
X115510827Y-62095909D01*
X115510827Y-62095909D02*
X115748922Y-62095909D01*
X115748922Y-62095909D02*
X115844160Y-62143528D01*
X116320351Y-62381623D02*
X116320351Y-61714956D01*
X116320351Y-62286385D02*
X116367970Y-62334004D01*
X116367970Y-62334004D02*
X116463208Y-62381623D01*
X116463208Y-62381623D02*
X116606065Y-62381623D01*
X116606065Y-62381623D02*
X116701303Y-62334004D01*
X116701303Y-62334004D02*
X116748922Y-62238766D01*
X116748922Y-62238766D02*
X116748922Y-61714956D01*
X117225113Y-62381623D02*
X117225113Y-61714956D01*
X117225113Y-62286385D02*
X117272732Y-62334004D01*
X117272732Y-62334004D02*
X117367970Y-62381623D01*
X117367970Y-62381623D02*
X117510827Y-62381623D01*
X117510827Y-62381623D02*
X117606065Y-62334004D01*
X117606065Y-62334004D02*
X117653684Y-62238766D01*
X117653684Y-62238766D02*
X117653684Y-61714956D01*
X118510827Y-61762576D02*
X118415589Y-61714956D01*
X118415589Y-61714956D02*
X118225113Y-61714956D01*
X118225113Y-61714956D02*
X118129875Y-61762576D01*
X118129875Y-61762576D02*
X118082256Y-61857814D01*
X118082256Y-61857814D02*
X118082256Y-62238766D01*
X118082256Y-62238766D02*
X118129875Y-62334004D01*
X118129875Y-62334004D02*
X118225113Y-62381623D01*
X118225113Y-62381623D02*
X118415589Y-62381623D01*
X118415589Y-62381623D02*
X118510827Y-62334004D01*
X118510827Y-62334004D02*
X118558446Y-62238766D01*
X118558446Y-62238766D02*
X118558446Y-62143528D01*
X118558446Y-62143528D02*
X118082256Y-62048290D01*
X119129875Y-61714956D02*
X119034637Y-61762576D01*
X119034637Y-61762576D02*
X118987018Y-61857814D01*
X118987018Y-61857814D02*
X118987018Y-62714956D01*
X120606066Y-62238766D02*
X120748923Y-62191147D01*
X120748923Y-62191147D02*
X120796542Y-62143528D01*
X120796542Y-62143528D02*
X120844161Y-62048290D01*
X120844161Y-62048290D02*
X120844161Y-61905433D01*
X120844161Y-61905433D02*
X120796542Y-61810195D01*
X120796542Y-61810195D02*
X120748923Y-61762576D01*
X120748923Y-61762576D02*
X120653685Y-61714956D01*
X120653685Y-61714956D02*
X120272733Y-61714956D01*
X120272733Y-61714956D02*
X120272733Y-62714956D01*
X120272733Y-62714956D02*
X120606066Y-62714956D01*
X120606066Y-62714956D02*
X120701304Y-62667337D01*
X120701304Y-62667337D02*
X120748923Y-62619718D01*
X120748923Y-62619718D02*
X120796542Y-62524480D01*
X120796542Y-62524480D02*
X120796542Y-62429242D01*
X120796542Y-62429242D02*
X120748923Y-62334004D01*
X120748923Y-62334004D02*
X120701304Y-62286385D01*
X120701304Y-62286385D02*
X120606066Y-62238766D01*
X120606066Y-62238766D02*
X120272733Y-62238766D01*
X110463207Y-60200251D02*
X110415588Y-60152632D01*
X110415588Y-60152632D02*
X110272731Y-60105012D01*
X110272731Y-60105012D02*
X110177493Y-60105012D01*
X110177493Y-60105012D02*
X110034636Y-60152632D01*
X110034636Y-60152632D02*
X109939398Y-60247870D01*
X109939398Y-60247870D02*
X109891779Y-60343108D01*
X109891779Y-60343108D02*
X109844160Y-60533584D01*
X109844160Y-60533584D02*
X109844160Y-60676441D01*
X109844160Y-60676441D02*
X109891779Y-60866917D01*
X109891779Y-60866917D02*
X109939398Y-60962155D01*
X109939398Y-60962155D02*
X110034636Y-61057393D01*
X110034636Y-61057393D02*
X110177493Y-61105012D01*
X110177493Y-61105012D02*
X110272731Y-61105012D01*
X110272731Y-61105012D02*
X110415588Y-61057393D01*
X110415588Y-61057393D02*
X110463207Y-61009774D01*
X111653684Y-60628822D02*
X112415589Y-60628822D01*
X112415589Y-60343108D02*
X111653684Y-60343108D01*
X114082255Y-60152632D02*
X113987017Y-60105012D01*
X113987017Y-60105012D02*
X113796541Y-60105012D01*
X113796541Y-60105012D02*
X113701303Y-60152632D01*
X113701303Y-60152632D02*
X113653684Y-60200251D01*
X113653684Y-60200251D02*
X113606065Y-60295489D01*
X113606065Y-60295489D02*
X113606065Y-60581203D01*
X113606065Y-60581203D02*
X113653684Y-60676441D01*
X113653684Y-60676441D02*
X113701303Y-60724060D01*
X113701303Y-60724060D02*
X113796541Y-60771679D01*
X113796541Y-60771679D02*
X113987017Y-60771679D01*
X113987017Y-60771679D02*
X114082255Y-60724060D01*
X114510827Y-60105012D02*
X114510827Y-61105012D01*
X114939398Y-60105012D02*
X114939398Y-60628822D01*
X114939398Y-60628822D02*
X114891779Y-60724060D01*
X114891779Y-60724060D02*
X114796541Y-60771679D01*
X114796541Y-60771679D02*
X114653684Y-60771679D01*
X114653684Y-60771679D02*
X114558446Y-60724060D01*
X114558446Y-60724060D02*
X114510827Y-60676441D01*
X115844160Y-60105012D02*
X115844160Y-60628822D01*
X115844160Y-60628822D02*
X115796541Y-60724060D01*
X115796541Y-60724060D02*
X115701303Y-60771679D01*
X115701303Y-60771679D02*
X115510827Y-60771679D01*
X115510827Y-60771679D02*
X115415589Y-60724060D01*
X115844160Y-60152632D02*
X115748922Y-60105012D01*
X115748922Y-60105012D02*
X115510827Y-60105012D01*
X115510827Y-60105012D02*
X115415589Y-60152632D01*
X115415589Y-60152632D02*
X115367970Y-60247870D01*
X115367970Y-60247870D02*
X115367970Y-60343108D01*
X115367970Y-60343108D02*
X115415589Y-60438346D01*
X115415589Y-60438346D02*
X115510827Y-60485965D01*
X115510827Y-60485965D02*
X115748922Y-60485965D01*
X115748922Y-60485965D02*
X115844160Y-60533584D01*
X116320351Y-60771679D02*
X116320351Y-60105012D01*
X116320351Y-60676441D02*
X116367970Y-60724060D01*
X116367970Y-60724060D02*
X116463208Y-60771679D01*
X116463208Y-60771679D02*
X116606065Y-60771679D01*
X116606065Y-60771679D02*
X116701303Y-60724060D01*
X116701303Y-60724060D02*
X116748922Y-60628822D01*
X116748922Y-60628822D02*
X116748922Y-60105012D01*
X117225113Y-60771679D02*
X117225113Y-60105012D01*
X117225113Y-60676441D02*
X117272732Y-60724060D01*
X117272732Y-60724060D02*
X117367970Y-60771679D01*
X117367970Y-60771679D02*
X117510827Y-60771679D01*
X117510827Y-60771679D02*
X117606065Y-60724060D01*
X117606065Y-60724060D02*
X117653684Y-60628822D01*
X117653684Y-60628822D02*
X117653684Y-60105012D01*
X118510827Y-60152632D02*
X118415589Y-60105012D01*
X118415589Y-60105012D02*
X118225113Y-60105012D01*
X118225113Y-60105012D02*
X118129875Y-60152632D01*
X118129875Y-60152632D02*
X118082256Y-60247870D01*
X118082256Y-60247870D02*
X118082256Y-60628822D01*
X118082256Y-60628822D02*
X118129875Y-60724060D01*
X118129875Y-60724060D02*
X118225113Y-60771679D01*
X118225113Y-60771679D02*
X118415589Y-60771679D01*
X118415589Y-60771679D02*
X118510827Y-60724060D01*
X118510827Y-60724060D02*
X118558446Y-60628822D01*
X118558446Y-60628822D02*
X118558446Y-60533584D01*
X118558446Y-60533584D02*
X118082256Y-60438346D01*
X119129875Y-60105012D02*
X119034637Y-60152632D01*
X119034637Y-60152632D02*
X118987018Y-60247870D01*
X118987018Y-60247870D02*
X118987018Y-61105012D01*
X120844161Y-60200251D02*
X120796542Y-60152632D01*
X120796542Y-60152632D02*
X120653685Y-60105012D01*
X120653685Y-60105012D02*
X120558447Y-60105012D01*
X120558447Y-60105012D02*
X120415590Y-60152632D01*
X120415590Y-60152632D02*
X120320352Y-60247870D01*
X120320352Y-60247870D02*
X120272733Y-60343108D01*
X120272733Y-60343108D02*
X120225114Y-60533584D01*
X120225114Y-60533584D02*
X120225114Y-60676441D01*
X120225114Y-60676441D02*
X120272733Y-60866917D01*
X120272733Y-60866917D02*
X120320352Y-60962155D01*
X120320352Y-60962155D02*
X120415590Y-61057393D01*
X120415590Y-61057393D02*
X120558447Y-61105012D01*
X120558447Y-61105012D02*
X120653685Y-61105012D01*
X120653685Y-61105012D02*
X120796542Y-61057393D01*
X120796542Y-61057393D02*
X120844161Y-61009774D01*
X160140124Y-57461904D02*
X159330601Y-57461904D01*
X159330601Y-57461904D02*
X159235363Y-57414285D01*
X159235363Y-57414285D02*
X159187744Y-57366666D01*
X159187744Y-57366666D02*
X159140124Y-57271428D01*
X159140124Y-57271428D02*
X159140124Y-57080952D01*
X159140124Y-57080952D02*
X159187744Y-56985714D01*
X159187744Y-56985714D02*
X159235363Y-56938095D01*
X159235363Y-56938095D02*
X159330601Y-56890476D01*
X159330601Y-56890476D02*
X160140124Y-56890476D01*
X159711553Y-56271428D02*
X159759172Y-56366666D01*
X159759172Y-56366666D02*
X159806791Y-56414285D01*
X159806791Y-56414285D02*
X159902029Y-56461904D01*
X159902029Y-56461904D02*
X159949648Y-56461904D01*
X159949648Y-56461904D02*
X160044886Y-56414285D01*
X160044886Y-56414285D02*
X160092505Y-56366666D01*
X160092505Y-56366666D02*
X160140124Y-56271428D01*
X160140124Y-56271428D02*
X160140124Y-56080952D01*
X160140124Y-56080952D02*
X160092505Y-55985714D01*
X160092505Y-55985714D02*
X160044886Y-55938095D01*
X160044886Y-55938095D02*
X159949648Y-55890476D01*
X159949648Y-55890476D02*
X159902029Y-55890476D01*
X159902029Y-55890476D02*
X159806791Y-55938095D01*
X159806791Y-55938095D02*
X159759172Y-55985714D01*
X159759172Y-55985714D02*
X159711553Y-56080952D01*
X159711553Y-56080952D02*
X159711553Y-56271428D01*
X159711553Y-56271428D02*
X159663934Y-56366666D01*
X159663934Y-56366666D02*
X159616315Y-56414285D01*
X159616315Y-56414285D02*
X159521077Y-56461904D01*
X159521077Y-56461904D02*
X159330601Y-56461904D01*
X159330601Y-56461904D02*
X159235363Y-56414285D01*
X159235363Y-56414285D02*
X159187744Y-56366666D01*
X159187744Y-56366666D02*
X159140124Y-56271428D01*
X159140124Y-56271428D02*
X159140124Y-56080952D01*
X159140124Y-56080952D02*
X159187744Y-55985714D01*
X159187744Y-55985714D02*
X159235363Y-55938095D01*
X159235363Y-55938095D02*
X159330601Y-55890476D01*
X159330601Y-55890476D02*
X159521077Y-55890476D01*
X159521077Y-55890476D02*
X159616315Y-55938095D01*
X159616315Y-55938095D02*
X159663934Y-55985714D01*
X159663934Y-55985714D02*
X159711553Y-56080952D01*
X158101609Y-58223809D02*
X158149228Y-58319047D01*
X158149228Y-58319047D02*
X158196847Y-58366666D01*
X158196847Y-58366666D02*
X158292085Y-58414285D01*
X158292085Y-58414285D02*
X158339704Y-58414285D01*
X158339704Y-58414285D02*
X158434942Y-58366666D01*
X158434942Y-58366666D02*
X158482561Y-58319047D01*
X158482561Y-58319047D02*
X158530180Y-58223809D01*
X158530180Y-58223809D02*
X158530180Y-58033333D01*
X158530180Y-58033333D02*
X158482561Y-57938095D01*
X158482561Y-57938095D02*
X158434942Y-57890476D01*
X158434942Y-57890476D02*
X158339704Y-57842857D01*
X158339704Y-57842857D02*
X158292085Y-57842857D01*
X158292085Y-57842857D02*
X158196847Y-57890476D01*
X158196847Y-57890476D02*
X158149228Y-57938095D01*
X158149228Y-57938095D02*
X158101609Y-58033333D01*
X158101609Y-58033333D02*
X158101609Y-58223809D01*
X158101609Y-58223809D02*
X158053990Y-58319047D01*
X158053990Y-58319047D02*
X158006371Y-58366666D01*
X158006371Y-58366666D02*
X157911133Y-58414285D01*
X157911133Y-58414285D02*
X157720657Y-58414285D01*
X157720657Y-58414285D02*
X157625419Y-58366666D01*
X157625419Y-58366666D02*
X157577800Y-58319047D01*
X157577800Y-58319047D02*
X157530180Y-58223809D01*
X157530180Y-58223809D02*
X157530180Y-58033333D01*
X157530180Y-58033333D02*
X157577800Y-57938095D01*
X157577800Y-57938095D02*
X157625419Y-57890476D01*
X157625419Y-57890476D02*
X157720657Y-57842857D01*
X157720657Y-57842857D02*
X157911133Y-57842857D01*
X157911133Y-57842857D02*
X158006371Y-57890476D01*
X158006371Y-57890476D02*
X158053990Y-57938095D01*
X158053990Y-57938095D02*
X158101609Y-58033333D01*
X157530180Y-57366666D02*
X157530180Y-57176190D01*
X157530180Y-57176190D02*
X157577800Y-57080952D01*
X157577800Y-57080952D02*
X157625419Y-57033333D01*
X157625419Y-57033333D02*
X157768276Y-56938095D01*
X157768276Y-56938095D02*
X157958752Y-56890476D01*
X157958752Y-56890476D02*
X158339704Y-56890476D01*
X158339704Y-56890476D02*
X158434942Y-56938095D01*
X158434942Y-56938095D02*
X158482561Y-56985714D01*
X158482561Y-56985714D02*
X158530180Y-57080952D01*
X158530180Y-57080952D02*
X158530180Y-57271428D01*
X158530180Y-57271428D02*
X158482561Y-57366666D01*
X158482561Y-57366666D02*
X158434942Y-57414285D01*
X158434942Y-57414285D02*
X158339704Y-57461904D01*
X158339704Y-57461904D02*
X158101609Y-57461904D01*
X158101609Y-57461904D02*
X158006371Y-57414285D01*
X158006371Y-57414285D02*
X157958752Y-57366666D01*
X157958752Y-57366666D02*
X157911133Y-57271428D01*
X157911133Y-57271428D02*
X157911133Y-57080952D01*
X157911133Y-57080952D02*
X157958752Y-56985714D01*
X157958752Y-56985714D02*
X158006371Y-56938095D01*
X158006371Y-56938095D02*
X158101609Y-56890476D01*
X157530180Y-55938095D02*
X157530180Y-56509523D01*
X157530180Y-56223809D02*
X158530180Y-56223809D01*
X158530180Y-56223809D02*
X158387323Y-56319047D01*
X158387323Y-56319047D02*
X158292085Y-56414285D01*
X158292085Y-56414285D02*
X158244466Y-56509523D01*
X158530180Y-55604761D02*
X158530180Y-54985714D01*
X158530180Y-54985714D02*
X158149228Y-55319047D01*
X158149228Y-55319047D02*
X158149228Y-55176190D01*
X158149228Y-55176190D02*
X158101609Y-55080952D01*
X158101609Y-55080952D02*
X158053990Y-55033333D01*
X158053990Y-55033333D02*
X157958752Y-54985714D01*
X157958752Y-54985714D02*
X157720657Y-54985714D01*
X157720657Y-54985714D02*
X157625419Y-55033333D01*
X157625419Y-55033333D02*
X157577800Y-55080952D01*
X157577800Y-55080952D02*
X157530180Y-55176190D01*
X157530180Y-55176190D02*
X157530180Y-55461904D01*
X157530180Y-55461904D02*
X157577800Y-55557142D01*
X157577800Y-55557142D02*
X157625419Y-55604761D01*
X142349228Y-85977506D02*
X142396847Y-86025125D01*
X142396847Y-86025125D02*
X142539704Y-86120363D01*
X142539704Y-86120363D02*
X142634942Y-86167982D01*
X142634942Y-86167982D02*
X142777800Y-86215601D01*
X142777800Y-86215601D02*
X143015895Y-86263220D01*
X143015895Y-86263220D02*
X143206371Y-86263220D01*
X143206371Y-86263220D02*
X143444466Y-86215601D01*
X143444466Y-86215601D02*
X143587323Y-86167982D01*
X143587323Y-86167982D02*
X143682561Y-86120363D01*
X143682561Y-86120363D02*
X143825419Y-86025125D01*
X143825419Y-86025125D02*
X143873038Y-85977506D01*
X143682561Y-85072744D02*
X143730180Y-85167982D01*
X143730180Y-85167982D02*
X143730180Y-85310839D01*
X143730180Y-85310839D02*
X143682561Y-85453696D01*
X143682561Y-85453696D02*
X143587323Y-85548934D01*
X143587323Y-85548934D02*
X143492085Y-85596553D01*
X143492085Y-85596553D02*
X143301609Y-85644172D01*
X143301609Y-85644172D02*
X143158752Y-85644172D01*
X143158752Y-85644172D02*
X142968276Y-85596553D01*
X142968276Y-85596553D02*
X142873038Y-85548934D01*
X142873038Y-85548934D02*
X142777800Y-85453696D01*
X142777800Y-85453696D02*
X142730180Y-85310839D01*
X142730180Y-85310839D02*
X142730180Y-85215601D01*
X142730180Y-85215601D02*
X142777800Y-85072744D01*
X142777800Y-85072744D02*
X142825419Y-85025125D01*
X142825419Y-85025125D02*
X143158752Y-85025125D01*
X143158752Y-85025125D02*
X143158752Y-85215601D01*
X142730180Y-84596553D02*
X143730180Y-84596553D01*
X143730180Y-84596553D02*
X142730180Y-84025125D01*
X142730180Y-84025125D02*
X143730180Y-84025125D01*
X142730180Y-83548934D02*
X143730180Y-83548934D01*
X143730180Y-83548934D02*
X143730180Y-83310839D01*
X143730180Y-83310839D02*
X143682561Y-83167982D01*
X143682561Y-83167982D02*
X143587323Y-83072744D01*
X143587323Y-83072744D02*
X143492085Y-83025125D01*
X143492085Y-83025125D02*
X143301609Y-82977506D01*
X143301609Y-82977506D02*
X143158752Y-82977506D01*
X143158752Y-82977506D02*
X142968276Y-83025125D01*
X142968276Y-83025125D02*
X142873038Y-83072744D01*
X142873038Y-83072744D02*
X142777800Y-83167982D01*
X142777800Y-83167982D02*
X142730180Y-83310839D01*
X142730180Y-83310839D02*
X142730180Y-83548934D01*
X142349228Y-82644172D02*
X142396847Y-82596553D01*
X142396847Y-82596553D02*
X142539704Y-82501315D01*
X142539704Y-82501315D02*
X142634942Y-82453696D01*
X142634942Y-82453696D02*
X142777800Y-82406077D01*
X142777800Y-82406077D02*
X143015895Y-82358458D01*
X143015895Y-82358458D02*
X143206371Y-82358458D01*
X143206371Y-82358458D02*
X143444466Y-82406077D01*
X143444466Y-82406077D02*
X143587323Y-82453696D01*
X143587323Y-82453696D02*
X143682561Y-82501315D01*
X143682561Y-82501315D02*
X143825419Y-82596553D01*
X143825419Y-82596553D02*
X143873038Y-82644172D01*
X142730180Y-81358458D02*
X142730180Y-81929886D01*
X142730180Y-81644172D02*
X143730180Y-81644172D01*
X143730180Y-81644172D02*
X143587323Y-81739410D01*
X143587323Y-81739410D02*
X143492085Y-81834648D01*
X143492085Y-81834648D02*
X143444466Y-81929886D01*
X143915771Y-56657493D02*
X143868152Y-56609874D01*
X143868152Y-56609874D02*
X143725295Y-56514636D01*
X143725295Y-56514636D02*
X143630057Y-56467017D01*
X143630057Y-56467017D02*
X143487200Y-56419398D01*
X143487200Y-56419398D02*
X143249104Y-56371779D01*
X143249104Y-56371779D02*
X143058628Y-56371779D01*
X143058628Y-56371779D02*
X142820533Y-56419398D01*
X142820533Y-56419398D02*
X142677676Y-56467017D01*
X142677676Y-56467017D02*
X142582438Y-56514636D01*
X142582438Y-56514636D02*
X142439580Y-56609874D01*
X142439580Y-56609874D02*
X142391961Y-56657493D01*
X142582438Y-57562255D02*
X142534819Y-57467017D01*
X142534819Y-57467017D02*
X142534819Y-57324160D01*
X142534819Y-57324160D02*
X142582438Y-57181303D01*
X142582438Y-57181303D02*
X142677676Y-57086065D01*
X142677676Y-57086065D02*
X142772914Y-57038446D01*
X142772914Y-57038446D02*
X142963390Y-56990827D01*
X142963390Y-56990827D02*
X143106247Y-56990827D01*
X143106247Y-56990827D02*
X143296723Y-57038446D01*
X143296723Y-57038446D02*
X143391961Y-57086065D01*
X143391961Y-57086065D02*
X143487200Y-57181303D01*
X143487200Y-57181303D02*
X143534819Y-57324160D01*
X143534819Y-57324160D02*
X143534819Y-57419398D01*
X143534819Y-57419398D02*
X143487200Y-57562255D01*
X143487200Y-57562255D02*
X143439580Y-57609874D01*
X143439580Y-57609874D02*
X143106247Y-57609874D01*
X143106247Y-57609874D02*
X143106247Y-57419398D01*
X143534819Y-58038446D02*
X142534819Y-58038446D01*
X142534819Y-58038446D02*
X143534819Y-58609874D01*
X143534819Y-58609874D02*
X142534819Y-58609874D01*
X143534819Y-59086065D02*
X142534819Y-59086065D01*
X142534819Y-59086065D02*
X142534819Y-59324160D01*
X142534819Y-59324160D02*
X142582438Y-59467017D01*
X142582438Y-59467017D02*
X142677676Y-59562255D01*
X142677676Y-59562255D02*
X142772914Y-59609874D01*
X142772914Y-59609874D02*
X142963390Y-59657493D01*
X142963390Y-59657493D02*
X143106247Y-59657493D01*
X143106247Y-59657493D02*
X143296723Y-59609874D01*
X143296723Y-59609874D02*
X143391961Y-59562255D01*
X143391961Y-59562255D02*
X143487200Y-59467017D01*
X143487200Y-59467017D02*
X143534819Y-59324160D01*
X143534819Y-59324160D02*
X143534819Y-59086065D01*
X143915771Y-59990827D02*
X143868152Y-60038446D01*
X143868152Y-60038446D02*
X143725295Y-60133684D01*
X143725295Y-60133684D02*
X143630057Y-60181303D01*
X143630057Y-60181303D02*
X143487200Y-60228922D01*
X143487200Y-60228922D02*
X143249104Y-60276541D01*
X143249104Y-60276541D02*
X143058628Y-60276541D01*
X143058628Y-60276541D02*
X142820533Y-60228922D01*
X142820533Y-60228922D02*
X142677676Y-60181303D01*
X142677676Y-60181303D02*
X142582438Y-60133684D01*
X142582438Y-60133684D02*
X142439580Y-60038446D01*
X142439580Y-60038446D02*
X142391961Y-59990827D01*
X143534819Y-61276541D02*
X143534819Y-60705113D01*
X143534819Y-60990827D02*
X142534819Y-60990827D01*
X142534819Y-60990827D02*
X142677676Y-60895589D01*
X142677676Y-60895589D02*
X142772914Y-60800351D01*
X142772914Y-60800351D02*
X142820533Y-60705113D01*
X160140124Y-83061904D02*
X159330601Y-83061904D01*
X159330601Y-83061904D02*
X159235363Y-83014285D01*
X159235363Y-83014285D02*
X159187744Y-82966666D01*
X159187744Y-82966666D02*
X159140124Y-82871428D01*
X159140124Y-82871428D02*
X159140124Y-82680952D01*
X159140124Y-82680952D02*
X159187744Y-82585714D01*
X159187744Y-82585714D02*
X159235363Y-82538095D01*
X159235363Y-82538095D02*
X159330601Y-82490476D01*
X159330601Y-82490476D02*
X160140124Y-82490476D01*
X160140124Y-82109523D02*
X160140124Y-81442857D01*
X160140124Y-81442857D02*
X159140124Y-81871428D01*
X158101609Y-83823809D02*
X158149228Y-83919047D01*
X158149228Y-83919047D02*
X158196847Y-83966666D01*
X158196847Y-83966666D02*
X158292085Y-84014285D01*
X158292085Y-84014285D02*
X158339704Y-84014285D01*
X158339704Y-84014285D02*
X158434942Y-83966666D01*
X158434942Y-83966666D02*
X158482561Y-83919047D01*
X158482561Y-83919047D02*
X158530180Y-83823809D01*
X158530180Y-83823809D02*
X158530180Y-83633333D01*
X158530180Y-83633333D02*
X158482561Y-83538095D01*
X158482561Y-83538095D02*
X158434942Y-83490476D01*
X158434942Y-83490476D02*
X158339704Y-83442857D01*
X158339704Y-83442857D02*
X158292085Y-83442857D01*
X158292085Y-83442857D02*
X158196847Y-83490476D01*
X158196847Y-83490476D02*
X158149228Y-83538095D01*
X158149228Y-83538095D02*
X158101609Y-83633333D01*
X158101609Y-83633333D02*
X158101609Y-83823809D01*
X158101609Y-83823809D02*
X158053990Y-83919047D01*
X158053990Y-83919047D02*
X158006371Y-83966666D01*
X158006371Y-83966666D02*
X157911133Y-84014285D01*
X157911133Y-84014285D02*
X157720657Y-84014285D01*
X157720657Y-84014285D02*
X157625419Y-83966666D01*
X157625419Y-83966666D02*
X157577800Y-83919047D01*
X157577800Y-83919047D02*
X157530180Y-83823809D01*
X157530180Y-83823809D02*
X157530180Y-83633333D01*
X157530180Y-83633333D02*
X157577800Y-83538095D01*
X157577800Y-83538095D02*
X157625419Y-83490476D01*
X157625419Y-83490476D02*
X157720657Y-83442857D01*
X157720657Y-83442857D02*
X157911133Y-83442857D01*
X157911133Y-83442857D02*
X158006371Y-83490476D01*
X158006371Y-83490476D02*
X158053990Y-83538095D01*
X158053990Y-83538095D02*
X158101609Y-83633333D01*
X157530180Y-82966666D02*
X157530180Y-82776190D01*
X157530180Y-82776190D02*
X157577800Y-82680952D01*
X157577800Y-82680952D02*
X157625419Y-82633333D01*
X157625419Y-82633333D02*
X157768276Y-82538095D01*
X157768276Y-82538095D02*
X157958752Y-82490476D01*
X157958752Y-82490476D02*
X158339704Y-82490476D01*
X158339704Y-82490476D02*
X158434942Y-82538095D01*
X158434942Y-82538095D02*
X158482561Y-82585714D01*
X158482561Y-82585714D02*
X158530180Y-82680952D01*
X158530180Y-82680952D02*
X158530180Y-82871428D01*
X158530180Y-82871428D02*
X158482561Y-82966666D01*
X158482561Y-82966666D02*
X158434942Y-83014285D01*
X158434942Y-83014285D02*
X158339704Y-83061904D01*
X158339704Y-83061904D02*
X158101609Y-83061904D01*
X158101609Y-83061904D02*
X158006371Y-83014285D01*
X158006371Y-83014285D02*
X157958752Y-82966666D01*
X157958752Y-82966666D02*
X157911133Y-82871428D01*
X157911133Y-82871428D02*
X157911133Y-82680952D01*
X157911133Y-82680952D02*
X157958752Y-82585714D01*
X157958752Y-82585714D02*
X158006371Y-82538095D01*
X158006371Y-82538095D02*
X158101609Y-82490476D01*
X157530180Y-81538095D02*
X157530180Y-82109523D01*
X157530180Y-81823809D02*
X158530180Y-81823809D01*
X158530180Y-81823809D02*
X158387323Y-81919047D01*
X158387323Y-81919047D02*
X158292085Y-82014285D01*
X158292085Y-82014285D02*
X158244466Y-82109523D01*
X158530180Y-81204761D02*
X158530180Y-80585714D01*
X158530180Y-80585714D02*
X158149228Y-80919047D01*
X158149228Y-80919047D02*
X158149228Y-80776190D01*
X158149228Y-80776190D02*
X158101609Y-80680952D01*
X158101609Y-80680952D02*
X158053990Y-80633333D01*
X158053990Y-80633333D02*
X157958752Y-80585714D01*
X157958752Y-80585714D02*
X157720657Y-80585714D01*
X157720657Y-80585714D02*
X157625419Y-80633333D01*
X157625419Y-80633333D02*
X157577800Y-80680952D01*
X157577800Y-80680952D02*
X157530180Y-80776190D01*
X157530180Y-80776190D02*
X157530180Y-81061904D01*
X157530180Y-81061904D02*
X157577800Y-81157142D01*
X157577800Y-81157142D02*
X157625419Y-81204761D01*
X170634819Y-52795588D02*
X170634819Y-52224160D01*
X170634819Y-52509874D02*
X169634819Y-52509874D01*
X169634819Y-52509874D02*
X169777676Y-52414636D01*
X169777676Y-52414636D02*
X169872914Y-52319398D01*
X169872914Y-52319398D02*
X169920533Y-52224160D01*
X169634819Y-53128922D02*
X169634819Y-53747969D01*
X169634819Y-53747969D02*
X170015771Y-53414636D01*
X170015771Y-53414636D02*
X170015771Y-53557493D01*
X170015771Y-53557493D02*
X170063390Y-53652731D01*
X170063390Y-53652731D02*
X170111009Y-53700350D01*
X170111009Y-53700350D02*
X170206247Y-53747969D01*
X170206247Y-53747969D02*
X170444342Y-53747969D01*
X170444342Y-53747969D02*
X170539580Y-53700350D01*
X170539580Y-53700350D02*
X170587200Y-53652731D01*
X170587200Y-53652731D02*
X170634819Y-53557493D01*
X170634819Y-53557493D02*
X170634819Y-53271779D01*
X170634819Y-53271779D02*
X170587200Y-53176541D01*
X170587200Y-53176541D02*
X170539580Y-53128922D01*
X171015771Y-54462255D02*
X170968152Y-54414636D01*
X170968152Y-54414636D02*
X170825295Y-54319398D01*
X170825295Y-54319398D02*
X170730057Y-54271779D01*
X170730057Y-54271779D02*
X170587200Y-54224160D01*
X170587200Y-54224160D02*
X170349104Y-54176541D01*
X170349104Y-54176541D02*
X170158628Y-54176541D01*
X170158628Y-54176541D02*
X169920533Y-54224160D01*
X169920533Y-54224160D02*
X169777676Y-54271779D01*
X169777676Y-54271779D02*
X169682438Y-54319398D01*
X169682438Y-54319398D02*
X169539580Y-54414636D01*
X169539580Y-54414636D02*
X169491961Y-54462255D01*
X170253866Y-54843208D02*
X170253866Y-55605113D01*
X170634819Y-55224160D02*
X169872914Y-55224160D01*
X169634819Y-56557493D02*
X169634819Y-56081303D01*
X169634819Y-56081303D02*
X170111009Y-56033684D01*
X170111009Y-56033684D02*
X170063390Y-56081303D01*
X170063390Y-56081303D02*
X170015771Y-56176541D01*
X170015771Y-56176541D02*
X170015771Y-56414636D01*
X170015771Y-56414636D02*
X170063390Y-56509874D01*
X170063390Y-56509874D02*
X170111009Y-56557493D01*
X170111009Y-56557493D02*
X170206247Y-56605112D01*
X170206247Y-56605112D02*
X170444342Y-56605112D01*
X170444342Y-56605112D02*
X170539580Y-56557493D01*
X170539580Y-56557493D02*
X170587200Y-56509874D01*
X170587200Y-56509874D02*
X170634819Y-56414636D01*
X170634819Y-56414636D02*
X170634819Y-56176541D01*
X170634819Y-56176541D02*
X170587200Y-56081303D01*
X170587200Y-56081303D02*
X170539580Y-56033684D01*
X169634819Y-56890827D02*
X170634819Y-57224160D01*
X170634819Y-57224160D02*
X169634819Y-57557493D01*
X171015771Y-57795589D02*
X170968152Y-57843208D01*
X170968152Y-57843208D02*
X170825295Y-57938446D01*
X170825295Y-57938446D02*
X170730057Y-57986065D01*
X170730057Y-57986065D02*
X170587200Y-58033684D01*
X170587200Y-58033684D02*
X170349104Y-58081303D01*
X170349104Y-58081303D02*
X170158628Y-58081303D01*
X170158628Y-58081303D02*
X169920533Y-58033684D01*
X169920533Y-58033684D02*
X169777676Y-57986065D01*
X169777676Y-57986065D02*
X169682438Y-57938446D01*
X169682438Y-57938446D02*
X169539580Y-57843208D01*
X169539580Y-57843208D02*
X169491961Y-57795589D01*
X91235363Y-101842857D02*
X91187744Y-101890476D01*
X91187744Y-101890476D02*
X91140124Y-102033333D01*
X91140124Y-102033333D02*
X91140124Y-102128571D01*
X91140124Y-102128571D02*
X91187744Y-102271428D01*
X91187744Y-102271428D02*
X91282982Y-102366666D01*
X91282982Y-102366666D02*
X91378220Y-102414285D01*
X91378220Y-102414285D02*
X91568696Y-102461904D01*
X91568696Y-102461904D02*
X91711553Y-102461904D01*
X91711553Y-102461904D02*
X91902029Y-102414285D01*
X91902029Y-102414285D02*
X91997267Y-102366666D01*
X91997267Y-102366666D02*
X92092505Y-102271428D01*
X92092505Y-102271428D02*
X92140124Y-102128571D01*
X92140124Y-102128571D02*
X92140124Y-102033333D01*
X92140124Y-102033333D02*
X92092505Y-101890476D01*
X92092505Y-101890476D02*
X92044886Y-101842857D01*
X92140124Y-101509523D02*
X92140124Y-100842857D01*
X92140124Y-100842857D02*
X91140124Y-101271428D01*
X91140124Y-99938095D02*
X91140124Y-100509523D01*
X91140124Y-100223809D02*
X92140124Y-100223809D01*
X92140124Y-100223809D02*
X91997267Y-100319047D01*
X91997267Y-100319047D02*
X91902029Y-100414285D01*
X91902029Y-100414285D02*
X91854410Y-100509523D01*
X89530180Y-102747619D02*
X89530180Y-103319047D01*
X89530180Y-103033333D02*
X90530180Y-103033333D01*
X90530180Y-103033333D02*
X90387323Y-103128571D01*
X90387323Y-103128571D02*
X90292085Y-103223809D01*
X90292085Y-103223809D02*
X90244466Y-103319047D01*
X90530180Y-102128571D02*
X90530180Y-102033333D01*
X90530180Y-102033333D02*
X90482561Y-101938095D01*
X90482561Y-101938095D02*
X90434942Y-101890476D01*
X90434942Y-101890476D02*
X90339704Y-101842857D01*
X90339704Y-101842857D02*
X90149228Y-101795238D01*
X90149228Y-101795238D02*
X89911133Y-101795238D01*
X89911133Y-101795238D02*
X89720657Y-101842857D01*
X89720657Y-101842857D02*
X89625419Y-101890476D01*
X89625419Y-101890476D02*
X89577800Y-101938095D01*
X89577800Y-101938095D02*
X89530180Y-102033333D01*
X89530180Y-102033333D02*
X89530180Y-102128571D01*
X89530180Y-102128571D02*
X89577800Y-102223809D01*
X89577800Y-102223809D02*
X89625419Y-102271428D01*
X89625419Y-102271428D02*
X89720657Y-102319047D01*
X89720657Y-102319047D02*
X89911133Y-102366666D01*
X89911133Y-102366666D02*
X90149228Y-102366666D01*
X90149228Y-102366666D02*
X90339704Y-102319047D01*
X90339704Y-102319047D02*
X90434942Y-102271428D01*
X90434942Y-102271428D02*
X90482561Y-102223809D01*
X90482561Y-102223809D02*
X90530180Y-102128571D01*
X90530180Y-101176190D02*
X90530180Y-101080952D01*
X90530180Y-101080952D02*
X90482561Y-100985714D01*
X90482561Y-100985714D02*
X90434942Y-100938095D01*
X90434942Y-100938095D02*
X90339704Y-100890476D01*
X90339704Y-100890476D02*
X90149228Y-100842857D01*
X90149228Y-100842857D02*
X89911133Y-100842857D01*
X89911133Y-100842857D02*
X89720657Y-100890476D01*
X89720657Y-100890476D02*
X89625419Y-100938095D01*
X89625419Y-100938095D02*
X89577800Y-100985714D01*
X89577800Y-100985714D02*
X89530180Y-101080952D01*
X89530180Y-101080952D02*
X89530180Y-101176190D01*
X89530180Y-101176190D02*
X89577800Y-101271428D01*
X89577800Y-101271428D02*
X89625419Y-101319047D01*
X89625419Y-101319047D02*
X89720657Y-101366666D01*
X89720657Y-101366666D02*
X89911133Y-101414285D01*
X89911133Y-101414285D02*
X90149228Y-101414285D01*
X90149228Y-101414285D02*
X90339704Y-101366666D01*
X90339704Y-101366666D02*
X90434942Y-101319047D01*
X90434942Y-101319047D02*
X90482561Y-101271428D01*
X90482561Y-101271428D02*
X90530180Y-101176190D01*
X90196847Y-100414285D02*
X89530180Y-100414285D01*
X90101609Y-100414285D02*
X90149228Y-100366666D01*
X90149228Y-100366666D02*
X90196847Y-100271428D01*
X90196847Y-100271428D02*
X90196847Y-100128571D01*
X90196847Y-100128571D02*
X90149228Y-100033333D01*
X90149228Y-100033333D02*
X90053990Y-99985714D01*
X90053990Y-99985714D02*
X89530180Y-99985714D01*
X90053990Y-99176190D02*
X90053990Y-99509523D01*
X89530180Y-99509523D02*
X90530180Y-99509523D01*
X90530180Y-99509523D02*
X90530180Y-99033333D01*
X113340124Y-80738094D02*
X112530601Y-80738094D01*
X112530601Y-80738094D02*
X112435363Y-80690475D01*
X112435363Y-80690475D02*
X112387744Y-80642856D01*
X112387744Y-80642856D02*
X112340124Y-80547618D01*
X112340124Y-80547618D02*
X112340124Y-80357142D01*
X112340124Y-80357142D02*
X112387744Y-80261904D01*
X112387744Y-80261904D02*
X112435363Y-80214285D01*
X112435363Y-80214285D02*
X112530601Y-80166666D01*
X112530601Y-80166666D02*
X113340124Y-80166666D01*
X112911553Y-79547618D02*
X112959172Y-79642856D01*
X112959172Y-79642856D02*
X113006791Y-79690475D01*
X113006791Y-79690475D02*
X113102029Y-79738094D01*
X113102029Y-79738094D02*
X113149648Y-79738094D01*
X113149648Y-79738094D02*
X113244886Y-79690475D01*
X113244886Y-79690475D02*
X113292505Y-79642856D01*
X113292505Y-79642856D02*
X113340124Y-79547618D01*
X113340124Y-79547618D02*
X113340124Y-79357142D01*
X113340124Y-79357142D02*
X113292505Y-79261904D01*
X113292505Y-79261904D02*
X113244886Y-79214285D01*
X113244886Y-79214285D02*
X113149648Y-79166666D01*
X113149648Y-79166666D02*
X113102029Y-79166666D01*
X113102029Y-79166666D02*
X113006791Y-79214285D01*
X113006791Y-79214285D02*
X112959172Y-79261904D01*
X112959172Y-79261904D02*
X112911553Y-79357142D01*
X112911553Y-79357142D02*
X112911553Y-79547618D01*
X112911553Y-79547618D02*
X112863934Y-79642856D01*
X112863934Y-79642856D02*
X112816315Y-79690475D01*
X112816315Y-79690475D02*
X112721077Y-79738094D01*
X112721077Y-79738094D02*
X112530601Y-79738094D01*
X112530601Y-79738094D02*
X112435363Y-79690475D01*
X112435363Y-79690475D02*
X112387744Y-79642856D01*
X112387744Y-79642856D02*
X112340124Y-79547618D01*
X112340124Y-79547618D02*
X112340124Y-79357142D01*
X112340124Y-79357142D02*
X112387744Y-79261904D01*
X112387744Y-79261904D02*
X112435363Y-79214285D01*
X112435363Y-79214285D02*
X112530601Y-79166666D01*
X112530601Y-79166666D02*
X112721077Y-79166666D01*
X112721077Y-79166666D02*
X112816315Y-79214285D01*
X112816315Y-79214285D02*
X112863934Y-79261904D01*
X112863934Y-79261904D02*
X112911553Y-79357142D01*
X112340124Y-78214285D02*
X112340124Y-78785713D01*
X112340124Y-78499999D02*
X113340124Y-78499999D01*
X113340124Y-78499999D02*
X113197267Y-78595237D01*
X113197267Y-78595237D02*
X113102029Y-78690475D01*
X113102029Y-78690475D02*
X113054410Y-78785713D01*
X111301609Y-81023809D02*
X111349228Y-81119047D01*
X111349228Y-81119047D02*
X111396847Y-81166666D01*
X111396847Y-81166666D02*
X111492085Y-81214285D01*
X111492085Y-81214285D02*
X111539704Y-81214285D01*
X111539704Y-81214285D02*
X111634942Y-81166666D01*
X111634942Y-81166666D02*
X111682561Y-81119047D01*
X111682561Y-81119047D02*
X111730180Y-81023809D01*
X111730180Y-81023809D02*
X111730180Y-80833333D01*
X111730180Y-80833333D02*
X111682561Y-80738095D01*
X111682561Y-80738095D02*
X111634942Y-80690476D01*
X111634942Y-80690476D02*
X111539704Y-80642857D01*
X111539704Y-80642857D02*
X111492085Y-80642857D01*
X111492085Y-80642857D02*
X111396847Y-80690476D01*
X111396847Y-80690476D02*
X111349228Y-80738095D01*
X111349228Y-80738095D02*
X111301609Y-80833333D01*
X111301609Y-80833333D02*
X111301609Y-81023809D01*
X111301609Y-81023809D02*
X111253990Y-81119047D01*
X111253990Y-81119047D02*
X111206371Y-81166666D01*
X111206371Y-81166666D02*
X111111133Y-81214285D01*
X111111133Y-81214285D02*
X110920657Y-81214285D01*
X110920657Y-81214285D02*
X110825419Y-81166666D01*
X110825419Y-81166666D02*
X110777800Y-81119047D01*
X110777800Y-81119047D02*
X110730180Y-81023809D01*
X110730180Y-81023809D02*
X110730180Y-80833333D01*
X110730180Y-80833333D02*
X110777800Y-80738095D01*
X110777800Y-80738095D02*
X110825419Y-80690476D01*
X110825419Y-80690476D02*
X110920657Y-80642857D01*
X110920657Y-80642857D02*
X111111133Y-80642857D01*
X111111133Y-80642857D02*
X111206371Y-80690476D01*
X111206371Y-80690476D02*
X111253990Y-80738095D01*
X111253990Y-80738095D02*
X111301609Y-80833333D01*
X110730180Y-80166666D02*
X110730180Y-79976190D01*
X110730180Y-79976190D02*
X110777800Y-79880952D01*
X110777800Y-79880952D02*
X110825419Y-79833333D01*
X110825419Y-79833333D02*
X110968276Y-79738095D01*
X110968276Y-79738095D02*
X111158752Y-79690476D01*
X111158752Y-79690476D02*
X111539704Y-79690476D01*
X111539704Y-79690476D02*
X111634942Y-79738095D01*
X111634942Y-79738095D02*
X111682561Y-79785714D01*
X111682561Y-79785714D02*
X111730180Y-79880952D01*
X111730180Y-79880952D02*
X111730180Y-80071428D01*
X111730180Y-80071428D02*
X111682561Y-80166666D01*
X111682561Y-80166666D02*
X111634942Y-80214285D01*
X111634942Y-80214285D02*
X111539704Y-80261904D01*
X111539704Y-80261904D02*
X111301609Y-80261904D01*
X111301609Y-80261904D02*
X111206371Y-80214285D01*
X111206371Y-80214285D02*
X111158752Y-80166666D01*
X111158752Y-80166666D02*
X111111133Y-80071428D01*
X111111133Y-80071428D02*
X111111133Y-79880952D01*
X111111133Y-79880952D02*
X111158752Y-79785714D01*
X111158752Y-79785714D02*
X111206371Y-79738095D01*
X111206371Y-79738095D02*
X111301609Y-79690476D01*
X110730180Y-78738095D02*
X110730180Y-79309523D01*
X110730180Y-79023809D02*
X111730180Y-79023809D01*
X111730180Y-79023809D02*
X111587323Y-79119047D01*
X111587323Y-79119047D02*
X111492085Y-79214285D01*
X111492085Y-79214285D02*
X111444466Y-79309523D01*
X111730180Y-78119047D02*
X111730180Y-78023809D01*
X111730180Y-78023809D02*
X111682561Y-77928571D01*
X111682561Y-77928571D02*
X111634942Y-77880952D01*
X111634942Y-77880952D02*
X111539704Y-77833333D01*
X111539704Y-77833333D02*
X111349228Y-77785714D01*
X111349228Y-77785714D02*
X111111133Y-77785714D01*
X111111133Y-77785714D02*
X110920657Y-77833333D01*
X110920657Y-77833333D02*
X110825419Y-77880952D01*
X110825419Y-77880952D02*
X110777800Y-77928571D01*
X110777800Y-77928571D02*
X110730180Y-78023809D01*
X110730180Y-78023809D02*
X110730180Y-78119047D01*
X110730180Y-78119047D02*
X110777800Y-78214285D01*
X110777800Y-78214285D02*
X110825419Y-78261904D01*
X110825419Y-78261904D02*
X110920657Y-78309523D01*
X110920657Y-78309523D02*
X111111133Y-78357142D01*
X111111133Y-78357142D02*
X111349228Y-78357142D01*
X111349228Y-78357142D02*
X111539704Y-78309523D01*
X111539704Y-78309523D02*
X111634942Y-78261904D01*
X111634942Y-78261904D02*
X111682561Y-78214285D01*
X111682561Y-78214285D02*
X111730180Y-78119047D01*
X82143207Y-85266609D02*
X82067017Y-85304704D01*
X82067017Y-85304704D02*
X81952731Y-85304704D01*
X81952731Y-85304704D02*
X81838445Y-85266609D01*
X81838445Y-85266609D02*
X81762255Y-85190419D01*
X81762255Y-85190419D02*
X81724160Y-85114228D01*
X81724160Y-85114228D02*
X81686064Y-84961847D01*
X81686064Y-84961847D02*
X81686064Y-84847561D01*
X81686064Y-84847561D02*
X81724160Y-84695180D01*
X81724160Y-84695180D02*
X81762255Y-84618990D01*
X81762255Y-84618990D02*
X81838445Y-84542800D01*
X81838445Y-84542800D02*
X81952731Y-84504704D01*
X81952731Y-84504704D02*
X82028922Y-84504704D01*
X82028922Y-84504704D02*
X82143207Y-84542800D01*
X82143207Y-84542800D02*
X82181303Y-84580895D01*
X82181303Y-84580895D02*
X82181303Y-84847561D01*
X82181303Y-84847561D02*
X82028922Y-84847561D01*
X82524160Y-84504704D02*
X82524160Y-85304704D01*
X82524160Y-85304704D02*
X82981303Y-84504704D01*
X82981303Y-84504704D02*
X82981303Y-85304704D01*
X83362255Y-84504704D02*
X83362255Y-85304704D01*
X83362255Y-85304704D02*
X83552731Y-85304704D01*
X83552731Y-85304704D02*
X83667017Y-85266609D01*
X83667017Y-85266609D02*
X83743207Y-85190419D01*
X83743207Y-85190419D02*
X83781302Y-85114228D01*
X83781302Y-85114228D02*
X83819398Y-84961847D01*
X83819398Y-84961847D02*
X83819398Y-84847561D01*
X83819398Y-84847561D02*
X83781302Y-84695180D01*
X83781302Y-84695180D02*
X83743207Y-84618990D01*
X83743207Y-84618990D02*
X83667017Y-84542800D01*
X83667017Y-84542800D02*
X83552731Y-84504704D01*
X83552731Y-84504704D02*
X83362255Y-84504704D01*
X113640124Y-100738094D02*
X112830601Y-100738094D01*
X112830601Y-100738094D02*
X112735363Y-100690475D01*
X112735363Y-100690475D02*
X112687744Y-100642856D01*
X112687744Y-100642856D02*
X112640124Y-100547618D01*
X112640124Y-100547618D02*
X112640124Y-100357142D01*
X112640124Y-100357142D02*
X112687744Y-100261904D01*
X112687744Y-100261904D02*
X112735363Y-100214285D01*
X112735363Y-100214285D02*
X112830601Y-100166666D01*
X112830601Y-100166666D02*
X113640124Y-100166666D01*
X113640124Y-99785713D02*
X113640124Y-99119047D01*
X113640124Y-99119047D02*
X112640124Y-99547618D01*
X112640124Y-98214285D02*
X112640124Y-98785713D01*
X112640124Y-98499999D02*
X113640124Y-98499999D01*
X113640124Y-98499999D02*
X113497267Y-98595237D01*
X113497267Y-98595237D02*
X113402029Y-98690475D01*
X113402029Y-98690475D02*
X113354410Y-98785713D01*
X111601609Y-101023809D02*
X111649228Y-101119047D01*
X111649228Y-101119047D02*
X111696847Y-101166666D01*
X111696847Y-101166666D02*
X111792085Y-101214285D01*
X111792085Y-101214285D02*
X111839704Y-101214285D01*
X111839704Y-101214285D02*
X111934942Y-101166666D01*
X111934942Y-101166666D02*
X111982561Y-101119047D01*
X111982561Y-101119047D02*
X112030180Y-101023809D01*
X112030180Y-101023809D02*
X112030180Y-100833333D01*
X112030180Y-100833333D02*
X111982561Y-100738095D01*
X111982561Y-100738095D02*
X111934942Y-100690476D01*
X111934942Y-100690476D02*
X111839704Y-100642857D01*
X111839704Y-100642857D02*
X111792085Y-100642857D01*
X111792085Y-100642857D02*
X111696847Y-100690476D01*
X111696847Y-100690476D02*
X111649228Y-100738095D01*
X111649228Y-100738095D02*
X111601609Y-100833333D01*
X111601609Y-100833333D02*
X111601609Y-101023809D01*
X111601609Y-101023809D02*
X111553990Y-101119047D01*
X111553990Y-101119047D02*
X111506371Y-101166666D01*
X111506371Y-101166666D02*
X111411133Y-101214285D01*
X111411133Y-101214285D02*
X111220657Y-101214285D01*
X111220657Y-101214285D02*
X111125419Y-101166666D01*
X111125419Y-101166666D02*
X111077800Y-101119047D01*
X111077800Y-101119047D02*
X111030180Y-101023809D01*
X111030180Y-101023809D02*
X111030180Y-100833333D01*
X111030180Y-100833333D02*
X111077800Y-100738095D01*
X111077800Y-100738095D02*
X111125419Y-100690476D01*
X111125419Y-100690476D02*
X111220657Y-100642857D01*
X111220657Y-100642857D02*
X111411133Y-100642857D01*
X111411133Y-100642857D02*
X111506371Y-100690476D01*
X111506371Y-100690476D02*
X111553990Y-100738095D01*
X111553990Y-100738095D02*
X111601609Y-100833333D01*
X111030180Y-100166666D02*
X111030180Y-99976190D01*
X111030180Y-99976190D02*
X111077800Y-99880952D01*
X111077800Y-99880952D02*
X111125419Y-99833333D01*
X111125419Y-99833333D02*
X111268276Y-99738095D01*
X111268276Y-99738095D02*
X111458752Y-99690476D01*
X111458752Y-99690476D02*
X111839704Y-99690476D01*
X111839704Y-99690476D02*
X111934942Y-99738095D01*
X111934942Y-99738095D02*
X111982561Y-99785714D01*
X111982561Y-99785714D02*
X112030180Y-99880952D01*
X112030180Y-99880952D02*
X112030180Y-100071428D01*
X112030180Y-100071428D02*
X111982561Y-100166666D01*
X111982561Y-100166666D02*
X111934942Y-100214285D01*
X111934942Y-100214285D02*
X111839704Y-100261904D01*
X111839704Y-100261904D02*
X111601609Y-100261904D01*
X111601609Y-100261904D02*
X111506371Y-100214285D01*
X111506371Y-100214285D02*
X111458752Y-100166666D01*
X111458752Y-100166666D02*
X111411133Y-100071428D01*
X111411133Y-100071428D02*
X111411133Y-99880952D01*
X111411133Y-99880952D02*
X111458752Y-99785714D01*
X111458752Y-99785714D02*
X111506371Y-99738095D01*
X111506371Y-99738095D02*
X111601609Y-99690476D01*
X111030180Y-98738095D02*
X111030180Y-99309523D01*
X111030180Y-99023809D02*
X112030180Y-99023809D01*
X112030180Y-99023809D02*
X111887323Y-99119047D01*
X111887323Y-99119047D02*
X111792085Y-99214285D01*
X111792085Y-99214285D02*
X111744466Y-99309523D01*
X112030180Y-98119047D02*
X112030180Y-98023809D01*
X112030180Y-98023809D02*
X111982561Y-97928571D01*
X111982561Y-97928571D02*
X111934942Y-97880952D01*
X111934942Y-97880952D02*
X111839704Y-97833333D01*
X111839704Y-97833333D02*
X111649228Y-97785714D01*
X111649228Y-97785714D02*
X111411133Y-97785714D01*
X111411133Y-97785714D02*
X111220657Y-97833333D01*
X111220657Y-97833333D02*
X111125419Y-97880952D01*
X111125419Y-97880952D02*
X111077800Y-97928571D01*
X111077800Y-97928571D02*
X111030180Y-98023809D01*
X111030180Y-98023809D02*
X111030180Y-98119047D01*
X111030180Y-98119047D02*
X111077800Y-98214285D01*
X111077800Y-98214285D02*
X111125419Y-98261904D01*
X111125419Y-98261904D02*
X111220657Y-98309523D01*
X111220657Y-98309523D02*
X111411133Y-98357142D01*
X111411133Y-98357142D02*
X111649228Y-98357142D01*
X111649228Y-98357142D02*
X111839704Y-98309523D01*
X111839704Y-98309523D02*
X111934942Y-98261904D01*
X111934942Y-98261904D02*
X111982561Y-98214285D01*
X111982561Y-98214285D02*
X112030180Y-98119047D01*
X91435363Y-80942857D02*
X91387744Y-80990476D01*
X91387744Y-80990476D02*
X91340124Y-81133333D01*
X91340124Y-81133333D02*
X91340124Y-81228571D01*
X91340124Y-81228571D02*
X91387744Y-81371428D01*
X91387744Y-81371428D02*
X91482982Y-81466666D01*
X91482982Y-81466666D02*
X91578220Y-81514285D01*
X91578220Y-81514285D02*
X91768696Y-81561904D01*
X91768696Y-81561904D02*
X91911553Y-81561904D01*
X91911553Y-81561904D02*
X92102029Y-81514285D01*
X92102029Y-81514285D02*
X92197267Y-81466666D01*
X92197267Y-81466666D02*
X92292505Y-81371428D01*
X92292505Y-81371428D02*
X92340124Y-81228571D01*
X92340124Y-81228571D02*
X92340124Y-81133333D01*
X92340124Y-81133333D02*
X92292505Y-80990476D01*
X92292505Y-80990476D02*
X92244886Y-80942857D01*
X91911553Y-80371428D02*
X91959172Y-80466666D01*
X91959172Y-80466666D02*
X92006791Y-80514285D01*
X92006791Y-80514285D02*
X92102029Y-80561904D01*
X92102029Y-80561904D02*
X92149648Y-80561904D01*
X92149648Y-80561904D02*
X92244886Y-80514285D01*
X92244886Y-80514285D02*
X92292505Y-80466666D01*
X92292505Y-80466666D02*
X92340124Y-80371428D01*
X92340124Y-80371428D02*
X92340124Y-80180952D01*
X92340124Y-80180952D02*
X92292505Y-80085714D01*
X92292505Y-80085714D02*
X92244886Y-80038095D01*
X92244886Y-80038095D02*
X92149648Y-79990476D01*
X92149648Y-79990476D02*
X92102029Y-79990476D01*
X92102029Y-79990476D02*
X92006791Y-80038095D01*
X92006791Y-80038095D02*
X91959172Y-80085714D01*
X91959172Y-80085714D02*
X91911553Y-80180952D01*
X91911553Y-80180952D02*
X91911553Y-80371428D01*
X91911553Y-80371428D02*
X91863934Y-80466666D01*
X91863934Y-80466666D02*
X91816315Y-80514285D01*
X91816315Y-80514285D02*
X91721077Y-80561904D01*
X91721077Y-80561904D02*
X91530601Y-80561904D01*
X91530601Y-80561904D02*
X91435363Y-80514285D01*
X91435363Y-80514285D02*
X91387744Y-80466666D01*
X91387744Y-80466666D02*
X91340124Y-80371428D01*
X91340124Y-80371428D02*
X91340124Y-80180952D01*
X91340124Y-80180952D02*
X91387744Y-80085714D01*
X91387744Y-80085714D02*
X91435363Y-80038095D01*
X91435363Y-80038095D02*
X91530601Y-79990476D01*
X91530601Y-79990476D02*
X91721077Y-79990476D01*
X91721077Y-79990476D02*
X91816315Y-80038095D01*
X91816315Y-80038095D02*
X91863934Y-80085714D01*
X91863934Y-80085714D02*
X91911553Y-80180952D01*
X91340124Y-79038095D02*
X91340124Y-79609523D01*
X91340124Y-79323809D02*
X92340124Y-79323809D01*
X92340124Y-79323809D02*
X92197267Y-79419047D01*
X92197267Y-79419047D02*
X92102029Y-79514285D01*
X92102029Y-79514285D02*
X92054410Y-79609523D01*
X89730180Y-81847619D02*
X89730180Y-82419047D01*
X89730180Y-82133333D02*
X90730180Y-82133333D01*
X90730180Y-82133333D02*
X90587323Y-82228571D01*
X90587323Y-82228571D02*
X90492085Y-82323809D01*
X90492085Y-82323809D02*
X90444466Y-82419047D01*
X90730180Y-81228571D02*
X90730180Y-81133333D01*
X90730180Y-81133333D02*
X90682561Y-81038095D01*
X90682561Y-81038095D02*
X90634942Y-80990476D01*
X90634942Y-80990476D02*
X90539704Y-80942857D01*
X90539704Y-80942857D02*
X90349228Y-80895238D01*
X90349228Y-80895238D02*
X90111133Y-80895238D01*
X90111133Y-80895238D02*
X89920657Y-80942857D01*
X89920657Y-80942857D02*
X89825419Y-80990476D01*
X89825419Y-80990476D02*
X89777800Y-81038095D01*
X89777800Y-81038095D02*
X89730180Y-81133333D01*
X89730180Y-81133333D02*
X89730180Y-81228571D01*
X89730180Y-81228571D02*
X89777800Y-81323809D01*
X89777800Y-81323809D02*
X89825419Y-81371428D01*
X89825419Y-81371428D02*
X89920657Y-81419047D01*
X89920657Y-81419047D02*
X90111133Y-81466666D01*
X90111133Y-81466666D02*
X90349228Y-81466666D01*
X90349228Y-81466666D02*
X90539704Y-81419047D01*
X90539704Y-81419047D02*
X90634942Y-81371428D01*
X90634942Y-81371428D02*
X90682561Y-81323809D01*
X90682561Y-81323809D02*
X90730180Y-81228571D01*
X90730180Y-80276190D02*
X90730180Y-80180952D01*
X90730180Y-80180952D02*
X90682561Y-80085714D01*
X90682561Y-80085714D02*
X90634942Y-80038095D01*
X90634942Y-80038095D02*
X90539704Y-79990476D01*
X90539704Y-79990476D02*
X90349228Y-79942857D01*
X90349228Y-79942857D02*
X90111133Y-79942857D01*
X90111133Y-79942857D02*
X89920657Y-79990476D01*
X89920657Y-79990476D02*
X89825419Y-80038095D01*
X89825419Y-80038095D02*
X89777800Y-80085714D01*
X89777800Y-80085714D02*
X89730180Y-80180952D01*
X89730180Y-80180952D02*
X89730180Y-80276190D01*
X89730180Y-80276190D02*
X89777800Y-80371428D01*
X89777800Y-80371428D02*
X89825419Y-80419047D01*
X89825419Y-80419047D02*
X89920657Y-80466666D01*
X89920657Y-80466666D02*
X90111133Y-80514285D01*
X90111133Y-80514285D02*
X90349228Y-80514285D01*
X90349228Y-80514285D02*
X90539704Y-80466666D01*
X90539704Y-80466666D02*
X90634942Y-80419047D01*
X90634942Y-80419047D02*
X90682561Y-80371428D01*
X90682561Y-80371428D02*
X90730180Y-80276190D01*
X90396847Y-79514285D02*
X89730180Y-79514285D01*
X90301609Y-79514285D02*
X90349228Y-79466666D01*
X90349228Y-79466666D02*
X90396847Y-79371428D01*
X90396847Y-79371428D02*
X90396847Y-79228571D01*
X90396847Y-79228571D02*
X90349228Y-79133333D01*
X90349228Y-79133333D02*
X90253990Y-79085714D01*
X90253990Y-79085714D02*
X89730180Y-79085714D01*
X90253990Y-78276190D02*
X90253990Y-78609523D01*
X89730180Y-78609523D02*
X90730180Y-78609523D01*
X90730180Y-78609523D02*
X90730180Y-78133333D01*
X169630180Y-82939411D02*
X169630180Y-83510839D01*
X169630180Y-83225125D02*
X170630180Y-83225125D01*
X170630180Y-83225125D02*
X170487323Y-83320363D01*
X170487323Y-83320363D02*
X170392085Y-83415601D01*
X170392085Y-83415601D02*
X170344466Y-83510839D01*
X170630180Y-82606077D02*
X170630180Y-81987030D01*
X170630180Y-81987030D02*
X170249228Y-82320363D01*
X170249228Y-82320363D02*
X170249228Y-82177506D01*
X170249228Y-82177506D02*
X170201609Y-82082268D01*
X170201609Y-82082268D02*
X170153990Y-82034649D01*
X170153990Y-82034649D02*
X170058752Y-81987030D01*
X170058752Y-81987030D02*
X169820657Y-81987030D01*
X169820657Y-81987030D02*
X169725419Y-82034649D01*
X169725419Y-82034649D02*
X169677800Y-82082268D01*
X169677800Y-82082268D02*
X169630180Y-82177506D01*
X169630180Y-82177506D02*
X169630180Y-82463220D01*
X169630180Y-82463220D02*
X169677800Y-82558458D01*
X169677800Y-82558458D02*
X169725419Y-82606077D01*
X169249228Y-81272744D02*
X169296847Y-81320363D01*
X169296847Y-81320363D02*
X169439704Y-81415601D01*
X169439704Y-81415601D02*
X169534942Y-81463220D01*
X169534942Y-81463220D02*
X169677800Y-81510839D01*
X169677800Y-81510839D02*
X169915895Y-81558458D01*
X169915895Y-81558458D02*
X170106371Y-81558458D01*
X170106371Y-81558458D02*
X170344466Y-81510839D01*
X170344466Y-81510839D02*
X170487323Y-81463220D01*
X170487323Y-81463220D02*
X170582561Y-81415601D01*
X170582561Y-81415601D02*
X170725419Y-81320363D01*
X170725419Y-81320363D02*
X170773038Y-81272744D01*
X170011133Y-80891791D02*
X170011133Y-80129887D01*
X169630180Y-80510839D02*
X170392085Y-80510839D01*
X170630180Y-79177506D02*
X170630180Y-79653696D01*
X170630180Y-79653696D02*
X170153990Y-79701315D01*
X170153990Y-79701315D02*
X170201609Y-79653696D01*
X170201609Y-79653696D02*
X170249228Y-79558458D01*
X170249228Y-79558458D02*
X170249228Y-79320363D01*
X170249228Y-79320363D02*
X170201609Y-79225125D01*
X170201609Y-79225125D02*
X170153990Y-79177506D01*
X170153990Y-79177506D02*
X170058752Y-79129887D01*
X170058752Y-79129887D02*
X169820657Y-79129887D01*
X169820657Y-79129887D02*
X169725419Y-79177506D01*
X169725419Y-79177506D02*
X169677800Y-79225125D01*
X169677800Y-79225125D02*
X169630180Y-79320363D01*
X169630180Y-79320363D02*
X169630180Y-79558458D01*
X169630180Y-79558458D02*
X169677800Y-79653696D01*
X169677800Y-79653696D02*
X169725419Y-79701315D01*
X170630180Y-78844172D02*
X169630180Y-78510839D01*
X169630180Y-78510839D02*
X170630180Y-78177506D01*
X169249228Y-77939410D02*
X169296847Y-77891791D01*
X169296847Y-77891791D02*
X169439704Y-77796553D01*
X169439704Y-77796553D02*
X169534942Y-77748934D01*
X169534942Y-77748934D02*
X169677800Y-77701315D01*
X169677800Y-77701315D02*
X169915895Y-77653696D01*
X169915895Y-77653696D02*
X170106371Y-77653696D01*
X170106371Y-77653696D02*
X170344466Y-77701315D01*
X170344466Y-77701315D02*
X170487323Y-77748934D01*
X170487323Y-77748934D02*
X170582561Y-77796553D01*
X170582561Y-77796553D02*
X170725419Y-77891791D01*
X170725419Y-77891791D02*
X170773038Y-77939410D01*
X81534276Y-103548935D02*
X81534276Y-103167982D01*
X81305704Y-103625125D02*
X82105704Y-103358458D01*
X82105704Y-103358458D02*
X81305704Y-103091792D01*
X81610466Y-102825125D02*
X81610466Y-102215602D01*
X81305704Y-102520363D02*
X81915228Y-102520363D01*
X81724752Y-101567983D02*
X81686657Y-101453697D01*
X81686657Y-101453697D02*
X81648561Y-101415602D01*
X81648561Y-101415602D02*
X81572371Y-101377506D01*
X81572371Y-101377506D02*
X81458085Y-101377506D01*
X81458085Y-101377506D02*
X81381895Y-101415602D01*
X81381895Y-101415602D02*
X81343800Y-101453697D01*
X81343800Y-101453697D02*
X81305704Y-101529887D01*
X81305704Y-101529887D02*
X81305704Y-101834649D01*
X81305704Y-101834649D02*
X82105704Y-101834649D01*
X82105704Y-101834649D02*
X82105704Y-101567983D01*
X82105704Y-101567983D02*
X82067609Y-101491792D01*
X82067609Y-101491792D02*
X82029514Y-101453697D01*
X82029514Y-101453697D02*
X81953323Y-101415602D01*
X81953323Y-101415602D02*
X81877133Y-101415602D01*
X81877133Y-101415602D02*
X81800942Y-101453697D01*
X81800942Y-101453697D02*
X81762847Y-101491792D01*
X81762847Y-101491792D02*
X81724752Y-101567983D01*
X81724752Y-101567983D02*
X81724752Y-101834649D01*
X81610466Y-101034649D02*
X81610466Y-100425126D01*
X81305704Y-100729887D02*
X81915228Y-100729887D01*
X81381895Y-99587030D02*
X81343800Y-99625126D01*
X81343800Y-99625126D02*
X81305704Y-99739411D01*
X81305704Y-99739411D02*
X81305704Y-99815602D01*
X81305704Y-99815602D02*
X81343800Y-99929888D01*
X81343800Y-99929888D02*
X81419990Y-100006078D01*
X81419990Y-100006078D02*
X81496180Y-100044173D01*
X81496180Y-100044173D02*
X81648561Y-100082269D01*
X81648561Y-100082269D02*
X81762847Y-100082269D01*
X81762847Y-100082269D02*
X81915228Y-100044173D01*
X81915228Y-100044173D02*
X81991419Y-100006078D01*
X81991419Y-100006078D02*
X82067609Y-99929888D01*
X82067609Y-99929888D02*
X82105704Y-99815602D01*
X82105704Y-99815602D02*
X82105704Y-99739411D01*
X82105704Y-99739411D02*
X82067609Y-99625126D01*
X82067609Y-99625126D02*
X82029514Y-99587030D01*
X81000942Y-98406078D02*
X81039038Y-98444173D01*
X81039038Y-98444173D02*
X81153323Y-98520364D01*
X81153323Y-98520364D02*
X81229514Y-98558459D01*
X81229514Y-98558459D02*
X81343800Y-98596554D01*
X81343800Y-98596554D02*
X81534276Y-98634649D01*
X81534276Y-98634649D02*
X81686657Y-98634649D01*
X81686657Y-98634649D02*
X81877133Y-98596554D01*
X81877133Y-98596554D02*
X81991419Y-98558459D01*
X81991419Y-98558459D02*
X82067609Y-98520364D01*
X82067609Y-98520364D02*
X82181895Y-98444173D01*
X82181895Y-98444173D02*
X82219990Y-98406078D01*
X82105704Y-98101316D02*
X81458085Y-98101316D01*
X81458085Y-98101316D02*
X81381895Y-98063221D01*
X81381895Y-98063221D02*
X81343800Y-98025126D01*
X81343800Y-98025126D02*
X81305704Y-97948935D01*
X81305704Y-97948935D02*
X81305704Y-97796554D01*
X81305704Y-97796554D02*
X81343800Y-97720364D01*
X81343800Y-97720364D02*
X81381895Y-97682269D01*
X81381895Y-97682269D02*
X81458085Y-97644173D01*
X81458085Y-97644173D02*
X82105704Y-97644173D01*
X82105704Y-97339412D02*
X82105704Y-96806078D01*
X82105704Y-96806078D02*
X81305704Y-97148936D01*
X81305704Y-96082269D02*
X81305704Y-96539412D01*
X81305704Y-96310840D02*
X82105704Y-96310840D01*
X82105704Y-96310840D02*
X81991419Y-96387031D01*
X81991419Y-96387031D02*
X81915228Y-96463221D01*
X81915228Y-96463221D02*
X81877133Y-96539412D01*
X81000942Y-95815602D02*
X81039038Y-95777507D01*
X81039038Y-95777507D02*
X81153323Y-95701316D01*
X81153323Y-95701316D02*
X81229514Y-95663221D01*
X81229514Y-95663221D02*
X81343800Y-95625126D01*
X81343800Y-95625126D02*
X81534276Y-95587030D01*
X81534276Y-95587030D02*
X81686657Y-95587030D01*
X81686657Y-95587030D02*
X81877133Y-95625126D01*
X81877133Y-95625126D02*
X81991419Y-95663221D01*
X81991419Y-95663221D02*
X82067609Y-95701316D01*
X82067609Y-95701316D02*
X82181895Y-95777507D01*
X82181895Y-95777507D02*
X82219990Y-95815602D01*
D13*
%TO.C,*%
X140865000Y-50435000D02*
X140865000Y-55495000D01*
X140865000Y-57495000D02*
X140865000Y-62555000D01*
X140865000Y-62555000D02*
X171465000Y-62555000D01*
X171465000Y-50435000D02*
X140865000Y-50435000D01*
X171465000Y-62555000D02*
X171465000Y-50435000D01*
X140865000Y-55495000D02*
G75*
G02*
X140865000Y-57495000I0J-1000000D01*
G01*
%TO.C,C71*%
X92830000Y-101596252D02*
X92830000Y-101073748D01*
X94300000Y-101596252D02*
X94300000Y-101073748D01*
%TO.C,*%
X140955000Y-76140000D02*
X140955000Y-81200000D01*
X140955000Y-83200000D02*
X140955000Y-88260000D01*
X140955000Y-88260000D02*
X171555000Y-88260000D01*
X171555000Y-76140000D02*
X140955000Y-76140000D01*
X171555000Y-88260000D02*
X171555000Y-76140000D01*
X140955000Y-81200000D02*
G75*
G02*
X140955000Y-83200000I0J-1000000D01*
G01*
%TO.C,C81*%
X92830000Y-80633752D02*
X92830000Y-80111248D01*
X94300000Y-80633752D02*
X94300000Y-80111248D01*
%TD*%
M02*
