M48
; DRILL file {KiCad 8.0.3} date 2024-06-29T10:30:56+0200
; FORMAT={-:-/ absolute / metric / decimal}
; #@! TF.CreationDate,2024-06-29T10:30:56+02:00
; #@! TF.GenerationSoftware,Kicad,Pcbnew,8.0.3
; #@! TF.FileFunction,Plated,1,2,PTH
FMAT,2
METRIC
; #@! TA.AperFunction,Plated,PTH,ViaDrill
T1C0.400
; #@! TA.AperFunction,Plated,PTH,ComponentDrill
T2C0.800
; #@! TA.AperFunction,Plated,PTH,ComponentDrill
T3C1.000
%
G90
G05
T1
X77.405Y-96.005
X78.5Y-77.3
X80.7Y-89.7
X88.665Y-84.935
X90.225Y-104.995
X93.945Y-69.105
X94.455Y-67.145
X117.0Y-104.15
X119.2Y-105.65
X121.92Y-104.1
X126.975Y-104.245
X138.773Y-81.145
X139.065Y-77.855
X139.165Y-79.635
X139.627Y-83.65
T2
X85.525Y-71.395
X85.525Y-86.635
X85.525Y-92.695
X85.525Y-107.935
X88.065Y-71.395
X88.065Y-86.635
X88.065Y-92.695
X88.065Y-107.935
X90.605Y-71.395
X90.605Y-86.635
X90.605Y-92.695
X90.605Y-107.935
X93.145Y-71.395
X93.145Y-86.635
X93.145Y-92.695
X93.145Y-107.935
X95.685Y-71.395
X95.685Y-86.635
X95.685Y-92.695
X95.685Y-107.935
X98.225Y-71.395
X98.225Y-86.635
X98.225Y-92.695
X98.225Y-107.935
X100.765Y-71.395
X100.765Y-86.635
X100.765Y-92.695
X100.765Y-107.935
X103.305Y-71.395
X103.305Y-86.635
X103.305Y-92.695
X103.305Y-107.935
X105.845Y-71.395
X105.845Y-86.635
X105.845Y-92.695
X105.845Y-107.935
X108.385Y-71.395
X108.385Y-86.635
X108.385Y-92.695
X108.385Y-107.935
X110.925Y-71.395
X110.925Y-86.635
X110.925Y-92.695
X110.925Y-107.935
X113.465Y-71.395
X113.465Y-86.635
X113.465Y-92.695
X113.465Y-107.935
X116.005Y-71.395
X116.005Y-86.635
X116.005Y-92.695
X116.005Y-107.935
X118.545Y-71.395
X118.545Y-86.635
X118.545Y-92.695
X118.545Y-107.935
X121.085Y-71.395
X121.085Y-86.635
X121.085Y-92.695
X121.085Y-107.935
X123.625Y-71.395
X123.625Y-86.635
X123.625Y-92.695
X123.625Y-107.935
X126.165Y-71.395
X126.165Y-86.635
X126.165Y-92.695
X126.165Y-107.935
X128.705Y-71.395
X128.705Y-86.635
X128.705Y-92.695
X128.705Y-107.935
X131.245Y-71.395
X131.245Y-86.635
X131.245Y-92.695
X131.245Y-107.935
X133.785Y-71.395
X133.785Y-86.635
X133.785Y-92.695
X133.785Y-107.935
X142.185Y-48.915
X142.185Y-64.155
X142.185Y-74.455
X142.185Y-89.695
X144.725Y-48.915
X144.725Y-64.155
X144.725Y-74.455
X144.725Y-89.695
X147.265Y-48.915
X147.265Y-64.155
X147.265Y-74.455
X147.265Y-89.695
X149.805Y-48.915
X149.805Y-64.155
X149.805Y-74.455
X149.805Y-89.695
X152.345Y-48.915
X152.345Y-64.155
X152.345Y-74.455
X152.345Y-89.695
X154.885Y-48.915
X154.885Y-64.155
X154.885Y-74.455
X154.885Y-89.695
X157.425Y-48.915
X157.425Y-64.155
X157.425Y-74.455
X157.425Y-89.695
X159.965Y-48.915
X159.965Y-64.155
X159.965Y-74.455
X159.965Y-89.695
X162.505Y-48.915
X162.505Y-64.155
X162.505Y-74.455
X162.505Y-89.695
X165.045Y-48.915
X165.045Y-64.155
X165.045Y-74.455
X165.045Y-89.695
X167.585Y-48.915
X167.585Y-64.155
X167.585Y-74.455
X167.585Y-89.695
X170.125Y-48.915
X170.125Y-64.155
X170.125Y-74.455
X170.125Y-89.695
T3
X78.575Y-84.945
X78.575Y-87.485
X78.575Y-90.025
M30
