%TF.GenerationSoftware,KiCad,Pcbnew,8.0.3*%
%TF.CreationDate,2024-06-29T10:30:59+02:00*%
%TF.ProjectId,adapter 8913-8910 triangle,61646170-7465-4722-9038-3931332d3839,rev?*%
%TF.SameCoordinates,Original*%
%TF.FileFunction,Drillmap*%
%TF.FilePolarity,Positive*%
%FSLAX45Y45*%
G04 Gerber Fmt 4.5, Leading zero omitted, Abs format (unit mm)*
G04 Created by KiCad (PCBNEW 8.0.3) date 2024-06-29 10:30:59*
%MOMM*%
%LPD*%
G01*
G04 APERTURE LIST*
%ADD10C,0.050000*%
%ADD11C,0.200000*%
%ADD12C,0.100000*%
G04 APERTURE END LIST*
D10*
X13583500Y-4565500D02*
X17383500Y-4565500D01*
X17383500Y-4565500D02*
X17383500Y-10390500D01*
X7383500Y-11165000D02*
X7383500Y-7221500D01*
X17383500Y-10390500D02*
X14560000Y-10390500D01*
X13783500Y-11165500D02*
X7383500Y-11165500D01*
X7383500Y-7221500D02*
X13583500Y-4565500D01*
X13783500Y-11165500D02*
X14560000Y-10390500D01*
D11*
D12*
X7720500Y-9580500D02*
X7760500Y-9620500D01*
X7760500Y-9580500D02*
X7720500Y-9620500D01*
X7830000Y-7710000D02*
X7870000Y-7750000D01*
X7870000Y-7710000D02*
X7830000Y-7750000D01*
X8050000Y-8950000D02*
X8090000Y-8990000D01*
X8090000Y-8950000D02*
X8050000Y-8990000D01*
X8846500Y-8473500D02*
X8886500Y-8513500D01*
X8886500Y-8473500D02*
X8846500Y-8513500D01*
X9002500Y-10479500D02*
X9042500Y-10519500D01*
X9042500Y-10479500D02*
X9002500Y-10519500D01*
X9374500Y-6890500D02*
X9414500Y-6930500D01*
X9414500Y-6890500D02*
X9374500Y-6930500D01*
X9425500Y-6694500D02*
X9465500Y-6734500D01*
X9465500Y-6694500D02*
X9425500Y-6734500D01*
X11680000Y-10395000D02*
X11720000Y-10435000D01*
X11720000Y-10395000D02*
X11680000Y-10435000D01*
X11900000Y-10545000D02*
X11940000Y-10585000D01*
X11940000Y-10545000D02*
X11900000Y-10585000D01*
X12172000Y-10390000D02*
X12212000Y-10430000D01*
X12212000Y-10390000D02*
X12172000Y-10430000D01*
X12677500Y-10404500D02*
X12717500Y-10444500D01*
X12717500Y-10404500D02*
X12677500Y-10444500D01*
X13857300Y-8094500D02*
X13897300Y-8134500D01*
X13897300Y-8094500D02*
X13857300Y-8134500D01*
X13886500Y-7765500D02*
X13926500Y-7805500D01*
X13926500Y-7765500D02*
X13886500Y-7805500D01*
X13896500Y-7943500D02*
X13936500Y-7983500D01*
X13936500Y-7943500D02*
X13896500Y-7983500D01*
X13942700Y-8345000D02*
X13982700Y-8385000D01*
X13982700Y-8345000D02*
X13942700Y-8385000D01*
X8592500Y-7139500D02*
G75*
G02*
X8512500Y-7139500I-40000J0D01*
G01*
X8512500Y-7139500D02*
G75*
G02*
X8592500Y-7139500I40000J0D01*
G01*
X8592500Y-8663500D02*
G75*
G02*
X8512500Y-8663500I-40000J0D01*
G01*
X8512500Y-8663500D02*
G75*
G02*
X8592500Y-8663500I40000J0D01*
G01*
X8592500Y-9269500D02*
G75*
G02*
X8512500Y-9269500I-40000J0D01*
G01*
X8512500Y-9269500D02*
G75*
G02*
X8592500Y-9269500I40000J0D01*
G01*
X8592500Y-10793500D02*
G75*
G02*
X8512500Y-10793500I-40000J0D01*
G01*
X8512500Y-10793500D02*
G75*
G02*
X8592500Y-10793500I40000J0D01*
G01*
X8846500Y-7139500D02*
G75*
G02*
X8766500Y-7139500I-40000J0D01*
G01*
X8766500Y-7139500D02*
G75*
G02*
X8846500Y-7139500I40000J0D01*
G01*
X8846500Y-8663500D02*
G75*
G02*
X8766500Y-8663500I-40000J0D01*
G01*
X8766500Y-8663500D02*
G75*
G02*
X8846500Y-8663500I40000J0D01*
G01*
X8846500Y-9269500D02*
G75*
G02*
X8766500Y-9269500I-40000J0D01*
G01*
X8766500Y-9269500D02*
G75*
G02*
X8846500Y-9269500I40000J0D01*
G01*
X8846500Y-10793500D02*
G75*
G02*
X8766500Y-10793500I-40000J0D01*
G01*
X8766500Y-10793500D02*
G75*
G02*
X8846500Y-10793500I40000J0D01*
G01*
X9100500Y-7139500D02*
G75*
G02*
X9020500Y-7139500I-40000J0D01*
G01*
X9020500Y-7139500D02*
G75*
G02*
X9100500Y-7139500I40000J0D01*
G01*
X9100500Y-8663500D02*
G75*
G02*
X9020500Y-8663500I-40000J0D01*
G01*
X9020500Y-8663500D02*
G75*
G02*
X9100500Y-8663500I40000J0D01*
G01*
X9100500Y-9269500D02*
G75*
G02*
X9020500Y-9269500I-40000J0D01*
G01*
X9020500Y-9269500D02*
G75*
G02*
X9100500Y-9269500I40000J0D01*
G01*
X9100500Y-10793500D02*
G75*
G02*
X9020500Y-10793500I-40000J0D01*
G01*
X9020500Y-10793500D02*
G75*
G02*
X9100500Y-10793500I40000J0D01*
G01*
X9354500Y-7139500D02*
G75*
G02*
X9274500Y-7139500I-40000J0D01*
G01*
X9274500Y-7139500D02*
G75*
G02*
X9354500Y-7139500I40000J0D01*
G01*
X9354500Y-8663500D02*
G75*
G02*
X9274500Y-8663500I-40000J0D01*
G01*
X9274500Y-8663500D02*
G75*
G02*
X9354500Y-8663500I40000J0D01*
G01*
X9354500Y-9269500D02*
G75*
G02*
X9274500Y-9269500I-40000J0D01*
G01*
X9274500Y-9269500D02*
G75*
G02*
X9354500Y-9269500I40000J0D01*
G01*
X9354500Y-10793500D02*
G75*
G02*
X9274500Y-10793500I-40000J0D01*
G01*
X9274500Y-10793500D02*
G75*
G02*
X9354500Y-10793500I40000J0D01*
G01*
X9608500Y-7139500D02*
G75*
G02*
X9528500Y-7139500I-40000J0D01*
G01*
X9528500Y-7139500D02*
G75*
G02*
X9608500Y-7139500I40000J0D01*
G01*
X9608500Y-8663500D02*
G75*
G02*
X9528500Y-8663500I-40000J0D01*
G01*
X9528500Y-8663500D02*
G75*
G02*
X9608500Y-8663500I40000J0D01*
G01*
X9608500Y-9269500D02*
G75*
G02*
X9528500Y-9269500I-40000J0D01*
G01*
X9528500Y-9269500D02*
G75*
G02*
X9608500Y-9269500I40000J0D01*
G01*
X9608500Y-10793500D02*
G75*
G02*
X9528500Y-10793500I-40000J0D01*
G01*
X9528500Y-10793500D02*
G75*
G02*
X9608500Y-10793500I40000J0D01*
G01*
X9862500Y-7139500D02*
G75*
G02*
X9782500Y-7139500I-40000J0D01*
G01*
X9782500Y-7139500D02*
G75*
G02*
X9862500Y-7139500I40000J0D01*
G01*
X9862500Y-8663500D02*
G75*
G02*
X9782500Y-8663500I-40000J0D01*
G01*
X9782500Y-8663500D02*
G75*
G02*
X9862500Y-8663500I40000J0D01*
G01*
X9862500Y-9269500D02*
G75*
G02*
X9782500Y-9269500I-40000J0D01*
G01*
X9782500Y-9269500D02*
G75*
G02*
X9862500Y-9269500I40000J0D01*
G01*
X9862500Y-10793500D02*
G75*
G02*
X9782500Y-10793500I-40000J0D01*
G01*
X9782500Y-10793500D02*
G75*
G02*
X9862500Y-10793500I40000J0D01*
G01*
X10116500Y-7139500D02*
G75*
G02*
X10036500Y-7139500I-40000J0D01*
G01*
X10036500Y-7139500D02*
G75*
G02*
X10116500Y-7139500I40000J0D01*
G01*
X10116500Y-8663500D02*
G75*
G02*
X10036500Y-8663500I-40000J0D01*
G01*
X10036500Y-8663500D02*
G75*
G02*
X10116500Y-8663500I40000J0D01*
G01*
X10116500Y-9269500D02*
G75*
G02*
X10036500Y-9269500I-40000J0D01*
G01*
X10036500Y-9269500D02*
G75*
G02*
X10116500Y-9269500I40000J0D01*
G01*
X10116500Y-10793500D02*
G75*
G02*
X10036500Y-10793500I-40000J0D01*
G01*
X10036500Y-10793500D02*
G75*
G02*
X10116500Y-10793500I40000J0D01*
G01*
X10370500Y-7139500D02*
G75*
G02*
X10290500Y-7139500I-40000J0D01*
G01*
X10290500Y-7139500D02*
G75*
G02*
X10370500Y-7139500I40000J0D01*
G01*
X10370500Y-8663500D02*
G75*
G02*
X10290500Y-8663500I-40000J0D01*
G01*
X10290500Y-8663500D02*
G75*
G02*
X10370500Y-8663500I40000J0D01*
G01*
X10370500Y-9269500D02*
G75*
G02*
X10290500Y-9269500I-40000J0D01*
G01*
X10290500Y-9269500D02*
G75*
G02*
X10370500Y-9269500I40000J0D01*
G01*
X10370500Y-10793500D02*
G75*
G02*
X10290500Y-10793500I-40000J0D01*
G01*
X10290500Y-10793500D02*
G75*
G02*
X10370500Y-10793500I40000J0D01*
G01*
X10624500Y-7139500D02*
G75*
G02*
X10544500Y-7139500I-40000J0D01*
G01*
X10544500Y-7139500D02*
G75*
G02*
X10624500Y-7139500I40000J0D01*
G01*
X10624500Y-8663500D02*
G75*
G02*
X10544500Y-8663500I-40000J0D01*
G01*
X10544500Y-8663500D02*
G75*
G02*
X10624500Y-8663500I40000J0D01*
G01*
X10624500Y-9269500D02*
G75*
G02*
X10544500Y-9269500I-40000J0D01*
G01*
X10544500Y-9269500D02*
G75*
G02*
X10624500Y-9269500I40000J0D01*
G01*
X10624500Y-10793500D02*
G75*
G02*
X10544500Y-10793500I-40000J0D01*
G01*
X10544500Y-10793500D02*
G75*
G02*
X10624500Y-10793500I40000J0D01*
G01*
X10878500Y-7139500D02*
G75*
G02*
X10798500Y-7139500I-40000J0D01*
G01*
X10798500Y-7139500D02*
G75*
G02*
X10878500Y-7139500I40000J0D01*
G01*
X10878500Y-8663500D02*
G75*
G02*
X10798500Y-8663500I-40000J0D01*
G01*
X10798500Y-8663500D02*
G75*
G02*
X10878500Y-8663500I40000J0D01*
G01*
X10878500Y-9269500D02*
G75*
G02*
X10798500Y-9269500I-40000J0D01*
G01*
X10798500Y-9269500D02*
G75*
G02*
X10878500Y-9269500I40000J0D01*
G01*
X10878500Y-10793500D02*
G75*
G02*
X10798500Y-10793500I-40000J0D01*
G01*
X10798500Y-10793500D02*
G75*
G02*
X10878500Y-10793500I40000J0D01*
G01*
X11132500Y-7139500D02*
G75*
G02*
X11052500Y-7139500I-40000J0D01*
G01*
X11052500Y-7139500D02*
G75*
G02*
X11132500Y-7139500I40000J0D01*
G01*
X11132500Y-8663500D02*
G75*
G02*
X11052500Y-8663500I-40000J0D01*
G01*
X11052500Y-8663500D02*
G75*
G02*
X11132500Y-8663500I40000J0D01*
G01*
X11132500Y-9269500D02*
G75*
G02*
X11052500Y-9269500I-40000J0D01*
G01*
X11052500Y-9269500D02*
G75*
G02*
X11132500Y-9269500I40000J0D01*
G01*
X11132500Y-10793500D02*
G75*
G02*
X11052500Y-10793500I-40000J0D01*
G01*
X11052500Y-10793500D02*
G75*
G02*
X11132500Y-10793500I40000J0D01*
G01*
X11386500Y-7139500D02*
G75*
G02*
X11306500Y-7139500I-40000J0D01*
G01*
X11306500Y-7139500D02*
G75*
G02*
X11386500Y-7139500I40000J0D01*
G01*
X11386500Y-8663500D02*
G75*
G02*
X11306500Y-8663500I-40000J0D01*
G01*
X11306500Y-8663500D02*
G75*
G02*
X11386500Y-8663500I40000J0D01*
G01*
X11386500Y-9269500D02*
G75*
G02*
X11306500Y-9269500I-40000J0D01*
G01*
X11306500Y-9269500D02*
G75*
G02*
X11386500Y-9269500I40000J0D01*
G01*
X11386500Y-10793500D02*
G75*
G02*
X11306500Y-10793500I-40000J0D01*
G01*
X11306500Y-10793500D02*
G75*
G02*
X11386500Y-10793500I40000J0D01*
G01*
X11640500Y-7139500D02*
G75*
G02*
X11560500Y-7139500I-40000J0D01*
G01*
X11560500Y-7139500D02*
G75*
G02*
X11640500Y-7139500I40000J0D01*
G01*
X11640500Y-8663500D02*
G75*
G02*
X11560500Y-8663500I-40000J0D01*
G01*
X11560500Y-8663500D02*
G75*
G02*
X11640500Y-8663500I40000J0D01*
G01*
X11640500Y-9269500D02*
G75*
G02*
X11560500Y-9269500I-40000J0D01*
G01*
X11560500Y-9269500D02*
G75*
G02*
X11640500Y-9269500I40000J0D01*
G01*
X11640500Y-10793500D02*
G75*
G02*
X11560500Y-10793500I-40000J0D01*
G01*
X11560500Y-10793500D02*
G75*
G02*
X11640500Y-10793500I40000J0D01*
G01*
X11894500Y-7139500D02*
G75*
G02*
X11814500Y-7139500I-40000J0D01*
G01*
X11814500Y-7139500D02*
G75*
G02*
X11894500Y-7139500I40000J0D01*
G01*
X11894500Y-8663500D02*
G75*
G02*
X11814500Y-8663500I-40000J0D01*
G01*
X11814500Y-8663500D02*
G75*
G02*
X11894500Y-8663500I40000J0D01*
G01*
X11894500Y-9269500D02*
G75*
G02*
X11814500Y-9269500I-40000J0D01*
G01*
X11814500Y-9269500D02*
G75*
G02*
X11894500Y-9269500I40000J0D01*
G01*
X11894500Y-10793500D02*
G75*
G02*
X11814500Y-10793500I-40000J0D01*
G01*
X11814500Y-10793500D02*
G75*
G02*
X11894500Y-10793500I40000J0D01*
G01*
X12148500Y-7139500D02*
G75*
G02*
X12068500Y-7139500I-40000J0D01*
G01*
X12068500Y-7139500D02*
G75*
G02*
X12148500Y-7139500I40000J0D01*
G01*
X12148500Y-8663500D02*
G75*
G02*
X12068500Y-8663500I-40000J0D01*
G01*
X12068500Y-8663500D02*
G75*
G02*
X12148500Y-8663500I40000J0D01*
G01*
X12148500Y-9269500D02*
G75*
G02*
X12068500Y-9269500I-40000J0D01*
G01*
X12068500Y-9269500D02*
G75*
G02*
X12148500Y-9269500I40000J0D01*
G01*
X12148500Y-10793500D02*
G75*
G02*
X12068500Y-10793500I-40000J0D01*
G01*
X12068500Y-10793500D02*
G75*
G02*
X12148500Y-10793500I40000J0D01*
G01*
X12402500Y-7139500D02*
G75*
G02*
X12322500Y-7139500I-40000J0D01*
G01*
X12322500Y-7139500D02*
G75*
G02*
X12402500Y-7139500I40000J0D01*
G01*
X12402500Y-8663500D02*
G75*
G02*
X12322500Y-8663500I-40000J0D01*
G01*
X12322500Y-8663500D02*
G75*
G02*
X12402500Y-8663500I40000J0D01*
G01*
X12402500Y-9269500D02*
G75*
G02*
X12322500Y-9269500I-40000J0D01*
G01*
X12322500Y-9269500D02*
G75*
G02*
X12402500Y-9269500I40000J0D01*
G01*
X12402500Y-10793500D02*
G75*
G02*
X12322500Y-10793500I-40000J0D01*
G01*
X12322500Y-10793500D02*
G75*
G02*
X12402500Y-10793500I40000J0D01*
G01*
X12656500Y-7139500D02*
G75*
G02*
X12576500Y-7139500I-40000J0D01*
G01*
X12576500Y-7139500D02*
G75*
G02*
X12656500Y-7139500I40000J0D01*
G01*
X12656500Y-8663500D02*
G75*
G02*
X12576500Y-8663500I-40000J0D01*
G01*
X12576500Y-8663500D02*
G75*
G02*
X12656500Y-8663500I40000J0D01*
G01*
X12656500Y-9269500D02*
G75*
G02*
X12576500Y-9269500I-40000J0D01*
G01*
X12576500Y-9269500D02*
G75*
G02*
X12656500Y-9269500I40000J0D01*
G01*
X12656500Y-10793500D02*
G75*
G02*
X12576500Y-10793500I-40000J0D01*
G01*
X12576500Y-10793500D02*
G75*
G02*
X12656500Y-10793500I40000J0D01*
G01*
X12910500Y-7139500D02*
G75*
G02*
X12830500Y-7139500I-40000J0D01*
G01*
X12830500Y-7139500D02*
G75*
G02*
X12910500Y-7139500I40000J0D01*
G01*
X12910500Y-8663500D02*
G75*
G02*
X12830500Y-8663500I-40000J0D01*
G01*
X12830500Y-8663500D02*
G75*
G02*
X12910500Y-8663500I40000J0D01*
G01*
X12910500Y-9269500D02*
G75*
G02*
X12830500Y-9269500I-40000J0D01*
G01*
X12830500Y-9269500D02*
G75*
G02*
X12910500Y-9269500I40000J0D01*
G01*
X12910500Y-10793500D02*
G75*
G02*
X12830500Y-10793500I-40000J0D01*
G01*
X12830500Y-10793500D02*
G75*
G02*
X12910500Y-10793500I40000J0D01*
G01*
X13164500Y-7139500D02*
G75*
G02*
X13084500Y-7139500I-40000J0D01*
G01*
X13084500Y-7139500D02*
G75*
G02*
X13164500Y-7139500I40000J0D01*
G01*
X13164500Y-8663500D02*
G75*
G02*
X13084500Y-8663500I-40000J0D01*
G01*
X13084500Y-8663500D02*
G75*
G02*
X13164500Y-8663500I40000J0D01*
G01*
X13164500Y-9269500D02*
G75*
G02*
X13084500Y-9269500I-40000J0D01*
G01*
X13084500Y-9269500D02*
G75*
G02*
X13164500Y-9269500I40000J0D01*
G01*
X13164500Y-10793500D02*
G75*
G02*
X13084500Y-10793500I-40000J0D01*
G01*
X13084500Y-10793500D02*
G75*
G02*
X13164500Y-10793500I40000J0D01*
G01*
X13418500Y-7139500D02*
G75*
G02*
X13338500Y-7139500I-40000J0D01*
G01*
X13338500Y-7139500D02*
G75*
G02*
X13418500Y-7139500I40000J0D01*
G01*
X13418500Y-8663500D02*
G75*
G02*
X13338500Y-8663500I-40000J0D01*
G01*
X13338500Y-8663500D02*
G75*
G02*
X13418500Y-8663500I40000J0D01*
G01*
X13418500Y-9269500D02*
G75*
G02*
X13338500Y-9269500I-40000J0D01*
G01*
X13338500Y-9269500D02*
G75*
G02*
X13418500Y-9269500I40000J0D01*
G01*
X13418500Y-10793500D02*
G75*
G02*
X13338500Y-10793500I-40000J0D01*
G01*
X13338500Y-10793500D02*
G75*
G02*
X13418500Y-10793500I40000J0D01*
G01*
X14258500Y-4891500D02*
G75*
G02*
X14178500Y-4891500I-40000J0D01*
G01*
X14178500Y-4891500D02*
G75*
G02*
X14258500Y-4891500I40000J0D01*
G01*
X14258500Y-6415500D02*
G75*
G02*
X14178500Y-6415500I-40000J0D01*
G01*
X14178500Y-6415500D02*
G75*
G02*
X14258500Y-6415500I40000J0D01*
G01*
X14258500Y-7445500D02*
G75*
G02*
X14178500Y-7445500I-40000J0D01*
G01*
X14178500Y-7445500D02*
G75*
G02*
X14258500Y-7445500I40000J0D01*
G01*
X14258500Y-8969500D02*
G75*
G02*
X14178500Y-8969500I-40000J0D01*
G01*
X14178500Y-8969500D02*
G75*
G02*
X14258500Y-8969500I40000J0D01*
G01*
X14512500Y-4891500D02*
G75*
G02*
X14432500Y-4891500I-40000J0D01*
G01*
X14432500Y-4891500D02*
G75*
G02*
X14512500Y-4891500I40000J0D01*
G01*
X14512500Y-6415500D02*
G75*
G02*
X14432500Y-6415500I-40000J0D01*
G01*
X14432500Y-6415500D02*
G75*
G02*
X14512500Y-6415500I40000J0D01*
G01*
X14512500Y-7445500D02*
G75*
G02*
X14432500Y-7445500I-40000J0D01*
G01*
X14432500Y-7445500D02*
G75*
G02*
X14512500Y-7445500I40000J0D01*
G01*
X14512500Y-8969500D02*
G75*
G02*
X14432500Y-8969500I-40000J0D01*
G01*
X14432500Y-8969500D02*
G75*
G02*
X14512500Y-8969500I40000J0D01*
G01*
X14766500Y-4891500D02*
G75*
G02*
X14686500Y-4891500I-40000J0D01*
G01*
X14686500Y-4891500D02*
G75*
G02*
X14766500Y-4891500I40000J0D01*
G01*
X14766500Y-6415500D02*
G75*
G02*
X14686500Y-6415500I-40000J0D01*
G01*
X14686500Y-6415500D02*
G75*
G02*
X14766500Y-6415500I40000J0D01*
G01*
X14766500Y-7445500D02*
G75*
G02*
X14686500Y-7445500I-40000J0D01*
G01*
X14686500Y-7445500D02*
G75*
G02*
X14766500Y-7445500I40000J0D01*
G01*
X14766500Y-8969500D02*
G75*
G02*
X14686500Y-8969500I-40000J0D01*
G01*
X14686500Y-8969500D02*
G75*
G02*
X14766500Y-8969500I40000J0D01*
G01*
X15020500Y-4891500D02*
G75*
G02*
X14940500Y-4891500I-40000J0D01*
G01*
X14940500Y-4891500D02*
G75*
G02*
X15020500Y-4891500I40000J0D01*
G01*
X15020500Y-6415500D02*
G75*
G02*
X14940500Y-6415500I-40000J0D01*
G01*
X14940500Y-6415500D02*
G75*
G02*
X15020500Y-6415500I40000J0D01*
G01*
X15020500Y-7445500D02*
G75*
G02*
X14940500Y-7445500I-40000J0D01*
G01*
X14940500Y-7445500D02*
G75*
G02*
X15020500Y-7445500I40000J0D01*
G01*
X15020500Y-8969500D02*
G75*
G02*
X14940500Y-8969500I-40000J0D01*
G01*
X14940500Y-8969500D02*
G75*
G02*
X15020500Y-8969500I40000J0D01*
G01*
X15274500Y-4891500D02*
G75*
G02*
X15194500Y-4891500I-40000J0D01*
G01*
X15194500Y-4891500D02*
G75*
G02*
X15274500Y-4891500I40000J0D01*
G01*
X15274500Y-6415500D02*
G75*
G02*
X15194500Y-6415500I-40000J0D01*
G01*
X15194500Y-6415500D02*
G75*
G02*
X15274500Y-6415500I40000J0D01*
G01*
X15274500Y-7445500D02*
G75*
G02*
X15194500Y-7445500I-40000J0D01*
G01*
X15194500Y-7445500D02*
G75*
G02*
X15274500Y-7445500I40000J0D01*
G01*
X15274500Y-8969500D02*
G75*
G02*
X15194500Y-8969500I-40000J0D01*
G01*
X15194500Y-8969500D02*
G75*
G02*
X15274500Y-8969500I40000J0D01*
G01*
X15528500Y-4891500D02*
G75*
G02*
X15448500Y-4891500I-40000J0D01*
G01*
X15448500Y-4891500D02*
G75*
G02*
X15528500Y-4891500I40000J0D01*
G01*
X15528500Y-6415500D02*
G75*
G02*
X15448500Y-6415500I-40000J0D01*
G01*
X15448500Y-6415500D02*
G75*
G02*
X15528500Y-6415500I40000J0D01*
G01*
X15528500Y-7445500D02*
G75*
G02*
X15448500Y-7445500I-40000J0D01*
G01*
X15448500Y-7445500D02*
G75*
G02*
X15528500Y-7445500I40000J0D01*
G01*
X15528500Y-8969500D02*
G75*
G02*
X15448500Y-8969500I-40000J0D01*
G01*
X15448500Y-8969500D02*
G75*
G02*
X15528500Y-8969500I40000J0D01*
G01*
X15782500Y-4891500D02*
G75*
G02*
X15702500Y-4891500I-40000J0D01*
G01*
X15702500Y-4891500D02*
G75*
G02*
X15782500Y-4891500I40000J0D01*
G01*
X15782500Y-6415500D02*
G75*
G02*
X15702500Y-6415500I-40000J0D01*
G01*
X15702500Y-6415500D02*
G75*
G02*
X15782500Y-6415500I40000J0D01*
G01*
X15782500Y-7445500D02*
G75*
G02*
X15702500Y-7445500I-40000J0D01*
G01*
X15702500Y-7445500D02*
G75*
G02*
X15782500Y-7445500I40000J0D01*
G01*
X15782500Y-8969500D02*
G75*
G02*
X15702500Y-8969500I-40000J0D01*
G01*
X15702500Y-8969500D02*
G75*
G02*
X15782500Y-8969500I40000J0D01*
G01*
X16036500Y-4891500D02*
G75*
G02*
X15956500Y-4891500I-40000J0D01*
G01*
X15956500Y-4891500D02*
G75*
G02*
X16036500Y-4891500I40000J0D01*
G01*
X16036500Y-6415500D02*
G75*
G02*
X15956500Y-6415500I-40000J0D01*
G01*
X15956500Y-6415500D02*
G75*
G02*
X16036500Y-6415500I40000J0D01*
G01*
X16036500Y-7445500D02*
G75*
G02*
X15956500Y-7445500I-40000J0D01*
G01*
X15956500Y-7445500D02*
G75*
G02*
X16036500Y-7445500I40000J0D01*
G01*
X16036500Y-8969500D02*
G75*
G02*
X15956500Y-8969500I-40000J0D01*
G01*
X15956500Y-8969500D02*
G75*
G02*
X16036500Y-8969500I40000J0D01*
G01*
X16290500Y-4891500D02*
G75*
G02*
X16210500Y-4891500I-40000J0D01*
G01*
X16210500Y-4891500D02*
G75*
G02*
X16290500Y-4891500I40000J0D01*
G01*
X16290500Y-6415500D02*
G75*
G02*
X16210500Y-6415500I-40000J0D01*
G01*
X16210500Y-6415500D02*
G75*
G02*
X16290500Y-6415500I40000J0D01*
G01*
X16290500Y-7445500D02*
G75*
G02*
X16210500Y-7445500I-40000J0D01*
G01*
X16210500Y-7445500D02*
G75*
G02*
X16290500Y-7445500I40000J0D01*
G01*
X16290500Y-8969500D02*
G75*
G02*
X16210500Y-8969500I-40000J0D01*
G01*
X16210500Y-8969500D02*
G75*
G02*
X16290500Y-8969500I40000J0D01*
G01*
X16544500Y-4891500D02*
G75*
G02*
X16464500Y-4891500I-40000J0D01*
G01*
X16464500Y-4891500D02*
G75*
G02*
X16544500Y-4891500I40000J0D01*
G01*
X16544500Y-6415500D02*
G75*
G02*
X16464500Y-6415500I-40000J0D01*
G01*
X16464500Y-6415500D02*
G75*
G02*
X16544500Y-6415500I40000J0D01*
G01*
X16544500Y-7445500D02*
G75*
G02*
X16464500Y-7445500I-40000J0D01*
G01*
X16464500Y-7445500D02*
G75*
G02*
X16544500Y-7445500I40000J0D01*
G01*
X16544500Y-8969500D02*
G75*
G02*
X16464500Y-8969500I-40000J0D01*
G01*
X16464500Y-8969500D02*
G75*
G02*
X16544500Y-8969500I40000J0D01*
G01*
X16798500Y-4891500D02*
G75*
G02*
X16718500Y-4891500I-40000J0D01*
G01*
X16718500Y-4891500D02*
G75*
G02*
X16798500Y-4891500I40000J0D01*
G01*
X16798500Y-6415500D02*
G75*
G02*
X16718500Y-6415500I-40000J0D01*
G01*
X16718500Y-6415500D02*
G75*
G02*
X16798500Y-6415500I40000J0D01*
G01*
X16798500Y-7445500D02*
G75*
G02*
X16718500Y-7445500I-40000J0D01*
G01*
X16718500Y-7445500D02*
G75*
G02*
X16798500Y-7445500I40000J0D01*
G01*
X16798500Y-8969500D02*
G75*
G02*
X16718500Y-8969500I-40000J0D01*
G01*
X16718500Y-8969500D02*
G75*
G02*
X16798500Y-8969500I40000J0D01*
G01*
X17052500Y-4891500D02*
G75*
G02*
X16972500Y-4891500I-40000J0D01*
G01*
X16972500Y-4891500D02*
G75*
G02*
X17052500Y-4891500I40000J0D01*
G01*
X17052500Y-6415500D02*
G75*
G02*
X16972500Y-6415500I-40000J0D01*
G01*
X16972500Y-6415500D02*
G75*
G02*
X17052500Y-6415500I40000J0D01*
G01*
X17052500Y-7445500D02*
G75*
G02*
X16972500Y-7445500I-40000J0D01*
G01*
X16972500Y-7445500D02*
G75*
G02*
X17052500Y-7445500I40000J0D01*
G01*
X17052500Y-8969500D02*
G75*
G02*
X16972500Y-8969500I-40000J0D01*
G01*
X16972500Y-8969500D02*
G75*
G02*
X17052500Y-8969500I40000J0D01*
G01*
X7857500Y-8444500D02*
X7857500Y-8544500D01*
X7807500Y-8494500D02*
X7907500Y-8494500D01*
X7857500Y-8698500D02*
X7857500Y-8798500D01*
X7807500Y-8748500D02*
X7907500Y-8748500D01*
X7857500Y-8952500D02*
X7857500Y-9052500D01*
X7807500Y-9002500D02*
X7907500Y-9002500D01*
D11*
X7641777Y-11479484D02*
X7641777Y-11279484D01*
X7641777Y-11279484D02*
X7689396Y-11279484D01*
X7689396Y-11279484D02*
X7717967Y-11289008D01*
X7717967Y-11289008D02*
X7737015Y-11308055D01*
X7737015Y-11308055D02*
X7746539Y-11327103D01*
X7746539Y-11327103D02*
X7756062Y-11365198D01*
X7756062Y-11365198D02*
X7756062Y-11393769D01*
X7756062Y-11393769D02*
X7746539Y-11431865D01*
X7746539Y-11431865D02*
X7737015Y-11450912D01*
X7737015Y-11450912D02*
X7717967Y-11469960D01*
X7717967Y-11469960D02*
X7689396Y-11479484D01*
X7689396Y-11479484D02*
X7641777Y-11479484D01*
X7841777Y-11479484D02*
X7841777Y-11346150D01*
X7841777Y-11384246D02*
X7851301Y-11365198D01*
X7851301Y-11365198D02*
X7860824Y-11355674D01*
X7860824Y-11355674D02*
X7879872Y-11346150D01*
X7879872Y-11346150D02*
X7898920Y-11346150D01*
X7965586Y-11479484D02*
X7965586Y-11346150D01*
X7965586Y-11279484D02*
X7956062Y-11289008D01*
X7956062Y-11289008D02*
X7965586Y-11298531D01*
X7965586Y-11298531D02*
X7975110Y-11289008D01*
X7975110Y-11289008D02*
X7965586Y-11279484D01*
X7965586Y-11279484D02*
X7965586Y-11298531D01*
X8089396Y-11479484D02*
X8070348Y-11469960D01*
X8070348Y-11469960D02*
X8060824Y-11450912D01*
X8060824Y-11450912D02*
X8060824Y-11279484D01*
X8194158Y-11479484D02*
X8175110Y-11469960D01*
X8175110Y-11469960D02*
X8165586Y-11450912D01*
X8165586Y-11450912D02*
X8165586Y-11279484D01*
X8422729Y-11479484D02*
X8422729Y-11279484D01*
X8422729Y-11279484D02*
X8489396Y-11422341D01*
X8489396Y-11422341D02*
X8556063Y-11279484D01*
X8556063Y-11279484D02*
X8556063Y-11479484D01*
X8737015Y-11479484D02*
X8737015Y-11374722D01*
X8737015Y-11374722D02*
X8727491Y-11355674D01*
X8727491Y-11355674D02*
X8708444Y-11346150D01*
X8708444Y-11346150D02*
X8670348Y-11346150D01*
X8670348Y-11346150D02*
X8651301Y-11355674D01*
X8737015Y-11469960D02*
X8717967Y-11479484D01*
X8717967Y-11479484D02*
X8670348Y-11479484D01*
X8670348Y-11479484D02*
X8651301Y-11469960D01*
X8651301Y-11469960D02*
X8641777Y-11450912D01*
X8641777Y-11450912D02*
X8641777Y-11431865D01*
X8641777Y-11431865D02*
X8651301Y-11412817D01*
X8651301Y-11412817D02*
X8670348Y-11403293D01*
X8670348Y-11403293D02*
X8717967Y-11403293D01*
X8717967Y-11403293D02*
X8737015Y-11393769D01*
X8832253Y-11346150D02*
X8832253Y-11546150D01*
X8832253Y-11355674D02*
X8851301Y-11346150D01*
X8851301Y-11346150D02*
X8889396Y-11346150D01*
X8889396Y-11346150D02*
X8908444Y-11355674D01*
X8908444Y-11355674D02*
X8917967Y-11365198D01*
X8917967Y-11365198D02*
X8927491Y-11384246D01*
X8927491Y-11384246D02*
X8927491Y-11441388D01*
X8927491Y-11441388D02*
X8917967Y-11460436D01*
X8917967Y-11460436D02*
X8908444Y-11469960D01*
X8908444Y-11469960D02*
X8889396Y-11479484D01*
X8889396Y-11479484D02*
X8851301Y-11479484D01*
X8851301Y-11479484D02*
X8832253Y-11469960D01*
X9013205Y-11460436D02*
X9022729Y-11469960D01*
X9022729Y-11469960D02*
X9013205Y-11479484D01*
X9013205Y-11479484D02*
X9003682Y-11469960D01*
X9003682Y-11469960D02*
X9013205Y-11460436D01*
X9013205Y-11460436D02*
X9013205Y-11479484D01*
X9013205Y-11355674D02*
X9022729Y-11365198D01*
X9022729Y-11365198D02*
X9013205Y-11374722D01*
X9013205Y-11374722D02*
X9003682Y-11365198D01*
X9003682Y-11365198D02*
X9013205Y-11355674D01*
X9013205Y-11355674D02*
X9013205Y-11374722D01*
D12*
X7341000Y-11788000D02*
X7381000Y-11828000D01*
X7381000Y-11788000D02*
X7341000Y-11828000D01*
D11*
X7679872Y-11699484D02*
X7698920Y-11699484D01*
X7698920Y-11699484D02*
X7717967Y-11709008D01*
X7717967Y-11709008D02*
X7727491Y-11718531D01*
X7727491Y-11718531D02*
X7737015Y-11737579D01*
X7737015Y-11737579D02*
X7746539Y-11775674D01*
X7746539Y-11775674D02*
X7746539Y-11823293D01*
X7746539Y-11823293D02*
X7737015Y-11861388D01*
X7737015Y-11861388D02*
X7727491Y-11880436D01*
X7727491Y-11880436D02*
X7717967Y-11889960D01*
X7717967Y-11889960D02*
X7698920Y-11899484D01*
X7698920Y-11899484D02*
X7679872Y-11899484D01*
X7679872Y-11899484D02*
X7660824Y-11889960D01*
X7660824Y-11889960D02*
X7651301Y-11880436D01*
X7651301Y-11880436D02*
X7641777Y-11861388D01*
X7641777Y-11861388D02*
X7632253Y-11823293D01*
X7632253Y-11823293D02*
X7632253Y-11775674D01*
X7632253Y-11775674D02*
X7641777Y-11737579D01*
X7641777Y-11737579D02*
X7651301Y-11718531D01*
X7651301Y-11718531D02*
X7660824Y-11709008D01*
X7660824Y-11709008D02*
X7679872Y-11699484D01*
X7832253Y-11880436D02*
X7841777Y-11889960D01*
X7841777Y-11889960D02*
X7832253Y-11899484D01*
X7832253Y-11899484D02*
X7822729Y-11889960D01*
X7822729Y-11889960D02*
X7832253Y-11880436D01*
X7832253Y-11880436D02*
X7832253Y-11899484D01*
X8013205Y-11766150D02*
X8013205Y-11899484D01*
X7965586Y-11689960D02*
X7917967Y-11832817D01*
X7917967Y-11832817D02*
X8041777Y-11832817D01*
X8156062Y-11699484D02*
X8175110Y-11699484D01*
X8175110Y-11699484D02*
X8194158Y-11709008D01*
X8194158Y-11709008D02*
X8203682Y-11718531D01*
X8203682Y-11718531D02*
X8213205Y-11737579D01*
X8213205Y-11737579D02*
X8222729Y-11775674D01*
X8222729Y-11775674D02*
X8222729Y-11823293D01*
X8222729Y-11823293D02*
X8213205Y-11861388D01*
X8213205Y-11861388D02*
X8203682Y-11880436D01*
X8203682Y-11880436D02*
X8194158Y-11889960D01*
X8194158Y-11889960D02*
X8175110Y-11899484D01*
X8175110Y-11899484D02*
X8156062Y-11899484D01*
X8156062Y-11899484D02*
X8137015Y-11889960D01*
X8137015Y-11889960D02*
X8127491Y-11880436D01*
X8127491Y-11880436D02*
X8117967Y-11861388D01*
X8117967Y-11861388D02*
X8108443Y-11823293D01*
X8108443Y-11823293D02*
X8108443Y-11775674D01*
X8108443Y-11775674D02*
X8117967Y-11737579D01*
X8117967Y-11737579D02*
X8127491Y-11718531D01*
X8127491Y-11718531D02*
X8137015Y-11709008D01*
X8137015Y-11709008D02*
X8156062Y-11699484D01*
X8346539Y-11699484D02*
X8365586Y-11699484D01*
X8365586Y-11699484D02*
X8384634Y-11709008D01*
X8384634Y-11709008D02*
X8394158Y-11718531D01*
X8394158Y-11718531D02*
X8403682Y-11737579D01*
X8403682Y-11737579D02*
X8413205Y-11775674D01*
X8413205Y-11775674D02*
X8413205Y-11823293D01*
X8413205Y-11823293D02*
X8403682Y-11861388D01*
X8403682Y-11861388D02*
X8394158Y-11880436D01*
X8394158Y-11880436D02*
X8384634Y-11889960D01*
X8384634Y-11889960D02*
X8365586Y-11899484D01*
X8365586Y-11899484D02*
X8346539Y-11899484D01*
X8346539Y-11899484D02*
X8327491Y-11889960D01*
X8327491Y-11889960D02*
X8317967Y-11880436D01*
X8317967Y-11880436D02*
X8308443Y-11861388D01*
X8308443Y-11861388D02*
X8298920Y-11823293D01*
X8298920Y-11823293D02*
X8298920Y-11775674D01*
X8298920Y-11775674D02*
X8308443Y-11737579D01*
X8308443Y-11737579D02*
X8317967Y-11718531D01*
X8317967Y-11718531D02*
X8327491Y-11709008D01*
X8327491Y-11709008D02*
X8346539Y-11699484D01*
X8498920Y-11899484D02*
X8498920Y-11766150D01*
X8498920Y-11785198D02*
X8508444Y-11775674D01*
X8508444Y-11775674D02*
X8527491Y-11766150D01*
X8527491Y-11766150D02*
X8556063Y-11766150D01*
X8556063Y-11766150D02*
X8575110Y-11775674D01*
X8575110Y-11775674D02*
X8584634Y-11794722D01*
X8584634Y-11794722D02*
X8584634Y-11899484D01*
X8584634Y-11794722D02*
X8594158Y-11775674D01*
X8594158Y-11775674D02*
X8613205Y-11766150D01*
X8613205Y-11766150D02*
X8641777Y-11766150D01*
X8641777Y-11766150D02*
X8660825Y-11775674D01*
X8660825Y-11775674D02*
X8670348Y-11794722D01*
X8670348Y-11794722D02*
X8670348Y-11899484D01*
X8765586Y-11899484D02*
X8765586Y-11766150D01*
X8765586Y-11785198D02*
X8775110Y-11775674D01*
X8775110Y-11775674D02*
X8794158Y-11766150D01*
X8794158Y-11766150D02*
X8822729Y-11766150D01*
X8822729Y-11766150D02*
X8841777Y-11775674D01*
X8841777Y-11775674D02*
X8851301Y-11794722D01*
X8851301Y-11794722D02*
X8851301Y-11899484D01*
X8851301Y-11794722D02*
X8860825Y-11775674D01*
X8860825Y-11775674D02*
X8879872Y-11766150D01*
X8879872Y-11766150D02*
X8908444Y-11766150D01*
X8908444Y-11766150D02*
X8927491Y-11775674D01*
X8927491Y-11775674D02*
X8937015Y-11794722D01*
X8937015Y-11794722D02*
X8937015Y-11899484D01*
X9327491Y-11689960D02*
X9156063Y-11947103D01*
X9584634Y-11699484D02*
X9603682Y-11699484D01*
X9603682Y-11699484D02*
X9622729Y-11709008D01*
X9622729Y-11709008D02*
X9632253Y-11718531D01*
X9632253Y-11718531D02*
X9641777Y-11737579D01*
X9641777Y-11737579D02*
X9651301Y-11775674D01*
X9651301Y-11775674D02*
X9651301Y-11823293D01*
X9651301Y-11823293D02*
X9641777Y-11861388D01*
X9641777Y-11861388D02*
X9632253Y-11880436D01*
X9632253Y-11880436D02*
X9622729Y-11889960D01*
X9622729Y-11889960D02*
X9603682Y-11899484D01*
X9603682Y-11899484D02*
X9584634Y-11899484D01*
X9584634Y-11899484D02*
X9565587Y-11889960D01*
X9565587Y-11889960D02*
X9556063Y-11880436D01*
X9556063Y-11880436D02*
X9546539Y-11861388D01*
X9546539Y-11861388D02*
X9537015Y-11823293D01*
X9537015Y-11823293D02*
X9537015Y-11775674D01*
X9537015Y-11775674D02*
X9546539Y-11737579D01*
X9546539Y-11737579D02*
X9556063Y-11718531D01*
X9556063Y-11718531D02*
X9565587Y-11709008D01*
X9565587Y-11709008D02*
X9584634Y-11699484D01*
X9737015Y-11880436D02*
X9746539Y-11889960D01*
X9746539Y-11889960D02*
X9737015Y-11899484D01*
X9737015Y-11899484D02*
X9727491Y-11889960D01*
X9727491Y-11889960D02*
X9737015Y-11880436D01*
X9737015Y-11880436D02*
X9737015Y-11899484D01*
X9870348Y-11699484D02*
X9889396Y-11699484D01*
X9889396Y-11699484D02*
X9908444Y-11709008D01*
X9908444Y-11709008D02*
X9917968Y-11718531D01*
X9917968Y-11718531D02*
X9927491Y-11737579D01*
X9927491Y-11737579D02*
X9937015Y-11775674D01*
X9937015Y-11775674D02*
X9937015Y-11823293D01*
X9937015Y-11823293D02*
X9927491Y-11861388D01*
X9927491Y-11861388D02*
X9917968Y-11880436D01*
X9917968Y-11880436D02*
X9908444Y-11889960D01*
X9908444Y-11889960D02*
X9889396Y-11899484D01*
X9889396Y-11899484D02*
X9870348Y-11899484D01*
X9870348Y-11899484D02*
X9851301Y-11889960D01*
X9851301Y-11889960D02*
X9841777Y-11880436D01*
X9841777Y-11880436D02*
X9832253Y-11861388D01*
X9832253Y-11861388D02*
X9822729Y-11823293D01*
X9822729Y-11823293D02*
X9822729Y-11775674D01*
X9822729Y-11775674D02*
X9832253Y-11737579D01*
X9832253Y-11737579D02*
X9841777Y-11718531D01*
X9841777Y-11718531D02*
X9851301Y-11709008D01*
X9851301Y-11709008D02*
X9870348Y-11699484D01*
X10127491Y-11899484D02*
X10013206Y-11899484D01*
X10070348Y-11899484D02*
X10070348Y-11699484D01*
X10070348Y-11699484D02*
X10051301Y-11728055D01*
X10051301Y-11728055D02*
X10032253Y-11747103D01*
X10032253Y-11747103D02*
X10013206Y-11756627D01*
X10308444Y-11699484D02*
X10213206Y-11699484D01*
X10213206Y-11699484D02*
X10203682Y-11794722D01*
X10203682Y-11794722D02*
X10213206Y-11785198D01*
X10213206Y-11785198D02*
X10232253Y-11775674D01*
X10232253Y-11775674D02*
X10279872Y-11775674D01*
X10279872Y-11775674D02*
X10298920Y-11785198D01*
X10298920Y-11785198D02*
X10308444Y-11794722D01*
X10308444Y-11794722D02*
X10317968Y-11813769D01*
X10317968Y-11813769D02*
X10317968Y-11861388D01*
X10317968Y-11861388D02*
X10308444Y-11880436D01*
X10308444Y-11880436D02*
X10298920Y-11889960D01*
X10298920Y-11889960D02*
X10279872Y-11899484D01*
X10279872Y-11899484D02*
X10232253Y-11899484D01*
X10232253Y-11899484D02*
X10213206Y-11889960D01*
X10213206Y-11889960D02*
X10203682Y-11880436D01*
X10384634Y-11699484D02*
X10517968Y-11699484D01*
X10517968Y-11699484D02*
X10432253Y-11899484D01*
X10584634Y-11699484D02*
X10584634Y-11737579D01*
X10660825Y-11699484D02*
X10660825Y-11737579D01*
X10956063Y-11975674D02*
X10946539Y-11966150D01*
X10946539Y-11966150D02*
X10927491Y-11937579D01*
X10927491Y-11937579D02*
X10917968Y-11918531D01*
X10917968Y-11918531D02*
X10908444Y-11889960D01*
X10908444Y-11889960D02*
X10898920Y-11842341D01*
X10898920Y-11842341D02*
X10898920Y-11804246D01*
X10898920Y-11804246D02*
X10908444Y-11756627D01*
X10908444Y-11756627D02*
X10917968Y-11728055D01*
X10917968Y-11728055D02*
X10927491Y-11709008D01*
X10927491Y-11709008D02*
X10946539Y-11680436D01*
X10946539Y-11680436D02*
X10956063Y-11670912D01*
X11137015Y-11899484D02*
X11022730Y-11899484D01*
X11079872Y-11899484D02*
X11079872Y-11699484D01*
X11079872Y-11699484D02*
X11060825Y-11728055D01*
X11060825Y-11728055D02*
X11041777Y-11747103D01*
X11041777Y-11747103D02*
X11022730Y-11756627D01*
X11317968Y-11699484D02*
X11222729Y-11699484D01*
X11222729Y-11699484D02*
X11213206Y-11794722D01*
X11213206Y-11794722D02*
X11222729Y-11785198D01*
X11222729Y-11785198D02*
X11241777Y-11775674D01*
X11241777Y-11775674D02*
X11289396Y-11775674D01*
X11289396Y-11775674D02*
X11308444Y-11785198D01*
X11308444Y-11785198D02*
X11317968Y-11794722D01*
X11317968Y-11794722D02*
X11327491Y-11813769D01*
X11327491Y-11813769D02*
X11327491Y-11861388D01*
X11327491Y-11861388D02*
X11317968Y-11880436D01*
X11317968Y-11880436D02*
X11308444Y-11889960D01*
X11308444Y-11889960D02*
X11289396Y-11899484D01*
X11289396Y-11899484D02*
X11241777Y-11899484D01*
X11241777Y-11899484D02*
X11222729Y-11889960D01*
X11222729Y-11889960D02*
X11213206Y-11880436D01*
X11565587Y-11899484D02*
X11565587Y-11699484D01*
X11651301Y-11899484D02*
X11651301Y-11794722D01*
X11651301Y-11794722D02*
X11641777Y-11775674D01*
X11641777Y-11775674D02*
X11622730Y-11766150D01*
X11622730Y-11766150D02*
X11594158Y-11766150D01*
X11594158Y-11766150D02*
X11575110Y-11775674D01*
X11575110Y-11775674D02*
X11565587Y-11785198D01*
X11775110Y-11899484D02*
X11756063Y-11889960D01*
X11756063Y-11889960D02*
X11746539Y-11880436D01*
X11746539Y-11880436D02*
X11737015Y-11861388D01*
X11737015Y-11861388D02*
X11737015Y-11804246D01*
X11737015Y-11804246D02*
X11746539Y-11785198D01*
X11746539Y-11785198D02*
X11756063Y-11775674D01*
X11756063Y-11775674D02*
X11775110Y-11766150D01*
X11775110Y-11766150D02*
X11803682Y-11766150D01*
X11803682Y-11766150D02*
X11822730Y-11775674D01*
X11822730Y-11775674D02*
X11832253Y-11785198D01*
X11832253Y-11785198D02*
X11841777Y-11804246D01*
X11841777Y-11804246D02*
X11841777Y-11861388D01*
X11841777Y-11861388D02*
X11832253Y-11880436D01*
X11832253Y-11880436D02*
X11822730Y-11889960D01*
X11822730Y-11889960D02*
X11803682Y-11899484D01*
X11803682Y-11899484D02*
X11775110Y-11899484D01*
X11956063Y-11899484D02*
X11937015Y-11889960D01*
X11937015Y-11889960D02*
X11927491Y-11870912D01*
X11927491Y-11870912D02*
X11927491Y-11699484D01*
X12108444Y-11889960D02*
X12089396Y-11899484D01*
X12089396Y-11899484D02*
X12051301Y-11899484D01*
X12051301Y-11899484D02*
X12032253Y-11889960D01*
X12032253Y-11889960D02*
X12022730Y-11870912D01*
X12022730Y-11870912D02*
X12022730Y-11794722D01*
X12022730Y-11794722D02*
X12032253Y-11775674D01*
X12032253Y-11775674D02*
X12051301Y-11766150D01*
X12051301Y-11766150D02*
X12089396Y-11766150D01*
X12089396Y-11766150D02*
X12108444Y-11775674D01*
X12108444Y-11775674D02*
X12117968Y-11794722D01*
X12117968Y-11794722D02*
X12117968Y-11813769D01*
X12117968Y-11813769D02*
X12022730Y-11832817D01*
X12194158Y-11889960D02*
X12213206Y-11899484D01*
X12213206Y-11899484D02*
X12251301Y-11899484D01*
X12251301Y-11899484D02*
X12270349Y-11889960D01*
X12270349Y-11889960D02*
X12279872Y-11870912D01*
X12279872Y-11870912D02*
X12279872Y-11861388D01*
X12279872Y-11861388D02*
X12270349Y-11842341D01*
X12270349Y-11842341D02*
X12251301Y-11832817D01*
X12251301Y-11832817D02*
X12222730Y-11832817D01*
X12222730Y-11832817D02*
X12203682Y-11823293D01*
X12203682Y-11823293D02*
X12194158Y-11804246D01*
X12194158Y-11804246D02*
X12194158Y-11794722D01*
X12194158Y-11794722D02*
X12203682Y-11775674D01*
X12203682Y-11775674D02*
X12222730Y-11766150D01*
X12222730Y-11766150D02*
X12251301Y-11766150D01*
X12251301Y-11766150D02*
X12270349Y-11775674D01*
X12346539Y-11975674D02*
X12356063Y-11966150D01*
X12356063Y-11966150D02*
X12375111Y-11937579D01*
X12375111Y-11937579D02*
X12384634Y-11918531D01*
X12384634Y-11918531D02*
X12394158Y-11889960D01*
X12394158Y-11889960D02*
X12403682Y-11842341D01*
X12403682Y-11842341D02*
X12403682Y-11804246D01*
X12403682Y-11804246D02*
X12394158Y-11756627D01*
X12394158Y-11756627D02*
X12384634Y-11728055D01*
X12384634Y-11728055D02*
X12375111Y-11709008D01*
X12375111Y-11709008D02*
X12356063Y-11680436D01*
X12356063Y-11680436D02*
X12346539Y-11670912D01*
D12*
X7381000Y-12072000D02*
G75*
G02*
X7301000Y-12072000I-40000J0D01*
G01*
X7301000Y-12072000D02*
G75*
G02*
X7381000Y-12072000I40000J0D01*
G01*
D11*
X7679872Y-11963484D02*
X7698920Y-11963484D01*
X7698920Y-11963484D02*
X7717967Y-11973008D01*
X7717967Y-11973008D02*
X7727491Y-11982531D01*
X7727491Y-11982531D02*
X7737015Y-12001579D01*
X7737015Y-12001579D02*
X7746539Y-12039674D01*
X7746539Y-12039674D02*
X7746539Y-12087293D01*
X7746539Y-12087293D02*
X7737015Y-12125388D01*
X7737015Y-12125388D02*
X7727491Y-12144436D01*
X7727491Y-12144436D02*
X7717967Y-12153960D01*
X7717967Y-12153960D02*
X7698920Y-12163484D01*
X7698920Y-12163484D02*
X7679872Y-12163484D01*
X7679872Y-12163484D02*
X7660824Y-12153960D01*
X7660824Y-12153960D02*
X7651301Y-12144436D01*
X7651301Y-12144436D02*
X7641777Y-12125388D01*
X7641777Y-12125388D02*
X7632253Y-12087293D01*
X7632253Y-12087293D02*
X7632253Y-12039674D01*
X7632253Y-12039674D02*
X7641777Y-12001579D01*
X7641777Y-12001579D02*
X7651301Y-11982531D01*
X7651301Y-11982531D02*
X7660824Y-11973008D01*
X7660824Y-11973008D02*
X7679872Y-11963484D01*
X7832253Y-12144436D02*
X7841777Y-12153960D01*
X7841777Y-12153960D02*
X7832253Y-12163484D01*
X7832253Y-12163484D02*
X7822729Y-12153960D01*
X7822729Y-12153960D02*
X7832253Y-12144436D01*
X7832253Y-12144436D02*
X7832253Y-12163484D01*
X7956062Y-12049198D02*
X7937015Y-12039674D01*
X7937015Y-12039674D02*
X7927491Y-12030150D01*
X7927491Y-12030150D02*
X7917967Y-12011103D01*
X7917967Y-12011103D02*
X7917967Y-12001579D01*
X7917967Y-12001579D02*
X7927491Y-11982531D01*
X7927491Y-11982531D02*
X7937015Y-11973008D01*
X7937015Y-11973008D02*
X7956062Y-11963484D01*
X7956062Y-11963484D02*
X7994158Y-11963484D01*
X7994158Y-11963484D02*
X8013205Y-11973008D01*
X8013205Y-11973008D02*
X8022729Y-11982531D01*
X8022729Y-11982531D02*
X8032253Y-12001579D01*
X8032253Y-12001579D02*
X8032253Y-12011103D01*
X8032253Y-12011103D02*
X8022729Y-12030150D01*
X8022729Y-12030150D02*
X8013205Y-12039674D01*
X8013205Y-12039674D02*
X7994158Y-12049198D01*
X7994158Y-12049198D02*
X7956062Y-12049198D01*
X7956062Y-12049198D02*
X7937015Y-12058722D01*
X7937015Y-12058722D02*
X7927491Y-12068246D01*
X7927491Y-12068246D02*
X7917967Y-12087293D01*
X7917967Y-12087293D02*
X7917967Y-12125388D01*
X7917967Y-12125388D02*
X7927491Y-12144436D01*
X7927491Y-12144436D02*
X7937015Y-12153960D01*
X7937015Y-12153960D02*
X7956062Y-12163484D01*
X7956062Y-12163484D02*
X7994158Y-12163484D01*
X7994158Y-12163484D02*
X8013205Y-12153960D01*
X8013205Y-12153960D02*
X8022729Y-12144436D01*
X8022729Y-12144436D02*
X8032253Y-12125388D01*
X8032253Y-12125388D02*
X8032253Y-12087293D01*
X8032253Y-12087293D02*
X8022729Y-12068246D01*
X8022729Y-12068246D02*
X8013205Y-12058722D01*
X8013205Y-12058722D02*
X7994158Y-12049198D01*
X8156062Y-11963484D02*
X8175110Y-11963484D01*
X8175110Y-11963484D02*
X8194158Y-11973008D01*
X8194158Y-11973008D02*
X8203682Y-11982531D01*
X8203682Y-11982531D02*
X8213205Y-12001579D01*
X8213205Y-12001579D02*
X8222729Y-12039674D01*
X8222729Y-12039674D02*
X8222729Y-12087293D01*
X8222729Y-12087293D02*
X8213205Y-12125388D01*
X8213205Y-12125388D02*
X8203682Y-12144436D01*
X8203682Y-12144436D02*
X8194158Y-12153960D01*
X8194158Y-12153960D02*
X8175110Y-12163484D01*
X8175110Y-12163484D02*
X8156062Y-12163484D01*
X8156062Y-12163484D02*
X8137015Y-12153960D01*
X8137015Y-12153960D02*
X8127491Y-12144436D01*
X8127491Y-12144436D02*
X8117967Y-12125388D01*
X8117967Y-12125388D02*
X8108443Y-12087293D01*
X8108443Y-12087293D02*
X8108443Y-12039674D01*
X8108443Y-12039674D02*
X8117967Y-12001579D01*
X8117967Y-12001579D02*
X8127491Y-11982531D01*
X8127491Y-11982531D02*
X8137015Y-11973008D01*
X8137015Y-11973008D02*
X8156062Y-11963484D01*
X8346539Y-11963484D02*
X8365586Y-11963484D01*
X8365586Y-11963484D02*
X8384634Y-11973008D01*
X8384634Y-11973008D02*
X8394158Y-11982531D01*
X8394158Y-11982531D02*
X8403682Y-12001579D01*
X8403682Y-12001579D02*
X8413205Y-12039674D01*
X8413205Y-12039674D02*
X8413205Y-12087293D01*
X8413205Y-12087293D02*
X8403682Y-12125388D01*
X8403682Y-12125388D02*
X8394158Y-12144436D01*
X8394158Y-12144436D02*
X8384634Y-12153960D01*
X8384634Y-12153960D02*
X8365586Y-12163484D01*
X8365586Y-12163484D02*
X8346539Y-12163484D01*
X8346539Y-12163484D02*
X8327491Y-12153960D01*
X8327491Y-12153960D02*
X8317967Y-12144436D01*
X8317967Y-12144436D02*
X8308443Y-12125388D01*
X8308443Y-12125388D02*
X8298920Y-12087293D01*
X8298920Y-12087293D02*
X8298920Y-12039674D01*
X8298920Y-12039674D02*
X8308443Y-12001579D01*
X8308443Y-12001579D02*
X8317967Y-11982531D01*
X8317967Y-11982531D02*
X8327491Y-11973008D01*
X8327491Y-11973008D02*
X8346539Y-11963484D01*
X8498920Y-12163484D02*
X8498920Y-12030150D01*
X8498920Y-12049198D02*
X8508444Y-12039674D01*
X8508444Y-12039674D02*
X8527491Y-12030150D01*
X8527491Y-12030150D02*
X8556063Y-12030150D01*
X8556063Y-12030150D02*
X8575110Y-12039674D01*
X8575110Y-12039674D02*
X8584634Y-12058722D01*
X8584634Y-12058722D02*
X8584634Y-12163484D01*
X8584634Y-12058722D02*
X8594158Y-12039674D01*
X8594158Y-12039674D02*
X8613205Y-12030150D01*
X8613205Y-12030150D02*
X8641777Y-12030150D01*
X8641777Y-12030150D02*
X8660825Y-12039674D01*
X8660825Y-12039674D02*
X8670348Y-12058722D01*
X8670348Y-12058722D02*
X8670348Y-12163484D01*
X8765586Y-12163484D02*
X8765586Y-12030150D01*
X8765586Y-12049198D02*
X8775110Y-12039674D01*
X8775110Y-12039674D02*
X8794158Y-12030150D01*
X8794158Y-12030150D02*
X8822729Y-12030150D01*
X8822729Y-12030150D02*
X8841777Y-12039674D01*
X8841777Y-12039674D02*
X8851301Y-12058722D01*
X8851301Y-12058722D02*
X8851301Y-12163484D01*
X8851301Y-12058722D02*
X8860825Y-12039674D01*
X8860825Y-12039674D02*
X8879872Y-12030150D01*
X8879872Y-12030150D02*
X8908444Y-12030150D01*
X8908444Y-12030150D02*
X8927491Y-12039674D01*
X8927491Y-12039674D02*
X8937015Y-12058722D01*
X8937015Y-12058722D02*
X8937015Y-12163484D01*
X9327491Y-11953960D02*
X9156063Y-12211103D01*
X9584634Y-11963484D02*
X9603682Y-11963484D01*
X9603682Y-11963484D02*
X9622729Y-11973008D01*
X9622729Y-11973008D02*
X9632253Y-11982531D01*
X9632253Y-11982531D02*
X9641777Y-12001579D01*
X9641777Y-12001579D02*
X9651301Y-12039674D01*
X9651301Y-12039674D02*
X9651301Y-12087293D01*
X9651301Y-12087293D02*
X9641777Y-12125388D01*
X9641777Y-12125388D02*
X9632253Y-12144436D01*
X9632253Y-12144436D02*
X9622729Y-12153960D01*
X9622729Y-12153960D02*
X9603682Y-12163484D01*
X9603682Y-12163484D02*
X9584634Y-12163484D01*
X9584634Y-12163484D02*
X9565587Y-12153960D01*
X9565587Y-12153960D02*
X9556063Y-12144436D01*
X9556063Y-12144436D02*
X9546539Y-12125388D01*
X9546539Y-12125388D02*
X9537015Y-12087293D01*
X9537015Y-12087293D02*
X9537015Y-12039674D01*
X9537015Y-12039674D02*
X9546539Y-12001579D01*
X9546539Y-12001579D02*
X9556063Y-11982531D01*
X9556063Y-11982531D02*
X9565587Y-11973008D01*
X9565587Y-11973008D02*
X9584634Y-11963484D01*
X9737015Y-12144436D02*
X9746539Y-12153960D01*
X9746539Y-12153960D02*
X9737015Y-12163484D01*
X9737015Y-12163484D02*
X9727491Y-12153960D01*
X9727491Y-12153960D02*
X9737015Y-12144436D01*
X9737015Y-12144436D02*
X9737015Y-12163484D01*
X9870348Y-11963484D02*
X9889396Y-11963484D01*
X9889396Y-11963484D02*
X9908444Y-11973008D01*
X9908444Y-11973008D02*
X9917968Y-11982531D01*
X9917968Y-11982531D02*
X9927491Y-12001579D01*
X9927491Y-12001579D02*
X9937015Y-12039674D01*
X9937015Y-12039674D02*
X9937015Y-12087293D01*
X9937015Y-12087293D02*
X9927491Y-12125388D01*
X9927491Y-12125388D02*
X9917968Y-12144436D01*
X9917968Y-12144436D02*
X9908444Y-12153960D01*
X9908444Y-12153960D02*
X9889396Y-12163484D01*
X9889396Y-12163484D02*
X9870348Y-12163484D01*
X9870348Y-12163484D02*
X9851301Y-12153960D01*
X9851301Y-12153960D02*
X9841777Y-12144436D01*
X9841777Y-12144436D02*
X9832253Y-12125388D01*
X9832253Y-12125388D02*
X9822729Y-12087293D01*
X9822729Y-12087293D02*
X9822729Y-12039674D01*
X9822729Y-12039674D02*
X9832253Y-12001579D01*
X9832253Y-12001579D02*
X9841777Y-11982531D01*
X9841777Y-11982531D02*
X9851301Y-11973008D01*
X9851301Y-11973008D02*
X9870348Y-11963484D01*
X10003682Y-11963484D02*
X10127491Y-11963484D01*
X10127491Y-11963484D02*
X10060825Y-12039674D01*
X10060825Y-12039674D02*
X10089396Y-12039674D01*
X10089396Y-12039674D02*
X10108444Y-12049198D01*
X10108444Y-12049198D02*
X10117968Y-12058722D01*
X10117968Y-12058722D02*
X10127491Y-12077769D01*
X10127491Y-12077769D02*
X10127491Y-12125388D01*
X10127491Y-12125388D02*
X10117968Y-12144436D01*
X10117968Y-12144436D02*
X10108444Y-12153960D01*
X10108444Y-12153960D02*
X10089396Y-12163484D01*
X10089396Y-12163484D02*
X10032253Y-12163484D01*
X10032253Y-12163484D02*
X10013206Y-12153960D01*
X10013206Y-12153960D02*
X10003682Y-12144436D01*
X10317968Y-12163484D02*
X10203682Y-12163484D01*
X10260825Y-12163484D02*
X10260825Y-11963484D01*
X10260825Y-11963484D02*
X10241777Y-11992055D01*
X10241777Y-11992055D02*
X10222729Y-12011103D01*
X10222729Y-12011103D02*
X10203682Y-12020627D01*
X10498920Y-11963484D02*
X10403682Y-11963484D01*
X10403682Y-11963484D02*
X10394158Y-12058722D01*
X10394158Y-12058722D02*
X10403682Y-12049198D01*
X10403682Y-12049198D02*
X10422729Y-12039674D01*
X10422729Y-12039674D02*
X10470349Y-12039674D01*
X10470349Y-12039674D02*
X10489396Y-12049198D01*
X10489396Y-12049198D02*
X10498920Y-12058722D01*
X10498920Y-12058722D02*
X10508444Y-12077769D01*
X10508444Y-12077769D02*
X10508444Y-12125388D01*
X10508444Y-12125388D02*
X10498920Y-12144436D01*
X10498920Y-12144436D02*
X10489396Y-12153960D01*
X10489396Y-12153960D02*
X10470349Y-12163484D01*
X10470349Y-12163484D02*
X10422729Y-12163484D01*
X10422729Y-12163484D02*
X10403682Y-12153960D01*
X10403682Y-12153960D02*
X10394158Y-12144436D01*
X10584634Y-11963484D02*
X10584634Y-12001579D01*
X10660825Y-11963484D02*
X10660825Y-12001579D01*
X10956063Y-12239674D02*
X10946539Y-12230150D01*
X10946539Y-12230150D02*
X10927491Y-12201579D01*
X10927491Y-12201579D02*
X10917968Y-12182531D01*
X10917968Y-12182531D02*
X10908444Y-12153960D01*
X10908444Y-12153960D02*
X10898920Y-12106341D01*
X10898920Y-12106341D02*
X10898920Y-12068246D01*
X10898920Y-12068246D02*
X10908444Y-12020627D01*
X10908444Y-12020627D02*
X10917968Y-11992055D01*
X10917968Y-11992055D02*
X10927491Y-11973008D01*
X10927491Y-11973008D02*
X10946539Y-11944436D01*
X10946539Y-11944436D02*
X10956063Y-11934912D01*
X11137015Y-12163484D02*
X11022730Y-12163484D01*
X11079872Y-12163484D02*
X11079872Y-11963484D01*
X11079872Y-11963484D02*
X11060825Y-11992055D01*
X11060825Y-11992055D02*
X11041777Y-12011103D01*
X11041777Y-12011103D02*
X11022730Y-12020627D01*
X11213206Y-11982531D02*
X11222729Y-11973008D01*
X11222729Y-11973008D02*
X11241777Y-11963484D01*
X11241777Y-11963484D02*
X11289396Y-11963484D01*
X11289396Y-11963484D02*
X11308444Y-11973008D01*
X11308444Y-11973008D02*
X11317968Y-11982531D01*
X11317968Y-11982531D02*
X11327491Y-12001579D01*
X11327491Y-12001579D02*
X11327491Y-12020627D01*
X11327491Y-12020627D02*
X11317968Y-12049198D01*
X11317968Y-12049198D02*
X11203682Y-12163484D01*
X11203682Y-12163484D02*
X11327491Y-12163484D01*
X11441777Y-12049198D02*
X11422729Y-12039674D01*
X11422729Y-12039674D02*
X11413206Y-12030150D01*
X11413206Y-12030150D02*
X11403682Y-12011103D01*
X11403682Y-12011103D02*
X11403682Y-12001579D01*
X11403682Y-12001579D02*
X11413206Y-11982531D01*
X11413206Y-11982531D02*
X11422729Y-11973008D01*
X11422729Y-11973008D02*
X11441777Y-11963484D01*
X11441777Y-11963484D02*
X11479872Y-11963484D01*
X11479872Y-11963484D02*
X11498920Y-11973008D01*
X11498920Y-11973008D02*
X11508444Y-11982531D01*
X11508444Y-11982531D02*
X11517968Y-12001579D01*
X11517968Y-12001579D02*
X11517968Y-12011103D01*
X11517968Y-12011103D02*
X11508444Y-12030150D01*
X11508444Y-12030150D02*
X11498920Y-12039674D01*
X11498920Y-12039674D02*
X11479872Y-12049198D01*
X11479872Y-12049198D02*
X11441777Y-12049198D01*
X11441777Y-12049198D02*
X11422729Y-12058722D01*
X11422729Y-12058722D02*
X11413206Y-12068246D01*
X11413206Y-12068246D02*
X11403682Y-12087293D01*
X11403682Y-12087293D02*
X11403682Y-12125388D01*
X11403682Y-12125388D02*
X11413206Y-12144436D01*
X11413206Y-12144436D02*
X11422729Y-12153960D01*
X11422729Y-12153960D02*
X11441777Y-12163484D01*
X11441777Y-12163484D02*
X11479872Y-12163484D01*
X11479872Y-12163484D02*
X11498920Y-12153960D01*
X11498920Y-12153960D02*
X11508444Y-12144436D01*
X11508444Y-12144436D02*
X11517968Y-12125388D01*
X11517968Y-12125388D02*
X11517968Y-12087293D01*
X11517968Y-12087293D02*
X11508444Y-12068246D01*
X11508444Y-12068246D02*
X11498920Y-12058722D01*
X11498920Y-12058722D02*
X11479872Y-12049198D01*
X11756063Y-12163484D02*
X11756063Y-11963484D01*
X11841777Y-12163484D02*
X11841777Y-12058722D01*
X11841777Y-12058722D02*
X11832253Y-12039674D01*
X11832253Y-12039674D02*
X11813206Y-12030150D01*
X11813206Y-12030150D02*
X11784634Y-12030150D01*
X11784634Y-12030150D02*
X11765587Y-12039674D01*
X11765587Y-12039674D02*
X11756063Y-12049198D01*
X11965587Y-12163484D02*
X11946539Y-12153960D01*
X11946539Y-12153960D02*
X11937015Y-12144436D01*
X11937015Y-12144436D02*
X11927491Y-12125388D01*
X11927491Y-12125388D02*
X11927491Y-12068246D01*
X11927491Y-12068246D02*
X11937015Y-12049198D01*
X11937015Y-12049198D02*
X11946539Y-12039674D01*
X11946539Y-12039674D02*
X11965587Y-12030150D01*
X11965587Y-12030150D02*
X11994158Y-12030150D01*
X11994158Y-12030150D02*
X12013206Y-12039674D01*
X12013206Y-12039674D02*
X12022730Y-12049198D01*
X12022730Y-12049198D02*
X12032253Y-12068246D01*
X12032253Y-12068246D02*
X12032253Y-12125388D01*
X12032253Y-12125388D02*
X12022730Y-12144436D01*
X12022730Y-12144436D02*
X12013206Y-12153960D01*
X12013206Y-12153960D02*
X11994158Y-12163484D01*
X11994158Y-12163484D02*
X11965587Y-12163484D01*
X12146539Y-12163484D02*
X12127491Y-12153960D01*
X12127491Y-12153960D02*
X12117968Y-12134912D01*
X12117968Y-12134912D02*
X12117968Y-11963484D01*
X12298920Y-12153960D02*
X12279872Y-12163484D01*
X12279872Y-12163484D02*
X12241777Y-12163484D01*
X12241777Y-12163484D02*
X12222730Y-12153960D01*
X12222730Y-12153960D02*
X12213206Y-12134912D01*
X12213206Y-12134912D02*
X12213206Y-12058722D01*
X12213206Y-12058722D02*
X12222730Y-12039674D01*
X12222730Y-12039674D02*
X12241777Y-12030150D01*
X12241777Y-12030150D02*
X12279872Y-12030150D01*
X12279872Y-12030150D02*
X12298920Y-12039674D01*
X12298920Y-12039674D02*
X12308444Y-12058722D01*
X12308444Y-12058722D02*
X12308444Y-12077769D01*
X12308444Y-12077769D02*
X12213206Y-12096817D01*
X12384634Y-12153960D02*
X12403682Y-12163484D01*
X12403682Y-12163484D02*
X12441777Y-12163484D01*
X12441777Y-12163484D02*
X12460825Y-12153960D01*
X12460825Y-12153960D02*
X12470349Y-12134912D01*
X12470349Y-12134912D02*
X12470349Y-12125388D01*
X12470349Y-12125388D02*
X12460825Y-12106341D01*
X12460825Y-12106341D02*
X12441777Y-12096817D01*
X12441777Y-12096817D02*
X12413206Y-12096817D01*
X12413206Y-12096817D02*
X12394158Y-12087293D01*
X12394158Y-12087293D02*
X12384634Y-12068246D01*
X12384634Y-12068246D02*
X12384634Y-12058722D01*
X12384634Y-12058722D02*
X12394158Y-12039674D01*
X12394158Y-12039674D02*
X12413206Y-12030150D01*
X12413206Y-12030150D02*
X12441777Y-12030150D01*
X12441777Y-12030150D02*
X12460825Y-12039674D01*
X12537015Y-12239674D02*
X12546539Y-12230150D01*
X12546539Y-12230150D02*
X12565587Y-12201579D01*
X12565587Y-12201579D02*
X12575111Y-12182531D01*
X12575111Y-12182531D02*
X12584634Y-12153960D01*
X12584634Y-12153960D02*
X12594158Y-12106341D01*
X12594158Y-12106341D02*
X12594158Y-12068246D01*
X12594158Y-12068246D02*
X12584634Y-12020627D01*
X12584634Y-12020627D02*
X12575111Y-11992055D01*
X12575111Y-11992055D02*
X12565587Y-11973008D01*
X12565587Y-11973008D02*
X12546539Y-11944436D01*
X12546539Y-11944436D02*
X12537015Y-11934912D01*
D12*
X7331000Y-12286000D02*
X7331000Y-12386000D01*
X7281000Y-12336000D02*
X7381000Y-12336000D01*
D11*
X7746539Y-12427484D02*
X7632253Y-12427484D01*
X7689396Y-12427484D02*
X7689396Y-12227484D01*
X7689396Y-12227484D02*
X7670348Y-12256055D01*
X7670348Y-12256055D02*
X7651301Y-12275103D01*
X7651301Y-12275103D02*
X7632253Y-12284627D01*
X7832253Y-12408436D02*
X7841777Y-12417960D01*
X7841777Y-12417960D02*
X7832253Y-12427484D01*
X7832253Y-12427484D02*
X7822729Y-12417960D01*
X7822729Y-12417960D02*
X7832253Y-12408436D01*
X7832253Y-12408436D02*
X7832253Y-12427484D01*
X7965586Y-12227484D02*
X7984634Y-12227484D01*
X7984634Y-12227484D02*
X8003682Y-12237008D01*
X8003682Y-12237008D02*
X8013205Y-12246531D01*
X8013205Y-12246531D02*
X8022729Y-12265579D01*
X8022729Y-12265579D02*
X8032253Y-12303674D01*
X8032253Y-12303674D02*
X8032253Y-12351293D01*
X8032253Y-12351293D02*
X8022729Y-12389388D01*
X8022729Y-12389388D02*
X8013205Y-12408436D01*
X8013205Y-12408436D02*
X8003682Y-12417960D01*
X8003682Y-12417960D02*
X7984634Y-12427484D01*
X7984634Y-12427484D02*
X7965586Y-12427484D01*
X7965586Y-12427484D02*
X7946539Y-12417960D01*
X7946539Y-12417960D02*
X7937015Y-12408436D01*
X7937015Y-12408436D02*
X7927491Y-12389388D01*
X7927491Y-12389388D02*
X7917967Y-12351293D01*
X7917967Y-12351293D02*
X7917967Y-12303674D01*
X7917967Y-12303674D02*
X7927491Y-12265579D01*
X7927491Y-12265579D02*
X7937015Y-12246531D01*
X7937015Y-12246531D02*
X7946539Y-12237008D01*
X7946539Y-12237008D02*
X7965586Y-12227484D01*
X8156062Y-12227484D02*
X8175110Y-12227484D01*
X8175110Y-12227484D02*
X8194158Y-12237008D01*
X8194158Y-12237008D02*
X8203682Y-12246531D01*
X8203682Y-12246531D02*
X8213205Y-12265579D01*
X8213205Y-12265579D02*
X8222729Y-12303674D01*
X8222729Y-12303674D02*
X8222729Y-12351293D01*
X8222729Y-12351293D02*
X8213205Y-12389388D01*
X8213205Y-12389388D02*
X8203682Y-12408436D01*
X8203682Y-12408436D02*
X8194158Y-12417960D01*
X8194158Y-12417960D02*
X8175110Y-12427484D01*
X8175110Y-12427484D02*
X8156062Y-12427484D01*
X8156062Y-12427484D02*
X8137015Y-12417960D01*
X8137015Y-12417960D02*
X8127491Y-12408436D01*
X8127491Y-12408436D02*
X8117967Y-12389388D01*
X8117967Y-12389388D02*
X8108443Y-12351293D01*
X8108443Y-12351293D02*
X8108443Y-12303674D01*
X8108443Y-12303674D02*
X8117967Y-12265579D01*
X8117967Y-12265579D02*
X8127491Y-12246531D01*
X8127491Y-12246531D02*
X8137015Y-12237008D01*
X8137015Y-12237008D02*
X8156062Y-12227484D01*
X8346539Y-12227484D02*
X8365586Y-12227484D01*
X8365586Y-12227484D02*
X8384634Y-12237008D01*
X8384634Y-12237008D02*
X8394158Y-12246531D01*
X8394158Y-12246531D02*
X8403682Y-12265579D01*
X8403682Y-12265579D02*
X8413205Y-12303674D01*
X8413205Y-12303674D02*
X8413205Y-12351293D01*
X8413205Y-12351293D02*
X8403682Y-12389388D01*
X8403682Y-12389388D02*
X8394158Y-12408436D01*
X8394158Y-12408436D02*
X8384634Y-12417960D01*
X8384634Y-12417960D02*
X8365586Y-12427484D01*
X8365586Y-12427484D02*
X8346539Y-12427484D01*
X8346539Y-12427484D02*
X8327491Y-12417960D01*
X8327491Y-12417960D02*
X8317967Y-12408436D01*
X8317967Y-12408436D02*
X8308443Y-12389388D01*
X8308443Y-12389388D02*
X8298920Y-12351293D01*
X8298920Y-12351293D02*
X8298920Y-12303674D01*
X8298920Y-12303674D02*
X8308443Y-12265579D01*
X8308443Y-12265579D02*
X8317967Y-12246531D01*
X8317967Y-12246531D02*
X8327491Y-12237008D01*
X8327491Y-12237008D02*
X8346539Y-12227484D01*
X8498920Y-12427484D02*
X8498920Y-12294150D01*
X8498920Y-12313198D02*
X8508444Y-12303674D01*
X8508444Y-12303674D02*
X8527491Y-12294150D01*
X8527491Y-12294150D02*
X8556063Y-12294150D01*
X8556063Y-12294150D02*
X8575110Y-12303674D01*
X8575110Y-12303674D02*
X8584634Y-12322722D01*
X8584634Y-12322722D02*
X8584634Y-12427484D01*
X8584634Y-12322722D02*
X8594158Y-12303674D01*
X8594158Y-12303674D02*
X8613205Y-12294150D01*
X8613205Y-12294150D02*
X8641777Y-12294150D01*
X8641777Y-12294150D02*
X8660825Y-12303674D01*
X8660825Y-12303674D02*
X8670348Y-12322722D01*
X8670348Y-12322722D02*
X8670348Y-12427484D01*
X8765586Y-12427484D02*
X8765586Y-12294150D01*
X8765586Y-12313198D02*
X8775110Y-12303674D01*
X8775110Y-12303674D02*
X8794158Y-12294150D01*
X8794158Y-12294150D02*
X8822729Y-12294150D01*
X8822729Y-12294150D02*
X8841777Y-12303674D01*
X8841777Y-12303674D02*
X8851301Y-12322722D01*
X8851301Y-12322722D02*
X8851301Y-12427484D01*
X8851301Y-12322722D02*
X8860825Y-12303674D01*
X8860825Y-12303674D02*
X8879872Y-12294150D01*
X8879872Y-12294150D02*
X8908444Y-12294150D01*
X8908444Y-12294150D02*
X8927491Y-12303674D01*
X8927491Y-12303674D02*
X8937015Y-12322722D01*
X8937015Y-12322722D02*
X8937015Y-12427484D01*
X9327491Y-12217960D02*
X9156063Y-12475103D01*
X9584634Y-12227484D02*
X9603682Y-12227484D01*
X9603682Y-12227484D02*
X9622729Y-12237008D01*
X9622729Y-12237008D02*
X9632253Y-12246531D01*
X9632253Y-12246531D02*
X9641777Y-12265579D01*
X9641777Y-12265579D02*
X9651301Y-12303674D01*
X9651301Y-12303674D02*
X9651301Y-12351293D01*
X9651301Y-12351293D02*
X9641777Y-12389388D01*
X9641777Y-12389388D02*
X9632253Y-12408436D01*
X9632253Y-12408436D02*
X9622729Y-12417960D01*
X9622729Y-12417960D02*
X9603682Y-12427484D01*
X9603682Y-12427484D02*
X9584634Y-12427484D01*
X9584634Y-12427484D02*
X9565587Y-12417960D01*
X9565587Y-12417960D02*
X9556063Y-12408436D01*
X9556063Y-12408436D02*
X9546539Y-12389388D01*
X9546539Y-12389388D02*
X9537015Y-12351293D01*
X9537015Y-12351293D02*
X9537015Y-12303674D01*
X9537015Y-12303674D02*
X9546539Y-12265579D01*
X9546539Y-12265579D02*
X9556063Y-12246531D01*
X9556063Y-12246531D02*
X9565587Y-12237008D01*
X9565587Y-12237008D02*
X9584634Y-12227484D01*
X9737015Y-12408436D02*
X9746539Y-12417960D01*
X9746539Y-12417960D02*
X9737015Y-12427484D01*
X9737015Y-12427484D02*
X9727491Y-12417960D01*
X9727491Y-12417960D02*
X9737015Y-12408436D01*
X9737015Y-12408436D02*
X9737015Y-12427484D01*
X9870348Y-12227484D02*
X9889396Y-12227484D01*
X9889396Y-12227484D02*
X9908444Y-12237008D01*
X9908444Y-12237008D02*
X9917968Y-12246531D01*
X9917968Y-12246531D02*
X9927491Y-12265579D01*
X9927491Y-12265579D02*
X9937015Y-12303674D01*
X9937015Y-12303674D02*
X9937015Y-12351293D01*
X9937015Y-12351293D02*
X9927491Y-12389388D01*
X9927491Y-12389388D02*
X9917968Y-12408436D01*
X9917968Y-12408436D02*
X9908444Y-12417960D01*
X9908444Y-12417960D02*
X9889396Y-12427484D01*
X9889396Y-12427484D02*
X9870348Y-12427484D01*
X9870348Y-12427484D02*
X9851301Y-12417960D01*
X9851301Y-12417960D02*
X9841777Y-12408436D01*
X9841777Y-12408436D02*
X9832253Y-12389388D01*
X9832253Y-12389388D02*
X9822729Y-12351293D01*
X9822729Y-12351293D02*
X9822729Y-12303674D01*
X9822729Y-12303674D02*
X9832253Y-12265579D01*
X9832253Y-12265579D02*
X9841777Y-12246531D01*
X9841777Y-12246531D02*
X9851301Y-12237008D01*
X9851301Y-12237008D02*
X9870348Y-12227484D01*
X10003682Y-12227484D02*
X10127491Y-12227484D01*
X10127491Y-12227484D02*
X10060825Y-12303674D01*
X10060825Y-12303674D02*
X10089396Y-12303674D01*
X10089396Y-12303674D02*
X10108444Y-12313198D01*
X10108444Y-12313198D02*
X10117968Y-12322722D01*
X10117968Y-12322722D02*
X10127491Y-12341769D01*
X10127491Y-12341769D02*
X10127491Y-12389388D01*
X10127491Y-12389388D02*
X10117968Y-12408436D01*
X10117968Y-12408436D02*
X10108444Y-12417960D01*
X10108444Y-12417960D02*
X10089396Y-12427484D01*
X10089396Y-12427484D02*
X10032253Y-12427484D01*
X10032253Y-12427484D02*
X10013206Y-12417960D01*
X10013206Y-12417960D02*
X10003682Y-12408436D01*
X10222729Y-12427484D02*
X10260825Y-12427484D01*
X10260825Y-12427484D02*
X10279872Y-12417960D01*
X10279872Y-12417960D02*
X10289396Y-12408436D01*
X10289396Y-12408436D02*
X10308444Y-12379865D01*
X10308444Y-12379865D02*
X10317968Y-12341769D01*
X10317968Y-12341769D02*
X10317968Y-12265579D01*
X10317968Y-12265579D02*
X10308444Y-12246531D01*
X10308444Y-12246531D02*
X10298920Y-12237008D01*
X10298920Y-12237008D02*
X10279872Y-12227484D01*
X10279872Y-12227484D02*
X10241777Y-12227484D01*
X10241777Y-12227484D02*
X10222729Y-12237008D01*
X10222729Y-12237008D02*
X10213206Y-12246531D01*
X10213206Y-12246531D02*
X10203682Y-12265579D01*
X10203682Y-12265579D02*
X10203682Y-12313198D01*
X10203682Y-12313198D02*
X10213206Y-12332246D01*
X10213206Y-12332246D02*
X10222729Y-12341769D01*
X10222729Y-12341769D02*
X10241777Y-12351293D01*
X10241777Y-12351293D02*
X10279872Y-12351293D01*
X10279872Y-12351293D02*
X10298920Y-12341769D01*
X10298920Y-12341769D02*
X10308444Y-12332246D01*
X10308444Y-12332246D02*
X10317968Y-12313198D01*
X10489396Y-12294150D02*
X10489396Y-12427484D01*
X10441777Y-12217960D02*
X10394158Y-12360817D01*
X10394158Y-12360817D02*
X10517968Y-12360817D01*
X10584634Y-12227484D02*
X10584634Y-12265579D01*
X10660825Y-12227484D02*
X10660825Y-12265579D01*
X10956063Y-12503674D02*
X10946539Y-12494150D01*
X10946539Y-12494150D02*
X10927491Y-12465579D01*
X10927491Y-12465579D02*
X10917968Y-12446531D01*
X10917968Y-12446531D02*
X10908444Y-12417960D01*
X10908444Y-12417960D02*
X10898920Y-12370341D01*
X10898920Y-12370341D02*
X10898920Y-12332246D01*
X10898920Y-12332246D02*
X10908444Y-12284627D01*
X10908444Y-12284627D02*
X10917968Y-12256055D01*
X10917968Y-12256055D02*
X10927491Y-12237008D01*
X10927491Y-12237008D02*
X10946539Y-12208436D01*
X10946539Y-12208436D02*
X10956063Y-12198912D01*
X11013206Y-12227484D02*
X11137015Y-12227484D01*
X11137015Y-12227484D02*
X11070349Y-12303674D01*
X11070349Y-12303674D02*
X11098920Y-12303674D01*
X11098920Y-12303674D02*
X11117968Y-12313198D01*
X11117968Y-12313198D02*
X11127491Y-12322722D01*
X11127491Y-12322722D02*
X11137015Y-12341769D01*
X11137015Y-12341769D02*
X11137015Y-12389388D01*
X11137015Y-12389388D02*
X11127491Y-12408436D01*
X11127491Y-12408436D02*
X11117968Y-12417960D01*
X11117968Y-12417960D02*
X11098920Y-12427484D01*
X11098920Y-12427484D02*
X11041777Y-12427484D01*
X11041777Y-12427484D02*
X11022730Y-12417960D01*
X11022730Y-12417960D02*
X11013206Y-12408436D01*
X11375110Y-12427484D02*
X11375110Y-12227484D01*
X11460825Y-12427484D02*
X11460825Y-12322722D01*
X11460825Y-12322722D02*
X11451301Y-12303674D01*
X11451301Y-12303674D02*
X11432253Y-12294150D01*
X11432253Y-12294150D02*
X11403682Y-12294150D01*
X11403682Y-12294150D02*
X11384634Y-12303674D01*
X11384634Y-12303674D02*
X11375110Y-12313198D01*
X11584634Y-12427484D02*
X11565587Y-12417960D01*
X11565587Y-12417960D02*
X11556063Y-12408436D01*
X11556063Y-12408436D02*
X11546539Y-12389388D01*
X11546539Y-12389388D02*
X11546539Y-12332246D01*
X11546539Y-12332246D02*
X11556063Y-12313198D01*
X11556063Y-12313198D02*
X11565587Y-12303674D01*
X11565587Y-12303674D02*
X11584634Y-12294150D01*
X11584634Y-12294150D02*
X11613206Y-12294150D01*
X11613206Y-12294150D02*
X11632253Y-12303674D01*
X11632253Y-12303674D02*
X11641777Y-12313198D01*
X11641777Y-12313198D02*
X11651301Y-12332246D01*
X11651301Y-12332246D02*
X11651301Y-12389388D01*
X11651301Y-12389388D02*
X11641777Y-12408436D01*
X11641777Y-12408436D02*
X11632253Y-12417960D01*
X11632253Y-12417960D02*
X11613206Y-12427484D01*
X11613206Y-12427484D02*
X11584634Y-12427484D01*
X11765587Y-12427484D02*
X11746539Y-12417960D01*
X11746539Y-12417960D02*
X11737015Y-12398912D01*
X11737015Y-12398912D02*
X11737015Y-12227484D01*
X11917968Y-12417960D02*
X11898920Y-12427484D01*
X11898920Y-12427484D02*
X11860825Y-12427484D01*
X11860825Y-12427484D02*
X11841777Y-12417960D01*
X11841777Y-12417960D02*
X11832253Y-12398912D01*
X11832253Y-12398912D02*
X11832253Y-12322722D01*
X11832253Y-12322722D02*
X11841777Y-12303674D01*
X11841777Y-12303674D02*
X11860825Y-12294150D01*
X11860825Y-12294150D02*
X11898920Y-12294150D01*
X11898920Y-12294150D02*
X11917968Y-12303674D01*
X11917968Y-12303674D02*
X11927491Y-12322722D01*
X11927491Y-12322722D02*
X11927491Y-12341769D01*
X11927491Y-12341769D02*
X11832253Y-12360817D01*
X12003682Y-12417960D02*
X12022730Y-12427484D01*
X12022730Y-12427484D02*
X12060825Y-12427484D01*
X12060825Y-12427484D02*
X12079872Y-12417960D01*
X12079872Y-12417960D02*
X12089396Y-12398912D01*
X12089396Y-12398912D02*
X12089396Y-12389388D01*
X12089396Y-12389388D02*
X12079872Y-12370341D01*
X12079872Y-12370341D02*
X12060825Y-12360817D01*
X12060825Y-12360817D02*
X12032253Y-12360817D01*
X12032253Y-12360817D02*
X12013206Y-12351293D01*
X12013206Y-12351293D02*
X12003682Y-12332246D01*
X12003682Y-12332246D02*
X12003682Y-12322722D01*
X12003682Y-12322722D02*
X12013206Y-12303674D01*
X12013206Y-12303674D02*
X12032253Y-12294150D01*
X12032253Y-12294150D02*
X12060825Y-12294150D01*
X12060825Y-12294150D02*
X12079872Y-12303674D01*
X12156063Y-12503674D02*
X12165587Y-12494150D01*
X12165587Y-12494150D02*
X12184634Y-12465579D01*
X12184634Y-12465579D02*
X12194158Y-12446531D01*
X12194158Y-12446531D02*
X12203682Y-12417960D01*
X12203682Y-12417960D02*
X12213206Y-12370341D01*
X12213206Y-12370341D02*
X12213206Y-12332246D01*
X12213206Y-12332246D02*
X12203682Y-12284627D01*
X12203682Y-12284627D02*
X12194158Y-12256055D01*
X12194158Y-12256055D02*
X12184634Y-12237008D01*
X12184634Y-12237008D02*
X12165587Y-12208436D01*
X12165587Y-12208436D02*
X12156063Y-12198912D01*
M02*
