%TF.GenerationSoftware,KiCad,Pcbnew,8.0.3*%
%TF.CreationDate,2024-06-29T10:30:59+02:00*%
%TF.ProjectId,adapter 8913-8910 triangle,61646170-7465-4722-9038-3931332d3839,rev?*%
%TF.SameCoordinates,Original*%
%TF.FileFunction,Drillmap*%
%TF.FilePolarity,Positive*%
%FSLAX45Y45*%
G04 Gerber Fmt 4.5, Leading zero omitted, Abs format (unit mm)*
G04 Created by KiCad (PCBNEW 8.0.3) date 2024-06-29 10:30:59*
%MOMM*%
%LPD*%
G01*
G04 APERTURE LIST*
%ADD10C,0.050000*%
%ADD11C,0.200000*%
G04 APERTURE END LIST*
D10*
X13583500Y-4565500D02*
X17383500Y-4565500D01*
X17383500Y-4565500D02*
X17383500Y-10390500D01*
X7383500Y-11165000D02*
X7383500Y-7221500D01*
X17383500Y-10390500D02*
X14560000Y-10390500D01*
X13783500Y-11165500D02*
X7383500Y-11165500D01*
X7383500Y-7221500D02*
X13583500Y-4565500D01*
X13783500Y-11165500D02*
X14560000Y-10390500D01*
D11*
X7641777Y-11479484D02*
X7641777Y-11279484D01*
X7641777Y-11279484D02*
X7689396Y-11279484D01*
X7689396Y-11279484D02*
X7717967Y-11289008D01*
X7717967Y-11289008D02*
X7737015Y-11308055D01*
X7737015Y-11308055D02*
X7746539Y-11327103D01*
X7746539Y-11327103D02*
X7756062Y-11365198D01*
X7756062Y-11365198D02*
X7756062Y-11393769D01*
X7756062Y-11393769D02*
X7746539Y-11431865D01*
X7746539Y-11431865D02*
X7737015Y-11450912D01*
X7737015Y-11450912D02*
X7717967Y-11469960D01*
X7717967Y-11469960D02*
X7689396Y-11479484D01*
X7689396Y-11479484D02*
X7641777Y-11479484D01*
X7841777Y-11479484D02*
X7841777Y-11346150D01*
X7841777Y-11384246D02*
X7851301Y-11365198D01*
X7851301Y-11365198D02*
X7860824Y-11355674D01*
X7860824Y-11355674D02*
X7879872Y-11346150D01*
X7879872Y-11346150D02*
X7898920Y-11346150D01*
X7965586Y-11479484D02*
X7965586Y-11346150D01*
X7965586Y-11279484D02*
X7956062Y-11289008D01*
X7956062Y-11289008D02*
X7965586Y-11298531D01*
X7965586Y-11298531D02*
X7975110Y-11289008D01*
X7975110Y-11289008D02*
X7965586Y-11279484D01*
X7965586Y-11279484D02*
X7965586Y-11298531D01*
X8089396Y-11479484D02*
X8070348Y-11469960D01*
X8070348Y-11469960D02*
X8060824Y-11450912D01*
X8060824Y-11450912D02*
X8060824Y-11279484D01*
X8194158Y-11479484D02*
X8175110Y-11469960D01*
X8175110Y-11469960D02*
X8165586Y-11450912D01*
X8165586Y-11450912D02*
X8165586Y-11279484D01*
X8422729Y-11479484D02*
X8422729Y-11279484D01*
X8422729Y-11279484D02*
X8489396Y-11422341D01*
X8489396Y-11422341D02*
X8556063Y-11279484D01*
X8556063Y-11279484D02*
X8556063Y-11479484D01*
X8737015Y-11479484D02*
X8737015Y-11374722D01*
X8737015Y-11374722D02*
X8727491Y-11355674D01*
X8727491Y-11355674D02*
X8708444Y-11346150D01*
X8708444Y-11346150D02*
X8670348Y-11346150D01*
X8670348Y-11346150D02*
X8651301Y-11355674D01*
X8737015Y-11469960D02*
X8717967Y-11479484D01*
X8717967Y-11479484D02*
X8670348Y-11479484D01*
X8670348Y-11479484D02*
X8651301Y-11469960D01*
X8651301Y-11469960D02*
X8641777Y-11450912D01*
X8641777Y-11450912D02*
X8641777Y-11431865D01*
X8641777Y-11431865D02*
X8651301Y-11412817D01*
X8651301Y-11412817D02*
X8670348Y-11403293D01*
X8670348Y-11403293D02*
X8717967Y-11403293D01*
X8717967Y-11403293D02*
X8737015Y-11393769D01*
X8832253Y-11346150D02*
X8832253Y-11546150D01*
X8832253Y-11355674D02*
X8851301Y-11346150D01*
X8851301Y-11346150D02*
X8889396Y-11346150D01*
X8889396Y-11346150D02*
X8908444Y-11355674D01*
X8908444Y-11355674D02*
X8917967Y-11365198D01*
X8917967Y-11365198D02*
X8927491Y-11384246D01*
X8927491Y-11384246D02*
X8927491Y-11441388D01*
X8927491Y-11441388D02*
X8917967Y-11460436D01*
X8917967Y-11460436D02*
X8908444Y-11469960D01*
X8908444Y-11469960D02*
X8889396Y-11479484D01*
X8889396Y-11479484D02*
X8851301Y-11479484D01*
X8851301Y-11479484D02*
X8832253Y-11469960D01*
X9013205Y-11460436D02*
X9022729Y-11469960D01*
X9022729Y-11469960D02*
X9013205Y-11479484D01*
X9013205Y-11479484D02*
X9003682Y-11469960D01*
X9003682Y-11469960D02*
X9013205Y-11460436D01*
X9013205Y-11460436D02*
X9013205Y-11479484D01*
X9013205Y-11355674D02*
X9022729Y-11365198D01*
X9022729Y-11365198D02*
X9013205Y-11374722D01*
X9013205Y-11374722D02*
X9003682Y-11365198D01*
X9003682Y-11365198D02*
X9013205Y-11355674D01*
X9013205Y-11355674D02*
X9013205Y-11374722D01*
M02*
