%TF.GenerationSoftware,KiCad,Pcbnew,8.0.3*%
%TF.CreationDate,2024-06-29T11:18:24+02:00*%
%TF.ProjectId,adapter 8913-8910 Angle R,61646170-7465-4722-9038-3931332d3839,rev?*%
%TF.SameCoordinates,Original*%
%TF.FileFunction,Legend,Bot*%
%TF.FilePolarity,Positive*%
%FSLAX46Y46*%
G04 Gerber Fmt 4.6, Leading zero omitted, Abs format (unit mm)*
G04 Created by KiCad (PCBNEW 8.0.3) date 2024-06-29 11:18:24*
%MOMM*%
%LPD*%
G01*
G04 APERTURE LIST*
%ADD10C,0.200000*%
%ADD11C,0.150000*%
%ADD12C,0.120000*%
G04 APERTURE END LIST*
D10*
X127180000Y-53550000D02*
X126180000Y-54050000D01*
X126180000Y-53050000D01*
X127180000Y-53550000D01*
G36*
X127180000Y-53550000D02*
G01*
X126180000Y-54050000D01*
X126180000Y-53050000D01*
X127180000Y-53550000D01*
G37*
X116520000Y-26200000D02*
X115520000Y-25700000D01*
X116520000Y-25200000D01*
X116520000Y-26200000D01*
G36*
X116520000Y-26200000D02*
G01*
X115520000Y-25700000D01*
X116520000Y-25200000D01*
X116520000Y-26200000D01*
G37*
D11*
X133535601Y-88536933D02*
X134072569Y-88341493D01*
X133804085Y-88439213D02*
X133462065Y-87499520D01*
X133462065Y-87499520D02*
X133600420Y-87601188D01*
X133600420Y-87601188D02*
X133722487Y-87658110D01*
X133722487Y-87658110D02*
X133828269Y-87670284D01*
X132611867Y-87808967D02*
X132522372Y-87841540D01*
X132522372Y-87841540D02*
X132449164Y-87918861D01*
X132449164Y-87918861D02*
X132420704Y-87979895D01*
X132420704Y-87979895D02*
X132408530Y-88085676D01*
X132408530Y-88085676D02*
X132428929Y-88280952D01*
X132428929Y-88280952D02*
X132510363Y-88504688D01*
X132510363Y-88504688D02*
X132620257Y-88667390D01*
X132620257Y-88667390D02*
X132697577Y-88740598D01*
X132697577Y-88740598D02*
X132758611Y-88769059D01*
X132758611Y-88769059D02*
X132864392Y-88781233D01*
X132864392Y-88781233D02*
X132953887Y-88748659D01*
X132953887Y-88748659D02*
X133027095Y-88671339D01*
X133027095Y-88671339D02*
X133055555Y-88610305D01*
X133055555Y-88610305D02*
X133067729Y-88504524D01*
X133067729Y-88504524D02*
X133047330Y-88309248D01*
X133047330Y-88309248D02*
X132965897Y-88085512D01*
X132965897Y-88085512D02*
X132856003Y-87922809D01*
X132856003Y-87922809D02*
X132778682Y-87849601D01*
X132778682Y-87849601D02*
X132717648Y-87821141D01*
X132717648Y-87821141D02*
X132611867Y-87808967D01*
X131716921Y-88134700D02*
X131627427Y-88167274D01*
X131627427Y-88167274D02*
X131554219Y-88244594D01*
X131554219Y-88244594D02*
X131525758Y-88305628D01*
X131525758Y-88305628D02*
X131513585Y-88411409D01*
X131513585Y-88411409D02*
X131533984Y-88606685D01*
X131533984Y-88606685D02*
X131615417Y-88830421D01*
X131615417Y-88830421D02*
X131725311Y-88993124D01*
X131725311Y-88993124D02*
X131802632Y-89066332D01*
X131802632Y-89066332D02*
X131863666Y-89094792D01*
X131863666Y-89094792D02*
X131969447Y-89106966D01*
X131969447Y-89106966D02*
X132058942Y-89074393D01*
X132058942Y-89074393D02*
X132132149Y-88997072D01*
X132132149Y-88997072D02*
X132160610Y-88936038D01*
X132160610Y-88936038D02*
X132172784Y-88830257D01*
X132172784Y-88830257D02*
X132152385Y-88634981D01*
X132152385Y-88634981D02*
X132070951Y-88411245D01*
X132070951Y-88411245D02*
X131961057Y-88248543D01*
X131961057Y-88248543D02*
X131883737Y-88175335D01*
X131883737Y-88175335D02*
X131822703Y-88146874D01*
X131822703Y-88146874D02*
X131716921Y-88134700D01*
X131114972Y-88708518D02*
X131342985Y-89334980D01*
X131147545Y-88798012D02*
X131086511Y-88769552D01*
X131086511Y-88769552D02*
X130980730Y-88757378D01*
X130980730Y-88757378D02*
X130846488Y-88806238D01*
X130846488Y-88806238D02*
X130773280Y-88883559D01*
X130773280Y-88883559D02*
X130761106Y-88989340D01*
X130761106Y-88989340D02*
X130940260Y-89481560D01*
X130399015Y-88969105D02*
X130041037Y-89099398D01*
X130492787Y-89644426D02*
X130199627Y-88838976D01*
X130199627Y-88838976D02*
X130122306Y-88765768D01*
X130122306Y-88765768D02*
X130016525Y-88753594D01*
X130016525Y-88753594D02*
X129927031Y-88786167D01*
X122209411Y-26119819D02*
X122780839Y-26119819D01*
X122495125Y-26119819D02*
X122495125Y-25119819D01*
X122495125Y-25119819D02*
X122590363Y-25262676D01*
X122590363Y-25262676D02*
X122685601Y-25357914D01*
X122685601Y-25357914D02*
X122780839Y-25405533D01*
X121876077Y-25119819D02*
X121257030Y-25119819D01*
X121257030Y-25119819D02*
X121590363Y-25500771D01*
X121590363Y-25500771D02*
X121447506Y-25500771D01*
X121447506Y-25500771D02*
X121352268Y-25548390D01*
X121352268Y-25548390D02*
X121304649Y-25596009D01*
X121304649Y-25596009D02*
X121257030Y-25691247D01*
X121257030Y-25691247D02*
X121257030Y-25929342D01*
X121257030Y-25929342D02*
X121304649Y-26024580D01*
X121304649Y-26024580D02*
X121352268Y-26072200D01*
X121352268Y-26072200D02*
X121447506Y-26119819D01*
X121447506Y-26119819D02*
X121733220Y-26119819D01*
X121733220Y-26119819D02*
X121828458Y-26072200D01*
X121828458Y-26072200D02*
X121876077Y-26024580D01*
X120542744Y-26500771D02*
X120590363Y-26453152D01*
X120590363Y-26453152D02*
X120685601Y-26310295D01*
X120685601Y-26310295D02*
X120733220Y-26215057D01*
X120733220Y-26215057D02*
X120780839Y-26072200D01*
X120780839Y-26072200D02*
X120828458Y-25834104D01*
X120828458Y-25834104D02*
X120828458Y-25643628D01*
X120828458Y-25643628D02*
X120780839Y-25405533D01*
X120780839Y-25405533D02*
X120733220Y-25262676D01*
X120733220Y-25262676D02*
X120685601Y-25167438D01*
X120685601Y-25167438D02*
X120590363Y-25024580D01*
X120590363Y-25024580D02*
X120542744Y-24976961D01*
X120161791Y-25738866D02*
X119399887Y-25738866D01*
X119780839Y-26119819D02*
X119780839Y-25357914D01*
X118447506Y-25119819D02*
X118923696Y-25119819D01*
X118923696Y-25119819D02*
X118971315Y-25596009D01*
X118971315Y-25596009D02*
X118923696Y-25548390D01*
X118923696Y-25548390D02*
X118828458Y-25500771D01*
X118828458Y-25500771D02*
X118590363Y-25500771D01*
X118590363Y-25500771D02*
X118495125Y-25548390D01*
X118495125Y-25548390D02*
X118447506Y-25596009D01*
X118447506Y-25596009D02*
X118399887Y-25691247D01*
X118399887Y-25691247D02*
X118399887Y-25929342D01*
X118399887Y-25929342D02*
X118447506Y-26024580D01*
X118447506Y-26024580D02*
X118495125Y-26072200D01*
X118495125Y-26072200D02*
X118590363Y-26119819D01*
X118590363Y-26119819D02*
X118828458Y-26119819D01*
X118828458Y-26119819D02*
X118923696Y-26072200D01*
X118923696Y-26072200D02*
X118971315Y-26024580D01*
X118114172Y-25119819D02*
X117780839Y-26119819D01*
X117780839Y-26119819D02*
X117447506Y-25119819D01*
X117209410Y-26500771D02*
X117161791Y-26453152D01*
X117161791Y-26453152D02*
X117066553Y-26310295D01*
X117066553Y-26310295D02*
X117018934Y-26215057D01*
X117018934Y-26215057D02*
X116971315Y-26072200D01*
X116971315Y-26072200D02*
X116923696Y-25834104D01*
X116923696Y-25834104D02*
X116923696Y-25643628D01*
X116923696Y-25643628D02*
X116971315Y-25405533D01*
X116971315Y-25405533D02*
X117018934Y-25262676D01*
X117018934Y-25262676D02*
X117066553Y-25167438D01*
X117066553Y-25167438D02*
X117161791Y-25024580D01*
X117161791Y-25024580D02*
X117209410Y-24976961D01*
X124519411Y-52979819D02*
X125090839Y-52979819D01*
X124805125Y-52979819D02*
X124805125Y-51979819D01*
X124805125Y-51979819D02*
X124900363Y-52122676D01*
X124900363Y-52122676D02*
X124995601Y-52217914D01*
X124995601Y-52217914D02*
X125090839Y-52265533D01*
X123805125Y-53360771D02*
X123852744Y-53313152D01*
X123852744Y-53313152D02*
X123947982Y-53170295D01*
X123947982Y-53170295D02*
X123995601Y-53075057D01*
X123995601Y-53075057D02*
X124043220Y-52932200D01*
X124043220Y-52932200D02*
X124090839Y-52694104D01*
X124090839Y-52694104D02*
X124090839Y-52503628D01*
X124090839Y-52503628D02*
X124043220Y-52265533D01*
X124043220Y-52265533D02*
X123995601Y-52122676D01*
X123995601Y-52122676D02*
X123947982Y-52027438D01*
X123947982Y-52027438D02*
X123852744Y-51884580D01*
X123852744Y-51884580D02*
X123805125Y-51836961D01*
X122900363Y-52027438D02*
X122995601Y-51979819D01*
X122995601Y-51979819D02*
X123138458Y-51979819D01*
X123138458Y-51979819D02*
X123281315Y-52027438D01*
X123281315Y-52027438D02*
X123376553Y-52122676D01*
X123376553Y-52122676D02*
X123424172Y-52217914D01*
X123424172Y-52217914D02*
X123471791Y-52408390D01*
X123471791Y-52408390D02*
X123471791Y-52551247D01*
X123471791Y-52551247D02*
X123424172Y-52741723D01*
X123424172Y-52741723D02*
X123376553Y-52836961D01*
X123376553Y-52836961D02*
X123281315Y-52932200D01*
X123281315Y-52932200D02*
X123138458Y-52979819D01*
X123138458Y-52979819D02*
X123043220Y-52979819D01*
X123043220Y-52979819D02*
X122900363Y-52932200D01*
X122900363Y-52932200D02*
X122852744Y-52884580D01*
X122852744Y-52884580D02*
X122852744Y-52551247D01*
X122852744Y-52551247D02*
X123043220Y-52551247D01*
X122424172Y-52979819D02*
X122424172Y-51979819D01*
X122424172Y-51979819D02*
X121852744Y-52979819D01*
X121852744Y-52979819D02*
X121852744Y-51979819D01*
X121376553Y-52979819D02*
X121376553Y-51979819D01*
X121376553Y-51979819D02*
X121138458Y-51979819D01*
X121138458Y-51979819D02*
X120995601Y-52027438D01*
X120995601Y-52027438D02*
X120900363Y-52122676D01*
X120900363Y-52122676D02*
X120852744Y-52217914D01*
X120852744Y-52217914D02*
X120805125Y-52408390D01*
X120805125Y-52408390D02*
X120805125Y-52551247D01*
X120805125Y-52551247D02*
X120852744Y-52741723D01*
X120852744Y-52741723D02*
X120900363Y-52836961D01*
X120900363Y-52836961D02*
X120995601Y-52932200D01*
X120995601Y-52932200D02*
X121138458Y-52979819D01*
X121138458Y-52979819D02*
X121376553Y-52979819D01*
X120471791Y-53360771D02*
X120424172Y-53313152D01*
X120424172Y-53313152D02*
X120328934Y-53170295D01*
X120328934Y-53170295D02*
X120281315Y-53075057D01*
X120281315Y-53075057D02*
X120233696Y-52932200D01*
X120233696Y-52932200D02*
X120186077Y-52694104D01*
X120186077Y-52694104D02*
X120186077Y-52503628D01*
X120186077Y-52503628D02*
X120233696Y-52265533D01*
X120233696Y-52265533D02*
X120281315Y-52122676D01*
X120281315Y-52122676D02*
X120328934Y-52027438D01*
X120328934Y-52027438D02*
X120424172Y-51884580D01*
X120424172Y-51884580D02*
X120471791Y-51836961D01*
X121951904Y-38999875D02*
X121951904Y-39809398D01*
X121951904Y-39809398D02*
X121904285Y-39904636D01*
X121904285Y-39904636D02*
X121856666Y-39952256D01*
X121856666Y-39952256D02*
X121761428Y-39999875D01*
X121761428Y-39999875D02*
X121570952Y-39999875D01*
X121570952Y-39999875D02*
X121475714Y-39952256D01*
X121475714Y-39952256D02*
X121428095Y-39904636D01*
X121428095Y-39904636D02*
X121380476Y-39809398D01*
X121380476Y-39809398D02*
X121380476Y-38999875D01*
X120951904Y-39095113D02*
X120904285Y-39047494D01*
X120904285Y-39047494D02*
X120809047Y-38999875D01*
X120809047Y-38999875D02*
X120570952Y-38999875D01*
X120570952Y-38999875D02*
X120475714Y-39047494D01*
X120475714Y-39047494D02*
X120428095Y-39095113D01*
X120428095Y-39095113D02*
X120380476Y-39190351D01*
X120380476Y-39190351D02*
X120380476Y-39285589D01*
X120380476Y-39285589D02*
X120428095Y-39428446D01*
X120428095Y-39428446D02*
X120999523Y-39999875D01*
X120999523Y-39999875D02*
X120380476Y-39999875D01*
X122713809Y-41038390D02*
X122809047Y-40990771D01*
X122809047Y-40990771D02*
X122856666Y-40943152D01*
X122856666Y-40943152D02*
X122904285Y-40847914D01*
X122904285Y-40847914D02*
X122904285Y-40800295D01*
X122904285Y-40800295D02*
X122856666Y-40705057D01*
X122856666Y-40705057D02*
X122809047Y-40657438D01*
X122809047Y-40657438D02*
X122713809Y-40609819D01*
X122713809Y-40609819D02*
X122523333Y-40609819D01*
X122523333Y-40609819D02*
X122428095Y-40657438D01*
X122428095Y-40657438D02*
X122380476Y-40705057D01*
X122380476Y-40705057D02*
X122332857Y-40800295D01*
X122332857Y-40800295D02*
X122332857Y-40847914D01*
X122332857Y-40847914D02*
X122380476Y-40943152D01*
X122380476Y-40943152D02*
X122428095Y-40990771D01*
X122428095Y-40990771D02*
X122523333Y-41038390D01*
X122523333Y-41038390D02*
X122713809Y-41038390D01*
X122713809Y-41038390D02*
X122809047Y-41086009D01*
X122809047Y-41086009D02*
X122856666Y-41133628D01*
X122856666Y-41133628D02*
X122904285Y-41228866D01*
X122904285Y-41228866D02*
X122904285Y-41419342D01*
X122904285Y-41419342D02*
X122856666Y-41514580D01*
X122856666Y-41514580D02*
X122809047Y-41562200D01*
X122809047Y-41562200D02*
X122713809Y-41609819D01*
X122713809Y-41609819D02*
X122523333Y-41609819D01*
X122523333Y-41609819D02*
X122428095Y-41562200D01*
X122428095Y-41562200D02*
X122380476Y-41514580D01*
X122380476Y-41514580D02*
X122332857Y-41419342D01*
X122332857Y-41419342D02*
X122332857Y-41228866D01*
X122332857Y-41228866D02*
X122380476Y-41133628D01*
X122380476Y-41133628D02*
X122428095Y-41086009D01*
X122428095Y-41086009D02*
X122523333Y-41038390D01*
X121856666Y-41609819D02*
X121666190Y-41609819D01*
X121666190Y-41609819D02*
X121570952Y-41562200D01*
X121570952Y-41562200D02*
X121523333Y-41514580D01*
X121523333Y-41514580D02*
X121428095Y-41371723D01*
X121428095Y-41371723D02*
X121380476Y-41181247D01*
X121380476Y-41181247D02*
X121380476Y-40800295D01*
X121380476Y-40800295D02*
X121428095Y-40705057D01*
X121428095Y-40705057D02*
X121475714Y-40657438D01*
X121475714Y-40657438D02*
X121570952Y-40609819D01*
X121570952Y-40609819D02*
X121761428Y-40609819D01*
X121761428Y-40609819D02*
X121856666Y-40657438D01*
X121856666Y-40657438D02*
X121904285Y-40705057D01*
X121904285Y-40705057D02*
X121951904Y-40800295D01*
X121951904Y-40800295D02*
X121951904Y-41038390D01*
X121951904Y-41038390D02*
X121904285Y-41133628D01*
X121904285Y-41133628D02*
X121856666Y-41181247D01*
X121856666Y-41181247D02*
X121761428Y-41228866D01*
X121761428Y-41228866D02*
X121570952Y-41228866D01*
X121570952Y-41228866D02*
X121475714Y-41181247D01*
X121475714Y-41181247D02*
X121428095Y-41133628D01*
X121428095Y-41133628D02*
X121380476Y-41038390D01*
X120428095Y-41609819D02*
X120999523Y-41609819D01*
X120713809Y-41609819D02*
X120713809Y-40609819D01*
X120713809Y-40609819D02*
X120809047Y-40752676D01*
X120809047Y-40752676D02*
X120904285Y-40847914D01*
X120904285Y-40847914D02*
X120999523Y-40895533D01*
X120094761Y-40609819D02*
X119475714Y-40609819D01*
X119475714Y-40609819D02*
X119809047Y-40990771D01*
X119809047Y-40990771D02*
X119666190Y-40990771D01*
X119666190Y-40990771D02*
X119570952Y-41038390D01*
X119570952Y-41038390D02*
X119523333Y-41086009D01*
X119523333Y-41086009D02*
X119475714Y-41181247D01*
X119475714Y-41181247D02*
X119475714Y-41419342D01*
X119475714Y-41419342D02*
X119523333Y-41514580D01*
X119523333Y-41514580D02*
X119570952Y-41562200D01*
X119570952Y-41562200D02*
X119666190Y-41609819D01*
X119666190Y-41609819D02*
X119951904Y-41609819D01*
X119951904Y-41609819D02*
X120047142Y-41562200D01*
X120047142Y-41562200D02*
X120094761Y-41514580D01*
X132821272Y-90338569D02*
X132882306Y-90367029D01*
X132882306Y-90367029D02*
X133032835Y-90362917D01*
X133032835Y-90362917D02*
X133122329Y-90330343D01*
X133122329Y-90330343D02*
X133240285Y-90236736D01*
X133240285Y-90236736D02*
X133297206Y-90114668D01*
X133297206Y-90114668D02*
X133309380Y-90008887D01*
X133309380Y-90008887D02*
X133288980Y-89813611D01*
X133288980Y-89813611D02*
X133240120Y-89679369D01*
X133240120Y-89679369D02*
X133130226Y-89516667D01*
X133130226Y-89516667D02*
X133052906Y-89443459D01*
X133052906Y-89443459D02*
X132930838Y-89386538D01*
X132930838Y-89386538D02*
X132780309Y-89390651D01*
X132780309Y-89390651D02*
X132690815Y-89423224D01*
X132690815Y-89423224D02*
X132572860Y-89516831D01*
X132572860Y-89516831D02*
X132544399Y-89577865D01*
X131958900Y-90753797D02*
X132495868Y-90558357D01*
X132227384Y-90656077D02*
X131885364Y-89716384D01*
X131885364Y-89716384D02*
X132023718Y-89818053D01*
X132023718Y-89818053D02*
X132145786Y-89874974D01*
X132145786Y-89874974D02*
X132251568Y-89887148D01*
D12*
%TO.C,*%
X115290000Y-24250000D02*
X115290000Y-54850000D01*
X115290000Y-54850000D02*
X120350000Y-54850000D01*
X122350000Y-54850000D02*
X127410000Y-54850000D01*
X127410000Y-24250000D02*
X115290000Y-24250000D01*
X127410000Y-54850000D02*
X127410000Y-24250000D01*
X120350000Y-54850000D02*
G75*
G02*
X122350000Y-54850000I1000000J0D01*
G01*
%TO.C,C1*%
X132619388Y-91035040D02*
X133110380Y-90856334D01*
X133122156Y-92416388D02*
X133613148Y-92237682D01*
%TD*%
M02*
