%TF.GenerationSoftware,KiCad,Pcbnew,8.0.3*%
%TF.CreationDate,2024-06-29T11:18:28+02:00*%
%TF.ProjectId,adapter 8913-8910 Angle R,61646170-7465-4722-9038-3931332d3839,rev?*%
%TF.SameCoordinates,Original*%
%TF.FileFunction,Drillmap*%
%TF.FilePolarity,Positive*%
%FSLAX45Y45*%
G04 Gerber Fmt 4.5, Leading zero omitted, Abs format (unit mm)*
G04 Created by KiCad (PCBNEW 8.0.3) date 2024-06-29 11:18:28*
%MOMM*%
%LPD*%
G01*
G04 APERTURE LIST*
%ADD10C,0.050000*%
%ADD11C,0.200000*%
G04 APERTURE END LIST*
D10*
X12840000Y-11230000D02*
X11010884Y-6203955D01*
X11010884Y-6203955D02*
X11010884Y-2303955D01*
X11010884Y-2303955D02*
X13210884Y-2303955D01*
X14980000Y-10450000D02*
X13210884Y-5578955D01*
X13210884Y-2303955D02*
X13210884Y-5578955D01*
X12840000Y-11230000D02*
X14980000Y-10450000D01*
D11*
X11269161Y-11543984D02*
X11269161Y-11343984D01*
X11269161Y-11343984D02*
X11316780Y-11343984D01*
X11316780Y-11343984D02*
X11345351Y-11353508D01*
X11345351Y-11353508D02*
X11364399Y-11372555D01*
X11364399Y-11372555D02*
X11373923Y-11391603D01*
X11373923Y-11391603D02*
X11383446Y-11429698D01*
X11383446Y-11429698D02*
X11383446Y-11458269D01*
X11383446Y-11458269D02*
X11373923Y-11496365D01*
X11373923Y-11496365D02*
X11364399Y-11515412D01*
X11364399Y-11515412D02*
X11345351Y-11534460D01*
X11345351Y-11534460D02*
X11316780Y-11543984D01*
X11316780Y-11543984D02*
X11269161Y-11543984D01*
X11469161Y-11543984D02*
X11469161Y-11410650D01*
X11469161Y-11448746D02*
X11478685Y-11429698D01*
X11478685Y-11429698D02*
X11488208Y-11420174D01*
X11488208Y-11420174D02*
X11507256Y-11410650D01*
X11507256Y-11410650D02*
X11526304Y-11410650D01*
X11592970Y-11543984D02*
X11592970Y-11410650D01*
X11592970Y-11343984D02*
X11583446Y-11353508D01*
X11583446Y-11353508D02*
X11592970Y-11363031D01*
X11592970Y-11363031D02*
X11602494Y-11353508D01*
X11602494Y-11353508D02*
X11592970Y-11343984D01*
X11592970Y-11343984D02*
X11592970Y-11363031D01*
X11716780Y-11543984D02*
X11697732Y-11534460D01*
X11697732Y-11534460D02*
X11688208Y-11515412D01*
X11688208Y-11515412D02*
X11688208Y-11343984D01*
X11821542Y-11543984D02*
X11802494Y-11534460D01*
X11802494Y-11534460D02*
X11792970Y-11515412D01*
X11792970Y-11515412D02*
X11792970Y-11343984D01*
X12050113Y-11543984D02*
X12050113Y-11343984D01*
X12050113Y-11343984D02*
X12116780Y-11486841D01*
X12116780Y-11486841D02*
X12183446Y-11343984D01*
X12183446Y-11343984D02*
X12183446Y-11543984D01*
X12364399Y-11543984D02*
X12364399Y-11439222D01*
X12364399Y-11439222D02*
X12354875Y-11420174D01*
X12354875Y-11420174D02*
X12335827Y-11410650D01*
X12335827Y-11410650D02*
X12297732Y-11410650D01*
X12297732Y-11410650D02*
X12278685Y-11420174D01*
X12364399Y-11534460D02*
X12345351Y-11543984D01*
X12345351Y-11543984D02*
X12297732Y-11543984D01*
X12297732Y-11543984D02*
X12278685Y-11534460D01*
X12278685Y-11534460D02*
X12269161Y-11515412D01*
X12269161Y-11515412D02*
X12269161Y-11496365D01*
X12269161Y-11496365D02*
X12278685Y-11477317D01*
X12278685Y-11477317D02*
X12297732Y-11467793D01*
X12297732Y-11467793D02*
X12345351Y-11467793D01*
X12345351Y-11467793D02*
X12364399Y-11458269D01*
X12459637Y-11410650D02*
X12459637Y-11610650D01*
X12459637Y-11420174D02*
X12478685Y-11410650D01*
X12478685Y-11410650D02*
X12516780Y-11410650D01*
X12516780Y-11410650D02*
X12535827Y-11420174D01*
X12535827Y-11420174D02*
X12545351Y-11429698D01*
X12545351Y-11429698D02*
X12554875Y-11448746D01*
X12554875Y-11448746D02*
X12554875Y-11505888D01*
X12554875Y-11505888D02*
X12545351Y-11524936D01*
X12545351Y-11524936D02*
X12535827Y-11534460D01*
X12535827Y-11534460D02*
X12516780Y-11543984D01*
X12516780Y-11543984D02*
X12478685Y-11543984D01*
X12478685Y-11543984D02*
X12459637Y-11534460D01*
X12640589Y-11524936D02*
X12650113Y-11534460D01*
X12650113Y-11534460D02*
X12640589Y-11543984D01*
X12640589Y-11543984D02*
X12631066Y-11534460D01*
X12631066Y-11534460D02*
X12640589Y-11524936D01*
X12640589Y-11524936D02*
X12640589Y-11543984D01*
X12640589Y-11420174D02*
X12650113Y-11429698D01*
X12650113Y-11429698D02*
X12640589Y-11439222D01*
X12640589Y-11439222D02*
X12631066Y-11429698D01*
X12631066Y-11429698D02*
X12640589Y-11420174D01*
X12640589Y-11420174D02*
X12640589Y-11439222D01*
M02*
