M48
; DRILL file {KiCad 8.0.3} date 2024-06-29T11:18:28+0200
; FORMAT={-:-/ absolute / metric / decimal}
; #@! TF.CreationDate,2024-06-29T11:18:28+02:00
; #@! TF.GenerationSoftware,Kicad,Pcbnew,8.0.3
; #@! TF.FileFunction,Plated,1,2,PTH
FMAT,2
METRIC
; #@! TA.AperFunction,Plated,PTH,ViaDrill
T1C0.400
; #@! TA.AperFunction,Plated,PTH,ComponentDrill
T2C0.800
; #@! TA.AperFunction,Plated,PTH,ComponentDrill
T3C1.000
%
G90
G05
T1
X116.8Y-48.28
X120.26Y-49.35
X120.37Y-56.16
X121.04Y-50.89
X121.79Y-49.35
X122.54Y-50.85
X122.6Y-31.7
X122.666Y-65.16
X123.216Y-67.636
X123.606Y-68.926
X123.63Y-49.36
X124.446Y-71.086
X124.46Y-50.65
X125.21Y-49.4
X125.526Y-73.7
X126.11Y-47.35
X126.43Y-75.803
X127.546Y-79.486
X128.406Y-81.856
X129.266Y-84.246
X131.81Y-57.26
X136.05Y-101.61
X136.06Y-105.48
X138.93Y-101.7
X138.99Y-105.4
T2
X113.65Y-25.55
X113.65Y-28.09
X113.65Y-30.63
X113.65Y-33.17
X113.65Y-35.71
X113.65Y-38.25
X113.65Y-40.79
X113.65Y-43.33
X113.65Y-45.87
X113.65Y-48.41
X113.65Y-50.95
X113.65Y-53.49
X114.579Y-63.012
X115.448Y-65.399
X116.317Y-67.786
X117.185Y-70.173
X118.054Y-72.56
X118.923Y-74.946
X119.791Y-77.333
X120.66Y-79.72
X121.529Y-82.107
X122.398Y-84.494
X123.266Y-86.881
X124.135Y-89.267
X125.004Y-91.654
X125.873Y-94.041
X126.741Y-96.428
X127.61Y-98.815
X128.479Y-101.201
X128.89Y-25.55
X128.89Y-28.09
X128.89Y-30.63
X128.89Y-33.17
X128.89Y-35.71
X128.89Y-38.25
X128.89Y-40.79
X128.89Y-43.33
X128.89Y-45.87
X128.89Y-48.41
X128.89Y-50.95
X128.89Y-53.49
X128.9Y-57.8
X129.348Y-103.588
X129.769Y-60.187
X130.216Y-105.975
X130.637Y-62.574
X131.085Y-108.362
X131.506Y-64.96
X132.375Y-67.347
X133.244Y-69.734
X134.112Y-72.121
X134.981Y-74.508
X135.85Y-76.895
X136.719Y-79.281
X137.587Y-81.668
X138.456Y-84.055
X139.325Y-86.442
X140.194Y-88.829
X141.062Y-91.215
X141.931Y-93.602
X142.8Y-95.989
X143.668Y-98.376
X144.537Y-100.763
X145.406Y-103.15
T3
X119.1Y-33.91
X119.1Y-36.45
M30
