%TF.GenerationSoftware,KiCad,Pcbnew,8.0.3*%
%TF.CreationDate,2024-06-29T11:18:24+02:00*%
%TF.ProjectId,adapter 8913-8910 Angle R,61646170-7465-4722-9038-3931332d3839,rev?*%
%TF.SameCoordinates,Original*%
%TF.FileFunction,Soldermask,Top*%
%TF.FilePolarity,Negative*%
%FSLAX46Y46*%
G04 Gerber Fmt 4.6, Leading zero omitted, Abs format (unit mm)*
G04 Created by KiCad (PCBNEW 8.0.3) date 2024-06-29 11:18:24*
%MOMM*%
%LPD*%
G01*
G04 APERTURE LIST*
G04 APERTURE END LIST*
G36*
X131126176Y-107515615D02*
G01*
X131173931Y-107515615D01*
X131215171Y-107524380D01*
X131250878Y-107527898D01*
X131295736Y-107541505D01*
X131347950Y-107552604D01*
X131381361Y-107567479D01*
X131410412Y-107576292D01*
X131456579Y-107600968D01*
X131510477Y-107624965D01*
X131535531Y-107643168D01*
X131557430Y-107654873D01*
X131602105Y-107691537D01*
X131654407Y-107729537D01*
X131671388Y-107748396D01*
X131686297Y-107760632D01*
X131726364Y-107809454D01*
X131773450Y-107861748D01*
X131783341Y-107878880D01*
X131792056Y-107889499D01*
X131824283Y-107949793D01*
X131862404Y-108015820D01*
X131866790Y-108029321D01*
X131870637Y-108036517D01*
X131891838Y-108106408D01*
X131917381Y-108185020D01*
X131918280Y-108193576D01*
X131919031Y-108196051D01*
X131926348Y-108270342D01*
X131935977Y-108361953D01*
X131926347Y-108453572D01*
X131919031Y-108527854D01*
X131918280Y-108530328D01*
X131917381Y-108538886D01*
X131891833Y-108617511D01*
X131870637Y-108687388D01*
X131866791Y-108694582D01*
X131862404Y-108708086D01*
X131824276Y-108774125D01*
X131792056Y-108834406D01*
X131783343Y-108845022D01*
X131773450Y-108862158D01*
X131726355Y-108914462D01*
X131686297Y-108963273D01*
X131671391Y-108975505D01*
X131654407Y-108994369D01*
X131602095Y-109032376D01*
X131557430Y-109069032D01*
X131535536Y-109080733D01*
X131510477Y-109098941D01*
X131456568Y-109122942D01*
X131410412Y-109147613D01*
X131381368Y-109156423D01*
X131347950Y-109171302D01*
X131295725Y-109182402D01*
X131250878Y-109196007D01*
X131215180Y-109199523D01*
X131173931Y-109208291D01*
X131126165Y-109208291D01*
X131084977Y-109212348D01*
X131043788Y-109208291D01*
X130996023Y-109208291D01*
X130954774Y-109199523D01*
X130919075Y-109196007D01*
X130874225Y-109182401D01*
X130822004Y-109171302D01*
X130788587Y-109156424D01*
X130759541Y-109147613D01*
X130713379Y-109122939D01*
X130659477Y-109098941D01*
X130634420Y-109080736D01*
X130612523Y-109069032D01*
X130567850Y-109032369D01*
X130515547Y-108994369D01*
X130498565Y-108975508D01*
X130483656Y-108963273D01*
X130443587Y-108914449D01*
X130396504Y-108862158D01*
X130386613Y-108845026D01*
X130377897Y-108834406D01*
X130345664Y-108774101D01*
X130307550Y-108708086D01*
X130303163Y-108694587D01*
X130299316Y-108687388D01*
X130278105Y-108617465D01*
X130252573Y-108538886D01*
X130251674Y-108530333D01*
X130250922Y-108527854D01*
X130243590Y-108453420D01*
X130233977Y-108361953D01*
X130243589Y-108270493D01*
X130250922Y-108196051D01*
X130251674Y-108193571D01*
X130252573Y-108185020D01*
X130278100Y-108106455D01*
X130299316Y-108036517D01*
X130303164Y-108029316D01*
X130307550Y-108015820D01*
X130345657Y-107949816D01*
X130377897Y-107889499D01*
X130386615Y-107878876D01*
X130396504Y-107861748D01*
X130443578Y-107809466D01*
X130483656Y-107760632D01*
X130498568Y-107748393D01*
X130515547Y-107729537D01*
X130567839Y-107691544D01*
X130612523Y-107654873D01*
X130634425Y-107643166D01*
X130659477Y-107624965D01*
X130713368Y-107600971D01*
X130759541Y-107576292D01*
X130788594Y-107567478D01*
X130822004Y-107552604D01*
X130874214Y-107541506D01*
X130919075Y-107527898D01*
X130954783Y-107524380D01*
X130996023Y-107515615D01*
X131043778Y-107515615D01*
X131084977Y-107511557D01*
X131126176Y-107515615D01*
G37*
G36*
X130257445Y-105128795D02*
G01*
X130305200Y-105128795D01*
X130346440Y-105137560D01*
X130382147Y-105141078D01*
X130427005Y-105154685D01*
X130479219Y-105165784D01*
X130512630Y-105180659D01*
X130541681Y-105189472D01*
X130587848Y-105214148D01*
X130641746Y-105238145D01*
X130666800Y-105256348D01*
X130688699Y-105268053D01*
X130733374Y-105304717D01*
X130785676Y-105342717D01*
X130802657Y-105361576D01*
X130817566Y-105373812D01*
X130857633Y-105422634D01*
X130904719Y-105474928D01*
X130914610Y-105492060D01*
X130923325Y-105502679D01*
X130955552Y-105562973D01*
X130993673Y-105629000D01*
X130998059Y-105642501D01*
X131001906Y-105649697D01*
X131023107Y-105719588D01*
X131048650Y-105798200D01*
X131049549Y-105806756D01*
X131050300Y-105809231D01*
X131057617Y-105883522D01*
X131067246Y-105975133D01*
X131057616Y-106066752D01*
X131050300Y-106141034D01*
X131049549Y-106143508D01*
X131048650Y-106152066D01*
X131023102Y-106230691D01*
X131001906Y-106300568D01*
X130998060Y-106307762D01*
X130993673Y-106321266D01*
X130955545Y-106387305D01*
X130923325Y-106447586D01*
X130914612Y-106458202D01*
X130904719Y-106475338D01*
X130857624Y-106527642D01*
X130817566Y-106576453D01*
X130802660Y-106588685D01*
X130785676Y-106607549D01*
X130733364Y-106645556D01*
X130688699Y-106682212D01*
X130666805Y-106693913D01*
X130641746Y-106712121D01*
X130587837Y-106736122D01*
X130541681Y-106760793D01*
X130512637Y-106769603D01*
X130479219Y-106784482D01*
X130426994Y-106795582D01*
X130382147Y-106809187D01*
X130346449Y-106812703D01*
X130305200Y-106821471D01*
X130257434Y-106821471D01*
X130216246Y-106825528D01*
X130175057Y-106821471D01*
X130127292Y-106821471D01*
X130086043Y-106812703D01*
X130050344Y-106809187D01*
X130005494Y-106795581D01*
X129953273Y-106784482D01*
X129919856Y-106769604D01*
X129890810Y-106760793D01*
X129844648Y-106736119D01*
X129790746Y-106712121D01*
X129765689Y-106693916D01*
X129743792Y-106682212D01*
X129699119Y-106645549D01*
X129646816Y-106607549D01*
X129629834Y-106588688D01*
X129614925Y-106576453D01*
X129574856Y-106527629D01*
X129527773Y-106475338D01*
X129517882Y-106458206D01*
X129509166Y-106447586D01*
X129476933Y-106387281D01*
X129438819Y-106321266D01*
X129434432Y-106307767D01*
X129430585Y-106300568D01*
X129409374Y-106230645D01*
X129383842Y-106152066D01*
X129382943Y-106143513D01*
X129382191Y-106141034D01*
X129374859Y-106066600D01*
X129365246Y-105975133D01*
X129374858Y-105883673D01*
X129382191Y-105809231D01*
X129382943Y-105806751D01*
X129383842Y-105798200D01*
X129409369Y-105719635D01*
X129430585Y-105649697D01*
X129434433Y-105642496D01*
X129438819Y-105629000D01*
X129476926Y-105562996D01*
X129509166Y-105502679D01*
X129517884Y-105492056D01*
X129527773Y-105474928D01*
X129574847Y-105422646D01*
X129614925Y-105373812D01*
X129629837Y-105361573D01*
X129646816Y-105342717D01*
X129699108Y-105304724D01*
X129743792Y-105268053D01*
X129765694Y-105256346D01*
X129790746Y-105238145D01*
X129844637Y-105214151D01*
X129890810Y-105189472D01*
X129919863Y-105180658D01*
X129953273Y-105165784D01*
X130005483Y-105154686D01*
X130050344Y-105141078D01*
X130086052Y-105137560D01*
X130127292Y-105128795D01*
X130175047Y-105128795D01*
X130216246Y-105124737D01*
X130257445Y-105128795D01*
G37*
G36*
X129388714Y-102741976D02*
G01*
X129436469Y-102741976D01*
X129477709Y-102750741D01*
X129513416Y-102754259D01*
X129558274Y-102767866D01*
X129610488Y-102778965D01*
X129643899Y-102793840D01*
X129672950Y-102802653D01*
X129719117Y-102827329D01*
X129773015Y-102851326D01*
X129798069Y-102869529D01*
X129819968Y-102881234D01*
X129864643Y-102917898D01*
X129916945Y-102955898D01*
X129933926Y-102974757D01*
X129948835Y-102986993D01*
X129988902Y-103035815D01*
X130035988Y-103088109D01*
X130045879Y-103105241D01*
X130054594Y-103115860D01*
X130086821Y-103176154D01*
X130124942Y-103242181D01*
X130129328Y-103255682D01*
X130133175Y-103262878D01*
X130154376Y-103332769D01*
X130179919Y-103411381D01*
X130180818Y-103419937D01*
X130181569Y-103422412D01*
X130188886Y-103496703D01*
X130198515Y-103588314D01*
X130188885Y-103679933D01*
X130181569Y-103754215D01*
X130180818Y-103756689D01*
X130179919Y-103765247D01*
X130154371Y-103843872D01*
X130133175Y-103913749D01*
X130129329Y-103920943D01*
X130124942Y-103934447D01*
X130086814Y-104000486D01*
X130054594Y-104060767D01*
X130045881Y-104071383D01*
X130035988Y-104088519D01*
X129988893Y-104140823D01*
X129948835Y-104189634D01*
X129933929Y-104201866D01*
X129916945Y-104220730D01*
X129864633Y-104258737D01*
X129819968Y-104295393D01*
X129798074Y-104307094D01*
X129773015Y-104325302D01*
X129719106Y-104349303D01*
X129672950Y-104373974D01*
X129643906Y-104382784D01*
X129610488Y-104397663D01*
X129558263Y-104408763D01*
X129513416Y-104422368D01*
X129477718Y-104425884D01*
X129436469Y-104434652D01*
X129388703Y-104434652D01*
X129347515Y-104438709D01*
X129306326Y-104434652D01*
X129258561Y-104434652D01*
X129217312Y-104425884D01*
X129181613Y-104422368D01*
X129136763Y-104408762D01*
X129084542Y-104397663D01*
X129051125Y-104382785D01*
X129022079Y-104373974D01*
X128975917Y-104349300D01*
X128922015Y-104325302D01*
X128896958Y-104307097D01*
X128875061Y-104295393D01*
X128830388Y-104258730D01*
X128778085Y-104220730D01*
X128761103Y-104201869D01*
X128746194Y-104189634D01*
X128706125Y-104140810D01*
X128659042Y-104088519D01*
X128649151Y-104071387D01*
X128640435Y-104060767D01*
X128608202Y-104000462D01*
X128570088Y-103934447D01*
X128565701Y-103920948D01*
X128561854Y-103913749D01*
X128540643Y-103843826D01*
X128515111Y-103765247D01*
X128514212Y-103756694D01*
X128513460Y-103754215D01*
X128506128Y-103679781D01*
X128496515Y-103588314D01*
X128506127Y-103496854D01*
X128513460Y-103422412D01*
X128514212Y-103419932D01*
X128515111Y-103411381D01*
X128540638Y-103332816D01*
X128561854Y-103262878D01*
X128565702Y-103255677D01*
X128570088Y-103242181D01*
X128608195Y-103176177D01*
X128640435Y-103115860D01*
X128649153Y-103105237D01*
X128659042Y-103088109D01*
X128706116Y-103035827D01*
X128746194Y-102986993D01*
X128761106Y-102974754D01*
X128778085Y-102955898D01*
X128830377Y-102917905D01*
X128875061Y-102881234D01*
X128896963Y-102869527D01*
X128922015Y-102851326D01*
X128975906Y-102827332D01*
X129022079Y-102802653D01*
X129051132Y-102793839D01*
X129084542Y-102778965D01*
X129136752Y-102767867D01*
X129181613Y-102754259D01*
X129217321Y-102750741D01*
X129258561Y-102741976D01*
X129306316Y-102741976D01*
X129347515Y-102737918D01*
X129388714Y-102741976D01*
G37*
G36*
X145447092Y-102303228D02*
G01*
X145494847Y-102303228D01*
X145536087Y-102311993D01*
X145571794Y-102315511D01*
X145616652Y-102329118D01*
X145668866Y-102340217D01*
X145702277Y-102355092D01*
X145731328Y-102363905D01*
X145777495Y-102388581D01*
X145831393Y-102412578D01*
X145856447Y-102430781D01*
X145878346Y-102442486D01*
X145923021Y-102479150D01*
X145975323Y-102517150D01*
X145992304Y-102536009D01*
X146007213Y-102548245D01*
X146047280Y-102597067D01*
X146094366Y-102649361D01*
X146104257Y-102666493D01*
X146112972Y-102677112D01*
X146145199Y-102737406D01*
X146183320Y-102803433D01*
X146187706Y-102816934D01*
X146191553Y-102824130D01*
X146212754Y-102894021D01*
X146238297Y-102972633D01*
X146239196Y-102981189D01*
X146239947Y-102983664D01*
X146247264Y-103057955D01*
X146256893Y-103149566D01*
X146247263Y-103241185D01*
X146239947Y-103315467D01*
X146239196Y-103317941D01*
X146238297Y-103326499D01*
X146212749Y-103405124D01*
X146191553Y-103475001D01*
X146187707Y-103482195D01*
X146183320Y-103495699D01*
X146145192Y-103561738D01*
X146112972Y-103622019D01*
X146104259Y-103632635D01*
X146094366Y-103649771D01*
X146047271Y-103702075D01*
X146007213Y-103750886D01*
X145992307Y-103763118D01*
X145975323Y-103781982D01*
X145923011Y-103819989D01*
X145878346Y-103856645D01*
X145856452Y-103868346D01*
X145831393Y-103886554D01*
X145777484Y-103910555D01*
X145731328Y-103935226D01*
X145702284Y-103944036D01*
X145668866Y-103958915D01*
X145616641Y-103970015D01*
X145571794Y-103983620D01*
X145536096Y-103987136D01*
X145494847Y-103995904D01*
X145447081Y-103995904D01*
X145405893Y-103999961D01*
X145364704Y-103995904D01*
X145316939Y-103995904D01*
X145275690Y-103987136D01*
X145239991Y-103983620D01*
X145195141Y-103970014D01*
X145142920Y-103958915D01*
X145109503Y-103944037D01*
X145080457Y-103935226D01*
X145034295Y-103910552D01*
X144980393Y-103886554D01*
X144955336Y-103868349D01*
X144933439Y-103856645D01*
X144888766Y-103819982D01*
X144836463Y-103781982D01*
X144819481Y-103763121D01*
X144804572Y-103750886D01*
X144764503Y-103702062D01*
X144717420Y-103649771D01*
X144707529Y-103632639D01*
X144698813Y-103622019D01*
X144666580Y-103561714D01*
X144628466Y-103495699D01*
X144624079Y-103482200D01*
X144620232Y-103475001D01*
X144599021Y-103405078D01*
X144573489Y-103326499D01*
X144572590Y-103317946D01*
X144571838Y-103315467D01*
X144564506Y-103241033D01*
X144554893Y-103149566D01*
X144564505Y-103058106D01*
X144571838Y-102983664D01*
X144572590Y-102981184D01*
X144573489Y-102972633D01*
X144599016Y-102894068D01*
X144620232Y-102824130D01*
X144624080Y-102816929D01*
X144628466Y-102803433D01*
X144666573Y-102737429D01*
X144698813Y-102677112D01*
X144707531Y-102666489D01*
X144717420Y-102649361D01*
X144764494Y-102597079D01*
X144804572Y-102548245D01*
X144819484Y-102536006D01*
X144836463Y-102517150D01*
X144888755Y-102479157D01*
X144933439Y-102442486D01*
X144955341Y-102430779D01*
X144980393Y-102412578D01*
X145034284Y-102388584D01*
X145080457Y-102363905D01*
X145109510Y-102355091D01*
X145142920Y-102340217D01*
X145195130Y-102329119D01*
X145239991Y-102315511D01*
X145275699Y-102311993D01*
X145316939Y-102303228D01*
X145364694Y-102303228D01*
X145405893Y-102299170D01*
X145447092Y-102303228D01*
G37*
G36*
X128519983Y-100355157D02*
G01*
X128567738Y-100355157D01*
X128608978Y-100363922D01*
X128644685Y-100367440D01*
X128689543Y-100381047D01*
X128741757Y-100392146D01*
X128775168Y-100407021D01*
X128804219Y-100415834D01*
X128850386Y-100440510D01*
X128904284Y-100464507D01*
X128929338Y-100482710D01*
X128951237Y-100494415D01*
X128995912Y-100531079D01*
X129048214Y-100569079D01*
X129065195Y-100587938D01*
X129080104Y-100600174D01*
X129120171Y-100648996D01*
X129167257Y-100701290D01*
X129177148Y-100718422D01*
X129185863Y-100729041D01*
X129218090Y-100789335D01*
X129256211Y-100855362D01*
X129260597Y-100868863D01*
X129264444Y-100876059D01*
X129285645Y-100945950D01*
X129311188Y-101024562D01*
X129312087Y-101033118D01*
X129312838Y-101035593D01*
X129320155Y-101109884D01*
X129329784Y-101201495D01*
X129320154Y-101293114D01*
X129312838Y-101367396D01*
X129312087Y-101369870D01*
X129311188Y-101378428D01*
X129285640Y-101457053D01*
X129264444Y-101526930D01*
X129260598Y-101534124D01*
X129256211Y-101547628D01*
X129218083Y-101613667D01*
X129185863Y-101673948D01*
X129177150Y-101684564D01*
X129167257Y-101701700D01*
X129120162Y-101754004D01*
X129080104Y-101802815D01*
X129065198Y-101815047D01*
X129048214Y-101833911D01*
X128995902Y-101871918D01*
X128951237Y-101908574D01*
X128929343Y-101920275D01*
X128904284Y-101938483D01*
X128850375Y-101962484D01*
X128804219Y-101987155D01*
X128775175Y-101995965D01*
X128741757Y-102010844D01*
X128689532Y-102021944D01*
X128644685Y-102035549D01*
X128608987Y-102039065D01*
X128567738Y-102047833D01*
X128519972Y-102047833D01*
X128478784Y-102051890D01*
X128437595Y-102047833D01*
X128389830Y-102047833D01*
X128348581Y-102039065D01*
X128312882Y-102035549D01*
X128268032Y-102021943D01*
X128215811Y-102010844D01*
X128182394Y-101995966D01*
X128153348Y-101987155D01*
X128107186Y-101962481D01*
X128053284Y-101938483D01*
X128028227Y-101920278D01*
X128006330Y-101908574D01*
X127961657Y-101871911D01*
X127909354Y-101833911D01*
X127892372Y-101815050D01*
X127877463Y-101802815D01*
X127837394Y-101753991D01*
X127790311Y-101701700D01*
X127780420Y-101684568D01*
X127771704Y-101673948D01*
X127739471Y-101613643D01*
X127701357Y-101547628D01*
X127696970Y-101534129D01*
X127693123Y-101526930D01*
X127671912Y-101457007D01*
X127646380Y-101378428D01*
X127645481Y-101369875D01*
X127644729Y-101367396D01*
X127637397Y-101292962D01*
X127627784Y-101201495D01*
X127637396Y-101110035D01*
X127644729Y-101035593D01*
X127645481Y-101033113D01*
X127646380Y-101024562D01*
X127671907Y-100945997D01*
X127693123Y-100876059D01*
X127696971Y-100868858D01*
X127701357Y-100855362D01*
X127739464Y-100789358D01*
X127771704Y-100729041D01*
X127780422Y-100718418D01*
X127790311Y-100701290D01*
X127837385Y-100649008D01*
X127877463Y-100600174D01*
X127892375Y-100587935D01*
X127909354Y-100569079D01*
X127961646Y-100531086D01*
X128006330Y-100494415D01*
X128028232Y-100482708D01*
X128053284Y-100464507D01*
X128107175Y-100440513D01*
X128153348Y-100415834D01*
X128182401Y-100407020D01*
X128215811Y-100392146D01*
X128268021Y-100381048D01*
X128312882Y-100367440D01*
X128348590Y-100363922D01*
X128389830Y-100355157D01*
X128437585Y-100355157D01*
X128478784Y-100351099D01*
X128519983Y-100355157D01*
G37*
G36*
X144578360Y-99916408D02*
G01*
X144626115Y-99916408D01*
X144667355Y-99925173D01*
X144703062Y-99928691D01*
X144747920Y-99942298D01*
X144800134Y-99953397D01*
X144833545Y-99968272D01*
X144862596Y-99977085D01*
X144908763Y-100001761D01*
X144962661Y-100025758D01*
X144987715Y-100043961D01*
X145009614Y-100055666D01*
X145054289Y-100092330D01*
X145106591Y-100130330D01*
X145123572Y-100149189D01*
X145138481Y-100161425D01*
X145178548Y-100210247D01*
X145225634Y-100262541D01*
X145235525Y-100279673D01*
X145244240Y-100290292D01*
X145276467Y-100350586D01*
X145314588Y-100416613D01*
X145318974Y-100430114D01*
X145322821Y-100437310D01*
X145344022Y-100507201D01*
X145369565Y-100585813D01*
X145370464Y-100594369D01*
X145371215Y-100596844D01*
X145378532Y-100671135D01*
X145388161Y-100762746D01*
X145378531Y-100854365D01*
X145371215Y-100928647D01*
X145370464Y-100931121D01*
X145369565Y-100939679D01*
X145344017Y-101018304D01*
X145322821Y-101088181D01*
X145318975Y-101095375D01*
X145314588Y-101108879D01*
X145276460Y-101174918D01*
X145244240Y-101235199D01*
X145235527Y-101245815D01*
X145225634Y-101262951D01*
X145178539Y-101315255D01*
X145138481Y-101364066D01*
X145123575Y-101376298D01*
X145106591Y-101395162D01*
X145054279Y-101433169D01*
X145009614Y-101469825D01*
X144987720Y-101481526D01*
X144962661Y-101499734D01*
X144908752Y-101523735D01*
X144862596Y-101548406D01*
X144833552Y-101557216D01*
X144800134Y-101572095D01*
X144747909Y-101583195D01*
X144703062Y-101596800D01*
X144667364Y-101600316D01*
X144626115Y-101609084D01*
X144578349Y-101609084D01*
X144537161Y-101613141D01*
X144495972Y-101609084D01*
X144448207Y-101609084D01*
X144406958Y-101600316D01*
X144371259Y-101596800D01*
X144326409Y-101583194D01*
X144274188Y-101572095D01*
X144240771Y-101557217D01*
X144211725Y-101548406D01*
X144165563Y-101523732D01*
X144111661Y-101499734D01*
X144086604Y-101481529D01*
X144064707Y-101469825D01*
X144020034Y-101433162D01*
X143967731Y-101395162D01*
X143950749Y-101376301D01*
X143935840Y-101364066D01*
X143895771Y-101315242D01*
X143848688Y-101262951D01*
X143838797Y-101245819D01*
X143830081Y-101235199D01*
X143797848Y-101174894D01*
X143759734Y-101108879D01*
X143755347Y-101095380D01*
X143751500Y-101088181D01*
X143730289Y-101018258D01*
X143704757Y-100939679D01*
X143703858Y-100931126D01*
X143703106Y-100928647D01*
X143695774Y-100854213D01*
X143686161Y-100762746D01*
X143695773Y-100671286D01*
X143703106Y-100596844D01*
X143703858Y-100594364D01*
X143704757Y-100585813D01*
X143730284Y-100507248D01*
X143751500Y-100437310D01*
X143755348Y-100430109D01*
X143759734Y-100416613D01*
X143797841Y-100350609D01*
X143830081Y-100290292D01*
X143838799Y-100279669D01*
X143848688Y-100262541D01*
X143895762Y-100210259D01*
X143935840Y-100161425D01*
X143950752Y-100149186D01*
X143967731Y-100130330D01*
X144020023Y-100092337D01*
X144064707Y-100055666D01*
X144086609Y-100043959D01*
X144111661Y-100025758D01*
X144165552Y-100001764D01*
X144211725Y-99977085D01*
X144240778Y-99968271D01*
X144274188Y-99953397D01*
X144326398Y-99942299D01*
X144371259Y-99928691D01*
X144406967Y-99925173D01*
X144448207Y-99916408D01*
X144495962Y-99916408D01*
X144537161Y-99912350D01*
X144578360Y-99916408D01*
G37*
G36*
X127651251Y-97968338D02*
G01*
X127699006Y-97968338D01*
X127740246Y-97977103D01*
X127775953Y-97980621D01*
X127820811Y-97994228D01*
X127873025Y-98005327D01*
X127906436Y-98020202D01*
X127935487Y-98029015D01*
X127981654Y-98053691D01*
X128035552Y-98077688D01*
X128060606Y-98095891D01*
X128082505Y-98107596D01*
X128127180Y-98144260D01*
X128179482Y-98182260D01*
X128196463Y-98201119D01*
X128211372Y-98213355D01*
X128251439Y-98262177D01*
X128298525Y-98314471D01*
X128308416Y-98331603D01*
X128317131Y-98342222D01*
X128349358Y-98402516D01*
X128387479Y-98468543D01*
X128391865Y-98482044D01*
X128395712Y-98489240D01*
X128416913Y-98559131D01*
X128442456Y-98637743D01*
X128443355Y-98646299D01*
X128444106Y-98648774D01*
X128451423Y-98723065D01*
X128461052Y-98814676D01*
X128451422Y-98906295D01*
X128444106Y-98980577D01*
X128443355Y-98983051D01*
X128442456Y-98991609D01*
X128416908Y-99070234D01*
X128395712Y-99140111D01*
X128391866Y-99147305D01*
X128387479Y-99160809D01*
X128349351Y-99226848D01*
X128317131Y-99287129D01*
X128308418Y-99297745D01*
X128298525Y-99314881D01*
X128251430Y-99367185D01*
X128211372Y-99415996D01*
X128196466Y-99428228D01*
X128179482Y-99447092D01*
X128127170Y-99485099D01*
X128082505Y-99521755D01*
X128060611Y-99533456D01*
X128035552Y-99551664D01*
X127981643Y-99575665D01*
X127935487Y-99600336D01*
X127906443Y-99609146D01*
X127873025Y-99624025D01*
X127820800Y-99635125D01*
X127775953Y-99648730D01*
X127740255Y-99652246D01*
X127699006Y-99661014D01*
X127651240Y-99661014D01*
X127610052Y-99665071D01*
X127568863Y-99661014D01*
X127521098Y-99661014D01*
X127479849Y-99652246D01*
X127444150Y-99648730D01*
X127399300Y-99635124D01*
X127347079Y-99624025D01*
X127313662Y-99609147D01*
X127284616Y-99600336D01*
X127238454Y-99575662D01*
X127184552Y-99551664D01*
X127159495Y-99533459D01*
X127137598Y-99521755D01*
X127092925Y-99485092D01*
X127040622Y-99447092D01*
X127023640Y-99428231D01*
X127008731Y-99415996D01*
X126968662Y-99367172D01*
X126921579Y-99314881D01*
X126911688Y-99297749D01*
X126902972Y-99287129D01*
X126870739Y-99226824D01*
X126832625Y-99160809D01*
X126828238Y-99147310D01*
X126824391Y-99140111D01*
X126803180Y-99070188D01*
X126777648Y-98991609D01*
X126776749Y-98983056D01*
X126775997Y-98980577D01*
X126768665Y-98906143D01*
X126759052Y-98814676D01*
X126768664Y-98723216D01*
X126775997Y-98648774D01*
X126776749Y-98646294D01*
X126777648Y-98637743D01*
X126803175Y-98559178D01*
X126824391Y-98489240D01*
X126828239Y-98482039D01*
X126832625Y-98468543D01*
X126870732Y-98402539D01*
X126902972Y-98342222D01*
X126911690Y-98331599D01*
X126921579Y-98314471D01*
X126968653Y-98262189D01*
X127008731Y-98213355D01*
X127023643Y-98201116D01*
X127040622Y-98182260D01*
X127092914Y-98144267D01*
X127137598Y-98107596D01*
X127159500Y-98095889D01*
X127184552Y-98077688D01*
X127238443Y-98053694D01*
X127284616Y-98029015D01*
X127313669Y-98020201D01*
X127347079Y-98005327D01*
X127399289Y-97994229D01*
X127444150Y-97980621D01*
X127479858Y-97977103D01*
X127521098Y-97968338D01*
X127568853Y-97968338D01*
X127610052Y-97964280D01*
X127651251Y-97968338D01*
G37*
G36*
X143709629Y-97529589D02*
G01*
X143757384Y-97529589D01*
X143798624Y-97538354D01*
X143834331Y-97541872D01*
X143879189Y-97555479D01*
X143931403Y-97566578D01*
X143964814Y-97581453D01*
X143993865Y-97590266D01*
X144040032Y-97614942D01*
X144093930Y-97638939D01*
X144118984Y-97657142D01*
X144140883Y-97668847D01*
X144185558Y-97705511D01*
X144237860Y-97743511D01*
X144254841Y-97762370D01*
X144269750Y-97774606D01*
X144309817Y-97823428D01*
X144356903Y-97875722D01*
X144366794Y-97892854D01*
X144375509Y-97903473D01*
X144407736Y-97963767D01*
X144445857Y-98029794D01*
X144450243Y-98043295D01*
X144454090Y-98050491D01*
X144475291Y-98120382D01*
X144500834Y-98198994D01*
X144501733Y-98207550D01*
X144502484Y-98210025D01*
X144509801Y-98284316D01*
X144519430Y-98375927D01*
X144509800Y-98467546D01*
X144502484Y-98541828D01*
X144501733Y-98544302D01*
X144500834Y-98552860D01*
X144475286Y-98631485D01*
X144454090Y-98701362D01*
X144450244Y-98708556D01*
X144445857Y-98722060D01*
X144407729Y-98788099D01*
X144375509Y-98848380D01*
X144366796Y-98858996D01*
X144356903Y-98876132D01*
X144309808Y-98928436D01*
X144269750Y-98977247D01*
X144254844Y-98989479D01*
X144237860Y-99008343D01*
X144185548Y-99046350D01*
X144140883Y-99083006D01*
X144118989Y-99094707D01*
X144093930Y-99112915D01*
X144040021Y-99136916D01*
X143993865Y-99161587D01*
X143964821Y-99170397D01*
X143931403Y-99185276D01*
X143879178Y-99196376D01*
X143834331Y-99209981D01*
X143798633Y-99213497D01*
X143757384Y-99222265D01*
X143709618Y-99222265D01*
X143668430Y-99226322D01*
X143627241Y-99222265D01*
X143579476Y-99222265D01*
X143538227Y-99213497D01*
X143502528Y-99209981D01*
X143457678Y-99196375D01*
X143405457Y-99185276D01*
X143372040Y-99170398D01*
X143342994Y-99161587D01*
X143296832Y-99136913D01*
X143242930Y-99112915D01*
X143217873Y-99094710D01*
X143195976Y-99083006D01*
X143151303Y-99046343D01*
X143099000Y-99008343D01*
X143082018Y-98989482D01*
X143067109Y-98977247D01*
X143027040Y-98928423D01*
X142979957Y-98876132D01*
X142970066Y-98859000D01*
X142961350Y-98848380D01*
X142929117Y-98788075D01*
X142891003Y-98722060D01*
X142886616Y-98708561D01*
X142882769Y-98701362D01*
X142861558Y-98631439D01*
X142836026Y-98552860D01*
X142835127Y-98544307D01*
X142834375Y-98541828D01*
X142827043Y-98467394D01*
X142817430Y-98375927D01*
X142827042Y-98284467D01*
X142834375Y-98210025D01*
X142835127Y-98207545D01*
X142836026Y-98198994D01*
X142861553Y-98120429D01*
X142882769Y-98050491D01*
X142886617Y-98043290D01*
X142891003Y-98029794D01*
X142929110Y-97963790D01*
X142961350Y-97903473D01*
X142970068Y-97892850D01*
X142979957Y-97875722D01*
X143027031Y-97823440D01*
X143067109Y-97774606D01*
X143082021Y-97762367D01*
X143099000Y-97743511D01*
X143151292Y-97705518D01*
X143195976Y-97668847D01*
X143217878Y-97657140D01*
X143242930Y-97638939D01*
X143296821Y-97614945D01*
X143342994Y-97590266D01*
X143372047Y-97581452D01*
X143405457Y-97566578D01*
X143457667Y-97555480D01*
X143502528Y-97541872D01*
X143538236Y-97538354D01*
X143579476Y-97529589D01*
X143627231Y-97529589D01*
X143668430Y-97525531D01*
X143709629Y-97529589D01*
G37*
G36*
X126782520Y-95581518D02*
G01*
X126830275Y-95581518D01*
X126871515Y-95590283D01*
X126907222Y-95593801D01*
X126952080Y-95607408D01*
X127004294Y-95618507D01*
X127037705Y-95633382D01*
X127066756Y-95642195D01*
X127112923Y-95666871D01*
X127166821Y-95690868D01*
X127191875Y-95709071D01*
X127213774Y-95720776D01*
X127258449Y-95757440D01*
X127310751Y-95795440D01*
X127327732Y-95814299D01*
X127342641Y-95826535D01*
X127382708Y-95875357D01*
X127429794Y-95927651D01*
X127439685Y-95944783D01*
X127448400Y-95955402D01*
X127480627Y-96015696D01*
X127518748Y-96081723D01*
X127523134Y-96095224D01*
X127526981Y-96102420D01*
X127548182Y-96172311D01*
X127573725Y-96250923D01*
X127574624Y-96259479D01*
X127575375Y-96261954D01*
X127582692Y-96336245D01*
X127592321Y-96427856D01*
X127582691Y-96519475D01*
X127575375Y-96593757D01*
X127574624Y-96596231D01*
X127573725Y-96604789D01*
X127548177Y-96683414D01*
X127526981Y-96753291D01*
X127523135Y-96760485D01*
X127518748Y-96773989D01*
X127480620Y-96840028D01*
X127448400Y-96900309D01*
X127439687Y-96910925D01*
X127429794Y-96928061D01*
X127382699Y-96980365D01*
X127342641Y-97029176D01*
X127327735Y-97041408D01*
X127310751Y-97060272D01*
X127258439Y-97098279D01*
X127213774Y-97134935D01*
X127191880Y-97146636D01*
X127166821Y-97164844D01*
X127112912Y-97188845D01*
X127066756Y-97213516D01*
X127037712Y-97222326D01*
X127004294Y-97237205D01*
X126952069Y-97248305D01*
X126907222Y-97261910D01*
X126871524Y-97265426D01*
X126830275Y-97274194D01*
X126782509Y-97274194D01*
X126741321Y-97278251D01*
X126700132Y-97274194D01*
X126652367Y-97274194D01*
X126611118Y-97265426D01*
X126575419Y-97261910D01*
X126530569Y-97248304D01*
X126478348Y-97237205D01*
X126444931Y-97222327D01*
X126415885Y-97213516D01*
X126369723Y-97188842D01*
X126315821Y-97164844D01*
X126290764Y-97146639D01*
X126268867Y-97134935D01*
X126224194Y-97098272D01*
X126171891Y-97060272D01*
X126154909Y-97041411D01*
X126140000Y-97029176D01*
X126099931Y-96980352D01*
X126052848Y-96928061D01*
X126042957Y-96910929D01*
X126034241Y-96900309D01*
X126002008Y-96840004D01*
X125963894Y-96773989D01*
X125959507Y-96760490D01*
X125955660Y-96753291D01*
X125934449Y-96683368D01*
X125908917Y-96604789D01*
X125908018Y-96596236D01*
X125907266Y-96593757D01*
X125899934Y-96519323D01*
X125890321Y-96427856D01*
X125899933Y-96336396D01*
X125907266Y-96261954D01*
X125908018Y-96259474D01*
X125908917Y-96250923D01*
X125934444Y-96172358D01*
X125955660Y-96102420D01*
X125959508Y-96095219D01*
X125963894Y-96081723D01*
X126002001Y-96015719D01*
X126034241Y-95955402D01*
X126042959Y-95944779D01*
X126052848Y-95927651D01*
X126099922Y-95875369D01*
X126140000Y-95826535D01*
X126154912Y-95814296D01*
X126171891Y-95795440D01*
X126224183Y-95757447D01*
X126268867Y-95720776D01*
X126290769Y-95709069D01*
X126315821Y-95690868D01*
X126369712Y-95666874D01*
X126415885Y-95642195D01*
X126444938Y-95633381D01*
X126478348Y-95618507D01*
X126530558Y-95607409D01*
X126575419Y-95593801D01*
X126611127Y-95590283D01*
X126652367Y-95581518D01*
X126700122Y-95581518D01*
X126741321Y-95577460D01*
X126782520Y-95581518D01*
G37*
G36*
X142840898Y-95142770D02*
G01*
X142888653Y-95142770D01*
X142929893Y-95151535D01*
X142965600Y-95155053D01*
X143010458Y-95168660D01*
X143062672Y-95179759D01*
X143096083Y-95194634D01*
X143125134Y-95203447D01*
X143171301Y-95228123D01*
X143225199Y-95252120D01*
X143250253Y-95270323D01*
X143272152Y-95282028D01*
X143316827Y-95318692D01*
X143369129Y-95356692D01*
X143386110Y-95375551D01*
X143401019Y-95387787D01*
X143441086Y-95436609D01*
X143488172Y-95488903D01*
X143498063Y-95506035D01*
X143506778Y-95516654D01*
X143539005Y-95576948D01*
X143577126Y-95642975D01*
X143581512Y-95656476D01*
X143585359Y-95663672D01*
X143606560Y-95733563D01*
X143632103Y-95812175D01*
X143633002Y-95820731D01*
X143633753Y-95823206D01*
X143641070Y-95897497D01*
X143650699Y-95989108D01*
X143641069Y-96080727D01*
X143633753Y-96155009D01*
X143633002Y-96157483D01*
X143632103Y-96166041D01*
X143606555Y-96244666D01*
X143585359Y-96314543D01*
X143581513Y-96321737D01*
X143577126Y-96335241D01*
X143538998Y-96401280D01*
X143506778Y-96461561D01*
X143498065Y-96472177D01*
X143488172Y-96489313D01*
X143441077Y-96541617D01*
X143401019Y-96590428D01*
X143386113Y-96602660D01*
X143369129Y-96621524D01*
X143316817Y-96659531D01*
X143272152Y-96696187D01*
X143250258Y-96707888D01*
X143225199Y-96726096D01*
X143171290Y-96750097D01*
X143125134Y-96774768D01*
X143096090Y-96783578D01*
X143062672Y-96798457D01*
X143010447Y-96809557D01*
X142965600Y-96823162D01*
X142929902Y-96826678D01*
X142888653Y-96835446D01*
X142840887Y-96835446D01*
X142799699Y-96839503D01*
X142758510Y-96835446D01*
X142710745Y-96835446D01*
X142669496Y-96826678D01*
X142633797Y-96823162D01*
X142588947Y-96809556D01*
X142536726Y-96798457D01*
X142503309Y-96783579D01*
X142474263Y-96774768D01*
X142428101Y-96750094D01*
X142374199Y-96726096D01*
X142349142Y-96707891D01*
X142327245Y-96696187D01*
X142282572Y-96659524D01*
X142230269Y-96621524D01*
X142213287Y-96602663D01*
X142198378Y-96590428D01*
X142158309Y-96541604D01*
X142111226Y-96489313D01*
X142101335Y-96472181D01*
X142092619Y-96461561D01*
X142060386Y-96401256D01*
X142022272Y-96335241D01*
X142017885Y-96321742D01*
X142014038Y-96314543D01*
X141992827Y-96244620D01*
X141967295Y-96166041D01*
X141966396Y-96157488D01*
X141965644Y-96155009D01*
X141958312Y-96080575D01*
X141948699Y-95989108D01*
X141958311Y-95897648D01*
X141965644Y-95823206D01*
X141966396Y-95820726D01*
X141967295Y-95812175D01*
X141992822Y-95733610D01*
X142014038Y-95663672D01*
X142017886Y-95656471D01*
X142022272Y-95642975D01*
X142060379Y-95576971D01*
X142092619Y-95516654D01*
X142101337Y-95506031D01*
X142111226Y-95488903D01*
X142158300Y-95436621D01*
X142198378Y-95387787D01*
X142213290Y-95375548D01*
X142230269Y-95356692D01*
X142282561Y-95318699D01*
X142327245Y-95282028D01*
X142349147Y-95270321D01*
X142374199Y-95252120D01*
X142428090Y-95228126D01*
X142474263Y-95203447D01*
X142503316Y-95194633D01*
X142536726Y-95179759D01*
X142588936Y-95168661D01*
X142633797Y-95155053D01*
X142669505Y-95151535D01*
X142710745Y-95142770D01*
X142758500Y-95142770D01*
X142799699Y-95138712D01*
X142840898Y-95142770D01*
G37*
G36*
X125913789Y-93194700D02*
G01*
X125961544Y-93194700D01*
X126002784Y-93203465D01*
X126038491Y-93206983D01*
X126083349Y-93220590D01*
X126135563Y-93231689D01*
X126168974Y-93246564D01*
X126198025Y-93255377D01*
X126244192Y-93280053D01*
X126298090Y-93304050D01*
X126323144Y-93322253D01*
X126345043Y-93333958D01*
X126389718Y-93370622D01*
X126442020Y-93408622D01*
X126459001Y-93427481D01*
X126473910Y-93439717D01*
X126513977Y-93488539D01*
X126561063Y-93540833D01*
X126570954Y-93557965D01*
X126579669Y-93568584D01*
X126611896Y-93628878D01*
X126650017Y-93694905D01*
X126654403Y-93708406D01*
X126658250Y-93715602D01*
X126679451Y-93785493D01*
X126704994Y-93864105D01*
X126705893Y-93872661D01*
X126706644Y-93875136D01*
X126713961Y-93949427D01*
X126723590Y-94041038D01*
X126713960Y-94132657D01*
X126706644Y-94206939D01*
X126705893Y-94209413D01*
X126704994Y-94217971D01*
X126679446Y-94296596D01*
X126658250Y-94366473D01*
X126654404Y-94373667D01*
X126650017Y-94387171D01*
X126611889Y-94453210D01*
X126579669Y-94513491D01*
X126570956Y-94524107D01*
X126561063Y-94541243D01*
X126513968Y-94593547D01*
X126473910Y-94642358D01*
X126459004Y-94654590D01*
X126442020Y-94673454D01*
X126389708Y-94711461D01*
X126345043Y-94748117D01*
X126323149Y-94759818D01*
X126298090Y-94778026D01*
X126244181Y-94802027D01*
X126198025Y-94826698D01*
X126168981Y-94835508D01*
X126135563Y-94850387D01*
X126083338Y-94861487D01*
X126038491Y-94875092D01*
X126002793Y-94878608D01*
X125961544Y-94887376D01*
X125913778Y-94887376D01*
X125872590Y-94891433D01*
X125831401Y-94887376D01*
X125783636Y-94887376D01*
X125742387Y-94878608D01*
X125706688Y-94875092D01*
X125661838Y-94861486D01*
X125609617Y-94850387D01*
X125576200Y-94835509D01*
X125547154Y-94826698D01*
X125500992Y-94802024D01*
X125447090Y-94778026D01*
X125422033Y-94759821D01*
X125400136Y-94748117D01*
X125355463Y-94711454D01*
X125303160Y-94673454D01*
X125286178Y-94654593D01*
X125271269Y-94642358D01*
X125231200Y-94593534D01*
X125184117Y-94541243D01*
X125174226Y-94524111D01*
X125165510Y-94513491D01*
X125133277Y-94453186D01*
X125095163Y-94387171D01*
X125090776Y-94373672D01*
X125086929Y-94366473D01*
X125065718Y-94296550D01*
X125040186Y-94217971D01*
X125039287Y-94209418D01*
X125038535Y-94206939D01*
X125031203Y-94132505D01*
X125021590Y-94041038D01*
X125031202Y-93949578D01*
X125038535Y-93875136D01*
X125039287Y-93872656D01*
X125040186Y-93864105D01*
X125065713Y-93785540D01*
X125086929Y-93715602D01*
X125090777Y-93708401D01*
X125095163Y-93694905D01*
X125133270Y-93628901D01*
X125165510Y-93568584D01*
X125174228Y-93557961D01*
X125184117Y-93540833D01*
X125231191Y-93488551D01*
X125271269Y-93439717D01*
X125286181Y-93427478D01*
X125303160Y-93408622D01*
X125355452Y-93370629D01*
X125400136Y-93333958D01*
X125422038Y-93322251D01*
X125447090Y-93304050D01*
X125500981Y-93280056D01*
X125547154Y-93255377D01*
X125576207Y-93246563D01*
X125609617Y-93231689D01*
X125661827Y-93220591D01*
X125706688Y-93206983D01*
X125742396Y-93203465D01*
X125783636Y-93194700D01*
X125831391Y-93194700D01*
X125872590Y-93190642D01*
X125913789Y-93194700D01*
G37*
G36*
X141972167Y-92755951D02*
G01*
X142019922Y-92755951D01*
X142061162Y-92764716D01*
X142096869Y-92768234D01*
X142141727Y-92781841D01*
X142193941Y-92792940D01*
X142227352Y-92807815D01*
X142256403Y-92816628D01*
X142302570Y-92841304D01*
X142356468Y-92865301D01*
X142381522Y-92883504D01*
X142403421Y-92895209D01*
X142448096Y-92931873D01*
X142500398Y-92969873D01*
X142517379Y-92988732D01*
X142532288Y-93000968D01*
X142572355Y-93049790D01*
X142619441Y-93102084D01*
X142629332Y-93119216D01*
X142638047Y-93129835D01*
X142670274Y-93190129D01*
X142708395Y-93256156D01*
X142712781Y-93269657D01*
X142716628Y-93276853D01*
X142737829Y-93346744D01*
X142763372Y-93425356D01*
X142764271Y-93433912D01*
X142765022Y-93436387D01*
X142772339Y-93510678D01*
X142781968Y-93602289D01*
X142772338Y-93693908D01*
X142765022Y-93768190D01*
X142764271Y-93770664D01*
X142763372Y-93779222D01*
X142737824Y-93857847D01*
X142716628Y-93927724D01*
X142712782Y-93934918D01*
X142708395Y-93948422D01*
X142670267Y-94014461D01*
X142638047Y-94074742D01*
X142629334Y-94085358D01*
X142619441Y-94102494D01*
X142572346Y-94154798D01*
X142532288Y-94203609D01*
X142517382Y-94215841D01*
X142500398Y-94234705D01*
X142448086Y-94272712D01*
X142403421Y-94309368D01*
X142381527Y-94321069D01*
X142356468Y-94339277D01*
X142302559Y-94363278D01*
X142256403Y-94387949D01*
X142227359Y-94396759D01*
X142193941Y-94411638D01*
X142141716Y-94422738D01*
X142096869Y-94436343D01*
X142061171Y-94439859D01*
X142019922Y-94448627D01*
X141972156Y-94448627D01*
X141930968Y-94452684D01*
X141889779Y-94448627D01*
X141842014Y-94448627D01*
X141800765Y-94439859D01*
X141765066Y-94436343D01*
X141720216Y-94422737D01*
X141667995Y-94411638D01*
X141634578Y-94396760D01*
X141605532Y-94387949D01*
X141559370Y-94363275D01*
X141505468Y-94339277D01*
X141480411Y-94321072D01*
X141458514Y-94309368D01*
X141413841Y-94272705D01*
X141361538Y-94234705D01*
X141344556Y-94215844D01*
X141329647Y-94203609D01*
X141289578Y-94154785D01*
X141242495Y-94102494D01*
X141232604Y-94085362D01*
X141223888Y-94074742D01*
X141191655Y-94014437D01*
X141153541Y-93948422D01*
X141149154Y-93934923D01*
X141145307Y-93927724D01*
X141124096Y-93857801D01*
X141098564Y-93779222D01*
X141097665Y-93770669D01*
X141096913Y-93768190D01*
X141089581Y-93693756D01*
X141079968Y-93602289D01*
X141089580Y-93510829D01*
X141096913Y-93436387D01*
X141097665Y-93433907D01*
X141098564Y-93425356D01*
X141124091Y-93346791D01*
X141145307Y-93276853D01*
X141149155Y-93269652D01*
X141153541Y-93256156D01*
X141191648Y-93190152D01*
X141223888Y-93129835D01*
X141232606Y-93119212D01*
X141242495Y-93102084D01*
X141289569Y-93049802D01*
X141329647Y-93000968D01*
X141344559Y-92988729D01*
X141361538Y-92969873D01*
X141413830Y-92931880D01*
X141458514Y-92895209D01*
X141480416Y-92883502D01*
X141505468Y-92865301D01*
X141559359Y-92841307D01*
X141605532Y-92816628D01*
X141634585Y-92807814D01*
X141667995Y-92792940D01*
X141720205Y-92781842D01*
X141765066Y-92768234D01*
X141800774Y-92764716D01*
X141842014Y-92755951D01*
X141889769Y-92755951D01*
X141930968Y-92751893D01*
X141972167Y-92755951D01*
G37*
G36*
X125045058Y-90807880D02*
G01*
X125092813Y-90807880D01*
X125134053Y-90816645D01*
X125169760Y-90820163D01*
X125214618Y-90833770D01*
X125266832Y-90844869D01*
X125300243Y-90859744D01*
X125329294Y-90868557D01*
X125375461Y-90893233D01*
X125429359Y-90917230D01*
X125454413Y-90935433D01*
X125476312Y-90947138D01*
X125520987Y-90983802D01*
X125573289Y-91021802D01*
X125590270Y-91040661D01*
X125605179Y-91052897D01*
X125645246Y-91101719D01*
X125692332Y-91154013D01*
X125702223Y-91171145D01*
X125710938Y-91181764D01*
X125743165Y-91242058D01*
X125781286Y-91308085D01*
X125785672Y-91321586D01*
X125789519Y-91328782D01*
X125810720Y-91398673D01*
X125836263Y-91477285D01*
X125837162Y-91485841D01*
X125837913Y-91488316D01*
X125845230Y-91562607D01*
X125854859Y-91654218D01*
X125845229Y-91745837D01*
X125837913Y-91820119D01*
X125837162Y-91822593D01*
X125836263Y-91831151D01*
X125810715Y-91909776D01*
X125789519Y-91979653D01*
X125785673Y-91986847D01*
X125781286Y-92000351D01*
X125743158Y-92066390D01*
X125710938Y-92126671D01*
X125702225Y-92137287D01*
X125692332Y-92154423D01*
X125645237Y-92206727D01*
X125605179Y-92255538D01*
X125590273Y-92267770D01*
X125573289Y-92286634D01*
X125520977Y-92324641D01*
X125476312Y-92361297D01*
X125454418Y-92372998D01*
X125429359Y-92391206D01*
X125375450Y-92415207D01*
X125329294Y-92439878D01*
X125300250Y-92448688D01*
X125266832Y-92463567D01*
X125214607Y-92474667D01*
X125169760Y-92488272D01*
X125134062Y-92491788D01*
X125092813Y-92500556D01*
X125045047Y-92500556D01*
X125003859Y-92504613D01*
X124962670Y-92500556D01*
X124914905Y-92500556D01*
X124873656Y-92491788D01*
X124837957Y-92488272D01*
X124793107Y-92474666D01*
X124740886Y-92463567D01*
X124707469Y-92448689D01*
X124678423Y-92439878D01*
X124632261Y-92415204D01*
X124578359Y-92391206D01*
X124553302Y-92373001D01*
X124531405Y-92361297D01*
X124486732Y-92324634D01*
X124434429Y-92286634D01*
X124417447Y-92267773D01*
X124402538Y-92255538D01*
X124362469Y-92206714D01*
X124315386Y-92154423D01*
X124305495Y-92137291D01*
X124296779Y-92126671D01*
X124264546Y-92066366D01*
X124226432Y-92000351D01*
X124222045Y-91986852D01*
X124218198Y-91979653D01*
X124196987Y-91909730D01*
X124171455Y-91831151D01*
X124170556Y-91822598D01*
X124169804Y-91820119D01*
X124162472Y-91745685D01*
X124152859Y-91654218D01*
X124162471Y-91562758D01*
X124169804Y-91488316D01*
X124170556Y-91485836D01*
X124171455Y-91477285D01*
X124196982Y-91398720D01*
X124218198Y-91328782D01*
X124222046Y-91321581D01*
X124226432Y-91308085D01*
X124264539Y-91242081D01*
X124296779Y-91181764D01*
X124305497Y-91171141D01*
X124315386Y-91154013D01*
X124362460Y-91101731D01*
X124402538Y-91052897D01*
X124417450Y-91040658D01*
X124434429Y-91021802D01*
X124486721Y-90983809D01*
X124531405Y-90947138D01*
X124553307Y-90935431D01*
X124578359Y-90917230D01*
X124632250Y-90893236D01*
X124678423Y-90868557D01*
X124707476Y-90859743D01*
X124740886Y-90844869D01*
X124793096Y-90833771D01*
X124837957Y-90820163D01*
X124873665Y-90816645D01*
X124914905Y-90807880D01*
X124962660Y-90807880D01*
X125003859Y-90803822D01*
X125045058Y-90807880D01*
G37*
G36*
X141103435Y-90369131D02*
G01*
X141151190Y-90369131D01*
X141192430Y-90377896D01*
X141228137Y-90381414D01*
X141272995Y-90395021D01*
X141325209Y-90406120D01*
X141358620Y-90420995D01*
X141387671Y-90429808D01*
X141433838Y-90454484D01*
X141487736Y-90478481D01*
X141512790Y-90496684D01*
X141534689Y-90508389D01*
X141579364Y-90545053D01*
X141631666Y-90583053D01*
X141648647Y-90601912D01*
X141663556Y-90614148D01*
X141703623Y-90662970D01*
X141750709Y-90715264D01*
X141760600Y-90732396D01*
X141769315Y-90743015D01*
X141801542Y-90803309D01*
X141839663Y-90869336D01*
X141844049Y-90882837D01*
X141847896Y-90890033D01*
X141869097Y-90959924D01*
X141894640Y-91038536D01*
X141895539Y-91047092D01*
X141896290Y-91049567D01*
X141903607Y-91123858D01*
X141913236Y-91215469D01*
X141903606Y-91307088D01*
X141896290Y-91381370D01*
X141895539Y-91383844D01*
X141894640Y-91392402D01*
X141869092Y-91471027D01*
X141847896Y-91540904D01*
X141844050Y-91548098D01*
X141839663Y-91561602D01*
X141801535Y-91627641D01*
X141769315Y-91687922D01*
X141760602Y-91698538D01*
X141750709Y-91715674D01*
X141703614Y-91767978D01*
X141663556Y-91816789D01*
X141648650Y-91829021D01*
X141631666Y-91847885D01*
X141579354Y-91885892D01*
X141534689Y-91922548D01*
X141512795Y-91934249D01*
X141487736Y-91952457D01*
X141433827Y-91976458D01*
X141387671Y-92001129D01*
X141358627Y-92009939D01*
X141325209Y-92024818D01*
X141272984Y-92035918D01*
X141228137Y-92049523D01*
X141192439Y-92053039D01*
X141151190Y-92061807D01*
X141103424Y-92061807D01*
X141062236Y-92065864D01*
X141021047Y-92061807D01*
X140973282Y-92061807D01*
X140932033Y-92053039D01*
X140896334Y-92049523D01*
X140851484Y-92035917D01*
X140799263Y-92024818D01*
X140765846Y-92009940D01*
X140736800Y-92001129D01*
X140690638Y-91976455D01*
X140636736Y-91952457D01*
X140611679Y-91934252D01*
X140589782Y-91922548D01*
X140545109Y-91885885D01*
X140492806Y-91847885D01*
X140475824Y-91829024D01*
X140460915Y-91816789D01*
X140420846Y-91767965D01*
X140373763Y-91715674D01*
X140363872Y-91698542D01*
X140355156Y-91687922D01*
X140322923Y-91627617D01*
X140284809Y-91561602D01*
X140280422Y-91548103D01*
X140276575Y-91540904D01*
X140255364Y-91470981D01*
X140229832Y-91392402D01*
X140228933Y-91383849D01*
X140228181Y-91381370D01*
X140220849Y-91306936D01*
X140211236Y-91215469D01*
X140220848Y-91124009D01*
X140228181Y-91049567D01*
X140228933Y-91047087D01*
X140229832Y-91038536D01*
X140255359Y-90959971D01*
X140276575Y-90890033D01*
X140280423Y-90882832D01*
X140284809Y-90869336D01*
X140322916Y-90803332D01*
X140355156Y-90743015D01*
X140363874Y-90732392D01*
X140373763Y-90715264D01*
X140420837Y-90662982D01*
X140460915Y-90614148D01*
X140475827Y-90601909D01*
X140492806Y-90583053D01*
X140545098Y-90545060D01*
X140589782Y-90508389D01*
X140611684Y-90496682D01*
X140636736Y-90478481D01*
X140690627Y-90454487D01*
X140736800Y-90429808D01*
X140765853Y-90420994D01*
X140799263Y-90406120D01*
X140851473Y-90395022D01*
X140896334Y-90381414D01*
X140932042Y-90377896D01*
X140973282Y-90369131D01*
X141021037Y-90369131D01*
X141062236Y-90365073D01*
X141103435Y-90369131D01*
G37*
G36*
X124176327Y-88421061D02*
G01*
X124224082Y-88421061D01*
X124265322Y-88429826D01*
X124301029Y-88433344D01*
X124345887Y-88446951D01*
X124398101Y-88458050D01*
X124431512Y-88472925D01*
X124460563Y-88481738D01*
X124506730Y-88506414D01*
X124560628Y-88530411D01*
X124585682Y-88548614D01*
X124607581Y-88560319D01*
X124652256Y-88596983D01*
X124704558Y-88634983D01*
X124721539Y-88653842D01*
X124736448Y-88666078D01*
X124776515Y-88714900D01*
X124823601Y-88767194D01*
X124833492Y-88784326D01*
X124842207Y-88794945D01*
X124874434Y-88855239D01*
X124912555Y-88921266D01*
X124916941Y-88934767D01*
X124920788Y-88941963D01*
X124941989Y-89011854D01*
X124967532Y-89090466D01*
X124968431Y-89099022D01*
X124969182Y-89101497D01*
X124976499Y-89175788D01*
X124986128Y-89267399D01*
X124976498Y-89359018D01*
X124969182Y-89433300D01*
X124968431Y-89435774D01*
X124967532Y-89444332D01*
X124941984Y-89522957D01*
X124920788Y-89592834D01*
X124916942Y-89600028D01*
X124912555Y-89613532D01*
X124874427Y-89679571D01*
X124842207Y-89739852D01*
X124833494Y-89750468D01*
X124823601Y-89767604D01*
X124776506Y-89819908D01*
X124736448Y-89868719D01*
X124721542Y-89880951D01*
X124704558Y-89899815D01*
X124652246Y-89937822D01*
X124607581Y-89974478D01*
X124585687Y-89986179D01*
X124560628Y-90004387D01*
X124506719Y-90028388D01*
X124460563Y-90053059D01*
X124431519Y-90061869D01*
X124398101Y-90076748D01*
X124345876Y-90087848D01*
X124301029Y-90101453D01*
X124265331Y-90104969D01*
X124224082Y-90113737D01*
X124176316Y-90113737D01*
X124135128Y-90117794D01*
X124093939Y-90113737D01*
X124046174Y-90113737D01*
X124004925Y-90104969D01*
X123969226Y-90101453D01*
X123924376Y-90087847D01*
X123872155Y-90076748D01*
X123838738Y-90061870D01*
X123809692Y-90053059D01*
X123763530Y-90028385D01*
X123709628Y-90004387D01*
X123684571Y-89986182D01*
X123662674Y-89974478D01*
X123618001Y-89937815D01*
X123565698Y-89899815D01*
X123548716Y-89880954D01*
X123533807Y-89868719D01*
X123493738Y-89819895D01*
X123446655Y-89767604D01*
X123436764Y-89750472D01*
X123428048Y-89739852D01*
X123395815Y-89679547D01*
X123357701Y-89613532D01*
X123353314Y-89600033D01*
X123349467Y-89592834D01*
X123328256Y-89522911D01*
X123302724Y-89444332D01*
X123301825Y-89435779D01*
X123301073Y-89433300D01*
X123293741Y-89358866D01*
X123284128Y-89267399D01*
X123293740Y-89175939D01*
X123301073Y-89101497D01*
X123301825Y-89099017D01*
X123302724Y-89090466D01*
X123328251Y-89011901D01*
X123349467Y-88941963D01*
X123353315Y-88934762D01*
X123357701Y-88921266D01*
X123395808Y-88855262D01*
X123428048Y-88794945D01*
X123436766Y-88784322D01*
X123446655Y-88767194D01*
X123493729Y-88714912D01*
X123533807Y-88666078D01*
X123548719Y-88653839D01*
X123565698Y-88634983D01*
X123617990Y-88596990D01*
X123662674Y-88560319D01*
X123684576Y-88548612D01*
X123709628Y-88530411D01*
X123763519Y-88506417D01*
X123809692Y-88481738D01*
X123838745Y-88472924D01*
X123872155Y-88458050D01*
X123924365Y-88446952D01*
X123969226Y-88433344D01*
X124004934Y-88429826D01*
X124046174Y-88421061D01*
X124093929Y-88421061D01*
X124135128Y-88417003D01*
X124176327Y-88421061D01*
G37*
G36*
X140234703Y-87982312D02*
G01*
X140282458Y-87982312D01*
X140323698Y-87991077D01*
X140359405Y-87994595D01*
X140404263Y-88008202D01*
X140456477Y-88019301D01*
X140489888Y-88034176D01*
X140518939Y-88042989D01*
X140565106Y-88067665D01*
X140619004Y-88091662D01*
X140644058Y-88109865D01*
X140665957Y-88121570D01*
X140710632Y-88158234D01*
X140762934Y-88196234D01*
X140779915Y-88215093D01*
X140794824Y-88227329D01*
X140834891Y-88276151D01*
X140881977Y-88328445D01*
X140891868Y-88345577D01*
X140900583Y-88356196D01*
X140932810Y-88416490D01*
X140970931Y-88482517D01*
X140975317Y-88496018D01*
X140979164Y-88503214D01*
X141000365Y-88573105D01*
X141025908Y-88651717D01*
X141026807Y-88660273D01*
X141027558Y-88662748D01*
X141034875Y-88737039D01*
X141044504Y-88828650D01*
X141034874Y-88920269D01*
X141027558Y-88994551D01*
X141026807Y-88997025D01*
X141025908Y-89005583D01*
X141000360Y-89084208D01*
X140979164Y-89154085D01*
X140975318Y-89161279D01*
X140970931Y-89174783D01*
X140932803Y-89240822D01*
X140900583Y-89301103D01*
X140891870Y-89311719D01*
X140881977Y-89328855D01*
X140834882Y-89381159D01*
X140794824Y-89429970D01*
X140779918Y-89442202D01*
X140762934Y-89461066D01*
X140710622Y-89499073D01*
X140665957Y-89535729D01*
X140644063Y-89547430D01*
X140619004Y-89565638D01*
X140565095Y-89589639D01*
X140518939Y-89614310D01*
X140489895Y-89623120D01*
X140456477Y-89637999D01*
X140404252Y-89649099D01*
X140359405Y-89662704D01*
X140323707Y-89666220D01*
X140282458Y-89674988D01*
X140234692Y-89674988D01*
X140193504Y-89679045D01*
X140152315Y-89674988D01*
X140104550Y-89674988D01*
X140063301Y-89666220D01*
X140027602Y-89662704D01*
X139982752Y-89649098D01*
X139930531Y-89637999D01*
X139897114Y-89623121D01*
X139868068Y-89614310D01*
X139821906Y-89589636D01*
X139768004Y-89565638D01*
X139742947Y-89547433D01*
X139721050Y-89535729D01*
X139676377Y-89499066D01*
X139624074Y-89461066D01*
X139607092Y-89442205D01*
X139592183Y-89429970D01*
X139552114Y-89381146D01*
X139505031Y-89328855D01*
X139495140Y-89311723D01*
X139486424Y-89301103D01*
X139454191Y-89240798D01*
X139416077Y-89174783D01*
X139411690Y-89161284D01*
X139407843Y-89154085D01*
X139386632Y-89084162D01*
X139361100Y-89005583D01*
X139360201Y-88997030D01*
X139359449Y-88994551D01*
X139352117Y-88920117D01*
X139342504Y-88828650D01*
X139352116Y-88737190D01*
X139359449Y-88662748D01*
X139360201Y-88660268D01*
X139361100Y-88651717D01*
X139386627Y-88573152D01*
X139407843Y-88503214D01*
X139411691Y-88496013D01*
X139416077Y-88482517D01*
X139454184Y-88416513D01*
X139486424Y-88356196D01*
X139495142Y-88345573D01*
X139505031Y-88328445D01*
X139552105Y-88276163D01*
X139592183Y-88227329D01*
X139607095Y-88215090D01*
X139624074Y-88196234D01*
X139676366Y-88158241D01*
X139721050Y-88121570D01*
X139742952Y-88109863D01*
X139768004Y-88091662D01*
X139821895Y-88067668D01*
X139868068Y-88042989D01*
X139897121Y-88034175D01*
X139930531Y-88019301D01*
X139982741Y-88008203D01*
X140027602Y-87994595D01*
X140063310Y-87991077D01*
X140104550Y-87982312D01*
X140152305Y-87982312D01*
X140193504Y-87978254D01*
X140234703Y-87982312D01*
G37*
G36*
X123307597Y-86034241D02*
G01*
X123355352Y-86034241D01*
X123396592Y-86043006D01*
X123432299Y-86046524D01*
X123477157Y-86060131D01*
X123529371Y-86071230D01*
X123562782Y-86086105D01*
X123591833Y-86094918D01*
X123638000Y-86119594D01*
X123691898Y-86143591D01*
X123716952Y-86161794D01*
X123738851Y-86173499D01*
X123783526Y-86210163D01*
X123835828Y-86248163D01*
X123852809Y-86267022D01*
X123867718Y-86279258D01*
X123907785Y-86328080D01*
X123954871Y-86380374D01*
X123964762Y-86397506D01*
X123973477Y-86408125D01*
X124005704Y-86468419D01*
X124043825Y-86534446D01*
X124048211Y-86547947D01*
X124052058Y-86555143D01*
X124073259Y-86625034D01*
X124098802Y-86703646D01*
X124099701Y-86712202D01*
X124100452Y-86714677D01*
X124107769Y-86788968D01*
X124117398Y-86880579D01*
X124107768Y-86972198D01*
X124100452Y-87046480D01*
X124099701Y-87048954D01*
X124098802Y-87057512D01*
X124073254Y-87136137D01*
X124052058Y-87206014D01*
X124048212Y-87213208D01*
X124043825Y-87226712D01*
X124005697Y-87292751D01*
X123973477Y-87353032D01*
X123964764Y-87363648D01*
X123954871Y-87380784D01*
X123907776Y-87433088D01*
X123867718Y-87481899D01*
X123852812Y-87494131D01*
X123835828Y-87512995D01*
X123783516Y-87551002D01*
X123738851Y-87587658D01*
X123716957Y-87599359D01*
X123691898Y-87617567D01*
X123637989Y-87641568D01*
X123591833Y-87666239D01*
X123562789Y-87675049D01*
X123529371Y-87689928D01*
X123477146Y-87701028D01*
X123432299Y-87714633D01*
X123396601Y-87718149D01*
X123355352Y-87726917D01*
X123307586Y-87726917D01*
X123266398Y-87730974D01*
X123225209Y-87726917D01*
X123177444Y-87726917D01*
X123136195Y-87718149D01*
X123100496Y-87714633D01*
X123055646Y-87701027D01*
X123003425Y-87689928D01*
X122970008Y-87675050D01*
X122940962Y-87666239D01*
X122894800Y-87641565D01*
X122840898Y-87617567D01*
X122815841Y-87599362D01*
X122793944Y-87587658D01*
X122749271Y-87550995D01*
X122696968Y-87512995D01*
X122679986Y-87494134D01*
X122665077Y-87481899D01*
X122625008Y-87433075D01*
X122577925Y-87380784D01*
X122568034Y-87363652D01*
X122559318Y-87353032D01*
X122527085Y-87292727D01*
X122488971Y-87226712D01*
X122484584Y-87213213D01*
X122480737Y-87206014D01*
X122459526Y-87136091D01*
X122433994Y-87057512D01*
X122433095Y-87048959D01*
X122432343Y-87046480D01*
X122425011Y-86972046D01*
X122415398Y-86880579D01*
X122425010Y-86789119D01*
X122432343Y-86714677D01*
X122433095Y-86712197D01*
X122433994Y-86703646D01*
X122459521Y-86625081D01*
X122480737Y-86555143D01*
X122484585Y-86547942D01*
X122488971Y-86534446D01*
X122527078Y-86468442D01*
X122559318Y-86408125D01*
X122568036Y-86397502D01*
X122577925Y-86380374D01*
X122624999Y-86328092D01*
X122665077Y-86279258D01*
X122679989Y-86267019D01*
X122696968Y-86248163D01*
X122749260Y-86210170D01*
X122793944Y-86173499D01*
X122815846Y-86161792D01*
X122840898Y-86143591D01*
X122894789Y-86119597D01*
X122940962Y-86094918D01*
X122970015Y-86086104D01*
X123003425Y-86071230D01*
X123055635Y-86060132D01*
X123100496Y-86046524D01*
X123136204Y-86043006D01*
X123177444Y-86034241D01*
X123225199Y-86034241D01*
X123266398Y-86030183D01*
X123307597Y-86034241D01*
G37*
G36*
X139365974Y-85595493D02*
G01*
X139413729Y-85595493D01*
X139454969Y-85604258D01*
X139490676Y-85607776D01*
X139535534Y-85621383D01*
X139587748Y-85632482D01*
X139621159Y-85647357D01*
X139650210Y-85656170D01*
X139696377Y-85680846D01*
X139750275Y-85704843D01*
X139775329Y-85723046D01*
X139797228Y-85734751D01*
X139841903Y-85771415D01*
X139894205Y-85809415D01*
X139911186Y-85828274D01*
X139926095Y-85840510D01*
X139966162Y-85889332D01*
X140013248Y-85941626D01*
X140023139Y-85958758D01*
X140031854Y-85969377D01*
X140064081Y-86029671D01*
X140102202Y-86095698D01*
X140106588Y-86109199D01*
X140110435Y-86116395D01*
X140131636Y-86186286D01*
X140157179Y-86264898D01*
X140158078Y-86273454D01*
X140158829Y-86275929D01*
X140166146Y-86350220D01*
X140175775Y-86441831D01*
X140166145Y-86533450D01*
X140158829Y-86607732D01*
X140158078Y-86610206D01*
X140157179Y-86618764D01*
X140131631Y-86697389D01*
X140110435Y-86767266D01*
X140106589Y-86774460D01*
X140102202Y-86787964D01*
X140064074Y-86854003D01*
X140031854Y-86914284D01*
X140023141Y-86924900D01*
X140013248Y-86942036D01*
X139966153Y-86994340D01*
X139926095Y-87043151D01*
X139911189Y-87055383D01*
X139894205Y-87074247D01*
X139841893Y-87112254D01*
X139797228Y-87148910D01*
X139775334Y-87160611D01*
X139750275Y-87178819D01*
X139696366Y-87202820D01*
X139650210Y-87227491D01*
X139621166Y-87236301D01*
X139587748Y-87251180D01*
X139535523Y-87262280D01*
X139490676Y-87275885D01*
X139454978Y-87279401D01*
X139413729Y-87288169D01*
X139365963Y-87288169D01*
X139324775Y-87292226D01*
X139283586Y-87288169D01*
X139235821Y-87288169D01*
X139194572Y-87279401D01*
X139158873Y-87275885D01*
X139114023Y-87262279D01*
X139061802Y-87251180D01*
X139028385Y-87236302D01*
X138999339Y-87227491D01*
X138953177Y-87202817D01*
X138899275Y-87178819D01*
X138874218Y-87160614D01*
X138852321Y-87148910D01*
X138807648Y-87112247D01*
X138755345Y-87074247D01*
X138738363Y-87055386D01*
X138723454Y-87043151D01*
X138683385Y-86994327D01*
X138636302Y-86942036D01*
X138626411Y-86924904D01*
X138617695Y-86914284D01*
X138585462Y-86853979D01*
X138547348Y-86787964D01*
X138542961Y-86774465D01*
X138539114Y-86767266D01*
X138517903Y-86697343D01*
X138492371Y-86618764D01*
X138491472Y-86610211D01*
X138490720Y-86607732D01*
X138483388Y-86533298D01*
X138473775Y-86441831D01*
X138483387Y-86350371D01*
X138490720Y-86275929D01*
X138491472Y-86273449D01*
X138492371Y-86264898D01*
X138517898Y-86186333D01*
X138539114Y-86116395D01*
X138542962Y-86109194D01*
X138547348Y-86095698D01*
X138585455Y-86029694D01*
X138617695Y-85969377D01*
X138626413Y-85958754D01*
X138636302Y-85941626D01*
X138683376Y-85889344D01*
X138723454Y-85840510D01*
X138738366Y-85828271D01*
X138755345Y-85809415D01*
X138807637Y-85771422D01*
X138852321Y-85734751D01*
X138874223Y-85723044D01*
X138899275Y-85704843D01*
X138953166Y-85680849D01*
X138999339Y-85656170D01*
X139028392Y-85647356D01*
X139061802Y-85632482D01*
X139114012Y-85621384D01*
X139158873Y-85607776D01*
X139194581Y-85604258D01*
X139235821Y-85595493D01*
X139283576Y-85595493D01*
X139324775Y-85591435D01*
X139365974Y-85595493D01*
G37*
G36*
X122438864Y-83647423D02*
G01*
X122486619Y-83647423D01*
X122527859Y-83656188D01*
X122563566Y-83659706D01*
X122608424Y-83673313D01*
X122660638Y-83684412D01*
X122694049Y-83699287D01*
X122723100Y-83708100D01*
X122769267Y-83732776D01*
X122823165Y-83756773D01*
X122848219Y-83774976D01*
X122870118Y-83786681D01*
X122914793Y-83823345D01*
X122967095Y-83861345D01*
X122984076Y-83880204D01*
X122998985Y-83892440D01*
X123039052Y-83941262D01*
X123086138Y-83993556D01*
X123096029Y-84010688D01*
X123104744Y-84021307D01*
X123136971Y-84081601D01*
X123175092Y-84147628D01*
X123179478Y-84161129D01*
X123183325Y-84168325D01*
X123204526Y-84238216D01*
X123230069Y-84316828D01*
X123230968Y-84325384D01*
X123231719Y-84327859D01*
X123239036Y-84402150D01*
X123248665Y-84493761D01*
X123239035Y-84585380D01*
X123231719Y-84659662D01*
X123230968Y-84662136D01*
X123230069Y-84670694D01*
X123204521Y-84749319D01*
X123183325Y-84819196D01*
X123179479Y-84826390D01*
X123175092Y-84839894D01*
X123136964Y-84905933D01*
X123104744Y-84966214D01*
X123096031Y-84976830D01*
X123086138Y-84993966D01*
X123039043Y-85046270D01*
X122998985Y-85095081D01*
X122984079Y-85107313D01*
X122967095Y-85126177D01*
X122914783Y-85164184D01*
X122870118Y-85200840D01*
X122848224Y-85212541D01*
X122823165Y-85230749D01*
X122769256Y-85254750D01*
X122723100Y-85279421D01*
X122694056Y-85288231D01*
X122660638Y-85303110D01*
X122608413Y-85314210D01*
X122563566Y-85327815D01*
X122527868Y-85331331D01*
X122486619Y-85340099D01*
X122438853Y-85340099D01*
X122397665Y-85344156D01*
X122356476Y-85340099D01*
X122308711Y-85340099D01*
X122267462Y-85331331D01*
X122231763Y-85327815D01*
X122186913Y-85314209D01*
X122134692Y-85303110D01*
X122101275Y-85288232D01*
X122072229Y-85279421D01*
X122026067Y-85254747D01*
X121972165Y-85230749D01*
X121947108Y-85212544D01*
X121925211Y-85200840D01*
X121880538Y-85164177D01*
X121828235Y-85126177D01*
X121811253Y-85107316D01*
X121796344Y-85095081D01*
X121756275Y-85046257D01*
X121709192Y-84993966D01*
X121699301Y-84976834D01*
X121690585Y-84966214D01*
X121658352Y-84905909D01*
X121620238Y-84839894D01*
X121615851Y-84826395D01*
X121612004Y-84819196D01*
X121590793Y-84749273D01*
X121565261Y-84670694D01*
X121564362Y-84662141D01*
X121563610Y-84659662D01*
X121556278Y-84585228D01*
X121546665Y-84493761D01*
X121556277Y-84402301D01*
X121563610Y-84327859D01*
X121564362Y-84325379D01*
X121565261Y-84316828D01*
X121590788Y-84238263D01*
X121612004Y-84168325D01*
X121615852Y-84161124D01*
X121620238Y-84147628D01*
X121658345Y-84081624D01*
X121690585Y-84021307D01*
X121699303Y-84010684D01*
X121709192Y-83993556D01*
X121756266Y-83941274D01*
X121796344Y-83892440D01*
X121811256Y-83880201D01*
X121828235Y-83861345D01*
X121880527Y-83823352D01*
X121925211Y-83786681D01*
X121947113Y-83774974D01*
X121972165Y-83756773D01*
X122026056Y-83732779D01*
X122072229Y-83708100D01*
X122101282Y-83699286D01*
X122134692Y-83684412D01*
X122186902Y-83673314D01*
X122231763Y-83659706D01*
X122267471Y-83656188D01*
X122308711Y-83647423D01*
X122356466Y-83647423D01*
X122397665Y-83643365D01*
X122438864Y-83647423D01*
G37*
G36*
X138497242Y-83208674D02*
G01*
X138544997Y-83208674D01*
X138586237Y-83217439D01*
X138621944Y-83220957D01*
X138666802Y-83234564D01*
X138719016Y-83245663D01*
X138752427Y-83260538D01*
X138781478Y-83269351D01*
X138827645Y-83294027D01*
X138881543Y-83318024D01*
X138906597Y-83336227D01*
X138928496Y-83347932D01*
X138973171Y-83384596D01*
X139025473Y-83422596D01*
X139042454Y-83441455D01*
X139057363Y-83453691D01*
X139097430Y-83502513D01*
X139144516Y-83554807D01*
X139154407Y-83571939D01*
X139163122Y-83582558D01*
X139195349Y-83642852D01*
X139233470Y-83708879D01*
X139237856Y-83722380D01*
X139241703Y-83729576D01*
X139262904Y-83799467D01*
X139288447Y-83878079D01*
X139289346Y-83886635D01*
X139290097Y-83889110D01*
X139297414Y-83963401D01*
X139307043Y-84055012D01*
X139297413Y-84146631D01*
X139290097Y-84220913D01*
X139289346Y-84223387D01*
X139288447Y-84231945D01*
X139262899Y-84310570D01*
X139241703Y-84380447D01*
X139237857Y-84387641D01*
X139233470Y-84401145D01*
X139195342Y-84467184D01*
X139163122Y-84527465D01*
X139154409Y-84538081D01*
X139144516Y-84555217D01*
X139097421Y-84607521D01*
X139057363Y-84656332D01*
X139042457Y-84668564D01*
X139025473Y-84687428D01*
X138973161Y-84725435D01*
X138928496Y-84762091D01*
X138906602Y-84773792D01*
X138881543Y-84792000D01*
X138827634Y-84816001D01*
X138781478Y-84840672D01*
X138752434Y-84849482D01*
X138719016Y-84864361D01*
X138666791Y-84875461D01*
X138621944Y-84889066D01*
X138586246Y-84892582D01*
X138544997Y-84901350D01*
X138497231Y-84901350D01*
X138456043Y-84905407D01*
X138414854Y-84901350D01*
X138367089Y-84901350D01*
X138325840Y-84892582D01*
X138290141Y-84889066D01*
X138245291Y-84875460D01*
X138193070Y-84864361D01*
X138159653Y-84849483D01*
X138130607Y-84840672D01*
X138084445Y-84815998D01*
X138030543Y-84792000D01*
X138005486Y-84773795D01*
X137983589Y-84762091D01*
X137938916Y-84725428D01*
X137886613Y-84687428D01*
X137869631Y-84668567D01*
X137854722Y-84656332D01*
X137814653Y-84607508D01*
X137767570Y-84555217D01*
X137757679Y-84538085D01*
X137748963Y-84527465D01*
X137716730Y-84467160D01*
X137678616Y-84401145D01*
X137674229Y-84387646D01*
X137670382Y-84380447D01*
X137649171Y-84310524D01*
X137623639Y-84231945D01*
X137622740Y-84223392D01*
X137621988Y-84220913D01*
X137614656Y-84146479D01*
X137605043Y-84055012D01*
X137614655Y-83963552D01*
X137621988Y-83889110D01*
X137622740Y-83886630D01*
X137623639Y-83878079D01*
X137649166Y-83799514D01*
X137670382Y-83729576D01*
X137674230Y-83722375D01*
X137678616Y-83708879D01*
X137716723Y-83642875D01*
X137748963Y-83582558D01*
X137757681Y-83571935D01*
X137767570Y-83554807D01*
X137814644Y-83502525D01*
X137854722Y-83453691D01*
X137869634Y-83441452D01*
X137886613Y-83422596D01*
X137938905Y-83384603D01*
X137983589Y-83347932D01*
X138005491Y-83336225D01*
X138030543Y-83318024D01*
X138084434Y-83294030D01*
X138130607Y-83269351D01*
X138159660Y-83260537D01*
X138193070Y-83245663D01*
X138245280Y-83234565D01*
X138290141Y-83220957D01*
X138325849Y-83217439D01*
X138367089Y-83208674D01*
X138414844Y-83208674D01*
X138456043Y-83204616D01*
X138497242Y-83208674D01*
G37*
G36*
X121570133Y-81260603D02*
G01*
X121617888Y-81260603D01*
X121659128Y-81269368D01*
X121694835Y-81272886D01*
X121739693Y-81286493D01*
X121791907Y-81297592D01*
X121825318Y-81312467D01*
X121854369Y-81321280D01*
X121900536Y-81345956D01*
X121954434Y-81369953D01*
X121979488Y-81388156D01*
X122001387Y-81399861D01*
X122046062Y-81436525D01*
X122098364Y-81474525D01*
X122115345Y-81493384D01*
X122130254Y-81505620D01*
X122170321Y-81554442D01*
X122217407Y-81606736D01*
X122227298Y-81623868D01*
X122236013Y-81634487D01*
X122268240Y-81694781D01*
X122306361Y-81760808D01*
X122310747Y-81774309D01*
X122314594Y-81781505D01*
X122335795Y-81851396D01*
X122361338Y-81930008D01*
X122362237Y-81938564D01*
X122362988Y-81941039D01*
X122370305Y-82015330D01*
X122379934Y-82106941D01*
X122370304Y-82198560D01*
X122362988Y-82272842D01*
X122362237Y-82275316D01*
X122361338Y-82283874D01*
X122335790Y-82362499D01*
X122314594Y-82432376D01*
X122310748Y-82439570D01*
X122306361Y-82453074D01*
X122268233Y-82519113D01*
X122236013Y-82579394D01*
X122227300Y-82590010D01*
X122217407Y-82607146D01*
X122170312Y-82659450D01*
X122130254Y-82708261D01*
X122115348Y-82720493D01*
X122098364Y-82739357D01*
X122046052Y-82777364D01*
X122001387Y-82814020D01*
X121979493Y-82825721D01*
X121954434Y-82843929D01*
X121900525Y-82867930D01*
X121854369Y-82892601D01*
X121825325Y-82901411D01*
X121791907Y-82916290D01*
X121739682Y-82927390D01*
X121694835Y-82940995D01*
X121659137Y-82944511D01*
X121617888Y-82953279D01*
X121570122Y-82953279D01*
X121528934Y-82957336D01*
X121487745Y-82953279D01*
X121439980Y-82953279D01*
X121398731Y-82944511D01*
X121363032Y-82940995D01*
X121318182Y-82927389D01*
X121265961Y-82916290D01*
X121232544Y-82901412D01*
X121203498Y-82892601D01*
X121157336Y-82867927D01*
X121103434Y-82843929D01*
X121078377Y-82825724D01*
X121056480Y-82814020D01*
X121011807Y-82777357D01*
X120959504Y-82739357D01*
X120942522Y-82720496D01*
X120927613Y-82708261D01*
X120887544Y-82659437D01*
X120840461Y-82607146D01*
X120830570Y-82590014D01*
X120821854Y-82579394D01*
X120789621Y-82519089D01*
X120751507Y-82453074D01*
X120747120Y-82439575D01*
X120743273Y-82432376D01*
X120722062Y-82362453D01*
X120696530Y-82283874D01*
X120695631Y-82275321D01*
X120694879Y-82272842D01*
X120687547Y-82198408D01*
X120677934Y-82106941D01*
X120687546Y-82015481D01*
X120694879Y-81941039D01*
X120695631Y-81938559D01*
X120696530Y-81930008D01*
X120722057Y-81851443D01*
X120743273Y-81781505D01*
X120747121Y-81774304D01*
X120751507Y-81760808D01*
X120789614Y-81694804D01*
X120821854Y-81634487D01*
X120830572Y-81623864D01*
X120840461Y-81606736D01*
X120887535Y-81554454D01*
X120927613Y-81505620D01*
X120942525Y-81493381D01*
X120959504Y-81474525D01*
X121011796Y-81436532D01*
X121056480Y-81399861D01*
X121078382Y-81388154D01*
X121103434Y-81369953D01*
X121157325Y-81345959D01*
X121203498Y-81321280D01*
X121232551Y-81312466D01*
X121265961Y-81297592D01*
X121318171Y-81286494D01*
X121363032Y-81272886D01*
X121398740Y-81269368D01*
X121439980Y-81260603D01*
X121487735Y-81260603D01*
X121528934Y-81256545D01*
X121570133Y-81260603D01*
G37*
G36*
X137628511Y-80821854D02*
G01*
X137676266Y-80821854D01*
X137717506Y-80830619D01*
X137753213Y-80834137D01*
X137798071Y-80847744D01*
X137850285Y-80858843D01*
X137883696Y-80873718D01*
X137912747Y-80882531D01*
X137958914Y-80907207D01*
X138012812Y-80931204D01*
X138037866Y-80949407D01*
X138059765Y-80961112D01*
X138104440Y-80997776D01*
X138156742Y-81035776D01*
X138173723Y-81054635D01*
X138188632Y-81066871D01*
X138228699Y-81115693D01*
X138275785Y-81167987D01*
X138285676Y-81185119D01*
X138294391Y-81195738D01*
X138326618Y-81256032D01*
X138364739Y-81322059D01*
X138369125Y-81335560D01*
X138372972Y-81342756D01*
X138394173Y-81412647D01*
X138419716Y-81491259D01*
X138420615Y-81499815D01*
X138421366Y-81502290D01*
X138428683Y-81576581D01*
X138438312Y-81668192D01*
X138428682Y-81759811D01*
X138421366Y-81834093D01*
X138420615Y-81836567D01*
X138419716Y-81845125D01*
X138394168Y-81923750D01*
X138372972Y-81993627D01*
X138369126Y-82000821D01*
X138364739Y-82014325D01*
X138326611Y-82080364D01*
X138294391Y-82140645D01*
X138285678Y-82151261D01*
X138275785Y-82168397D01*
X138228690Y-82220701D01*
X138188632Y-82269512D01*
X138173726Y-82281744D01*
X138156742Y-82300608D01*
X138104430Y-82338615D01*
X138059765Y-82375271D01*
X138037871Y-82386972D01*
X138012812Y-82405180D01*
X137958903Y-82429181D01*
X137912747Y-82453852D01*
X137883703Y-82462662D01*
X137850285Y-82477541D01*
X137798060Y-82488641D01*
X137753213Y-82502246D01*
X137717515Y-82505762D01*
X137676266Y-82514530D01*
X137628500Y-82514530D01*
X137587312Y-82518587D01*
X137546123Y-82514530D01*
X137498358Y-82514530D01*
X137457109Y-82505762D01*
X137421410Y-82502246D01*
X137376560Y-82488640D01*
X137324339Y-82477541D01*
X137290922Y-82462663D01*
X137261876Y-82453852D01*
X137215714Y-82429178D01*
X137161812Y-82405180D01*
X137136755Y-82386975D01*
X137114858Y-82375271D01*
X137070185Y-82338608D01*
X137017882Y-82300608D01*
X137000900Y-82281747D01*
X136985991Y-82269512D01*
X136945922Y-82220688D01*
X136898839Y-82168397D01*
X136888948Y-82151265D01*
X136880232Y-82140645D01*
X136847999Y-82080340D01*
X136809885Y-82014325D01*
X136805498Y-82000826D01*
X136801651Y-81993627D01*
X136780440Y-81923704D01*
X136754908Y-81845125D01*
X136754009Y-81836572D01*
X136753257Y-81834093D01*
X136745925Y-81759659D01*
X136736312Y-81668192D01*
X136745924Y-81576732D01*
X136753257Y-81502290D01*
X136754009Y-81499810D01*
X136754908Y-81491259D01*
X136780435Y-81412694D01*
X136801651Y-81342756D01*
X136805499Y-81335555D01*
X136809885Y-81322059D01*
X136847992Y-81256055D01*
X136880232Y-81195738D01*
X136888950Y-81185115D01*
X136898839Y-81167987D01*
X136945913Y-81115705D01*
X136985991Y-81066871D01*
X137000903Y-81054632D01*
X137017882Y-81035776D01*
X137070174Y-80997783D01*
X137114858Y-80961112D01*
X137136760Y-80949405D01*
X137161812Y-80931204D01*
X137215703Y-80907210D01*
X137261876Y-80882531D01*
X137290929Y-80873717D01*
X137324339Y-80858843D01*
X137376549Y-80847745D01*
X137421410Y-80834137D01*
X137457118Y-80830619D01*
X137498358Y-80821854D01*
X137546113Y-80821854D01*
X137587312Y-80817796D01*
X137628511Y-80821854D01*
G37*
G36*
X120701402Y-78873784D02*
G01*
X120749157Y-78873784D01*
X120790397Y-78882549D01*
X120826104Y-78886067D01*
X120870962Y-78899674D01*
X120923176Y-78910773D01*
X120956587Y-78925648D01*
X120985638Y-78934461D01*
X121031805Y-78959137D01*
X121085703Y-78983134D01*
X121110757Y-79001337D01*
X121132656Y-79013042D01*
X121177331Y-79049706D01*
X121229633Y-79087706D01*
X121246614Y-79106565D01*
X121261523Y-79118801D01*
X121301590Y-79167623D01*
X121348676Y-79219917D01*
X121358567Y-79237049D01*
X121367282Y-79247668D01*
X121399509Y-79307962D01*
X121437630Y-79373989D01*
X121442016Y-79387490D01*
X121445863Y-79394686D01*
X121467064Y-79464577D01*
X121492607Y-79543189D01*
X121493506Y-79551745D01*
X121494257Y-79554220D01*
X121501574Y-79628511D01*
X121511203Y-79720122D01*
X121501573Y-79811741D01*
X121494257Y-79886023D01*
X121493506Y-79888497D01*
X121492607Y-79897055D01*
X121467059Y-79975680D01*
X121445863Y-80045557D01*
X121442017Y-80052751D01*
X121437630Y-80066255D01*
X121399502Y-80132294D01*
X121367282Y-80192575D01*
X121358569Y-80203191D01*
X121348676Y-80220327D01*
X121301581Y-80272631D01*
X121261523Y-80321442D01*
X121246617Y-80333674D01*
X121229633Y-80352538D01*
X121177321Y-80390545D01*
X121132656Y-80427201D01*
X121110762Y-80438902D01*
X121085703Y-80457110D01*
X121031794Y-80481111D01*
X120985638Y-80505782D01*
X120956594Y-80514592D01*
X120923176Y-80529471D01*
X120870951Y-80540571D01*
X120826104Y-80554176D01*
X120790406Y-80557692D01*
X120749157Y-80566460D01*
X120701391Y-80566460D01*
X120660203Y-80570517D01*
X120619014Y-80566460D01*
X120571249Y-80566460D01*
X120530000Y-80557692D01*
X120494301Y-80554176D01*
X120449451Y-80540570D01*
X120397230Y-80529471D01*
X120363813Y-80514593D01*
X120334767Y-80505782D01*
X120288605Y-80481108D01*
X120234703Y-80457110D01*
X120209646Y-80438905D01*
X120187749Y-80427201D01*
X120143076Y-80390538D01*
X120090773Y-80352538D01*
X120073791Y-80333677D01*
X120058882Y-80321442D01*
X120018813Y-80272618D01*
X119971730Y-80220327D01*
X119961839Y-80203195D01*
X119953123Y-80192575D01*
X119920890Y-80132270D01*
X119882776Y-80066255D01*
X119878389Y-80052756D01*
X119874542Y-80045557D01*
X119853331Y-79975634D01*
X119827799Y-79897055D01*
X119826900Y-79888502D01*
X119826148Y-79886023D01*
X119818816Y-79811589D01*
X119809203Y-79720122D01*
X119818815Y-79628662D01*
X119826148Y-79554220D01*
X119826900Y-79551740D01*
X119827799Y-79543189D01*
X119853326Y-79464624D01*
X119874542Y-79394686D01*
X119878390Y-79387485D01*
X119882776Y-79373989D01*
X119920883Y-79307985D01*
X119953123Y-79247668D01*
X119961841Y-79237045D01*
X119971730Y-79219917D01*
X120018804Y-79167635D01*
X120058882Y-79118801D01*
X120073794Y-79106562D01*
X120090773Y-79087706D01*
X120143065Y-79049713D01*
X120187749Y-79013042D01*
X120209651Y-79001335D01*
X120234703Y-78983134D01*
X120288594Y-78959140D01*
X120334767Y-78934461D01*
X120363820Y-78925647D01*
X120397230Y-78910773D01*
X120449440Y-78899675D01*
X120494301Y-78886067D01*
X120530009Y-78882549D01*
X120571249Y-78873784D01*
X120619004Y-78873784D01*
X120660203Y-78869726D01*
X120701402Y-78873784D01*
G37*
G36*
X136759780Y-78435036D02*
G01*
X136807535Y-78435036D01*
X136848775Y-78443801D01*
X136884482Y-78447319D01*
X136929340Y-78460926D01*
X136981554Y-78472025D01*
X137014965Y-78486900D01*
X137044016Y-78495713D01*
X137090183Y-78520389D01*
X137144081Y-78544386D01*
X137169135Y-78562589D01*
X137191034Y-78574294D01*
X137235709Y-78610958D01*
X137288011Y-78648958D01*
X137304992Y-78667817D01*
X137319901Y-78680053D01*
X137359968Y-78728875D01*
X137407054Y-78781169D01*
X137416945Y-78798301D01*
X137425660Y-78808920D01*
X137457887Y-78869214D01*
X137496008Y-78935241D01*
X137500394Y-78948742D01*
X137504241Y-78955938D01*
X137525442Y-79025829D01*
X137550985Y-79104441D01*
X137551884Y-79112997D01*
X137552635Y-79115472D01*
X137559952Y-79189763D01*
X137569581Y-79281374D01*
X137559951Y-79372993D01*
X137552635Y-79447275D01*
X137551884Y-79449749D01*
X137550985Y-79458307D01*
X137525437Y-79536932D01*
X137504241Y-79606809D01*
X137500395Y-79614003D01*
X137496008Y-79627507D01*
X137457880Y-79693546D01*
X137425660Y-79753827D01*
X137416947Y-79764443D01*
X137407054Y-79781579D01*
X137359959Y-79833883D01*
X137319901Y-79882694D01*
X137304995Y-79894926D01*
X137288011Y-79913790D01*
X137235699Y-79951797D01*
X137191034Y-79988453D01*
X137169140Y-80000154D01*
X137144081Y-80018362D01*
X137090172Y-80042363D01*
X137044016Y-80067034D01*
X137014972Y-80075844D01*
X136981554Y-80090723D01*
X136929329Y-80101823D01*
X136884482Y-80115428D01*
X136848784Y-80118944D01*
X136807535Y-80127712D01*
X136759769Y-80127712D01*
X136718581Y-80131769D01*
X136677392Y-80127712D01*
X136629627Y-80127712D01*
X136588378Y-80118944D01*
X136552679Y-80115428D01*
X136507829Y-80101822D01*
X136455608Y-80090723D01*
X136422191Y-80075845D01*
X136393145Y-80067034D01*
X136346983Y-80042360D01*
X136293081Y-80018362D01*
X136268024Y-80000157D01*
X136246127Y-79988453D01*
X136201454Y-79951790D01*
X136149151Y-79913790D01*
X136132169Y-79894929D01*
X136117260Y-79882694D01*
X136077191Y-79833870D01*
X136030108Y-79781579D01*
X136020217Y-79764447D01*
X136011501Y-79753827D01*
X135979268Y-79693522D01*
X135941154Y-79627507D01*
X135936767Y-79614008D01*
X135932920Y-79606809D01*
X135911709Y-79536886D01*
X135886177Y-79458307D01*
X135885278Y-79449754D01*
X135884526Y-79447275D01*
X135877194Y-79372841D01*
X135867581Y-79281374D01*
X135877193Y-79189914D01*
X135884526Y-79115472D01*
X135885278Y-79112992D01*
X135886177Y-79104441D01*
X135911704Y-79025876D01*
X135932920Y-78955938D01*
X135936768Y-78948737D01*
X135941154Y-78935241D01*
X135979261Y-78869237D01*
X136011501Y-78808920D01*
X136020219Y-78798297D01*
X136030108Y-78781169D01*
X136077182Y-78728887D01*
X136117260Y-78680053D01*
X136132172Y-78667814D01*
X136149151Y-78648958D01*
X136201443Y-78610965D01*
X136246127Y-78574294D01*
X136268029Y-78562587D01*
X136293081Y-78544386D01*
X136346972Y-78520392D01*
X136393145Y-78495713D01*
X136422198Y-78486899D01*
X136455608Y-78472025D01*
X136507818Y-78460927D01*
X136552679Y-78447319D01*
X136588387Y-78443801D01*
X136629627Y-78435036D01*
X136677382Y-78435036D01*
X136718581Y-78430978D01*
X136759780Y-78435036D01*
G37*
G36*
X119832671Y-76486964D02*
G01*
X119880426Y-76486964D01*
X119921666Y-76495729D01*
X119957373Y-76499247D01*
X120002231Y-76512854D01*
X120054445Y-76523953D01*
X120087856Y-76538828D01*
X120116907Y-76547641D01*
X120163074Y-76572317D01*
X120216972Y-76596314D01*
X120242026Y-76614517D01*
X120263925Y-76626222D01*
X120308600Y-76662886D01*
X120360902Y-76700886D01*
X120377883Y-76719745D01*
X120392792Y-76731981D01*
X120432859Y-76780803D01*
X120479945Y-76833097D01*
X120489836Y-76850229D01*
X120498551Y-76860848D01*
X120530778Y-76921142D01*
X120568899Y-76987169D01*
X120573285Y-77000670D01*
X120577132Y-77007866D01*
X120598333Y-77077757D01*
X120623876Y-77156369D01*
X120624775Y-77164925D01*
X120625526Y-77167400D01*
X120632843Y-77241691D01*
X120642472Y-77333302D01*
X120632842Y-77424921D01*
X120625526Y-77499203D01*
X120624775Y-77501677D01*
X120623876Y-77510235D01*
X120598328Y-77588860D01*
X120577132Y-77658737D01*
X120573286Y-77665931D01*
X120568899Y-77679435D01*
X120530771Y-77745474D01*
X120498551Y-77805755D01*
X120489838Y-77816371D01*
X120479945Y-77833507D01*
X120432850Y-77885811D01*
X120392792Y-77934622D01*
X120377886Y-77946854D01*
X120360902Y-77965718D01*
X120308590Y-78003725D01*
X120263925Y-78040381D01*
X120242031Y-78052082D01*
X120216972Y-78070290D01*
X120163063Y-78094291D01*
X120116907Y-78118962D01*
X120087863Y-78127772D01*
X120054445Y-78142651D01*
X120002220Y-78153751D01*
X119957373Y-78167356D01*
X119921675Y-78170872D01*
X119880426Y-78179640D01*
X119832660Y-78179640D01*
X119791472Y-78183697D01*
X119750283Y-78179640D01*
X119702518Y-78179640D01*
X119661269Y-78170872D01*
X119625570Y-78167356D01*
X119580720Y-78153750D01*
X119528499Y-78142651D01*
X119495082Y-78127773D01*
X119466036Y-78118962D01*
X119419874Y-78094288D01*
X119365972Y-78070290D01*
X119340915Y-78052085D01*
X119319018Y-78040381D01*
X119274345Y-78003718D01*
X119222042Y-77965718D01*
X119205060Y-77946857D01*
X119190151Y-77934622D01*
X119150082Y-77885798D01*
X119102999Y-77833507D01*
X119093108Y-77816375D01*
X119084392Y-77805755D01*
X119052159Y-77745450D01*
X119014045Y-77679435D01*
X119009658Y-77665936D01*
X119005811Y-77658737D01*
X118984600Y-77588814D01*
X118959068Y-77510235D01*
X118958169Y-77501682D01*
X118957417Y-77499203D01*
X118950085Y-77424769D01*
X118940472Y-77333302D01*
X118950084Y-77241842D01*
X118957417Y-77167400D01*
X118958169Y-77164920D01*
X118959068Y-77156369D01*
X118984595Y-77077804D01*
X119005811Y-77007866D01*
X119009659Y-77000665D01*
X119014045Y-76987169D01*
X119052152Y-76921165D01*
X119084392Y-76860848D01*
X119093110Y-76850225D01*
X119102999Y-76833097D01*
X119150073Y-76780815D01*
X119190151Y-76731981D01*
X119205063Y-76719742D01*
X119222042Y-76700886D01*
X119274334Y-76662893D01*
X119319018Y-76626222D01*
X119340920Y-76614515D01*
X119365972Y-76596314D01*
X119419863Y-76572320D01*
X119466036Y-76547641D01*
X119495089Y-76538827D01*
X119528499Y-76523953D01*
X119580709Y-76512855D01*
X119625570Y-76499247D01*
X119661278Y-76495729D01*
X119702518Y-76486964D01*
X119750273Y-76486964D01*
X119791472Y-76482906D01*
X119832671Y-76486964D01*
G37*
G36*
X135891049Y-76048216D02*
G01*
X135938804Y-76048216D01*
X135980044Y-76056981D01*
X136015751Y-76060499D01*
X136060609Y-76074106D01*
X136112823Y-76085205D01*
X136146234Y-76100080D01*
X136175285Y-76108893D01*
X136221452Y-76133569D01*
X136275350Y-76157566D01*
X136300404Y-76175769D01*
X136322303Y-76187474D01*
X136366978Y-76224138D01*
X136419280Y-76262138D01*
X136436261Y-76280997D01*
X136451170Y-76293233D01*
X136491237Y-76342055D01*
X136538323Y-76394349D01*
X136548214Y-76411481D01*
X136556929Y-76422100D01*
X136589156Y-76482394D01*
X136627277Y-76548421D01*
X136631663Y-76561922D01*
X136635510Y-76569118D01*
X136656711Y-76639009D01*
X136682254Y-76717621D01*
X136683153Y-76726177D01*
X136683904Y-76728652D01*
X136691221Y-76802943D01*
X136700850Y-76894554D01*
X136691220Y-76986173D01*
X136683904Y-77060455D01*
X136683153Y-77062929D01*
X136682254Y-77071487D01*
X136656706Y-77150112D01*
X136635510Y-77219989D01*
X136631664Y-77227183D01*
X136627277Y-77240687D01*
X136589149Y-77306726D01*
X136556929Y-77367007D01*
X136548216Y-77377623D01*
X136538323Y-77394759D01*
X136491228Y-77447063D01*
X136451170Y-77495874D01*
X136436264Y-77508106D01*
X136419280Y-77526970D01*
X136366968Y-77564977D01*
X136322303Y-77601633D01*
X136300409Y-77613334D01*
X136275350Y-77631542D01*
X136221441Y-77655543D01*
X136175285Y-77680214D01*
X136146241Y-77689024D01*
X136112823Y-77703903D01*
X136060598Y-77715003D01*
X136015751Y-77728608D01*
X135980053Y-77732124D01*
X135938804Y-77740892D01*
X135891038Y-77740892D01*
X135849850Y-77744949D01*
X135808661Y-77740892D01*
X135760896Y-77740892D01*
X135719647Y-77732124D01*
X135683948Y-77728608D01*
X135639098Y-77715002D01*
X135586877Y-77703903D01*
X135553460Y-77689025D01*
X135524414Y-77680214D01*
X135478252Y-77655540D01*
X135424350Y-77631542D01*
X135399293Y-77613337D01*
X135377396Y-77601633D01*
X135332723Y-77564970D01*
X135280420Y-77526970D01*
X135263438Y-77508109D01*
X135248529Y-77495874D01*
X135208460Y-77447050D01*
X135161377Y-77394759D01*
X135151486Y-77377627D01*
X135142770Y-77367007D01*
X135110537Y-77306702D01*
X135072423Y-77240687D01*
X135068036Y-77227188D01*
X135064189Y-77219989D01*
X135042978Y-77150066D01*
X135017446Y-77071487D01*
X135016547Y-77062934D01*
X135015795Y-77060455D01*
X135008463Y-76986021D01*
X134998850Y-76894554D01*
X135008462Y-76803094D01*
X135015795Y-76728652D01*
X135016547Y-76726172D01*
X135017446Y-76717621D01*
X135042973Y-76639056D01*
X135064189Y-76569118D01*
X135068037Y-76561917D01*
X135072423Y-76548421D01*
X135110530Y-76482417D01*
X135142770Y-76422100D01*
X135151488Y-76411477D01*
X135161377Y-76394349D01*
X135208451Y-76342067D01*
X135248529Y-76293233D01*
X135263441Y-76280994D01*
X135280420Y-76262138D01*
X135332712Y-76224145D01*
X135377396Y-76187474D01*
X135399298Y-76175767D01*
X135424350Y-76157566D01*
X135478241Y-76133572D01*
X135524414Y-76108893D01*
X135553467Y-76100079D01*
X135586877Y-76085205D01*
X135639087Y-76074107D01*
X135683948Y-76060499D01*
X135719656Y-76056981D01*
X135760896Y-76048216D01*
X135808651Y-76048216D01*
X135849850Y-76044158D01*
X135891049Y-76048216D01*
G37*
G36*
X118963940Y-74100146D02*
G01*
X119011695Y-74100146D01*
X119052935Y-74108911D01*
X119088642Y-74112429D01*
X119133500Y-74126036D01*
X119185714Y-74137135D01*
X119219125Y-74152010D01*
X119248176Y-74160823D01*
X119294343Y-74185499D01*
X119348241Y-74209496D01*
X119373295Y-74227699D01*
X119395194Y-74239404D01*
X119439869Y-74276068D01*
X119492171Y-74314068D01*
X119509152Y-74332927D01*
X119524061Y-74345163D01*
X119564128Y-74393985D01*
X119611214Y-74446279D01*
X119621105Y-74463411D01*
X119629820Y-74474030D01*
X119662047Y-74534324D01*
X119700168Y-74600351D01*
X119704554Y-74613852D01*
X119708401Y-74621048D01*
X119729602Y-74690939D01*
X119755145Y-74769551D01*
X119756044Y-74778107D01*
X119756795Y-74780582D01*
X119764112Y-74854873D01*
X119773741Y-74946484D01*
X119764111Y-75038103D01*
X119756795Y-75112385D01*
X119756044Y-75114859D01*
X119755145Y-75123417D01*
X119729597Y-75202042D01*
X119708401Y-75271919D01*
X119704555Y-75279113D01*
X119700168Y-75292617D01*
X119662040Y-75358656D01*
X119629820Y-75418937D01*
X119621107Y-75429553D01*
X119611214Y-75446689D01*
X119564119Y-75498993D01*
X119524061Y-75547804D01*
X119509155Y-75560036D01*
X119492171Y-75578900D01*
X119439859Y-75616907D01*
X119395194Y-75653563D01*
X119373300Y-75665264D01*
X119348241Y-75683472D01*
X119294332Y-75707473D01*
X119248176Y-75732144D01*
X119219132Y-75740954D01*
X119185714Y-75755833D01*
X119133489Y-75766933D01*
X119088642Y-75780538D01*
X119052944Y-75784054D01*
X119011695Y-75792822D01*
X118963929Y-75792822D01*
X118922741Y-75796879D01*
X118881552Y-75792822D01*
X118833787Y-75792822D01*
X118792538Y-75784054D01*
X118756839Y-75780538D01*
X118711989Y-75766932D01*
X118659768Y-75755833D01*
X118626351Y-75740955D01*
X118597305Y-75732144D01*
X118551143Y-75707470D01*
X118497241Y-75683472D01*
X118472184Y-75665267D01*
X118450287Y-75653563D01*
X118405614Y-75616900D01*
X118353311Y-75578900D01*
X118336329Y-75560039D01*
X118321420Y-75547804D01*
X118281351Y-75498980D01*
X118234268Y-75446689D01*
X118224377Y-75429557D01*
X118215661Y-75418937D01*
X118183428Y-75358632D01*
X118145314Y-75292617D01*
X118140927Y-75279118D01*
X118137080Y-75271919D01*
X118115869Y-75201996D01*
X118090337Y-75123417D01*
X118089438Y-75114864D01*
X118088686Y-75112385D01*
X118081354Y-75037951D01*
X118071741Y-74946484D01*
X118081353Y-74855024D01*
X118088686Y-74780582D01*
X118089438Y-74778102D01*
X118090337Y-74769551D01*
X118115864Y-74690986D01*
X118137080Y-74621048D01*
X118140928Y-74613847D01*
X118145314Y-74600351D01*
X118183421Y-74534347D01*
X118215661Y-74474030D01*
X118224379Y-74463407D01*
X118234268Y-74446279D01*
X118281342Y-74393997D01*
X118321420Y-74345163D01*
X118336332Y-74332924D01*
X118353311Y-74314068D01*
X118405603Y-74276075D01*
X118450287Y-74239404D01*
X118472189Y-74227697D01*
X118497241Y-74209496D01*
X118551132Y-74185502D01*
X118597305Y-74160823D01*
X118626358Y-74152009D01*
X118659768Y-74137135D01*
X118711978Y-74126037D01*
X118756839Y-74112429D01*
X118792547Y-74108911D01*
X118833787Y-74100146D01*
X118881542Y-74100146D01*
X118922741Y-74096088D01*
X118963940Y-74100146D01*
G37*
G36*
X135022317Y-73661397D02*
G01*
X135070072Y-73661397D01*
X135111312Y-73670162D01*
X135147019Y-73673680D01*
X135191877Y-73687287D01*
X135244091Y-73698386D01*
X135277502Y-73713261D01*
X135306553Y-73722074D01*
X135352720Y-73746750D01*
X135406618Y-73770747D01*
X135431672Y-73788950D01*
X135453571Y-73800655D01*
X135498246Y-73837319D01*
X135550548Y-73875319D01*
X135567529Y-73894178D01*
X135582438Y-73906414D01*
X135622505Y-73955236D01*
X135669591Y-74007530D01*
X135679482Y-74024662D01*
X135688197Y-74035281D01*
X135720424Y-74095575D01*
X135758545Y-74161602D01*
X135762931Y-74175103D01*
X135766778Y-74182299D01*
X135787979Y-74252190D01*
X135813522Y-74330802D01*
X135814421Y-74339358D01*
X135815172Y-74341833D01*
X135822489Y-74416124D01*
X135832118Y-74507735D01*
X135822488Y-74599354D01*
X135815172Y-74673636D01*
X135814421Y-74676110D01*
X135813522Y-74684668D01*
X135787974Y-74763293D01*
X135766778Y-74833170D01*
X135762932Y-74840364D01*
X135758545Y-74853868D01*
X135720417Y-74919907D01*
X135688197Y-74980188D01*
X135679484Y-74990804D01*
X135669591Y-75007940D01*
X135622496Y-75060244D01*
X135582438Y-75109055D01*
X135567532Y-75121287D01*
X135550548Y-75140151D01*
X135498236Y-75178158D01*
X135453571Y-75214814D01*
X135431677Y-75226515D01*
X135406618Y-75244723D01*
X135352709Y-75268724D01*
X135306553Y-75293395D01*
X135277509Y-75302205D01*
X135244091Y-75317084D01*
X135191866Y-75328184D01*
X135147019Y-75341789D01*
X135111321Y-75345305D01*
X135070072Y-75354073D01*
X135022306Y-75354073D01*
X134981118Y-75358130D01*
X134939929Y-75354073D01*
X134892164Y-75354073D01*
X134850915Y-75345305D01*
X134815216Y-75341789D01*
X134770366Y-75328183D01*
X134718145Y-75317084D01*
X134684728Y-75302206D01*
X134655682Y-75293395D01*
X134609520Y-75268721D01*
X134555618Y-75244723D01*
X134530561Y-75226518D01*
X134508664Y-75214814D01*
X134463991Y-75178151D01*
X134411688Y-75140151D01*
X134394706Y-75121290D01*
X134379797Y-75109055D01*
X134339728Y-75060231D01*
X134292645Y-75007940D01*
X134282754Y-74990808D01*
X134274038Y-74980188D01*
X134241805Y-74919883D01*
X134203691Y-74853868D01*
X134199304Y-74840369D01*
X134195457Y-74833170D01*
X134174246Y-74763247D01*
X134148714Y-74684668D01*
X134147815Y-74676115D01*
X134147063Y-74673636D01*
X134139731Y-74599202D01*
X134130118Y-74507735D01*
X134139730Y-74416275D01*
X134147063Y-74341833D01*
X134147815Y-74339353D01*
X134148714Y-74330802D01*
X134174241Y-74252237D01*
X134195457Y-74182299D01*
X134199305Y-74175098D01*
X134203691Y-74161602D01*
X134241798Y-74095598D01*
X134274038Y-74035281D01*
X134282756Y-74024658D01*
X134292645Y-74007530D01*
X134339719Y-73955248D01*
X134379797Y-73906414D01*
X134394709Y-73894175D01*
X134411688Y-73875319D01*
X134463980Y-73837326D01*
X134508664Y-73800655D01*
X134530566Y-73788948D01*
X134555618Y-73770747D01*
X134609509Y-73746753D01*
X134655682Y-73722074D01*
X134684735Y-73713260D01*
X134718145Y-73698386D01*
X134770355Y-73687288D01*
X134815216Y-73673680D01*
X134850924Y-73670162D01*
X134892164Y-73661397D01*
X134939919Y-73661397D01*
X134981118Y-73657339D01*
X135022317Y-73661397D01*
G37*
G36*
X118095209Y-71713326D02*
G01*
X118142964Y-71713326D01*
X118184204Y-71722091D01*
X118219911Y-71725609D01*
X118264769Y-71739216D01*
X118316983Y-71750315D01*
X118350394Y-71765190D01*
X118379445Y-71774003D01*
X118425612Y-71798679D01*
X118479510Y-71822676D01*
X118504564Y-71840879D01*
X118526463Y-71852584D01*
X118571138Y-71889248D01*
X118623440Y-71927248D01*
X118640421Y-71946107D01*
X118655330Y-71958343D01*
X118695397Y-72007165D01*
X118742483Y-72059459D01*
X118752374Y-72076591D01*
X118761089Y-72087210D01*
X118793316Y-72147504D01*
X118831437Y-72213531D01*
X118835823Y-72227032D01*
X118839670Y-72234228D01*
X118860871Y-72304119D01*
X118886414Y-72382731D01*
X118887313Y-72391287D01*
X118888064Y-72393762D01*
X118895381Y-72468053D01*
X118905010Y-72559664D01*
X118895380Y-72651283D01*
X118888064Y-72725565D01*
X118887313Y-72728039D01*
X118886414Y-72736597D01*
X118860866Y-72815222D01*
X118839670Y-72885099D01*
X118835824Y-72892293D01*
X118831437Y-72905797D01*
X118793309Y-72971836D01*
X118761089Y-73032117D01*
X118752376Y-73042733D01*
X118742483Y-73059869D01*
X118695388Y-73112173D01*
X118655330Y-73160984D01*
X118640424Y-73173216D01*
X118623440Y-73192080D01*
X118571128Y-73230087D01*
X118526463Y-73266743D01*
X118504569Y-73278444D01*
X118479510Y-73296652D01*
X118425601Y-73320653D01*
X118379445Y-73345324D01*
X118350401Y-73354134D01*
X118316983Y-73369013D01*
X118264758Y-73380113D01*
X118219911Y-73393718D01*
X118184213Y-73397234D01*
X118142964Y-73406002D01*
X118095198Y-73406002D01*
X118054010Y-73410059D01*
X118012821Y-73406002D01*
X117965056Y-73406002D01*
X117923807Y-73397234D01*
X117888108Y-73393718D01*
X117843258Y-73380112D01*
X117791037Y-73369013D01*
X117757620Y-73354135D01*
X117728574Y-73345324D01*
X117682412Y-73320650D01*
X117628510Y-73296652D01*
X117603453Y-73278447D01*
X117581556Y-73266743D01*
X117536883Y-73230080D01*
X117484580Y-73192080D01*
X117467598Y-73173219D01*
X117452689Y-73160984D01*
X117412620Y-73112160D01*
X117365537Y-73059869D01*
X117355646Y-73042737D01*
X117346930Y-73032117D01*
X117314697Y-72971812D01*
X117276583Y-72905797D01*
X117272196Y-72892298D01*
X117268349Y-72885099D01*
X117247138Y-72815176D01*
X117221606Y-72736597D01*
X117220707Y-72728044D01*
X117219955Y-72725565D01*
X117212623Y-72651131D01*
X117203010Y-72559664D01*
X117212622Y-72468204D01*
X117219955Y-72393762D01*
X117220707Y-72391282D01*
X117221606Y-72382731D01*
X117247133Y-72304166D01*
X117268349Y-72234228D01*
X117272197Y-72227027D01*
X117276583Y-72213531D01*
X117314690Y-72147527D01*
X117346930Y-72087210D01*
X117355648Y-72076587D01*
X117365537Y-72059459D01*
X117412611Y-72007177D01*
X117452689Y-71958343D01*
X117467601Y-71946104D01*
X117484580Y-71927248D01*
X117536872Y-71889255D01*
X117581556Y-71852584D01*
X117603458Y-71840877D01*
X117628510Y-71822676D01*
X117682401Y-71798682D01*
X117728574Y-71774003D01*
X117757627Y-71765189D01*
X117791037Y-71750315D01*
X117843247Y-71739217D01*
X117888108Y-71725609D01*
X117923816Y-71722091D01*
X117965056Y-71713326D01*
X118012811Y-71713326D01*
X118054010Y-71709268D01*
X118095209Y-71713326D01*
G37*
G36*
X134153586Y-71274577D02*
G01*
X134201341Y-71274577D01*
X134242581Y-71283342D01*
X134278288Y-71286860D01*
X134323146Y-71300467D01*
X134375360Y-71311566D01*
X134408771Y-71326441D01*
X134437822Y-71335254D01*
X134483989Y-71359930D01*
X134537887Y-71383927D01*
X134562941Y-71402130D01*
X134584840Y-71413835D01*
X134629515Y-71450499D01*
X134681817Y-71488499D01*
X134698798Y-71507358D01*
X134713707Y-71519594D01*
X134753774Y-71568416D01*
X134800860Y-71620710D01*
X134810751Y-71637842D01*
X134819466Y-71648461D01*
X134851693Y-71708755D01*
X134889814Y-71774782D01*
X134894200Y-71788283D01*
X134898047Y-71795479D01*
X134919248Y-71865370D01*
X134944791Y-71943982D01*
X134945690Y-71952538D01*
X134946441Y-71955013D01*
X134953758Y-72029304D01*
X134963387Y-72120915D01*
X134953757Y-72212534D01*
X134946441Y-72286816D01*
X134945690Y-72289290D01*
X134944791Y-72297848D01*
X134919243Y-72376473D01*
X134898047Y-72446350D01*
X134894201Y-72453544D01*
X134889814Y-72467048D01*
X134851686Y-72533087D01*
X134819466Y-72593368D01*
X134810753Y-72603984D01*
X134800860Y-72621120D01*
X134753765Y-72673424D01*
X134713707Y-72722235D01*
X134698801Y-72734467D01*
X134681817Y-72753331D01*
X134629505Y-72791338D01*
X134584840Y-72827994D01*
X134562946Y-72839695D01*
X134537887Y-72857903D01*
X134483978Y-72881904D01*
X134437822Y-72906575D01*
X134408778Y-72915385D01*
X134375360Y-72930264D01*
X134323135Y-72941364D01*
X134278288Y-72954969D01*
X134242590Y-72958485D01*
X134201341Y-72967253D01*
X134153575Y-72967253D01*
X134112387Y-72971310D01*
X134071198Y-72967253D01*
X134023433Y-72967253D01*
X133982184Y-72958485D01*
X133946485Y-72954969D01*
X133901635Y-72941363D01*
X133849414Y-72930264D01*
X133815997Y-72915386D01*
X133786951Y-72906575D01*
X133740789Y-72881901D01*
X133686887Y-72857903D01*
X133661830Y-72839698D01*
X133639933Y-72827994D01*
X133595260Y-72791331D01*
X133542957Y-72753331D01*
X133525975Y-72734470D01*
X133511066Y-72722235D01*
X133470997Y-72673411D01*
X133423914Y-72621120D01*
X133414023Y-72603988D01*
X133405307Y-72593368D01*
X133373074Y-72533063D01*
X133334960Y-72467048D01*
X133330573Y-72453549D01*
X133326726Y-72446350D01*
X133305515Y-72376427D01*
X133279983Y-72297848D01*
X133279084Y-72289295D01*
X133278332Y-72286816D01*
X133271000Y-72212382D01*
X133261387Y-72120915D01*
X133270999Y-72029455D01*
X133278332Y-71955013D01*
X133279084Y-71952533D01*
X133279983Y-71943982D01*
X133305510Y-71865417D01*
X133326726Y-71795479D01*
X133330574Y-71788278D01*
X133334960Y-71774782D01*
X133373067Y-71708778D01*
X133405307Y-71648461D01*
X133414025Y-71637838D01*
X133423914Y-71620710D01*
X133470988Y-71568428D01*
X133511066Y-71519594D01*
X133525978Y-71507355D01*
X133542957Y-71488499D01*
X133595249Y-71450506D01*
X133639933Y-71413835D01*
X133661835Y-71402128D01*
X133686887Y-71383927D01*
X133740778Y-71359933D01*
X133786951Y-71335254D01*
X133816004Y-71326440D01*
X133849414Y-71311566D01*
X133901624Y-71300468D01*
X133946485Y-71286860D01*
X133982193Y-71283342D01*
X134023433Y-71274577D01*
X134071188Y-71274577D01*
X134112387Y-71270519D01*
X134153586Y-71274577D01*
G37*
G36*
X117226477Y-69326507D02*
G01*
X117274232Y-69326507D01*
X117315472Y-69335272D01*
X117351179Y-69338790D01*
X117396037Y-69352397D01*
X117448251Y-69363496D01*
X117481662Y-69378371D01*
X117510713Y-69387184D01*
X117556880Y-69411860D01*
X117610778Y-69435857D01*
X117635832Y-69454060D01*
X117657731Y-69465765D01*
X117702406Y-69502429D01*
X117754708Y-69540429D01*
X117771689Y-69559288D01*
X117786598Y-69571524D01*
X117826665Y-69620346D01*
X117873751Y-69672640D01*
X117883642Y-69689772D01*
X117892357Y-69700391D01*
X117924584Y-69760685D01*
X117962705Y-69826712D01*
X117967091Y-69840213D01*
X117970938Y-69847409D01*
X117992139Y-69917300D01*
X118017682Y-69995912D01*
X118018581Y-70004468D01*
X118019332Y-70006943D01*
X118026649Y-70081234D01*
X118036278Y-70172845D01*
X118026648Y-70264464D01*
X118019332Y-70338746D01*
X118018581Y-70341220D01*
X118017682Y-70349778D01*
X117992134Y-70428403D01*
X117970938Y-70498280D01*
X117967092Y-70505474D01*
X117962705Y-70518978D01*
X117924577Y-70585017D01*
X117892357Y-70645298D01*
X117883644Y-70655914D01*
X117873751Y-70673050D01*
X117826656Y-70725354D01*
X117786598Y-70774165D01*
X117771692Y-70786397D01*
X117754708Y-70805261D01*
X117702396Y-70843268D01*
X117657731Y-70879924D01*
X117635837Y-70891625D01*
X117610778Y-70909833D01*
X117556869Y-70933834D01*
X117510713Y-70958505D01*
X117481669Y-70967315D01*
X117448251Y-70982194D01*
X117396026Y-70993294D01*
X117351179Y-71006899D01*
X117315481Y-71010415D01*
X117274232Y-71019183D01*
X117226466Y-71019183D01*
X117185278Y-71023240D01*
X117144089Y-71019183D01*
X117096324Y-71019183D01*
X117055075Y-71010415D01*
X117019376Y-71006899D01*
X116974526Y-70993293D01*
X116922305Y-70982194D01*
X116888888Y-70967316D01*
X116859842Y-70958505D01*
X116813680Y-70933831D01*
X116759778Y-70909833D01*
X116734721Y-70891628D01*
X116712824Y-70879924D01*
X116668151Y-70843261D01*
X116615848Y-70805261D01*
X116598866Y-70786400D01*
X116583957Y-70774165D01*
X116543888Y-70725341D01*
X116496805Y-70673050D01*
X116486914Y-70655918D01*
X116478198Y-70645298D01*
X116445965Y-70584993D01*
X116407851Y-70518978D01*
X116403464Y-70505479D01*
X116399617Y-70498280D01*
X116378406Y-70428357D01*
X116352874Y-70349778D01*
X116351975Y-70341225D01*
X116351223Y-70338746D01*
X116343891Y-70264312D01*
X116334278Y-70172845D01*
X116343890Y-70081385D01*
X116351223Y-70006943D01*
X116351975Y-70004463D01*
X116352874Y-69995912D01*
X116378401Y-69917347D01*
X116399617Y-69847409D01*
X116403465Y-69840208D01*
X116407851Y-69826712D01*
X116445958Y-69760708D01*
X116478198Y-69700391D01*
X116486916Y-69689768D01*
X116496805Y-69672640D01*
X116543879Y-69620358D01*
X116583957Y-69571524D01*
X116598869Y-69559285D01*
X116615848Y-69540429D01*
X116668140Y-69502436D01*
X116712824Y-69465765D01*
X116734726Y-69454058D01*
X116759778Y-69435857D01*
X116813669Y-69411863D01*
X116859842Y-69387184D01*
X116888895Y-69378370D01*
X116922305Y-69363496D01*
X116974515Y-69352398D01*
X117019376Y-69338790D01*
X117055084Y-69335272D01*
X117096324Y-69326507D01*
X117144079Y-69326507D01*
X117185278Y-69322449D01*
X117226477Y-69326507D01*
G37*
G36*
X133284855Y-68887760D02*
G01*
X133332610Y-68887760D01*
X133373850Y-68896525D01*
X133409557Y-68900043D01*
X133454415Y-68913650D01*
X133506629Y-68924749D01*
X133540040Y-68939624D01*
X133569091Y-68948437D01*
X133615258Y-68973113D01*
X133669156Y-68997110D01*
X133694210Y-69015313D01*
X133716109Y-69027018D01*
X133760784Y-69063682D01*
X133813086Y-69101682D01*
X133830067Y-69120541D01*
X133844976Y-69132777D01*
X133885043Y-69181599D01*
X133932129Y-69233893D01*
X133942020Y-69251025D01*
X133950735Y-69261644D01*
X133982962Y-69321938D01*
X134021083Y-69387965D01*
X134025469Y-69401466D01*
X134029316Y-69408662D01*
X134050517Y-69478553D01*
X134076060Y-69557165D01*
X134076959Y-69565721D01*
X134077710Y-69568196D01*
X134085027Y-69642487D01*
X134094656Y-69734098D01*
X134085026Y-69825717D01*
X134077710Y-69899999D01*
X134076959Y-69902473D01*
X134076060Y-69911031D01*
X134050512Y-69989656D01*
X134029316Y-70059533D01*
X134025470Y-70066727D01*
X134021083Y-70080231D01*
X133982955Y-70146270D01*
X133950735Y-70206551D01*
X133942022Y-70217167D01*
X133932129Y-70234303D01*
X133885034Y-70286607D01*
X133844976Y-70335418D01*
X133830070Y-70347650D01*
X133813086Y-70366514D01*
X133760774Y-70404521D01*
X133716109Y-70441177D01*
X133694215Y-70452878D01*
X133669156Y-70471086D01*
X133615247Y-70495087D01*
X133569091Y-70519758D01*
X133540047Y-70528568D01*
X133506629Y-70543447D01*
X133454404Y-70554547D01*
X133409557Y-70568152D01*
X133373859Y-70571668D01*
X133332610Y-70580436D01*
X133284844Y-70580436D01*
X133243656Y-70584493D01*
X133202467Y-70580436D01*
X133154702Y-70580436D01*
X133113453Y-70571668D01*
X133077754Y-70568152D01*
X133032904Y-70554546D01*
X132980683Y-70543447D01*
X132947266Y-70528569D01*
X132918220Y-70519758D01*
X132872058Y-70495084D01*
X132818156Y-70471086D01*
X132793099Y-70452881D01*
X132771202Y-70441177D01*
X132726529Y-70404514D01*
X132674226Y-70366514D01*
X132657244Y-70347653D01*
X132642335Y-70335418D01*
X132602266Y-70286594D01*
X132555183Y-70234303D01*
X132545292Y-70217171D01*
X132536576Y-70206551D01*
X132504343Y-70146246D01*
X132466229Y-70080231D01*
X132461842Y-70066732D01*
X132457995Y-70059533D01*
X132436784Y-69989610D01*
X132411252Y-69911031D01*
X132410353Y-69902478D01*
X132409601Y-69899999D01*
X132402269Y-69825565D01*
X132392656Y-69734098D01*
X132402268Y-69642638D01*
X132409601Y-69568196D01*
X132410353Y-69565716D01*
X132411252Y-69557165D01*
X132436779Y-69478600D01*
X132457995Y-69408662D01*
X132461843Y-69401461D01*
X132466229Y-69387965D01*
X132504336Y-69321961D01*
X132536576Y-69261644D01*
X132545294Y-69251021D01*
X132555183Y-69233893D01*
X132602257Y-69181611D01*
X132642335Y-69132777D01*
X132657247Y-69120538D01*
X132674226Y-69101682D01*
X132726518Y-69063689D01*
X132771202Y-69027018D01*
X132793104Y-69015311D01*
X132818156Y-68997110D01*
X132872047Y-68973116D01*
X132918220Y-68948437D01*
X132947273Y-68939623D01*
X132980683Y-68924749D01*
X133032893Y-68913651D01*
X133077754Y-68900043D01*
X133113462Y-68896525D01*
X133154702Y-68887760D01*
X133202457Y-68887760D01*
X133243656Y-68883702D01*
X133284855Y-68887760D01*
G37*
G36*
X116357746Y-66939687D02*
G01*
X116405501Y-66939687D01*
X116446741Y-66948452D01*
X116482448Y-66951970D01*
X116527306Y-66965577D01*
X116579520Y-66976676D01*
X116612931Y-66991551D01*
X116641982Y-67000364D01*
X116688149Y-67025040D01*
X116742047Y-67049037D01*
X116767101Y-67067240D01*
X116789000Y-67078945D01*
X116833675Y-67115609D01*
X116885977Y-67153609D01*
X116902958Y-67172468D01*
X116917867Y-67184704D01*
X116957934Y-67233526D01*
X117005020Y-67285820D01*
X117014911Y-67302952D01*
X117023626Y-67313571D01*
X117055853Y-67373865D01*
X117093974Y-67439892D01*
X117098360Y-67453393D01*
X117102207Y-67460589D01*
X117123408Y-67530480D01*
X117148951Y-67609092D01*
X117149850Y-67617648D01*
X117150601Y-67620123D01*
X117157918Y-67694414D01*
X117167547Y-67786025D01*
X117157917Y-67877644D01*
X117150601Y-67951926D01*
X117149850Y-67954400D01*
X117148951Y-67962958D01*
X117123403Y-68041583D01*
X117102207Y-68111460D01*
X117098361Y-68118654D01*
X117093974Y-68132158D01*
X117055846Y-68198197D01*
X117023626Y-68258478D01*
X117014913Y-68269094D01*
X117005020Y-68286230D01*
X116957925Y-68338534D01*
X116917867Y-68387345D01*
X116902961Y-68399577D01*
X116885977Y-68418441D01*
X116833665Y-68456448D01*
X116789000Y-68493104D01*
X116767106Y-68504805D01*
X116742047Y-68523013D01*
X116688138Y-68547014D01*
X116641982Y-68571685D01*
X116612938Y-68580495D01*
X116579520Y-68595374D01*
X116527295Y-68606474D01*
X116482448Y-68620079D01*
X116446750Y-68623595D01*
X116405501Y-68632363D01*
X116357735Y-68632363D01*
X116316547Y-68636420D01*
X116275358Y-68632363D01*
X116227593Y-68632363D01*
X116186344Y-68623595D01*
X116150645Y-68620079D01*
X116105795Y-68606473D01*
X116053574Y-68595374D01*
X116020157Y-68580496D01*
X115991111Y-68571685D01*
X115944949Y-68547011D01*
X115891047Y-68523013D01*
X115865990Y-68504808D01*
X115844093Y-68493104D01*
X115799420Y-68456441D01*
X115747117Y-68418441D01*
X115730135Y-68399580D01*
X115715226Y-68387345D01*
X115675157Y-68338521D01*
X115628074Y-68286230D01*
X115618183Y-68269098D01*
X115609467Y-68258478D01*
X115577234Y-68198173D01*
X115539120Y-68132158D01*
X115534733Y-68118659D01*
X115530886Y-68111460D01*
X115509675Y-68041537D01*
X115484143Y-67962958D01*
X115483244Y-67954405D01*
X115482492Y-67951926D01*
X115475160Y-67877492D01*
X115465547Y-67786025D01*
X115475159Y-67694565D01*
X115482492Y-67620123D01*
X115483244Y-67617643D01*
X115484143Y-67609092D01*
X115509670Y-67530527D01*
X115530886Y-67460589D01*
X115534734Y-67453388D01*
X115539120Y-67439892D01*
X115577227Y-67373888D01*
X115609467Y-67313571D01*
X115618185Y-67302948D01*
X115628074Y-67285820D01*
X115675148Y-67233538D01*
X115715226Y-67184704D01*
X115730138Y-67172465D01*
X115747117Y-67153609D01*
X115799409Y-67115616D01*
X115844093Y-67078945D01*
X115865995Y-67067238D01*
X115891047Y-67049037D01*
X115944938Y-67025043D01*
X115991111Y-67000364D01*
X116020164Y-66991550D01*
X116053574Y-66976676D01*
X116105784Y-66965578D01*
X116150645Y-66951970D01*
X116186353Y-66948452D01*
X116227593Y-66939687D01*
X116275348Y-66939687D01*
X116316547Y-66935629D01*
X116357746Y-66939687D01*
G37*
G36*
X132416124Y-66500939D02*
G01*
X132463879Y-66500939D01*
X132505119Y-66509704D01*
X132540826Y-66513222D01*
X132585684Y-66526829D01*
X132637898Y-66537928D01*
X132671309Y-66552803D01*
X132700360Y-66561616D01*
X132746527Y-66586292D01*
X132800425Y-66610289D01*
X132825479Y-66628492D01*
X132847378Y-66640197D01*
X132892053Y-66676861D01*
X132944355Y-66714861D01*
X132961336Y-66733720D01*
X132976245Y-66745956D01*
X133016312Y-66794778D01*
X133063398Y-66847072D01*
X133073289Y-66864204D01*
X133082004Y-66874823D01*
X133114231Y-66935117D01*
X133152352Y-67001144D01*
X133156738Y-67014645D01*
X133160585Y-67021841D01*
X133181786Y-67091732D01*
X133207329Y-67170344D01*
X133208228Y-67178900D01*
X133208979Y-67181375D01*
X133216296Y-67255666D01*
X133225925Y-67347277D01*
X133216295Y-67438896D01*
X133208979Y-67513178D01*
X133208228Y-67515652D01*
X133207329Y-67524210D01*
X133181781Y-67602835D01*
X133160585Y-67672712D01*
X133156739Y-67679906D01*
X133152352Y-67693410D01*
X133114224Y-67759449D01*
X133082004Y-67819730D01*
X133073291Y-67830346D01*
X133063398Y-67847482D01*
X133016303Y-67899786D01*
X132976245Y-67948597D01*
X132961339Y-67960829D01*
X132944355Y-67979693D01*
X132892043Y-68017700D01*
X132847378Y-68054356D01*
X132825484Y-68066057D01*
X132800425Y-68084265D01*
X132746516Y-68108266D01*
X132700360Y-68132937D01*
X132671316Y-68141747D01*
X132637898Y-68156626D01*
X132585673Y-68167726D01*
X132540826Y-68181331D01*
X132505128Y-68184847D01*
X132463879Y-68193615D01*
X132416113Y-68193615D01*
X132374925Y-68197672D01*
X132333736Y-68193615D01*
X132285971Y-68193615D01*
X132244722Y-68184847D01*
X132209023Y-68181331D01*
X132164173Y-68167725D01*
X132111952Y-68156626D01*
X132078535Y-68141748D01*
X132049489Y-68132937D01*
X132003327Y-68108263D01*
X131949425Y-68084265D01*
X131924368Y-68066060D01*
X131902471Y-68054356D01*
X131857798Y-68017693D01*
X131805495Y-67979693D01*
X131788513Y-67960832D01*
X131773604Y-67948597D01*
X131733535Y-67899773D01*
X131686452Y-67847482D01*
X131676561Y-67830350D01*
X131667845Y-67819730D01*
X131635612Y-67759425D01*
X131597498Y-67693410D01*
X131593111Y-67679911D01*
X131589264Y-67672712D01*
X131568053Y-67602789D01*
X131542521Y-67524210D01*
X131541622Y-67515657D01*
X131540870Y-67513178D01*
X131533538Y-67438744D01*
X131523925Y-67347277D01*
X131533537Y-67255817D01*
X131540870Y-67181375D01*
X131541622Y-67178895D01*
X131542521Y-67170344D01*
X131568048Y-67091779D01*
X131589264Y-67021841D01*
X131593112Y-67014640D01*
X131597498Y-67001144D01*
X131635605Y-66935140D01*
X131667845Y-66874823D01*
X131676563Y-66864200D01*
X131686452Y-66847072D01*
X131733526Y-66794790D01*
X131773604Y-66745956D01*
X131788516Y-66733717D01*
X131805495Y-66714861D01*
X131857787Y-66676868D01*
X131902471Y-66640197D01*
X131924373Y-66628490D01*
X131949425Y-66610289D01*
X132003316Y-66586295D01*
X132049489Y-66561616D01*
X132078542Y-66552802D01*
X132111952Y-66537928D01*
X132164162Y-66526830D01*
X132209023Y-66513222D01*
X132244731Y-66509704D01*
X132285971Y-66500939D01*
X132333726Y-66500939D01*
X132374925Y-66496881D01*
X132416124Y-66500939D01*
G37*
G36*
X115489016Y-64552869D02*
G01*
X115536771Y-64552869D01*
X115578011Y-64561634D01*
X115613718Y-64565152D01*
X115658576Y-64578759D01*
X115710790Y-64589858D01*
X115744201Y-64604733D01*
X115773252Y-64613546D01*
X115819419Y-64638222D01*
X115873317Y-64662219D01*
X115898371Y-64680422D01*
X115920270Y-64692127D01*
X115964945Y-64728791D01*
X116017247Y-64766791D01*
X116034228Y-64785650D01*
X116049137Y-64797886D01*
X116089204Y-64846708D01*
X116136290Y-64899002D01*
X116146181Y-64916134D01*
X116154896Y-64926753D01*
X116187123Y-64987047D01*
X116225244Y-65053074D01*
X116229630Y-65066575D01*
X116233477Y-65073771D01*
X116254678Y-65143662D01*
X116280221Y-65222274D01*
X116281120Y-65230830D01*
X116281871Y-65233305D01*
X116289188Y-65307596D01*
X116298817Y-65399207D01*
X116289187Y-65490826D01*
X116281871Y-65565108D01*
X116281120Y-65567582D01*
X116280221Y-65576140D01*
X116254673Y-65654765D01*
X116233477Y-65724642D01*
X116229631Y-65731836D01*
X116225244Y-65745340D01*
X116187116Y-65811379D01*
X116154896Y-65871660D01*
X116146183Y-65882276D01*
X116136290Y-65899412D01*
X116089195Y-65951716D01*
X116049137Y-66000527D01*
X116034231Y-66012759D01*
X116017247Y-66031623D01*
X115964935Y-66069630D01*
X115920270Y-66106286D01*
X115898376Y-66117987D01*
X115873317Y-66136195D01*
X115819408Y-66160196D01*
X115773252Y-66184867D01*
X115744208Y-66193677D01*
X115710790Y-66208556D01*
X115658565Y-66219656D01*
X115613718Y-66233261D01*
X115578020Y-66236777D01*
X115536771Y-66245545D01*
X115489005Y-66245545D01*
X115447817Y-66249602D01*
X115406628Y-66245545D01*
X115358863Y-66245545D01*
X115317614Y-66236777D01*
X115281915Y-66233261D01*
X115237065Y-66219655D01*
X115184844Y-66208556D01*
X115151427Y-66193678D01*
X115122381Y-66184867D01*
X115076219Y-66160193D01*
X115022317Y-66136195D01*
X114997260Y-66117990D01*
X114975363Y-66106286D01*
X114930690Y-66069623D01*
X114878387Y-66031623D01*
X114861405Y-66012762D01*
X114846496Y-66000527D01*
X114806427Y-65951703D01*
X114759344Y-65899412D01*
X114749453Y-65882280D01*
X114740737Y-65871660D01*
X114708504Y-65811355D01*
X114670390Y-65745340D01*
X114666003Y-65731841D01*
X114662156Y-65724642D01*
X114640945Y-65654719D01*
X114615413Y-65576140D01*
X114614514Y-65567587D01*
X114613762Y-65565108D01*
X114606430Y-65490674D01*
X114596817Y-65399207D01*
X114606429Y-65307747D01*
X114613762Y-65233305D01*
X114614514Y-65230825D01*
X114615413Y-65222274D01*
X114640940Y-65143709D01*
X114662156Y-65073771D01*
X114666004Y-65066570D01*
X114670390Y-65053074D01*
X114708497Y-64987070D01*
X114740737Y-64926753D01*
X114749455Y-64916130D01*
X114759344Y-64899002D01*
X114806418Y-64846720D01*
X114846496Y-64797886D01*
X114861408Y-64785647D01*
X114878387Y-64766791D01*
X114930679Y-64728798D01*
X114975363Y-64692127D01*
X114997265Y-64680420D01*
X115022317Y-64662219D01*
X115076208Y-64638225D01*
X115122381Y-64613546D01*
X115151434Y-64604732D01*
X115184844Y-64589858D01*
X115237054Y-64578760D01*
X115281915Y-64565152D01*
X115317623Y-64561634D01*
X115358863Y-64552869D01*
X115406618Y-64552869D01*
X115447817Y-64548811D01*
X115489016Y-64552869D01*
G37*
G36*
X131547393Y-64114120D02*
G01*
X131595148Y-64114120D01*
X131636388Y-64122885D01*
X131672095Y-64126403D01*
X131716953Y-64140010D01*
X131769167Y-64151109D01*
X131802578Y-64165984D01*
X131831629Y-64174797D01*
X131877796Y-64199473D01*
X131931694Y-64223470D01*
X131956748Y-64241673D01*
X131978647Y-64253378D01*
X132023322Y-64290042D01*
X132075624Y-64328042D01*
X132092605Y-64346901D01*
X132107514Y-64359137D01*
X132147581Y-64407959D01*
X132194667Y-64460253D01*
X132204558Y-64477385D01*
X132213273Y-64488004D01*
X132245500Y-64548298D01*
X132283621Y-64614325D01*
X132288007Y-64627826D01*
X132291854Y-64635022D01*
X132313055Y-64704913D01*
X132338598Y-64783525D01*
X132339497Y-64792081D01*
X132340248Y-64794556D01*
X132347565Y-64868847D01*
X132357194Y-64960458D01*
X132347564Y-65052077D01*
X132340248Y-65126359D01*
X132339497Y-65128833D01*
X132338598Y-65137391D01*
X132313050Y-65216016D01*
X132291854Y-65285893D01*
X132288008Y-65293087D01*
X132283621Y-65306591D01*
X132245493Y-65372630D01*
X132213273Y-65432911D01*
X132204560Y-65443527D01*
X132194667Y-65460663D01*
X132147572Y-65512967D01*
X132107514Y-65561778D01*
X132092608Y-65574010D01*
X132075624Y-65592874D01*
X132023312Y-65630881D01*
X131978647Y-65667537D01*
X131956753Y-65679238D01*
X131931694Y-65697446D01*
X131877785Y-65721447D01*
X131831629Y-65746118D01*
X131802585Y-65754928D01*
X131769167Y-65769807D01*
X131716942Y-65780907D01*
X131672095Y-65794512D01*
X131636397Y-65798028D01*
X131595148Y-65806796D01*
X131547382Y-65806796D01*
X131506194Y-65810853D01*
X131465005Y-65806796D01*
X131417240Y-65806796D01*
X131375991Y-65798028D01*
X131340292Y-65794512D01*
X131295442Y-65780906D01*
X131243221Y-65769807D01*
X131209804Y-65754929D01*
X131180758Y-65746118D01*
X131134596Y-65721444D01*
X131080694Y-65697446D01*
X131055637Y-65679241D01*
X131033740Y-65667537D01*
X130989067Y-65630874D01*
X130936764Y-65592874D01*
X130919782Y-65574013D01*
X130904873Y-65561778D01*
X130864804Y-65512954D01*
X130817721Y-65460663D01*
X130807830Y-65443531D01*
X130799114Y-65432911D01*
X130766881Y-65372606D01*
X130728767Y-65306591D01*
X130724380Y-65293092D01*
X130720533Y-65285893D01*
X130699322Y-65215970D01*
X130673790Y-65137391D01*
X130672891Y-65128838D01*
X130672139Y-65126359D01*
X130664807Y-65051925D01*
X130655194Y-64960458D01*
X130664806Y-64868998D01*
X130672139Y-64794556D01*
X130672891Y-64792076D01*
X130673790Y-64783525D01*
X130699317Y-64704960D01*
X130720533Y-64635022D01*
X130724381Y-64627821D01*
X130728767Y-64614325D01*
X130766874Y-64548321D01*
X130799114Y-64488004D01*
X130807832Y-64477381D01*
X130817721Y-64460253D01*
X130864795Y-64407971D01*
X130904873Y-64359137D01*
X130919785Y-64346898D01*
X130936764Y-64328042D01*
X130989056Y-64290049D01*
X131033740Y-64253378D01*
X131055642Y-64241671D01*
X131080694Y-64223470D01*
X131134585Y-64199476D01*
X131180758Y-64174797D01*
X131209811Y-64165983D01*
X131243221Y-64151109D01*
X131295431Y-64140011D01*
X131340292Y-64126403D01*
X131376000Y-64122885D01*
X131417240Y-64114120D01*
X131464995Y-64114120D01*
X131506194Y-64110062D01*
X131547393Y-64114120D01*
G37*
G36*
X115078776Y-61940796D02*
G01*
X115094824Y-61952562D01*
X115105147Y-61969574D01*
X115652380Y-63473082D01*
X115655407Y-63492750D01*
X115650676Y-63512078D01*
X115638910Y-63528126D01*
X115621898Y-63538449D01*
X114118390Y-64085682D01*
X114098722Y-64088709D01*
X114079394Y-64083978D01*
X114063346Y-64072212D01*
X114053023Y-64055200D01*
X113505790Y-62551692D01*
X113502763Y-62532024D01*
X113507494Y-62512696D01*
X113519260Y-62496648D01*
X113536272Y-62486325D01*
X114998227Y-61954216D01*
X115028213Y-61943302D01*
X115028213Y-61943301D01*
X115039780Y-61939092D01*
X115059448Y-61936065D01*
X115078776Y-61940796D01*
G37*
G36*
X130678662Y-61727301D02*
G01*
X130726417Y-61727301D01*
X130767657Y-61736066D01*
X130803364Y-61739584D01*
X130848222Y-61753191D01*
X130900436Y-61764290D01*
X130933847Y-61779165D01*
X130962898Y-61787978D01*
X131009065Y-61812654D01*
X131062963Y-61836651D01*
X131088017Y-61854854D01*
X131109916Y-61866559D01*
X131154591Y-61903223D01*
X131206893Y-61941223D01*
X131223874Y-61960082D01*
X131238783Y-61972318D01*
X131278850Y-62021140D01*
X131325936Y-62073434D01*
X131335827Y-62090566D01*
X131344542Y-62101185D01*
X131376769Y-62161479D01*
X131414890Y-62227506D01*
X131419276Y-62241007D01*
X131423123Y-62248203D01*
X131444324Y-62318094D01*
X131469867Y-62396706D01*
X131470766Y-62405262D01*
X131471517Y-62407737D01*
X131478834Y-62482028D01*
X131488463Y-62573639D01*
X131478833Y-62665258D01*
X131471517Y-62739540D01*
X131470766Y-62742014D01*
X131469867Y-62750572D01*
X131444319Y-62829197D01*
X131423123Y-62899074D01*
X131419277Y-62906268D01*
X131414890Y-62919772D01*
X131376762Y-62985811D01*
X131344542Y-63046092D01*
X131335829Y-63056708D01*
X131325936Y-63073844D01*
X131278841Y-63126148D01*
X131238783Y-63174959D01*
X131223877Y-63187191D01*
X131206893Y-63206055D01*
X131154581Y-63244062D01*
X131109916Y-63280718D01*
X131088022Y-63292419D01*
X131062963Y-63310627D01*
X131009054Y-63334628D01*
X130962898Y-63359299D01*
X130933854Y-63368109D01*
X130900436Y-63382988D01*
X130848211Y-63394088D01*
X130803364Y-63407693D01*
X130767666Y-63411209D01*
X130726417Y-63419977D01*
X130678651Y-63419977D01*
X130637463Y-63424034D01*
X130596274Y-63419977D01*
X130548509Y-63419977D01*
X130507260Y-63411209D01*
X130471561Y-63407693D01*
X130426711Y-63394087D01*
X130374490Y-63382988D01*
X130341073Y-63368110D01*
X130312027Y-63359299D01*
X130265865Y-63334625D01*
X130211963Y-63310627D01*
X130186906Y-63292422D01*
X130165009Y-63280718D01*
X130120336Y-63244055D01*
X130068033Y-63206055D01*
X130051051Y-63187194D01*
X130036142Y-63174959D01*
X129996073Y-63126135D01*
X129948990Y-63073844D01*
X129939099Y-63056712D01*
X129930383Y-63046092D01*
X129898150Y-62985787D01*
X129860036Y-62919772D01*
X129855649Y-62906273D01*
X129851802Y-62899074D01*
X129830591Y-62829151D01*
X129805059Y-62750572D01*
X129804160Y-62742019D01*
X129803408Y-62739540D01*
X129796076Y-62665106D01*
X129786463Y-62573639D01*
X129796082Y-62482116D01*
X129803408Y-62407737D01*
X129804160Y-62405257D01*
X129805059Y-62396706D01*
X129830586Y-62318141D01*
X129851802Y-62248203D01*
X129855650Y-62241002D01*
X129860036Y-62227506D01*
X129898143Y-62161502D01*
X129930383Y-62101185D01*
X129939101Y-62090562D01*
X129948990Y-62073434D01*
X129996064Y-62021152D01*
X130036142Y-61972318D01*
X130051054Y-61960079D01*
X130068033Y-61941223D01*
X130120325Y-61903230D01*
X130165009Y-61866559D01*
X130186911Y-61854852D01*
X130211963Y-61836651D01*
X130265854Y-61812657D01*
X130312027Y-61787978D01*
X130341080Y-61779164D01*
X130374490Y-61764290D01*
X130426700Y-61753192D01*
X130471561Y-61739584D01*
X130507269Y-61736066D01*
X130548509Y-61727301D01*
X130596264Y-61727301D01*
X130637463Y-61723243D01*
X130678662Y-61727301D01*
G37*
G36*
X129809930Y-59340482D02*
G01*
X129857685Y-59340482D01*
X129898925Y-59349247D01*
X129934632Y-59352765D01*
X129979490Y-59366372D01*
X130031704Y-59377471D01*
X130065115Y-59392346D01*
X130094166Y-59401159D01*
X130140333Y-59425835D01*
X130194231Y-59449832D01*
X130219285Y-59468035D01*
X130241184Y-59479740D01*
X130285859Y-59516404D01*
X130338161Y-59554404D01*
X130355142Y-59573263D01*
X130370051Y-59585499D01*
X130410118Y-59634321D01*
X130457204Y-59686615D01*
X130467095Y-59703747D01*
X130475810Y-59714366D01*
X130508037Y-59774660D01*
X130546158Y-59840687D01*
X130550544Y-59854188D01*
X130554391Y-59861384D01*
X130575592Y-59931275D01*
X130601135Y-60009887D01*
X130602034Y-60018443D01*
X130602785Y-60020918D01*
X130610102Y-60095209D01*
X130619731Y-60186820D01*
X130610101Y-60278439D01*
X130602785Y-60352721D01*
X130602034Y-60355195D01*
X130601135Y-60363753D01*
X130575587Y-60442378D01*
X130554391Y-60512255D01*
X130550545Y-60519449D01*
X130546158Y-60532953D01*
X130508030Y-60598992D01*
X130475810Y-60659273D01*
X130467097Y-60669889D01*
X130457204Y-60687025D01*
X130410109Y-60739329D01*
X130370051Y-60788140D01*
X130355145Y-60800372D01*
X130338161Y-60819236D01*
X130285849Y-60857243D01*
X130241184Y-60893899D01*
X130219290Y-60905600D01*
X130194231Y-60923808D01*
X130140322Y-60947809D01*
X130094166Y-60972480D01*
X130065122Y-60981290D01*
X130031704Y-60996169D01*
X129979479Y-61007269D01*
X129934632Y-61020874D01*
X129898934Y-61024390D01*
X129857685Y-61033158D01*
X129809919Y-61033158D01*
X129768731Y-61037215D01*
X129727542Y-61033158D01*
X129679777Y-61033158D01*
X129638528Y-61024390D01*
X129602829Y-61020874D01*
X129557979Y-61007268D01*
X129505758Y-60996169D01*
X129472341Y-60981291D01*
X129443295Y-60972480D01*
X129397133Y-60947806D01*
X129343231Y-60923808D01*
X129318174Y-60905603D01*
X129296277Y-60893899D01*
X129251604Y-60857236D01*
X129199301Y-60819236D01*
X129182319Y-60800375D01*
X129167410Y-60788140D01*
X129127341Y-60739316D01*
X129080258Y-60687025D01*
X129070367Y-60669893D01*
X129061651Y-60659273D01*
X129029418Y-60598968D01*
X128991304Y-60532953D01*
X128986917Y-60519454D01*
X128983070Y-60512255D01*
X128961859Y-60442332D01*
X128936327Y-60363753D01*
X128935428Y-60355200D01*
X128934676Y-60352721D01*
X128927344Y-60278287D01*
X128917731Y-60186820D01*
X128927343Y-60095360D01*
X128934676Y-60020918D01*
X128935428Y-60018438D01*
X128936327Y-60009887D01*
X128961854Y-59931322D01*
X128983070Y-59861384D01*
X128986918Y-59854183D01*
X128991304Y-59840687D01*
X129029411Y-59774683D01*
X129061651Y-59714366D01*
X129070369Y-59703743D01*
X129080258Y-59686615D01*
X129127332Y-59634333D01*
X129167410Y-59585499D01*
X129182322Y-59573260D01*
X129199301Y-59554404D01*
X129251593Y-59516411D01*
X129296277Y-59479740D01*
X129318179Y-59468033D01*
X129343231Y-59449832D01*
X129397122Y-59425838D01*
X129443295Y-59401159D01*
X129472348Y-59392345D01*
X129505758Y-59377471D01*
X129557968Y-59366373D01*
X129602829Y-59352765D01*
X129638537Y-59349247D01*
X129679777Y-59340482D01*
X129727532Y-59340482D01*
X129768731Y-59336424D01*
X129809930Y-59340482D01*
G37*
G36*
X128941199Y-56953662D02*
G01*
X128988954Y-56953662D01*
X129030194Y-56962427D01*
X129065901Y-56965945D01*
X129110759Y-56979552D01*
X129162973Y-56990651D01*
X129196384Y-57005526D01*
X129225435Y-57014339D01*
X129271602Y-57039015D01*
X129325500Y-57063012D01*
X129350554Y-57081215D01*
X129372453Y-57092920D01*
X129417128Y-57129584D01*
X129469430Y-57167584D01*
X129486411Y-57186443D01*
X129501320Y-57198679D01*
X129541387Y-57247501D01*
X129588473Y-57299795D01*
X129598364Y-57316927D01*
X129607079Y-57327546D01*
X129639306Y-57387840D01*
X129677427Y-57453867D01*
X129681813Y-57467368D01*
X129685660Y-57474564D01*
X129706861Y-57544455D01*
X129732404Y-57623067D01*
X129733303Y-57631623D01*
X129734054Y-57634098D01*
X129741371Y-57708389D01*
X129751000Y-57800000D01*
X129741370Y-57891619D01*
X129734054Y-57965901D01*
X129733303Y-57968375D01*
X129732404Y-57976933D01*
X129706856Y-58055558D01*
X129685660Y-58125435D01*
X129681814Y-58132629D01*
X129677427Y-58146133D01*
X129639299Y-58212172D01*
X129607079Y-58272453D01*
X129598366Y-58283069D01*
X129588473Y-58300205D01*
X129541378Y-58352509D01*
X129501320Y-58401320D01*
X129486414Y-58413552D01*
X129469430Y-58432416D01*
X129417118Y-58470423D01*
X129372453Y-58507079D01*
X129350559Y-58518780D01*
X129325500Y-58536988D01*
X129271591Y-58560989D01*
X129225435Y-58585660D01*
X129196391Y-58594470D01*
X129162973Y-58609349D01*
X129110748Y-58620449D01*
X129065901Y-58634054D01*
X129030203Y-58637570D01*
X128988954Y-58646338D01*
X128941188Y-58646338D01*
X128900000Y-58650395D01*
X128858811Y-58646338D01*
X128811046Y-58646338D01*
X128769797Y-58637570D01*
X128734098Y-58634054D01*
X128689248Y-58620448D01*
X128637027Y-58609349D01*
X128603610Y-58594471D01*
X128574564Y-58585660D01*
X128528402Y-58560986D01*
X128474500Y-58536988D01*
X128449443Y-58518783D01*
X128427546Y-58507079D01*
X128382873Y-58470416D01*
X128330570Y-58432416D01*
X128313588Y-58413555D01*
X128298679Y-58401320D01*
X128258610Y-58352496D01*
X128211527Y-58300205D01*
X128201636Y-58283073D01*
X128192920Y-58272453D01*
X128160687Y-58212148D01*
X128122573Y-58146133D01*
X128118186Y-58132634D01*
X128114339Y-58125435D01*
X128093128Y-58055512D01*
X128067596Y-57976933D01*
X128066697Y-57968380D01*
X128065945Y-57965901D01*
X128058613Y-57891467D01*
X128049000Y-57800000D01*
X128058612Y-57708540D01*
X128065945Y-57634098D01*
X128066697Y-57631618D01*
X128067596Y-57623067D01*
X128093123Y-57544502D01*
X128114339Y-57474564D01*
X128118187Y-57467363D01*
X128122573Y-57453867D01*
X128160680Y-57387863D01*
X128192920Y-57327546D01*
X128201638Y-57316923D01*
X128211527Y-57299795D01*
X128258601Y-57247513D01*
X128298679Y-57198679D01*
X128313591Y-57186440D01*
X128330570Y-57167584D01*
X128382862Y-57129591D01*
X128427546Y-57092920D01*
X128449448Y-57081213D01*
X128474500Y-57063012D01*
X128528391Y-57039018D01*
X128574564Y-57014339D01*
X128603617Y-57005525D01*
X128637027Y-56990651D01*
X128689237Y-56979553D01*
X128734098Y-56965945D01*
X128769806Y-56962427D01*
X128811046Y-56953662D01*
X128858801Y-56953662D01*
X128900000Y-56949604D01*
X128941199Y-56953662D01*
G37*
G36*
X114133413Y-52643098D02*
G01*
X114297032Y-52675644D01*
X114451159Y-52739485D01*
X114589869Y-52832168D01*
X114707832Y-52950131D01*
X114800515Y-53088841D01*
X114864356Y-53242968D01*
X114896902Y-53406587D01*
X114896902Y-53573413D01*
X114864356Y-53737032D01*
X114800515Y-53891159D01*
X114707832Y-54029869D01*
X114589869Y-54147832D01*
X114451159Y-54240515D01*
X114297032Y-54304356D01*
X114133413Y-54336902D01*
X113250000Y-54341000D01*
X113166587Y-54336902D01*
X113002968Y-54304356D01*
X112848841Y-54240515D01*
X112710131Y-54147832D01*
X112592168Y-54029869D01*
X112499485Y-53891159D01*
X112435644Y-53737032D01*
X112403098Y-53573413D01*
X112403098Y-53406587D01*
X112435644Y-53242968D01*
X112499485Y-53088841D01*
X112592168Y-52950131D01*
X112710131Y-52832168D01*
X112848841Y-52739485D01*
X113002968Y-52675644D01*
X113166587Y-52643098D01*
X114050000Y-52639000D01*
X114133413Y-52643098D01*
G37*
G36*
X130109517Y-52642882D02*
G01*
X130126062Y-52653938D01*
X130137118Y-52670483D01*
X130141000Y-52690000D01*
X130141000Y-54290000D01*
X130137118Y-54309517D01*
X130126062Y-54326062D01*
X130109517Y-54337118D01*
X130090000Y-54341000D01*
X127690000Y-54341000D01*
X127670483Y-54337118D01*
X127653938Y-54326062D01*
X127642882Y-54309517D01*
X127639000Y-54290000D01*
X127639000Y-52690000D01*
X127642882Y-52670483D01*
X127653938Y-52653938D01*
X127670483Y-52642882D01*
X127690000Y-52639000D01*
X130090000Y-52639000D01*
X130109517Y-52642882D01*
G37*
G36*
X114133413Y-50103098D02*
G01*
X114297032Y-50135644D01*
X114451159Y-50199485D01*
X114589869Y-50292168D01*
X114707832Y-50410131D01*
X114800515Y-50548841D01*
X114864356Y-50702968D01*
X114896902Y-50866587D01*
X114896902Y-51033413D01*
X114864356Y-51197032D01*
X114800515Y-51351159D01*
X114707832Y-51489869D01*
X114589869Y-51607832D01*
X114451159Y-51700515D01*
X114297032Y-51764356D01*
X114133413Y-51796902D01*
X113250000Y-51801000D01*
X113166587Y-51796902D01*
X113002968Y-51764356D01*
X112848841Y-51700515D01*
X112710131Y-51607832D01*
X112592168Y-51489869D01*
X112499485Y-51351159D01*
X112435644Y-51197032D01*
X112403098Y-51033413D01*
X112403098Y-50866587D01*
X112435644Y-50702968D01*
X112499485Y-50548841D01*
X112592168Y-50410131D01*
X112710131Y-50292168D01*
X112848841Y-50199485D01*
X113002968Y-50135644D01*
X113166587Y-50103098D01*
X114050000Y-50099000D01*
X114133413Y-50103098D01*
G37*
G36*
X129373413Y-50103098D02*
G01*
X129537032Y-50135644D01*
X129691159Y-50199485D01*
X129829869Y-50292168D01*
X129947832Y-50410131D01*
X130040515Y-50548841D01*
X130104356Y-50702968D01*
X130136902Y-50866587D01*
X130136902Y-51033413D01*
X130104356Y-51197032D01*
X130040515Y-51351159D01*
X129947832Y-51489869D01*
X129829869Y-51607832D01*
X129691159Y-51700515D01*
X129537032Y-51764356D01*
X129373413Y-51796902D01*
X128490000Y-51801000D01*
X128406587Y-51796902D01*
X128242968Y-51764356D01*
X128088841Y-51700515D01*
X127950131Y-51607832D01*
X127832168Y-51489869D01*
X127739485Y-51351159D01*
X127675644Y-51197032D01*
X127643098Y-51033413D01*
X127643098Y-50866587D01*
X127675644Y-50702968D01*
X127739485Y-50548841D01*
X127832168Y-50410131D01*
X127950131Y-50292168D01*
X128088841Y-50199485D01*
X128242968Y-50135644D01*
X128406587Y-50103098D01*
X129290000Y-50099000D01*
X129373413Y-50103098D01*
G37*
G36*
X114133413Y-47563098D02*
G01*
X114297032Y-47595644D01*
X114451159Y-47659485D01*
X114589869Y-47752168D01*
X114707832Y-47870131D01*
X114800515Y-48008841D01*
X114864356Y-48162968D01*
X114896902Y-48326587D01*
X114896902Y-48493413D01*
X114864356Y-48657032D01*
X114800515Y-48811159D01*
X114707832Y-48949869D01*
X114589869Y-49067832D01*
X114451159Y-49160515D01*
X114297032Y-49224356D01*
X114133413Y-49256902D01*
X113250000Y-49261000D01*
X113166587Y-49256902D01*
X113002968Y-49224356D01*
X112848841Y-49160515D01*
X112710131Y-49067832D01*
X112592168Y-48949869D01*
X112499485Y-48811159D01*
X112435644Y-48657032D01*
X112403098Y-48493413D01*
X112403098Y-48326587D01*
X112435644Y-48162968D01*
X112499485Y-48008841D01*
X112592168Y-47870131D01*
X112710131Y-47752168D01*
X112848841Y-47659485D01*
X113002968Y-47595644D01*
X113166587Y-47563098D01*
X114050000Y-47559000D01*
X114133413Y-47563098D01*
G37*
G36*
X129373413Y-47563098D02*
G01*
X129537032Y-47595644D01*
X129691159Y-47659485D01*
X129829869Y-47752168D01*
X129947832Y-47870131D01*
X130040515Y-48008841D01*
X130104356Y-48162968D01*
X130136902Y-48326587D01*
X130136902Y-48493413D01*
X130104356Y-48657032D01*
X130040515Y-48811159D01*
X129947832Y-48949869D01*
X129829869Y-49067832D01*
X129691159Y-49160515D01*
X129537032Y-49224356D01*
X129373413Y-49256902D01*
X128490000Y-49261000D01*
X128406587Y-49256902D01*
X128242968Y-49224356D01*
X128088841Y-49160515D01*
X127950131Y-49067832D01*
X127832168Y-48949869D01*
X127739485Y-48811159D01*
X127675644Y-48657032D01*
X127643098Y-48493413D01*
X127643098Y-48326587D01*
X127675644Y-48162968D01*
X127739485Y-48008841D01*
X127832168Y-47870131D01*
X127950131Y-47752168D01*
X128088841Y-47659485D01*
X128242968Y-47595644D01*
X128406587Y-47563098D01*
X129290000Y-47559000D01*
X129373413Y-47563098D01*
G37*
G36*
X114133413Y-45023098D02*
G01*
X114297032Y-45055644D01*
X114451159Y-45119485D01*
X114589869Y-45212168D01*
X114707832Y-45330131D01*
X114800515Y-45468841D01*
X114864356Y-45622968D01*
X114896902Y-45786587D01*
X114896902Y-45953413D01*
X114864356Y-46117032D01*
X114800515Y-46271159D01*
X114707832Y-46409869D01*
X114589869Y-46527832D01*
X114451159Y-46620515D01*
X114297032Y-46684356D01*
X114133413Y-46716902D01*
X113250000Y-46721000D01*
X113166587Y-46716902D01*
X113002968Y-46684356D01*
X112848841Y-46620515D01*
X112710131Y-46527832D01*
X112592168Y-46409869D01*
X112499485Y-46271159D01*
X112435644Y-46117032D01*
X112403098Y-45953413D01*
X112403098Y-45786587D01*
X112435644Y-45622968D01*
X112499485Y-45468841D01*
X112592168Y-45330131D01*
X112710131Y-45212168D01*
X112848841Y-45119485D01*
X113002968Y-45055644D01*
X113166587Y-45023098D01*
X114050000Y-45019000D01*
X114133413Y-45023098D01*
G37*
G36*
X129373413Y-45023098D02*
G01*
X129537032Y-45055644D01*
X129691159Y-45119485D01*
X129829869Y-45212168D01*
X129947832Y-45330131D01*
X130040515Y-45468841D01*
X130104356Y-45622968D01*
X130136902Y-45786587D01*
X130136902Y-45953413D01*
X130104356Y-46117032D01*
X130040515Y-46271159D01*
X129947832Y-46409869D01*
X129829869Y-46527832D01*
X129691159Y-46620515D01*
X129537032Y-46684356D01*
X129373413Y-46716902D01*
X128490000Y-46721000D01*
X128406587Y-46716902D01*
X128242968Y-46684356D01*
X128088841Y-46620515D01*
X127950131Y-46527832D01*
X127832168Y-46409869D01*
X127739485Y-46271159D01*
X127675644Y-46117032D01*
X127643098Y-45953413D01*
X127643098Y-45786587D01*
X127675644Y-45622968D01*
X127739485Y-45468841D01*
X127832168Y-45330131D01*
X127950131Y-45212168D01*
X128088841Y-45119485D01*
X128242968Y-45055644D01*
X128406587Y-45023098D01*
X129290000Y-45019000D01*
X129373413Y-45023098D01*
G37*
G36*
X114133413Y-42483098D02*
G01*
X114297032Y-42515644D01*
X114451159Y-42579485D01*
X114589869Y-42672168D01*
X114707832Y-42790131D01*
X114800515Y-42928841D01*
X114864356Y-43082968D01*
X114896902Y-43246587D01*
X114896902Y-43413413D01*
X114864356Y-43577032D01*
X114800515Y-43731159D01*
X114707832Y-43869869D01*
X114589869Y-43987832D01*
X114451159Y-44080515D01*
X114297032Y-44144356D01*
X114133413Y-44176902D01*
X113250000Y-44181000D01*
X113166587Y-44176902D01*
X113002968Y-44144356D01*
X112848841Y-44080515D01*
X112710131Y-43987832D01*
X112592168Y-43869869D01*
X112499485Y-43731159D01*
X112435644Y-43577032D01*
X112403098Y-43413413D01*
X112403098Y-43246587D01*
X112435644Y-43082968D01*
X112499485Y-42928841D01*
X112592168Y-42790131D01*
X112710131Y-42672168D01*
X112848841Y-42579485D01*
X113002968Y-42515644D01*
X113166587Y-42483098D01*
X114050000Y-42479000D01*
X114133413Y-42483098D01*
G37*
G36*
X129373413Y-42483098D02*
G01*
X129537032Y-42515644D01*
X129691159Y-42579485D01*
X129829869Y-42672168D01*
X129947832Y-42790131D01*
X130040515Y-42928841D01*
X130104356Y-43082968D01*
X130136902Y-43246587D01*
X130136902Y-43413413D01*
X130104356Y-43577032D01*
X130040515Y-43731159D01*
X129947832Y-43869869D01*
X129829869Y-43987832D01*
X129691159Y-44080515D01*
X129537032Y-44144356D01*
X129373413Y-44176902D01*
X128490000Y-44181000D01*
X128406587Y-44176902D01*
X128242968Y-44144356D01*
X128088841Y-44080515D01*
X127950131Y-43987832D01*
X127832168Y-43869869D01*
X127739485Y-43731159D01*
X127675644Y-43577032D01*
X127643098Y-43413413D01*
X127643098Y-43246587D01*
X127675644Y-43082968D01*
X127739485Y-42928841D01*
X127832168Y-42790131D01*
X127950131Y-42672168D01*
X128088841Y-42579485D01*
X128242968Y-42515644D01*
X128406587Y-42483098D01*
X129290000Y-42479000D01*
X129373413Y-42483098D01*
G37*
G36*
X114133413Y-39943098D02*
G01*
X114297032Y-39975644D01*
X114451159Y-40039485D01*
X114589869Y-40132168D01*
X114707832Y-40250131D01*
X114800515Y-40388841D01*
X114864356Y-40542968D01*
X114896902Y-40706587D01*
X114896902Y-40873413D01*
X114864356Y-41037032D01*
X114800515Y-41191159D01*
X114707832Y-41329869D01*
X114589869Y-41447832D01*
X114451159Y-41540515D01*
X114297032Y-41604356D01*
X114133413Y-41636902D01*
X113250000Y-41641000D01*
X113166587Y-41636902D01*
X113002968Y-41604356D01*
X112848841Y-41540515D01*
X112710131Y-41447832D01*
X112592168Y-41329869D01*
X112499485Y-41191159D01*
X112435644Y-41037032D01*
X112403098Y-40873413D01*
X112403098Y-40706587D01*
X112435644Y-40542968D01*
X112499485Y-40388841D01*
X112592168Y-40250131D01*
X112710131Y-40132168D01*
X112848841Y-40039485D01*
X113002968Y-39975644D01*
X113166587Y-39943098D01*
X114050000Y-39939000D01*
X114133413Y-39943098D01*
G37*
G36*
X129373413Y-39943098D02*
G01*
X129537032Y-39975644D01*
X129691159Y-40039485D01*
X129829869Y-40132168D01*
X129947832Y-40250131D01*
X130040515Y-40388841D01*
X130104356Y-40542968D01*
X130136902Y-40706587D01*
X130136902Y-40873413D01*
X130104356Y-41037032D01*
X130040515Y-41191159D01*
X129947832Y-41329869D01*
X129829869Y-41447832D01*
X129691159Y-41540515D01*
X129537032Y-41604356D01*
X129373413Y-41636902D01*
X128490000Y-41641000D01*
X128406587Y-41636902D01*
X128242968Y-41604356D01*
X128088841Y-41540515D01*
X127950131Y-41447832D01*
X127832168Y-41329869D01*
X127739485Y-41191159D01*
X127675644Y-41037032D01*
X127643098Y-40873413D01*
X127643098Y-40706587D01*
X127675644Y-40542968D01*
X127739485Y-40388841D01*
X127832168Y-40250131D01*
X127950131Y-40132168D01*
X128088841Y-40039485D01*
X128242968Y-39975644D01*
X128406587Y-39943098D01*
X129290000Y-39939000D01*
X129373413Y-39943098D01*
G37*
G36*
X114133413Y-37403098D02*
G01*
X114297032Y-37435644D01*
X114451159Y-37499485D01*
X114589869Y-37592168D01*
X114707832Y-37710131D01*
X114800515Y-37848841D01*
X114864356Y-38002968D01*
X114896902Y-38166587D01*
X114896902Y-38333413D01*
X114864356Y-38497032D01*
X114800515Y-38651159D01*
X114707832Y-38789869D01*
X114589869Y-38907832D01*
X114451159Y-39000515D01*
X114297032Y-39064356D01*
X114133413Y-39096902D01*
X113250000Y-39101000D01*
X113166587Y-39096902D01*
X113002968Y-39064356D01*
X112848841Y-39000515D01*
X112710131Y-38907832D01*
X112592168Y-38789869D01*
X112499485Y-38651159D01*
X112435644Y-38497032D01*
X112403098Y-38333413D01*
X112403098Y-38166587D01*
X112435644Y-38002968D01*
X112499485Y-37848841D01*
X112592168Y-37710131D01*
X112710131Y-37592168D01*
X112848841Y-37499485D01*
X113002968Y-37435644D01*
X113166587Y-37403098D01*
X114050000Y-37399000D01*
X114133413Y-37403098D01*
G37*
G36*
X129373413Y-37403098D02*
G01*
X129537032Y-37435644D01*
X129691159Y-37499485D01*
X129829869Y-37592168D01*
X129947832Y-37710131D01*
X130040515Y-37848841D01*
X130104356Y-38002968D01*
X130136902Y-38166587D01*
X130136902Y-38333413D01*
X130104356Y-38497032D01*
X130040515Y-38651159D01*
X129947832Y-38789869D01*
X129829869Y-38907832D01*
X129691159Y-39000515D01*
X129537032Y-39064356D01*
X129373413Y-39096902D01*
X128490000Y-39101000D01*
X128406587Y-39096902D01*
X128242968Y-39064356D01*
X128088841Y-39000515D01*
X127950131Y-38907832D01*
X127832168Y-38789869D01*
X127739485Y-38651159D01*
X127675644Y-38497032D01*
X127643098Y-38333413D01*
X127643098Y-38166587D01*
X127675644Y-38002968D01*
X127739485Y-37848841D01*
X127832168Y-37710131D01*
X127950131Y-37592168D01*
X128088841Y-37499485D01*
X128242968Y-37435644D01*
X128406587Y-37403098D01*
X129290000Y-37399000D01*
X129373413Y-37403098D01*
G37*
G36*
X119143983Y-35553936D02*
G01*
X119194180Y-35553936D01*
X119237524Y-35563149D01*
X119275659Y-35566905D01*
X119323566Y-35581437D01*
X119378424Y-35593098D01*
X119413530Y-35608728D01*
X119444566Y-35618143D01*
X119493884Y-35644504D01*
X119550500Y-35669711D01*
X119576822Y-35688835D01*
X119600232Y-35701348D01*
X119647988Y-35740540D01*
X119702887Y-35780427D01*
X119720711Y-35800223D01*
X119736675Y-35813324D01*
X119779572Y-35865594D01*
X119828924Y-35920405D01*
X119839292Y-35938363D01*
X119848651Y-35949767D01*
X119883273Y-36014542D01*
X119923104Y-36083530D01*
X119927685Y-36097630D01*
X119931856Y-36105433D01*
X119954852Y-36181242D01*
X119981311Y-36262672D01*
X119982242Y-36271532D01*
X119983094Y-36274340D01*
X119991384Y-36358513D01*
X120001000Y-36450000D01*
X119991383Y-36541494D01*
X119983094Y-36625659D01*
X119982242Y-36628466D01*
X119981311Y-36637328D01*
X119954848Y-36718771D01*
X119931856Y-36794566D01*
X119927686Y-36802366D01*
X119923104Y-36816470D01*
X119883266Y-36885470D01*
X119848651Y-36950232D01*
X119839294Y-36961633D01*
X119828924Y-36979595D01*
X119779563Y-37034415D01*
X119736675Y-37086675D01*
X119720714Y-37099773D01*
X119702887Y-37119573D01*
X119647977Y-37159467D01*
X119600232Y-37198651D01*
X119576827Y-37211161D01*
X119550500Y-37230289D01*
X119493873Y-37255500D01*
X119444566Y-37281856D01*
X119413537Y-37291268D01*
X119378424Y-37306902D01*
X119323555Y-37318564D01*
X119275659Y-37333094D01*
X119237532Y-37336849D01*
X119194180Y-37346064D01*
X119143973Y-37346064D01*
X119100000Y-37350395D01*
X119056027Y-37346064D01*
X119005820Y-37346064D01*
X118962467Y-37336849D01*
X118924340Y-37333094D01*
X118876441Y-37318563D01*
X118821576Y-37306902D01*
X118786464Y-37291269D01*
X118755433Y-37281856D01*
X118706120Y-37255498D01*
X118649500Y-37230289D01*
X118623175Y-37211163D01*
X118599767Y-37198651D01*
X118552013Y-37159460D01*
X118497113Y-37119573D01*
X118479287Y-37099776D01*
X118463324Y-37086675D01*
X118420425Y-37034402D01*
X118371076Y-36979595D01*
X118360708Y-36961637D01*
X118351348Y-36950232D01*
X118316719Y-36885447D01*
X118276896Y-36816470D01*
X118272315Y-36802371D01*
X118268143Y-36794566D01*
X118245136Y-36718725D01*
X118218689Y-36637328D01*
X118217758Y-36628471D01*
X118216905Y-36625659D01*
X118208600Y-36541342D01*
X118199000Y-36450000D01*
X118208599Y-36358664D01*
X118216905Y-36274340D01*
X118217758Y-36271527D01*
X118218689Y-36262672D01*
X118245132Y-36181288D01*
X118268143Y-36105433D01*
X118272315Y-36097626D01*
X118276896Y-36083530D01*
X118316712Y-36014565D01*
X118351348Y-35949767D01*
X118360710Y-35938359D01*
X118371076Y-35920405D01*
X118420416Y-35865607D01*
X118463324Y-35813324D01*
X118479291Y-35800219D01*
X118497113Y-35780427D01*
X118552002Y-35740546D01*
X118599767Y-35701348D01*
X118623180Y-35688833D01*
X118649500Y-35669711D01*
X118706109Y-35644506D01*
X118755433Y-35618143D01*
X118786471Y-35608727D01*
X118821576Y-35593098D01*
X118876430Y-35581438D01*
X118924340Y-35566905D01*
X118962476Y-35563148D01*
X119005820Y-35553936D01*
X119056016Y-35553936D01*
X119100000Y-35549604D01*
X119143983Y-35553936D01*
G37*
G36*
X114133413Y-34863098D02*
G01*
X114297032Y-34895644D01*
X114451159Y-34959485D01*
X114589869Y-35052168D01*
X114707832Y-35170131D01*
X114800515Y-35308841D01*
X114864356Y-35462968D01*
X114896902Y-35626587D01*
X114896902Y-35793413D01*
X114864356Y-35957032D01*
X114800515Y-36111159D01*
X114707832Y-36249869D01*
X114589869Y-36367832D01*
X114451159Y-36460515D01*
X114297032Y-36524356D01*
X114133413Y-36556902D01*
X113250000Y-36561000D01*
X113166587Y-36556902D01*
X113002968Y-36524356D01*
X112848841Y-36460515D01*
X112710131Y-36367832D01*
X112592168Y-36249869D01*
X112499485Y-36111159D01*
X112435644Y-35957032D01*
X112403098Y-35793413D01*
X112403098Y-35626587D01*
X112435644Y-35462968D01*
X112499485Y-35308841D01*
X112592168Y-35170131D01*
X112710131Y-35052168D01*
X112848841Y-34959485D01*
X113002968Y-34895644D01*
X113166587Y-34863098D01*
X114050000Y-34859000D01*
X114133413Y-34863098D01*
G37*
G36*
X129373413Y-34863098D02*
G01*
X129537032Y-34895644D01*
X129691159Y-34959485D01*
X129829869Y-35052168D01*
X129947832Y-35170131D01*
X130040515Y-35308841D01*
X130104356Y-35462968D01*
X130136902Y-35626587D01*
X130136902Y-35793413D01*
X130104356Y-35957032D01*
X130040515Y-36111159D01*
X129947832Y-36249869D01*
X129829869Y-36367832D01*
X129691159Y-36460515D01*
X129537032Y-36524356D01*
X129373413Y-36556902D01*
X128490000Y-36561000D01*
X128406587Y-36556902D01*
X128242968Y-36524356D01*
X128088841Y-36460515D01*
X127950131Y-36367832D01*
X127832168Y-36249869D01*
X127739485Y-36111159D01*
X127675644Y-35957032D01*
X127643098Y-35793413D01*
X127643098Y-35626587D01*
X127675644Y-35462968D01*
X127739485Y-35308841D01*
X127832168Y-35170131D01*
X127950131Y-35052168D01*
X128088841Y-34959485D01*
X128242968Y-34895644D01*
X128406587Y-34863098D01*
X129290000Y-34859000D01*
X129373413Y-34863098D01*
G37*
G36*
X119969517Y-33012882D02*
G01*
X119986062Y-33023938D01*
X119997118Y-33040483D01*
X120001000Y-33060000D01*
X120001000Y-34760000D01*
X119997118Y-34779517D01*
X119986062Y-34796062D01*
X119969517Y-34807118D01*
X119950000Y-34811000D01*
X118250000Y-34811000D01*
X118230483Y-34807118D01*
X118213938Y-34796062D01*
X118202882Y-34779517D01*
X118199000Y-34760000D01*
X118199000Y-33060000D01*
X118202882Y-33040483D01*
X118213938Y-33023938D01*
X118230483Y-33012882D01*
X118250000Y-33009000D01*
X119950000Y-33009000D01*
X119969517Y-33012882D01*
G37*
G36*
X114133413Y-32323098D02*
G01*
X114297032Y-32355644D01*
X114451159Y-32419485D01*
X114589869Y-32512168D01*
X114707832Y-32630131D01*
X114800515Y-32768841D01*
X114864356Y-32922968D01*
X114896902Y-33086587D01*
X114896902Y-33253413D01*
X114864356Y-33417032D01*
X114800515Y-33571159D01*
X114707832Y-33709869D01*
X114589869Y-33827832D01*
X114451159Y-33920515D01*
X114297032Y-33984356D01*
X114133413Y-34016902D01*
X113250000Y-34021000D01*
X113166587Y-34016902D01*
X113002968Y-33984356D01*
X112848841Y-33920515D01*
X112710131Y-33827832D01*
X112592168Y-33709869D01*
X112499485Y-33571159D01*
X112435644Y-33417032D01*
X112403098Y-33253413D01*
X112403098Y-33086587D01*
X112435644Y-32922968D01*
X112499485Y-32768841D01*
X112592168Y-32630131D01*
X112710131Y-32512168D01*
X112848841Y-32419485D01*
X113002968Y-32355644D01*
X113166587Y-32323098D01*
X114050000Y-32319000D01*
X114133413Y-32323098D01*
G37*
G36*
X129373413Y-32323098D02*
G01*
X129537032Y-32355644D01*
X129691159Y-32419485D01*
X129829869Y-32512168D01*
X129947832Y-32630131D01*
X130040515Y-32768841D01*
X130104356Y-32922968D01*
X130136902Y-33086587D01*
X130136902Y-33253413D01*
X130104356Y-33417032D01*
X130040515Y-33571159D01*
X129947832Y-33709869D01*
X129829869Y-33827832D01*
X129691159Y-33920515D01*
X129537032Y-33984356D01*
X129373413Y-34016902D01*
X128490000Y-34021000D01*
X128406587Y-34016902D01*
X128242968Y-33984356D01*
X128088841Y-33920515D01*
X127950131Y-33827832D01*
X127832168Y-33709869D01*
X127739485Y-33571159D01*
X127675644Y-33417032D01*
X127643098Y-33253413D01*
X127643098Y-33086587D01*
X127675644Y-32922968D01*
X127739485Y-32768841D01*
X127832168Y-32630131D01*
X127950131Y-32512168D01*
X128088841Y-32419485D01*
X128242968Y-32355644D01*
X128406587Y-32323098D01*
X129290000Y-32319000D01*
X129373413Y-32323098D01*
G37*
G36*
X114133413Y-29783098D02*
G01*
X114297032Y-29815644D01*
X114451159Y-29879485D01*
X114589869Y-29972168D01*
X114707832Y-30090131D01*
X114800515Y-30228841D01*
X114864356Y-30382968D01*
X114896902Y-30546587D01*
X114896902Y-30713413D01*
X114864356Y-30877032D01*
X114800515Y-31031159D01*
X114707832Y-31169869D01*
X114589869Y-31287832D01*
X114451159Y-31380515D01*
X114297032Y-31444356D01*
X114133413Y-31476902D01*
X113250000Y-31481000D01*
X113166587Y-31476902D01*
X113002968Y-31444356D01*
X112848841Y-31380515D01*
X112710131Y-31287832D01*
X112592168Y-31169869D01*
X112499485Y-31031159D01*
X112435644Y-30877032D01*
X112403098Y-30713413D01*
X112403098Y-30546587D01*
X112435644Y-30382968D01*
X112499485Y-30228841D01*
X112592168Y-30090131D01*
X112710131Y-29972168D01*
X112848841Y-29879485D01*
X113002968Y-29815644D01*
X113166587Y-29783098D01*
X114050000Y-29779000D01*
X114133413Y-29783098D01*
G37*
G36*
X129373413Y-29783098D02*
G01*
X129537032Y-29815644D01*
X129691159Y-29879485D01*
X129829869Y-29972168D01*
X129947832Y-30090131D01*
X130040515Y-30228841D01*
X130104356Y-30382968D01*
X130136902Y-30546587D01*
X130136902Y-30713413D01*
X130104356Y-30877032D01*
X130040515Y-31031159D01*
X129947832Y-31169869D01*
X129829869Y-31287832D01*
X129691159Y-31380515D01*
X129537032Y-31444356D01*
X129373413Y-31476902D01*
X128490000Y-31481000D01*
X128406587Y-31476902D01*
X128242968Y-31444356D01*
X128088841Y-31380515D01*
X127950131Y-31287832D01*
X127832168Y-31169869D01*
X127739485Y-31031159D01*
X127675644Y-30877032D01*
X127643098Y-30713413D01*
X127643098Y-30546587D01*
X127675644Y-30382968D01*
X127739485Y-30228841D01*
X127832168Y-30090131D01*
X127950131Y-29972168D01*
X128088841Y-29879485D01*
X128242968Y-29815644D01*
X128406587Y-29783098D01*
X129290000Y-29779000D01*
X129373413Y-29783098D01*
G37*
G36*
X114133413Y-27243098D02*
G01*
X114297032Y-27275644D01*
X114451159Y-27339485D01*
X114589869Y-27432168D01*
X114707832Y-27550131D01*
X114800515Y-27688841D01*
X114864356Y-27842968D01*
X114896902Y-28006587D01*
X114896902Y-28173413D01*
X114864356Y-28337032D01*
X114800515Y-28491159D01*
X114707832Y-28629869D01*
X114589869Y-28747832D01*
X114451159Y-28840515D01*
X114297032Y-28904356D01*
X114133413Y-28936902D01*
X113250000Y-28941000D01*
X113166587Y-28936902D01*
X113002968Y-28904356D01*
X112848841Y-28840515D01*
X112710131Y-28747832D01*
X112592168Y-28629869D01*
X112499485Y-28491159D01*
X112435644Y-28337032D01*
X112403098Y-28173413D01*
X112403098Y-28006587D01*
X112435644Y-27842968D01*
X112499485Y-27688841D01*
X112592168Y-27550131D01*
X112710131Y-27432168D01*
X112848841Y-27339485D01*
X113002968Y-27275644D01*
X113166587Y-27243098D01*
X114050000Y-27239000D01*
X114133413Y-27243098D01*
G37*
G36*
X129373413Y-27243098D02*
G01*
X129537032Y-27275644D01*
X129691159Y-27339485D01*
X129829869Y-27432168D01*
X129947832Y-27550131D01*
X130040515Y-27688841D01*
X130104356Y-27842968D01*
X130136902Y-28006587D01*
X130136902Y-28173413D01*
X130104356Y-28337032D01*
X130040515Y-28491159D01*
X129947832Y-28629869D01*
X129829869Y-28747832D01*
X129691159Y-28840515D01*
X129537032Y-28904356D01*
X129373413Y-28936902D01*
X128490000Y-28941000D01*
X128406587Y-28936902D01*
X128242968Y-28904356D01*
X128088841Y-28840515D01*
X127950131Y-28747832D01*
X127832168Y-28629869D01*
X127739485Y-28491159D01*
X127675644Y-28337032D01*
X127643098Y-28173413D01*
X127643098Y-28006587D01*
X127675644Y-27842968D01*
X127739485Y-27688841D01*
X127832168Y-27550131D01*
X127950131Y-27432168D01*
X128088841Y-27339485D01*
X128242968Y-27275644D01*
X128406587Y-27243098D01*
X129290000Y-27239000D01*
X129373413Y-27243098D01*
G37*
G36*
X114133413Y-24703098D02*
G01*
X114297032Y-24735644D01*
X114451159Y-24799485D01*
X114589869Y-24892168D01*
X114707832Y-25010131D01*
X114800515Y-25148841D01*
X114864356Y-25302968D01*
X114896902Y-25466587D01*
X114896902Y-25633413D01*
X114864356Y-25797032D01*
X114800515Y-25951159D01*
X114707832Y-26089869D01*
X114589869Y-26207832D01*
X114451159Y-26300515D01*
X114297032Y-26364356D01*
X114133413Y-26396902D01*
X113250000Y-26401000D01*
X113166587Y-26396902D01*
X113002968Y-26364356D01*
X112848841Y-26300515D01*
X112710131Y-26207832D01*
X112592168Y-26089869D01*
X112499485Y-25951159D01*
X112435644Y-25797032D01*
X112403098Y-25633413D01*
X112403098Y-25466587D01*
X112435644Y-25302968D01*
X112499485Y-25148841D01*
X112592168Y-25010131D01*
X112710131Y-24892168D01*
X112848841Y-24799485D01*
X113002968Y-24735644D01*
X113166587Y-24703098D01*
X114050000Y-24699000D01*
X114133413Y-24703098D01*
G37*
G36*
X129373413Y-24703098D02*
G01*
X129537032Y-24735644D01*
X129691159Y-24799485D01*
X129829869Y-24892168D01*
X129947832Y-25010131D01*
X130040515Y-25148841D01*
X130104356Y-25302968D01*
X130136902Y-25466587D01*
X130136902Y-25633413D01*
X130104356Y-25797032D01*
X130040515Y-25951159D01*
X129947832Y-26089869D01*
X129829869Y-26207832D01*
X129691159Y-26300515D01*
X129537032Y-26364356D01*
X129373413Y-26396902D01*
X128490000Y-26401000D01*
X128406587Y-26396902D01*
X128242968Y-26364356D01*
X128088841Y-26300515D01*
X127950131Y-26207832D01*
X127832168Y-26089869D01*
X127739485Y-25951159D01*
X127675644Y-25797032D01*
X127643098Y-25633413D01*
X127643098Y-25466587D01*
X127675644Y-25302968D01*
X127739485Y-25148841D01*
X127832168Y-25010131D01*
X127950131Y-24892168D01*
X128088841Y-24799485D01*
X128242968Y-24735644D01*
X128406587Y-24703098D01*
X129290000Y-24699000D01*
X129373413Y-24703098D01*
G37*
M02*
